<svg xmlns="http://www.w3.org/2000/svg" xmlns:xlink="http://www.w3.org/1999/xlink" viewBox="0 0 837.46 1391.63"><defs><style>.cls-1{isolation:isolate;}.cls-10,.cls-11,.cls-15,.cls-2,.cls-20,.cls-23,.cls-6,.cls-7,.cls-8{mix-blend-mode:multiply;}.cls-2{fill:url(#linear-gradient);}.cls-3{fill:#d6735c;}.cls-4{fill:#4e4c69;}.cls-5{fill:#70708c;}.cls-6,.cls-7{fill:#333049;}.cls-6{opacity:0.5;}.cls-7{opacity:0.3;}.cls-8{fill:#b7a28f;}.cls-15,.cls-23,.cls-8{opacity:0.6;}.cls-10,.cls-9{fill:#ffd4c5;}.cls-11{fill:#d6a79a;}.cls-12{fill:#ffb098;}.cls-13{fill:#fff;}.cls-14{fill:#d85961;}.cls-15{fill:#975961;}.cls-16{fill:#005688;}.cls-17{fill:#009fbc;}.cls-18{fill:#001d3b;}.cls-19,.cls-22{fill:#ffede9;}.cls-20{fill:#bfb6af;opacity:0.4;}.cls-21,.cls-23{fill:#eb969d;}.cls-22{opacity:0.7;mix-blend-mode:screen;}</style><linearGradient id="linear-gradient" x1="440.2" y1="1488.65" x2="437.15" y2="1088.55" gradientTransform="translate(55.37 -40.57) rotate(3.93)" gradientUnits="userSpaceOnUse"><stop offset="0" stop-color="#cecfc8"/><stop offset="0.26" stop-color="#cacbc3"/><stop offset="0.55" stop-color="#bdbeb5"/><stop offset="0.87" stop-color="#a8aa9e"/><stop offset="1" stop-color="#9da092"/></linearGradient></defs><g class="cls-1"><g id="Layer_1" data-name="Layer 1"><path class="cls-2" d="M784,1271.55a58.88,58.88,0,0,1-10,3.24,5.45,5.45,0,0,0-4.68-3.35c-41.32-4.53-82.29-12.19-123.59-16.55-.76-.08-1.5-.13-2.25-.19-.24-.43-.5-.85-.75-1.27,28.41-9.9,55.56-23,80.23-40.46,29.77-21.11,76.66-58,70.17-99.94-4.47-28.83-39.89-42.67-63.75-50.52-38.08-12.53-78.79-17.06-118.52-20.74-31.07-2.88-62.78-2.19-93.69-6.22a3.69,3.69,0,0,0-4.07,4.1q-27.19-1.85-54.39-3c-72.05-3-144.69-2.6-216.4,5.71-63.3,7.33-236.69,30.21-198,132.2,16.68,44,69.9,63.89,111.18,76a558.24,558.24,0,0,0,66.65,14.77c-14.63-.43-29.24,1.89-44,2.15h-.16c-5.72-2.2-11.43-4.4-17.14-6.55-17.45-6.57-36.49-9-55-10a127.19,127.19,0,0,0-28.21,1.3c-15.12.15-29.85,2.58-43,9-.84-.08-1.67-.19-2.51-.26-3.88-.34-6.59,2.63-7.4,6.06-.35.23-.69.45-1,.7-4.12,3-1.43,8.67,3.41,7.9l1-.14c.14.06.26.16.41.22,24.56,10.47,47,25.35,71.89,35,26,10.11,52.35,17.36,80.37,18.15a184.84,184.84,0,0,0,25.65-1.21c8.94,18.13,34.57,21.56,52.15,21.54a198.79,198.79,0,0,0,29.63-2.44c5.78,13.09,16.6,23.81,32.65,29.86,15,5.65,31.09,7.35,46.85,9.54,23.62,3.26,46.5,7,70.44,5,22.52-2,44.19-8.09,65.44-15.51,18.42-6.42,38.73-12.4,54.89-23.63a51.52,51.52,0,0,0,14.41-15.09c15.23-.21,30.7-2.7,44.21-8.93,1.18,0,2.37.08,3.56.1,30.2.63,61-1.43,90.34-8.91,12.63-3.22,27.51-6.87,38.84-13.47,13.74-8,23.8-19.25,36.74-28.27C789.24,1275.41,787.45,1270.06,784,1271.55Z"/><path d="M580,1107.49c2.51-15,7.56-29.89,12.39-44.32,4-11.84,7.64-25.41,13.78-36.54,6.75-41.19,13.06-82.13,15.56-124,2.57-42.86.57-86.05-2-128.87a43.13,43.13,0,0,1-30.86,1.35c22.63,3.52,50.11-10.6,48.79-34.78a57,57,0,0,0,1.2-8.34,54.36,54.36,0,0,1-6.09-13.76,56.46,56.46,0,0,0,14.73,17.72,50.49,50.49,0,0,0,22.47,14.47c12,3.72,29.13,6.21,39.18-3.55a47.11,47.11,0,0,0,7-8.46,25,25,0,0,1-12.42,16.36c7.18,4.94,15,9.11,23.41,9.83,16.24,2.86,31.37-7.19,38.95-21.85-.71,10.76-8.95,19.22-19.12,24.69a35.2,35.2,0,0,1-13.19,4.21c3.88,49.36-5.37,98.2-15.25,146.38-9.41,45.87-22.14,92.27-42.25,134.8,20.27,25.26,20.09,66.91,14.24,96.76-5,25.65-34.27,33-54.64,21.72-12.81,8.31-34.14-.17-45.11-8.35C573.81,1150.3,577,1125.57,580,1107.49Z"/><path class="cls-3" d="M731,771.78c-11.09.09-21.16-6-29.69-15.38A1.49,1.49,0,0,1,701,756c-7.92,3.45-17.78,3.93-27.29,1.74-12.48-2.88-23.8-10.68-31.66-21,1.21,15.81-7,28.57-19.11,35.31,2.22,5.78,2.37,15.34,3.1,20.82,1.58,11.88,2.33,23.91,3.18,35.86a663.43,663.43,0,0,1,1.39,75.67c-1.93,45.21-7.61,92.18-21.27,135.56-.12,2.94-.34,5.88-.44,8.91-.24,6.63,16.83,13,21.22,14.37,14.12,4.45,27.4,4,36.36-4.26C703.09,967.85,719.71,868.81,731,771.78Z"/><path class="cls-4" d="M585.89,1138.09c.4,14.17,10.86,22,23.11,26.05,1.09.51,2.15,1,3.14,1.43,4.25,1.87,11.3,4.64,16.34,3,4.5-.07,8.3-2.28,9.62-8.59,3.45-16.43,3.85-33.84,3.35-50.76a125.12,125.12,0,0,1,2.43,27.94c-.12,6.23,1,18.22-1.54,26a70,70,0,0,0,22.57,3.33c19.06-.63,20-23.89,21.3-38,2.52-26.22-5.73-48.21-11.07-73-10,13.55-23.29,21.56-44.19,15.63-12.72-3.61-22.83-9-26.28-19.73-3.12,8.17-5.55,16.73-8.07,25C590.49,1096.51,585.32,1117,585.89,1138.09Z"/><path class="cls-5" d="M636.38,1072.34c.67.12,1.3.19,1.94.28,3.15,25,10.38,49.19,12,74.46.39,5.93.87,12.06,1.15,18.23a88.22,88.22,0,0,1-9.15-2.2c2.52-7.78,1.42-19.77,1.54-26a125.12,125.12,0,0,0-2.43-27.94c.5,16.92.1,34.33-3.35,50.76-.88,4.17-2.84,6.52-5.37,7.67C634.88,1135.86,637.62,1104.17,636.38,1072.34Z"/><path class="cls-5" d="M665.47,1137.41c1.27,9.51,2.68,19,3.62,28.42a19.93,19.93,0,0,1-4.18.61c-.88,0-1.73,0-2.59,0-.21-5.59-.57-11.13-.92-16.54-1.63-25-8.23-49.11-11.68-73.77C659.61,1094.75,662.7,1116.74,665.47,1137.41Z"/><path class="cls-6" d="M686,1122.46c-3.71-20.14-6.07-42.74-15.68-61.25a58.75,58.75,0,0,0,4.8-5.72c5.1,23.62,12.82,44.75,11.32,69.43C686.31,1124.1,686.18,1123.28,686,1122.46Z"/><path class="cls-6" d="M585.89,1138.09c-.57-21.12,4.6-41.58,10.71-61.66,2.52-8.31,4.95-16.87,8.07-25,2.55,7.94,8.76,12.94,17,16.48-2.68,32.69-7.28,65.23-8.85,98l-.65-.27c-1-.45-2-.92-3.14-1.43C596.75,1160.1,586.29,1152.26,585.89,1138.09Z"/><path d="M260.45,1160.74c-11.07,8-32.51,16.23-45.21,7.76-20.53,10.94-49.66,3.26-54.36-22.46-5.45-29.92-5.08-71.58,15.52-96.55-19.54-42.79-31.66-89.36-40.47-135.35-9.23-48.31-17.83-97.27-13.31-146.57a35.27,35.27,0,0,1-13.13-4.38c-10.09-5.61-18.22-14.17-18.79-25,7.38,14.76,22.38,25,38.67,22.37,8.35-.61,16.28-4.68,23.52-9.53a25,25,0,0,1-12.19-16.52,46.77,46.77,0,0,0,6.88,8.56c9.92,9.88,27.13,7.62,39.13,4A50.27,50.27,0,0,0,209.37,733a56.67,56.67,0,0,0,15-17.51,54.37,54.37,0,0,1-6.28,13.67,55.63,55.63,0,0,0,1.09,8.35c-1.64,24.16,25.65,38.65,48.33,35.42a43.07,43.07,0,0,1-30.84-1.76c-3.18,42.8-5.76,86-3.76,128.84,2,41.93,7.72,83,13.92,124.24,6,11.21,9.49,24.82,13.3,36.72,4.64,14.49,9.49,29.39,11.81,44.47C274.69,1123.57,277.53,1148.33,260.45,1160.74Z"/><path class="cls-3" d="M186,1055.83c8.85,8.4,22.13,9,36.31,4.74,4.41-1.33,21.56-7.45,21.42-14.08-.06-3-.25-6-.34-8.92C230.34,994,225.29,947,223.94,901.75a663.26,663.26,0,0,1,2.4-75.65c1-11.94,1.91-24,3.65-35.82.81-5.47,1.07-15,3.38-20.78-12-6.9-20.07-19.76-18.64-35.55-8,10.21-19.43,17.87-31.94,20.57-9.54,2.06-19.39,1.46-27.25-2.11a1.72,1.72,0,0,1-.26.38c-8.64,9.27-18.78,15.23-29.87,15C135.37,864.94,150.68,964.19,186,1055.83Z"/><path class="cls-4" d="M255.73,1074.17c-2.42-8.33-4.74-16.93-7.74-25.13-3.59,10.66-13.77,15.93-26.54,19.38-21,5.64-34.21-2.53-44-16.22-5.67,24.66-14.21,46.56-12,72.8,1.18,14.12,1.74,37.39,20.79,38.27a69.78,69.78,0,0,0,22.62-3c-2.42-7.82-1.16-19.78-1.19-26a123.65,123.65,0,0,1,2.8-27.9c-.74,16.9-.56,34.31,2.67,50.79,1.24,6.33,5,8.58,9.5,8.72,5,1.75,12.12-.93,16.38-2.74,1-.43,2.07-.89,3.16-1.39,12.31-3.88,22.87-11.57,23.45-25.74C266.47,1114.87,261.57,1094.33,255.73,1074.17Z"/><path class="cls-5" d="M224.22,1098a277.67,277.67,0,0,0,13.84,65.51c-1.48.6-3.2,1.25-5,1.79C225.64,1144.16,223.8,1120.87,224.22,1098Z"/><path class="cls-5" d="M196,1162.86c-2.46-31.56,1.68-63.74,13.77-92.7.61,0,1.22,0,1.84-.06-6.37,29.19-9.64,60.82-4.8,90.68A79,79,0,0,1,196,1162.86Z"/><path class="cls-6" d="M171.25,1153.8c-4.58-8.25-5.11-20.2-5.82-28.8-2.17-26.24,6.37-48.14,12-72.8a57.93,57.93,0,0,0,5.61,6.71C166.54,1087.35,166.29,1121,171.25,1153.8Z"/><path class="cls-6" d="M233.85,1063.88c6.73-3.34,11.82-8,14.14-14.84,3,8.2,5.32,16.8,7.74,25.13,5.84,20.16,10.74,40.7,9.88,61.8-.48,11.79-7.9,19.09-17.46,23.45A271.85,271.85,0,0,1,233.85,1063.88Z"/><path d="M807.37,676.78c4.64,12,15.32,30.51.63,36.83,12.13,15.32,18.45,32.39,11,52.07-7.77,20.65-30.17,28.17-49.5,21.47a42.93,42.93,0,0,1-.12,21.36c-3.31,13.28-13.68,21-26.45,19.82,20.08,21,25.79,49.55,8.71,75.42-9.58,14.5-33.13,26.65-45.9,13.59-.61,10-1.73,18.59-11.49,24.85-7.43,4.77-17,4.57-24.7,1-1.55,8.16-6.07,15.79-13.65,22.29-6.65,5.69-16.36,7.37-24.75,6-4.32-.68-8.13-2.85-11.71-5.21-5.78-3.84-2.39-.17-2.64,4.84-1.16,22.82-36,27.69-53.37,28.33a63.16,63.16,0,0,1-22.34-3.15c-8.21,11.3-19.51,20.65-32.36,22.63-20.87,3.2-39.94-9.32-49.73-26.89-7.79,13.4-22.23,15.13-38.11,9.44-3.6-1.28-16.17-10-13.72-15.28-3.38,7.27-8,14.33-14.92,18.73-13.94,8.86-37.38,7.73-47.85-6.89a21.44,21.44,0,0,1-4.28-13.17c-10,5.33-23.28,2.26-25.63-8.41-9.94,15.35-28.83,21.94-47.16,21-17.38-.87-52.12-6.19-53-29-.18-5,3.25-8.64-2.57-4.9-3.61,2.33-7.45,4.45-11.79,5.07-8.4,1.22-18.08-.59-24.66-6.37-7.49-6.59-11.91-14.29-13.35-22.47-7.78,3.52-17.32,3.58-24.69-1.28-9.67-6.39-10.67-15-11.15-25-13,12.89-36.34.43-45.72-14.19C63.71,873.21,69.8,844.78,90.17,824c-12.8,1-23.06-6.85-26.2-20.18a42.84,42.84,0,0,1,.18-21.36c-19.43,6.45-41.73-1.37-49.23-22.12-7.13-19.78-.59-36.76,11.74-51.92-14.6-6.5-3.68-24.86,1.12-36.81-17.59-3.23-26.29-23-25-40.1,1.46-19.67,9.49-35.08,23.8-47.07-9.43-.08-14-12.4-13.74-23.06a41.27,41.27,0,0,1,12.71-28.54C9.06,534.35.18,513.45,0,498.73c-.25-19.91,7.38-34.2,22.33-46.26-4.17-2.73-6.31-6.91-4.72-12.34a35.26,35.26,0,0,1,4.84-10.47c1.16-1.67,2.31-3.35,3.63-4.91l0,0c-12.41-2.34-14.89-16.06-13.95-27.78,2.94-36.91,28.82-62.07,66-58A36.56,36.56,0,0,1,93.8,309c7.24-5.12,14.39-7.77,23.07-9.52a32.52,32.52,0,0,1,10.31-.75l3.31.5c-6.15-13.1-2.09-28.14,5.6-40.73C148,239,162,229.66,184.15,229.3c2.59-10.62,7.82-18.3,18.73-22.77,11.07-4.54,23.63-8.18,33.88-1.92,3.67-11.77,12.88-22,26.15-18.71,6,1.49,4.36,2.75,5.26-4.55.46-3.74,2.85-7,4.93-9.93,4.07-5.77,11.75-8.09,18.48-8.29,8.21-.25,4.67-8.44,7-13.74a38.23,38.23,0,0,1,6.3-10.58c6.6-7.36,14.14-11.35,23.71-13.58,15.36-3.59,28.57,1.31,31.28,15.87,4.9-7.31,12-14,21.24-13.71,7.19.24,14.79,2.11,18.84,7.75a32,32,0,0,1,17.06-12c17.1-5,36.58-2.32,44.19,14.17,7.67-7.95,20.43-13.21,30.77-8.79,10.63,4.54,17.17,14.7,19.89,25.69,7.55-11.05,23.79-15.45,36.85-14.21,12.15,1.15,25.54,7.25,34.72,15.17,6.49,5.61,7.49,13,6.95,20.68,5.92-2.57,12.52-2.88,18.11,1.8,9.25,7.74,11.08,15.69,14.33,26.78a72.41,72.41,0,0,1,15.62,5c10.84,4.62,16,12.36,18.41,23,22.17.66,36,10.18,47.67,29.82,7.53,12.69,11.38,27.78,5.06,40.8,1.62-.23,2.95-.42,3.32-.46a32.8,32.8,0,0,1,10.3.88c8.66,1.87,15.77,4.62,22.94,9.83a36.54,36.54,0,0,1,15.25,30.13c37.21-3.54,62.75,21.95,65.2,58.91.79,11.73-1.88,25.42-14.31,27.58a.08.08,0,0,0,0,0c1.29,1.57,2.42,3.27,3.57,4.95a35.9,35.9,0,0,1,4.7,10.54c1.51,5.46-.68,9.61-4.89,12.27,14.78,12.26,22.23,26.65,21.72,46.56-.38,14.71-9.53,35.49-26,33.79a41.26,41.26,0,0,1,12.32,28.71c.18,10.66-4.61,22.91-14,22.87,14.15,12.18,22,27.7,23.18,47.38C834,654.15,825,673.78,807.37,676.78Z"/><path class="cls-4" d="M801.46,586.89c-1.36-.82-1.07-3.55.81-2.93,13.37,4.4,12.8-14,12.15-22.38s-6.08-17.37-13-24.18c-.13-.25-.24-.5-.38-.75a63.52,63.52,0,0,0-6.43-8.89,43.13,43.13,0,0,1,9.81,4.66,1.87,1.87,0,0,1,.65-.31c7-1.79,12.75-2,18.33-7.28,5.85-5.57,7.54-14.8,8.5-22.41,2.37-18.82-5.76-32.3-20.17-43.59-.81-.64-1.81-2.65-.35-3.29,17.65-7.74-5.15-21.73-8.13-28.78-.67-1.58,0-4.31,2-4.56,18-2.23,13.6-27.51,10.5-40-6.49-26.13-30.72-39.3-56.29-32.6-1.79.47-3.51-1.35-3.64-3-1.23-15.94-10.58-27.5-25.31-33.31a75,75,0,0,0-24.1-5.1c-.21.29-.4.59-.62.87a41.8,41.8,0,0,1,8.67,12.7c2.09,4.82,4.1,11.72,3,17.41a67.14,67.14,0,0,0-8.74-15.71c-.22-.52-.39-1-.64-1.55-3.29-7-8.17-13.9-14.51-18.36l-1-1.42c-.14-.89.28-1.83,1.34-1.35a37.31,37.31,0,0,1,6.83,4c-.08-.59.4-1.19,1.09-.78a17.92,17.92,0,0,0,2.38-.24c11.66-12.58,2.48-30.19-5.85-42.19-11-15.88-24.74-22.14-43.73-22.09-2,0-3.34-2-3.63-3.76-1.83-11.07-6.53-17-16.63-21.83-8.26-3.95-17.19-6.81-26.05-5.4a21.66,21.66,0,0,0-4.72-.83A24,24,0,0,1,619,203.94c-6.14-12.45-14.62-31.54-31.22-19.22-1.65,1.22-4.42.23-4.49-2-.65-18.44-15.19-29.83-32.65-33.73-12.82-2.85-34.43-.59-37.34,15.78-.48,2.65-5.29,4.87-5.5,1-.57-10.55-6.07-28-18.07-30.92-10.41-2.55-21.54,1.15-27.19,10.52-.89,1.49-3.95,3-5.17.93a31.5,31.5,0,0,0-36-14.32c-15.4,4.28-23.9,16.25-27.33,31.41-.24,1.07-2.29,2.12-2.34.44a48.26,48.26,0,0,1,5.5-24.39c-12.38-11.84-28.39-6.59-37.13,8.51-.81,1.4-3.35,1.63-3.52-.35-1.41-16.85-16.34-20.34-30.67-16.28-17.1,4.83-24.48,15.2-26.23,32.75a1.38,1.38,0,0,1-1.23,1.24c-15.65-.13-32,6.25-28.64,25.5a1.68,1.68,0,0,1-1.48,1.87c-15.32-.32-27.13,9.43-26.85,25.33.06,3.57-5.55,6.63-6.18,2a35.63,35.63,0,0,1,.92-13.34c-9.86-2.94-20,0-29.33,4.33-10.16,4.68-14.95,10.56-16.92,21.6-.32,1.74-1.68,3.75-3.68,3.72-19-.31-32.76,5.77-44,21.51-8.5,11.88-17.9,29.37-6.42,42.1a23.55,23.55,0,0,0,2.39.28c.69-.41,1.16.2,1.07.79a37,37,0,0,1,6.88-3.93c1.62-.69,1.73,1.81.67,2.51-6.57,4.37-11.65,11.39-15.09,18.42-4.07,8.36-3.61,15.36-2,24.18a1.21,1.21,0,0,1-1.63,1.31c-9.5-4.93-6.17-18-2.71-25.71a41.65,41.65,0,0,1,8.83-12.58c-.22-.3-.4-.6-.6-.89a75.28,75.28,0,0,0-24.17,4.79c-14.81,5.62-24.3,17-25.75,33-.15,1.67-1.9,3.47-3.69,3-25.46-7-49.87,5.81-56.7,31.85-3.28,12.44-8,37.66,10,40.13,2,.27,2.65,3,2,4.58-3.06,7-26.06,20.7-8.5,28.67,1.44.66.42,2.67-.39,3.29C11.73,464.74,3.42,478.11,5.53,497c.86,7.63,2.44,16.88,8.21,22.53C19.25,524.86,25,525.12,32,527a2.18,2.18,0,0,1,.65.31,43.58,43.58,0,0,1,16.08-6.07.74.74,0,0,1,.62.13,41.59,41.59,0,0,0-9.56,7.34c-8.85,6.76-16.6,17.8-17.5,27.63-.77,8.37-1.58,26.77,11.85,22.54,1.89-.58,2.15,2.14.77,2.93C6.16,598.25-7.39,654.94,34.28,664c2.23.48,2.72,3.06,2.11,4.9C32,682.28,18.7,692,32.81,705.09c1.31,1.23.08,3.38-1,4.17C15.8,721,11.51,746.63,24,762.44c10.73,13.62,26.34,15.43,42.52,13.39A62.9,62.9,0,0,1,72.81,765a95.09,95.09,0,0,0-1.14,11.61,36.92,36.92,0,0,0-1.23,21.79c3.39,13.26,10,20.75,24,22a1.44,1.44,0,0,1,.69,2.59c-19.8,17.24-24.07,42.95-9.48,65.17,7.22,11,27.89,28.69,41.2,16.22,2.16-2,4.57-.13,3.94,2.5-5.28,21.88,11.74,33.19,30.75,29.23a39.42,39.42,0,0,1,4-19.44c.14,7.58,1.29,15.06,4.52,22.13a26.68,26.68,0,0,0,2.95,4.94,44.2,44.2,0,0,0,6.53,8.85c10.85,11.17,23.31,13.75,36.54,4.45a.93.93,0,0,1,1.48.64c.5,14.62,7.07,22.4,21.46,25.71,8.63,2,17.69,3.72,26.57,4,17.15.53,39.19-2.66,49.12-18.34.77-1.22,3-1.53,3.22.33,1.1,11.9,13.28,14.69,22.89,10.44A30.55,30.55,0,0,1,345,970.6c-.82,7.68,1,15.72,5.6,21a18.89,18.89,0,0,0,14.94,7,27.61,27.61,0,0,0,4,.93c15.41,2.32,29.28-3.44,36.56-17.54a1.29,1.29,0,0,1,2.29-.09c5.78,10.39,16.42,13.92,27.76,13.93,10.45,0,15.06-4.48,20.59-12.64,1.53-2.27,4.82-2.43,5.48.56,4.38,19.79,34.68,34.44,53.1,27.23,17.46-6.83,28.16-21.89,36.1-38.16a.73.73,0,1,1,1.34.57,74.89,74.89,0,0,1-6.22,14.47,97.88,97.88,0,0,0,18.85,1.47c8.88-.15,18-1.78,26.62-3.65,14.44-3.11,21.12-10.81,21.81-25.42a.92.92,0,0,1,1.48-.62c13.11,9.47,25.6,7.06,36.59-4,.59-.58,1.17-1.2,1.73-1.85,5-2.58,8.91-6.44,11.83-13.05,2-4.55,2.46-9.4,3-14.3,0-.24.05-.55.06-.89a37.21,37.21,0,0,1,1.62,13.87c19,4.21,36.13-6.88,31.14-28.83-.6-2.63,1.83-4.5,4-2.44,13.15,12.64,34-4.77,41.42-15.68,14.88-22,11-47.79-8.63-65.29a1.44,1.44,0,0,1,.72-2.57c14.08-1,20.74-8.44,24.31-21.66a37.5,37.5,0,0,0-1.56-23.54,65.31,65.31,0,0,0-1.45-9.77,19.82,19.82,0,0,0-1.28-3.41,67.21,67.21,0,0,1,8.54,14.2c16.16,2.26,31.78.65,42.69-12.83,12.66-15.63,8.71-41.34-7.12-53.27-1.08-.81-2.29-3-1-4.18,14.3-12.93,1.09-22.8-3.09-36.25-.58-1.85-.06-4.42,2.17-4.87C842.76,660.56,830,603.7,801.46,586.89Z"/><path class="cls-7" d="M805.09,532.11c7-1.79,12.75-2,18.33-7.28,5.85-5.57,7.54-14.8,8.5-22.41,2.37-18.82-5.76-32.3-20.17-43.59-.81-.64-1.81-2.65-.35-3.29,17.65-7.74-5.15-21.73-8.13-28.78-.67-1.58,0-4.31,2-4.56,18-2.23,13.6-27.51,10.5-40a46,46,0,0,0-12.15-21.82c5.14,10.86,6.81,23.07,3.07,35.33-5.4,17.66-21.14,27.37-38.24,30.42,10,3.64,18.45,11.61,21.66,22,3.42,11.05-3,18.08-11.84,21.22,10.67,3.24,18.11,12.36,17.47,24.89C795,510,780.88,512.66,768.9,508.59c9.5,14.57,10.88,32.86-2.25,46.33a25.29,25.29,0,0,1-3.11,2.69c-1.75-13.23-15.49-25.93-24.8-32.87-1-.73-2.31.71-1.66,1.67,6.33,9.19,19.5,23.31,16.38,35.66-3.83,15.23-25.66,20.29-38.78,16.69a1.58,1.58,0,0,0-1.49,2.64c14.47,13,39.52,3.86,48.08-11.49a20.22,20.22,0,0,0,1.91-5.06,57.69,57.69,0,0,1,14.25,19.52c6.31,14,4.48,34.59-8.34,44.5-11.12,8.6-27.42,4.39-38.9-1-.4-.19-.8-.43-1.2-.62a37.89,37.89,0,0,1-10,11.88c-17.35,13.35-43.64,11.49-65.05,8.59,5.37-16,.73-31.41-9.86-44.72-1.12-1.41-3.26.4-2.43,1.89,6.65,11.79,8.2,29.41,1.45,41.6-6.64,12-19.48,16.12-32.64,16a1.61,1.61,0,0,0-.76,3c16.19,7.76,34.91,4,42.71-13.7.5-1.14,1-2.28,1.34-3.42,7.86,5.23,17.27,8.69,25.39,13.1,7.7,4.18,18.55,10.56,20,20.19,2.51,16.79-12.91,24.06-26.47,20.67,9.9,13.16,4.06,31.6-9,42.84-17.6,15.18-46.67,4.14-65.54-5.3,7.25,15.43,7,32.43-6.3,45.07-13.54,12.83-34.16,14.72-51.49,10,.72,12.56-1.43,25.41-10.47,34.78-7.59,7.87-18.69,10.5-29.28,10C474.87,838.49,454,818.05,447.74,794c-4.9,9-12.09,16.3-22.72,18.09-11,1.86-22.07-4.22-30-11.31-17.75-15.84-24.33-42.91-9.73-62.15-14.58,3.59-29.74,2.59-43.18-4.83a45.5,45.5,0,0,1-14.05-12.14,61.34,61.34,0,0,1-4.42,30c-6.28,14.67-19.46,25.53-34.44,30.45-13.31,4.39-28.51,3.63-40.42-4.09-12.63-8.18-16.57-23.14-16.1-37.38-12,10.86-30.45,13.57-42.62,1.1-16.59-17-3.59-33.39,9.46-47.19-16.61,1.15-34.52-4.35-46.38-16.09-10.8-10.69-9-23.35-1.8-33.95,8.76,7.72,20.43,12.66,32,9.74,2.19-.55,2-3.66-.06-4.25-17.67-5-48.17-24.24-31.65-45.59a1.81,1.81,0,0,0-2.57-2.56c-8.76,7.89-12.25,18.11-8.59,28.11-5.51,4.18-13.75,20.91-15,24a1.61,1.61,0,0,1-2.72.26c-18.67-22.21-9.51-61.31,13.64-77.25-34.65-3.17-70.55,21-65.65,59,.23,1.83-2.35,2.31-3.05.72C60.08,619,56,599.18,60.47,580.2c4.35-18.66,18.62-31,36.48-36-26-52.24,90.47-12.9,53.21,15a54.75,54.75,0,0,0,23.52,4.56c9.13-.53,17.76-4.36,23.61-11.47,8.49-10.32,7.89-25.28,5.78-37.65-.35-2,2.78-2.29,3.14-.3C211.3,542.34,237,573.89,267,554a1.59,1.59,0,0,1,2.37,1.94c-12.33,28.8.86,56.7,28.27,68.49-19.07-32.27-3.19-70.83,29-88.52a1.66,1.66,0,0,1,2,.24,31.8,31.8,0,0,1,4.88-2.69c12.77-5.65,25.34.44,33.16,10.68,9.83-19.83,40.68-12,51.27,5.51a55.89,55.89,0,0,0-5.58,14.63c-.4,1.76,2,2.25,2.82.88,8.23-14.12,24.41-22.25,40.47-21.34,9.67.54,15.93,4.17,21.78,8.79.85,1.11,1.68,2.25,2.48,3.46,10.7,16.23,14,39.65,2.92,56.3a1.8,1.8,0,0,0-.29.91l-.69.44c-2.08,1.29-.27,4.35,1.9,3.69,13.58-4.21,24.41-11.47,32.18-21.72a65.44,65.44,0,0,1,7.59,3c15.64,7.64,23.44,31.31,14,46-1.12,1.74.88,4.62,2.72,3A32.48,32.48,0,0,0,550.25,630c6.6-10.17,5.4-21.21-.94-33.41a44.21,44.21,0,0,0-4.17-6.38l-.17-.33c-2.18-4-6.49-8.15-11.63-11.55a55.22,55.22,0,0,0-6.84-4.59c3.16-13.16.07-30.77-8.6-42.45,7.55,3.07,13.4,9.42,18,17,1.84-14.75,10.47-28.36,26.55-30.38,17-2.14,31.6,8,39.74,22.19,4.15-6.8,10.88-11.6,19.24-8.74l.08,0c0-.21.12-.4.17-.6.27.35.58.68.87,1a14.44,14.44,0,0,1,6.57,5.91,25.5,25.5,0,0,0,3.94,2.12c14.66,6.06,28.6,1,31.09-15.49a1.36,1.36,0,0,0-2.64-.66c-3.82,11.23-16.83,12.28-25.93,6.76-3.91-2.37-7.28-5.63-8.46-10.17s.36-8.18.66-12.64c.1-1.53-1.62-2-2.76-1.56a11.17,11.17,0,0,0-5.08,4.57,31.67,31.67,0,0,1-2.48-2.44c-4.28-4.66-7.58-11.81-4.18-17.83,2.54-4.5,7.67-6.36,13-7.07-5.84-2.56-10.28-7-10.53-14.49-.32-9.92,7-19.26,14.12-25.87-9.74-2.17-18.11-7.31-16.35-18.82,1.63-10.62,9.93-20.31,16.73-28.5-17.31-7.29-24.67-24.24-15.82-41.36-16.19-8.88-25.5-29.66-32.94-45.46-8.33-17.66-14.9-36-21.41-54.42-43.52,5.66-87.21-.51-130.08-8.22-22.49-4-44.89-8.54-67.43-12.21-6.06-1-69.89-9.61-70-5.89-2.41,61.53-79.62,94.11-70.19,157.88.17,1.12-.88,1.75-1.84,1.71-27.18-1-76.7,27.49-48.1,57.28a1.6,1.6,0,0,1-.44,2.69c-7.82,2.54-16.93,6.55-15.44,16.26,1,6.83,6.58,13.14,10.59,18.48,7.11,9.47,12.19,17.71,6.56,29.64-4.55,9.65-16.89,10.37-25.77,7.34a46.26,46.26,0,0,1-27.34-24.79c-7,17-26.2,18.49-41.22,8.14-7.68-5.29-13.11-13.82-13.57-23.21-.49-10.34,6.19-18.91,13.78-25.31-12.65-.54-25.46-5.57-21-21C62.17,420.75,73,410,84.51,403.16,77,403.6,68.89,402.58,64,397c-5.15-5.77-4.44-13.89-.38-20.11,6.3-9.62,17-14.51,28-16.55,3.56-.67,2.33-5,2.77-8.17a29.91,29.91,0,0,1,3.64-10c3.2-5.82,8.72-9.81,14.55-12.63,1.18-.57,2.23.66,2.13,1.74-2,20.55,18.05,31.66,36.92,33a35.14,35.14,0,0,0-1.44,3.5c-4.43,13-2.12,27.25,9.28,35.83,1,.75,2-.67,1.55-1.57-6.14-12.47-6.47-23.93,1.44-35.83,6.23-9.36,14.13-18.54,24.49-23.37,1.38-.65.35-2.58-1-2.31-13.19,2.68-26.42,9.47-33.16,21.43a22.93,22.93,0,0,1-10.23-8.58c-3.83-6.14-2.26-13.8.14-20.11,6.28-16.52,20.63-30.57,34-42.23-9.11-.5-19-2.44-25.24-9.42s-6.68-16-4.58-24.7a52.59,52.59,0,0,1,2.36-7.3,61.55,61.55,0,0,0-7,8.19c-8.5,11.88-17.9,29.37-6.42,42.1a23.55,23.55,0,0,0,2.39.28c.69-.41,1.16.2,1.07.79a37,37,0,0,1,6.88-3.93c1.62-.69,1.73,1.81.67,2.51-6.57,4.37-11.65,11.39-15.09,18.42-4.07,8.36-3.61,15.36-2,24.18a1.21,1.21,0,0,1-1.63,1.31c-9.5-4.93-6.17-18-2.71-25.71a41.65,41.65,0,0,1,8.83-12.58c-.22-.3-.4-.6-.6-.89a75.28,75.28,0,0,0-24.17,4.79c-14.81,5.62-24.3,17-25.75,33-.15,1.67-1.9,3.47-3.69,3-25.46-7-49.87,5.81-56.7,31.85-3.28,12.44-8,37.66,10,40.13,2,.27,2.65,3,2,4.58-3.06,7-26.06,20.7-8.5,28.67,1.44.66.42,2.67-.39,3.29C11.73,464.74,3.42,478.11,5.53,497c.86,7.63,2.44,16.88,8.21,22.53C19.25,524.86,25,525.12,32,527a2.18,2.18,0,0,1,.65.31,43.58,43.58,0,0,1,16.08-6.07.74.74,0,0,1,.62.13,41.59,41.59,0,0,0-9.56,7.34c-8.85,6.76-16.6,17.8-17.5,27.63-.77,8.37-1.58,26.77,11.85,22.54,1.89-.58,2.15,2.14.77,2.93C6.16,598.25-7.39,654.94,34.28,664c2.23.48,2.72,3.06,2.11,4.9C32,682.28,18.7,692,32.81,705.09c1.31,1.23.08,3.38-1,4.17C15.8,721,11.51,746.63,24,762.44c10.73,13.62,26.34,15.43,42.52,13.39A62.9,62.9,0,0,1,72.81,765a95.09,95.09,0,0,0-1.14,11.61,36.92,36.92,0,0,0-1.23,21.79c3.39,13.26,10,20.75,24,22a1.44,1.44,0,0,1,.69,2.59c-19.8,17.24-24.07,42.95-9.48,65.17,7.22,11,27.89,28.69,41.2,16.22,2.16-2,4.57-.13,3.94,2.5-5.28,21.88,11.74,33.19,30.75,29.23a39.42,39.42,0,0,1,4-19.44c.14,7.58,1.29,15.06,4.52,22.13a26.68,26.68,0,0,0,2.95,4.94,44.2,44.2,0,0,0,6.53,8.85c10.85,11.17,23.31,13.75,36.54,4.45a.93.93,0,0,1,1.48.64c.5,14.62,7.07,22.4,21.46,25.71,8.63,2,17.69,3.72,26.57,4,17.15.53,39.19-2.66,49.12-18.34.77-1.22,3-1.53,3.22.33,1.1,11.9,13.28,14.69,22.89,10.44A30.55,30.55,0,0,1,345,970.6c-.82,7.68,1,15.72,5.6,21a18.89,18.89,0,0,0,14.94,7,27.61,27.61,0,0,0,4,.93c15.41,2.32,29.28-3.44,36.56-17.54a1.29,1.29,0,0,1,2.29-.09c5.78,10.39,16.42,13.92,27.76,13.93,10.45,0,15.06-4.48,20.59-12.64,1.53-2.27,4.82-2.43,5.48.56,4.38,19.79,34.68,34.44,53.1,27.23,17.46-6.83,28.16-21.89,36.1-38.16a.73.73,0,1,1,1.34.57,74.89,74.89,0,0,1-6.22,14.47,97.88,97.88,0,0,0,18.85,1.47c8.88-.15,18-1.78,26.62-3.65,14.44-3.11,21.12-10.81,21.81-25.42a.92.92,0,0,1,1.48-.62c13.11,9.47,25.6,7.06,36.59-4,.59-.58,1.17-1.2,1.73-1.85,5-2.58,8.91-6.44,11.83-13.05,2-4.55,2.46-9.4,3-14.3,0-.24.05-.55.06-.89a37.21,37.21,0,0,1,1.62,13.87c19,4.21,36.13-6.88,31.14-28.83-.6-2.63,1.83-4.5,4-2.44,13.15,12.64,34-4.77,41.42-15.68,14.88-22,11-47.79-8.63-65.29a1.44,1.44,0,0,1,.72-2.57c14.08-1,20.74-8.44,24.31-21.66a37.5,37.5,0,0,0-1.56-23.54,65.31,65.31,0,0,0-1.45-9.77,19.82,19.82,0,0,0-1.28-3.41,67.21,67.21,0,0,1,8.54,14.2c16.16,2.26,31.78.65,42.69-12.83,12.66-15.63,8.71-41.34-7.12-53.27-1.08-.81-2.29-3-1-4.18,14.3-12.93,1.09-22.8-3.09-36.25-.58-1.85-.06-4.42,2.17-4.87,41.79-8.5,29-65.36.49-82.17-1.36-.82-1.07-3.55.81-2.93,13.37,4.4,12.8-14,12.15-22.38s-6.08-17.37-13-24.18c-.13-.25-.24-.5-.38-.75a63.52,63.52,0,0,0-6.43-8.89,43.13,43.13,0,0,1,9.81,4.66A1.87,1.87,0,0,1,805.09,532.11Z"/><path class="cls-7" d="M749.1,374.64c-1.52-22.12-1.15-47.6-24.9-57.51-1-.43-2.47.35-2.23,1.58,3.63,18.87,9.45,41.05-10.45,51.93-4.12-18.58-8.15-39.25-20-54.54-8-10.37-18.07-14.39-28.77-14,10.38-5.37,19.4-12.62,17.94-23.83C678.45,261,657.2,253,643.23,261.43c6.83-32.87-38.74-40.48-64.3-38.72,1.1-24.79-7.43-52.82-23.34-72.31,15.17,4.82,27.1,15.7,27.69,32.36.07,2.19,2.84,3.18,4.49,2,16.6-12.32,25.08,6.77,31.22,19.22a24,24,0,0,0-15.32,3.72,21.66,21.66,0,0,1,4.72.83c8.86-1.41,17.79,1.45,26.05,5.4,10.1,4.82,14.8,10.76,16.63,21.83.29,1.74,1.63,3.78,3.63,3.76,19,0,32.69,6.21,43.73,22.09,8.33,12,17.51,29.61,5.85,42.19a17.92,17.92,0,0,1-2.38.24c-.69-.41-1.17.19-1.09.78a37.31,37.31,0,0,0-6.83-4c-1.06-.48-1.48.46-1.34,1.35l1,1.42c6.34,4.46,11.22,11.4,14.51,18.36.25.53.42,1,.64,1.55a67.14,67.14,0,0,1,8.74,15.71c1.09-5.69-.92-12.59-3-17.41a41.8,41.8,0,0,0-8.67-12.7c.22-.28.41-.58.62-.87a75,75,0,0,1,24.1,5.1c14.73,5.81,24.08,17.37,25.31,33.31.13,1.68,1.85,3.5,3.64,3a48.75,48.75,0,0,1,23.87-.42C770.18,354.58,757.13,362.82,749.1,374.64Z"/><path class="cls-7" d="M237.13,338.48a219.75,219.75,0,0,0-9.36,28.09c-10.84,42.49-3.57,91.28,32.79,119.68,14.73,11.52,31.75,17.76,49.5,23A272,272,0,0,0,368,519.88c40.09,2.85,81.91-1.81,118.92-18.21,36-15.94,68.05-43.29,82.73-80.63,7.29-18.54,10.86-38.77,9.32-58.7-1.45-18.8-6.19-37.22-7.24-56-.74-1.88-1.43-3.79-2.24-5.61-13.63-30.89-36.12-54.3-80.41-61.06-57.85-8.84-127.75,9.82-168.38,53.75C294.13,322.11,292.4,234.86,237.13,338.48Z"/><path class="cls-7" d="M31.79,709.26c1.1-.79,2.33-2.94,1-4.17C18.7,692,32,682.28,36.39,668.89c.61-1.84.12-4.42-2.11-4.9-41.67-9-28.12-65.74.6-82.18,1.38-.79,1.12-3.51-.77-2.93-13.43,4.23-12.62-14.17-11.85-22.54.9-9.83,8.65-20.87,17.5-27.63a41.59,41.59,0,0,1,9.56-7.34.74.74,0,0,0-.62-.13,43.58,43.58,0,0,0-16.08,6.07A2.18,2.18,0,0,0,32,527c-6.94-1.88-12.72-2.14-18.23-7.52C8,513.83,6.39,504.58,5.53,497c-2.11-18.84,6.2-32.21,20.76-43.31.81-.62,1.83-2.63.39-3.29-17.56-8,5.44-21.65,8.5-28.67.7-1.58,0-4.31-2-4.58C15.3,414.63,20,389.41,23.26,377a49.44,49.44,0,0,1,3.66-9.69,59.17,59.17,0,0,0,22.91,35.13c-15.28,10.8-12.72,34,4,41.14C39,451.16,21,470.38,27.71,487.31S55.86,506.46,71.89,510c-13,10.87-31.13,19.54-32.64,38.39C38.17,562,44,571.92,57.65,572.12c-9.56,33.3-14.57,101.93,35.14,101.08,1.52,0,1.7-1.91.85-2.78-19.48-19.88-6-61.52,18-72.93-10.15,15.39-15.91,32.49-7.46,50.43,5.6,11.88,16.23,24.16,29.06,18.42a53.13,53.13,0,0,0,.89,10.9c3.24,17,14.51,28.18,29.72,35-7.82,5-17.29,9.07-26.63,7.82-11.78-1.59-19-9.58-23.38-20.2-.56-1.37-2.85-1.32-3,.29-1.66,15.17-4.05,33,2.12,47.46,5.23,12.28,15.46,17.43,27.37,18.34-11.5,5.4-20.8,15.13-19.91,29,1,15.79,11.92,28.12,25.07,35.8-15.68,15.16-18.8,36.39-3.21,53.39,8.07,8.79,23.6,16.26,33.8,9.17.13,0,.24.11.38.15a1.7,1.7,0,0,0,2.08-2.27,18.06,18.06,0,0,0,2.61-3.36c1.05-1.75-1.83-3.06-2.87-1.32a14.86,14.86,0,0,1-2.62,3.2c-14-6.46-10.35-27.05-6.83-39.25,3.78-13.18,9.53-27.58,18.56-38.34,1.32,28.31,18.8,79.33,54.46,62.84a1.6,1.6,0,0,0,.72-2.4,86.66,86.66,0,0,1-15.72-44.82c8.15,21.93,23.78,42.27,49.91,39.28,23.77-2.73,44.26-18.7,60.2-36.34-8.94,21-15,49.33,6.34,62.78,20.18,12.7,48,11.23,67.4-2.39-5.17,25.26-25.58,46-52.95,35.66a1.6,1.6,0,0,0-2.24,1.59c4.1,32.7,48.05,19.2,62.76,1.14,20,27.63,64.91,28.61,81.11-3.64a1.59,1.59,0,0,0-1.58-2.24c-27.08,3.66-75.23-15.5-69.82-48.88,22.57,12.38,51.78,20.52,77.15,13.38,24.09-6.78,34-26.64,34.46-49.18,14.29,29.89,62.43,55,80.29,21.63-.41,7.2-2.69,13.94-9.1,18.49a1.59,1.59,0,0,0,.66,2.84c33.11,5.69,72.26-28.05,49.55-60.86a1.59,1.59,0,0,0-2.85,1.08c1.54,22.05-16.33,32.81-35.22,31.18v-.13a1.57,1.57,0,0,0-1.28-1.36c17-8.58,10.46-36.29-7.83-43.3,13-4,26.47-10.4,34.21-21.82,7.85-11.58,2.69-24.24-5.12-34.06a42.37,42.37,0,0,0,4.94-.41c12.68-.15,26.21-2.91,36.58-9.45,13.5-8.51,14.44-21.28,7-33.78,12.52.63,26.44-3.57,27.45-18.31.82-12.07-4.83-23.38-13-32,12.17,7.09,19.7,23.1,22.3,36,3,14.91.56,34.31-19.23,30.49a1.6,1.6,0,0,0-1.75,2.12c13.63,28.22-10.45,55.08-38.93,57a1.59,1.59,0,0,0-.5,3c19.19,8.69,45.38,11.79,63.32-1.73,16-12,17.27-30.6,12-48,4.58,4.86,10.25,8.67,17.05,8.88a22.3,22.3,0,0,0,19-10c9.26-14,2.44-27-11.62-30.84,9.71-4.43,18.72-12.12,19.61-23.39.87-11.05-4.25-20.36-11.64-27.91,14.77,2.76,32.5,3.64,41.44-10.31,5.27-8.21,6.56-18.78,6.69-29.26,8.7,22.29,4.85,48.84-22.66,54.43-2.23.45-2.75,3-2.17,4.87,4.18,13.45,17.39,23.32,3.09,36.25-1.32,1.2-.11,3.37,1,4.18,15.83,11.93,19.78,37.64,7.12,53.27-10.91,13.48-26.53,15.09-42.69,12.83a67.21,67.21,0,0,0-8.54-14.2,19.82,19.82,0,0,1,1.28,3.41,65.31,65.31,0,0,1,1.45,9.77A37.5,37.5,0,0,1,763,803c-3.57,13.22-10.23,20.62-24.31,21.66a1.44,1.44,0,0,0-.72,2.57c19.58,17.5,23.51,43.27,8.63,65.29-7.37,10.91-28.27,28.32-41.42,15.68-2.14-2.06-4.57-.19-4,2.44,5,22-12.17,33-31.14,28.83a37.21,37.21,0,0,0-1.62-13.87c0,.34,0,.65-.06.89-.54,4.9-1,9.75-3,14.3-2.92,6.61-6.86,10.47-11.83,13.05-.56.65-1.14,1.27-1.73,1.85-11,11-23.48,13.45-36.59,4a.92.92,0,0,0-1.48.62c-.69,14.61-7.37,22.31-21.81,25.42-8.65,1.87-17.74,3.5-26.62,3.65a97.88,97.88,0,0,1-18.85-1.47,74.89,74.89,0,0,0,6.22-14.47.73.73,0,1,0-1.34-.57c-7.94,16.27-18.64,31.33-36.1,38.16-18.42,7.21-48.72-7.44-53.1-27.23-.66-3-3.95-2.83-5.48-.56-5.53,8.16-10.14,12.65-20.59,12.64-11.34,0-22-3.54-27.76-13.93a1.29,1.29,0,0,0-2.29.09c-7.28,14.1-21.15,19.86-36.56,17.54a27.61,27.61,0,0,1-4-.93,18.89,18.89,0,0,1-14.94-7c-4.6-5.32-6.42-13.36-5.6-21a30.55,30.55,0,0,0-4.16,9.19c-9.61,4.25-21.79,1.46-22.89-10.44-.18-1.86-2.45-1.55-3.22-.33-9.93,15.68-32,18.87-49.12,18.34-8.88-.28-17.94-2-26.57-4-14.39-3.31-21-11.09-21.46-25.71a.93.93,0,0,0-1.48-.64c-13.23,9.3-25.69,6.72-36.54-4.45a44.2,44.2,0,0,1-6.53-8.85,26.68,26.68,0,0,1-2.95-4.94c-3.23-7.07-4.38-14.55-4.52-22.13a39.42,39.42,0,0,0-4,19.44c-19,4-36-7.35-30.75-29.23.63-2.63-1.78-4.52-3.94-2.5-13.31,12.47-34-5.21-41.2-16.22C71.07,865.91,75.34,840.2,95.14,823a1.44,1.44,0,0,0-.69-2.59c-14-1.21-20.62-8.7-24-22a36.92,36.92,0,0,1,1.23-21.79A95.09,95.09,0,0,1,72.81,765a62.9,62.9,0,0,0-6.33,10.82c-16.18,2-31.79.23-42.52-13.39C11.51,746.63,15.8,721,31.79,709.26Z"/><path class="cls-7" d="M83.6,796.81c7.43,8.26,17,15.48,27.21,19.05-7.47,5.54-13.4,12.68-16.37,22.06-8.73,27.57,14.76,49.78,40.19,41.78,20.11,23.93,59.64,38.53,75.35,11.79,31.87,18.28,71.23,21.87,98-3.33C319.86,899,333.34,906.44,348.18,906a25,25,0,0,0-5,17.56c1.2,12.24,8.86,23.16,18.2,30.81,13.48,11,37.5,19.11,47.89,4.91,11.7,9.37,25.55,15.13,40.84,13.84,16.38-1.38,35.58-9.3,43.64-24.63a49,49,0,0,0,5.47-22.63l.06-.1a1.42,1.42,0,0,0-.06-1.33,78.15,78.15,0,0,0-1-11.05,30.18,30.18,0,0,0,14.84-7.66c3.79,17.1,11.68,31.92,33.67,29.24,22.83-2.79,39.45-22.36,43.78-44.12,20.72,9.87,50.11,10,63.59-7,15.78,9.42,33.61,13.35,48.69,1.52,27.56-21.61,19-49.77,4.2-74.83,21.31,4,44.54.51,56.74-11.13-.2,1.16-.44,2.33-.75,3.5-3.57,13.22-10.23,20.62-24.31,21.66a1.44,1.44,0,0,0-.72,2.57c19.58,17.5,23.51,43.27,8.63,65.29-7.37,10.91-28.27,28.32-41.42,15.68-2.14-2.06-4.57-.19-4,2.44,5,22-12.17,33-31.14,28.83a37.21,37.21,0,0,0-1.62-13.87c0,.34,0,.65-.06.89-.54,4.9-1,9.75-3,14.3-2.92,6.61-6.86,10.47-11.83,13.05-.56.65-1.14,1.27-1.73,1.85-11,11-23.48,13.45-36.59,4a.92.92,0,0,0-1.48.62c-.69,14.61-7.37,22.31-21.81,25.42-8.65,1.87-17.74,3.5-26.62,3.65a97.88,97.88,0,0,1-18.85-1.47,74.89,74.89,0,0,0,6.22-14.47.73.73,0,1,0-1.34-.57c-7.94,16.27-18.64,31.33-36.1,38.16-18.42,7.21-48.72-7.44-53.1-27.23-.66-3-3.95-2.83-5.48-.56-5.53,8.16-10.14,12.65-20.59,12.64-11.34,0-22-3.54-27.76-13.93a1.29,1.29,0,0,0-2.29.09c-7.28,14.1-21.15,19.86-36.56,17.54a27.61,27.61,0,0,1-4-.93,18.89,18.89,0,0,1-14.94-7c-4.6-5.32-6.42-13.36-5.6-21a30.55,30.55,0,0,0-4.16,9.19c-9.61,4.25-21.79,1.46-22.89-10.44-.18-1.86-2.45-1.55-3.22-.33-9.93,15.68-32,18.87-49.12,18.34-8.88-.28-17.94-2-26.57-4-14.39-3.31-21-11.09-21.46-25.71a.93.93,0,0,0-1.48-.64c-13.23,9.3-25.69,6.72-36.54-4.45a44.2,44.2,0,0,1-6.53-8.85,26.68,26.68,0,0,1-2.95-4.94c-3.23-7.07-4.38-14.55-4.52-22.13a39.42,39.42,0,0,0-4,19.44c-19,4-36-7.35-30.75-29.23.63-2.63-1.78-4.52-3.94-2.5-13.31,12.47-34-5.21-41.2-16.22C71.07,865.91,75.34,840.2,95.14,823a1.44,1.44,0,0,0-.69-2.59c-14-1.21-20.62-8.7-24-22A36.62,36.62,0,0,1,71.56,777,61.41,61.41,0,0,0,83.6,796.81Z"/><path class="cls-7" d="M22.17,745.77c13.47,9.63,31,15.22,46.15,11.43A50.3,50.3,0,0,0,69.53,770a52.76,52.76,0,0,0-3,5.8c-16.18,2-31.79.23-42.52-13.39a35.07,35.07,0,0,1-7.2-21.05A64.12,64.12,0,0,0,22.17,745.77Z"/><path class="cls-8" d="M161.6,702.89c-14.19-3.12-23-14.32-26.88-27.8-4.12-14.33,1.67-25.12,9.46-36.55.32-.47-.13-1.2-.64-.72-8.14,7.68-15,15.89-17.45,25.94-13-6-22.25-14.3-24.13-29.85-2.08-17.21,11.06-30.54,21.87-41.85a.18.18,0,0,0-.24-.27C109,604.92,96.77,618.18,97,639c.13,15.21,12.32,32.73,28.26,31.31a36.28,36.28,0,0,0,.75,8.82c3.6,17.58,16.09,31.29,35.16,27.83C163.19,706.55,163.94,703.4,161.6,702.89Z"/><path class="cls-8" d="M173.33,404.53c-14.05,15.14-15.79,46.24,2.48,58.63l.15.06c-4.08,7.06-6.78,17.79.84,22.94,2.22,1.49,4.48-1,4.17-3.26-1.12-7.78-2.48-13.89,1.8-21.08a22.59,22.59,0,0,1,6.59-7.53c2.68-1.91,5.78-2.24,8.26-4.46.3-.27.18-.93-.3-.68-3.63,1.86-7.86,1-11.39,3.21a29.08,29.08,0,0,0-8,7.85c-9.11-14-11.76-28.6-5.36-44.51,3.3-8.22,10-14.09,17.77-17.93,5.92-2.93,21.44-6,26.59.66.28.36.85-.05.72-.45C211.51,379.6,180.91,396.38,173.33,404.53Z"/><path class="cls-8" d="M416.42,620.89c-21.74,4.37-59.11,4.11-57.05-27.47.05-.62-.78-.38-.9.05a31.87,31.87,0,0,0-.42,16.89c-14.22-1.11-27.1-5.14-35.74-17.55-9-12.92-12.85-35.41-3.8-49.21.1-.15-.06-.28-.19-.15-12.76,12.84-13.06,35.13-6.35,50.84,8.19,19.16,28.3,26.56,47.72,21.22a1.73,1.73,0,0,0,.33-.17,22.33,22.33,0,0,0,10.16,9.48c15.1,7.32,31.87,5.72,46.6-1.23C418,623,418.2,620.52,416.42,620.89Z"/><path class="cls-8" d="M724.13,677.23c-3.63-19.57-23.27-25.53-40.74-21.62-.36.08-.6.82-.1.81,14.47-.18,29.31,5,34.36,19.81,5.26,15.44-4.78,31.76-15.94,41.59-2.45-5.49-6.61-8.45-12.06-12.51-.45-.33-1.17.35-.82.8,7.36,9.75,8.31,20.6,2.9,31.73-5.64,11.63-17.64,15.61-30,15.2-1.24,0-2.49,2.12-1,2.65,12.49,4.33,30.69-.33,37.8-12.37,3.64-6.14,6.27-14.15,4.55-21.36-.15-.63-.35-1.16-.53-1.72C718.26,711.94,727.5,695.37,724.13,677.23Z"/><path class="cls-8" d="M701,447.43a30.66,30.66,0,0,0-13.67.19c-.43-10-10.23-17.55-19.78-20.25-14.16-4-25.67,4.22-35.24,13.28-.19.18-.12.62.2.45,9.22-5,17.79-10.65,28.89-7.88,9.33,2.32,15.15,9,18.43,17.45-6.69,3.81-12.41,9.81-19.52,15.54-.6.49-.32,1.67.54,1.25,10.16-5,16.62-11.41,28.82-10.25,14,1.32,17.76,11.85,21.45,23.61,1,3.11,4.85,1.31,5.47-1.05C720,466.54,716.48,450.41,701,447.43Z"/><path d="M359.52,1293.69c-11.08,8-32.52,16.22-45.22,7.75-20.52,11-49.66,3.27-54.35-22.44-5.45-29.93-5.08-71.59,15.51-96.57-19.53-42.79-31.66-89.35-40.46-135.35-9.24-48.31-17.84-97.26-13.31-146.57a34.91,34.91,0,0,1-13.13-4.38c-10.1-5.61-18.23-14.18-18.8-25,7.39,14.76,22.39,25,38.67,22.37,8.36-.6,16.29-4.68,23.53-9.52a25,25,0,0,1-12.2-16.52,46.33,46.33,0,0,0,6.89,8.55c9.92,9.89,27.13,7.62,39.12,4.06A50.35,50.35,0,0,0,308.43,866a56.62,56.62,0,0,0,15-17.52,54.75,54.75,0,0,1-6.28,13.67,56.76,56.76,0,0,0,1.08,8.35c-1.63,24.17,25.65,38.65,48.33,35.43a43.09,43.09,0,0,1-30.83-1.76c-3.19,42.79-5.76,86-3.77,128.83,2,41.94,7.72,83,13.93,124.25,6,11.2,9.49,24.81,13.29,36.71,4.64,14.49,9.5,29.39,11.81,44.47C373.75,1256.52,376.6,1281.28,359.52,1293.69Z"/><path class="cls-9" d="M285.1,1188.78c8.85,8.39,22.12,9,36.29,4.73,4.42-1.33,21.57-7.44,21.44-14.08-.07-3-.25-6-.34-8.9C329.4,1127,324.35,1079.91,323,1034.69A663.25,663.25,0,0,1,325.4,959c1-11.94,1.92-24,3.66-35.81.8-5.47,1.07-15,3.38-20.78-12.05-6.91-20.07-19.77-18.64-35.56-8,10.21-19.43,17.87-31.95,20.57-9.54,2.06-19.39,1.46-27.25-2.1a1.42,1.42,0,0,1-.25.37c-8.65,9.27-18.79,15.23-29.88,15C234.43,997.88,249.74,1097.14,285.1,1188.78Z"/><path class="cls-10" d="M254.35,885.73a1.42,1.42,0,0,0,.25-.37c7.86,3.56,17.71,4.16,27.25,2.1,12.52-2.7,23.95-10.36,31.95-20.57-1.43,15.79,6.59,28.65,18.64,35.56-2.31,5.75-2.58,15.31-3.38,20.78-1.74,11.85-2.65,23.87-3.66,35.81a663.25,663.25,0,0,0-2.38,75.65c1.33,45.22,6.38,92.27,19.47,135.84.09,2.92.27,5.87.34,8.9.11,5.55-11.87,10.73-18.37,13.06q-2.34-12.81-5.75-25.41c-8.68-32.12-22.15-63.62-28-96.43-5.44-30.45-9.34-60.42-9.74-91.38-.26-20.73,1.57-48.6-12.59-65.75-8.1-9.82-15.64-6.21-18.65,5.35-5.28,20.2-4.19,42.43-3.43,63a513.9,513.9,0,0,0,11.87,90.58c9.14,42,21.55,84.63,41.46,123.11a26.56,26.56,0,0,1-14.5-6.82c-35.36-91.64-50.67-190.9-60.63-288.06C235.56,901,245.7,895,254.35,885.73Z"/><path class="cls-11" d="M333.53,1168.85c-5.24-25.27-12.26-49.76-16-75.44-5.18-35.77-9.1-72.09-10.76-108.21-.47-10-1.48-20.6-.54-30.62.67-7.07,2.23-14,2.75-21.09.38-5.09.67-10.35-1.4-15.16-2.82-6.57-6.16-12.15-6.07-19.55,0-1.75-2.11-2.22-3.32-1.5-13.07,7.72-30.3,4-41.89-4.79a2.14,2.14,0,0,0-3.25.74c-5.4,10.22-18.82,10.9-25.29,20.46a19.62,19.62,0,0,0-1.63,2.94c-.57-5.31-1.14-10.62-1.68-15.91,11.09.24,21.23-5.72,29.88-15a1.42,1.42,0,0,0,.25-.37c7.86,3.56,17.71,4.16,27.25,2.1,12.52-2.7,23.95-10.36,31.95-20.57-1.43,15.79,6.59,28.65,18.64,35.56-2.31,5.75-2.58,15.31-3.38,20.78-1.74,11.85-2.65,23.87-3.66,35.81a663.25,663.25,0,0,0-2.38,75.65c1.33,45.22,6.38,92.27,19.47,135.84.09,2.92.27,5.87.34,8.9s-3.59,6-8,8.45C335.59,1181.65,334.78,1174.85,333.53,1168.85Z"/><path class="cls-4" d="M354.8,1207.12c-2.42-8.33-4.74-16.93-7.74-25.14-3.6,10.66-13.78,15.94-26.55,19.38-21,5.65-34.21-2.53-44-16.22-5.67,24.66-14.21,46.55-12,72.8,1.17,14.13,1.74,37.4,20.79,38.28a69.72,69.72,0,0,0,22.61-3c-2.42-7.82-1.16-19.79-1.19-26a124.44,124.44,0,0,1,2.81-27.91c-.73,16.92-.56,34.33,2.67,50.8,1.23,6.32,5,8.59,9.5,8.72,5,1.75,12.11-.92,16.37-2.74,1-.42,2.08-.89,3.17-1.38,12.3-3.89,22.86-11.58,23.44-25.75C365.53,1247.81,360.64,1227.28,354.8,1207.12Z"/><path class="cls-6" d="M337.89,1195c0-.34-.07-.68-.11-1a23.7,23.7,0,0,0,9.28-12c3,8.21,5.32,16.81,7.74,25.14,5.84,20.16,10.73,40.69,9.87,61.79a24,24,0,0,1-4.89,13.88A570,570,0,0,0,337.89,1195Z"/><path class="cls-5" d="M321.69,1298.78a11.12,11.12,0,0,1-3.25-.54c-5.68-29.27-2.69-61.65,2.85-90.52-.9,29.55,2.24,61.6,11.49,90.3C329.1,1299.18,325,1299.92,321.69,1298.78Z"/><path class="cls-5" d="M292.7,1199.69a32.34,32.34,0,0,0,5.09,2c-5.64,31.37-6.43,63-.93,93.86a59.14,59.14,0,0,1-11.36.64C280.76,1263.79,281.32,1230.15,292.7,1199.69Z"/><path class="cls-6" d="M267.91,1281.16c-2.41-7.52-2.85-16.42-3.41-23.22-2.18-26.25,6.36-48.14,12-72.8.85,1.18,1.74,2.28,2.64,3.37C268.6,1218.15,265.26,1249.87,267.91,1281.16Z"/><path d="M477.28,1239.1c2.51-15,7.56-29.88,12.39-44.31,4-11.86,7.63-25.42,13.78-36.54,6.76-41.2,13.06-82.15,15.57-124,2.56-42.86.56-86-2-128.88a43.1,43.1,0,0,1-30.87,1.35c22.64,3.53,50.11-10.59,48.79-34.77a55.49,55.49,0,0,0,1.2-8.34A55.1,55.1,0,0,1,530,849.8a56.52,56.52,0,0,0,14.75,17.72A50.33,50.33,0,0,0,567.21,882c11.95,3.72,29.13,6.21,39.18-3.55a46,46,0,0,0,7-8.46A25,25,0,0,1,601,886.34c7.18,4.94,15,9.11,23.4,9.84,16.24,2.84,31.38-7.21,39-21.86-.71,10.76-9,19.22-19.11,24.7a35.36,35.36,0,0,1-13.19,4.2c3.87,49.35-5.37,98.19-15.25,146.38-9.41,45.87-22.15,92.27-42.25,134.81,20.26,25.24,20.09,66.9,14.24,96.75-5,25.65-34.27,32.94-54.65,21.73-12.81,8.29-34.14-.17-45.1-8.35C471.08,1281.9,474.26,1257.18,477.28,1239.1Z"/><path class="cls-9" d="M628.23,903.38c-11.09.1-21.15-6-29.67-15.37a1.78,1.78,0,0,1-.25-.38c-7.91,3.46-17.77,3.93-27.29,1.74-12.47-2.86-23.79-10.67-31.65-21,1.21,15.81-7,28.57-19.12,35.3,2.23,5.79,2.38,15.36,3.1,20.83,1.59,11.88,2.34,23.91,3.19,35.85a666,666,0,0,1,1.39,75.68c-1.94,45.21-7.61,92.18-21.28,135.57-.12,2.93-.34,5.87-.44,8.89-.24,6.64,16.84,13,21.23,14.38,14.12,4.45,27.4,4,36.36-4.26C600.36,1099.46,617,1000.41,628.23,903.38Z"/><path class="cls-10" d="M506.65,1171.61c13.67-43.39,19.34-90.36,21.28-135.57a666,666,0,0,0-1.39-75.68c-.85-11.94-1.6-24-3.19-35.85-.72-5.47-.87-15-3.1-20.83,12.14-6.73,20.33-19.49,19.12-35.3,7.86,10.32,19.18,18.13,31.65,21,9.52,2.19,19.38,1.72,27.29-1.74a1.78,1.78,0,0,0,.25.38c8.52,9.38,18.58,15.47,29.67,15.37-11.24,97-27.87,196.08-64.43,287.24a27.11,27.11,0,0,1-16.23,6.9c0-.11.09-.21.13-.32a4.46,4.46,0,0,0,5.15-3.11c24.41-66.92,43.09-112.49,53.15-182.85,3-21.17,6.68-71-.1-92.08-2.72-8.47-14.75-27-26.13-18.37-9.94,7.58-9.85,24.42-10.24,35.63-.65,18.65.78,37.3.77,56,0,37.81-4.8,74.59-10.82,111.83-5.13,31.68-11.53,63-23.52,92.76a65.52,65.52,0,0,1-8.52-2.08c-4.39-1.39-21.47-7.74-21.23-14.38C506.31,1177.48,506.53,1174.54,506.65,1171.61Z"/><path class="cls-11" d="M506.65,1171.61c13.67-43.39,19.34-90.36,21.28-135.57a666,666,0,0,0-1.39-75.68c-.85-11.94-1.6-24-3.19-35.85-.72-5.47-.87-15-3.1-20.83,12.14-6.73,20.33-19.49,19.12-35.3,7.86,10.32,19.18,18.13,31.65,21,9.52,2.19,19.38,1.72,27.29-1.74a1.78,1.78,0,0,0,.25.38c7.7,8.48,16.68,14.22,26.52,15.19-9.65,1.29-18.48-7.88-30-7-8.3.61-16.1,4.11-24.45,1.76a136.29,136.29,0,0,1-22.5-8.66,2.12,2.12,0,0,0-3,2.11c2.52,13.65-10.28,23.38-8.59,37.41,1,8.08,3.53,15.89,4.45,24a222.6,222.6,0,0,1,1,25.3c-.07,21.26-1.5,42.46-2.58,63.69-.93,18.11-.1,36.27-2.1,54.35-2.08,18.84-7.78,36-12.65,54.21-2.31,8.59-3.72,17.48-2.85,26.41.7,7.23,2.73,13.69,6.27,18.36l-.66-.18c-4.39-1.39-21.47-7.74-21.23-14.38C506.31,1177.48,506.53,1174.54,506.65,1171.61Z"/><path class="cls-4" d="M483.18,1269.7c.39,14.17,10.85,22,23.09,26,1.09.5,2.15,1,3.15,1.43,4.23,1.87,11.3,4.63,16.34,3,4.5-.07,8.29-2.28,9.62-8.59,3.44-16.43,3.85-33.84,3.34-50.75a124.43,124.43,0,0,1,2.43,27.94c-.11,6.22,1,18.2-1.53,26a70,70,0,0,0,22.57,3.31c19.06-.62,19.94-23.88,21.29-38,2.52-26.22-5.73-48.23-11.06-73-10,13.57-23.29,21.58-44.19,15.64-12.73-3.6-22.84-9-26.29-19.73-3.11,8.17-5.55,16.74-8.07,25C487.76,1228.12,482.59,1248.58,483.18,1269.7Z"/><path class="cls-6" d="M487.37,1283a24.08,24.08,0,0,1-4.19-13.25c-.59-21.12,4.58-41.58,10.69-61.66,2.52-8.3,5-16.87,8.07-25a22.78,22.78,0,0,0,6.74,10.18C496.72,1221.28,488.78,1252.13,487.37,1283Z"/><path class="cls-5" d="M522.25,1200.78c.57.2,1.12.43,1.7.62,6.2,32.54,1.21,66-4,99.07a41.33,41.33,0,0,1-10.52-3.29c-.84-.37-1.75-.79-2.65-1.2C508.81,1263.66,510.84,1231.35,522.25,1200.78Z"/><path class="cls-5" d="M549.59,1215.05c3.59,27.48,5.84,55.15,4.25,82.6-1.25-.13-2.49-.3-3.73-.5A623.18,623.18,0,0,0,549.59,1215.05Z"/><path class="cls-6" d="M562.29,1201.24a5.29,5.29,0,0,0-1.8-2.39,48.7,48.7,0,0,0,11.93-11.76c5.33,24.74,13.58,46.75,11.06,73-1,10.21-1.75,25.19-9.34,32.92C576.8,1261.88,573.63,1230.35,562.29,1201.24Z"/><path class="cls-7" d="M307,557.06a34,34,0,0,1,9.26-14.2c1.12-1,3.23.35,2.23,1.69-18.16,24.1,4.79,77.26,37.33,69.56-2.66-8.11-1.86-17.85,1.21-27,.46-1.37,2.71-1.3,2.64.3-.73,16.77,3.84,30.16,21.54,34.22,15,3.45,30.61-5.12,41.92-14.08a2.52,2.52,0,0,1,4,3,32.35,32.35,0,0,1-1.77,3.59c-1,18.81-19.94,32.23-36.8,36.67-15,3.93-37.34-2.68-41.76-18.84-16.32,2.34-30-4.9-39.34-20C298.8,598.13,296.58,571.11,307,557.06Z"/><path class="cls-7" d="M624.78,449.56a29.59,29.59,0,0,0,3.53-2,3.17,3.17,0,0,0,2.2.5c9.88-1.09,19.4-8.52,29.72-6.17,18,4.1,1.4,24.33-8,28.55-1.6.72-.77,3.37.91,3.25a26,26,0,0,0,5.61-1.07,3.44,3.44,0,0,0,3.61,3c6.19-.27,11.19-4.84,17.31-6,6.3-1.21,14.29-1.15,19.18,3.74,6.12,6.12,10.73,18.69,9.06,28.16-.52,1.31-1,2.62-1.52,3.89a1.17,1.17,0,0,0,.08,1,1.44,1.44,0,0,0,2.44,1.15,17.1,17.1,0,0,0,3.48-5.36c10.78-14.93,18.73-36.11,4.8-51.53-6.94-7.69-18.72-10.3-28.81-7.48-3.36-12-12.82-20.37-26.17-22.55-18.24-3-29.7,12.88-41.7,23.42C617.29,446.83,621.39,451.15,624.78,449.56Z"/><path class="cls-7" d="M398.12,708.77a19.47,19.47,0,0,0,5.27,10.64c5.92,10.2,15.18,16.57,29,15.51,11.16-.86,21.29-7.52,24.78-17.32,25.92,15.79,70.67,4.61,57.83-28.79-.07-.34-.09-.66-.18-1a.86.86,0,0,0-.48-.6c-.58-1.35-1.23-2.74-2-4.17a1.41,1.41,0,0,0-2.57,1.09,32.2,32.2,0,0,1,1.43,8.09c-4.91,10.53-14.65,14.5-26.92,15.47-8.34.66-19.33.13-22-8.83a28.34,28.34,0,0,0,7.38-6.43,26.57,26.57,0,0,0,7.56-10.94c.54-1.51-1.81-2.89-2.8-1.59-11.87,15.54-32.69,14.8-48.92,7.39-1-.45-2.33.58-1.62,1.64a25.24,25.24,0,0,0,7.15,7c3.46,5.1,10.12,6.82,16.31,6.86a32.27,32.27,0,0,1-20.46,14.55c-9.6,1.87-16.26-.24-22.65-5.72-1-1.76-2-3.63-2.95-5.58-.82-1.68-3.48-.48-3,1.25,0,.15.1.28.14.42A1.33,1.33,0,0,0,398.12,708.77ZM437.52,723a30.35,30.35,0,0,0,9-7.33C444.83,719.1,441.43,721.48,437.52,723Z"/><path class="cls-12" d="M189.68,1052.52c-2.83-7.71-5.26-15.66-7.72-23.63C174.4,1004.45,163.83,979,159,953.47c7,12.08,16.75,21.36,28.88,21.73,9.83,27.37,16.45,55.84,25.44,83.49C204.64,1059,197.07,1056.44,189.68,1052.52Z"/><path class="cls-12" d="M638.75,1060.61c2-9.41,5.56-18.59,8.14-27.81,4.28-15.35,20.55-69.51,25.46-80.69.4-.94.74-1.88,1.11-2.81a47.52,47.52,0,0,0,18.58-.86c-3.87,13.83-22.6,91-35.85,112.6A28.72,28.72,0,0,1,638.75,1060.61Z"/><path d="M638.58,204.79c3-9.47.7-23.28-8.76-26.5,9.2-7.72,13-18.88,12.33-31.75C641.39,132.66,630,121.41,617,122c3.08-8.83.49-20.4-4.88-27.26-5.71-7.29-15.79-5.94-24.51-3,2.91-9,2.46-19.21-4.58-26.07-6-5.79-12.63-8.12-18.87-5.71,5.06-13,3.2-29.57-12.28-33.79-9.62-2.64-21.61-.89-31.65,4.2a36.7,36.7,0,0,0-21.28-19c-18.47-6.22-31.72,1.5-41.85,14.14C457.94,10.14,438.76-1,424.43.07c-10.23.74-18,5.6-23.84,12.51-1.72-3.24-3.4-6.3-7.59-8.85-6.05-3.69-17.57-2-24.14-1-13.14,2.11-23.18,10.14-27.58,22.15-11.12-11.7-30-3.61-42.27,3.64-9.17,5.43-15.25,13.23-18.89,23.19a26.66,26.66,0,0,0-.88,7.34,49.5,49.5,0,0,0-12.67-.8c-7.81.53-14.34,4.35-19.83,9.67s-2.38,16.62-9.92,16.31c-17-.69-30.11,14.93-34.36,29.83-2,6.9-2.05,16.24,1.06,22.83,4.56,9.66,11.13,13.28,20.23,16.44a25.72,25.72,0,0,0-8.12,14.7c-1.4,7.57,3.86,12.49,8.53,17.51-18.28,3.95-29,22.83-29.11,41.17-.11,20.43,18.77,36.29,37.4,31.75-11.39,20.1.25,40,25.94,42.73a1.26,1.26,0,0,0,.65-.12c-1.09,2.82-2.19,5.63-3.27,8.44-11.67,30.42-25.53,60.68-19.1,93.88,11,56.69,76.1,90.25,128.51,95.58,58.55,6,116.33-19.72,158.19-59.48,23.63-22.45,41-48.34,48.53-80.32,5.11-21.8,5.57-44.77,3.76-67.43,18.9-.08,34.05-11,41.92-28.52,4.89-10.89,7.51-26.88-2.56-33C626.7,226.78,634.67,217.22,638.58,204.79Z"/><path d="M629.82,178.29c9.2-7.72,13-18.88,12.33-31.75C641.39,132.66,630,121.41,617,122c3.08-8.83.49-20.4-4.88-27.26-5.71-7.29-15.79-5.94-24.51-3,2.91-9,2.46-19.21-4.58-26.07-6-5.79-12.63-8.12-18.87-5.71,5.06-13,3.2-29.57-12.28-33.79-9.62-2.64-21.61-.89-31.65,4.2a36.7,36.7,0,0,0-21.28-19c-18.47-6.22-31.72,1.5-41.85,14.14C457.94,10.14,438.76-1,424.43.07c-10.23.74-18,5.6-23.84,12.51-1.72-3.24-3.4-6.3-7.59-8.85-6.05-3.69-17.57-2-24.14-1-13.14,2.11-23.18,10.14-27.58,22.15-11.12-11.7-30-3.61-42.27,3.64-9.17,5.43-15.25,13.23-18.89,23.19a26.66,26.66,0,0,0-.88,7.34,49.5,49.5,0,0,0-12.67-.8c-7.81.53-14.34,4.35-19.83,9.67s-2.38,16.62-9.92,16.31c-17-.69-30.11,14.93-34.36,29.83-2,6.9-2.05,16.24,1.06,22.83,4.56,9.66,11.13,13.28,20.23,16.44a25.72,25.72,0,0,0-8.12,14.7c-1.4,7.57,3.86,12.49,8.53,17.51-18.28,3.95-29,22.83-29.11,41.17-.11,20.43,18.77,36.29,37.4,31.75-11.39,20.1.25,40,25.94,42.73a1.26,1.26,0,0,0,.59-.11c2.59-4.84,1.49-10.91,1.64-16.33a195,195,0,0,1,1.61-20.06,183.12,183.12,0,0,1,7.1-31.1c5.18-16.32,12.07-31.66,28.26-39.28,8.36-3.93,14.69,2.45,21.7,6.24,10.41,5.64,20.38,12,30.67,17.87a137.91,137.91,0,0,0,24.53,11.31,1.29,1.29,0,0,1,.38.08c4.77,2,11.58.14,16.39-.8,5-1,9.95-2.13,14.94-3.11,12.31-2.42,25-2.57,37.36-4.65,15.68-2.61,31.29-5.67,47-8.26,6-1,12.22-2,18.37-1.84,6.65.16,12.52,1.79,19,2.87,8.78,1.46,16.55-.51,25-2.55,3.85-.93,7.9-2.19,11.84-1.18,1.76.46,3,2.34,3.46,4,1.5,5.41,2.35,11,4,16.36,2.1,6.91,4.69,13.6,7.4,20.29,2.22,5.47,5.08,11.61,4.91,17.67-.16,5.7-2,9.83-4.78,14.75a22.08,22.08,0,0,0-3,8.35c18.37-.51,33.09-11.3,40.8-28.48,4.89-10.89,7.51-26.88-2.56-33,11.68-3.43,19.65-13,23.56-25.42C641.55,195.32,639.28,181.51,629.82,178.29Z"/><path class="cls-9" d="M536.89,416c-37.84,46.67-100.87,80.09-161.2,78.16-54.64-1.75-118.66-35.54-134.25-91.44-9.41-33.72,11.4-70.88,22.74-102,13-35.67,26.27-71.18,36.89-107.67,5.64-1.36,11-4.5,15.82-8.16a21.81,21.81,0,0,0,3.36,6.7c8,11,25.09,15.21,36.62,7.59,4.1-2.7,13-9.1,13-14.38,0,2.88,3.14,5.26,5.66,5.85,11.82,2.77,21.88-4.45,27.77-14.1,1.86,14.58,17.33,22.13,32.07,22,15.83-.16,27.11-7.89,35.76-20.23.69,10.92,8.27,18.26,21.71,23.22,10.48,3.85,21.65,4.13,30.85-.17,8.37,8.82,19.56,14.43,31.67,10.51,1.64-.81,3.81-.8,3.94,1.41.17,2.95.44,5.89.72,8.83C568.66,288.12,582,360.36,536.89,416Z"/><path class="cls-10" d="M560,222.13c-.28-2.94-.55-5.88-.72-8.83-.13-2.21-2.3-2.22-3.94-1.41-12.11,3.92-23.3-1.69-31.67-10.51-9.2,4.3-20.37,4-30.85.17-13.44-5-21-12.3-21.71-23.22-8.65,12.34-19.93,20.07-35.76,20.23-14.74.16-30.21-7.39-32.07-22-5.89,9.65-15.95,16.87-27.77,14.1-2.52-.59-5.65-3-5.66-5.85,0,5.28-8.9,11.68-13,14.38-11.53,7.62-28.66,3.44-36.62-7.59a21.81,21.81,0,0,1-3.36-6.7c-4.82,3.66-10.18,6.8-15.82,8.16-10.62,36.49-23.88,72-36.89,107.67-11.34,31.08-32.15,68.24-22.74,102,15.59,55.9,79.61,89.69,134.25,91.44C436,496.09,499.05,462.67,536.89,416,582,360.36,568.66,288.12,560,222.13ZM515.58,423.49c-6.64,6.23-13.9,13.36-23,15.65-6.4,4.55-13.77,7.66-20.65,5.76a1.54,1.54,0,0,1-1.07-1.89c3.58-9.83,7-17,3.18-27.68a179.32,179.32,0,0,0-7.35-16.86c-2.37-4.94-5.08-11.66-.39-14.89-9.58-5.91-18.14,4.51-18.15,14.38,6.75-4.84,11.67,4.09,13.1,11.47,2.38,12.31-.52,24.07-11.72,31.18-10.54,6.69-27.57,11.24-39.2,4.48-10.83-6.3-14.4-18.75-16.84-30.28a1.57,1.57,0,0,1,2.7-1.36,1.45,1.45,0,0,1,.3-.06c8.61,0,30.72-10.17,30.28-20.71-.49-11.66-33.59-11.34-41.54-11.07-4.36.15-44.81,1.13-44.29,8.32.49,6.69,5.58,15,10.6,19.39,7.45,6.53,16.5,8,26.12,8.14A1.56,1.56,0,0,1,379.2,419c.11,2.58,2.11,5.64,2.49,8.34a33.59,33.59,0,0,1-.2,8.73,44.82,44.82,0,0,1-4.82,15.8c-6,10.85-19.42,12.33-30.67,9.84-13.56-3-26.74-10.2-33.13-23A26.28,26.28,0,0,1,311,421.32c1.37-5.47,4.53-9.63,7.64-14-8.18,4-15.71,9.74-18.67,18.69-3,9.14-2.43,18.69-1.19,28.1a1.52,1.52,0,0,1-1.93,1.47c-17.25-6.46-33.53-22.35-41.63-38.87-9.87-20.12-14.44-44-8.87-65.16,6.67-25.34,15.49-43.67,25.2-67.95,9.16-22.91,16.8-42,26.42-64.4.71-1.66,3.09-.5,2.79,1.17-1.1,6.32-3.54,12.19-5.84,18.12,1.83-1.41,3.67-2.81,5.64-4.06,1.39-.89,2.7.8,2.09,2.09-10.26,21.63-24.87,40.7-23.6,65.85,1,20.55,8.48,44.81,32.8,46.54,26.19,1.86,42.17-21.45,45.55-45.07,1.85-12.89,1.39-26.22.2-39.15-.64-7.12-1.1-15.08-4.58-21.52-2.25-4.17-4.71-8.14-6.34-12.62a1.54,1.54,0,0,1,2.24-1.72c2.65,1.74,5,3.8,7.87,5.14-.29-5.84-2.4-13.51-7.37-16.25a1.3,1.3,0,0,1-.72-1.31c-.85-.9-.54-2.71,1-2.55,7.26.77,12.26-4.3,16.74-9.22a2.16,2.16,0,0,1,2.36-.24c3.68,2.15,5,5.88,10.39,4.53a28.94,28.94,0,0,0,6.78-2.56c3.3-1.78,6.48-3.78,9.79-5.54a1.57,1.57,0,0,1,2.09.55c11.89,16.74,34,11.34,50.19,4.9,1.18-.47,2.08.86,1.88,1.88-.86,4.39-3.35,8.23-4.78,12.43-1,2.95.07,7.88,4,4.85a24.66,24.66,0,0,1,4.15-2.71,1.54,1.54,0,0,1,2.24,1.72c-2.21,9.05-7.75,16.87-9.81,26-2.12,9.44-3.4,19.13-4.74,28.71-2.75,19.57-3,40.92,6,59.09,3.46,7,8.18,13.93,15.31,17.69s14.07,2.85,21.56,4.79c3.75,1,5.47,3.53,5.88,7.4.63,6.06-.56,12-1.07,17.88,8.42-27.81,33.81-47.82,62.84-51a102.67,102.67,0,0,0-12.9-4.59c-1.79-.51-3.87-1.05-5-2.7-4.72-7-2.17-16-2.56-23.83-1.38-27.15-8.64-52-24.33-74.44-1-1.39.85-2.66,2.09-2.09a44.41,44.41,0,0,1,13,9.51c-2.67-5.82-6.21-11.25-8.94-17.1a1.54,1.54,0,0,1,1.73-2.24c4.19,1.12,9.33-.24,13.29,1.58,5.14,2.37,7,8,11.68,10.92,6.9,4.26,8.64,10.34,10.25,18.22,2.42,11.92,3.89,24,6.2,35.95,2.55,13.16,4.93,26.92,5.14,40.35.41,25.12-10,52.14-23.38,73.19C531.48,407.48,524,415.58,515.58,423.49Z"/><path class="cls-4" d="M608.23,232.65c10.9,6,6.5,20.32,2,30.17-6.61,14.44-19.16,23.92-34.84,25.42-1-11.18-2.55-22.27-4.34-33.07-2.33-14.11-5.94-27.94-8.65-42a1.15,1.15,0,0,0-1.28-1.07c-.16-.89-.35-1.78-.55-2.66,7.11-4.72,10.88-13.76,10-22.17,15.47-3,27.94-18.58,23.08-34.58a16.54,16.54,0,0,0-1.51-3.43c-5.41-6-14.36-6.1-22.74-2.89,7.39-1,15,1.11,17.91,8.86,5.07,13.43-6.09,24.29-17.19,29.42a20.92,20.92,0,0,0-1.66-4.62c-.06,9.35-1.84,19.47-10.13,24.14-5.79,3.27-16.65,4.77-22.14-.1a43.15,43.15,0,0,1-9.68-4.18A31.29,31.29,0,0,0,537,189.41c-12.7,9-28.1,13.84-43.29,6.27C482.19,190,474.39,180.77,472,169.4a34.65,34.65,0,0,0-.85,6.51.82.82,0,0,0-.25.21c-7.31,8.89-14.38,13.38-24.77,14.66a39.63,39.63,0,0,1-14.38,2.39C416.11,193,407.84,183,403.33,170a22.47,22.47,0,0,1-11.1,14.09c-4,2.69-18.75,8.1-20.21-2.49-.16-1.15-1.6-.61-2,0a34.37,34.37,0,0,1-10.56,10.76c-6.26,5.12-13.38,8-21.13,5.69-11.71-3.53-19.77-17.2-17.91-28.74-2.91,3.84-4.51,8-4.14,12.44-6.14,2.35-12.2,4.76-18.92,4.56a24,24,0,0,1-8.46-1.94c-9-2-17.24-8-20.62-17.24-3.06-8.36-1.56-17.87,4.93-24.34,4.64-4.64,10.28-7.46,16.53-9.35,4.46-1.33,8.95-1.07,13.41-1.08-19-5.65-43.61,7.39-41,29.84,1.64,14.11,10.45,22.62,22.58,29a22.6,22.6,0,0,0,14.7,2.25c-11.79,35.45-25.79,70.13-39.31,105a1.26,1.26,0,0,0-.4-.22c-12.37-3.48-23.2-12-25.67-22.39a20.37,20.37,0,0,1-.94-3.57c-1.38-8.25,1.61-14.87,6.45-20.8-15,2.82-31,.37-36.28-15.91-3.82-11.75-3.15-25.38,3.9-35.8,5.36-7.92,15.37-10.9,24.46-12.87a2.56,2.56,0,0,0-.55-1.5c-8.21-10.08-17.17-21.94-1-31.09a2.74,2.74,0,0,0,.21-4.67c-5.3-3.07-11-4.4-15.75-8.51-6.68-5.73-7.44-15.52-7-23.57,1.08-17.67,18.09-31.84,35.48-29.47a2,2,0,0,0,2.07-1.83c2.62-16.43,19.89-24.06,34.33-20.74.36,3.92,1.15,7.76,2.52,10.28-2.85-14.65,5.91-31.5,16.57-40.44,13.12-11,30.09-11.2,45.46-6.3a27.24,27.24,0,0,1,5.74-9.8A36.55,36.55,0,0,1,361.22,9a33.84,33.84,0,0,1,26.35-2.84c5.05,1.55,9.08,5.19,12.74,9.19,8.2-6.87,18.23-10.57,30.19-7.43s22.73,10.88,25.29,22.39c1.22-.88,2.45-1.74,3.67-2.59a43.07,43.07,0,0,1,9.65-6c11.47-6.16,23.53-8.59,37.44-.48a28.45,28.45,0,0,1,11.22,12.51c12.52-5.89,27.35-7.78,36-2.53,12.69,7.76,9.06,23.63,3.64,37a41.38,41.38,0,0,1,7-3.81,9.71,9.71,0,0,1,2.66-1c7.78-2.45,15.42-1,18.54,9.94,2.19,7.7,1.79,16.3-.44,24.43.3-.57.63-1.11.9-1.71,6.28-1.55,12.87-1.87,18.31,2.11,6,4.41,8.92,20.59,3.78,26.56a4.11,4.11,0,0,0-.87,3.46c9.19-3.69,19.19-5.85,25.66,4.3,3.19,5,3.9,10.5,3.37,16.05,1.66,13.27-2.74,28.26-12.4,29.15a2.6,2.6,0,0,0-1.72,1c12.14,4,16.17,21.92,9.81,33C627.26,219.78,618.19,228.6,608.23,232.65Z"/><path class="cls-7" d="M622.11,178.65a2.6,2.6,0,0,1,1.72-1c9.66-.89,14.06-15.88,12.4-29.15.53-5.55-.18-11.05-3.37-16.05-6.47-10.15-16.47-8-25.66-4.3a4.11,4.11,0,0,1,.87-3.46c2.58-3,3.13-8.56,2.29-13.92-4.24,8.25-12.81,16.42-22.24,17.46-7.88.87-18.14-7.43-12-15.62,6.25-8.39,19.15-12.06,29.23-13.57a8,8,0,0,0-1-.91c-5.44-4-12-3.66-18.31-2.11-.27.6-.6,1.14-.9,1.71a53.13,53.13,0,0,0,1.67-9.32c-5,6.87-12.73,10.69-21.18,12.13-13,2.23-24.59-5-28.32-16.05a28.89,28.89,0,0,1-6.07,8.58c-13.36,13-33,11.22-43.76-3.8a23.2,23.2,0,0,1-3.83-19.34,15.63,15.63,0,0,1,0-1.81,28.68,28.68,0,0,0-4.58,6.6c-5.09,10.45-1,31.71,13.68,32.25a1.53,1.53,0,0,1,.41,3c-8.13,2.27-15.36,6.42-19.45,14.06a1.55,1.55,0,0,1-2.4.31c-4.43-4.67-10.78-5.61-17.21-5.06h0a40.67,40.67,0,0,1,5.73,2c8,3.43,13.78,12.6,13.34,21.3-.51,10.22-6.06,19.92-13.16,27.11-5.85,5.93-14.9,11.49-23.65,10.42-9.85-1.22-16.92-5.45-22.78-13.43a35.5,35.5,0,0,1-6.32-20.2,33.41,33.41,0,0,1,.84-7.48,31.84,31.84,0,0,1-3.16.69,18.28,18.28,0,0,1,.84,5.41c0,7.27-4.73,14.89-11.55,17.78-3.72,1.57-6.79,3-11,2.78a22.16,22.16,0,0,1-9.66-2.53,23.28,23.28,0,0,1-9.7,11.88c-12.77,8.16-32.2,3.7-38.46-10.89a38.68,38.68,0,0,1-2.84-10,19.38,19.38,0,0,1,1.21-13c3.61-8.31,11.84-12.71,20.42-13.24,1.46-.3,2.94-.55,4.49-.75a13,13,0,0,1,10.65,4.09,24.05,24.05,0,0,1,2.86,1.85,56.13,56.13,0,0,1,5.23,4.5c.1-.19.17-.38.27-.58.09-.4.17-.83.28-1.24a16.44,16.44,0,0,1,9.31-10.47,27.42,27.42,0,0,1-3.54-17.15c.08-.63.18-1.26.28-1.89a30.21,30.21,0,0,1-15.29,11.17c-15.73,5.27-32.84.73-39.14-15.63a22.82,22.82,0,0,1,.79-17c-15.35,3.35-30-5.26-34.45-21.63a41.65,41.65,0,0,1-1.35-8.2,38.6,38.6,0,0,0-2.9,18.35,13.94,13.94,0,0,1,1.34,2c3.22,6.07,4.26,14.88-.18,20.71-3.3,4.34-8,7.81-13.78,7.44-5.33-.35-10.94-2.19-14.78-6.08C247,90,247.65,79.72,253,71.86a23.88,23.88,0,0,0-7.87,14.33A2,2,0,0,1,243.07,88c-17.39-2.37-34.4,11.8-35.48,29.47-.48,8.05.28,17.84,7,23.57,4.78,4.11,10.45,5.44,15.75,8.51a2.74,2.74,0,0,1-.21,4.67c-16.2,9.15-7.24,21,1,31.09a2.56,2.56,0,0,1,.55,1.5c-9.09,2-19.1,4.95-24.46,12.87-7.05,10.42-7.72,24.05-3.9,35.8,5.3,16.28,21.31,18.73,36.28,15.91-4.84,5.93-7.83,12.55-6.45,20.8a20.37,20.37,0,0,0,.94,3.57c2.47,10.43,13.3,18.91,25.67,22.39a1.26,1.26,0,0,1,.4.22c13.52-34.83,27.52-69.51,39.31-105a22.6,22.6,0,0,1-14.7-2.25c-12.13-6.36-20.94-14.87-22.58-29-1.91-16.63,11.07-28.06,25.66-30.6,2.22-1.27,6.68,1.06,9,.31,5.35-1.74,6.62.51,11.57,2.62,5.54,1.68,10.11,5.4,11.42,12,1.88,9.48-2.45,19.86-11.21,24.53-11.28,6-27.12,2.29-33.43-9.36-4.82-8.9-1.61-17.44,4.56-23.8a33.12,33.12,0,0,0-6.43,4.91c-6.49,6.47-8,16-4.93,24.34,3.38,9.21,11.59,15.26,20.62,17.24a24,24,0,0,0,8.46,1.94c6.72.2,12.78-2.21,18.92-4.56-.37-4.44,1.23-8.6,4.14-12.44-1.86,11.54,6.2,25.21,17.91,28.74,7.75,2.35,14.87-.57,21.13-5.69A34.37,34.37,0,0,0,370,181.6c.4-.62,1.84-1.16,2,0,1.46,10.59,16.22,5.18,20.21,2.49A22.47,22.47,0,0,0,403.33,170c4.51,13,12.78,23,28.37,23.18a39.63,39.63,0,0,0,14.38-2.39c10.39-1.28,17.46-5.77,24.77-14.66a.82.82,0,0,1,.25-.21,34.65,34.65,0,0,1,.85-6.51c2.44,11.37,10.24,20.56,21.72,26.28,15.19,7.57,30.59,2.75,43.29-6.27a31.29,31.29,0,0,1-10.51,10.5,43.15,43.15,0,0,0,9.68,4.18c5.49,4.87,16.35,3.37,22.14.1,8.29-4.67,10.07-14.79,10.13-24.14a20.92,20.92,0,0,1,1.66,4.62c11.1-5.13,22.26-16,17.19-29.42-2.93-7.75-10.52-9.82-17.91-8.86,8.38-3.21,17.33-3.13,22.74,2.89a16.54,16.54,0,0,1,1.51,3.43c4.86,16-7.61,31.55-23.08,34.58.92,8.41-2.85,17.45-10,22.17.2.88.39,1.77.55,2.66a1.15,1.15,0,0,1,1.28,1.07c2.71,14,6.32,27.87,8.65,42,1.79,10.8,3.33,21.89,4.34,33.07,15.68-1.5,28.23-11,34.84-25.42,4.52-9.85,8.92-24.13-2-30.17,10-4.05,19-12.87,23.69-21C638.28,200.57,634.25,182.69,622.11,178.65ZM245.62,122.74c-4,4-9.44,5.8-15.06,6-9.91.35-18.19-8.53-18.19-18.2a17.8,17.8,0,0,1,7-14.21,17.77,17.77,0,0,1,14.21-7c9.66,0,18.54,8.28,18.2,18.2C251.62,113.27,249.76,118.6,245.62,122.74Zm308,24.36c-4.5,11.89-14.13,21.29-27,23.56-19.55,3.43-37.52-9-39.85-28.9-1-8.89,4.08-18.17,11.67-22.67a25.23,25.23,0,0,1,3.7-1.8c.23-.21.44-.42.7-.62,10.41-8.13,23.55-10,35.7-4.61S558.45,134.36,553.63,147.1Z"/><path class="cls-7" d="M622.11,178.65a2.6,2.6,0,0,1,1.72-1c9.66-.89,14.06-15.88,12.4-29.15.53-5.55-.18-11.05-3.37-16.05a15,15,0,0,0-8-6.59c3.37,14.46-3.66,30.89-20.31,33.48-1.06.17-2.29-.66-1.88-1.87,6.3-18.76-17-18.92-29.58-18.94A1.53,1.53,0,0,1,571.6,137c.2-7.5-4-12.65-9.11-17.19,4.42,10.27,4.14,22.51-3,30.34,9-1.63,19.76-.93,21.44,7.51,1.74,8.73-10.19,15.62-17.58,12.36.37,13.27-24.46,18.79-30.1,5.12-11.15,11.67-33.21,21.15-48.55,14.71a47.08,47.08,0,0,0,8.95,5.83c15.19,7.57,30.59,2.75,43.29-6.27a31.29,31.29,0,0,1-10.51,10.5,43.15,43.15,0,0,0,9.68,4.18c5.49,4.87,16.35,3.37,22.14.1,8.29-4.67,10.07-14.79,10.13-24.14a20.92,20.92,0,0,1,1.66,4.62c11.1-5.13,22.26-16,17.19-29.42-2.93-7.75-10.52-9.82-17.91-8.86,8.38-3.21,17.33-3.13,22.74,2.89a16.54,16.54,0,0,1,1.51,3.43c4.86,16-7.61,31.55-23.08,34.58.92,8.41-2.85,17.45-10,22.17.2.88.39,1.77.55,2.66a1.15,1.15,0,0,1,1.28,1.07c2.71,14,6.32,27.87,8.65,42,1.79,10.8,3.33,21.89,4.34,33.07,15.68-1.5,28.23-11,34.84-25.42,4.52-9.85,8.92-24.13-2-30.17,10-4.05,19-12.87,23.69-21C638.28,200.57,634.25,182.69,622.11,178.65Z"/><path class="cls-7" d="M301.19,100.21c-3.73,10-10.33,17.45-22,19.61-8,1.48-17.16-.2-22-6.46-1.8,13.41-9.44,26.15-24.38,27.51a28,28,0,0,1-24.14-10,19.42,19.42,0,0,0,6,10.18c4.78,4.11,10.45,5.44,15.75,8.51a2.74,2.74,0,0,1-.21,4.67c-8.35,4.71-10,10.15-8.52,15.69,5.58-9.28,15.9-13.18,25.89-16.58a1.54,1.54,0,0,1,1.88,1.87c-2.31,7.55-7.66,25.87,4.64,27.08a1.54,1.54,0,0,1,.4,3c-6.44,2.65-16.7,6.34-18.63,14-1.63,6.58,1.34,12.83.71,19.43-.79,8.18-9.79,14.77-17.25,16.43a28.78,28.78,0,0,1-16.3-1c.12.43.21.87.34,1.29,5.3,16.28,21.31,18.73,36.28,15.91-4.84,5.93-7.83,12.55-6.45,20.8a20.37,20.37,0,0,0,.94,3.57c2.47,10.43,13.3,18.91,25.67,22.39a1.26,1.26,0,0,1,.4.22c13.52-34.83,27.52-69.51,39.31-105a22.6,22.6,0,0,1-14.7-2.25c-12.13-6.36-20.94-14.87-22.58-29-1.91-16.63,11.07-28.06,25.66-30.6,1.51-.86,4-.08,6.2.28a22.87,22.87,0,0,0,10.09-7.36,1.56,1.56,0,0,1,1.72-.7c15.17,5.75,28.79,4.83,43.07.38C329.74,124.11,306,118.82,301.19,100.21Z"/><path class="cls-7" d="M346.17,196.2c-11.89-4.68-24.19-16.55-25.1-29.86-7.09,8.09-17.12,15-28.06,15a28.23,28.23,0,0,1-25.14-15.59c.14.47.24.94.41,1.4,3.38,9.21,11.59,15.26,20.62,17.24a24,24,0,0,0,8.46,1.94c6.72.2,12.78-2.21,18.92-4.56-.37-4.44,1.23-8.6,4.14-12.44-1.86,11.54,6.2,25.21,17.91,28.74a18.79,18.79,0,0,0,12.06-.4C349,197.22,347.56,196.76,346.17,196.2Z"/><path d="M548.91,332.86c-10.06.52-20.4,2-29.6,6,12.36-22.66,5.38-59.33-3.23-80.22-5.8-14.07-18.57-35-36.14-34.27-12.58.5-25.3,12.91-29.35,24.35a.49.49,0,0,0,.16.65c-5,10.49-7.47,22.69-9.24,33.1-5.67,33.34,9.69,83.63,51.88,75.11a44.21,44.21,0,0,0,4.8-1.28c-7.83,10.88-14,25.35-13.35,38.11,0,.36.47.19.49-.09,1.2-15.78,12.4-31.9,24.24-41.48,11.08-9,26.51-11.51,39.38-17.12C550,335.23,550.59,332.77,548.91,332.86Z"/><path class="cls-13" d="M493.35,353.81c-35.09,10.53-49.91-33.65-49.86-59.83a105,105,0,0,1,9.68-43.7c5-10.44,13.27-18.63,22.36-21.23a20.73,20.73,0,0,1,15.13,3.23c12.59,8.06,19.85,22,24.8,35.69,8.4,23.21,12.7,57.52-5.05,75.78a44.33,44.33,0,0,0-5.73,4.77A41.15,41.15,0,0,1,493.35,353.81Z"/><path d="M312.41,344.81c1,.1,1.9.15,2.83.18,12.52-.65,22.26-7.54,30.08-16.56,11.14-17,13.89-43.32,12.5-60.27-1.09-13.31-6.18-34.18-21.05-38.3-10.65-3-24.59,4-31,12.51a.44.44,0,0,0,0,.59c-7,7.43-12.31,17-16.58,25.2C275.46,294.5,274.86,340.65,312.41,344.81Z"/><path class="cls-13" d="M313.37,341.68c-32.14-.58-32.73-41.47-25.68-63.35a92,92,0,0,1,19.77-33.94c7-7.39,16.07-12,24.36-11.78a18.22,18.22,0,0,1,11.79,6.75c8.37,10.11,10.72,23.68,11.2,36.46.81,21.66-4.76,51.49-24.49,62a39.79,39.79,0,0,0-6.07,2.46A36.39,36.39,0,0,1,313.37,341.68Z"/><path d="M353.27,225.25c-5.17-12.1-13.73-21.6-27.75-17.2-6.12,1.92-11.35,6.37-15.72,10.87-4.12,4.23-6.4,9.89-10,14.19-.15.18,0,.41.22.33,2-.68,1.61-1.35,3.87-3.61,4-4,9.25-7.61,13.93-10.78,12.92-8.7,22.76-.93,32,8.46C351.06,228.77,354,226.89,353.27,225.25Z"/><path d="M455.48,386.61c.19-.14.35-.29.54-.41.48-.31,1.56-.1,2.11-.18a6.08,6.08,0,0,0,1.89-.66c2.52-1.18,2-5.68-1.18-4.95a10.1,10.1,0,0,0-6.75,4.42c-1.84,2.45-2.57,5.56-4.34,8.07-.21.3.08.84.45.57a40,40,0,0,0,4.85-4.71c.29-.31.62-.61.94-.92,7.39,10.88,12.84,22,11.29,35.71-1.49,13.1-18.73,24.89-29.89,29.37-14.66,5.89-30.13-.12-41-10.62-3-2.87-4.72-7.05-5.92-11.36a116.63,116.63,0,0,0-2.83-22c.78-.08,1.57-.16,2.36-.26,9.84-1.24,48.08-15.11,23.56-24.83-15.17-6-32.76-6.22-48.61-1.67a63.71,63.71,0,0,0-18.85,7.23c-4.6,2.74,2.2,9.93,4.13,11.23,10.3,6.92,23,9.25,35.27,8.46a.33.33,0,0,0,0,.1,106.48,106.48,0,0,1,1.58,10.72c-.08.68-.14,1.32-.17,1.87a24.09,24.09,0,0,0,.56,5.69,72.86,72.86,0,0,1-.91,12.17c-2.75,16.8-15.77,26.83-32.24,28.72-13,1.49-25.16-4.87-33.8-14-9.95-10.52-16.94-35.92-1-44.9.12-.07.07-.26-.07-.2-12.36,5.61-12.59,22.35-9.68,33.87,4.26,16.84,19.46,28.23,36,30.69a40.18,40.18,0,0,0,30.84-8.69c3.51,2.23,6.57,7.37,9,9.52,3.45,3.05,9.56,1.54,13.42.56,6.08-1.56,12.12-6.44,17.11-10a11,11,0,0,0,4.37-6.35,38.61,38.61,0,0,0,19.82-2.7c12.43-5.07,25.12-16.42,29.46-29.28C472.53,413,464.75,396.79,455.48,386.61Z"/><path class="cls-14" d="M362.32,402c-5.13-1.23-9.64-3.83-13.95-6.76-7.76-5.27,8.89-8.41,11.73-9.29,11.32-3.53,24.36-4.15,36.64-2.24,6.16,1.27,12.33,2.37,17.9,5.52,6,3.43-8.16,9.61-8.14,9.6a57.89,57.89,0,0,1-17.84,5.27C379.79,405.34,371,404,362.32,402Z"/><path class="cls-14" d="M396.56,470.13c-8.43,3.33-10.72-3.44-16.8-6.13a18.88,18.88,0,0,0-2.72-.95,36.49,36.49,0,0,0,6.36-8,40.56,40.56,0,0,0,4.89-17,23,23,0,0,0,6.06,9.09,47.16,47.16,0,0,0,20.76,11.16C411.44,463.22,401.31,468.26,396.56,470.13Z"/><path class="cls-15" d="M394.35,447.11a23,23,0,0,1-6.06-9.09,40.56,40.56,0,0,1-4.89,17,36.24,36.24,0,0,1-5.2,6.75c3.42-2.47,7.29-4.36,11.32-4.15a10.65,10.65,0,0,1,10,8,16.47,16.47,0,0,1,.46,3c5.14-2.4,12.16-6.39,15.09-10.34A47.16,47.16,0,0,1,394.35,447.11Z"/><path d="M450.08,217.19c4-12.55,11.58-22.83,26-19.81,6.27,1.32,11.9,5.25,16.69,9.31,4.51,3.82,7.32,9.23,11.33,13.15a.2.2,0,0,1-.19.36c-2.05-.5-1.73-1.19-4.2-3.23-4.35-3.58-9.93-6.69-14.9-9.38-13.7-7.42-22.75,1.27-31,11.51C452.63,220.47,449.54,218.89,450.08,217.19Z"/><path d="M771.85,112.9c-25.53,0-50.89,2.32-75.63,8.67-24.32,6.25-45.91,16.08-67.24,29.32-16.18,10.05-34.29,26.65-42.73,44.42-1.94-3.14-5.34-4.39-8.77-6.44-.49-.29-1.16.32-.84.82,1.51,2.4,3.37,4.21,4.32,7,1.08,3.2.27,8.42-.51,11.6-1.53,6.18-6.66,13.94-12.22,17.26-.3.18-.6,1,0,1,3.07-.08,6.31-1.83,9.28-4.21,4.6.24,7.77,1.85,10.72,6.15,2.55,3.73,2.36,8.78,4.24,12.83.37.81,1.62.25,1.85-.36,2.16-5.66,1.33-12.61-2.91-17.13a14.59,14.59,0,0,0-4.7-3.39c5.26-1.72,9.49-1.79,16.15.43,11.68,3.9,24.24,4.66,36.45,5.07,25.38.85,51.77-1.65,75.2-12,23.87-10.55,44.87-23.28,64.63-40.51,14.28-12.46,30.1-33.14,35.67-51.53C818.71,109.08,777.57,112.9,771.85,112.9Z"/><path class="cls-9" d="M803,137.24c-12,16.67-27,29.23-43.79,40.74-10.33,7.09-21.1,13.88-32.55,19-10,4.44-20.38,7.24-30.57,11.07a195,195,0,0,1-71.85,12.22c-10.61-.23-20.45-3.84-30.89-4.71-4.24-.36-7.05,2.8-10.55,3.89a10.63,10.63,0,0,0-2.18.07,42.5,42.5,0,0,0,6-7.5c2.51-4.13,1.94-9.38.88-13.78a10.24,10.24,0,0,0-.64-1.87C609.58,161.22,658.36,141,696.31,129c19.67-6.24,39.1-9.39,59.61-11.33,11.7-1.1,23.52-1.08,35.26-1.07a107,107,0,0,1,16.38,1.32C816.93,119.33,804.1,135.73,803,137.24Z"/><path class="cls-10" d="M726.67,197c11.45-5.1,22.22-11.89,32.55-19,3.42-2.34,6.75-4.76,10-7.22,3.31-3.85,6.58-7.74,9.74-11.7,7.15-9,16.79-19.42,21-30.5-36.54-.93-73.38,7.65-108.08,18.37a266,266,0,0,0-93.25,50.71c-.88.73-2.81.39-2.61-1.08a55.75,55.75,0,0,1,5.88-18.21,101.46,101.46,0,0,0-15.08,18,10.24,10.24,0,0,1,.64,1.87c1.06,4.4,1.63,9.65-.88,13.78a42.5,42.5,0,0,1-6,7.5,10.63,10.63,0,0,1,2.18-.07c3.5-1.09,6.31-4.25,10.55-3.89,10.44.87,20.28,4.48,30.89,4.71A195,195,0,0,0,696.1,208C706.29,204.2,716.69,201.4,726.67,197Z"/><path class="cls-3" d="M668.64,211.62c-13.13,1.73-34.84,5.81-45.19-5.33-.78-.84-.48-2.75.67-2.55,39.09,6.56,66.19-5.43,97-20.34,26.69-12.89,49.16-32.21,72.73-49.85-38.1.64-75.24,7.06-111.75,18-16.71,5-33.58,10.71-48,20.9-10.73,7.6-21.53,18.27-35.11,20-1,.13-1.69-1.08-1.47-1.94A67.7,67.7,0,0,1,602,178.29a101.43,101.43,0,0,0-15.13,18.06,10.24,10.24,0,0,1,.64,1.87c1.06,4.4,1.63,9.65-.88,13.78a42.5,42.5,0,0,1-6,7.5,10.63,10.63,0,0,1,2.18-.07c3.5-1.09,6.31-4.25,10.55-3.89,10.44.87,20.28,4.48,30.89,4.71A195,195,0,0,0,696.1,208c5.5-2.07,11.06-3.85,16.58-5.74C698.39,206.87,683.68,209.63,668.64,211.62Z"/><path d="M786.89,134A420.45,420.45,0,0,0,681.47,154.2c-16.89,5.56-33.46,12.15-48.62,21.51a158.43,158.43,0,0,0-19.57,14.63c-5.5,4.69-9.69,11.25-15.4,15.59-.34.26-.16.79.29.64,4.31-1.48,7.41-5.79,10.89-8.67,2.41-2,4.91-3.93,7.45-5.81a.77.77,0,0,0,.36.42c19.46,11.07,42.35,8.65,63.27,3,20.49-5.51,43.23-16.21,59.66-29.75.41-.35.06-1-.42-.65-15.9,11.58-36.44,19-55.17,24.23-21.67,6.1-44.6,8.1-66.1,1.56,4.14-3,8.4-5.82,12.72-8.46C645.65,173.4,662,167.58,678.37,162c34.75-11.86,71.79-22.92,108.4-26.88C787.31,135.07,787.54,134,786.89,134Z"/><path d="M37.62,95.55c2.68,19,15.14,41.89,27.34,56.39,16.88,20.06,35.68,35.87,57.64,49.95,21.56,13.84,47.25,20.37,72.46,23.42,12.13,1.47,24.65,2.65,36.8.6,6.92-1.17,11.08-.45,16,2.05a14.59,14.59,0,0,0-5.16,2.62c-4.88,3.83-6.78,10.57-5.51,16.49.14.63,1.28,1.38,1.78.64,2.47-3.71,3.06-8.73,6.15-12,3.58-3.8,7-4.9,11.54-4.43,2.57,2.81,5.51,5,8.53,5.59.6.11.43-.73.16-1-5-4.12-8.86-12.58-9.42-18.93-.29-3.25-.29-8.54,1.27-11.52,1.38-2.64,3.49-4.14,5.35-6.28a.62.62,0,0,0-.7-.94c-3.7,1.49-7.25,2.21-9.65,5-5.61-18.85-21-38-35.41-50.45-19-16.36-38.87-29.39-61.93-39.3-23.47-10.08-48.18-16.26-73.41-20.19C75.82,92.4,35.75,82.31,37.62,95.55Z"/><path class="cls-9" d="M45.42,92.72a108.35,108.35,0,0,1,16.39,1.21c11.6,1.8,23.28,3.59,34.68,6.49,20,5.06,38.68,11.16,57.16,20.34,35.65,17.72,80.74,45.19,97.83,83.4a9.92,9.92,0,0,0-.91,1.75c-1.73,4.18-3.1,9.28-1.26,13.75a43,43,0,0,0,4.74,8.33,10.47,10.47,0,0,0-2.15-.41c-3.28-1.61-5.57-5.16-9.82-5.47-10.45-.74-20.73,1.32-31.24-.08a195,195,0,0,1-69.13-23.11c-9.48-5.36-19.33-9.72-28.51-15.64-10.52-6.79-20.12-15.15-29.25-23.75-14.78-13.95-27.75-28.68-37-47C46.11,110.89,35.94,92.71,45.42,92.72Z"/><path class="cls-10" d="M249.31,219.66c-1.84-4.47-.47-9.57,1.26-13.75a9.92,9.92,0,0,1,.91-1.75c-1.25-2.8-2.7-5.53-4.24-8.22.21,1.08.42,2.16.57,3.26.2,1.32-1.46,2.82-2.55,1.49-28.51-34.77-67.47-51.6-107.31-69.85-13.3-6.09-26.67-12.14-40.59-16.7-7.59-2.49-15.48-4.92-23.48-5.67a34.92,34.92,0,0,0-9.95.07c-1.63.33-7,2.21-6.17,2.71a1.46,1.46,0,0,1,.57,1.89C72.56,140.32,92.15,165.4,116,185c8.37,5.06,17.16,9.12,25.67,13.94A195,195,0,0,0,210.84,222c10.51,1.4,20.79-.66,31.24.08,4.25.31,6.54,3.86,9.82,5.47a10.47,10.47,0,0,1,2.15.41A43,43,0,0,1,249.31,219.66Z"/><path class="cls-3" d="M249.31,219.66c-1.84-4.47-.47-9.57,1.26-13.75a9.92,9.92,0,0,1,.91-1.75c-7.33-16.39-19.83-30.79-34.52-43.31a145.78,145.78,0,0,1,16.19,25c.57,1.11-.37,2.71-1.72,2.24-28.09-9.6-48.52-33-76.09-44-15.56-6.18-31-13.27-47.09-17.91C93.75,122,77.31,116.18,63.1,111a87.2,87.2,0,0,0,13.84,17.78c4.57,4.31,8.72,9,13.24,13.4a262,262,0,0,0,34.65,28.57c22.83,15.54,47.9,26.33,74.23,34.16a20.44,20.44,0,0,1,3.34.12,1.44,1.44,0,0,1,1.19.09,1.55,1.55,0,0,1,.22.12,29.33,29.33,0,0,1,6.65,2.17c1.18.53,1,2.46,0,2.64-13.74,2.5-30.61,2.42-43-2.66-18-7.39-34.95-17.83-51-28.76a319.1,319.1,0,0,1-43.12-34.81c-8-7.81-16.67-16.58-23.66-26.33,9,16,20.89,29.35,34.3,42,9.13,8.6,18.73,17,29.25,23.75,9.18,5.92,19,10.28,28.51,15.64A195,195,0,0,0,210.84,222c10.51,1.4,20.79-.66,31.24.08,4.25.31,6.54,3.86,9.82,5.47a10.47,10.47,0,0,1,2.15.41A43,43,0,0,1,249.31,219.66Z"/><path d="M63.36,111.85A421.25,421.25,0,0,1,164.44,148c15.83,8.1,31.19,17.15,44.74,28.73a159.12,159.12,0,0,1,17.09,17.45c4.72,5.49,7.85,12.61,12.82,17.78.29.31,0,.8-.38.58-4-2.12-6.44-6.86-9.43-10.24-2.07-2.35-4.26-4.63-6.48-6.87a.76.76,0,0,1-.41.35c-20.93,8-43.18,2.05-63-6.73-19.39-8.6-40.21-22.66-54.37-38.57-.36-.4.08-1,.5-.57,13.94,13.88,33.1,24.32,50.8,32.41,20.48,9.36,42.83,14.86,65.08,11.71-3.64-3.59-7.41-7.06-11.27-10.33-13.26-11.22-28.53-19.48-43.84-27.51-32.52-17-67.41-33.68-103-43.21C62.79,112.82,62.73,111.72,63.36,111.85Z"/><path class="cls-16" d="M501.54,318.31c.58,19.56-10.1,35.47-23.88,35.54s-25.42-15.73-26-35.29,10.09-35.47,23.86-35.55S500.93,298.75,501.54,318.31Z"/><path class="cls-17" d="M497.68,318.34c.5,16.71-8.52,30.31-20.15,30.36s-21.49-13.44-22-30.15,8.51-30.29,20.16-30.35S497.17,301.64,497.68,318.34Z"/><path class="cls-18" d="M486.45,323.18c1.25,11.21-4.05,20.76-11.84,21.3s-15.16-8.11-16.41-19.32,4-20.76,11.84-21.31S485.19,312,486.45,323.18Z"/><path class="cls-13" d="M484.55,306.26c2.21,4.59,1.44,9.26-1.73,10.41s-7.54-1.61-9.76-6.21-1.42-9.25,1.75-10.42S482.34,301.67,484.55,306.26Z"/><path class="cls-13" d="M491,328.39c.35,3.19-1.16,5.92-3.39,6.08s-4.33-2.32-4.68-5.52,1.16-5.94,3.37-6.09S490.6,325.18,491,328.39Z"/><path class="cls-16" d="M335.14,309.83c-2.31,18.7-15,32.66-28.27,31.19S284.66,323.2,287,304.5s15-32.65,28.26-31.18S337.44,291.14,335.14,309.83Z"/><path class="cls-17" d="M331.42,309.44c-2,16-12.68,27.9-23.93,26.66s-18.75-15.19-16.78-31.16S303.4,277,314.64,278.28,333.38,293.47,331.42,309.44Z"/><path class="cls-18" d="M320.05,315c-.44,10.82-7,19.31-14.57,19s-13.42-9.41-13-20.24,6.95-19.31,14.57-19S320.49,304.18,320.05,315Z"/><path class="cls-13" d="M320.71,298.68c1.46,4.61,0,9-3.2,9.72s-7-2.38-8.5-7,0-9,3.22-9.73S319.26,294.05,320.71,298.68Z"/><path class="cls-13" d="M323.65,320.46c-.14,3.09-2,5.52-4.17,5.42s-3.83-2.7-3.71-5.78,2-5.52,4.16-5.43S323.76,317.37,323.65,320.46Z"/><path class="cls-19" d="M763.9,123.6c-52.17,5.39-98.06,20.3-142.19,48.9-.52.34,0,1.07.55.78a373.77,373.77,0,0,1,70.33-30c23.61-7.33,48.31-9.61,71.81-17.35A1.2,1.2,0,0,0,763.9,123.6Z"/><path class="cls-19" d="M208.87,163.24c-18.93-20.68-37.4-36-63.26-47.17C116.08,103.34,86.78,98.79,54.8,96.74a.57.57,0,0,0-.2,1.12c12.76,3.57,26.05,4.7,39.06,7.09,15.58,2.86,30.3,8.44,45,14.23,26.67,10.52,47.94,26,69,45.2C208.32,165,209.53,164,208.87,163.24Z"/><path class="cls-20" d="M515.46,268c-5-13.71-12.21-27.63-24.8-35.69a20.73,20.73,0,0,0-15.13-3.23c-9.09,2.6-17.33,10.79-22.36,21.23a105,105,0,0,0-9.68,43.7c-.05,26.18,14.77,70.36,49.86,59.83a41.15,41.15,0,0,0,11.33-5.29,44.33,44.33,0,0,1,5.73-4.77C528.16,325.49,523.86,291.18,515.46,268Zm-15.6,57.21c-4.16,10.92-9.82,20.8-22.5,21.58-10.15.63-19.25-10.34-22.52-18.74-9.67-24.9-9.9-61.6,6.58-83.75a3.87,3.87,0,0,1,1.5-1.24c3.33-6.46,8.59-9.89,16.69-5.48,12,6.54,15.09,20.64,18.54,32.82C503,287.44,506.39,308,499.86,325.18Z"/><path class="cls-20" d="M354.81,275.82c-.48-12.78-2.83-26.35-11.2-36.46a18.22,18.22,0,0,0-11.79-6.75c-8.29-.25-17.36,4.39-24.36,11.78a92,92,0,0,0-19.77,33.94c-7.05,21.88-6.46,62.77,25.68,63.35a36.39,36.39,0,0,0,10.88-1.4,39.79,39.79,0,0,1,6.07-2.46C350.05,327.31,355.62,297.48,354.81,275.82Zm-20.07,25.57c-4.75,11.32-10.12,23-21.49,29-6.69,3.51-15.73,1.63-19.56-5.19-14.59-26,2.62-65.22,21-84.74a3.32,3.32,0,0,1,4.13-.77,13.13,13.13,0,0,1,8-3.23c8.43-.19,12.93,9.59,14.3,16.7C344.2,269.3,341.06,286.31,334.74,301.39Z"/><path class="cls-21" d="M392.89,386.84c-13-3.38-26.31,1.52-39.19,3.1-.6.07-.7,1-.05,1.09,13,.91,25.52-2.82,38.31,1.07C395.21,393.09,396.25,387.71,392.89,386.84Z"/><path class="cls-21" d="M405.43,388.77a10.2,10.2,0,0,0-1.66-.65,4.18,4.18,0,0,1-1.69-.47,2.36,2.36,0,0,0-3,3.64,5.73,5.73,0,0,0,6.21,1C406.73,391.68,407,389.41,405.43,388.77Z"/><path class="cls-19" d="M275.69,274.41c0-.39-.61-.4-.66,0C272,297,259.47,317.46,252.16,338.79c-6.55,19.1-9.35,45.41-.55,64.22a.89.89,0,0,0,1.68-.61c-6.67-24.25-2.78-48.07,6.14-71.15C266.69,312.47,274.76,294.81,275.69,274.41Z"/><path class="cls-19" d="M552.64,336.31c-7.93-1.37-15.42,2.6-22.37,6a112.07,112.07,0,0,0-23.45,15.39,65.6,65.6,0,0,0-14.89,18.06c-5.13,9.16-4.89,19.08-6.27,29.17a.44.44,0,0,0,.82.26c3.14-7.72,4.24-16.08,7.75-23.67,3.62-7.81,9-14.17,15.35-19.89a114.88,114.88,0,0,1,43.18-23.87A.75.75,0,0,0,552.64,336.31Z"/><path class="cls-19" d="M377.67,439.22C372,463.43,332.43,456.6,319.81,443c-.21-.23-.56.13-.4.38,7.52,11.19,19.77,16.18,33,16.24,11.37.05,27.17-7.12,26.77-20.29C379.18,438.37,377.86,438.39,377.67,439.22Z"/><path class="cls-19" d="M458.64,420.14c-7.38,25.52-47.49,34.09-58.45,6.86-.17-.41-.89-.3-.79.17,3,14.17,13.78,21.74,28.1,20.72s31.84-12.07,32.58-27.5A.73.73,0,0,0,458.64,420.14Z"/><path class="cls-22" d="M358.58,227.09c4.58,21.38,24.94,79.15-10.95,147.11,0,0-10.43,14.76,1,10.18s34.36-11.46,66.43-2.29c0,0-25.2-67.19,22.14-159.58,0,0-16-7.63-39.7-7.63S358.58,227.09,358.58,227.09Z"/><path class="cls-23" d="M289.7,343.73c10.69,15.7,10.2,34.66-1.1,42.36s-29.11,1.19-39.8-14.51-10.21-34.66,1.09-42.36S279,328,289.7,343.73Z"/><path class="cls-23" d="M508.17,358.44c14.18-12.64,32.1-15.68,40-6.8s2.86,26.35-11.31,39-32.1,15.68-40,6.8S494,371.09,508.17,358.44Z"/></g></g></svg>