<svg xmlns="http://www.w3.org/2000/svg" viewBox="0 0 926.03 1308.67"><defs><style>.cls-1{isolation:isolate;}.cls-10,.cls-2,.cls-21{fill:#f9b522;}.cls-3{fill:#6d3303;}.cls-10,.cls-12,.cls-15,.cls-20,.cls-4{opacity:0.5;}.cls-11,.cls-13,.cls-15,.cls-16,.cls-19,.cls-20,.cls-21,.cls-24,.cls-25,.cls-4,.cls-6,.cls-9{mix-blend-mode:multiply;}.cls-11,.cls-13,.cls-15,.cls-5,.cls-6{fill:#cc8c0d;}.cls-6{opacity:0.7;}.cls-7{fill:#d1bdac;}.cls-8{fill:#ffefdf;}.cls-10,.cls-26{mix-blend-mode:screen;}.cls-11{opacity:0.6;}.cls-14{fill:#c18306;}.cls-16{fill:#cc8b09;}.cls-17,.cls-26{fill:#fff;}.cls-18,.cls-20{fill:#c65406;}.cls-19{fill:#7f5203;}.cls-22,.cls-25{fill:#573220;}.cls-23{fill:#e2c5aa;}.cls-24{fill:#a5733d;}</style></defs><g class="cls-1"><g id="Layer_1" data-name="Layer 1"><path class="cls-2" d="M631,414.32s45,29.37,90.54,22.8,81.58-31.44,106.15-65.49,41.94-84.73,11.11-170.27c-24.79-51.09-72.25-136-39.64-180.55C800.39,25,804,31.5,804,31.5S807.5,9,815.86,7.17,822.35,16,822.35,16,830.09,2.42,834.26,1.8,838.4,9,838.4,9,846.12-.59,850.26,0s1.23,7.72,1.23,7.72,19,0,22,7.11-7.1,11.88-7.1,11.88S877,38,877.58,42.2s-5.31,3-5.31,3,4.16,4.15,4.75,5.95-5.37,2.37-5.37,2.37,5.93,2.95,6.55,4.76-9.49,5.92-9.49,5.92,19.53,3.92,21.14,8.73-7.23,6.42-7.23,6.42,35.32,66.63,41.76,155S919.55,370,871.37,419s-98,71.46-139.71,73.89c-11.22.8-13.62,4-13.62,4l-.82-9.63-9.66,6.45-3.22-11.26-10.4,15.25Z"/><path class="cls-3" d="M830.58,393.66s-10.92,18.8,5.47,24.27,15.77-10.91,12.11-20S833.65,387.61,830.58,393.66Z"/><path class="cls-3" d="M771.79,449.45s6.67,16.41-2.45,19.41-21.22-1.8-14.52-12.14S767.52,442.2,771.79,449.45Z"/><path class="cls-3" d="M720.24,439.77s5.44,21.83-3.63,20.63-17-18.8-7.88-20.63S720.24,439.77,720.24,439.77Z"/><path class="cls-3" d="M772.1,421.86s8.76,13,18.45,10.62,4.3-24.86,4.3-24.86S776.93,419.43,772.1,421.86Z"/><ellipse class="cls-3" cx="796.05" cy="457.76" rx="3.55" ry="5.36"/><path class="cls-3" d="M749.32,479.35a5,5,0,1,1-5-4.75A4.84,4.84,0,0,1,749.32,479.35Z"/><path class="cls-3" d="M848.29,351.06s6.75,6.73,2,11.1-11.86,3.15-11.43-1.6S845.53,347.49,848.29,351.06Z"/><path class="cls-3" d="M883.16,371.26s7.51,5.55,4,11.87-14.27,3.95-12.68-3.19S878,367.67,883.16,371.26Z"/><path class="cls-3" d="M919.58,317.8S921.16,340,912,341.93s-14.24-15.79-14.65-21S919.17,312.23,919.58,317.8Z"/><path class="cls-3" d="M879.6,284.52s0,19.4-5.57,23-14.62-4.32-13.83-15.42S876.43,270.29,879.6,284.52Z"/><path class="cls-3" d="M900.18,278.17s-.41,11.5,6.34,13.89,7.51-11.1,7.9-15.86S905.29,263.14,900.18,278.17Z"/><path class="cls-3" d="M806,94.15c6.11,12.19,3.76,10.78,9.84.49s21,0,25.25-7.5,15-13.08,26.66-8.89a51.53,51.53,0,0,0,15.57,2.51c-.49-.93-.74-1.44-.74-1.44s8.84-1.58,7.23-6.42-21.14-8.73-21.14-8.73,10.1-4.15,9.49-5.92-6.55-4.76-6.55-4.76,5.93-.62,5.37-2.37-4.75-5.95-4.75-5.95,5.93,1.17,5.31-3-11.24-15.46-11.24-15.46,10.09-4.72,7.1-11.88-22-7.11-22-7.11S854.43.64,850.26,0,838.4,9,838.4,9s0-7.73-4.14-7.15S822.35,16,822.35,16s1.81-10.68-6.49-8.87S804,31.5,804,31.5s-3.56-6.53-4.76-10.69c-17,23.23-12.22,57.44-.28,92.12C800.19,100.53,802.51,87,806,94.15Z"/><path class="cls-3" d="M840.67,174.62c9.85,1.87,7.93-4.68,18.26-12.64s22.44-11.21,34.6-6.06a174.83,174.83,0,0,0,19.12,6.45c-4-16-8.56-30.27-12.83-42.27-10.86-4.8-22.59-6.87-27.81-5.82-7,1.37-8.43,2.8-24.79,3.71s-8,18.73-18.25,17.33c-6.47-.9-12.35,6.9-15.85,12.83,5.88,13,12.07,25.61,17.79,37.16C832.55,179.5,835.51,173.64,840.67,174.62Z"/><path class="cls-3" d="M919.35,193.85c-7.47-2.75-17.87-2.9-27.68-3.78-15.44-1.41-14.55,11.7-24.82,9.8s-4.68,15-12.14,10.77c-4-2.21-8.05,1.34-11.07,5.15a264.83,264.83,0,0,1,10,44.16c4.09-7.9,12.45-20.17,22.62-13.27,14.52,9.79,8.87-12.64,29.9-3.76,8.9,3.76,15,5.32,19.15,5.88-.23-4.71-.56-9.53-.9-14.51C923.34,220.22,921.57,206.69,919.35,193.85Z"/><g class="cls-4"><path class="cls-5" d="M807.65,414c77.22-56.06,84.66-156.88,62.29-206.67S855,124,816.39,49.28c-8.89-20.37-6.62-33.65.87-42.31a5.5,5.5,0,0,0-1.4.2C807.5,9,804,31.5,804,31.5s-3.56-6.53-4.76-10.69C766.58,65.35,814,150.27,838.83,201.36c30.83,85.54,13.42,136.21-11.11,170.27s-60.61,58.9-106.15,65.49a104,104,0,0,1-17.72.89C731.74,446.52,763.1,444.31,807.65,414Z"/><path class="cls-5" d="M914.8,171.38c.2,2,.56,4.44,1.15,7.39,13.72,64.72,10,154.33-49.79,225.3s-163,83.39-180.45,49.77a134,134,0,0,0-14.52-21.57A170.25,170.25,0,0,1,631,414.32l62.91,83.35,10.4-15.25,3.22,11.26,9.66-6.45.82,9.63s2.4-3.18,13.62-4C773.4,490.45,823.19,468,871.37,419s59.43-96.34,53-184.7A415.66,415.66,0,0,0,914.8,171.38Z"/></g><path class="cls-6" d="M631,414.32s45,29.37,90.54,22.8,81.58-31.44,106.15-65.49,41.94-84.73,11.11-170.27c-24.79-51.09-72.25-136-39.64-180.55C800.39,25,804,31.5,804,31.5S807.5,9,815.86,7.17,822.35,16,822.35,16,830.09,2.42,834.26,1.8,838.4,9,838.4,9,846.12-.59,850.26,0s1.23,7.72,1.23,7.72,19,0,22,7.11-7.1,11.88-7.1,11.88S877,38,877.58,42.2s-5.31,3-5.31,3,4.16,4.15,4.75,5.95-5.37,2.37-5.37,2.37,5.93,2.95,6.55,4.76-9.49,5.92-9.49,5.92,19.53,3.92,21.14,8.73-7.23,6.42-7.23,6.42,35.32,66.63,41.76,155S919.55,370,871.37,419s-98,71.46-139.71,73.89c-11.22.8-13.62,4-13.62,4l-.82-9.63-9.66,6.45-3.22-11.26-10.4,15.25Z"/><path class="cls-7" d="M641.69,1207.72s-9.43,18.92-3.58,28.93c2.53,3.75,12.73-20,12.73-20Z"/><path class="cls-7" d="M674.56,1246.21s-2.3,14.16,3.3,16.07,12.32-22.71,12.32-22.71Z"/><path class="cls-7" d="M712.64,1245s2.1,15.22,6.27,15.42,10.81-11.21,8.94-20.16Z"/><path class="cls-8" d="M641.82,1219.56s-2.56,7.15-2.94,11.44-2.07-2.31-.67-8.73S642.36,1217.24,641.82,1219.56Z"/><path class="cls-8" d="M677.24,1251.25a45,45,0,0,0,.59,8.51c.69,3-2-1.14-2.45-5.84S677.14,1249.52,677.24,1251.25Z"/><path class="cls-8" d="M716.81,1250.16a43.8,43.8,0,0,0,2.2,8.21c1.3,2.81-2.12-.71-3.53-5.26S716.33,1248.46,716.81,1250.16Z"/><path class="cls-2" d="M369.81,431.54s32.51,10.87,81.78-25.62,74.9-67,144.86-22.62c50.22,34.44,59.12,42.35,102.5,113.28s80.64,114,90.48,136.79-3.66,70.09-18,109.71C758.81,781.89,749.32,844.43,747,871.39c-.8,19.77,6.34,21.34,22.95,12.67s23-16.69,33.28-5.58,27.68,26.95,23.74,43.58-15.82,85.54-40.41,141c-20.57,53.85-29.29,78.41-26.89,92.66s11.07,49.1-7.92,69.66-48.33,35.67-53.06,8.72c-11.09,14.25-31.67,30.9-47.52-11.86-13.49-5.56-24.54-33.29-11.12-57s35.63-49.91,47.55-66.53,26.14-61,26.14-61-15.05-4-38.06-17.41-51.06-183.34-51.06-273.63-42.77-103.35-101-154.42S385.91,494.24,369.81,431.54Z"/><g class="cls-4"><path class="cls-5" d="M769.9,884.06c-16.61,8.67-23.75,7.1-22.95-12.67.92-10.68,3-26.8,5.88-44.89-10.15,46.5-27.66,90.19-15.37,97.21,12.73,7.26,9.08-13.59,25.41-20.85s36.32-19.09,49,16.32S762,1108,748.35,1135.29s-59,26.3-71.75,8.14,18.18-17.22,29.07-49.94,30-52.65,51.76-91.71,25.4-72.61-5.45-20.87-52.58-5-82.66-115.9,87.11-182.13,4.76-218.56-80.8-90.27-114-109.28c-82.4-49.1-120.6-81.52-87.59-135.89,14.85-24.47,38.77-35.34,60.57-39.95-29,1.27-50.57,21.8-81.44,44.59-49.27,36.49-81.78,25.62-81.78,25.62,16.1,62.7,95.58,109.6,153.79,160.67s101,64.17,101,154.42,28.11,260.15,51.06,273.63,38.06,17.41,38.06,17.41-14.29,44.36-26.14,61-34,42.76-47.55,66.53-2.37,51.44,11.12,57c15.85,42.76,36.43,26.11,47.52,11.86,4.73,27,34,11.9,53.06-8.72s10.3-55.44,7.92-69.66,6.32-38.81,26.89-92.66c24.59-55.42,36.45-124.36,40.41-141s-13.44-32.47-23.74-43.58S786.51,875.34,769.9,884.06Z"/></g><path class="cls-3" d="M569.18,387s-10.25,14.72.79,20.88,19.71.8,18.84-11.48S579.4,373.84,569.18,387Z"/><path class="cls-3" d="M548.27,380.83s2.86,11.1-.41,11.5S543,387,543,382.07,547,376.35,548.27,380.83Z"/><path class="cls-3" d="M528.18,374.3A13.74,13.74,0,0,1,533.11,387c-1.25,8.17-6.18,16-10.66,9.4s-3.32-13.52-2.45-18.86S525.72,371.43,528.18,374.3Z"/><path class="cls-3" d="M497.43,419.77s12.29,12.71,10.65,17.22-7.39,16-14.33,11.9-11.49-9.44-9.05-20.5S490.85,413.63,497.43,419.77Z"/><path class="cls-3" d="M516.68,482.1s2,20-3.28,21.72-10.25-4.54-8.19-17.64S514.24,471.85,516.68,482.1Z"/><path class="cls-3" d="M465.88,439.45s.8,16.38-3.28,16.84-14.36-6.59-9.84-12.72S464.64,428.8,465.88,439.45Z"/><path class="cls-3" d="M533.11,471.85s2,8.19-1.25,9.4-6.14-4.07-4.93-9.4S530.63,467.33,533.11,471.85Z"/><path class="cls-3" d="M465.88,473.05s2.46,6.15-1.65,6.58-7.39-5.76-5-10.23S465.47,469,465.88,473.05Z"/><path class="cls-3" d="M469.15,494.82s4.51,4.88,0,9.8-11.91,2.9-15.19-1.21,1.27-11.06,4.92-11.91S466.68,491.5,469.15,494.82Z"/><path class="cls-3" d="M581.47,456.68s2.89,10.65-2.07,16.77S572,475.93,567.13,471s-7-7.35-1.66-13.91S577,446,581.47,456.68Z"/><path class="cls-3" d="M538,509.54s11.07,2.86,11.86,17.23-12.71,12.71-17.64,2.06S527.77,505.46,538,509.54Z"/><path class="cls-3" d="M564.24,420.59s3.28,5.75-.81,5.75S559.34,416.5,564.24,420.59Z"/><path class="cls-3" d="M517.93,414s3.27,7.37.79,7.37S510.53,409.1,517.93,414Z"/><path class="cls-3" d="M436.34,424.27s4.92,10.67.4,12.72-11-2.85-8.58-7.79S434.73,421.41,436.34,424.27Z"/><path class="cls-3" d="M493.3,387s2.07,4.47-.8,5.32S486.77,383.7,493.3,387Z"/><path class="cls-3" d="M570,507.5s2,7.79-1.61,7.79S562.17,501.35,570,507.5Z"/><path class="cls-3" d="M597.86,516.93s3.68,6.55-1.26,6.55S593,513.25,597.86,516.93Z"/><path class="cls-3" d="M599.08,544.4s5.75,14.73,1.25,23-19.7,8.59-18-9.85S592.54,531.28,599.08,544.4Z"/><path class="cls-3" d="M593,596s1.63,12.71-3.27,12.71-7.37-8.18-5.73-13.1S590.06,586.61,593,596Z"/><path class="cls-3" d="M644.58,569.42s10.66,11.45,9.84,18.83-30.34,8.61-26.63-7S638.44,564.09,644.58,569.42Z"/><path class="cls-3" d="M655.24,514.86s-6.55,21.75,8.18,22.16,16-13.93,9-24.17S658.94,502.14,655.24,514.86Z"/><path class="cls-3" d="M631.88,464.06s10.63,4.93,9,13.53-13.13,17.23-18.91,11.9-6.11-20.09-2.84-24.21S627,460.35,631.88,464.06Z"/><path class="cls-3" d="M616.69,411.16s.87,14-5.31,15.18-11-2.46-9.41-14.36S613,397.24,616.69,411.16Z"/><path class="cls-3" d="M703.21,578.42s7.77,14.76.41,22.15S688,595.24,690.48,585.4,700.32,575.54,703.21,578.42Z"/><path class="cls-3" d="M640.51,626.79s.41,19.25-6.18,19.7-10.66-9.85-7.77-18S638,616.14,640.51,626.79Z"/><path class="cls-3" d="M690.48,640.72s4.55,13.55-2.83,16.41S675.3,648.9,679,642.77,687.24,634.18,690.48,640.72Z"/><path class="cls-3" d="M650.74,433.32s5.34,17.22-4.91,18.85-16-7.4-11.88-15.58S645,418.15,650.74,433.32Z"/><path class="cls-3" d="M664.26,677.22s2.48,6.13-1.64,6.95-14.77-6.54-11.47-9.82S660.58,672.31,664.26,677.22Z"/><path class="cls-3" d="M721.26,686.63s4.5,5.77.38,17.62-20.88,9.44-17.63-8.19S716.71,678,721.26,686.63Z"/><path class="cls-3" d="M665.49,718.63s5.31,6.12.81,15.16-9.43,2.47-9.43-5.76S661.81,714.51,665.49,718.63Z"/><path class="cls-3" d="M709.76,758.36s13.13,5.33,12.29,18-21.73,25-25.82,9.84S698.69,754.68,709.76,758.36Z"/><path class="cls-3" d="M680.64,755.89a16,16,0,0,1,0,14.79c-4.06,7.78-17.61,8.59-14.77-2.47S677.37,752.24,680.64,755.89Z"/><path class="cls-3" d="M657.69,778.87s1.25,9.84-2.45,11-6.55-5.72-4.94-9.4S654.83,774.76,657.69,778.87Z"/><path class="cls-3" d="M673.72,824.79s3.65,6.12,0,8.58-8.64,1.66-7.8-3.66S671.65,821.92,673.72,824.79Z"/><path class="cls-3" d="M671.26,846.87a33.3,33.3,0,0,1,4,18.5c-.79,10.67-9.81,11.86-14.72-1.24S659.74,835.44,671.26,846.87Z"/><path class="cls-3" d="M741.58,621.3s.59,26.16,7.13,28.53,17.87-6,11.3-23.19S743.39,607.07,741.58,621.3Z"/><path class="cls-3" d="M770.69,680.1s-7.13,14.85-1.2,19.6,13.09-7.12,13.09-18.39S776,670,770.69,680.1Z"/><path class="cls-3" d="M756.43,733s1.79,13-5.34,13S749.89,724.62,756.43,733Z"/><path class="cls-3" d="M744.57,810.77s3.55,17.84-6.54,18.42-12.45-13.09-7.14-19S741.58,805.4,744.57,810.77Z"/><path class="cls-3" d="M699.4,920.09s10.1,11.23,7.14,21.37-22.57,5.93-22-8.92S691.71,913.54,699.4,920.09Z"/><path class="cls-3" d="M746,870.1s.46,18.14-5,20.6-7.82-8.34-5.83-19.15S743.47,859.27,746,870.1Z"/><path class="cls-3" d="M740.53,938.26s3.48,18.16-3.45,18.16-7.34-12.25-6.36-19.64S738.1,928.46,740.53,938.26Z"/><path class="cls-3" d="M715.51,987.34s4,20.58-4.89,21.6-8.35-11.79-7.87-20.62S711.11,974.1,715.51,987.34Z"/><path class="cls-3" d="M667.76,560s.72,5.79-2.38,5.48-5.11-4.13-2.73-6.53S667.07,556.54,667.76,560Z"/><path class="cls-3" d="M718.09,546.3s2.76,8.87-1,9.93-6.87-4.14-6.87-9.6S715,538.4,718.09,546.3Z"/><path class="cls-3" d="M745.82,573.33s3.07,8.87.36,10.6-6.54-3.79-6.88-8.9S742.06,567.48,745.82,573.33Z"/><path class="cls-3" d="M685.27,621.91s1,3.42-1.41,3.74S680.77,617.1,685.27,621.91Z"/><path class="cls-3" d="M724.5,838.29s1.74,9-2.93,9.2-7.31-6.1-6.09-10.09S722.05,832.05,724.5,838.29Z"/><path class="cls-3" d="M723.76,903.86s2.89,8.08-.43,10.44-8.46-3.71-7-7.62S720.52,897.51,723.76,903.86Z"/><path class="cls-3" d="M707.2,868.08s2.17,4.79-.66,5S703.09,863.72,707.2,868.08Z"/><path class="cls-3" d="M792.11,927.18s-11.32,26.75,0,32.68,14.21-20.76,13.62-30.3S798.63,918.86,792.11,927.18Z"/><path class="cls-3" d="M765.35,992.54s-13.65,23.16-4.78,27.33,17.84-9.54,17.84-23.79S768.32,981.84,765.35,992.54Z"/><path class="cls-3" d="M799.8,987.79s-4.16,10.68.59,17.22,9.48-8.31,10.1-16S801,980,799.8,987.79Z"/><path class="cls-3" d="M757,1044.19s-1.77,10.13,5.36,11.91,8.31-4.78,7.72-13.08S757.63,1033.5,757,1044.19Z"/><path class="cls-3" d="M732.1,1052.49s-2.38,20.83-8.9,20.83-7.72-11.91-4.19-20.2S730.89,1038.87,732.1,1052.49Z"/><path class="cls-3" d="M768.32,920.63c0,3.33-1.33,6-3,6s-3-2.66-3-6,1.33-5.92,3-5.92S768.32,917.38,768.32,920.63Z"/><path class="cls-3" d="M802.18,902c0,3.42-1.61,6.22-3.55,6.22s-3.58-2.8-3.58-6.22,1.61-6.25,3.58-6.25S802.18,898.49,802.18,902Z"/><path class="cls-3" d="M716.63,646.55c0,2.11-.92,3.85-2,3.85s-2.1-1.74-2.1-3.85.92-3.87,2.1-3.87S716.63,644.41,716.63,646.55Z"/><path class="cls-3" d="M754.64,782c0,3.79-.92,6.81-2,6.81s-2.1-3-2.1-6.81.92-6.84,2.1-6.84S754.64,778.21,754.64,782Z"/><path class="cls-3" d="M739.36,1031s.56,9.69-2.87,9.83-6-2.71-3.93-7.9S738.43,1027.47,739.36,1031Z"/><path class="cls-2" d="M669.42,1152.23A197.58,197.58,0,0,1,655.75,1181c-9.36,16.52-19.43,13-15.8-2.87S673,1132.1,669.42,1152.23Z"/><path class="cls-2" d="M671.57,1166.64s-13.67,24.45-10.05,41,27.33,10.8,30.24-9.36,1.41-32.38-4.34-38.14S675.17,1156.55,671.57,1166.64Z"/><path class="cls-2" d="M714.74,1168.05s-12.22,27.36-8.64,41.76,33.82,7.9,36-12.27-1.43-35.22-8.61-35.22S719.78,1160.87,714.74,1168.05Z"/><g class="cls-9"><path class="cls-5" d="M753.46,1185.51c2.28,35.12-22.82,51.82-41.17,43s-3.91-60.77-3.91-60.77-2.23,2.26-5.58,19c-3.42,17.15-12.83,50.18-32.3,42.34s-15.06-28.39-2.25-63.5c-8.9,16.69-16.16,44.58-28.37,34a25,25,0,0,1-5.86-8.32c.87,14.84,8.49,27.49,17.1,31,15.85,42.76,36.43,26.11,47.52,11.86,4.73,27,34,11.9,53.06-8.72s10.3-55.44,7.92-69.66,6.32-38.81,26.89-92.66c5.42-12.22,10.23-25,14.47-37.83-9.82,24.41-33.25,77.87-40.82,99C751.27,1149.34,751.27,1150.42,753.46,1185.51Z"/></g><g class="cls-9"><path class="cls-5" d="M662.62,684.17c9.15-9.76-10.71-17.91-48.74-46.45S564,590.23,551.34,579.15s11.09-12.68,7.92-13.49S537.87,557,541,555.38s23-6.33,9.5-13.47c-26.09-15-51.5-23.78-104.56-76-18.55-18.32-19.76-34.34-15.33-46.57-37.33,20.06-60.84,12.23-60.84,12.23,16.1,62.7,95.58,109.6,153.79,160.67,55.34,48.55,96.7,62.77,100.66,141.58L644,735.93S653.52,694,662.62,684.17Z"/></g><path class="cls-10" d="M516.47,408.05s72.46-17.79,141.4,79.61c68.86,99.79,67.71,76,36.78,19S643.56,420,598.47,390.26s-76.07-19-96.24-2.37S503.4,417.59,516.47,408.05Z"/><path class="cls-11" d="M369.81,431.54s32.51,10.87,81.78-25.62,74.9-67,144.86-22.62c50.22,34.44,59.12,42.35,102.5,113.28s80.64,114,90.48,136.79-3.66,70.09-18,109.71C758.81,781.89,749.32,844.43,747,871.39c-.8,19.77,6.34,21.34,22.95,12.67s23-16.69,33.28-5.58,27.68,26.95,23.74,43.58-15.82,85.54-40.41,141c-20.57,53.85-29.29,78.41-26.89,92.66s11.07,49.1-7.92,69.66-48.33,35.67-53.06,8.72c-11.09,14.25-31.67,30.9-47.52-11.86-13.49-5.56-24.54-33.29-11.12-57s35.63-49.91,47.55-66.53,26.14-61,26.14-61-15.05-4-38.06-17.41-51.06-183.34-51.06-273.63-42.77-103.35-101-154.42S385.91,494.24,369.81,431.54Z"/><path class="cls-2" d="M382.84,1000.25s-12.47,32.08-2.37,56.41,20.2,31.51,23.76,54.06,118.58,80.58,118.58,80.58,7.92-33.26-5.52-50.68-22.2-42.77-27.73-57-15.86-48.36-25.33-61.77S450,987,450,987,419.46,1007.19,382.84,1000.25Z"/><g class="cls-12"><path class="cls-13" d="M517.29,1140.62c-13.5-17.43-22.2-42.77-27.73-57s-15.86-48.36-25.33-61.77S450,987,450,987s-30.49,20.23-67.11,13.29c0,0-12.47,32.08-2.37,56.41,0,0-1.18-33.24,25.33-35.15s35.35,9.43,22.71,17.66-24.62,20.2-29,31.57c-2,5.19-3.27,9-5.9,11.45,4.8,8.49,8.71,16.2,10.66,28.53,3.55,22.54,118.58,80.58,118.58,80.58S530.73,1158,517.29,1140.62Z"/></g><path class="cls-3" d="M382.55,1033.78s-2.81,12.91-.18,22,5.43,6.46,9.87.21,7.65-10.69,5.06-15.94-4.65-11.3-9.1-10.49S382.75,1031.75,382.55,1033.78Z"/><path class="cls-3" d="M413,1022.24s-1.42,5.89,2.82,6.08,4.44-4.88,3.23-7.29S414,1016.78,413,1022.24Z"/><path class="cls-3" d="M398.1,1017.4s2.41,5.44-2.44,5.05S389,1019,390,1017.4,396.08,1013.76,398.1,1017.4Z"/><path class="cls-3" d="M453,1007.3s2.42,6.26-2.41,6.26-4.64-4.62-3-5.84S451.59,1004.7,453,1007.3Z"/><path class="cls-3" d="M415.65,1062.42s-5.46,7.26-7.87,12.1c-1.61,4-5.06-6-2.23-13.11S415,1055.16,415.65,1062.42Z"/><path class="cls-13" d="M382.84,1000.25s-12.47,32.08-2.37,56.41,20.2,31.51,23.76,54.06,118.58,80.58,118.58,80.58,7.92-33.26-5.52-50.68-22.2-42.77-27.73-57-15.86-48.36-25.33-61.77S450,987,450,987,419.46,1007.19,382.84,1000.25Z"/><path class="cls-7" d="M387.28,1281.87s17,27.23,23.11,26.8,10.76-27.2,10.76-27.2Z"/><path class="cls-7" d="M450.83,1280.23s10.33,20.21,14.84,19,9.5-26.41,9.5-26.41Z"/><path class="cls-7" d="M494.55,1273.18s3.29,14.87,8.25,15.28,9.88-16,9.88-16Z"/><path class="cls-8" d="M400.84,1291.87s4.71,8.9,8.6,13-4.17,0-9.2-7.11S399.05,1289.23,400.84,1291.87Z"/><path class="cls-8" d="M459.28,1286.6s3.29,6.82,6.08,10.08-3.16-.13-6.71-5.64S458,1284.53,459.28,1286.6Z"/><path class="cls-8" d="M499.88,1279.32a35.92,35.92,0,0,0,1.82,7c1.05,2.36-1.82-.64-2.94-4.45S499.49,1277.93,499.88,1279.32Z"/><path class="cls-7" d="M175.05,1095.36s14.71,25,22.06,25-2.94-28-2.94-28Z"/><path class="cls-7" d="M213.83,1083.09s13.24,13.26,18.59,13.26-4.4-24-4.4-24Z"/><path class="cls-7" d="M245.18,1061s7.86,10.78,13.24,9.8-1.47-22-1.47-22Z"/><path class="cls-2" d="M525.55,1187.14c16.23,18,13.44,43,2.81,73.15s-38.47,16.67-46.83,9.28c-26.39,29.63-50,6.46-50,6.46-3.24,16.21-32.42,20.85-48.6,4.64-26.86-28.71-27.36-33.33-25-60.64,3.22-32.89,25.45-48.67,29.19-66.7s11.55-49.11,18.07-71.34,28.69-36.09,54.19-52.32,96.31-65.3,95.36-71.78-25-30.11-25-30.11-9.71,11.58-11.09,10.65.43-6.94.43-6.94-15.73,18.51-18,17.6-1.86-7.86-1.86-7.86-48.17,53.69-56,61.61-13.92,6.93-44.49,6c-88.91-7.43-133.46-42.23-133.46-42.23l-2.77,8.91s-2.23-2.21-5-12.78c-1.65,1.63-17.78,13.34-17.78,13.34l3.91-12.79c-8.93-.55-33.94-8.91-33.94-8.91l1.13,11.69s-17.26-4.47-20.06-25.58a39.85,39.85,0,0,1-7.22,13.89s23.91,20,30.59,37.27c30.57-6.7,46.15,30.55,47.28,45s-11.12,34.47-22.27,30.59c-5.53,9.44-24.44,26.09-37.24,23.88-4.43,6.7-6.09,8.36-30.58,7.24s-21.14-48.89-19.64-56.62,1.94-11.18-4.91-12.64-34.95-10.2-40.58-7.22c-7.29,3.85-30.77,18.43-56.64,28.33S3.85,1028.06.2,967.7,51.91,831,50.67,812.52s-18.5-43.1-17.23-59.1,46.8-76.4,56.64-85,0-14.77-2.48-22.15S101.17,629,101.17,629s-7.38,1.21-7.38-2.5c1.21-4.91,9.84-8.59,9.84-8.59l-9.84-7.39,18.44-8.64c-1.22-16,8.62-33.24,8.62-33.24S388.16,458.7,415.43,483.84,536.08,542.7,537.48,547s-12.16,14.31-12.16,14.31,15.77,2.19,15.77,4.32,0,0-13.63,7.17c5,0,19.35,12.25,30.14,28s45.95,40.24,55.31,45.95,20.81,18,41.64,48.1c-30.88,81.86-12.22,153.67-.72,181S677.5,934,683.28,973.5s5.72,73.23-1.46,81.14c-36.65,33.74-153.46,44.5-165.07,44.95a31.92,31.92,0,0,0-19,7.41s-10.77,4.86-7,18.4,5.52,22.88,5.52,30.07,15.21,15.25,18.59,24.52C518.72,1178.75,525.55,1187.14,525.55,1187.14Z"/><path class="cls-8" d="M255.41,494.88s-6.28,11-15.24,28.17c8.79-3.14,17.8-6.29,26.75-9.37C260.13,502.12,255.41,494.88,255.41,494.88Z"/><path class="cls-8" d="M93.45,811.59a3,3,0,0,0,1-1.74Z"/><path class="cls-8" d="M189.29,959.62c-3.46-3.27-5.85-5.24-5.85-5.24A37,37,0,0,0,189.29,959.62Z"/><path class="cls-8" d="M449,859.48c-19.31-17.88-36.75-21.76-45.67-28.45s-4.47-20-4.47-20L390,818.77s-3.35-6.68,4.44-29c-4.44,5.56-16.7,15.56-16.7,15.56s0-8.91,8.91-29C366.54,734,308.55,695,315.25,653.71c9.13-35.71-28.47-106.27-48.33-140-8.95,3.08-18,6.23-26.75,9.37C216.49,568.24,174,656,178.07,697.2c2.22,17.82-33.44,34.58-51.32,65.81-8.91-11.13-24.53,0-36.8,11.17,17.84,3.31,23.44,3.31,23.44,3.31s-31.21,13.4-31.21,36.84c7.06,0,10-1.48,11.27-2.74l1-1.74a3,3,0,0,1-1,1.74L81,834.39s12.27,1.14,23.44-1.1L87.75,846.64s32.3,15.62,41.26,21.18c-9,10.06-7.82,20.1-7.82,20.1l12.27-4.48s-13.41,19,7.83,33.51,35.31,29.2,42.15,37.43a39.85,39.85,0,0,0,7.22-13.89c2.8,21.11,20.06,25.58,20.06,25.58l-1.13-11.69s25,8.36,33.94,8.91l-3.91,12.79s16.13-11.71,17.78-13.34c2.78,10.57,5,12.78,5,12.78l2.77-8.91s44.55,34.8,133.46,42.23c30.57.93,36.62,1.86,44.49-6s56-61.61,56-61.61-.48,6.93,1.86,7.86,18-17.6,18-17.6-1.86,6-.43,6.94,11.09-10.65,11.09-10.65C514.54,903.86,468.34,877.35,449,859.48Z"/><path class="cls-3" d="M141.29,723s-10.13,3.78-10.13,12.61,4.24,13.07,10.13,10.94S145.47,721.25,141.29,723Z"/><path class="cls-3" d="M113.49,729.24s.31,15-5.25,19.29c-4.92,3.5-9.67.4-8-8.43S104.32,725,108.43,725,113.16,727.7,113.49,729.24Z"/><path class="cls-3" d="M90.94,712.05s1,17.91-6.59,29.66-16.49,7-15.45-5.34,10.47-29.24,15-30.7S90.94,712.05,90.94,712.05Z"/><path class="cls-3" d="M112,683.24s1.67,14.61-6.79,16.26c-7.42,1.47-9.07-10.5-6.59-16.9S110.29,669.19,112,683.24Z"/><path class="cls-3" d="M134.39,694.12s-1.43,10.09,2.49,9.9,6.17-7.42,4.31-11.34S135.42,687.75,134.39,694.12Z"/><path class="cls-3" d="M165.29,697.85a15.68,15.68,0,0,0-6,11.12c-.6,7.42,3.72,12,10.73,6s5.77-13,4.93-15.66S170.45,693.94,165.29,697.85Z"/><path class="cls-3" d="M49.61,755.38s3.51,2,3.18,9.18-3.39,11.51-7,12-6.22-7-4.85-12.91S46.76,753.33,49.61,755.38Z"/><path class="cls-3" d="M69.1,784s1.77,6,.11,7.57-6.4-.22-6.29-4.86S67,779.91,69.1,784Z"/><path class="cls-3" d="M124.46,786.4s-1.38,11.9-11.87,14.68S101.9,792,106.46,786.4,124.84,775.56,124.46,786.4Z"/><path class="cls-3" d="M134.17,766.23s1.59,4.37-2.57,4.55-3.54-5.71-1.58-6.32S134,764.25,134.17,766.23Z"/><path class="cls-3" d="M119.24,628.57s.6,13.06-5.15,15.24-8.12-6.13-5.34-13.66S117.08,622,119.24,628.57Z"/><path class="cls-3" d="M127.56,653.74S129,664,124.22,664s-4.57-6.73-2.6-9.72S126.78,651,127.56,653.74Z"/><path class="cls-3" d="M139.07,658.09a22.68,22.68,0,0,0-.18,15c2.76,8.17,10.5,4.38,12.29-8.1S145,646,139.07,658.09Z"/><path class="cls-3" d="M64.81,856.78s11.86,4,10,13.34c-1.51,7.39-14.47,20-19.29,12.6S47.43,848.63,64.81,856.78Z"/><path class="cls-3" d="M78.9,910.83S81.13,922.7,77,924.92s-11.47-6.3-10-12.22S73.34,900.46,78.9,910.83Z"/><path class="cls-3" d="M38.53,897.88s1.48,12.59-4.46,13-8.49-5.88-8.13-13.32S36.66,884.93,38.53,897.88Z"/><path class="cls-3" d="M29.63,952.31s4.09,10.36.77,12.64S20,961.6,20,953.45,26.69,946.79,29.63,952.31Z"/><path class="cls-3" d="M11.5,922.7s3.32,3.35,1.82,5.93S6.67,930.12,7,926.05,9.26,920.12,11.5,922.7Z"/><path class="cls-3" d="M17.43,992.71s.75,5.58-2.61,5.93-5.92-4.45-3.69-6.7S17.78,991.2,17.43,992.71Z"/><path class="cls-3" d="M37.43,989s-.77,19.62,8.5,24.09,13.73-7.43,8.89-19.29S38.92,974.18,37.43,989Z"/><path class="cls-3" d="M82.22,1026s-3-8.16-9.61-10.74-9.65,0-8.88,6.66,2.94,15.54,9.25,12.24S83,1029.33,82.22,1026Z"/><path class="cls-3" d="M68.19,950.87s-2.63,20.74,6.66,22.58,15.5-11.11,8.84-19.65S69.62,942,68.19,950.87Z"/><path class="cls-3" d="M103.36,996.41s7.73,7.39,10.32,2.58S101.88,987.49,103.36,996.41Z"/><path class="cls-3" d="M108.51,914.56S104.8,928.27,110,932s11.48,1.1,10-12.58S111.86,907.16,108.51,914.56Z"/><path class="cls-3" d="M138.89,938.63s-2.6,16.31,4.1,19.6,11.08-6.64,9.57-18.51S143,927.18,138.89,938.63Z"/><path class="cls-3" d="M146.64,1002.71s-2.95,8.5,3,13.69,10.71-1.46,7.37-10.75S149.28,996.78,146.64,1002.71Z"/><path class="cls-3" d="M123,950.87s-1.48,6.64,4.08,7.79,4.08-4.5,1.87-7.79S123.32,947.15,123,950.87Z"/><path class="cls-3" d="M107,880.49s2.62,5.93,5.56,3S106.66,872,107,880.49Z"/><path class="cls-3" d="M167.21,906.21s2.4,13.88,10.34,17.42,9.07-7.14,4.32-16.22S164.09,895.5,167.21,906.21Z"/><path class="cls-3" d="M25.08,1037.28s11.11,0,13.08,6.34-4.35,6.7-8.72,4.72S19.55,1038.87,25.08,1037.28Z"/><path class="cls-3" d="M148.61,886.79s-.39,5.94,3.95,4.37S149.83,880.86,148.61,886.79Z"/><path class="cls-3" d="M99.12,922.06s0,6.34-3.54,4.72S97.16,918.08,99.12,922.06Z"/><path class="cls-3" d="M170.82,979.47s2,4.78-1.21,5.13S165.25,977.09,170.82,979.47Z"/><path class="cls-3" d="M223.27,709.39s-.57,5.28,3.47,6.57,4.35-4.2,2.35-7.47S223.27,706.49,223.27,709.39Z"/><path class="cls-3" d="M296.31,689.73s-3.12,12.55,1.8,16.2,9.12-4.9,7.47-14S297.76,682.43,296.31,689.73Z"/><path class="cls-3" d="M383.39,862s-3.48,12.3,4.21,17.79,15.58-10.13,11.87-18.25S385.82,850.56,383.39,862Z"/><path class="cls-3" d="M431.5,883.73s-2.16,6.56,2,8.56,7.27-1.31,5.48-5.94S432.62,880,431.5,883.73Z"/><path class="cls-3" d="M442.26,873.19s1.78,9,6.58,8.31,1.52-5.92-.83-9S442.08,870.33,442.26,873.19Z"/><path class="cls-3" d="M421.4,853s1.36,4.57,4.86,4.57S421.85,848.78,421.4,853Z"/><path class="cls-3" d="M462,788.18s5.94-.45,6.39,5-2.62,10.14-5.93,7.47S456.55,787.73,462,788.18Z"/><path class="cls-3" d="M438.33,752.15s11,17.16,11.42,26.79-9.89,11-17.13,7.91S415,785.12,415,767.52,426.7,735.5,438.33,752.15Z"/><path class="cls-3" d="M469.11,844.84s4.23,6.65,3.62,11.63,2,11.11-1,12.53-15.7-5.64-19.34-11.71,1.41-10.65,5.05-13.47S466.07,841,469.11,844.84Z"/><path class="cls-3" d="M488.07,824.46a11.09,11.09,0,0,1,3.43,9.48c-.81,5.84-10.1.38-11.29-5.25S483.63,820.42,488.07,824.46Z"/><path class="cls-3" d="M499.37,864.77a31.73,31.73,0,0,1,3,12.9c0,7.06-7.82,8.07-11.25,2s-1.81-11.1-.4-15.73S496.55,859.12,499.37,864.77Z"/><path class="cls-3" d="M356.19,726.93s6.61.53,10.47,8.82.86,17.73-6.9,16.36-8.58-11.05-9.39-14.91S351.72,726.09,356.19,726.93Z"/><path class="cls-3" d="M378.56,697.32s-4.67,13.28.58,16.58,12.18-5.53,11.6-13S383,685.12,378.56,697.32Z"/><path class="cls-3" d="M340.67,698.4s.51,6.65,5.25,6.09,2.51-5.8,0-7.74S339.53,694.53,340.67,698.4Z"/><path class="cls-3" d="M339,659.66s-3.08,9.7,6.33,12.47,5.28-10.23,1.42-15S339,655,339,659.66Z"/><path class="cls-3" d="M388,648.63s-2.51,13.84,7.74,17.42,11.34-14.39,5.83-21.58S388.53,641.15,388,648.63Z"/><path class="cls-3" d="M328.49,609.9s-1.1,8,2.79,8.25,4.38-6.62,1.93-10.48S328.21,607.38,328.49,609.9Z"/><path class="cls-3" d="M360.31,578.34s-4.12,9.68-1.4,15.49,13,5.52,12.48-9.16S363.35,568.08,360.31,578.34Z"/><path class="cls-3" d="M389.94,612.36c0,1.11-1.13,2.48.51,4.72s-4.13,2.5-.81,4.44,9.41-.86,9.7-8.61-5.29-6.66-5.29-4.16S389.64,607.67,389.94,612.36Z"/><path class="cls-3" d="M386.32,544s-1.1,11.11,3.62,13,12.43,2.73,9.95-8.6S387.16,532.65,386.32,544Z"/><path class="cls-3" d="M422,540.39s-4.67,15.22,3.08,17.45S442,553.17,436.7,544,424.51,532.38,422,540.39Z"/><path class="cls-3" d="M436.14,584.44s-4.72,10.76-.3,18.8,18.58,7.45,19.1-4.45S440.3,571.12,436.14,584.44Z"/><path class="cls-3" d="M489.56,575.54s-8,10.26-5.29,17.15,21.34,11.11,21.34,1.42S498.68,562.26,489.56,575.54Z"/><path class="cls-3" d="M449.12,657.18S443,669.09,444.44,676s22.13,2.75,22.41-5.82S454.13,646.11,449.12,657.18Z"/><path class="cls-3" d="M467.7,624.25s-.59,5,4.13,5.53,4.17-8.83.59-8.31S467.7,621.47,467.7,624.25Z"/><path class="cls-3" d="M437.5,696.47s.85,10.53-2.21,10.53-6.91-5.52-5.53-11.34S436.43,690.93,437.5,696.47Z"/><path class="cls-3" d="M453.84,706.44s-.85,12.47,3.33,13.26,6.35-5.52,4.72-12.18S454.42,699.79,453.84,706.44Z"/><path class="cls-3" d="M472.53,558.94s2,6.33-1.21,6.33-4.72-4.74-3.14-6.72S472.12,555.77,472.53,558.94Z"/><path class="cls-3" d="M458.3,536.37s.76,6.74-3.2,5.92-7.14-5.92-4.37-9.11S456.28,528.83,458.3,536.37Z"/><path class="cls-3" d="M501,685.66s-5.12,11.86,1.21,17.8,11.85-7.52,10.28-16.23S503.4,677.72,501,685.66Z"/><path class="cls-3" d="M480.85,730s.78,16.22,7.14,21,17-3.15,17-12.68-15.45-18.19-19.4-16.62S480,726.05,480.85,730Z"/><path class="cls-3" d="M528.38,739.13s-2.37,17.38,5.52,18.59,16.23-3.54,11.51-13.48S529.15,728,528.38,739.13Z"/><path class="cls-3" d="M535.08,679.33s1.2,10.29,8.72,9.47,4.37-8.31-2-11.45S534.31,675.72,535.08,679.33Z"/><path class="cls-3" d="M524.45,620.7s-1.23,9.92,3.93,11.1,9.08-7.53,5.52-11.87S525.19,614.78,524.45,620.7Z"/><path class="cls-3" d="M569.53,651.61s-5.93,18.19,2,23.35,13.09-10.28,10.3-20.62S571.91,646.45,569.53,651.61Z"/><path class="cls-3" d="M516.06,762.85s2.41,7.54,6.75,4.75S517.29,756.51,516.06,762.85Z"/><path class="cls-3" d="M549.75,786.23s-7.54,17-.79,19.38,10.71-4.36,10.71-15.41S554.51,777.54,549.75,786.23Z"/><path class="cls-3" d="M587.38,726.45s-11.51,20.18-2.38,27.31,15.44,8.32,16.61-3.18S596.86,714.55,587.38,726.45Z"/><path class="cls-3" d="M570.33,817.11s2.37,23.77,12.29,25.75,3.17-19.41-1.17-25.75S570.33,809.57,570.33,817.11Z"/><path class="cls-3" d="M541.8,878.07s-2.38,19.81,2.79,27.73,14.67,1.61,14.26-15S547,861.46,541.8,878.07Z"/><path class="cls-3" d="M461.44,930.37s6.33,23.77-1.16,27.32-11.12-15.05-9.13-24.59S458.65,922.83,461.44,930.37Z"/><path class="cls-3" d="M487.18,917.7s2.38,5.13-.41,5.93S482,915.31,487.18,917.7Z"/><path class="cls-3" d="M550.13,817.11s-4.72,4.77-8.74,2.79-2.73-6.34,1.23-6.34S551.74,816.31,550.13,817.11Z"/><path class="cls-3" d="M589.34,891.55s5.93,7.91.41,7.91-8.3-4.72-6.75-7.09S586.56,889.59,589.34,891.55Z"/><path class="cls-3" d="M551.74,932.33s4.35,7.52.77,8.34-5.11-1.57-8.31-1.18-6.74-7.55-2-10.32S551.74,932.33,551.74,932.33Z"/><path class="cls-3" d="M635.66,737.5s-1.18,17-7.08,16.68-8-11.91-5.6-17.44S635.66,728.43,635.66,737.5Z"/><path class="cls-3" d="M617.05,701.48s3.17,7.55-2.38,7.55S613.88,694.37,617.05,701.48Z"/><path class="cls-3" d="M640,707.46s2,7.9-3.52,7.49-3.2-7.91-1.23-10.7S638.85,704.25,640,707.46Z"/><path class="cls-3" d="M594.51,682.88s.38,3.94-2,4.35S590.16,677.35,594.51,682.88Z"/><path class="cls-3" d="M614.57,787.21s-.48,4.69-2.5,4.53-3.05-3-2.2-5.53S614.09,783.51,614.57,787.21Z"/><path class="cls-3" d="M602.86,814.36s2.51,3.68.64,5.54-5.85-1.54-4.34-2.55-.49-3,.84-4.35S602.86,814.36,602.86,814.36Z"/><path class="cls-3" d="M641.05,831.53s.87,8.23,2.25,12.55-6.16,2.28-12.12-3.43-4.11-11-1.81-14.43S640.34,828.53,641.05,831.53Z"/><path class="cls-3" d="M634.48,893.94s8.33,11.1,8.74,20.16-11.12,12.71-17-.77S625.36,883.64,634.48,893.94Z"/><path class="cls-3" d="M591.34,945.82s.41,7.53-4.37,7.12-5.14-7.52-3.15-9.5S590.9,943.44,591.34,945.82Z"/><path class="cls-3" d="M644,984.25s6.74,7.89,2.78,21-14.65,7.5-16.2-5.18S636.89,976.29,644,984.25Z"/><path class="cls-3" d="M596.86,978.27s1.61,11.49-5.52,10.69-7.93-9.49-5.19-13.44S596.5,973.91,596.86,978.27Z"/><path class="cls-3" d="M554.89,1004s-7.16,22.19-20.17,19.42-4.37-14.66,3.94-24.53S558.49,996.08,554.89,1004Z"/><path class="cls-3" d="M537.87,1044s.79,11.1-6.34,9.52S532.73,1036.89,537.87,1044Z"/><path class="cls-3" d="M459.87,1049.55s-5.94,17.43-14.66,16.22-3.59-13.06,2.75-17S461,1044,459.87,1049.55Z"/><path class="cls-3" d="M427.4,1088s6.32,10.29,2.36,14.22-4.75,9.89-9.52,7.56-5.93-11.9-4.37-20.21S423.42,1082,427.4,1088Z"/><path class="cls-3" d="M542.62,1061.41s-11.5,16.27-4,17.86,16.64-9.15,15.05-15.88S545.41,1056.66,542.62,1061.41Z"/><path class="cls-3" d="M597.65,1043.21s-7.49,14.65,2,18.2,16.26-11.46,14.24-20.57S600.85,1034.51,597.65,1043.21Z"/><path class="cls-3" d="M492.36,1065.36s-2.8,6.35,2,7.16,5.93-5.54,3.56-8.73S492.36,1062.61,492.36,1065.36Z"/><path class="cls-3" d="M636.48,1048s-5.93,23,3.52,21,11.91-8.72,10.71-15.06S639.62,1038.87,636.48,1048Z"/><path class="cls-3" d="M506.18,1010.33s-5.52,12.28-10.28,10.29-2.8-6.7,2.39-10.29S505.77,1007.6,506.18,1010.33Z"/><path class="cls-3" d="M465,1075.29s3.59,5.13,1.2,6.33S458.65,1073.32,465,1075.29Z"/><path class="cls-3" d="M580.63,989.76s-.82,6.73-5.14,5.53S576.67,984.6,580.63,989.76Z"/><path class="cls-3" d="M669.7,1017.09s9.13,8.31,8.34,13.85-13.45.77-15.42-6.72S666.18,1013.53,669.7,1017.09Z"/><path class="cls-3" d="M672.08,926.78s-15.44,7.13-12.24,19.41,13.47,17.83,17.79,17.42S677.24,939.85,672.08,926.78Z"/><path class="cls-3" d="M524.45,1098.67s-9.56.41-11.94.76-2-8.69,6-10.28S529.15,1096.69,524.45,1098.67Z"/><path class="cls-3" d="M665.36,968.77s.82,6.35-2.74,5.94S661.81,963.21,665.36,968.77Z"/><path class="cls-3" d="M628.35,861.48s4.37-1.39,4.85,2.56-3.91,5.72-5.54,3.18S626.51,861.25,628.35,861.48Z"/><g class="cls-9"><path class="cls-14" d="M141.05,646.2c-2,13.19,9.76,2,9.76,2s.72,11.74.37,16.86,8.91-4.18,8.91-4.18-2.48,15.12-1,19.5S184,685.25,197.16,677c-.95,14.65,22.43,8.8,31.7,1.94,3.44,21.5,29.3,5.36,27.32-10.26,25.87,12.23,40,4.39,33.7-1.94,17.55,8.79,23.4-6.33,28.28-27.3,4.72-20.22,58.36-126.07,134.73-132-15.54-8-29.37-16.15-37.46-23.55-27.27-25.14-294.58,84.81-294.58,84.81s-8.4,14.82-8.7,29.73C124.62,610.46,141.69,630,141.05,646.2Z"/></g><g class="cls-4"><path class="cls-5" d="M214.38,909S228.13,884.7,233,881.46c-4.91,17.8,49.4,45.72,97,60s81.37-.6,71.25-63c-7.11-58.18-13.09-51.68-13.09-45.15s-4.73-13-3.54-22c-13.07,11.28-17.23-18.44,4.15-47.52s3.38,11.7,1.77,18,10.34,0,23-11.11,29.47,35.11,85.84,94S591.34,945,627,969.93c28.5,17.86-35.63-5.91-72.46,15.48s-95.06,48.68-125.91,67.71a41.78,41.78,0,0,1-6.42,3.1c10-9.33,23.08-17.61,37.17-26.55,25.45-16.18,96.31-65.3,95.36-71.78s-25-30.11-25-30.11-9.71,11.58-11.09,10.65.43-6.94.43-6.94-15.73,18.51-18,17.6-1.86-7.86-1.86-7.86-48.17,53.69-56,61.61-13.92,6.93-44.49,6c-88.91-7.43-133.46-42.23-133.46-42.23l-2.77,8.91s-2.23-2.21-5-12.78c-1.65,1.63-17.78,13.34-17.78,13.34l3.91-12.79c-8.93-.55-33.94-8.91-33.94-8.91l1.13,11.69s-17.26-4.47-20.06-25.58a39.85,39.85,0,0,1-7.22,13.89s23.91,20,30.59,37.27c30.57-6.7,46.15,30.55,47.28,45s-11.12,34.47-22.27,30.59c-5.53,9.44-24.44,26.09-37.24,23.88-4.43,6.7-6.09,8.36-30.58,7.24s-21.14-48.89-19.64-56.62,1.94-11.18-4.91-12.64-34.95-10.2-40.58-7.22c-7.29,3.85-30.77,18.43-56.64,28.33S3.85,1028.06.2,967.7A107.37,107.37,0,0,1,1,947.07c2.86,14.4,19.38,86.61,60.32,64,45.35-25.11,49.37-56.69,75.35-35.63s42.89,24.3,51.83,17-28.38-56.68-67.28-76.13c-32.39-17-40.29-13.47-51,1.61C52.39,943,51.57,959.22,43.47,957.61s6.83-36,20.26-63.18c11.7-23.81,32-16.16,48.86-11,3.6-11.85,7.38-16.6,7.38-16.6l-42.61-19,15.15-9.45-18.93-3.78,13.23-13.28s-22.72-27.47,19.92-41.67H86.81s2.86-14.25,26.54-17.08C103,769.21,103,773,103,773L119,775.87s-45.79,24.1-9.48,56.86C167.37,884.83,202.63,920.86,214.38,909Z"/><path class="cls-5" d="M497.75,1107a31.92,31.92,0,0,1,19-7.41c11.61-.45,128.42-11.21,165.07-44.95,7.18-7.91,7.18-41.64,1.46-81.14s-17.95-70.37-29.45-97.65c-9.38-22.22-23.49-74-11.7-136.62-6.42,14.89-13.53,32.09-17.56,53.71-11.89,64.17,23.36,121.57,37.64,182.18s4.76,76-50.66,90.24-151,12.25-144.7,31.25,12.34,57.35,1.25,62.1-14.57-.46-34.77,1.31c-33.34,2.94-30.88-66.53-30.88-66.53h-.56c-5.69,20.5-11.71,44.72-14.8,59.84-3.74,18-26,33.81-29.19,66.7-2.34,27.31-1.84,31.93,25,60.64,16.18,16.21,45.36,11.57,48.6-4.64,0,0,23.62,23.17,50-6.46,8.36,7.39,36.17,20.83,46.83-9.28s13.42-55.12-2.81-73.15c0,0-6.83-8.39-10.66-7.15-3.38-9.27-18.59-17.35-18.59-24.52s-1.7-16.5-5.52-30.07S497.75,1107,497.75,1107Z"/></g><path class="cls-2" d="M384.12,1178.72s-18,22-12,54,51,33,54-4S407.13,1152.73,384.12,1178.72Z"/><path class="cls-2" d="M446.31,1190.49S443,1245.12,456.84,1249s25.38-8.63,21.53-45.09S446.31,1171.32,446.31,1190.49Z"/><path class="cls-2" d="M500.42,1191.46s6.24,18.2,1.92,34.48,4.69,24,12.47,18.2c17-12.55,19.37-30.66,10.33-46.36S496.68,1175.12,500.42,1191.46Z"/><g class="cls-9"><path class="cls-5" d="M216.91,1017.17c14.35,24.95,19.34,45,4.34,56.83s-31.83,3.11-49.34-23.73c4.4,18.13,18.11,34.35,8.15,36.86-14.4,2.49-25-11.28-23.14-33.1s7.48-30.61-13.75-38.74S115.7,1005.9,72,1029.67c-43.36,22.71-59.89-4.91-64.27-15.22,8.7,29.17,23.72,42.66,41.76,35.79,25.87-9.9,49.35-24.48,56.64-28.33,5.63-3,33.82,5.72,40.58,7.22s6.35,4.86,4.91,12.64-4.81,55.53,19.64,56.62,26.15-.54,30.58-7.24c12.8,2.21,31.71-14.44,37.24-23.88,11.15,3.88,23.37-16.15,22.27-30.59a55.47,55.47,0,0,0-3.95-15C260.63,1049.48,238.78,1045,216.91,1017.17Z"/><path class="cls-5" d="M609.92,968.77c-25.33-12.65-45.91-14.26-57.41-28.1s-43.14-47.14-92.23-83.56c-44.68-33.15-50.74-35.63-50.74-49.88s-10.27-8-10.27-8,3.18-10.3,3.18-14.25c-24.58,11.11-24.73,20.34-24.73,20.34l16-10-5.57,27,11.91-15.06,3.3,23.8s33.12,26.08,59.29,48.25,18.19,45.16-2.38,78.41S417.5,1002.84,343.05,983s-90.31-49.87-90.31-49.87-.74,22.16-20.55,15-34.07-38-35.63-28.5S191,945,176.74,933.15,109.44,893.53,91.21,888s-30.1,9.47-45.16,55.43c28.54-66.53,40.39-48.33,66.54-38,36.43,14.23,70.85,49,70.85,49a39.85,39.85,0,0,0,7.22-13.89c2.8,21.11,20.06,25.58,20.06,25.58l-1.13-11.69s25,8.36,33.94,8.91l-3.91,12.79s16.13-11.71,17.78-13.34c2.78,10.57,5,12.78,5,12.78l2.77-8.91s44.55,34.8,133.46,42.23c30.57.93,36.62,1.86,44.49-6s56-61.61,56-61.61-.48,6.93,1.86,7.86,18-17.6,18-17.6-1.86,6-.43,6.94,11.09-10.65,11.09-10.65,24.1,23.61,25,30.11c.54,3.51-20.19,19.63-43.33,36.22,11.23-5.52,22.5-11.78,31.24-18.22C569.53,956.12,585.38,964.82,609.92,968.77Z"/></g><g class="cls-9"><path class="cls-5" d="M500.66,1257.83c-14.29-3.18,2.38-37.24-10.34-51.49-.76,23.78-15,57-33.25,57s-11.86-52.26-22.95-56.19c4,38-3.17,73.63-40.39,61.77-31.22-10-34-47.29-34.15-59A86.62,86.62,0,0,0,357.9,1220c-2.34,27.31-1.84,31.93,25,60.64,16.18,16.21,45.36,11.57,48.6-4.64,0,0,23.62,23.17,50-6.46,8.36,7.39,36.17,20.83,46.83-9.28,6-17.25,9.53-32.76,8.41-46.28C534.11,1238.25,513.93,1260.78,500.66,1257.83Z"/></g><path class="cls-10" d="M109,681.27s-60,56.59-42.69,107.47c-27-14-38.09-37.75-3.23-75.83S137.49,643.25,109,681.27Z"/><path class="cls-10" d="M110.21,921.25s42,22.19,60.21,53,15.05,3.19-7.16-20.57S110.21,907.77,110.21,921.25Z"/><path class="cls-10" d="M608,991.33s-40.38-2.37-139,57c-39.22,33.28-38,9.52,9.47-16.63S579.45,966.39,608,991.33Z"/><path class="cls-8" d="M187.13,1101.93s5.4,10.15,9.78,14.94-4.72,0-10.48-8.17S185.06,1098.9,187.13,1101.93Z"/><path class="cls-8" d="M224.19,1085.39s7.38,7,7.38,8.34S218.42,1085.71,224.19,1085.39Z"/><path class="cls-8" d="M252.35,1063.89s5.62,5.36,5.62,6.35S247.91,1064.12,252.35,1063.89Z"/><path class="cls-2" d="M216,996.75s15.66-3.37,30.24,14.55c14,19-3.36,22.38-15.13,13.46S204.75,1000.71,216,996.75Z"/><path class="cls-2" d="M205.3,1013s22.41,28,16.24,44.23S192.19,1071,180.29,1046,185.19,994.24,205.3,1013Z"/><path class="cls-2" d="M167.83,1043.62a67.06,67.06,0,0,0,5.93,25c6,13-10.08,12.45-12.47-3.57S164.27,1038.25,167.83,1043.62Z"/><path class="cls-10" d="M389.37,575.59S415.52,534,488,579.15c46.32,29.7,76,71.25,98.57,95s16.64,53.48,14.29,86.73,9.48,25,21.39-17.8S627,670.6,584.18,635s-89.09-66.52-73.65-67.73,3.55-9.47-5.92-8.3-11.9-7.12-2.38-11.87-30.91-28.53-64.15-20.21S354.92,595.77,389.37,575.59Z"/><path class="cls-13" d="M497.75,1107a31.92,31.92,0,0,1,19-7.41c11.61-.45,128.42-11.21,165.07-44.95,7.18-7.91,7.18-41.64,1.46-81.14s-17.95-70.37-29.45-97.65c-7.85-18.6-19-57.81-15.54-106.79-15.8,38,1.33,93.73,20,141.1,19,48.32,30.85,118.77,16.59,137.77s-89.49,34.86-130.67,39.63-61.77,8.72-57.83,19c1.08,2.78,2.43,6.57,3.83,10.65A14.52,14.52,0,0,1,497.75,1107Z"/><path class="cls-2" d="M65.08,425.28s-10.71,1.8-11.87-1.16,2.35-12.47,2.35-12.47-33.83-22-37.43-61.19,19-71.88,37.43-70.1,35,10.08,57.65,24.37,27.3,14.85,27.3,14.85,16.63-12.47,41.57-8.32c-3.55-7.13-10.72-11.9-10.72-11.9s17.25,6,27.93,17.84c-2.38-16.05,1.22-19.63,1.22-19.63l10.1,13.09s14.24-16,20.15-13.09S229,314.82,229,314.82s22-7.15,49.3,3.56c10.7,3,24.95-14.25,33.85-29.7s42.37-45.81,71.29-35.62c22,7.69,39.8,33.84,36.25,72.45s-38.62,58.8-60,60.6c6.52,4.15,4.13,8.33,4.13,8.33l-10.07,2.93,5.94,7.74s21.36,4.72,34.44,11.88c-11.3,1.76-14.3,4.14-14.3,4.14s25,4.78,32.7,14.25c-7.14.6-10.09.6-10.09.6s27.92,9.53,31.45,37.44c-5.3-.61-16,5.35-16,5.35s5.93-.62,13.05,8.29a137.34,137.34,0,0,0-14.25,4.15,30.48,30.48,0,0,1,10.7,10.7c-17.23-3-76,40.38-115.26,124.77-6.32,15-9.46,19-24.52,23.35,7.09,5.52,8.31,4.31,8.73,7.1s-13.1,4-18.25,2.79c9.52,5.93,4.34,6.34,2.77,6.73s-30.09-7.94-30.09-7.94-1.56,13.68-4.54,16.67-8.35-13.07-8.35-13.07-21.35,13.63-25.52,13.63,5.95-16,5.95-16-19,13.63-36.82,13.63c7.71-6.49,9.49-17.17,9.49-17.17s-19,8.87-27.31,9.47c7.14-16.63,11.86-20.17,11.86-20.17s-16,1.78-18.4,6.49c6.54-9.49,10.69-13.65,10.69-13.65s-11.86-3.55-17.24.63c1.79-3-.6-8.93-.6-8.93S126.27,595.77,94.2,553.6c-30.29-40.38-59.41-46.93-67.75-47.54,7.76-12.47,11.9-17.79,11.9-17.79s-9.52-1.21-15.44,2.33c3-10.08,8.29-15.39,8.29-15.39a72.4,72.4,0,0,0-13.63,3.56C25.89,457.37,41.3,445.51,65.08,425.28Z"/><path class="cls-3" d="M141.48,331.59s3.63-10.36,10.74-10.52,5.53,2.66,8.23,2.29,3.27,5,2.87,10.54-1,16.09-6.51,16.3S138.58,344.83,141.48,331.59Z"/><path class="cls-3" d="M189.05,341.52s-4.63,10.67-.27,13.36,10.88-9.24,9.21-14.44S190.66,336.65,189.05,341.52Z"/><path class="cls-3" d="M205.93,320.82s-.29,7.92-6.82,7.92-5.18-7.05-1.33-9S205.64,317,205.93,320.82Z"/><path class="cls-3" d="M222.26,340.18s-5.47,1.65-3.78,7.9,8.41,2.44,8.41-2.44S225,339.35,222.26,340.18Z"/><path class="cls-3" d="M238.35,347.54s-1.94,5.73,2.47,8.44,5.46-2.71,4.06-6S239.7,344.56,238.35,347.54Z"/><path class="cls-3" d="M208.39,363.61s-2.46,8.17,0,14.17,8.19,5.71,8.4-3.53S212.73,354.88,208.39,363.61Z"/><path class="cls-3" d="M186.88,369.05s.8,8.73-4.12,10.1-12.78-3.57-9.53-9S186.58,362.51,186.88,369.05Z"/><path class="cls-3" d="M254.42,327.91s-2.72,8.46,4.08,12.27,17.18-4.1,15.8-11.73S260.13,318.38,254.42,327.91Z"/><path class="cls-3" d="M228.55,320.32s-2.47,9.5,2.42,12.24,9-5.19,9-10.64S233.14,311.32,228.55,320.32Z"/><path class="cls-3" d="M232.63,366.63s-4.08,6.78-2.2,12.52,9,6,12.29-3.28S236.7,359.52,232.63,366.63Z"/><path class="cls-3" d="M184.17,393.83s-.89,8,3.55,8.31,5.37-4.77,3.27-9.54S184.77,389.06,184.17,393.83Z"/><path class="cls-3" d="M212.67,401.52s-1.81,5.93,1.49,6.53,3.58-3.54,2.69-5.31S213.57,398.88,212.67,401.52Z"/><path class="cls-3" d="M212.09,389.06s-5.65-6.83-9.52-2.05,2.1,7.09,5.37,6.82S215,391.72,212.09,389.06Z"/><path class="cls-3" d="M241.78,392.33a11,11,0,0,0,1.16,9.81c3.3,5,6.28,3,5.65-4.77S242.94,387,241.78,392.33Z"/><path class="cls-3" d="M167.83,326.38s-.89,5.06,2.66,5.95S169.94,319.86,167.83,326.38Z"/><path class="cls-3" d="M65.34,437.36a8.33,8.33,0,0,0-.49,8.38c2.35,4.63,5.63.25,5.63-3.93S67.68,434.38,65.34,437.36Z"/><path class="cls-3" d="M77,455.52a21.17,21.17,0,0,0-.7,7.9c.45,4.16,4.9,3.23,6-1.65S79.06,450.14,77,455.52Z"/><path class="cls-3" d="M48.16,466s-.93,8.82,3.71,12.81,12.3-1.88,11.14-10S51.18,455,48.16,466Z"/><path class="cls-3" d="M46.5,447.85s-6,2.29-4.63,7.67S53.25,447.6,46.5,447.85Z"/><path class="cls-3" d="M69.54,490.37s-3.51,7.91-.24,10.94,7.67-2.79,7.42-7.92S72.53,485.49,69.54,490.37Z"/><path class="cls-3" d="M46.05,494.09s-4.64,2.57-.47,8.59,10.48,2.81,8.15-3.48S48.16,492,46.05,494.09Z"/><path class="cls-3" d="M79.31,518.73s-1.86,4.19,2,5.56,6.07-1.6,3.52-4.38S79.06,516.63,79.31,518.73Z"/><path class="cls-3" d="M86.73,492s.23,4.68,3.26,4.68S89.51,487.1,86.73,492Z"/><path class="cls-3" d="M339.47,474.19s-2,13.06,4.75,13.06,4.76-9.86,2.38-13.06S339.86,471.4,339.47,474.19Z"/><path class="cls-3" d="M369.57,458.39s-6.75,6.69-2.38,10.68,9.11.76,8.7-6.33S371.55,455.6,369.57,458.39Z"/><path class="cls-3" d="M342.65,451.63s-3.95,4.76.81,5.53S346.19,449.27,342.65,451.63Z"/><path class="cls-3" d="M364.42,425.17s-2.8,5,1.39,7,6-3.78,4.2-6.4S366,422.55,364.42,425.17Z"/><path class="cls-3" d="M367.23,480.4s-8.64,5.05-7.65,12c.82,5,2.24,4,1.83,7s4,6.42,8.19,4.4,6.83-6.61,6.42-14S371.81,478.23,367.23,480.4Z"/><path class="cls-3" d="M349,518.07s-2.38,2.62-1.75,7.8,5.79,10.62,11,5.2,4.38-11.2.56-13.21S351.61,514.67,349,518.07Z"/><path class="cls-3" d="M380.21,523.25s-4.79-4.58-6.58-1,2,7.2,4.81,5.42S380.84,524.47,380.21,523.25Z"/><path class="cls-3" d="M388.85,500.47s-1.61,5.39.22,6.2,4.38-1,4.19-3.21S391,497.23,388.85,500.47Z"/><path class="cls-3" d="M393.26,471.2s-6.43,8.43,1.8,10.81,9.8-7.79,7-11.4S395.06,468.43,393.26,471.2Z"/><path class="cls-3" d="M397.26,446.79s-1.79,6.62,1.79,6.83,2.59-5.6,1.42-7.43S397.85,444.58,397.26,446.79Z"/><path class="cls-15" d="M433.9,473.42C430.37,445.51,402.45,436,402.45,436s2.95,0,10.09-.6c-7.71-9.47-32.7-14.25-32.7-14.25s3-2.38,14.3-4.14c-13.08-7.16-34.44-11.88-34.44-11.88l-5.94-7.74,10.07-2.93s2.39-4.18-4.13-8.33c17.8-1.49,45.13-15.82,55.77-42.93-25.49,40.12-67.77,20.69-47.31,7.31,32.08-19.77,43.62-72.42,22.19-83.12S355,265.72,338.5,283s-30.46,18.93-6.58-9.91c9.81-10.83,19.4-17,28-20.56-21.45,5.48-41.19,24.86-47.74,36.16-8.9,15.45-23.15,32.67-33.85,29.7-27.3-10.71-49.3-3.56-49.3-3.56s7.73-14.25,1.77-17.25a4.19,4.19,0,0,0-1.8-.31c1.24,3.43,1.16,9.05-3.51,18.18,29.1,1.76,77.79,5.91,101,54.62,10.64,23.77,11.84,68.9-13.68,62.37,0,0,33.83,16,41,23.75,8.29-8.3,30.57-15.81,43.5-9.39-25.11,4-27.69,11.6-27.69,11.6s15.65-4,30.5,11.44c-7.72-1.17-30.9,13.69-30.9,13.69s-6.56,32.64-19.57,46.92-30.91-8.93-35.08-20.21c-12.51-33.93-23.15-55.85-16.61-69.5s-10.7-7.13-20.77,1.78S267,455,275.91,469.83s27.33,49.91-3.55,32.08-79.61-10.7-101.54-1.16-17.84-3,0-27.33c11.85-16.2,19.56-22.58-.62-30.3-27.11-10.38-29.08-7.14-14.23,4.76s-1.81,25.54-13.68,46.9-24.36,61.76-45.13,35.66-17.25-42.17-17.25-42.17A132.45,132.45,0,0,0,53.81,493c4.72-11.86,27.91-18.39,27.91-18.39s-17.22-12.47-28.51-5.37c1.16-4.15,23.76-21.35,37.39-8.32,8.91-16.6,37.46-26.09,37.46-26.09-20.23,7.09-34.48,2.36-32.08-16.67,16-92.64,67.7-106.89,67.7-106.89l-.13-.24c-14.27,2-23,8.56-23,8.56s-4.75-.6-27.3-14.85c-6.48-4.08-12.4-7.63-18-10.74,8,7.26,14.64,15.19,17,22.78,7.43,23.82-18.93-7.45-30.43-17.32s-34.57-23.85-49.38,5,8.23,62.53,43.62,78.2c13.15,7.39,4.92,18.91,3.27,27.95s-21.39-9-37.05-18.93a153.62,153.62,0,0,1-13.28-8.79,96.5,96.5,0,0,0,26.66,28.81s-3.58,9.48-2.35,12.47,11.87,1.16,11.87,1.16c-23.78,20.23-39.19,32.09-47.51,53.49a72.4,72.4,0,0,1,13.63-3.56s-5.31,5.31-8.29,15.39c5.92-3.54,15.44-2.33,15.44-2.33s-4.14,5.32-11.9,17.79c8.34.61,37.46,7.16,67.75,47.54C126.27,595.77,150,630.22,150,630.22s2.39,5.93.6,8.93c5.38-4.18,17.24-.63,17.24-.63a103.87,103.87,0,0,0-10.08,12.81c3.75-4.12,17.79-5.65,17.79-5.65s-4.72,3.54-11.86,20.17c8.31-.6,27.31-9.47,27.31-9.47s-1.78,10.68-9.49,17.17c17.79,0,36.82-13.63,36.82-13.63s-10.1,16-5.95,16,25.52-13.63,25.52-13.63,5.38,16,8.35,13.07,4.54-16.67,4.54-16.67,28.52,8.35,30.09,7.94,6.75-.8-2.77-6.73c5.15,1.17,18.61,0,18.25-2.79s-1.64-1.58-8.73-7.1c15.06-4.35,18.2-8.34,24.52-23.35,39.21-84.39,98-127.72,115.26-124.77a30.48,30.48,0,0,0-10.7-10.7A137.34,137.34,0,0,1,431,487.06c-7.12-8.91-13.05-8.29-13.05-8.29S428.6,472.81,433.9,473.42Z"/><path class="cls-16" d="M119.54,438.48s104.17-30.86,210.93,1.29c-12.87-9.63-34.75-12.85-34.75-12.85S300.2,395.4,285.45,396s-9,27.64-9,27.64-54.68-8.35-117,1.93c3.22-23.15-3.23-27.64-9-27s-13.52,11.53-7.74,28.3C131.12,429.49,119.54,438.48,119.54,438.48Z"/><path class="cls-8" d="M215.36,516.12C148.61,518.63,122,558,112.66,578.25c22.28,30.14,37.33,52,37.33,52s2.39,5.93.6,8.93c5.38-4.18,17.24-.63,17.24-.63a103.87,103.87,0,0,0-10.08,12.81c3.75-4.12,17.79-5.65,17.79-5.65s-4.72,3.54-11.86,20.17c8.31-.6,27.31-9.47,27.31-9.47s-1.78,10.68-9.49,17.17c17.79,0,36.82-13.63,36.82-13.63s-10.1,16-5.95,16,25.52-13.63,25.52-13.63,5.38,16,8.35,13.07,4.54-16.67,4.54-16.67,28.52,8.35,30.09,7.94,6.75-.8-2.77-6.73c5.15,1.17,18.61,0,18.25-2.79s-1.64-1.58-8.73-7.1c15.06-4.35,18.2-8.34,24.52-23.35A352.83,352.83,0,0,1,339.6,578C321.59,537.3,279.1,514.79,215.36,516.12Z"/><path class="cls-2" d="M157.14,652.17l.61-.84A4.94,4.94,0,0,0,157.14,652.17Z"/><path d="M156,416.22c-.11,7.46-2.7,13.42-5.82,13.3s-5.49-6.28-5.36-13.79,2.74-13.4,5.8-13.27S156.13,408.76,156,416.22Z"/><path class="cls-17" d="M154.43,411.8c.16,2.91-.83,5.35-2.21,5.38s-2.57-2.26-2.76-5.2.85-5.33,2.23-5.37S154.33,408.92,154.43,411.8Z"/><path d="M291.2,413.24c-.13,7.45-2.72,13.42-5.83,13.31s-5.51-6.32-5.38-13.81,2.75-13.39,5.85-13.26S291.33,405.77,291.2,413.24Z"/><path class="cls-17" d="M289.69,408.82c.1,2.9-.87,5.33-2.23,5.38s-2.62-2.3-2.75-5.21.84-5.32,2.23-5.37S289.53,405.92,289.69,408.82Z"/><path class="cls-16" d="M145.07,438.56s8.72,9.89,13.08,14.25,5.11,5.94-4,21.79-26.52,45.55-26.93,60.59,15.47,47.51,15.86,48.71c0,0-22.07-40.83,2.84-82.16s29.16-47.15,24.92-51.38S145.28,433.68,145.07,438.56Z"/><path class="cls-16" d="M299.08,437.08s-12.72,12.19-3.19,38.68,27,76.83,25.95,80-23.86-63.06-30.7-76.83-16.43-20.65-13.28-28.58S304.35,425.41,299.08,437.08Z"/><path class="cls-18" d="M35.42,309.52s9.27-20,20.37-18.17,50.14,34.55,51.48,51c-16.42,4.87-18.63,12-18.63,12l10.64,4S81.81,366.67,88,378.21c0,0-4.52,1.49-29-14.54S27.36,331.52,35.42,309.52Z"/><path class="cls-18" d="M387.12,275s-11.5-9.5-21.5-6.53S336,291,326.05,306.57c-7.57,15,5.46,16,11,21.53s-4,10-4,10,6.51,5,7,6.53c0,0-7.5-.53-6,10.54C336,361.16,407.16,335.6,387.12,275Z"/><path class="cls-19" d="M36.12,308.35a42.41,42.41,0,0,1,6.56-11.09,26.49,26.49,0,0,1,4.78-4.43,15.14,15.14,0,0,1,6.31-2.31H55.5a7.66,7.66,0,0,1,1.7.27c1,.19,2.09.34,3.14.6a31.89,31.89,0,0,1,6.15,2.6A45.58,45.58,0,0,1,72,297.57c1.7,1.43,3.4,2.8,5,4.24s3.18,2.92,4.72,4.43l4.58,4.44c1.54,1.51,3.08,3,4.62,4.55l4.47,4.58c1.47,1.62,2.89,3.24,4.32,4.89a57.58,57.58,0,0,1,4,5.22,20.93,20.93,0,0,1,1.69,2.81,15.08,15.08,0,0,1,1.45,3,20.75,20.75,0,0,1,1.47,6.5l0,.8-.73.16a49.84,49.84,0,0,0-10.61,3.86,27.7,27.7,0,0,0-4.69,3,10.24,10.24,0,0,0-1.94,1.95,6.5,6.5,0,0,0-.76,1.12A8.46,8.46,0,0,0,89,354.4l-.36-.47,1.45.23a7.89,7.89,0,0,1,1.4.28l1.42.4a8.53,8.53,0,0,1,1.36.53,8.65,8.65,0,0,1,1.35.57c.44.24.88.43,1.28.68a15.54,15.54,0,0,1,2.35,1.69,21.18,21.18,0,0,0-2.45-1.47c-.46-.22-.91-.38-1.34-.6a8.31,8.31,0,0,0-1.33-.47,9.88,9.88,0,0,0-1.37-.4L91.41,355a10.44,10.44,0,0,0-1.42-.16l-1.39-.14-.5-.05.13-.45a7.71,7.71,0,0,1,.48-1.45,6.74,6.74,0,0,1,.76-1.34,13.49,13.49,0,0,1,2-2.22,27.89,27.89,0,0,1,4.79-3.39A52.84,52.84,0,0,1,107,341.46l-.69,1a19.85,19.85,0,0,0-1.49-5.95,20.76,20.76,0,0,0-1.32-2.73,28,28,0,0,0-1.72-2.66c-1.11-1.73-2.53-3.3-3.82-4.94s-2.86-3.17-4.28-4.71l-9.06-9.07-4.58-4.51c-1.49-1.54-3.08-3-4.61-4.45s-3.18-2.79-4.75-4.15a47.49,47.49,0,0,0-5.21-3.56A28.94,28.94,0,0,0,60,293.12c-1-.29-2.08-.49-3.12-.78a6.79,6.79,0,0,0-1.47-.23l-1.49-.1a12.83,12.83,0,0,0-5.73,1.88,25.13,25.13,0,0,0-4.84,4A47.73,47.73,0,0,0,36.12,308.35Z"/><path class="cls-19" d="M387.12,275a28.85,28.85,0,0,0-4.61-3.31,20.87,20.87,0,0,0-2.54-1.29c-.9-.31-1.73-.72-2.65-1a22.77,22.77,0,0,0-2.71-.66,23.88,23.88,0,0,0-2.8-.26,25.63,25.63,0,0,0-2.77.08l-2.7.43-2.63.92a16.26,16.26,0,0,0-2.5,1.18,15.77,15.77,0,0,0-2.38,1.45l-2.21,1.63c-.77.56-1.39,1.22-2.11,1.84l-2,1.95-3.62,4.27,0,.09h0l-7.67,8.27c-2.54,2.77-5.18,5.44-7.63,8.23-1.2,1.39-2.43,2.77-3.54,4.27a38,38,0,0,0-3,4.52,19.26,19.26,0,0,0-1.1,2.41,13.92,13.92,0,0,0-.68,2.51,10.88,10.88,0,0,0,0,2.55,9.55,9.55,0,0,0,.54,2.49l-.13-.19a21.3,21.3,0,0,0,5.36,4.71,60.82,60.82,0,0,1,6.22,4.41,10.8,10.8,0,0,1,1.33,1.51,4,4,0,0,1,.6,2,5,5,0,0,1-.22,1.93,5.77,5.77,0,0,1-.65,1.87,11.09,11.09,0,0,1-1,1.66c-.39.48-.79.94-1.24,1.44a8,8,0,0,1-1.45,1.2,8.5,8.5,0,0,1-1.61,1,7.6,7.6,0,0,0,1.49-1.09,16.47,16.47,0,0,0,1.33-1.31c.36-.5.78-1,1.09-1.51a8.48,8.48,0,0,0,.8-1.63,6.05,6.05,0,0,0,.53-1.7,5.27,5.27,0,0,0,.06-1.78,2.71,2.71,0,0,0-.63-1.51,6.62,6.62,0,0,0-1.2-1.24,60.57,60.57,0,0,0-6.26-4,21.8,21.8,0,0,1-6-4.88l-.13-.1v-.13a13.11,13.11,0,0,1-.77-2.94,12.81,12.81,0,0,1-.06-3,15.89,15.89,0,0,1,.78-3,25.36,25.36,0,0,1,1.16-2.69,42.05,42.05,0,0,1,3.17-4.84c1.15-1.55,2.35-3,3.58-4.45,4.92-5.72,10.3-11,15.39-16.46l0,.08,3.82-4.42c.68-.71,1.44-1.35,2.13-2s1.41-1.36,2.23-1.93l2.46-1.62a14.11,14.11,0,0,1,2.61-1.46,15.35,15.35,0,0,1,2.71-1.13l2.88-.85,2.93-.37c1-.06,2,.07,3,.07a21,21,0,0,1,2.89.42,26.43,26.43,0,0,1,2.82.91,28.35,28.35,0,0,1,2.67,1.16c.79.49,1.7.93,2.45,1.49A23.46,23.46,0,0,1,387.12,275Z"/><g class="cls-4"><path class="cls-18" d="M107.27,342.34c-1.34-16.44-40.4-49.22-51.48-51-8.46-1.4-15.86,9.9-18.94,15.32l1.31-1.53s18.19-18.24,45.13,19.77c10.79,21.8-26.5,48.89-49.7,10.21C36.7,345.37,45,354.53,59,363.67c24.52,16,29,14.54,29,14.54-6.2-11.54,11.27-19.9,11.27-19.9l-10.64-4S90.85,347.21,107.27,342.34Z"/></g><path class="cls-20" d="M349.31,294.8c16.46-21.82,31.23-21.05,38.06-19a5.38,5.38,0,0,0-.25-.8s-11.5-9.5-21.5-6.53S336,291,326.05,306.57c-7.57,15,5.46,16,11,21.53s-4,10-4,10,6.51,5,7,6.53c0,0-7.5-.53-6,10.54,1.38,4.12,35.49-6.66,50.11-33.53C360.75,347.08,330.47,318.72,349.31,294.8Z"/><path class="cls-21" d="M134.61,380.9s12.52-18.14,26.85-2.65c-6-11.95-14-18.8-17.6-14.32S134.61,380.9,134.61,380.9Z"/><path class="cls-22" d="M134,377.55s12.5-18.16,26.81-2.65c-5.95-11.93-14-18.8-17.57-14.34S134,377.55,134,377.55Z"/><path class="cls-21" d="M266.58,375.58s15-18.2,32.07-2.66c-7.12-11.93-16.75-18.81-21-14.32S266.58,375.58,266.58,375.58Z"/><path class="cls-22" d="M265.81,372.23s14.95-18.2,32-2.68c-7.09-11.93-16.69-18.79-21-14.3S265.81,372.23,265.81,372.23Z"/><g class="cls-9"><path class="cls-23" d="M319.7,549.11c-3,49.73-48.54,72.41-63.95,63.26-16.05-9.46-27.93-24.92-14.29-27.91,37.76-13.84,51.68-41.56,55.67-51.85-21.22-11.41-48.6-17.19-81.77-16.49-32.1,1.22-54.91,11-71,23,7.4,10.44,29.33,38.3,56.73,43.59,11.93,1.76,0,25.55-11.24,30.9-10.7,5-45.36-17.12-56.06-65.39a103.7,103.7,0,0,0-21.1,30c18.09,24.42,31.36,43.38,35.75,49.7,1.54-3.87,3.12-6.88,4.57-7.82,5.37-3.59,24.36,29.7,42.78,15.41s24.32-18.39,48.69-7.69,37.41,21.37,19.59,20.78c10.7,6.53,4.77,11.29-11.3,4.76-11.92-4.89-3.14,9-5.43,20.35,2.25-4.61,3.47-15,3.47-15s28.52,8.35,30.09,7.94,6.75-.8-2.77-6.73c5.15,1.17,18.61,0,18.25-2.79s-1.64-1.58-8.73-7.1c15.06-4.35,18.2-8.34,24.52-23.35A352.83,352.83,0,0,1,339.6,578,94.06,94.06,0,0,0,319.7,549.11Z"/></g><path class="cls-24" d="M139.58,576.6s21.11,39.34,35.76,48.61c12.85,5.75,31.83-11.1,36.83-19s4.68-19.64,5-28.24c2.87,16.46.35,21.84,18.6,33.28s36.14,21.11,48.31,10,36.15-37.94,37.19-63.66c0,0,2.15,15.73-9.64,35.39s-25.42,34.69-34,36.5-27.91-4.68-47.92-18.24c-9.69-7.54-14-2.85-18.24,2.15s-22.2,18.23-31.83,17.16S146.36,599.12,139.58,576.6Z"/><path d="M168.88,589.12s-1.57.51-4.28,1.49-6.58,2.53-11.08,4.46c-2.3.95-4.74,2.11-7.32,3.25s-5.24,2.48-8,3.91-5.56,2.85-8.44,4.38-5.68,3.21-8.52,4.86-5.58,3.47-8.33,5.11-5.38,3.55-8,5.25S100,625.39,97.7,627s-4.39,3.27-6.33,4.8S87.56,634.65,86,636l-4,3.34c-2.23,1.86-3.51,2.91-3.51,2.91S79.7,641,81.72,639l3.72-3.67c1.46-1.47,3.2-2.91,5-4.56s3.93-3.44,6.18-5.14,4.51-3.7,7.1-5.48,5.12-3.74,7.92-5.44,5.46-3.63,8.37-5.24,5.74-3.36,8.69-4.84,5.76-2.94,8.59-4.27,5.56-2.48,8.18-3.61,5.11-2.09,7.51-2.9,4.49-1.57,6.42-2.17,3.63-1.1,5-1.51C167.27,589.45,168.88,589.12,168.88,589.12Z"/><path d="M182.15,595.73,179,596.81c-1.08.33-2.28.78-3.65,1.3s-2.94,1.14-4.62,1.74-3.61,1.24-5.55,2-4,1.53-6.1,2.33c-4.17,1.7-8.7,3.44-13.22,5.18-2.25.9-4.56,1.66-6.74,2.62s-4.34,1.87-6.45,2.75c-4.15,1.79-8.1,3.36-11.48,4.73s-6.2,2.41-8.18,3.18-3.14,1.16-3.14,1.16l3-1.57c1.89-1,4.56-2.42,7.84-4s7.09-3.5,11.2-5.46c2.06-.91,4.2-1.9,6.37-2.91s4.48-1.79,6.75-2.67c4.55-1.7,9.11-3.44,13.44-4.92a55.65,55.65,0,0,1,6.2-2.07c2-.55,4-1.09,5.69-1.6,3.52-1,6.45-1.78,8.56-2.19Z"/><path d="M174.77,609.36,172,611.59c-1.78,1.32-4.29,3.35-7.35,5.59s-6.66,5-10.52,7.76-8.07,5.72-12.27,8.62-8.4,5.83-12.41,8.44-7.73,5.06-11,7.14-6,3.71-7.84,4.87l-3,1.84s1-.82,2.74-2.18,4.28-3.4,7.35-5.65,6.66-4.95,10.52-7.75,8.08-5.73,12.27-8.64,8.4-5.76,12.38-8.39,7.76-5,11-7.13,6-3.74,7.82-5S174.77,609.36,174.77,609.36Z"/><path d="M182.89,609.36s-.9.93-2.43,2.58-3.76,3.91-6.5,6.58-5.92,5.86-9.4,9.13-7.17,6.76-10.92,10.28-7.55,6.86-11.15,10.05-7,6-9.84,8.54-5.42,4.53-7.16,6l-2.69,2.18s.83-.93,2.4-2.55,3.77-3.91,6.52-6.58,5.89-5.83,9.37-9.16,7.22-6.77,10.92-10.24,7.54-6.85,11.12-10,7-6,9.91-8.55,5.39-4.51,7.1-6Z"/><path d="M259.58,609s1.29.41,3.55,1.18,5.45,1.81,9.18,3.26,8.28,3.08,13,5,9.68,4,14.65,6.17,9.84,4.43,14.41,6.64,8.71,4.57,12.29,6.43l2.55,1.37c.82.47,1.55,1,2.22,1.41,1.41.89,2.61,1.64,3.62,2.31,2,1.28,3.11,2,3.11,2s-1.2-.61-3.34-1.65c-1.06-.53-2.34-1.17-3.81-1.95s-3.14-1.53-4.93-2.36-3.85-1.75-5.94-2.72-4.36-2-6.66-3-4.69-2.09-7.11-3.13-4.92-2.18-7.38-3.25c-4.92-2.16-9.9-4.35-14.48-6.39l-12.64-5.66C264.45,611.34,259.58,609,259.58,609Z"/><path d="M266.58,602.39s1.27.18,3.44.59,5.29,1,9,1.93,8,1.87,12.64,3,9.48,2.74,14.35,4.16l7.23,2.21c2.38.76,4.72,1.45,7,2.3,4.43,1.7,8.55,3.4,12.11,4.8s6.44,2.66,8.5,3.52,3.18,1.42,3.18,1.42-1.2-.39-3.38-1-5.16-1.55-8.76-2.71-7.86-2.5-12.35-4c-2.21-.81-4.6-1.37-7-2.11s-4.82-1.46-7.26-2.17-4.78-1.51-7.17-2.24-4.73-1.57-7-2.17c-4.52-1.28-8.73-2.66-12.36-3.75s-6.67-2.09-8.81-2.78Z"/><path d="M278,595.73l3.91-.16c2.5-.05,6.06-.26,10.32-.29s9.25-.12,14.63-.12,11,0,16.68.12,11.38.24,16.71.39,10.33.47,14.61.67,7.81.44,10.3.6,3.91.28,3.91.28-1.42,0-3.91.15-6.07.24-10.35.31-9.21.14-14.56.1-11.06,0-16.75-.1-11.38-.26-16.69-.44-10.34-.43-14.62-.64-7.78-.43-10.28-.56Z"/><path d="M274,585.4s1.7,0,4.62,0,7.15.11,12.19.44,10.89.68,17.18,1.37c3.11.4,6.34.73,9.66,1.21s6.62.94,9.91,1.54,6.63,1.24,9.87,2,6.4,1.5,9.48,2.31,5.95,1.78,8.7,2.67,5.28,2,7.68,2.85a59.78,59.78,0,0,1,6.26,2.94c.91.44,1.75.89,2.52,1.3s1.46.91,2.07,1.33l3.86,2.58-4.06-2.18c-.67-.32-1.37-.77-2.15-1.12s-1.69-.73-2.65-1.1c-1.9-.77-4-1.72-6.35-2.48s-4.91-1.78-7.69-2.47-5.65-1.62-8.73-2.31-6.16-1.54-9.39-2.14c-1.62-.3-3.28-.65-4.89-1s-3.31-.57-4.92-.85c-3.31-.63-6.62-1.13-9.85-1.64s-6.48-.93-9.59-1.37c-6.22-.83-12-1.62-17-2.11s-9.14-1.06-12.09-1.29Z"/><path class="cls-22" d="M164.81,514.13c8.83-3.89,19.36-6.12,26.9-7.67a160.7,160.7,0,0,1,58.3-.79c32.33,5.35,59.36,17.62,25.87,47.05-28.87,23.85-40.63,32.6-64.2,26.9-18-4.31-73.68-32.38-61.85-53.82C152.56,520.81,158.24,517,164.81,514.13Z"/><path class="cls-25" d="M241.83,577.35s-.2-15,10.4-22,12.48-16.18-2.09-12.43-18.41,10.53-15.06,19S241.83,577.35,241.83,577.35Z"/><path class="cls-25" d="M195.67,573.93s-4-11.91-15-15.69-8.1-8.46.5-7.54,15,14.68,17.42,24.43Z"/><g class="cls-4"><path class="cls-22" d="M256.76,506.92c15.49,4.07,33.48,10.29,30.57,16.29-5,10.33-43.25,11.95-52.36,22A28.33,28.33,0,0,1,196,548.36c-13.41-10.45-18.53-5.61-38.79-11.79-6.4-2-8.47-5.29-8.27-8.87-7.75,21.15,45.24,47.74,62.7,51.92,23.57,5.7,35.33-3,64.2-26.9C307,525.36,285.84,512.85,256.76,506.92Z"/></g><path class="cls-26" d="M270.5,516.93c-.44,1.16-3.52,1.28-6.93.23s-5.69-2.81-5.23-4,3.58-1.24,6.94-.23S271,515.75,270.5,516.93Z"/><path class="cls-26" d="M163.35,519.1s41.23-13.88,85-5.44C263.13,516.89,228.64,494.65,163.35,519.1Z"/><path class="cls-17" d="M165.57,424.81s48.17-8.83,108-1.13C252.64,416.28,205.1,412.9,165.57,424.81Z"/><path class="cls-2" d="M157.14,652.17l.61-.84A4.94,4.94,0,0,0,157.14,652.17Z"/><path class="cls-10" d="M182.93,494.88s3.06-68.7,36.62-69.47,35.86,69.47,35.86,69.47S231.73,483.44,182.93,494.88Z"/><path class="cls-10" d="M134.06,340.72s-31.28,36.62-22.88,87C96.66,407.86,105.06,364.37,134.06,340.72Z"/></g></g></svg>