<svg xmlns="http://www.w3.org/2000/svg" viewBox="0 0 837.46 1085"><defs><style>.cls-1{isolation:isolate;}.cls-2{fill:#8d592b;}.cls-11,.cls-3,.cls-7{fill:#efb379;}.cls-4{fill:#e7b45d;}.cls-11,.cls-12,.cls-4{opacity:0.5;}.cls-11,.cls-12,.cls-15,.cls-20,.cls-21,.cls-4,.cls-9{mix-blend-mode:multiply;}.cls-5{fill:#b17841;}.cls-6{fill:#ad6d37;}.cls-22,.cls-7{mix-blend-mode:screen;}.cls-8,.cls-9{fill:#c61d3d;}.cls-10{fill:#a16e39;}.cls-12{fill:#bc8e60;}.cls-13{fill:#ed7182;}.cls-14{fill:#e95182;}.cls-15,.cls-23{fill:#f598a5;}.cls-16{fill:#000100;}.cls-17{fill:#fff;}.cls-18{fill:#764b22;}.cls-19{fill:#722809;}.cls-20{fill:#9f4616;opacity:0.8;}.cls-21{fill:#330e03;}</style></defs><g class="cls-1"><g id="Layer_1" data-name="Layer 1"><path class="cls-2" d="M614.87,588.92c-22.38-37.49-59.71-59.2-100.88-70.75-45.41-12.74-95.66-15.29-141.49-3.6a128.42,128.42,0,0,0-48.63,24.23c-8.56,6.86-14.72,15.69-20.38,25a183.17,183.17,0,0,0-14.42,16.65c-24.5,31.8-37.7,73.4-44.53,112.44-4.08,23.4-3.71,47.33-4.29,71-.58,24,.35,47.95,6.37,71.31,10,38.83,32.75,79.78,65.47,103.63,71.43,52.09,169.36,54.85,238.84-1.57,31.19-25.35,57.7-58.05,74.62-94.51,19.05-41.05,21.24-88.91,21.11-133.37C646.51,667.37,636.44,625.08,614.87,588.92Z"/><path class="cls-3" d="M566.55,912.47c-37.46,38.75-86.57,59.95-140.82,58.42-24.49-.69-47.56-9.71-69.51-19.51-22.5-10-43-20.89-60.17-39-34.34-36.07-49.35-90.13-50.31-138.48-1.08-53.28,3.53-102.49,23.24-152.42a173.17,173.17,0,0,1,29.27-48.94c-5,8.58-10.16,17.16-16.74,24.55-.85,1,.17,1.88,1.06,1,11.93-11.72,19.49-26.21,29-39.4,1-.9,1.94-1.87,3-2.74,20.82-18.19,46.44-24.13,72.33-31.2.41-.12.67-1,.12-.8-19.49,5-38.48,9.06-56.29,18.73a104.82,104.82,0,0,0-13.78,9.09c1.87-2.23,3.83-4.42,5.91-6.49,17.56-17.51,43.72-25.7,67.58-29.45,51.45-8.1,108.21-1.4,155.79,20.37,93.42,42.74,102.91,159,88.4,248.19C626.31,835.18,601.9,875.88,566.55,912.47Z"/><path class="cls-4" d="M546.2,536.22c-47.58-21.77-104.34-28.47-155.79-20.37-23.86,3.75-50,11.94-67.58,29.45-2.08,2.07-4,4.26-5.91,6.49a104.82,104.82,0,0,1,13.78-9.09C348.51,533,367.5,529,387,524c.55-.16.29.68-.12.8-25.89,7.07-51.51,13-72.33,31.2-1,.87-2,1.84-3,2.74-9.52,13.19-17.08,27.68-29,39.4-.89.89-1.91,0-1.06-1,6.58-7.39,11.7-16,16.74-24.55A173.17,173.17,0,0,0,269,621.51c-19.71,49.93-24.32,99.14-23.24,152.42,1,48.35,16,102.41,50.31,138.48,17.21,18.08,37.67,28.93,60.17,39,21.95,9.8,45,18.82,69.51,19.51,54.25,1.53,103.36-19.67,140.82-58.42,35.35-36.59,59.76-77.29,68.05-128.06C649.11,695.26,639.62,579,546.2,536.22ZM498.07,723.9c-6.82,18.34-14.27,37-26.37,52.57-1.12,1.46-3.9.26-3.71-1.53,1.07-9.68,4.17-18.57,7.61-27.52-13.41,10.83-19.66,28.28-28.52,42.76-.89,1.44-3.68,1.44-4-.51-1.9-12.56-.12-25.07,0-37.65-6,7.25-9.11,16.33-12.47,25.15a2.2,2.2,0,0,1-4,.53,116,116,0,0,1-10.1-17.05,62.56,62.56,0,0,1-1.74,15.69,2.19,2.19,0,0,1-4,.53c-9.21-16.43-23.87-29-32.47-45.8-.58-1.12-.16-2.93,1.3-3.18,3.78-.63,7.56-1.11,11.36-1.4a73.19,73.19,0,0,1-2-8.41c-.24-1.27.56-2.91,2.08-2.76,17.27,1.66,30.47,12.73,37.86,27.8,3.4-5.66,6.19-13.83,11.81-16.28,4.16-1.81,7.69,2.77,10.05,6.7,1.59-3.53,3.19-7,5-10.48,1-1.84,3.31-1.07,4,.51,2,4.79,3.1,9.76,4.46,14.71,11.51-2.67,20-12.09,30.63-16.83C496.42,720.76,498.81,721.9,498.07,723.9Z"/><path class="cls-4" d="M607.29,596c-14.83,9.46-16.54,31.26-18.53,47.05-1.54,12.38-2.42,25.73-7.42,37.3-13.57,31.26-46.94,43.3-70,65.72-15.27,14.8-32,32.73-42.69,51.21-9.84,17-12.35,36.48-18.83,54.8-.55,1.55-3.15,2.41-4,.52-4-9.3-5.85-19.25-8.64-28.91,0,12.32.47,24.66-.63,37a2.19,2.19,0,0,1-4.28.59c-10.89-35.2-28.37-69.71-55-95.64,3,14.44,14.25,46.69,1.93,48.37-8.15,1.11-16.36-7.62-21.67-12.64-8.48-8-16-16.85-24.11-25.19-27.43-28.23-52.15-58.59-66-96a267.75,267.75,0,0,1-8.78-27.84c-11,39.56-13.76,79.27-12.91,121.57,1,48.35,16,102.41,50.31,138.48,17.21,18.08,37.67,28.93,60.17,39,21.95,9.8,45,18.82,69.51,19.51,54.25,1.53,103.36-19.67,140.82-58.42,35.35-36.59,59.76-77.29,68.05-128.06,10-61.22,8.61-135.25-23.47-189.48A8.09,8.09,0,0,0,607.29,596Z"/><path class="cls-3" d="M704.16,887.91c1.77-17.25-10.23-27.89-15.6-31.76,4,1.94,13.4,3.94,31.09-4.12-29.47-13-42.89-64.95-42.89-64.95a68.36,68.36,0,0,0,16.61,8.12c14-31.15-9-71.76-9-71.76s12.27,7.94,27.57,6.42c-11.16-14-23.06-30.6,0-80.07,19.51-41.87,5.45-84.06.68-96,2.77,5.89,9.08,16.12,14.3,1.67,6.91-19.11-33-82.07-33-82.07s8.8,10.81,15.37.36c5.3-8.48-1.29-16.73-28.15-32.57a121.48,121.48,0,0,0-20.32,10.92,348.49,348.49,0,0,0-38.68,31.11c-4.47,4.12-9.11,8.41-13.77,12.88a1.92,1.92,0,0,1,1,3.09,39.37,39.37,0,0,1-14.89,10.94c-.94,1-1.87,2-2.79,3,8,7.4,15,15.62,18.91,26.2a1.84,1.84,0,0,1-2.21,2.28c-7.61-3-15.55-3.74-23.52-4.6a50.93,50.93,0,0,1,22.45,29.84c4.35,15.49,0,32.44-6.65,46.79,8.77,47.72-37.9,91.42-63.88,132.12a329.48,329.48,0,0,0-3.48,39.48l17.17-14.92c-10.19,14.35-22.66,30.77-13.77,46.83s4,38.9,4,38.9,6.8-6.23,19.27-22.66c-17.18,34.92,13.24,96.31,13.24,96.31s-8,12.26,8.31,39.09,49.28,37.37,58.91,16c9.26,7.37,31.17,14,44-1.13,4.53,5.86,25.49,14.15,37.39-19.27S735.13,896.22,704.16,887.91Z"/><path class="cls-5" d="M726.47,903c-4.19-8-11.11-13.49-20.56-16.32.81-12.64-5.44-21.78-11-27.27a40,40,0,0,0,14.39-1.77,78.61,78.61,0,0,0,11-4.13,1.64,1.64,0,0,0,0-3c-23.62-10.44-36.87-47.29-40.74-59.72a69.53,69.53,0,0,0,13.3,6,1.66,1.66,0,0,0,2-.89c11.49-25.64-1.08-56.83-6.71-68.56A47.45,47.45,0,0,0,712,731.49a1.62,1.62,0,0,0,1.37-1,1.65,1.65,0,0,0-.23-1.68c-10.22-12.79-22.92-28.7.2-78.33,15.9-34.16,9.75-68.57,4.27-87a5.14,5.14,0,0,0,4.4.77c2.51-.71,4.59-3.43,6.34-8.27,5.78-16-18.69-59.5-28.9-76.58a8.41,8.41,0,0,0,5.13.21c2.28-.65,4.3-2.35,6-5a10.91,10.91,0,0,0,1.58-8.91c-1.73-6.54-9.93-13.84-29.29-25.34-1.25.51-2.45,1.1-3.69,1.65,19.72,11.53,28.25,18.7,29.78,24.54a9.1,9.1,0,0,1-5.27,9.91c-4.13,1.17-8.56-4.08-8.6-4.14a1.65,1.65,0,0,0-2.67,1.94c.38.61,39.39,62.48,32.83,80.62-1.77,4.89-3.34,6-4.13,6.22-1.78.51-4.58-2.63-7.13-8-.84-2.16-1.43-3.39-1.43-3.39a1.65,1.65,0,0,0-3.05,1.27s.56,1.53,1.51,3.53c4.65,11.71,18.51,53.4-.67,94.61-21,45.23-13.86,63.37-1.73,79.29a46.41,46.41,0,0,1-23.44-6.34,1.68,1.68,0,0,0-2,.19,1.65,1.65,0,0,0-.31,2c.24.4,21.8,39,9.59,68.91a66.37,66.37,0,0,1-14.72-7.43,1.67,1.67,0,0,0-2.58,1.76c.56,2.08,13,49.17,40.57,64.44a75.17,75.17,0,0,1-7.28,2.55c-10.58,3-16.51,1.43-19.12.22a22.44,22.44,0,0,0-2.49-1.66,1.65,1.65,0,0,0-1.25-.13,1.7,1.7,0,0,0-.85.57,1.64,1.64,0,0,0,.09,2.13,10.15,10.15,0,0,0,3.1,2.08c4.77,3.48,16.27,13.7,14.59,30.06a1.66,1.66,0,0,0,1.23,1.77c9.2,2.46,15.85,7.52,19.81,15,6.8,13,5.62,34-3.37,59.29-4.56,12.81-11,20.74-18.75,22.93-7,2-13.56-1.27-15.76-4.12a1.68,1.68,0,0,0-1.29-.65,1.6,1.6,0,0,0-1.28.6,23.45,23.45,0,0,1-11.58,7.5c-11.81,3.37-24.49-2.1-30.14-6.61a1.65,1.65,0,0,0-1.42-.31,1.67,1.67,0,0,0-1.12.92A16.58,16.58,0,0,1,628,993.75c-13.85,4-34.13-7.62-45.17-25.84-15.4-25.42-8.39-37.24-8.33-37.36a1.61,1.61,0,0,0,.08-1.6c-.29-.62-29.85-61.07-13.24-94.85a1.66,1.66,0,0,0-.62-2.14,1.68,1.68,0,0,0-2.19.41c-7,9.31-12.3,15.34-15.48,18.78.94-7.85,1.58-23-5-34.83-8.06-14.55,2.89-29.94,12.55-43.51l1.11-1.57a1.65,1.65,0,0,0-2.42-2.2L535,781.49a345.62,345.62,0,0,1,4-39.16c-1.58,2.36-3.1,4.7-4.52,7a334.55,334.55,0,0,0-2.87,35.38,1.67,1.67,0,0,0,0,.94,1.79,1.79,0,0,0,2.07,1.12,1.41,1.41,0,0,0,.67-.35l7.17-6.23c-7.75,11.91-13.44,24.77-6.29,37.69,7.85,14.22,4.44,34.39,3.85,37.38a1.63,1.63,0,0,0-.1,1.19,1.66,1.66,0,0,0,2.07,1.14,2.44,2.44,0,0,0,.7-.38c.22-.22,4.75-4.4,13.1-14.76-8.35,33.66,13.15,80.32,16.44,87.13-1.58,3.36-5.67,16.22,8.74,40,12,19.73,33.45,31.72,48.92,27.31a19.68,19.68,0,0,0,12-9.63c7.88,5.44,20.64,9.07,31.49,6a26.54,26.54,0,0,0,12-7.18,19.62,19.62,0,0,0,18,3.87c6.12-1.76,14.7-7.52,20.95-25C729.87,946.45,735.77,920.71,726.47,903Z"/><path class="cls-6" d="M607.27,566.83a50.83,50.83,0,0,0-21.64-29.28c15.31,4.61,21.82,15.53,26.61,32.55,4,14.12-.83,27.57-9.71,39.15C608.06,595.91,611.19,580.77,607.27,566.83Z"/><path class="cls-6" d="M609.14,499.36a39.44,39.44,0,0,1-14.7,10.71l-.89,1c6.59-2.5,13-7.46,18-11.49C610.74,499.5,609.93,499.41,609.14,499.36Z"/><path class="cls-6" d="M592,512.68c-.13.15-.26.3-.39.43,8,7.4,15,15.62,18.91,26.2a1.84,1.84,0,0,1-2.21,2.28,65.17,65.17,0,0,0-14.76-3.53c4.38,1.66,8.62,4.35,12.35,5.85,1.4.55,3.59,1.14,4.94-.09C620.56,534.86,603.8,521.11,592,512.68Z"/><path class="cls-6" d="M623.54,729.13C628.33,717,634,700,631.48,686.84c-.28-1.46,2.1-.79,2.39.25,2,7.57.29,15.18-.89,22.8a100.8,100.8,0,0,1-3.3,14.32,58.79,58.79,0,0,0,9.59-13.74c.76-1.51,3.68,0,3.46,1.42-1.09,7.28-9.65,16.63-16,19.81C625.32,732.41,622.89,730.74,623.54,729.13Z"/><path class="cls-6" d="M570.22,724.79c2.76-2.86,4.3-7.28,5.84-10.87.5-1.13,2.84.1,2.36,1.25a73.7,73.7,0,0,1-4.28,9.23c-.91,1.55-2.92,3.15-3.83,5,3.45-1,7-1.88,10.1-3.56,1.25-.65,3.45,1.08,2.4,2.35-1.47,1.76-3.65,2.22-5.81,2.73l-8,1.86a2.07,2.07,0,0,1-2.21-1.43C566.43,728.46,568.41,726.69,570.22,724.79Z"/><path class="cls-6" d="M596.59,801.26c2.71,1.63,5.44,3.11,8,4.82-2.88-7.36-3.71-16.46-3.94-23.71-.06-1.23,2.42-.51,2.48.51a75.49,75.49,0,0,0,2,13.81c1.11,4.5,2.08,9.82,4.65,13.69,1.31,1.93-1.41,2.19-2.51,1-3.45-3.65-8.12-5.43-12.14-8.31C593.55,802,595.13,800.37,596.59,801.26Z"/><path class="cls-6" d="M571.42,932.55c2.31-10,13.51-10.81,21.86-13.44,3.25-1,6.68-.45,10,.23,2.23.48,9.21,4.65,11.93,5,3.79-16.48,17.63-27.24,35-31.49,10.83-2.64,21.37,3.36,29.5,11.4,0-.16-.08-.29,0-.48,3.28-10.19,14.55-15,24.38-15.66,1.69-.1,2.52,2.26,1.15,2.29-5.14,1.29-9.52,2.19-14,5.27-3.85,2.64-5.28,7.37-8.87,9.9a1.53,1.53,0,0,1-1.23.16A68.56,68.56,0,0,1,691,919c11.24,19.81,5.71,47.87-5.17,66.52-.58,1-2.51-.08-2.1-1.12,6.16-15.87,10.51-31.17,9-48.3-2-23.17-24.62-47.14-48.78-37.64-17.58,6.94-26.62,21.08-25.56,39.72A130.66,130.66,0,0,0,622,960.62c2.85,12,11.71,18.81,21,25.62,2.32,1.7-.46,3.35-2.38,2-19.46-13.61-26.76-31.07-26.51-55.15a41.7,41.7,0,0,1,.7-6.92c-3.27-.22-6.41-2.73-9.51-3.62-9.48-2.77-26.11,2-30,11.61C574.57,935.84,571.06,934.16,571.42,932.55Z"/><path class="cls-4" d="M608.34,541.59c-7.61-3-15.55-3.74-23.52-4.6a50.93,50.93,0,0,1,22.45,29.84c4.35,15.49,0,32.44-6.65,46.79a70.08,70.08,0,0,1-1.26,30.18c15.59-21,35.5-40.53,36.09-67.34a1.71,1.71,0,0,1,.38-1c-3.74-6.86-9.49-13.14-13.29-20.09a1.83,1.83,0,0,1,1.06-2.7c6.53-1.49,12.78-.51,18.74,1.74-5.34-15.76-16.76-28.61-31.85-36.9a1.84,1.84,0,0,1,.38-3.36c12.73-3.37,25.83-3.49,37.81,1.4-9.82-11.69-21.74-19.11-35.39-24.23-1.67,1.56-3.33,3.15-5,4.76a1.92,1.92,0,0,1,1,3.09A39.09,39.09,0,0,1,594.5,510l-2.86,3.11c8,7.4,15,15.62,18.91,26.2A1.84,1.84,0,0,1,608.34,541.59Z"/><path class="cls-4" d="M704.16,887.91c1.77-17.25-10.23-27.89-15.6-31.76,4,1.94,13.4,3.94,31.09-4.12-29.47-13-42.89-64.95-42.89-64.95a68.36,68.36,0,0,0,16.61,8.12c14-31.15-9-71.76-9-71.76s12.27,7.94,27.57,6.42c-11.16-14-23.06-30.6,0-80.07,19.51-41.87,5.45-84.06.68-96,2.77,5.9,9.08,16.13,14.3,1.68,6.91-19.11-33-82.07-33-82.07s8.8,10.81,15.37.36c5.3-8.48-1.29-16.73-28.15-32.57a130.83,130.83,0,0,0-14.86,7.52c1.51.82,3,1.68,4.59,2.42a1.85,1.85,0,0,1-.4,3.36,54.7,54.7,0,0,1-14.61,1.17c-1,.69-1.93,1.37-2.86,2.07a97.12,97.12,0,0,1,32.74,34.73,1.84,1.84,0,0,1-2,2.72c-7.77-1.84-15.38-4.24-23.23-5.07,25.23,20.6,45.55,47,46.92,81.08,1.64,40.83-32.44,75-22.58,116.49a1.84,1.84,0,0,1-3,1.83c-11.22-11.36-18.46-26.28-22.54-41.77A120.74,120.74,0,0,0,661.33,678a2,2,0,0,1-.86,2.06c8.15,20.32,16.47,40.45,15.94,63a1.84,1.84,0,0,1-3.39,1,157.11,157.11,0,0,0-13.86-18.26c4.78,11.16,9,22.41,9.75,34.81,1.37,20.68-7.33,39.52,4.41,58.94a1.83,1.83,0,0,1-2,2.71c-16.58-4.67-26.08-21.08-35.75-34.74,1.74,9.5,5.71,18.13,9.71,27.14.64,1.46-.76,3.73-2.45,2.55-19.86-13.65-36.3-31-43.4-54.46-3.84-12.69-4.54-26.3-3.61-39.43a67.94,67.94,0,0,1,3.59-18.19c2.06-5.64,4.85-10.94,5.87-16.83-7.78,2.59-14,7.57-20.52,12.64A1.83,1.83,0,0,1,582,699.8a54.62,54.62,0,0,1-.7-16.84c-13.78,21.75-31.71,42.64-44.58,62.78a329.48,329.48,0,0,0-3.48,39.48l17.17-14.92c-10.19,14.35-22.66,30.77-13.77,46.83s4,38.9,4,38.9,6.8-6.23,19.27-22.66c-17.18,34.92,13.24,96.31,13.24,96.31s-8,12.26,8.31,39.09,49.28,37.37,58.91,16c9.26,7.37,31.17,14,44-1.13,4.53,5.86,25.49,14.15,37.39-19.27S735.13,896.22,704.16,887.91ZM613.09,952.3c-1.2,9.3-9.74,13.2-17.7,8.09-13-8.36-10.76-41.18,6.89-32.54v0h0a20,20,0,0,1,2.05,1.12,2,2,0,0,1,.64.7C611.14,934.84,614.06,944.74,613.09,952.3Zm57.18,10.62c-23.08,1.85-36.86-20.8-36.75-41.59a21.21,21.21,0,0,1,13.32-19.86,18.57,18.57,0,0,1,14.07.3C691.74,899,707.62,959.92,670.27,962.92Zm42-1.29c-5.34,0-6.74-4.73-7.24-9.4-.41-4.07-.42-8.14-.54-12.25-.23-8.35-4.32-16.61-7.51-24.14-2.08-4.85-5.26-15,1.43-18.34a12,12,0,0,1,10.65,0,1.52,1.52,0,0,1,1.67-.38c13.45,4.5,15.13,22.68,14.94,34.67C725.55,939.34,723.71,961.57,712.26,961.63Z"/><path class="cls-4" d="M704.16,887.91c1.77-17.25-10.23-27.89-15.6-31.76,3.21,1.54,9.84,3.09,21.28-.37a55.89,55.89,0,0,1-6.55-.95c-14.53-3-27.67-11.54-40.46-18.92,2.75,11.17,10.31,20.81,13,32.12a1.85,1.85,0,0,1-2.66,2.1c-12.87-7.5-22.79-18-33-28.67-.76,12.21,3.27,23.77,4.93,35.84a1.82,1.82,0,0,1-2.28,1.79c-16.17-5.34-27.76-16.88-33.13-32.58-3.81,10.75-4.91,22.19-7.68,33.26-.41,1.66-2.39,1.66-3.33.48-17.63-22.37-23.65-57.18-15.88-84.92a49.9,49.9,0,0,0-10.67,13,1.84,1.84,0,0,1-3.35-.39c-6.83-22.25-3.54-43,4-63.24,2.59-13,8-25.23,17.42-35.2-7.19,1.9-14.29,3.87-21,7.23a1.85,1.85,0,0,1-2.71-1.07,72.23,72.23,0,0,1-1.37-9.4c-9.93,13.46-20.18,26.59-28.38,39.43a329.48,329.48,0,0,0-3.48,39.48l17.17-14.92c-10.19,14.35-22.66,30.77-13.77,46.83s4,38.9,4,38.9,6.8-6.23,19.27-22.66c-17.18,34.92,13.24,96.31,13.24,96.31s-8,12.26,8.31,39.09,49.28,37.37,58.91,16c9.26,7.37,31.17,14,44-1.13,4.53,5.86,25.49,14.15,37.39-19.27S735.13,896.22,704.16,887.91ZM613.09,952.3c-1.2,9.3-9.74,13.2-17.7,8.09-13-8.36-10.76-41.18,6.89-32.54v0h0a20,20,0,0,1,2.05,1.12,2,2,0,0,1,.64.7C611.14,934.84,614.06,944.74,613.09,952.3Zm57.18,10.62c-23.08,1.85-36.86-20.8-36.75-41.59a21.21,21.21,0,0,1,13.32-19.86,18.57,18.57,0,0,1,14.07.3C691.74,899,707.62,959.92,670.27,962.92Zm42-1.29c-5.34,0-6.74-4.73-7.24-9.4-.41-4.07-.42-8.14-.54-12.25-.23-8.35-4.32-16.61-7.51-24.14-2.08-4.85-5.26-15,1.43-18.34a12,12,0,0,1,10.65,0,1.52,1.52,0,0,1,1.67-.38c13.45,4.5,15.13,22.68,14.94,34.67C725.55,939.34,723.71,961.57,712.26,961.63Z"/><path class="cls-4" d="M600.62,613.62a67.22,67.22,0,0,1,.41,21.86c14.27-17.65,21.27-36.77,13.3-59.1a76.16,76.16,0,0,0-11.67-20.72,52.33,52.33,0,0,1,4.61,11.17C611.62,582.32,607.27,599.27,600.62,613.62Z"/><path class="cls-7" d="M678.29,615.72c4-19.23,1.39-35.75-1.44-54.8-3.18-21.38-3.29-41.45-16.29-59.91-.56-.75.41-1.27,1-.82,18.85,13.46,31.83,29.12,36.72,51.92,4.8,22.4-4.41,46.75-15.59,65.74C681.56,619.79,677.89,617.69,678.29,615.72Z"/><path class="cls-7" d="M652.85,759.58c2-10.9-2-25.05-5.74-35.47-.24-.7.72-.59,1-.21,13.88,18.66,18.1,39.43,10,61.7-1,2.62-5.09,1-5.31-1.36C652,776.12,651.42,767.64,652.85,759.58Z"/><path class="cls-7" d="M645,663.21c.52-4.09,1.06-8.06,3.15-11.65,2.31-4,5.71-7,7.75-11.26.29-.63,1.27.09,1.24.58-.51,7.45-3.44,13.86-3.33,21.48.15,7.88,2.3,15.63,3.21,23.43.38,3.46-4.7,2.42-5.86.46C647,679.44,644,671.32,645,663.21Z"/><path class="cls-7" d="M660,908.28c8,1.63,14.19,5.11,19.26,11.6,4.26,5.46,9.06,16.76,3,22.29-2.16,2-5.92.38-7.73-1.22-4.33-3.78-5.7-8.67-6.63-14.16-1.14-6.59-3.62-12.6-8.26-17.45C659.16,908.92,659.21,908.13,660,908.28Z"/><path class="cls-7" d="M711.4,915.58c-.25-3.71-.51-7.39-.95-11.08-.11-1,1.23-.6,1.57-.13,4.32,6,15.79,20.46,6.43,26.68-2.63,1.75-5.92-.6-6.67-3.23C710.64,923.69,711.68,919.81,711.4,915.58Z"/><path class="cls-3" d="M376.28,780.37c-22.34-33.26-40-70.39-48.32-109.68-2.54-12.11-5.73-25.43-7.45-38.84a77.91,77.91,0,0,1-9.72-14.64c-7.59-15.05-13.08-33.59-8.38-50.38A51,51,0,0,1,324.88,537c-8,.86-15.93,1.65-23.54,4.6a1.83,1.83,0,0,1-2.2-2.28c3.94-10.58,10.92-18.8,18.92-26.2l-2.79-3a39.37,39.37,0,0,1-14.89-10.94,1.92,1.92,0,0,1,1-3.09c-4.66-4.47-9.3-8.76-13.75-12.88A350.56,350.56,0,0,0,249,452.07a120.89,120.89,0,0,0-20.34-10.92c-26.86,15.84-33.44,24.09-28.11,32.57,6.54,10.45,15.35-.36,15.35-.36s-39.92,63-33,82.07c5.24,14.45,11.55,4.22,14.34-1.67-4.79,12-18.86,54.16.64,96,23,49.47,11.14,66.1,0,80.07,15.29,1.52,27.58-6.42,27.58-6.42s-23,40.61-9.08,71.76a67.9,67.9,0,0,0,16.61-8.12S219.52,839,190.05,852c17.68,8.06,27,6.06,31.08,4.12-5.36,3.87-17.37,14.51-15.59,31.76-31,8.31-29.48,43.05-17.59,76.48s32.86,25.13,37.38,19.27c12.85,15.11,34.76,8.5,44,1.13,9.62,21.35,42.67,10.77,58.91-16s8.31-39.09,8.31-39.09,30.42-61.39,13.25-96.31C362.26,849.8,369.06,856,369.06,856s-4.9-22.86,4-38.9-3.56-32.48-13.76-46.83l17.15,14.92S376.42,783.45,376.28,780.37Z"/><path class="cls-5" d="M378,783c-1.2-1.76-2.38-3.54-3.57-5.32.08,1.46.14,2.73.2,3.81L360.36,769a1.69,1.69,0,0,0-2.22,0,1.67,1.67,0,0,0-.23,2.18l1.11,1.57c9.66,13.57,20.61,29,12.55,43.51-6.54,11.86-5.89,27-4.94,34.83-3.19-3.44-8.44-9.47-15.49-18.78A1.68,1.68,0,0,0,349,832a1.65,1.65,0,0,0-.61,2.14C365,867.88,335.39,928.33,335.08,929a1.68,1.68,0,0,0,.09,1.6c.07.12,7.06,11.94-8.32,37.36-11,18.22-31.3,29.81-45.17,25.84a16.6,16.6,0,0,1-10.83-9.65,1.66,1.66,0,0,0-2.54-.61c-5.64,4.51-18.34,10-30.13,6.61a23.45,23.45,0,0,1-11.58-7.5,1.63,1.63,0,0,0-2.57,0c-2.2,2.85-8.74,6.13-15.78,4.12-7.71-2.19-14.17-10.12-18.74-22.93-9-25.26-10.18-46.31-3.36-59.29,3.94-7.51,10.6-12.57,19.81-15a1.68,1.68,0,0,0,1.23-1.77c-1.68-16.36,9.82-26.58,14.58-30.06a10.45,10.45,0,0,0,3.11-2.08,1.65,1.65,0,0,0,.07-2.13,1.59,1.59,0,0,0-.84-.57,1.68,1.68,0,0,0-1.26.13,25.56,25.56,0,0,0-2.48,1.66c-2.6,1.21-8.54,2.81-19.09-.22a72.75,72.75,0,0,1-7.3-2.55c27.57-15.27,40-62.36,40.55-64.44a1.65,1.65,0,0,0-2.56-1.76,67.38,67.38,0,0,1-14.74,7.43c-12.2-29.86,9.37-68.51,9.59-68.91a1.64,1.64,0,0,0-.29-2,1.69,1.69,0,0,0-2-.19,46.29,46.29,0,0,1-23.42,6.34c12.12-15.92,19.33-34.06-1.75-79.29-19.18-41.21-5.32-82.9-.66-94.61,1-2,1.5-3.53,1.5-3.53a1.67,1.67,0,0,0-.91-2.09,1.69,1.69,0,0,0-2.15.82s-.57,1.23-1.43,3.39c-2.54,5.38-5.34,8.52-7.13,8-.78-.22-2.36-1.33-4.11-6.22-6.57-18.14,32.43-80,32.83-80.62a1.65,1.65,0,0,0-2.67-1.94c-.05.06-4.47,5.31-8.62,4.14a9.19,9.19,0,0,1-5.25-9.91c1.55-5.84,10.06-13,29.78-24.54-1.24-.55-2.45-1.14-3.71-1.65-19.36,11.5-27.56,18.8-29.28,25.34a10.88,10.88,0,0,0,1.6,8.91c1.67,2.68,3.68,4.38,6,5a8.45,8.45,0,0,0,5.14-.21C200,496.5,175.54,540,181.3,556c1.76,4.84,3.83,7.56,6.34,8.27a5.17,5.17,0,0,0,4.42-.77c-5.5,18.42-11.63,52.83,4.27,87,23.1,49.63,10.4,65.54.2,78.33a1.65,1.65,0,0,0,1.12,2.67,47.51,47.51,0,0,0,23.87-4.16c-5.65,11.73-18.2,42.92-6.71,68.56a1.64,1.64,0,0,0,2,.89,69.82,69.82,0,0,0,13.3-6c-3.88,12.43-17.14,49.28-40.73,59.72a1.61,1.61,0,0,0-1,1.49,1.66,1.66,0,0,0,1,1.51,80.14,80.14,0,0,0,11,4.13,40,40,0,0,0,14.38,1.77c-5.5,5.49-11.76,14.63-10.95,27.27-9.45,2.83-16.36,8.32-20.55,16.32-9.3,17.69-3.42,43.43,3.15,61.94,6.25,17.49,14.84,23.25,21,25a19.65,19.65,0,0,0,18-3.87,26.59,26.59,0,0,0,12,7.18c10.85,3.09,23.61-.54,31.48-6a19.73,19.73,0,0,0,12,9.63c15.46,4.41,36.95-7.58,48.92-27.31,14.39-23.77,10.31-36.63,8.74-40,3.29-6.81,24.78-53.47,16.43-87.13C363.2,852.86,367.72,857,368,857.26a2.46,2.46,0,0,0,.68.38,1.66,1.66,0,0,0,2-2.33c-.55-3-4-23.16,3.86-37.38,7.16-12.92,1.46-25.78-6.28-37.69l7.15,6.23a1.55,1.55,0,0,0,.67.35,1.79,1.79,0,0,0,2.08-1.12,1.87,1.87,0,0,0,0-.94C378.09,784.37,378.06,783.76,378,783Z"/><path class="cls-6" d="M302.41,566.83a50.78,50.78,0,0,1,21.66-29.28c-15.31,4.61-21.82,15.53-26.59,32.55-4,14.12.81,27.57,9.67,39.15C301.63,595.91,298.51,580.77,302.41,566.83Z"/><path class="cls-6" d="M300.57,499.36a39,39,0,0,0,14.69,10.71l.89,1c-6.59-2.5-13-7.46-18-11.49C299,499.5,299.75,499.41,300.57,499.36Z"/><path class="cls-6" d="M317.65,512.68c.15.15.26.3.41.43-8,7.4-15,15.62-18.92,26.2a1.83,1.83,0,0,0,2.2,2.28,65.33,65.33,0,0,1,14.78-3.53c-4.4,1.66-8.62,4.35-12.35,5.85-1.42.55-3.59,1.14-4.92-.09C289.14,534.86,305.9,521.11,317.65,512.68Z"/><path class="cls-6" d="M286.16,729.13c-4.8-12.12-10.49-29.14-8-42.29.29-1.46-2.11-.79-2.38.25-2,7.57-.3,15.18.89,22.8a99.45,99.45,0,0,0,3.3,14.32,59.21,59.21,0,0,1-9.61-13.74c-.76-1.51-3.66,0-3.44,1.42,1.08,7.28,9.63,16.63,16,19.81C284.38,732.41,286.79,730.74,286.16,729.13Z"/><path class="cls-6" d="M339.46,724.79c-2.74-2.86-4.28-7.28-5.84-10.87-.5-1.13-2.82.1-2.34,1.25a69.67,69.67,0,0,0,4.28,9.23c.89,1.55,2.92,3.15,3.81,5-3.43-1-6.95-1.88-10.09-3.56-1.24-.65-3.46,1.08-2.39,2.35,1.47,1.76,3.63,2.22,5.81,2.73l8,1.86a2.07,2.07,0,0,0,2.18-1.43C343.27,728.46,341.28,726.69,339.46,724.79Z"/><path class="cls-6" d="M313.09,801.26c-2.69,1.63-5.42,3.11-8,4.82,2.89-7.36,3.7-16.46,4-23.71,0-1.23-2.44-.51-2.5.51a76.39,76.39,0,0,1-2,13.81c-1.09,4.5-2,9.82-4.64,13.69-1.3,1.93,1.4,2.19,2.51,1,3.44-3.65,8.11-5.43,12.14-8.31C316.16,802,314.56,800.37,313.09,801.26Z"/><path class="cls-6" d="M338.26,932.55c-2.3-10-13.49-10.81-21.84-13.44-3.27-1-6.68-.45-9.95.23-2.24.48-9.23,4.65-11.94,5-3.8-16.48-17.62-27.24-34.94-31.49-10.84-2.64-21.38,3.36-29.51,11.4,0-.16.08-.29,0-.48-3.3-10.19-14.57-15-24.38-15.66-1.69-.1-2.54,2.26-1.15,2.29,5.12,1.29,9.5,2.19,13.95,5.27,3.84,2.64,5.29,7.37,8.86,9.9a1.6,1.6,0,0,0,1.26.16A69.2,69.2,0,0,0,218.73,919c-11.22,19.81-5.69,47.87,5.17,66.52.59,1,2.51-.08,2.13-1.12-6.19-15.87-10.51-31.17-9-48.3C219,913,241.65,889,265.8,898.48c17.57,6.94,26.62,21.08,25.57,39.72a128.78,128.78,0,0,1-3.65,22.42c-2.84,12-11.69,18.81-21,25.62-2.3,1.7.48,3.35,2.38,2,19.46-13.61,26.76-31.07,26.53-55.15a45.17,45.17,0,0,0-.7-6.92c3.25-.22,6.39-2.73,9.51-3.62,9.46-2.77,26.1,2,30,11.61C335.11,935.84,338.63,934.16,338.26,932.55Z"/><path class="cls-4" d="M376.28,780.37c-22.34-33.26-40-70.39-48.32-109.68-2.54-12.11-5.73-25.43-7.45-38.84a77.91,77.91,0,0,1-9.72-14.64c-7.59-15.05-13.08-33.59-8.38-50.38A51,51,0,0,1,324.88,537c-8,.86-15.93,1.65-23.54,4.6a1.83,1.83,0,0,1-2.2-2.28c3.94-10.58,10.92-18.8,18.92-26.2L315.2,510a38.86,38.86,0,0,1-14.82-10.85,1.92,1.92,0,0,1,1-3.09q-2.52-2.42-5-4.76c-13.65,5.12-25.59,12.54-35.39,24.23,12-4.89,25.08-4.77,37.81-1.4a1.84,1.84,0,0,1,.38,3.36c-15.11,8.29-26.52,21.14-31.86,36.9,6-2.25,12.2-3.23,18.74-1.74a1.83,1.83,0,0,1,1.06,2.7c-3.79,6.95-9.56,13.23-13.28,20.09a1.64,1.64,0,0,1,.36,1c1.09,47.72,63.36,72.44,53.43,123.34a1.82,1.82,0,0,1-2.7,1.07c-6.49-5.07-12.74-10-20.54-12.64,1,5.89,3.83,11.19,5.87,16.83a66.42,66.42,0,0,1,3.59,18.19c.95,13.13.24,26.74-3.59,39.43-7.11,23.47-23.56,40.81-43.4,54.46-1.7,1.18-3.09-1.09-2.45-2.55,4-9,8-17.64,9.71-27.14-9.68,13.66-19.17,30.07-35.77,34.74a1.84,1.84,0,0,1-2-2.71c11.75-19.42,3-38.26,4.41-58.94.81-12.4,5-23.65,9.76-34.81A157.19,157.19,0,0,0,236.67,744a1.85,1.85,0,0,1-3.4-1c-.49-22.53,7.81-42.66,15.94-63a2,2,0,0,1-.84-2.06,121.68,121.68,0,0,0,2.14-30.29c-4.08,15.49-11.32,30.41-22.54,41.77-1.32,1.35-3.43-.12-3-1.83,9.84-41.49-24.2-75.66-22.58-116.49,1.36-34.07,21.68-60.48,46.92-81.08-7.87.83-15.46,3.23-23.23,5.07a1.83,1.83,0,0,1-2-2.72,97.12,97.12,0,0,1,32.74-34.73c-1-.7-1.91-1.38-2.88-2.07a54.52,54.52,0,0,1-14.59-1.17,1.85,1.85,0,0,1-.4-3.36c1.58-.74,3.07-1.6,4.59-2.42a132,132,0,0,0-14.88-7.52c-26.86,15.84-33.44,24.09-28.11,32.57,6.54,10.45,15.35-.36,15.35-.36s-39.92,63-33,82.07c5.24,14.45,11.55,4.22,14.34-1.68-4.79,12-18.86,54.17.64,96,23,49.47,11.14,66.1,0,80.07,15.29,1.52,27.58-6.42,27.58-6.42s-23,40.61-9.08,71.76a67.9,67.9,0,0,0,16.61-8.12S219.52,839,190.05,852c17.68,8.06,27,6.06,31.08,4.12-5.36,3.87-17.37,14.51-15.59,31.76-31,8.31-29.48,43.05-17.59,76.48s32.86,25.13,37.38,19.27c12.85,15.11,34.76,8.5,44,1.13,9.62,21.35,42.67,10.77,58.91-16s8.31-39.09,8.31-39.09,30.42-61.39,13.25-96.31C362.26,849.8,369.06,856,369.06,856s-4.9-22.86,4-38.9-3.56-32.48-13.76-46.83l17.15,14.92S376.42,783.45,376.28,780.37ZM212.73,915.84c-3.19,7.53-7.28,15.79-7.51,24.14-.12,4.11-.12,8.18-.56,12.25-.48,4.67-1.88,9.43-7.24,9.4-11.44-.06-13.28-22.29-13.4-29.82-.18-12,1.49-30.17,15-34.67a1.49,1.49,0,0,1,1.65.38,12,12,0,0,1,10.66,0C218,900.85,214.79,911,212.73,915.84Zm26.7,47.08c-37.37-3-21.47-63.9,9.36-61.15a18.54,18.54,0,0,1,14.06-.3,21.14,21.14,0,0,1,13.31,19.86C276.29,942.12,262.53,964.77,239.43,962.92Zm74.89-2.53c-8,5.11-16.51,1.21-17.72-8.09-1-7.56,2-17.46,8.13-22.61a1.81,1.81,0,0,1,.63-.7,19.12,19.12,0,0,1,2.06-1.12h0v0C325.07,919.21,327.34,952,314.32,960.39Z"/><path class="cls-4" d="M324.31,653.64c-1.48-7.12-2.87-14.43-3.8-21.79a77.91,77.91,0,0,1-9.72-14.64c-7.59-15.05-13.08-33.59-8.38-50.38A51.87,51.87,0,0,1,307,555.66a75.89,75.89,0,0,0-11.67,20.72c-8.07,22.59-.83,41.91,13.78,59.73C314,642,319.3,647.7,324.31,653.64Z"/><path class="cls-4" d="M376.28,780.37a347.75,347.75,0,0,1-34.09-63.52,2.07,2.07,0,0,1-1.69-.07c-6.74-3.36-13.84-5.33-21-7.23,9.4,10,14.82,22.15,17.4,35.2,7.56,20.29,10.83,41,4,63.24a1.83,1.83,0,0,1-3.34.39,50.71,50.71,0,0,0-10.67-13c7.77,27.74,1.74,62.55-15.88,84.92a1.86,1.86,0,0,1-3.34-.48c-2.78-11.07-3.86-22.51-7.67-33.26a51,51,0,0,1-33.14,32.58,1.81,1.81,0,0,1-2.27-1.79c1.65-12.07,5.67-23.63,4.93-35.84-10.17,10.64-20.07,21.17-33,28.67a1.84,1.84,0,0,1-2.65-2.1c2.68-11.31,10.24-20.95,13-32.12-12.78,7.38-25.94,15.89-40.45,18.92a56.84,56.84,0,0,1-6.57.95c11.48,3.46,18.08,1.91,21.29.37-5.36,3.87-17.37,14.51-15.59,31.76-31,8.31-29.48,43.05-17.59,76.48s32.86,25.13,37.38,19.27c12.85,15.11,34.76,8.5,44,1.13,9.62,21.35,42.67,10.77,58.91-16s8.31-39.09,8.31-39.09,30.42-61.39,13.25-96.31C362.26,849.8,369.06,856,369.06,856s-4.9-22.86,4-38.9-3.56-32.48-13.76-46.83l17.15,14.92S376.42,783.45,376.28,780.37ZM212.73,915.84c-3.19,7.53-7.28,15.79-7.51,24.14-.12,4.11-.12,8.18-.56,12.25-.48,4.67-1.88,9.43-7.24,9.4-11.44-.06-13.28-22.29-13.4-29.82-.18-12,1.49-30.17,15-34.67a1.49,1.49,0,0,1,1.65.38,12,12,0,0,1,10.66,0C218,900.85,214.79,911,212.73,915.84Zm26.7,47.08c-37.37-3-21.47-63.9,9.36-61.15a18.54,18.54,0,0,1,14.06-.3,21.14,21.14,0,0,1,13.31,19.86C276.29,942.12,262.53,964.77,239.43,962.92Zm74.89-2.53c-8,5.11-16.51,1.21-17.72-8.09-1-7.56,2-17.46,8.13-22.61a1.81,1.81,0,0,1,.63-.7,19.12,19.12,0,0,1,2.06-1.12h0v0C325.07,919.21,327.34,952,314.32,960.39Z"/><path class="cls-7" d="M231.4,615.72c-4-19.23-1.38-35.75,1.45-54.8,3.18-21.38,3.28-41.45,16.29-59.91.54-.75-.41-1.27-1-.82-18.85,13.46-31.83,29.12-36.73,51.92-4.79,22.4,4.41,46.75,15.6,65.74C228.13,619.79,231.81,617.69,231.4,615.72Z"/><path class="cls-7" d="M256.84,759.58c-2-10.9,2-25.05,5.75-35.47.24-.7-.73-.59-1-.21-13.89,18.66-18.11,39.43-10,61.7.93,2.62,5.08,1,5.31-1.36C257.65,776.12,258.28,767.64,256.84,759.58Z"/><path class="cls-7" d="M264.69,663.21c-.53-4.09-1.05-8.06-3.14-11.65-2.31-4-5.71-7-7.75-11.26-.31-.63-1.29.09-1.26.58.53,7.45,3.48,13.86,3.33,21.48-.15,7.88-2.28,15.63-3.18,23.43-.41,3.46,4.67,2.42,5.87.46C262.64,679.44,265.72,671.32,264.69,663.21Z"/><path class="cls-7" d="M249.71,908.28c-8,1.63-14.19,5.11-19.24,11.6-4.26,5.46-9.08,16.76-3,22.29,2.18,2,5.93.38,7.74-1.22,4.32-3.78,5.69-8.67,6.63-14.16,1.14-6.59,3.62-12.6,8.26-17.45C250.53,908.92,250.47,908.13,249.71,908.28Z"/><path class="cls-7" d="M198.3,915.58c.23-3.71.49-7.39.93-11.08.12-1-1.23-.6-1.56-.13-4.31,6-15.8,20.46-6.42,26.68,2.61,1.75,5.94-.6,6.65-3.23C199.06,923.69,198,919.81,198.3,915.58Z"/><path class="cls-3" d="M668.53,525.3c14.06,3.9,25,.6,25,.6s-13.19-4.89-26.44-30.08c-1.61-4.08-3.34-7.86-5.15-11.46-14,6.44-27.89,13-41.65,19.84-17.93,8.92-35.45,18.51-53.14,27.83-6.2,3.27-12.51,6.39-18.66,9.79A76.19,76.19,0,0,0,566,562c9.26,7.71,23.68,18.69,36.55,17.33,2-.21,2.46,2.35,1.11,3.38a40.92,40.92,0,0,1-21.63,8c6.66,9.55,12.15,19.69,13.69,31.66a1.85,1.85,0,0,1-2.68,1.73c-6.78-4.63-14.38-7.22-22-9.89a51.23,51.23,0,0,1,15.21,34.38c.79,17.52-8.81,34.44-19.67,47.46-14,16.76-33.64,25.57-54.37,31,1.21,2.7,4.24,6.61,11.77,8.52-40.1,28.79-60,110.13-60,110.13l20.24-10.71c-13.26,11.73-29.23,25-24.18,42.77s-5,39-5,39,8.09-4.55,24.05-17.81c-24.79,30.31-9,97.4-9,97.4s-10.57,10.2-.76,40.2,39.8,47.85,54.09,29.12c7.39,9.35,27.37,20.82,43.37,8.92,3.11,6.78,21.77,19.68,41.05-10.35s28.64-63.76.19-79c5.68-16.52-3.66-29.69-8-34.68,3.51,2.82,12.23,6.9,31.4,3-25.92-19.48-27.23-73.42-27.23-73.42a68.54,68.54,0,0,0,14.42,11.75c20.81-27.36,7.48-72.41,7.48-72.41s10.22,10.59,25.55,12.59C643.86,816,636,797,669.84,753.76c28.63-36.6,24.47-81.15,22.51-94,1.37,6.39,5.23,17.87,13.65,4.9,11.13-17.16-13.65-88-13.65-88s6.18,12.61,15,3.85S707.18,559.35,668.53,525.3Z"/><path class="cls-5" d="M674.38,528.25a53.62,53.62,0,0,0,10.75.55,40.14,40.14,0,0,0,8.86-1.31,1.67,1.67,0,0,0,.1-3.16c-.13,0-12.82-5.11-25.56-29.28-1.58-4-3.29-7.82-5.07-11.39l-3.05,1.41c1.78,3.56,3.53,7.32,5.11,11.35,9.08,17.29,18.13,25.27,23.21,28.7-1.08.15-2.35.28-3.78.35a49.66,49.66,0,0,1-16-1.78,1.66,1.66,0,0,0-1.55,2.85c29.9,26.35,41.1,39.08,41.33,47a7.63,7.63,0,0,1-2.61,5.9,7.72,7.72,0,0,1-4.82,2.61c-4.31.21-7.45-6-7.49-6a1.66,1.66,0,0,0-2.13-.82,1.68,1.68,0,0,0-.93,2.1c.24.7,24.39,70.2,13.82,86.49-2.85,4.4-4.64,5.13-5.47,5.17-1.84.09-3.87-3.62-5.14-9.47-.35-2.32-.65-3.67-.65-3.67a1.66,1.66,0,0,0-1.89-1.27,1.67,1.67,0,0,0-1.39,1.84s.19,1.62.67,3.8c1.91,12.52,6,56.55-22.2,92.56-31,39.54-28,59-19.77,77.32a46.49,46.49,0,0,1-21.51-11.55,1.71,1.71,0,0,0-2-.28,1.68,1.68,0,0,0-.76,1.9c.13.44,12.47,43.24-6.3,69.72a67.64,67.64,0,0,1-12.75-10.63,1.66,1.66,0,0,0-2.9,1.14c0,2.15,1.51,51.14,25.06,72.39a72.73,72.73,0,0,1-7.72.85c-11.07.55-16.51-2.37-18.77-4.15a25.62,25.62,0,0,0-2.08-2.19,1.64,1.64,0,0,0-2.14,0,1.66,1.66,0,0,0-.43,2.1,10.68,10.68,0,0,0,2.59,2.77c3.87,4.48,12.81,17.12,7.44,32.77a1.69,1.69,0,0,0,.79,2c8.45,4.53,13.83,11,16,19.27,3.73,14.26-2.25,34.63-16.79,57.33-7.39,11.52-15.56,17.81-23.61,18.22-7.34.36-13-4.35-14.52-7.65a1.69,1.69,0,0,0-1.1-.92,1.66,1.66,0,0,0-1.41.28,23.48,23.48,0,0,1-13,4.71c-12.33.61-23.53-7.63-28-13.34a1.68,1.68,0,0,0-1.32-.63,1.8,1.8,0,0,0-1.31.66,16.63,16.63,0,0,1-12.79,7c-14.51.72-31.73-15.25-38.39-35.62-9.3-28.42.26-38.41.35-38.51a1.66,1.66,0,0,0,.45-1.56c-.16-.67-15.34-66.64,8.63-96a1.64,1.64,0,0,0-.12-2.23,1.67,1.67,0,0,0-2.24-.1c-9,7.51-15.55,12.23-19.45,14.87,2.72-7.47,6.79-22.16,3.07-35.25-4.59-16.12,9.66-28.7,22.21-39.8l1.46-1.27a1.67,1.67,0,0,0-1.89-2.73l-16.85,8.95c4.44-16.1,24.09-80.89,58.41-105.53a1.67,1.67,0,0,0-.57-3c-6.73-1.71-9.45-5-10.54-7.37-1.08.3-2.18.6-3.27.87,1.11,2.66,3.71,6.38,9.81,8.72C483.05,765.71,464.16,838,462.42,845a1.57,1.57,0,0,0-.23.91,1.81,1.81,0,0,0,1.79,1.58,1.59,1.59,0,0,0,.73-.19l8.44-4.48c-10.31,9.91-18.83,21.22-14.78,35.51,4.47,15.72-3.47,34.72-4.71,37.52a1.66,1.66,0,0,0,1.39,2.71,2,2,0,0,0,.79-.2c.26-.15,5.63-3.23,16.18-11.47-15.85,31.08-5.41,81.72-3.75,89.15-2.3,2.92-9.22,14.59-.54,41.18,7.23,22,25.56,38.71,41.72,37.89a19.81,19.81,0,0,0,14-6.7c6.49,7.13,18.16,13.61,29.49,13a26.48,26.48,0,0,0,13.34-4.32A19.68,19.68,0,0,0,583,1085c6.39-.31,16.13-4,26.23-19.73,10.66-16.63,22.29-40.53,17.23-60-2.31-8.79-7.83-15.74-16.44-20.69,3.68-12.2-.38-22.57-4.53-29.22a40.55,40.55,0,0,0,14.5,1.56,80.18,80.18,0,0,0,11.72-1.55A1.68,1.68,0,0,0,633,954.1a1.69,1.69,0,0,0-.63-1.69C611.61,936.8,607,897.68,606.05,884.6a69.31,69.31,0,0,0,11.68,8.89,1.64,1.64,0,0,0,2.17-.43c17.11-22.49,11.9-55.93,9-68.71a47.92,47.92,0,0,0,22.45,9.52,1.69,1.69,0,0,0,1.56-.67,1.63,1.63,0,0,0,.15-1.69c-7.08-14.85-15.91-33.35,18.06-76.73,23.35-29.85,25.19-65,24-84.29a5.25,5.25,0,0,0,4.15,1.78c2.63-.13,5.27-2.32,8.09-6.67,9.31-14.35-4.76-62.57-10.88-81.65a8.64,8.64,0,0,0,5,1.39,12.5,12.5,0,0,0,10.6-11.94C711.83,564.81,701.84,552.79,674.38,528.25Z"/><path class="cls-6" d="M586.22,648.62A51.12,51.12,0,0,0,571.69,615c13.95,8,17.85,20.19,18.65,38,.67,14.73-7.09,26.83-18.42,36.16C580.37,677.28,586.9,663.16,586.22,648.62Z"/><path class="cls-6" d="M593,624.13a1.85,1.85,0,0,0,2.68-1.73c-1.54-12-7-22.13-13.69-31.67a40.88,40.88,0,0,0,21.4-7.83c.79.25,1.55.53,2.31.75-6.57,3.18-15.21,7.13-23,7.41,9.63,10.83,24.16,29.05,12.25,35.82-1.59.89-3.59-.17-4.84-1-3.33-2.3-6.86-5.91-10.78-8.55A66.23,66.23,0,0,1,593,624.13Z"/><path class="cls-6" d="M566,562c-.77-.66-1.49-1.31-2.22-2-.79-1.47-1.54-3-2.28-4.58,6.94,9.11,17.07,16.18,27,21.18.5.23,1,.46,1.49.71C581,574,572.3,567.28,566,562Z"/><path class="cls-6" d="M608.31,511.52c11.64,7.62,15.75,19.44,19.2,32.27.38,2.07-2.54,1.1-2.89-.32-.76-4-3.56-6.47-7.27-7.59-1.55-.48-2.05-3.11.06-2.6a13.18,13.18,0,0,1,5,2.53c-2.86-8.89-6.8-16.63-14.86-22.94C606.63,512.17,607.26,510.83,608.31,511.52Z"/><path class="cls-6" d="M565.17,811.39c7.48-10.79,16.94-26.17,17.43-39.65.06-1.47,2.25-.29,2.28.79.25,7.9-3.17,15-6,22.15A104.31,104.31,0,0,1,572.33,808a60,60,0,0,0,12.54-11.28c1.08-1.31,3.6.8,3,2.18-2.72,6.9-13.23,14.1-20.19,15.76C566.18,815,564.21,812.81,565.17,811.39Z"/><path class="cls-6" d="M513.92,795c3.37-2.16,5.85-6.16,8.2-9.31.75-1,2.75.74,2,1.76a71.66,71.66,0,0,1-6.29,8.06c-1.23,1.32-3.59,2.44-4.86,4a54,54,0,0,0,10.7-1.2c1.37-.35,3.12,1.85,1.81,2.85-1.86,1.4-4.09,1.35-6.34,1.35-2.74,0-5.49,0-8.23,0a2.06,2.06,0,0,1-1.81-1.91C509.35,797.71,511.72,796.43,513.92,795Z"/><path class="cls-6" d="M522.34,875.94c2.28,2.21,4.63,4.28,6.75,6.54-1.14-7.87.1-17,1.53-24.13.22-1.22,2.48,0,2.31,1a76.5,76.5,0,0,0-1.19,14c0,4.66-.23,10.1,1.44,14.47.83,2.19-1.87,1.84-2.69.42-2.57-4.36-6.75-7.17-10-10.9C519.19,876,521.12,874.73,522.34,875.94Z"/><path class="cls-6" d="M467.78,998.89c4.52-9.33,15.67-7.54,24.46-8.21,3.45-.27,6.66,1.1,9.7,2.5,2.08,1,8,6.66,10.57,7.61C520,985.48,536,978.1,553.92,977.88c11.23-.12,20.19,8.16,26.32,17.9a1.45,1.45,0,0,1,.09-.48c5.54-9.25,17.69-11.44,27.44-9.8,1.69.28,2,2.79.61,2.51-5.31.09-9.81,0-14.87,2-4.37,1.72-6.86,6-11,7.68a1.44,1.44,0,0,1-1.24-.14,70.1,70.1,0,0,1,6.67,15.32c6.5,22-5.33,48.2-20.22,64-.79.83-2.45-.67-1.82-1.59,9.65-14.14,17.4-28.14,19.84-45.29,3.3-23.16-13.41-51.8-39.24-48-18.81,2.79-30.89,14.6-34.12,33.12a130.64,130.64,0,0,0-1.53,22.79c.06,12.35,7.18,21.09,14.74,29.89,1.87,2.18-1.24,3.17-2.79,1.42-16-17.78-19.16-36.55-13.44-60.1a42.82,42.82,0,0,1,2.28-6.61c-3.16-1-5.65-4.13-8.5-5.73-8.64-4.87-26-4-32,4.54C470.11,1002.81,467.05,1000.38,467.78,998.89Z"/><path class="cls-4" d="M588,534a52.32,52.32,0,0,0-10.75-7.37q-3.3,1.77-6.63,3.51C576.41,531.47,582.18,532.92,588,534Z"/><path class="cls-4" d="M668.53,525.3c14.06,3.9,25,.6,25,.6s-13.19-4.89-26.44-30.08c-1.61-4.08-3.34-7.86-5.15-11.46q-8.31,3.84-16.57,7.73a94.94,94.94,0,0,1,4.38,13,1.85,1.85,0,0,1-3,1.94,69.29,69.29,0,0,0-13.21-9.28c-1.14.54-2.28,1.11-3.41,1.66,15.73,16,26.91,36.17,44.71,50.28a1.87,1.87,0,0,1-1.16,3.21c-7.43,0-14.36-2-21.3-4.18A97.15,97.15,0,0,1,680,593.54a1.86,1.86,0,0,1-2.6,2.22c-7.19-3.59-14.1-7.66-21.6-10.26,20,25.93,33.92,56.44,27.5,90.16-7.71,40.37-48.87,66.11-48.67,109a1.86,1.86,0,0,1-3.39,1.1c-8.4-13.69-12.08-30-12.58-46.06a122.53,122.53,0,0,0-4.79,30.18,2,2,0,0,1-1.31,1.81c3.34,21.76,6.92,43.4,1.28,65.35a1.85,1.85,0,0,1-3.53.18,160.72,160.72,0,0,0-9.44-21.07c2.16,12.05,3.66,24,1.63,36.37-3.37,20.55-16.19,37-9.12,58.74a1.85,1.85,0,0,1-2.59,2.22c-15.19-8.37-20.77-26.62-27.1-42.2-.49,9.7,1.46,19.06,3.29,28.8.31,1.57-1.57,3.49-3,1.94-16.34-17.9-28.51-38.64-30.11-63.25-.87-13.32,1.52-26.82,5.47-39.46a66.27,66.27,0,0,1,7.64-17c3.3-5.08,7.23-9.62,9.58-15.18-8.23.79-15.47,4.23-23,7.71a1.82,1.82,0,0,1-2.39-1.65C533.06,721,599.73,711,611.65,664.47a1.81,1.81,0,0,1,.59-.91c-2.07-7.57-6.31-15-8.44-22.71a1.87,1.87,0,0,1,1.66-2.42,32.25,32.25,0,0,1,18,6c-1.64-16.65-9.88-31.85-22.82-43.41a1.86,1.86,0,0,1,1.14-3.21c13.24-.4,26.13,2.48,36.75,10-10.08-19.89-26.57-31.95-47-41.87-13.65-6.66-28.74-14.39-37.91-26.86l-5.14,2.77A76.19,76.19,0,0,0,566,562c9.26,7.71,23.68,18.69,36.55,17.33,2-.21,2.46,2.35,1.11,3.38A40.78,40.78,0,0,1,582,590.68c6.66,9.56,12.18,19.72,13.72,31.72a1.85,1.85,0,0,1-2.68,1.73c-6.78-4.63-14.38-7.22-22-9.89a51.23,51.23,0,0,1,15.21,34.38c.79,17.52-8.81,34.44-19.67,47.46-14,16.76-33.64,25.57-54.37,31,1.21,2.7,4.24,6.61,11.77,8.52-40.1,28.79-60,110.13-60,110.13l20.24-10.71c-13.26,11.73-29.23,25-24.18,42.77s-5,39-5,39,8.09-4.55,24.05-17.81c-24.79,30.31-9,97.4-9,97.4s-10.57,10.2-.76,40.2,39.8,47.85,54.09,29.12c7.39,9.35,27.37,20.82,43.37,8.92,3.11,6.78,21.77,19.68,41.05-10.35s28.64-63.76.19-79c5.68-16.52-3.66-29.69-8-34.68,3.51,2.82,12.23,6.9,31.4,3-25.92-19.48-27.23-73.42-27.23-73.42a68.54,68.54,0,0,0,14.42,11.75c20.81-27.36,7.48-72.41,7.48-72.41s10.22,10.59,25.55,12.59C643.86,816,636,797,669.84,753.76c28.63-36.6,24.47-81.15,22.51-94,1.37,6.41,5.23,17.89,13.65,4.92,11.13-17.16-13.65-88-13.65-88s6.18,12.61,15,3.85S707.18,559.35,668.53,525.3ZM504.1,1027.75c-3.32,8.81-12.56,10.7-19.22,3.88-10.86-11.17-1.13-42.82,14.19-30.32h0a19.28,19.28,0,0,1,1.76,1.58,2.29,2.29,0,0,1,.46.83C506.15,1010.19,506.77,1020.55,504.1,1027.75Zm53.6,23.41c-23-3.44-31.37-28.79-26.52-49.13a21.33,21.33,0,0,1,17.57-16.43,18.65,18.65,0,0,1,13.71,3.49C593.32,993.43,595,1056.75,557.7,1051.16Zm52.93-55.25a1.48,1.48,0,0,1,1.7,0c12.2,7.47,9.68,25.69,6.77,37.4-1.84,7.34-8.7,28.71-19.94,26.17-5.26-1.19-5.52-6.19-4.94-10.86.52-4.1,1.43-8.1,2.25-12.14,1.67-8.24-.45-17.27-1.87-25.38-.9-5.22-1.72-15.88,5.58-17.63A12,12,0,0,1,610.63,995.91Z"/><path class="cls-4" d="M455,916.86s8.09-4.55,24.05-17.81c-24.79,30.31-9,97.4-9,97.4s-10.57,10.2-.76,40.2,39.8,47.85,54.09,29.12c7.39,9.35,27.37,20.82,43.37,8.92,3.11,6.78,21.77,19.68,41.05-10.35s28.64-63.76.19-79c5.68-16.52-3.66-29.69-8-34.68,2.8,2.25,8.9,5.27,20.93,4.47a59,59,0,0,1-6.22-2.41c-13.52-6.29-24.47-17.62-35.33-27.77.15,11.58,5.35,22.74,5.4,34.44a1.87,1.87,0,0,1-3.09,1.46c-10.92-10.29-18.22-22.88-25.78-35.61-3.5,11.78-2.19,24-3.33,36.24a1.84,1.84,0,0,1-2.64,1.24,51.32,51.32,0,0,1-25-39.48c-6.18,9.65-9.86,20.63-15.09,30.83a1.86,1.86,0,0,1-3.38-.27c-12.2-25.94-10.16-61.45,3.77-86.85a51.32,51.32,0,0,0-13.42,10.35,1.85,1.85,0,0,1-3.19-1.13c-1.61-23.36,6.3-42.91,18.33-61.07,5.52-12.22,13.61-22.9,25.11-30.54-7.47.22-14.89.54-22.25,2.29a1.86,1.86,0,0,1-2.42-1.65c.26-15.27,4.76-28.68,14.68-40.36,10.22-12,24.41-20.36,36.82-29.91,18.39-14.13,29.9-31.42,27.14-55.4a76.85,76.85,0,0,0-6.73-23,51.28,51.28,0,0,1,2,12c.79,17.52-8.81,34.44-19.67,47.46-14,16.76-33.64,25.57-54.37,31,1.21,2.7,4.24,6.61,11.77,8.52-40.1,28.79-60,110.13-60,110.13l20.24-10.71c-13.26,11.73-29.23,25-24.18,42.77S455,916.86,455,916.86Zm139.22,131.76c.52-4.1,1.43-8.1,2.25-12.14,1.67-8.24-.45-17.27-1.87-25.38-.9-5.22-1.72-15.88,5.58-17.63a12,12,0,0,1,10.45,2.44,1.48,1.48,0,0,1,1.7,0c12.2,7.47,9.68,25.69,6.77,37.4-1.84,7.34-8.7,28.71-19.94,26.17C593.9,1058.29,593.64,1053.29,594.22,1048.62Zm-63-46.59a21.33,21.33,0,0,1,17.57-16.43,18.65,18.65,0,0,1,13.71,3.49c30.86,4.34,32.55,67.66-4.76,62.07C534.66,1047.72,526.33,1022.37,531.18,1002Zm-32.11-.72h0a19.28,19.28,0,0,1,1.76,1.58,2.29,2.29,0,0,1,.46.83c4.86,6.47,5.48,16.83,2.81,24-3.32,8.81-12.56,10.7-19.22,3.88C474,1020.46,483.75,988.81,499.07,1001.31Z"/><path class="cls-7" d="M644.69,712.72c8.28-18,9.5-34.73,11.08-54.06,1.75-21.66,6.22-41.35-2.34-62.42-.35-.86.71-1.15,1.22-.57,15.4,17.49,24.55,35.8,24.16,59.26-.4,23-15,44.81-30.28,60.87C647,717.44,643.84,714.55,644.69,712.72Z"/><path class="cls-7" d="M587,847.91c4.4-10.23,3.78-25,2.46-36.07-.09-.74.84-.42,1,0,9.37,21.45,8.77,42.77-4.21,62.74-1.54,2.35-5.21-.2-4.9-2.54C582.41,863.93,583.73,855.49,587,847.91Z"/><path class="cls-7" d="M601.25,751.65c1.44-3.86,2.87-7.65,5.72-10.68,3.18-3.39,7.21-5.61,10.17-9.27.44-.54,1.23.36,1.08.86-2.19,7.18-6.54,12.79-8.14,20.28-1.67,7.76-1.32,15.85-2.21,23.7-.39,3.48-5.15,1.32-5.85-.89C599.54,768.05,598.37,759.39,601.25,751.65Z"/><path class="cls-7" d="M560.08,995.27c7.49,3.43,12.74,8.23,16.22,15.75,3,6.35,5.08,18.49-2.18,22.54-2.57,1.43-5.88-1-7.3-3-3.37-4.68-3.6-9.79-3.27-15.38.4-6.72-.67-13.18-4.11-19C559.13,995.7,559.36,994.94,560.08,995.27Z"/><path class="cls-7" d="M608.82,1014.14c.62-3.69,1.17-7.34,1.59-11.08.1-1,1.33-.29,1.57.23,2.86,6.85,10.81,23.65.21,27.62-3,1.11-5.68-1.94-5.79-4.68C606.22,1021.92,608.12,1018.35,608.82,1014.14Z"/><path class="cls-3" d="M546.4,689.6c-.23.61-.38,1.24-.57,1.85,4.16-2.52,8.38-5,12.45-7.75a53.19,53.19,0,0,0,16.32-16.93c2-3.08,4.38-7,7.87-8.53,22.88-9.81,42-32.64,37.43-58.46-.33-1.92,2.44-3.46,3.36-1.42.07.15.12.29.19.44h0a100,100,0,0,1,4.35,12.35c4-11.52,3.09-23.91,3.69-36a1.85,1.85,0,0,1,3.43-.94c6.57,11,8.73,23.71,14,35.26,8.41-9,8.13-22.44,11-34a1.84,1.84,0,0,1,3.06-.82c10.28,9.5,12.63,22.69,11.62,36a48.31,48.31,0,0,0,12.63-8.07c14.28-17.48,39.11-59.93-1.53-110.38A42.87,42.87,0,0,1,705,509.76s13.85-35-28.6-61.77c27.68-11.07,33.21-11.07,33.21-11.07s-49.79-.92-84.83-42.44c-54.42,10.17-213.19,127-368.95-2.89,0,0-40.33,26.12-39.53,45.08a79.66,79.66,0,0,1,18.19-.79S208.88,453.53,196,492.26c-12,25.81-24.9,31.36-24.9,31.36s11.08,2.74,24.9-1.86c-36.89,36-45.17,48.88-36,57.17s14.77-4.61,14.77-4.61-21.21,71.95-9.22,88.53c9.05,12.54,12.32.88,13.37-5.57-1.31,12.9-3.24,57.6,27.18,92.72,36,41.49,29.08,60.86,22.16,77.46,15.21-2.74,24.88-13.82,24.88-13.82s-11,45.64,11.08,71.92A67.47,67.47,0,0,0,278,873.11s1.4,53.95-23.52,74.7c19.34,2.9,27.84-1.62,31.23-4.6-4.13,5.21-12.79,18.83-6.31,35-27.68,16.59-16.61,49.79,4.15,78.85s38.73,15.2,41.49,8.29c16.61,11.08,36-1.38,42.89-11.08,15.21,18,44.26-1.37,52.56-31.79s-2.79-40.11-2.79-40.11,12.47-67.8-13.81-96.85c16.6,12.45,24.91,16.61,24.91,16.61s-11.1-20.75-6.94-38.74-12.45-30.43-26.27-41.5l20.74,9.69s-24-80.24-65.46-107c12-3.68,12-12,12-12s-24-5.53-21.19-6.44S350.9,697,350.9,697s53.46,18.43,69.15,9.23c24,16.57,46.12,3.68,46.12,3.68,6.45,11.06,6.45,7.37,6.45,7.37l20.29-22.11-5.54,17.5S530.72,700.66,546.4,689.6Z"/><path class="cls-5" d="M709.65,435.26c-.48,0-49.44-1.38-83.57-41.84a1.71,1.71,0,0,0-1.59-.56c-11.26,2.09-26.44,8.49-45.65,16.57-41.43,17.46-98.19,41.36-162.1,41.36-57.92,0-111.7-20.35-159.85-60.48a1.61,1.61,0,0,0-1.95-.12c-1.7,1.08-41.14,26.86-40.29,46.55a1.57,1.57,0,0,0,.61,1.23,1.62,1.62,0,0,0,1.34.34,69.79,69.79,0,0,1,13.3-.95c-7.63,6.42-25.33,23.84-35.43,54.2-11.53,24.77-23.95,30.48-24.06,30.53a1.6,1.6,0,0,0-1,1.66,1.66,1.66,0,0,0,1.24,1.47,40.25,40.25,0,0,0,8.93.88,52,52,0,0,0,10.7-1.1c-26.2,25.89-35.57,38.41-35.4,47a10.93,10.93,0,0,0,4,8.18c2.37,2.13,4.79,3.22,7.17,3.22a8.6,8.6,0,0,0,4.92-1.63c-5.17,19.36-16.8,68.21-6.79,82.08,3,4.21,5.8,6.26,8.42,6.26a5.31,5.31,0,0,0,4.06-2c-.23,19.34,3.36,54.33,28.18,83,36.08,41.62,28.2,60.54,21.86,75.72a1.68,1.68,0,0,0,.24,1.69,1.72,1.72,0,0,0,1.6.6,48.1,48.1,0,0,0,21.93-10.64c-2.22,12.91-5.74,46.55,12.47,68.17a1.65,1.65,0,0,0,2.2.31,70,70,0,0,0,11.2-9.46c-.31,13.12-2.94,52.42-22.89,69a1.67,1.67,0,0,0,.82,2.92,78.82,78.82,0,0,0,11.78.95,39.91,39.91,0,0,0,14.4-2.28c-3.81,6.86-7.34,17.41-3.06,29.41C269,982.92,263.86,990.13,262,999c-4.09,19.68,8.75,43,20.22,59,10.87,15.21,20.77,18.4,27.18,18.4a19.72,19.72,0,0,0,16.32-8.71,26.65,26.65,0,0,0,13.53,3.65c11.38,0,22.72-7.07,28.82-14.51a19.83,19.83,0,0,0,14.28,6c16.2,0,33.66-17.55,39.78-39.94,7.34-27-.16-38.29-2.59-41.09,1.27-7.52,9.17-58.62-8.22-88.86,10.94,7.7,16.47,10.51,16.75,10.64a2.35,2.35,0,0,0,.79.19,1.67,1.67,0,0,0,1.25-2.8c-1.37-2.73-10.27-21.3-6.59-37.23,3.34-14.48-5.73-25.36-16.53-34.73l8.67,4.06a1.83,1.83,0,0,0,.73.15,1.81,1.81,0,0,0,1.69-1.67,1.5,1.5,0,0,0-.26-.89c-2.09-6.86-24.55-78.13-63.31-105.66,9.91-4.38,10-12.07,10-12.42a1.65,1.65,0,0,0-1.29-1.62c-7.08-1.64-14.8-3.64-18.52-4.86a59.89,59.89,0,0,0,6.74-7.23c6.18,2,35.58,11.5,55.37,11.5,5.58,0,10-.77,13.11-2.3a46.13,46.13,0,0,0,45.58,3.94c4.11,6.85,5.52,7.44,6.68,7.44a2,2,0,0,0,1.93-1.41s0,0,0-.06l14.89-16.23-3.27,10.33a1.65,1.65,0,0,0,2,2.1c1.52-.42,32.09-8.93,50.91-18.29,3-2,6.11-3.91,9.25-5.79a1.67,1.67,0,0,0-.55-1.89,1.65,1.65,0,0,0-2,0c-12.91,9.11-45.53,19-55.53,22l4.59-14.56a1.66,1.66,0,0,0-2.81-1.63l-19.77,21.56A46.06,46.06,0,0,1,467.6,709a1.69,1.69,0,0,0-2.28-.6A41.89,41.89,0,0,1,446.13,713,43.67,43.67,0,0,1,421,704.84a1.66,1.66,0,0,0-1.78-.08c-2.65,1.57-6.81,2.36-12.38,2.36-21.18,0-55.06-11.6-55.41-11.71a1.62,1.62,0,0,0-1.84.55c-3,3.8-7,8.19-8.44,8.66a2.13,2.13,0,0,0-1.37,1.85c.06,1.36.12,2.54,21.23,7.45-.57,2.2-2.69,6.7-10.6,9.12a1.66,1.66,0,0,0-.41,3c35.5,22.88,58.36,86.6,63.62,102.46l-17.3-8.09a1.68,1.68,0,0,0-2.12.64,1.66,1.66,0,0,0,.38,2.18l1.5,1.2c13.1,10.46,28,22.32,24.19,38.64-3.06,13.27,1.76,27.72,4.84,35-4.05-2.44-10.79-6.83-20.19-13.89a1.66,1.66,0,0,0-2.22,2.46c25.41,28.1,13.53,94.74,13.4,95.41a1.71,1.71,0,0,0,.54,1.53c.1.1,10.14,9.62,2.28,38.45-5.65,20.67-22.05,37.49-36.57,37.49a16.65,16.65,0,0,1-13.13-6.33,1.7,1.7,0,0,0-1.32-.59,1.66,1.66,0,0,0-1.3.7c-4.22,5.91-15,14.72-27.35,14.72A23.45,23.45,0,0,1,326,1064a1.69,1.69,0,0,0-1.42-.21,1.72,1.72,0,0,0-1.06,1c-1.34,3.37-6.76,8.37-14.12,8.37-8.06,0-16.51-5.89-24.48-17-15.68-22-22.66-42-19.65-56.43,1.74-8.36,6.79-15.1,15-20a1.66,1.66,0,0,0,.7-2c-6.16-15.36,2.14-28.44,5.78-33.11a11.28,11.28,0,0,0,2.45-2.87,1.66,1.66,0,0,0-1.49-2.41,1.7,1.7,0,0,0-1.19.48,25.26,25.26,0,0,0-1.94,2.29c-2.18,1.9-7.48,5.07-18.54,5.07a71.23,71.23,0,0,1-7.76-.45c22.46-22.41,21.46-71.4,21.41-73.55a1.65,1.65,0,0,0-2.95-1,68,68,0,0,1-12.21,11.26c-20.07-25.5-9.9-68.86-9.79-69.31a1.64,1.64,0,0,0-.85-1.87,1.67,1.67,0,0,0-2,.39A46.45,46.45,0,0,1,231,825.14c7.32-18.73,9.28-38.29-23.61-76.23-30-34.55-28.08-78.73-26.82-91.34.37-2.19.49-3.82.49-3.82a1.67,1.67,0,0,0-1.48-1.77,1.69,1.69,0,0,0-1.84,1.37s-.22,1.36-.45,3.69c-1,5.9-2.8,9.73-4.66,9.73-.83,0-2.65-.65-5.72-4.88-11.37-15.75,9.26-86.39,9.46-87.11a1.64,1.64,0,0,0-1-2,1.67,1.67,0,0,0-2.1.9c0,.07-2.85,6.4-7.17,6.4a7.75,7.75,0,0,1-4.94-2.37,7.66,7.66,0,0,1-2.9-5.77c-.16-7.88,10.39-21.16,38.92-49a1.67,1.67,0,0,0,.26-2.06,1.65,1.65,0,0,0-1.94-.71,50.33,50.33,0,0,1-15.87,2.58c-1.43,0-2.7-.07-3.79-.16,4.9-3.69,13.54-12.12,21.75-29.82,12.58-37.71,37.65-55.37,37.89-55.53a1.67,1.67,0,0,0-.8-3c-.1,0-2.5-.21-6-.21a76.52,76.52,0,0,0-10.6.71c1.7-16,31.74-37.05,37.69-41.07,48.5,40.13,102.67,60.47,161,60.47,64.58,0,121.69-24,163.38-41.61,18.5-7.79,33.21-14,44-16.2,25.78,30.06,59.56,38.76,75.85,41.27-5.12,1.6-12.8,4.3-24.2,8.87a1.63,1.63,0,0,0-1,1.39,1.68,1.68,0,0,0,.76,1.56c17.11,10.78,27,24.09,29.42,39.58a45.3,45.3,0,0,1-.51,16.74,46.09,46.09,0,0,0-18.1-15,1.67,1.67,0,0,0-2,2.56c21.75,27,27.33,54.8,16.61,82.61a97.26,97.26,0,0,1-20.23,31.47,87.79,87.79,0,0,0,12.94-10.63A95.59,95.59,0,0,0,704,577.24c7.24-18.69,10.6-47.14-12-79.33a39.93,39.93,0,0,1,11.53,12.6,1.76,1.76,0,0,0,1.56.92,1.68,1.68,0,0,0,1.48-1.05c.14-.35,13.27-35.1-26.54-62,24-9.44,29.41-9.75,29.6-9.77a1.66,1.66,0,0,0,0-3.32Z"/><path class="cls-6" d="M288.59,643.09a39.1,39.1,0,0,1,.23-12.73,1.88,1.88,0,0,1,.06-.31c.17-.9.39-1.79.64-2.67s.5-1.59.79-2.36c.07-.21.13-.41.22-.62,3.65-9.28,11.48-16.68,20.3-23.67-9-5.29-16.39-.56-25.62,3.28a7.55,7.55,0,0,0-2.74,2c-12.88,14.7,11.66-24.19,14.57-27.89,3-3.89-2-6.44-5.17-3.39-1.46,1.37-7.09.44-12.79-1,12-4.09,19.71-13,25.3-27.21-6.47,9.44-16.22,17-25.85,22.49a98.36,98.36,0,0,1-16.91,7.84c6.72,2.85,15.53,6.37,23.33,6.25-9.08,11.3-22.66,30.22-10.44,36.39,1.64.82,3.59-.35,4.79-1.28,5.59-4.31,11.5-12.6,19.61-12.85-15,8.75-18.54,21.4-18.46,39.94.11,25.75,25.48,42.25,50.26,49.81C308.09,684.24,287.64,666.34,288.59,643.09Z"/><path class="cls-6" d="M640.24,546c-1.17-1.66-4.53,1.37-3.24,3.1.32.4.7.84,1.09,1.29a65.38,65.38,0,0,0-25.38-8.37c-1.87-.19-4.08,3.21-1.65,3.67,6.42,1.25,12.39,4,18.24,6.84,5.51,2.7,10.5,7,16.26,8.9a2.74,2.74,0,0,0,3.3-3.18C647.48,553.68,643,549.92,640.24,546Z"/><path class="cls-6" d="M550.14,688.27c4.23-3.14,8.81-5.63,13.28-8.42a54.17,54.17,0,0,0,11.18-13.08c2-3.08,4.38-7,7.87-8.53,22.88-9.81,42-32.64,37.43-58.46-.33-1.92,2.44-3.46,3.36-1.42.07.15.12.29.19.44h0a99,99,0,0,1,4.35,12.32l0,0c3.68-10.8,3.15-22.4,3.59-33.8a46.75,46.75,0,0,0-2.83-7.41,1.48,1.48,0,0,0,0,.51c1.43,8.53,4,24.6-.82,33.87-3.71-9.52-8.29-20.93-16.55-26.86a83.2,83.2,0,0,1,3.24,12.78,53.57,53.57,0,0,1,.7,13.69c2.41,21-10.35,41.59-32.38,49.13a56.35,56.35,0,0,0,.86-12.24,1.4,1.4,0,0,0-.25-.86c-2.27,12.2-8.07,24.9-17.05,32.65-6.6,5.7-14.22,9.65-21.28,14.66-3.69,2.63-7.3,5.36-11.07,7.81a2.35,2.35,0,0,0,1.71.32C541.32,694.72,545.64,691.61,550.14,688.27Z"/><path class="cls-6" d="M255.43,505c-11.24,8.19-14.76,20.2-17.54,33.18-.29,2.1,2.57,1,2.86-.45.57-4,3.22-6.64,6.87-8,1.52-.54,1.9-3.19-.17-2.58a13.13,13.13,0,0,0-4.88,2.77c2.41-9,6-16.93,13.71-23.64C257.13,505.57,256.46,504.25,255.43,505Z"/><path class="cls-6" d="M298,500c-6-.21-11.74-.13-16.73,2.81,1.39-3.65,4.15-6.91,6.41-9.86,2.88-3.72,7.07-5.82,9.81-9.6.7-1-.51-1.69-1.21-.86-1.46,1.7-3.74,3.1-5.52,4.41-2.28,1.59-3.75,3.92-5.84,5.7-3.33,2.85-6.54,9.11-7.18,13.37-.23,1.48,1.4,1.29,2.16.6,4.76-4.3,10.93-3.76,16.93-3.9C298.12,502.61,299.78,500,298,500Z"/><path class="cls-6" d="M313.52,802.34c-8-10.39-18.23-25.31-19.4-38.73-.13-1.49-2.25-.18-2.25.89.16,7.9,3.94,14.79,7.18,21.83a100.87,100.87,0,0,0,7.15,12.94,59.7,59.7,0,0,1-13.09-10.64c-1.14-1.25-3.56,1-2.95,2.34,3.08,6.74,13.94,13.4,21,14.74C312.69,806,314.56,803.71,313.52,802.34Z"/><path class="cls-6" d="M363.87,783.39c-3.45-2-6.16-5.87-8.64-8.9-.79-1-2.71.87-1.93,1.86a69.65,69.65,0,0,0,6.68,7.73c1.3,1.25,3.71,2.26,5,3.73a51.4,51.4,0,0,1-10.74-.65c-1.37-.28-3,2-1.66,2.93,1.92,1.31,4.14,1.15,6.39,1l8.23-.41a2.08,2.08,0,0,0,1.73-2C368.58,785.89,366.16,784.72,363.87,783.39Z"/><path class="cls-6" d="M359.52,864.66c-2.16,2.33-4.41,4.51-6.4,6.87.73-7.92-1-16.93-2.74-24-.29-1.22-2.48.17-2.26,1.16A76.14,76.14,0,0,1,350,862.6c.18,4.65.72,10.07-.71,14.52-.73,2.24,2,1.73,2.71.28,2.34-4.47,6.37-7.5,9.46-11.39C362.67,864.51,360.68,863.39,359.52,864.66Z"/><path class="cls-6" d="M420.17,984.71c-5-9.08-16-6.74-24.84-7-3.46-.1-6.59,1.41-9.57,3-2,1.09-7.63,7-10.19,8.13-8.2-14.91-24.55-21.49-42.48-20.8-11.24.43-19.76,9.15-25.4,19.19-.05-.16,0-.32-.11-.48-6-8.95-18.25-10.54-27.91-8.42-1.67.38-1.84,2.89-.47,2.54,5.31-.18,9.79-.51,14.95,1.24,4.43,1.5,7.15,5.66,11.31,7.12a1.5,1.5,0,0,0,1.26-.19,70.06,70.06,0,0,0-5.92,15.62c-5.38,22.28,7.73,47.88,23.4,62.93.84.81,2.41-.78,1.74-1.67-10.35-13.64-18.79-27.23-22.07-44.24-4.47-23,10.79-52.42,36.79-49.91,18.91,1.86,31.57,13,35.72,31.37a132.32,132.32,0,0,1,2.67,22.69c.55,12.35-6.1,21.43-13.23,30.58-1.75,2.29,1.4,3.13,2.86,1.3,15.07-18.57,17.3-37.47,10.4-60.7a41.23,41.23,0,0,0-2.59-6.49c3.11-1.13,5.45-4.41,8.21-6.15,8.39-5.3,25.81-5.27,32.22,2.93C418,988.76,421,986.17,420.17,984.71Z"/><path class="cls-4" d="M546.4,689.6c-.23.61-.38,1.24-.57,1.85,4.16-2.52,8.38-5,12.45-7.75a53.19,53.19,0,0,0,16.32-16.93c2-3.08,4.38-7,7.87-8.53,22.88-9.81,42-32.64,37.43-58.46-.33-1.92,2.44-3.46,3.36-1.42.07.15.12.29.19.44h0a100,100,0,0,1,4.35,12.35c4-11.52,3.09-23.91,3.69-36a1.85,1.85,0,0,1,3.43-.94c6.57,11,8.73,23.71,14,35.26,8.41-9,8.13-22.44,11-34a1.84,1.84,0,0,1,3.06-.82c10.28,9.5,12.63,22.69,11.62,36a48.31,48.31,0,0,0,12.63-8.07c14.28-17.48,39.11-59.93-1.53-110.38A42.87,42.87,0,0,1,705,509.76s13.85-35-28.6-61.77c27.68-11.07,33.21-11.07,33.21-11.07s-49.79-.92-84.83-42.44c-54.42,10.17-213.19,127-368.95-2.89,0,0-40.33,26.12-39.53,45.08a79.66,79.66,0,0,1,18.19-.79S208.88,453.53,196,492.26c-12,25.81-24.9,31.36-24.9,31.36s11.08,2.74,24.9-1.86c-36.89,36-45.17,48.88-36,57.17s14.77-4.61,14.77-4.61-21.21,71.95-9.22,88.53c9.05,12.54,12.32.88,13.37-5.59-1.31,12.92-3.24,57.62,27.18,92.74,36,41.49,29.08,60.86,22.16,77.46,15.21-2.74,24.88-13.82,24.88-13.82s-11,45.64,11.08,71.92A67.47,67.47,0,0,0,278,873.11s1.4,53.95-23.52,74.7c19.34,2.9,27.84-1.62,31.23-4.6-4.13,5.21-12.79,18.83-6.31,35-27.68,16.59-16.61,49.79,4.15,78.85s38.73,15.2,41.49,8.29c16.61,11.08,36-1.38,42.89-11.08,15.21,18,44.26-1.37,52.56-31.79s-2.79-40.11-2.79-40.11,12.47-67.8-13.81-96.85c16.6,12.45,24.91,16.61,24.91,16.61s-11.1-20.75-6.94-38.74-12.45-30.43-26.27-41.5l20.74,9.69s-24-80.24-65.46-107c12-3.68,12-12,12-12s-24-5.53-21.19-6.44S350.9,697,350.9,697s53.46,18.43,69.15,9.23c24,16.57,46.12,3.68,46.12,3.68,6.45,11.06,6.45,7.37,6.45,7.37l20.29-22.11-5.54,17.5S530.72,700.66,546.4,689.6ZM387,991.22a1.85,1.85,0,0,1,.42-.84,20.17,20.17,0,0,1,1.66-1.67h0c14.69-13.24,26,17.87,15.68,29.56-6.3,7.16-15.63,5.74-19.35-2.92C382.32,1008.3,382.41,997.92,387,991.22Zm-95,60.58c-11.09,3.11-19-17.88-21.21-25.13-3.5-11.55-6.92-29.62,4.88-37.7a1.52,1.52,0,0,1,1.7-.08,12.09,12.09,0,0,1,10.33-3c7.37,1.39,7.09,12.09,6.45,17.36-1,8.16-2.69,17.28-.6,25.43,1,4,2.13,7.94,2.85,12C297.18,1045.37,297.15,1050.36,292,1051.8ZM357,991c5.86,20.07-1.2,45.8-24.05,50.41-37,7.44-38.45-55.88-7.87-61.76a18.77,18.77,0,0,1,13.52-4.18A21.35,21.35,0,0,1,357,991ZM345.56,762.47a1.84,1.84,0,0,1-2.33,1.78c-7.68-3.11-15.11-6.19-23.36-6.55,2.63,5.43,6.79,9.78,10.34,14.67A66.82,66.82,0,0,1,338.7,789c4.55,12.44,7.62,25.81,7.42,39.14-.37,24.67-11.48,46-26.91,64.68-1.33,1.62-3.3-.2-3.08-1.78,1.37-9.82,2.83-19.27,1.87-28.95-5.56,15.89-10.22,34.4-25,43.51a1.86,1.86,0,0,1-2.72-2.08c6-22-7.65-37.85-12-58.23-2.64-12.23-1.75-24.25-.17-36.39a158.28,158.28,0,0,0-8.38,21.52,1.86,1.86,0,0,1-3.55,0c-6.73-21.65-4.25-43.43-2-65.33a2,2,0,0,1-1.4-1.75,121.33,121.33,0,0,0-6.29-29.9c.32,16.1-2.56,32.54-10.26,46.64-.91,1.67-3.35.82-3.42-.93-2-42.88-44.35-66.51-54.07-106.45-8.1-33.36,4.25-64.53,23-91.43-7.37,3-14.06,7.39-21.06,11.33a1.86,1.86,0,0,1-2.72-2.07,97.34,97.34,0,0,1,25.34-46.19c-6.81,2.54-13.63,4.87-21.05,5.22a1.84,1.84,0,0,1-1.31-3.13c19.06-16.73,29.49-40.7,47.59-58.18-8.2,2.91-15.18,7.89-21.68,14.16a1.86,1.86,0,0,1-3.08-1.79,99.64,99.64,0,0,1,4.2-14.63,1.57,1.57,0,0,1-.86-2c6.76-20.85,24.63-33.78,34.31-52.89a1.83,1.83,0,0,1,2.09-.85c12.73,5.11,24,14,33.4,23.94,8.73,9.3,19.41,21.47,21.72,34.5,3.94,22.45-19.58,25.13-31.77,37.81,12.59-3.07,24.75-7.74,37.75-8.91a1.86,1.86,0,0,1,1.77,2.34c-6.45,18.71-25,29.53-41.43,38.58-19.87,10.93-35.75,23.81-44.8,44.16,10.22-8,22.92-11.56,36.17-11.81a1.86,1.86,0,0,1,1.32,3.14c-12.34,12.18-19.83,27.78-20.63,44.51,5.14-3.83,10.91-6.5,17.65-6.86a1.85,1.85,0,0,1,1.78,2.32c-1.75,7.76-5.6,15.44-7.3,23.1a1.89,1.89,0,0,1,.64.89C274,703.79,341.06,710.49,345.56,762.47ZM489,662.23c-7.09,7.09-13,17.25-23.06,20.61-19.19,6.44-37.13-2.25-51.16-14.85,3,6.24,5.8,12.65,5.67,19.56a1.89,1.89,0,0,1-2.34,1.79c-26.57-5.23-57.63-12.47-77.28-32.66-16.23-16.7-14.31-34.89-6-53.65-10.13,9.54-17.54,21.49-25.4,33a1.85,1.85,0,0,1-3.35-.44c-11.33-31,21.54-54.79,43.09-72.54-15.29,1.65-27.68,13-41.66,18.89a1.85,1.85,0,0,1-2.34-1.78c.4-7.46,3.48-14.51,8-21,2.49-8.73,7.75-17,12.86-23.83,6.87-9.1,19-21,31.62-19.16,14.39,2.1,14,20.53,17,31.52,6.28,23.58,32.23,27.87,53.12,29.81a1.86,1.86,0,0,1,1.59,2.77c-5.63,8.76-14.35,14.54-21.49,21.9a126.3,126.3,0,0,0,30.19-10.73c9.39-4.76,20.12-9.9,27.51-17.55,11.3-11.72,18.48-27.46,32-36.93a1.84,1.84,0,0,1,2.24.29c5.59,6.13,8.71,13.78,13.47,20.45,6.28-11.89,4-25.79,1.77-38.64a1.86,1.86,0,0,1,2.26-2.26c28.9,6.92,73.22,33.21,62.89,68.86a1.87,1.87,0,0,1-2.72,1.1c-4-2.94-7.4-6.53-11.65-8.94,3.89,11,6.82,23.43,2.78,34.76a64,64,0,0,1-13.31,21.78c-10.91,12.09-27,27.59-44.3,28.39a1.85,1.85,0,0,1-1.78-2.32c3.26-10.93,9.33-20.79,12.56-31.66Q505.65,645.69,489,662.23Z"/><path class="cls-4" d="M546.4,689.6c-.23.63-.42,1.24-.61,1.87,4.17-2.53,8.41-5,12.49-7.77a53.19,53.19,0,0,0,16.32-16.93c2-3.08,4.38-7,7.87-8.53,22.88-9.81,42-32.64,37.43-58.46-.33-1.92,2.44-3.46,3.36-1.42.07.15.12.29.19.44h0a100,100,0,0,1,4.35,12.35c4-11.52,3.09-23.91,3.69-36a1.85,1.85,0,0,1,3.43-.94c6.57,11,8.73,23.71,14,35.26,8.41-9,8.13-22.44,11-34a1.84,1.84,0,0,1,3.06-.82c10.28,9.5,12.63,22.69,11.62,36a48.31,48.31,0,0,0,12.63-8.07c14.28-17.48,39.11-59.93-1.53-110.38A42.87,42.87,0,0,1,705,509.76s13.85-35-28.6-61.77c27.68-11.07,33.21-11.07,33.21-11.07s-49.79-.92-84.83-42.44c-54.42,10.17-213.19,127-368.95-2.89,0,0-27.69,17.94-36.73,34.89,8.47-6.36,17.9-11,27.49-9.92,19.37,2.16,31,19.75,43.47,32.73,16.37,17,33.33,34.27,53.84,46.31,22.13,13,46.39,19,71.95,19.93a310.27,310.27,0,0,0,77.58-7.31c23.05-5.1,48.81-11.05,68.38-24.79,14.95-10.48,31-24.6,50.23-16.32,18.73,8.09,30.9,25.55,43.19,41,1.08,1.35.14,3.62-1.79,3.06a261.42,261.42,0,0,0-33.85-7.31c11.67,5.62,21.34,13.57,28.17,25.7a1.86,1.86,0,0,1-2.53,2.52c-19.67-12-41.41-15.77-64-15.38,54.57,65-6.55,153.78-77.72,173.18a1.84,1.84,0,0,1-2.26-1.3c-1.45-10.28,2.15-19.88,3.69-29.87C497.8,668,491.07,677.51,482.08,685c-9.17,7.68-20.89,11.33-32.64,12.36-28,2.44-59-2.65-85.53-12-20.54-7.24-42.38-18.08-55.4-36.24C298,634.53,296.1,618.32,300.6,602.2,290,616.88,281.33,634.1,280.16,652,278.61,676.08,291,692.77,310,706c12.88,8.92,27.46,16.51,38.28,28C358.79,745.17,364,758.34,365,773.58a1.87,1.87,0,0,1-2.34,1.77c-7.43-1.39-14.85-1.33-22.32-1.19,11.87,7.06,20.47,17.33,26.58,29.25,12.94,17.54,21.81,36.65,21.39,60.06a1.85,1.85,0,0,1-3.14,1.3,51.41,51.41,0,0,0-13.93-9.66c15.19,24.67,19,60,8.12,86.55a1.86,1.86,0,0,1-3.36.44c-5.75-9.93-10-20.7-16.61-30a51.33,51.33,0,0,1-23.05,40.7,1.85,1.85,0,0,1-2.7-1.11c-1.75-12.15-1-24.44-5.14-36-6.92,13.09-13.58,26-24,36.84a1.86,1.86,0,0,1-3.15-1.29c-.56-11.68,4.1-23.1,3.68-34.67-10.35,10.68-20.7,22.53-33.93,29.5a58.29,58.29,0,0,1-6.07,2.73c12,.19,18-3.14,20.7-5.52-4.13,5.21-12.79,18.83-6.31,35-27.68,16.59-16.61,49.79,4.15,78.85s38.73,15.2,41.49,8.29c16.61,11.08,36-1.38,42.89-11.08,15.21,18,44.26-1.37,52.56-31.79s-2.79-40.11-2.79-40.11,12.47-67.8-13.81-96.85c16.6,12.45,24.91,16.61,24.91,16.61s-11.1-20.75-6.94-38.74-12.45-30.43-26.27-41.5l20.74,9.69s-24-80.24-65.46-107c12-3.68,12-12,12-12s-24-5.53-21.19-6.44S350.9,697,350.9,697s53.46,18.43,69.15,9.23c24,16.57,46.12,3.68,46.12,3.68,6.45,11.06,6.45,7.37,6.45,7.37l20.29-22.11-5.54,17.5S530.72,700.66,546.4,689.6ZM292,1051.8c-11.09,3.11-19-17.88-21.21-25.13-3.5-11.55-6.92-29.62,4.88-37.7a1.52,1.52,0,0,1,1.7-.08,12.09,12.09,0,0,1,10.33-3c7.37,1.39,7.09,12.09,6.45,17.36-1,8.16-2.69,17.28-.6,25.43,1,4,2.13,7.94,2.85,12C297.18,1045.37,297.15,1050.36,292,1051.8Zm41-10.36c-37,7.44-38.45-55.88-7.87-61.76a18.77,18.77,0,0,1,13.52-4.18A21.35,21.35,0,0,1,357,991C362.87,1011.1,355.81,1036.83,333,1041.44ZM389,988.71h0c14.69-13.24,26,17.87,15.68,29.56-6.3,7.16-15.63,5.74-19.35-2.92-3-7.05-2.95-17.43,1.59-24.13a1.85,1.85,0,0,1,.42-.84,20.17,20.17,0,0,1,1.66-1.67Z"/><path class="cls-7" d="M229.16,707.76c-9.17-17.52-11.23-34.21-13.75-53.43-2.84-21.55-8.3-41-.81-62.45.31-.89-.74-1.12-1.24-.51-14.51,18.23-22.74,37-21.17,60.38,1.55,23,17.2,44,33.29,59.28C227.11,712.59,230.09,709.54,229.16,707.76Z"/><path class="cls-7" d="M380,657.66c-7.3-9-15-17.88-20.73-28-5.46-9.56-7.18-30.8-1.46-40.85.76-1.34-.9-1.72-1.63-.64-5.17,7.88-13.14,12.67-17.05,21.61-3.64,8.35-5.43,17.66-2.7,26.58,5.68,18.47,21.34,25.25,39.12,28.48C379,665.45,382.2,660.33,380,657.66Z"/><path class="cls-7" d="M345.15,529.12c-.08-.61-.9-.28-1.08.08-.67,1.24-2.23,1.24-3.21,2.07-1.58,1.34-3.8,2.17-5.47,3.49-3.93,3.09-7.14,7-8.43,11.89-1,4,3.27,5.26,5.7,2.33,3.19-3.87,5.66-8.16,8.68-12.14,1.13-1.47,1.8-3.09,2.79-4.59A4.42,4.42,0,0,0,345.15,529.12Z"/><path class="cls-7" d="M256.59,451.21c-9.81.43-22.92,10.57-20.89,21.26.65,3.43,4.32,3.16,6.64,1.56,4.22-2.89,6-6.66,7.72-11.29,1.55-4.08,2.89-7.44,6.54-10.18C256.92,452.29,257.4,451.18,256.59,451.21Z"/><path class="cls-7" d="M562.31,593.18a103.92,103.92,0,0,0-5.81-15.65c-2.84-6-9.28-8.8-13.46-13.58-.32-.38-1,.34-.81.72,1.86,4,4.7,7.27,6.77,11.12,2.77,5.14,1.84,12.41,1.66,17.94a111.55,111.55,0,0,1-5.46,32.85c-1.38,4.19,3.13,4.49,5.49,2.23C561.61,618.33,566.71,608.27,562.31,593.18Z"/><path class="cls-7" d="M293.56,839.9c-4.9-10-5-24.77-4.26-35.91.06-.75-.86-.38-1,.07-8.29,21.9-6.63,43.17,7.36,62.48,1.63,2.26,5.18-.47,4.75-2.79C298.92,855.67,297.18,847.3,293.56,839.9Z"/><path class="cls-7" d="M274.5,744.47c-1.64-3.79-3.24-7.49-6.25-10.39-3.36-3.23-7.49-5.23-10.63-8.75-.47-.51-1.22.44-1,.92,2.55,7.07,7.16,12.44,9.15,19.86,2,7.66,2.1,15.75,3.39,23.54.56,3.46,5.19,1.06,5.81-1.16C277,760.76,277.74,752.06,274.5,744.47Z"/><path class="cls-7" d="M623.42,489.24c-6.12-7.85-12.92-11.5-22.77-12.57-10.72-1.17-20,5.45-28.94,10.41-.52.31-1,1.66,0,1.43,8.12-1.82,15.86-4.26,24.21-2.07,8,2.1,15,6.61,23.11,8.57C622,495.71,625.54,492,623.42,489.24Z"/><path class="cls-7" d="M327.81,985.72c-7.33,3.81-12.32,8.86-15.42,16.55-2.62,6.47-4.14,18.72,3.3,22.4,2.63,1.3,5.84-1.29,7.14-3.33,3.13-4.85,3.11-10,2.5-15.53-.73-6.67,0-13.19,3.17-19.17C328.77,986.13,328.51,985.35,327.81,985.72Z"/><path class="cls-7" d="M280.07,1007c-.78-3.67-1.54-7.29-2.16-11-.14-.95-1.34-.24-1.54.32-2.52,7-9.62,24.14,1.16,27.57,3,1,5.57-2.22,5.55-5C283.05,1014.65,281,1011.19,280.07,1007Z"/><path class="cls-8" d="M292.16,402.72s-3.82,99.41,129,105.13S610.46,431.4,601.84,395.07C530.14,403.67,488.11,540.33,292.16,402.72Z"/><path class="cls-9" d="M494,489.75c7.22-10.39,22.66-14.89,33.49-20,19.62-9.24,35.74-27.72,56.18-34.51a72.75,72.75,0,0,1,10.27-2.57c7.73-14.16,10.31-27.62,7.94-37.63-71.7,8.6-113.73,145.26-309.68,7.65,0,0-1.69,45.47,38.31,76.68a11.07,11.07,0,0,1,5.95-3.28c7.77-1.54,16.79,5.05,23.59,7.94,7.36,3.12,17.11,6.07,21.9,13a26.29,26.29,0,0,1,3.18,6.36,217.42,217.42,0,0,0,36.09,4.44c25.52,1.1,48.17-1.05,68.13-5.49A26.66,26.66,0,0,1,494,489.75Z"/><path class="cls-3" d="M798.57,408.05c-.47-8.91,3.62-16.51,8.58-23.61,7.5-10.7,11.85-19.33,3.65-31.43a1.51,1.51,0,0,1-.29-.92c-.73-1.06-1.49-2.16-2.22-3.24a1.86,1.86,0,0,1,1.6-2.77c11.16.9,19.54,9.3,22.52,19.66,2.93-5.33,3.65-11.2,3.32-17.22-6.27-38.87-11.06-43-30.65-50.86,16.58-9.67,19.36-23.51-15.23-40.11S756.66,223,767.71,193.92s-27.65-55.32-45.64-66.39c29-5.53,33.2-16.6,33.2-16.6s-56.71,0-87.15-45.65-55.33-49.79-89.91-30.43c-26.29-22.12-67.78-16.6-92.68,2.76,4.14-16.59,9.69-22.12,9.69-22.12S456.48,4.42,433,34.85C413.59,3,403.92,1.67,403.92,1.67l-4.14,33.18S372.1,4.42,347.2,21l12.45,12.44s-59.49-2.76-65,30.45c0,0-45.66-59.49-98.21-15.22-29.05,40.1-59.49,56.69-77.47,49.79,2.77,16.6,12.45,19.37,12.45,19.37s-70.54,31.81-47,54c-38.74,59.47-33.19,78.84-9.67,112s-11.07,77.46-58.11,74.7l12.46,8.3s-56.73,65-6.92,71.93c0,12.44,11.06,16.6,11.06,16.6s-2.76-15.21,11.07-22.14c15.22,23.51,19.37,5.54,41.5,11.08s63.63,8.27,89.91-31.83,11.06-89.92,11.06-89.92l20.76,41.5s11-35.95,2.76-59.47c15.23,9.68,23.52,12.44,23.52,12.44S210.25,347.48,220,373.76a181.56,181.56,0,0,1,18.43-25.19c-5.49,7.1-15.56,29.36,32.73,65.29C312.63,462.28,361,491.34,433,489.94S579.6,420.79,579.6,420.79c27.66,0,44.26-18,55.32-36,6.92,6.9,23.52-5.55,23.52-5.55S646.25,406.48,693.23,415c-5.14-12.17,6.95-21.11,7.39-19.95,10.91,28.13,44.94,28.82,73.83,30.45,12.75.71,33,6,48.5,4C812.7,424,799.18,420.44,798.57,408.05Z"/><path class="cls-10" d="M428,491.65c-63.85,0-112.62-23.62-158.07-76.57-23-17.17-35.73-33.34-37.75-48.1a26.61,26.61,0,0,1,.08-8.35c-3.22,4.22-7,9.58-10.94,16a1.63,1.63,0,0,1-1.58.77,1.59,1.59,0,0,1-1.4-1.08c-8.64-23.44,7.83-49.48,12.76-56.52a135.75,135.75,0,0,1-18-9.47c5.9,23.48-3.59,54.81-4,56.21a1.66,1.66,0,0,1-1.44,1.19,1.75,1.75,0,0,1-1.64-.92l-15-29.94c2.76,17.67,4.36,50.56-14,78.52-19.36,29.53-46.74,35.72-66.3,35.72a107.62,107.62,0,0,1-25.4-3.18A33.83,33.83,0,0,0,77,444.85a43.1,43.1,0,0,0-10.14,1.43,30.77,30.77,0,0,1-7,1.11c-5.72,0-10.46-3.49-16.17-12-10.09,5.95-9.24,17-8.94,19.25a1.84,1.84,0,0,1,.16.7A1.74,1.74,0,0,1,33.22,457a1.46,1.46,0,0,1-.61-.11c-.12,0-11.27-4.37-12.09-16.72-10.2-1.7-16.67-6.08-19.27-13-7.25-19.42,19.13-52.6,25.32-60l-10.9-7.26A1.66,1.66,0,0,1,15,358a1.64,1.64,0,0,1,1.67-1.12c1.37.09,2.74.12,4.08.12,23.64,0,45.23-12.22,55-31.14,7.15-13.81,6.25-28.77-2.45-41.05C49.59,251.29,43.7,231.57,82.24,172c-3.5-3.76-4.9-8-4.11-12.62,3-17.9,38.68-36.39,49.54-41.63-3.39-2.34-8.45-7.62-10.36-19a1.72,1.72,0,0,1,.58-1.56,1.69,1.69,0,0,1,1.67-.27,22.37,22.37,0,0,0,8.08,1.42c19,0,44.82-19.4,67.41-50.64a2.06,2.06,0,0,1,.3-.29c13.21-11.13,27.18-16.78,41.54-16.78,28.51,0,50.1,21.86,56.88,29.61,7.5-25.9,47.94-28.42,61.81-28.51L346,22.21a1.64,1.64,0,0,1-.47-1.35,1.59,1.59,0,0,1,.73-1.22,30.09,30.09,0,0,1,17-5.23c15.75,0,29.73,11.61,35.25,16.83l3.72-29.79A1.62,1.62,0,0,1,402.9.34,1.69,1.69,0,0,1,404.16,0c1,.14,10.58,2.29,29,31.94C457.35,3.1,495,13.68,495.69,13.88a1.71,1.71,0,0,1,1.14,1.19,1.63,1.63,0,0,1-.44,1.59s-4.26,4.48-8,16.8a86.38,86.38,0,0,1,47.9-14.61c16.23,0,30.77,4.83,42.1,14,13.12-7.21,24-10.58,34.25-10.58,19.91,0,37.44,13,56.86,42.1,29.56,44.36,85.21,44.92,85.76,44.92a1.71,1.71,0,0,1,1.39.73,1.67,1.67,0,0,1,.19,1.52c-.18.46-4.41,10.93-30.4,16.8,36.35,23.15,50.75,45.41,42.82,66.2-11.43,30-11,46,21.3,61.55,18.24,8.74,27.68,17.54,28,26.13.23,5.46-3.1,10.55-9.9,15.15,18.25,7.68,22.71,14,28.68,50.89.4,7.4-.77,13.33-3.52,18.3a1.67,1.67,0,0,1-3.06-.35c-3-10.41-11.24-17.66-21-18.45l2.13,3.42a1.65,1.65,0,0,1,.29.89c9,13.24,3.65,22.95-3.65,33.35-4.35,6.22-8.76,13.76-8.3,22.56.46,9,8.64,12.9,17.3,17,2.11,1,4.23,2,6.21,3.09a1.66,1.66,0,0,1-.58,3.11,61.25,61.25,0,0,1-7.85.47c-8.44,0-17.67-1.38-25.8-2.59-5.57-.84-10.84-1.63-15.14-1.88L770.8,427c-28-1.53-59.7-3.27-71.12-29.82a17.64,17.64,0,0,0-4.79,6.16,13.2,13.2,0,0,0-.27,10.68,1.68,1.68,0,0,1-1.36,2.69,2.91,2.91,0,0,0-.32,0c-18.25-3.32-30.05-9.81-35-19.3a22.57,22.57,0,0,1-2.25-14.23c-3.82,2.33-9.9,5.44-15.12,5.44a9.91,9.91,0,0,1-5.17-1.31c-14.92,23.46-33,35-55.12,35.19-6.58,5.8-78.54,67.84-147.24,69.16C431.34,491.63,429.68,491.65,428,491.65ZM238.38,346.91a1.7,1.7,0,0,1,1.08.38,1.65,1.65,0,0,1,.24,2.29,22.07,22.07,0,0,0-4.18,17c1.9,13.86,14.21,29.32,36.58,46a1,1,0,0,1,.28.27C317.17,465,365.18,488.34,428,488.34q2.41,0,4.89-.06c70.49-1.36,144.8-68,145.54-68.72a1.71,1.71,0,0,1,1.13-.43c22,0,39.12-11.19,53.91-35.19a1.67,1.67,0,0,1,1.22-.77,1.77,1.77,0,0,1,1.39.47,5.87,5.87,0,0,0,4.41,1.6c7.09,0,16.82-7.22,16.92-7.28a1.62,1.62,0,0,1,2,0,1.67,1.67,0,0,1,.48,2,19.62,19.62,0,0,0,.92,15.9c4.26,8,14.31,13.75,29.9,17a17,17,0,0,1,2.59-13.61c2.16-3.27,5.35-5.94,7.07-5.94a2.06,2.06,0,0,1,1.75,1.17c10.07,26,41.26,27.68,68.79,29.18l3.57.19c4.46.26,9.8,1.07,15.43,1.91,8.51,1.27,18.31,2.72,26.78,2.54-.24-.1-.44-.22-.67-.32-9.17-4.33-18.63-8.83-19.2-19.85-.48-9.8,4.22-18,8.9-24.63,7.06-10,11.43-18,3.62-29.54a3.76,3.76,0,0,1-.51-1.26l-2-2.92a3.38,3.38,0,0,1-.12-3.5,3.41,3.41,0,0,1,3-1.86c10.11.81,18.63,7.29,22.82,16.88a32.72,32.72,0,0,0,1.49-12.7c-6.26-38.64-10.92-41.88-29.61-49.39a1.65,1.65,0,0,1-.23-3c7.52-4.38,11.24-9.07,11-13.89-.29-7.17-9.32-15.21-26.13-23.27-34.51-16.58-34.91-34.41-23-65.73,7.42-19.46-8.13-41.72-45-64.39a1.68,1.68,0,0,1,.55-3.07c19.77-3.75,27.64-10.1,30.5-13.41-12.31-.81-59-6.49-85.52-46.27C648,38.12,631.33,25.58,612.65,25.58c-9.87,0-20.56,3.4-33.62,10.73a1.72,1.72,0,0,1-1.89-.19c-10.83-9.13-25-13.94-40.84-13.94-17.68,0-36.26,6.26-49.75,16.74a1.65,1.65,0,0,1-1.93.09,1.67,1.67,0,0,1-.7-1.81c2.83-11.33,6.34-17.68,8.38-20.69-8.76-1.76-38.71-5.63-58,19.36a1.57,1.57,0,0,1-1.42.64,1.7,1.7,0,0,1-1.33-.8c-14-23-22.78-29.74-26.24-31.66l-3.87,31a1.73,1.73,0,0,1-1.15,1.39,1.67,1.67,0,0,1-1.73-.47c-.17-.19-16.84-18.23-35.25-18.23a26.61,26.61,0,0,0-13.43,3.59l11,11a1.71,1.71,0,0,1,.35,1.85,1.61,1.61,0,0,1-1.61,1s-1.19,0-3.22,0c-13,0-55.58,2.1-60.07,29.12a1.65,1.65,0,0,1-2.95.73C293.08,64.61,269.16,34,236.89,34c-13.49,0-26.7,5.34-39.24,15.87-23.56,32.45-49.72,51.84-70,51.84a28,28,0,0,1-6.51-.76c3,12.84,10.42,15.24,10.75,15.34a1.71,1.71,0,0,1,1.19,1.49,1.65,1.65,0,0,1-1,1.62c-.48.22-47.51,21.63-50.7,40.6-.64,3.91.71,7.4,4.12,10.63a1.66,1.66,0,0,1,.27,2.11c-38.25,58.71-32.69,77.75-9.73,110.17,9.45,13.33,10.43,29.56,2.69,44.51C68.61,347,46.55,359.81,22.26,360.31L30,365.45a1.81,1.81,0,0,1,.73,1.17,1.69,1.69,0,0,1-.4,1.31C30,368.31-3,406.4,4.38,426c2.24,6,8.29,9.73,18,11.08a1.67,1.67,0,0,1,1.43,1.65,16,16,0,0,0,7.53,13.76c0-5.17,1.39-15.38,12.21-20.81a1.67,1.67,0,0,1,2.13.6c6.69,10.31,10.79,11.74,14.23,11.74a28,28,0,0,0,6.23-1A45.33,45.33,0,0,1,77,441.52a37.07,37.07,0,0,1,9.13,1.17,103.27,103.27,0,0,0,24.62,3.09c18.74,0,45-5.94,63.5-34.22,25.57-39,11-88,10.89-88.5a1.65,1.65,0,0,1,1-2,1.66,1.66,0,0,1,2.1.8L207,359.42c2.55-10,8-36.17,1.66-54.26a1.68,1.68,0,0,1,.53-1.87,1.66,1.66,0,0,1,1.92-.1c14.82,9.41,23.07,12.23,23.15,12.26a1.74,1.74,0,0,1,1.09,1.09,1.67,1.67,0,0,1-.3,1.51c-.2.28-20.86,27.44-14.62,51.75a175.83,175.83,0,0,1,16.7-22.34A1.64,1.64,0,0,1,238.38,346.91Z"/><path class="cls-4" d="M835.73,348.52c-6.27-38.87-11.06-43-30.65-50.86,16.58-9.67,19.36-23.51-15.23-40.11S756.66,223,767.71,193.92s-27.65-55.32-45.64-66.39c29-5.53,33.2-16.6,33.2-16.6s-56.71,0-87.15-45.65-55.33-49.79-89.91-30.43c-26.29-22.12-67.78-16.6-92.68,2.76,4.14-16.59,9.69-22.12,9.69-22.12S456.48,4.42,433,34.85C413.59,3,403.92,1.67,403.92,1.67l-4.14,33.18S372.1,4.42,347.2,21l12.45,12.44s-59.49-2.76-65,30.45c0,0-45.66-59.49-98.21-15.22-29.05,40.1-59.49,56.69-77.47,49.79,2.77,16.6,12.45,19.37,12.45,19.37s-70.54,31.81-47,54c-38.74,59.47-33.19,78.84-9.67,112s-11.07,77.46-58.11,74.7l12.46,8.3s-56.73,65-6.92,71.93c0,12.44,11.06,16.6,11.06,16.6s-2.76-15.21,11.07-22.14c15.22,23.51,19.37,5.54,41.5,11.08s63.63,8.27,89.91-31.83,11.06-89.92,11.06-89.92l20.76,41.5s11-35.95,2.76-59.47c15.23,9.68,23.52,12.44,23.52,12.44S210.25,347.48,220,373.76a181.56,181.56,0,0,1,18.43-25.19c-5.49,7.1-15.56,29.36,32.73,65.29C312.63,462.28,361,491.34,433,489.94S579.6,420.79,579.6,420.79c27.66,0,44.26-18,55.32-36,6.92,6.9,23.52-5.55,23.52-5.55S646.25,406.48,693.23,415c-5.14-12.17,6.95-21.11,7.39-19.95,10.91,28.13,44.94,28.82,73.83,30.45,12.75.71,33,6,48.5,4-10.25-5.55-23.77-9.08-24.38-21.47-.47-8.91,3.62-16.51,8.58-23.61,7.5-10.7,11.85-19.33,3.65-31.43a1.51,1.51,0,0,1-.29-.92c-.73-1.06-1.49-2.16-2.22-3.24a1.86,1.86,0,0,1,1.6-2.77c11.16.9,19.54,9.3,22.52,19.66C835.34,360.41,836.06,354.54,835.73,348.52ZM260.4,112.44a1.87,1.87,0,0,1-2.89.37c-6-5.35-11.76-11-17.45-16.65.83,12.38,3.67,24.55,3.93,37a1.85,1.85,0,0,1-2.76,1.59,64.93,64.93,0,0,1-22.32-26.64,107.63,107.63,0,0,0,8.16,39.62c5.11,12.6,11.43,25.76,11.84,39.62.74,25.5-17.65,47.4-35.42,63.66-1.08,1-3.28.39-3.12-1.3,1.27-14.16,3.07-28.26-2-41.95-1.74-4.7-3.65-9.26-5.27-13.92-.38,18-2,35.92-9.28,52.63-.82,1.88-3.25.64-3.44-.93-1.09-9.73-5.32-18.12-10.16-26.29,2.19,28.88,1,57.54-11.38,84.65a1.83,1.83,0,0,1-3.17,0c-3-6.92-5.49-14.06-8.06-21.17.41,20.61,0,47.91-19.84,56.15a1.85,1.85,0,0,1-2.32-1.77V323.17c-8.32,17.15-23.06,29.69-42.63,33.18A1.85,1.85,0,0,1,81.39,353c17.58-11.71,25-28,27-48.5,1.43-14.84,2.14-29.59,6.41-43.87-6.57,4.24-13,8.65-19.92,12.3-1.31.68-3.3-.47-2.7-2.09,2.47-6.82,5-13.48,9.13-19.14-8,4.61-14,11.71-19.08,19.74-.78,1.19-3.11,1.24-3.37-.44-2.87-18.7,2.33-35.69,12.65-50.32a50.43,50.43,0,0,0-9.28,11.62,1.85,1.85,0,0,1-3.43-.92c-.13-14.8,2.86-29.71,12-41.72,7.69-10.13,17.53-18,27.79-25.3-6.2.66-12.15,2.5-18.31,3.85a1.87,1.87,0,0,1-2.11-2.7c13.56-26.24,43.47-34.42,68.72-46a48,48,0,0,1-23.08-8.87c-1.11-.81-1.35-3.11.43-3.36,20.15-3,31.3-18.74,45.8-31.17a61.49,61.49,0,0,1,13.85-8.52c12.5-10.85,27.42-19.36,42.34-14.88,11.56,3.49,21.48,12.85,23.53,25C271.78,89.5,266.45,102.55,260.4,112.44ZM411.78,406.19c-1,11.5-5.45,35.1-17.81,40.54-13.07,5.74-33.29-2-39.59-14.58-5.61-11.16,3.4-25.37,13.43-33.33-6.07,1.27-12,3.11-18,4.72a1.87,1.87,0,0,1-2.09-2.72c5-8.63,13.41-17.8,23.78-19.07a30.94,30.94,0,0,1,7.62-2.1c-1.05-3.28-2.66-6.35-3.84-9.59-.69-1.88,1.79-2.89,3.08-1.79,5.47,4.67,9.82,11,16.23,14.54,4.09,2.23,8.85,4.14,12.35,7.27C411.55,394.22,412.3,400.18,411.78,406.19ZM505.26,424c-3.68,7.62-6.81,15.59-13.43,21.15-10.52,8.89-33.72,6.7-44.05-1.35-13.32-10.37-12.08-27.07-8.91-42.22a1.9,1.9,0,0,1-.36-1.46,23.51,23.51,0,0,1,2.67-8.5,2.36,2.36,0,0,0,.1-.38,1.63,1.63,0,0,1,.91-1.15c4.21-5.8,11.48-7.37,20.71-7.4,14,0,31.42-1.77,42,9.4a1.87,1.87,0,0,1-1.32,3.15c-8.23.56-16.52,1.92-23.76,5.77,9.75-.05,23.26.14,27.7,7.69C510.66,414.16,507.72,419,505.26,424ZM554.5,313.79a1.87,1.87,0,0,1-2.77,1.59c-7.8-4.57-14.53-10.76-22.69-14.5,10.7,16.5,19.22,34.88,8.54,53.8a1.84,1.84,0,0,1-3.15,0c-12.14-18.33-28.85-33.17-50.07-39.9-19.8-6.28-40.76-6.88-61.34-5.2-19.56,1.61-39.68,4.5-56.53,15.37-16.29,10.51-27.83,25.87-37.83,42.22a1.88,1.88,0,0,1-3.19,0c-8.14-11.63-6.33-27.53.09-39.95-8.26,6.64-14.95,15-23,22a1.85,1.85,0,0,1-3.13-1.3c-1-38.37,23.94-65.64,55.91-82.69-12.41-2.54-25.43,1.1-37.78,2.88a1.85,1.85,0,0,1-1.78-3.07c13-16.17,35-19.75,54.74-17.78-7.59-7.11-17.38-10.81-26.9-15.12-1.61-.73-.88-2.88.44-3.37,25.59-9.75,52.16-3.9,78.74-5.89a1.59,1.59,0,0,1,1.24.41q15-.24,30.13-.19c16.42.09,34.57-.42,49.47,7.52,1.52.82.95,2.85-.43,3.36A99.48,99.48,0,0,0,481.12,245c17.71-.92,37.68-1.53,52.49,8.89,1.14.81,1.29,3.08-.43,3.36a56.78,56.78,0,0,0-20.4,7.9c1.71.63,3.4,1.28,5.07,2C537.41,275.2,557,290.42,554.5,313.79ZM558.84,95c-22.09-7.85-42.77-7-64.64.64-5.17,1.8-5.87,11.2-6.06,16-.32,8.05,0,15.52-4.66,22.46a1.86,1.86,0,0,1-3.16,0,107.67,107.67,0,0,1-13.42-23.7c-13.68,18.41-32.17,35.49-54.09,36.26A1.89,1.89,0,0,1,411,144.8c-.09-12.13,7.59-24,15.78-33.52-16.39,7.87-29.21,22-42.6,34a1.89,1.89,0,0,1-2.89-.38c-8.48-12,.05-33.49,11.61-42.1-23-7.78-46-1.88-69.46,2.16-1.43.25-3.09-1.24-2.09-2.71,5.57-8,13.3-13.54,20.72-19.61-7.07-.86-14.19.8-21.14,2.34-1.23.27-2.82-.86-2.25-2.27,10.32-26,39.07-29.75,62.72-21-4.18-10.29-11-19.2-15.92-29.15a1.87,1.87,0,0,1,2.08-2.72c13.38,3.65,23.5,11.91,32.72,21.5a63.32,63.32,0,0,1,8.47-21.48,1.88,1.88,0,0,1,2.53-.66c8.42,4.57,14.48,11.65,19.65,19.43,11.75-15.14,27.41-25.9,44.84-21.29A1.85,1.85,0,0,1,477,29.58c-2.94,9.22-5.22,19.18-4.86,28.93C495.16,40.45,525.5,31.17,554,39a1.85,1.85,0,0,1,0,3.55c-17,5.54-33.64,12.93-47.24,24.67,20.63,0,51.75,1,54.42,26A1.83,1.83,0,0,1,558.84,95ZM753.39,327.6c-.3,2.1-3.61,1.53-3.61-.49,0-13.1-7.33-22-15.15-30.88a132.4,132.4,0,0,0,2.1,43.72,1.85,1.85,0,0,1-3.07,1.78c-14.2-12.13-28.46-29-29.07-48.41a85.69,85.69,0,0,0-12.79,30.12c-.43,2-2.94,1.5-3.56,0-7.19-17.21-7.22-34.82-1.74-52.56,3.08-10,7.85-19.57,8.22-30.19,0-1.25,0-2.49,0-3.75a78,78,0,0,1-19.24,24.88c-1.3,1.09-3.73.09-3.1-1.8a163.85,163.85,0,0,0,6.28-26.86C668.34,249.45,662.49,267.77,656,286c-.58,1.57-3.18,1.92-3.56,0-4.45-22.19,0-46.4,10.58-66.45-11.34,8.7-18.49,22.67-23.69,35.65-.6,1.53-3.12,1.95-3.53,0-6.39-30.21,2.66-58.31,13.84-86a132.73,132.73,0,0,0-16.59,11.92,1.87,1.87,0,0,1-3.09-1.8c1.78-12.39,8.82-22.51,13.39-33.78-4.66,4.54-9.25,9.09-14.85,12.55a1.85,1.85,0,0,1-2.51-2.52,66,66,0,0,0,8.17-22.12c0-22-3.24-41.46-15.66-60.93a1.84,1.84,0,0,1,1.1-2.7c9.69-2.26,22-1.71,31.06,2.69,11.78,5.7,7.5,14.07,8.82,24.94,1.43,11.77,24.67,7.73,32.84,8.82,8.57,1.13,15,5.52,18.43,13.5a1.87,1.87,0,0,1-2.08,2.71c-11.4-2.19-22.27-.37-32.46,3.82C695.8,140.07,722,145,737.93,163.49c5.4,6.24,10.48,14.13,7.68,22.75C742.44,196,735.06,203.6,731.09,213c-6.07,14.31-2.24,23.85,10,32.56,7.28,5.16,16.26,10.16,21,18C775.15,285.1,756.38,306,753.39,327.6Z"/><path class="cls-11" d="M197.65,54.51c14.08-10.1,30.08-17.59,47.67-12.28,16.59,5,32.08,16.25,44,28.76,11.72,12.34,15.57,27.4,23,42,4.63-15.57,4.37-39.8-6.46-51.23a1.84,1.84,0,0,1,0-2.6c6.59-6.42,14.4-13.16,22.93-16.89,6.9-3,14.82-4.6,21.18-8.7-17.09.83-51.15,5.61-55.27,30.35,0,0-45.66-59.49-98.21-15.22-4,5.53-8,10.55-12.05,15.18C188.78,60.86,193.16,57.74,197.65,54.51Z"/><path class="cls-11" d="M562.28,31.23a1.86,1.86,0,0,1-.64,2.51c-15.53,12-7.06,36.77,3.67,50.42,1.62-16.66,8.54-34.64,24.21-42.48,19.42-9.72,38.45-3.52,54.92,8.9C664.94,66,678.05,91.88,704,98.83c2,.54,4,1,6.07,1.39-14.73-6.65-30.26-17.42-41.94-34.94-30.42-45.64-55.33-49.79-89.91-30.43a60.14,60.14,0,0,0-23.81-12A28.17,28.17,0,0,1,562.28,31.23Z"/><path class="cls-12" d="M835.73,348.52c-6.27-38.87-11.06-43-30.65-50.86,16.58-9.67,19.36-23.51-15.23-40.11S756.66,223,767.71,193.92a27.93,27.93,0,0,0,1.57-5.94c-1.22,3.21-2.57,6.36-3.91,9.52-4.61,10.77-12.6,25.57-9.24,37.7,3.75,13.61,18.85,20.71,28.37,29.9,9.76,9.42,12.33,17.8,11.13,31.21-.1,1.26-1.52,2.46-2.76,1.59a27.92,27.92,0,0,0-20.26-4.78c15.1,8.33,22.83,27.61,17.72,44.45-6.1,20.13-29.66,43-16,64.36a1.86,1.86,0,0,1-2.53,2.53c-14-8.28-30.58-12.95-40.52-26.85-6.19-8.66-8.61-18.48-9.72-28.73-4.94,12.85-4.77,27-7,40.6a1.84,1.84,0,0,1-2.28,1.28c-24.3-8.45-26.43-32.89-30.52-54.89-3.37,9.54-6.76,19.05-13.74,26.67a1.84,1.84,0,0,1-3.06-.81c-1.75-9.61,2-18.75,1.15-28.28-1.12-12.06-9.74-21.37-17.11-30.29-10.71-13-17.68-26.32-20.19-43.12-3.59-24.09-1-50.73,10.86-72.37-7.16.27-16.7,5-21.84,6.08a1.87,1.87,0,0,1-2.27-2.27c1.57-9.49,4.08-19.26,10.45-26.8,4.5-5.31,10-9.5,15.12-14.11,0-.08.08-.16.12-.24a68.87,68.87,0,0,0-8.19,4.53,46.59,46.59,0,0,1-4.54,3.19,1.77,1.77,0,0,1-.7.24c-2.77,1.84-5.56,3.68-8.45,5.3-1.3.74-3.32-.48-2.7-2.08,8-21,6.08-56.36-14.69-69.77,2.74,17.86,2.76,37.57-2.48,54.83-4.85,16-15.42,28-26.13,40.3,7.12-2.22,14.1-4.79,21.76-4a1.88,1.88,0,0,1,1.6,2.77c-5.14,11.95-20.37,28.73-15.1,42.57,7.08-3.84,13.08-9.17,21.34-10.31a1.86,1.86,0,0,1,2.25,2.26c-1.55,10.73-5.4,20.95-7.21,31.64-2.07,12.26-3,24.68-6.66,36.62a1.84,1.84,0,0,1-3.53,0c-5.17-18.1-11.91-37.1-29.72-46.39-13.55-7.07-36.5-11.21-50.28-1.77,13.87,2.65,27.84,5.26,39.21,14.18,1,.77.54,2.32-.35,2.9-4.8,3.11-9.41,6.43-13.95,9.87,27.19,4.66,39,36.28,43.09,60.74a1.83,1.83,0,0,1-.7,1.8,67.25,67.25,0,0,1,2.37,34.14,1.85,1.85,0,0,1-3.36.44C570.43,358,566,352,559.19,349.05c3.82,20.56,3.3,39.67-3.37,59.86-.54,1.63-3.11,1.87-3.55,0-4.2-18.25-23.1-47.52-44.23-36.28,8.49,3.56,18.41,6.61,21.69,15.87a1.83,1.83,0,0,1-1.27,2.26,63.85,63.85,0,0,1-13.71,1.67c4.22,4.74,8.88,10,9.51,16.29.86,8.65-2.65,16-7.55,22.95-9.49,13.29-25.87,24.62-42.48,25.7-14.22.91-32-1.05-38.19-16-3.75-9-4.2-18.63-3.94-28.28-1.67,7.23-3.8,14.29-7.94,20.25-7.8,11.17-21.75,18.49-35.27,19.87-12.24,1.25-28.18-3.57-33-16.19a25.24,25.24,0,0,1-1.29-4.51,3.21,3.21,0,0,1-.23-.38c-3.17-6.32-1.65-13.61,2.07-20.21.7-2.27,1.49-4.52,2.35-6.74-3.43,2.51-6.58,5.4-10.26,7.58a1.88,1.88,0,0,1-2.72-1.1c-3.43-18.1,11.45-31.21,23.54-42.73A27.82,27.82,0,0,0,359,371.61c-6.76,5.37-13.18,11.25-17.56,18.67-7.17,12.15-8.67,26-13.17,39.15a1.87,1.87,0,0,1-2.7,1.11c-19.33-12.58-19.9-32.93-18.39-53.66-6.6,5-9.81,14.6-14.06,21.36a1.87,1.87,0,0,1-3.37-.44c-8.32-24.07-13.62-52.6-2.75-76.83,9.29-20.69,25.29-33.66,43.42-45.69-8.76,1.81-16.85,5.7-25.2,9.3-.95.4-2.51.2-2.7-1.1-1.79-13.18,1.33-26.2,14.18-32.45,10.4-5.07,22-6.34,33.48-7.15-10-4.44-20.17-5.61-31.53-4.08-1.68.24-3.24-1.65-1.78-3.06A45.83,45.83,0,0,1,336,225.86c-15.53.95-30.91,4.67-43.7,13.19,6.68-.9,13.59-2.28,18.89,2.68a1.85,1.85,0,0,1-.38,2.89c-6.09,3-15.59,6.13-18.6,12.85-3.15,7.06-.9,14.42-2.57,21.65-1.59,6.93-7.33,10.65-12.41,15.13A123.09,123.09,0,0,0,256,317.77c-.94,1.37-3.64,1-3.43-.93,1.33-12.85,6.58-24.47,13.88-34.86-6.42,4.87-12.31,10.42-18.51,15.63-1.08.91-3.34.47-3.15-1.3,1.08-9.31,5-17.27,10.51-24.75,6.07-8.27,14.51-16.74,17.28-26.87,5.26-19.22,3.42-45.91-7.56-62.88-1.11-1.73,1-3.19,2.53-2.52,5.54,2.37,9,6.56,12.26,11.23,4.16-17.15,6-32.6-5.1-48.73-7.09-10.3-16.55-17.35-26.59-24,2.83,10.18,4.81,20.59,6.94,31a1.84,1.84,0,0,1-3.06,1.78A84.51,84.51,0,0,0,233.37,139c13,18.85,19.93,42.71,16.12,65.32C244,236.85,214,257.89,209,290.69a1.85,1.85,0,0,1-2.7,1.11,26,26,0,0,1-9-11.75c-3.6,10.72,1.58,22.2.11,33.46a1.86,1.86,0,0,1-3.14,1.3,49.66,49.66,0,0,1-7.62-9.65c-1.33,25.33-8.73,50.67-23.74,70.87A77.05,77.05,0,0,1,120,404.53,168.58,168.58,0,0,1,88.81,409c-11.31.67-22.16,1.71-31.27,9.08a1.86,1.86,0,0,1-2.89-.36c-5.95-10.31-1-23.23,5.39-32.79-15.37,5.59-24.21,25.17-28.66,39.56a1.86,1.86,0,0,1-3.35.44c-15.74-20.4-2.62-41.52,14.33-56.13,10.06-8.67,23.3-15.46,30.45-27A33.63,33.63,0,0,0,78,325.2c-9.38,19.68-33.12,35-61.37,33.34l12.46,8.3s-56.73,65-6.92,71.93c0,12.44,11.06,16.6,11.06,16.6s-2.76-15.21,11.07-22.14c15.22,23.51,19.37,5.54,41.5,11.08s63.63,8.27,89.91-31.83,11.06-89.92,11.06-89.92l20.76,41.5s11-35.95,2.76-59.47c15.23,9.68,23.52,12.44,23.52,12.44S210.25,347.48,220,373.76a181.56,181.56,0,0,1,18.43-25.19c-5.49,7.1-15.56,29.36,32.73,65.29C312.63,462.28,361,491.34,433,489.94S579.6,420.79,579.6,420.79c27.66,0,44.26-18,55.32-36,6.92,6.9,23.52-5.55,23.52-5.55S646.25,406.48,693.23,415c-5.14-12.17,6.95-21.11,7.39-19.95,10.91,28.13,44.94,28.82,73.83,30.45,12.75.71,33,6,48.5,4-10.25-5.55-23.77-9.08-24.38-21.47-.47-8.91,3.62-16.51,8.58-23.61,7.5-10.7,11.85-19.33,3.65-31.43a1.51,1.51,0,0,1-.29-.92c-.73-1.06-1.49-2.16-2.22-3.24a1.86,1.86,0,0,1,1.6-2.77c11.16.9,19.54,9.3,22.52,19.66C835.34,360.41,836.06,354.54,835.73,348.52Z"/><path class="cls-11" d="M357.84,246.84a95.51,95.51,0,0,1,12.68.42c-7.59-7.11-17.38-10.81-26.9-15.12-1.61-.73-.88-2.88.44-3.37s2.9-1,4.36-1.51c-8.84.78-17.34,3.33-24.46,8.41a58.74,58.74,0,0,1,34,8A1.81,1.81,0,0,1,357.84,246.84Z"/><path class="cls-3" d="M186.71,273.63c0-1.43,0-2.25,0-2.25S186.68,272.17,186.71,273.63Z"/><path class="cls-3" d="M238.32,348.65c1.46-1.64,2.37-2.56,2.37-2.56A17.21,17.21,0,0,0,238.32,348.65Z"/><path class="cls-2" d="M270.26,352.16c-1.08-34.43,26.27-61.34,56.38-78.15A136.42,136.42,0,0,0,304,287.64c-1.1-4.1-1.3-8.74-1.71-12.86-1.05-10.42,6.28-15.18,14.72-19,10.52-4.77,22.8-6.77,34-9.31a3.47,3.47,0,0,0,1.42-.83,55.36,55.36,0,0,0-4.09-3.87c-8.42-5.18-16.37-8.6-25.71-8.53,8.44-3.57,23.68-5.24,28.52-5.75,5.63-.6,11-.93,16.44-1.08a57,57,0,0,0-9.54-1.4,74.91,74.91,0,0,0-21.57,1.87c-8.49,2-18.58,5.23-24.07,12.41a1.92,1.92,0,0,0,1.65.36c9.48-1.56,17.74.92,26.32,3.43-12.3,2.19-25.72,5.74-34.43,13.21-10.16,8.68-11.95,22.68-5.86,34.54a114.39,114.39,0,0,0-31.46,39.64c-13.59,28.49,2.24,63.22,9.74,90.67.54,2,3.88-.34,3.65-1.92-2.54-18.3-9.46-35.38-11.5-54A75.16,75.16,0,0,1,270.26,352.16Z"/><path class="cls-2" d="M589.82,326.41a60.49,60.49,0,0,1,8,29.84c3.53,22.48-5.92,41.52-19.3,60.89a3.07,3.07,0,0,0-.6,2.73c9.12-4.56,15.14-17.52,19.25-25.87a134.18,134.18,0,0,0,7.33-18.14,93.91,93.91,0,0,0,1-14.82c-.23-18.47-8.26-31.43-19.24-42.85a3.4,3.4,0,0,0,1.2-2.43,18.18,18.18,0,0,0-1-4.35c0-.08,0-.15,0-.24a81.51,81.51,0,0,0-5.36-19.24c-2.42-5.59-7.54-9.85-11.44-14.35-6.09-6.95-11.65-12.87-19.91-14.71a38.29,38.29,0,0,1,8.8-.37c5.59.53,10,4.3,15.81,4.34a2.39,2.39,0,0,0,.52-.1,41.57,41.57,0,0,0-6.21-12.57A35,35,0,0,0,558.25,248c-14.26-5.31-31.18-8.11-46.07-4.1.25.6.85,1,2,1,17.19-.55,37.08.46,50,12.63a35.26,35.26,0,0,0-5.72-.73c-5.8-.25-11.35,1.85-16.65,4.15,14,4.16,24,17.15,30.49,30.33a34.62,34.62,0,0,1,4.48,7.27c.38.86.67,1.78,1,2.69a54.59,54.59,0,0,0-14.39-6.13,90.78,90.78,0,0,1,8.94,8.93C578.57,311.1,585,318.11,589.82,326.41Z"/><path class="cls-6" d="M610.75,202.45a1.87,1.87,0,0,1-2.7-1.1c-3.74-16.8,8.86-27.16,18.55-38.8a3,3,0,0,0-2.65,1.5c0,.06-.09.11-.12.18-5.12,1.47-9.77,4.09-15,5.14,5.65-7.84,10.59-15.83,11.34-25.87a49.37,49.37,0,0,0-.35-9.49c-1-3.91-2.15-7.81-3.42-11.66-2.19-6.63-5.34-12.86-7.66-19.42,0,0,0,0,0,.06.07.44.16.88.22,1.33,4.22,13.59,10,28.93,6.68,42.79-2.9,11.92-10.33,21.16-18.23,30.11a2.48,2.48,0,0,0,1.81.88A29.6,29.6,0,0,0,611,176.35a26.83,26.83,0,0,0-3.27,5.16c-3.91,8.69-4.61,20-3.3,29.29.59,4,5.49,1.88,7-.21,4.93-6.71,14-9.65,21.59-12.52a3.68,3.68,0,0,0,1.92-2.13C626.54,196,619.35,198.11,610.75,202.45Z"/><path class="cls-2" d="M622,271.67c-3.24-14.2-4.38-28.54-2.06-43,1.2-7.44,2.73-14.6,6.26-21.3,2.19-4.15,4.67-8.22,6.54-12.54l-.06,0c-19.76,19.59-21.4,39.88-18.48,67.56,4.59,43.47,31.71,78.08,19.87,123.41-1.36,5.17,6.19,2.25,7.26-1.15,5.11-16.32,4.52-32.7,1.53-49.05C636.81,314.09,627,293.64,622,271.67Z"/><path class="cls-6" d="M687.07,193.28c-1.67-1-2.34-3.4-3.24-5s-2-3.36-3-5c-1.69-2.79-3.49-5.53-5.3-8.28-.64-.95-2.64.76-2.11,1.71,2,3.65,4,7.31,5.79,11a30.25,30.25,0,0,1,1.32,3.3c-1.84-1.52-3.45-3.52-5.08-4.84-2.72-2.21-5.51-4.06-9.05-4.33-1.93-.13-5.29,3.46-2.66,4.68,3.91,1.79,8.5,3.64,11.21,7.16a10.41,10.41,0,0,0,10.25,3.78C686.8,197.13,689.11,194.51,687.07,193.28Z"/><path class="cls-6" d="M687.35,259.72c-3.81,1.78-8.65,4-12.58,7a55,55,0,0,0,2.2-9.26c.64-5.16.27-10.52.08-15.69-.07-2.06-3-.23-3.09,1.23a140.38,140.38,0,0,1-1.49,17.25c-.93,5.67-3.5,11-4.7,16.61-.51,3.19,3.94,1.51,4.41-.71,1-6.13,11.25-10.13,16-12.7C690.18,262.33,690.05,258.45,687.35,259.72Z"/><path class="cls-6" d="M708,337.49a29.88,29.88,0,0,0-4.85,13.08c-.34,3.11.38,6.19,1,9.24-1.3-1.82-2.49-3.73-3.53-5.35-3-4.62-4.93-9.81-7.78-14.48-1-1.73-4,.53-3.23,2.08,2.59,4.89,4.4,10.13,7,15,2,3.77,5,9,8.38,11.64,1.66,1.25,3.87-.53,4.26-2.25,1-4.32-.47-7.58-.86-11.85-.56-5.71,1-11,3.27-16.16C712.8,335.73,709.14,335.65,708,337.49Z"/><path class="cls-2" d="M269.86,169.21a174.34,174.34,0,0,0-1.16-24c-3.24-9.59-8.83-18.07-15.08-26.9a16.59,16.59,0,0,0-3.44-.56c-.69.68-1.11,1.57-.7,2.21,3.82,6,7.73,11.77,11,18,4.06,7.78,5,16.38,5.45,25-7.55-2.16-12.92-9.72-18.67-15.15a1.13,1.13,0,0,0-.73-.3c-1.46-1.33-4.61,1.22-3.71,3,8.15,16.28,15.4,31,16.79,49.59,1.75,23.93-13,47.5-26.13,66.32-11.3,16.23-17.21,36.76-6.22,54.3,1.9,3.06,6.83-.83,5.71-3.72-13.65-35.19,19.63-63.1,29.35-95.44,6.34-21.09,1.08-39.95-7.59-58.42C259.1,167.62,264.16,170.78,269.86,169.21Z"/><path class="cls-6" d="M191.86,208.84c-3.58,14.29-3,31.87-8.89,45.85a53.44,53.44,0,0,0-1.59-16.14c-.4-1.67-3.49.26-3.2,1.68a48.27,48.27,0,0,1-.93,24.54c-.76,2.35,2.58,1.49,3.35.36,12.09-17.14,12.7-36.87,16.24-57.08C197.48,204.4,192.46,206.43,191.86,208.84Z"/><path class="cls-6" d="M138.15,325.7c-1.28,4.83-2.7,9.57-5.25,13.9-2.69,4.57-3.07-1.9-3.21-4.15-.22-3-4.6-.7-4.79,1.33-.27,2.73-.65,5.34.14,8,1,3.3,4.94,3.41,7.54,2.3,3.38-1.44,5.65-5.57,7-8.78a38.81,38.81,0,0,0,3.1-13.9C142.82,321.46,138.58,324.08,138.15,325.7Z"/><path class="cls-6" d="M99.41,276.44a46.74,46.74,0,0,0-9.46,4.4A9,9,0,0,0,88.52,282c.74-4.31,1.75-8.7,3.82-12.28,2.34-3.94,5.49-6.5,8.11-10.09,1.56-2.16-1-3.53-2.69-1.88-2,2-4.45,3-6.41,5.05a45.05,45.05,0,0,0-4.49,6.13c-3.71,5.43-4.53,13.94-5.61,20.23-.38,2.19,1.49,3,3.34,2.4,2.06-.73,3.43-2.24,4.85-3.81,2.64-3,6.8-4.59,10.33-6.21C102.56,280.3,103.56,275,99.41,276.44Z"/><path class="cls-6" d="M578.81,31.51c-11.65,5.7-16.4,18.42-18.35,30.53-.54,3.36,3.82,1.3,4.45-.71,3-9.53,5.64-20.53,14.77-26.08C581.58,34.1,581.58,30.15,578.81,31.51Z"/><path class="cls-6" d="M307.9,88.28c-3-11.67-7.33-21.46-15.21-30.62-1.38-1.59-4.32,1.39-3.17,3.06,6.67,9.57,10.35,19.59,13.58,30.69C303.9,94.23,308.54,90.74,307.9,88.28Z"/><path class="cls-13" d="M401.79,460.13S368.42,550.35,430.2,555s52.1-59.49,36.64-92c-17.28.7-34.61-8.67-38.63-32C425.46,443.53,416.36,453.82,401.79,460.13Z"/><path class="cls-14" d="M436.33,556.86h0c-2,0-4.11-.09-6.25-.24-14.32-1.06-24.87-6.72-31.35-16.83-17.68-27.53.7-78.1,1.5-80.24l.25-.67.64-.28c14-6,22.77-15.72,25.48-28l1.82-8.32,1.43,8.39c3.3,19.23,16.47,30.7,35.21,30.7.58,0,1.14,0,1.72,0l1.11,0,.47,1c11.09,23.34,17.28,57.53,4.72,77.43C465.88,551.08,453.5,556.86,436.33,556.86Zm-33.22-95.5c-2.11,6.06-17.32,52.14-1.58,76.64,5.9,9.17,15.59,14.32,28.79,15.3,2.07.16,4.08.23,6,.23h0c16,0,27.39-5.26,33.93-15.62,11.73-18.57,6-50.74-4.44-73.25h-.76c-14.45,0-31-7.31-37.05-27.34C423.89,447.67,415.41,455.88,403.11,461.36Z"/><path class="cls-15" d="M466.84,463c-17.28.7-34.61-8.67-38.63-32-2.75,12.59-11.85,22.88-26.42,29.19,0,0-.38,1.05-1,2.82,13.07-5.65,23.3,11.69,33.37,27.05a14.26,14.26,0,0,1,2.19-8.61c3.62-5.38,12.32-8.91,18.13-4.19,17.05,13.84,24.35,46.68,8.61,64.51-9.32,10.57-21.86,14.08-35.24,13,.76.1,1.51.25,2.31.29C492,559.57,482.3,495.47,466.84,463Z"/><path class="cls-15" d="M440.07,501.6c-7.13-20.33-10.42-39.53-6.66-61.06.48-2.64-3.27-1.27-3.68.6-4.61,22.13,1,40.9,9.19,61.84C440,505.59,440.89,503.91,440.07,501.6Z"/><path class="cls-16" d="M373.38,187.69c.05,20.86-7.35,37.85-16.52,37.88s-16.64-16.93-16.68-37.82,7.34-37.84,16.52-37.87S373.36,166.78,373.38,187.69Z"/><path class="cls-17" d="M359.72,170.42c0,7.47-2.63,13.56-5.9,13.53s-5.94-6-6-13.5,2.63-13.53,5.9-13.55S359.69,163,359.72,170.42Z"/><path class="cls-16" d="M545.19,191.44c0,20.86-7.34,37.85-16.54,37.88S512,212.37,512,191.5s7.34-37.84,16.52-37.88S545.16,170.52,545.19,191.44Z"/><path class="cls-17" d="M531.57,174.67c0,7.49-2.64,13.57-5.9,13.54s-5.95-6-6-13.5,2.62-13.53,5.89-13.53S531.54,167.22,531.57,174.67Z"/><path class="cls-18" d="M353.5,107.74c-9.9,2.33-18.1,13.78-20.38,23.12-1,4.14,4.72,3,6.11.67.32-.51.61-1,.95-1.53,3.69-4.32,6.46-7.07,12.3-8.06,6.32-1.1,13.49,2.28,16.88,7.65,1.57,2.45,5.54-.29,5.19-2.72C373,115.44,366.71,104.6,353.5,107.74Z"/><path class="cls-18" d="M544.15,123.76c-2.83-7.63-14.16-12.57-21.73-12.58-9.24,0-13.83,6.76-15.38,14.74-.37,2,.6,2.54,1.87,2.37.27.63,1,1,2.09.28a34.75,34.75,0,0,0,4.16-3c2.13-1.66,6-.91,8.44-.88,6,.07,10.8.5,16.17,3.33C542,129.14,544.91,125.88,544.15,123.76Z"/><path class="cls-2" d="M435.05,377.9c-.67,3.91-1,7.85-1.58,11.75s-.76,7.86-1.14,11.77a113.52,113.52,0,0,0-.7,11.79l-.5,11.76v.17l-.74,4.92-1.14,4.85-1.67,4.74c-.74,1.52-1.34,3.09-2.2,4.54a36.38,36.38,0,0,1-6.15,8.15,32.73,32.73,0,0,1-8.2,6.16,44.86,44.86,0,0,1-9.49,3.72l-5,1-5,.54a72.37,72.37,0,0,1-10-.11c-1.67,0-3.31-.32-4.94-.52l-2.46-.31c-1.19-.19-1.69-.38-2.55-.55a35.42,35.42,0,0,1-4.76-1.26c-1.65-.66-3.36-1.24-4.95-2l-4.51-2.67c-1.36-1.14-2.73-2.25-4-3.46-1.12-1.39-2.32-2.69-3.31-4.14a44,44,0,0,1-2.53-4.68,31.78,31.78,0,0,1-2.41-10.2,32.9,32.9,0,0,1,.89-10.34,27.86,27.86,0,0,1,1.52-4.93,28.4,28.4,0,0,1,2.16-4.64,41.17,41.17,0,0,1,5.89-8.34,52.92,52.92,0,0,1,7.56-6.79l2.63,3.86c-5.68,3.5-11.35,7-16.92,10.6l-4.14,2.76a41.8,41.8,0,0,0-3.76,2.81l-.22.24c-.1.14.2-.32.13-.53a1.48,1.48,0,0,0-.26-1,1.67,1.67,0,0,0-.51-.43l-.13-.07-.27-.07h-.07l-.66.13.08,0c.24-.07-.08-.06-.33.17s-.2.31-.19.22l.09-.17c.22-.6.41-1.45.62-2.22l1.14-4.89a56.67,56.67,0,0,1,8-18.67,31.59,31.59,0,0,1,7.05-7.36,27.14,27.14,0,0,1,9.09-4.23,28.47,28.47,0,0,0-14.77,12.48c-3.36,5.62-5.14,12-6.46,18.44l-.95,4.9a22.71,22.71,0,0,1-.62,2.62l-.15.43a2.55,2.55,0,0,1-1.25,1.35l-.06,0-.67.12-.08,0h-.14l-.54-.11a1.67,1.67,0,0,1-.88-.67,1.79,1.79,0,0,1-.38-1.22,2.75,2.75,0,0,1,.41-1.1,4.8,4.8,0,0,1,.62-.73,35.42,35.42,0,0,1,4.05-3.37l4.09-3c5.46-3.89,11-7.65,16.52-11.4l2.65,3.87a46.2,46.2,0,0,0-6.69,6.19,34.92,34.92,0,0,0-5.12,7.44,23.62,23.62,0,0,0-1.83,4.11,20.31,20.31,0,0,0-1.24,4.3,27.26,27.26,0,0,0-.64,8.81,25.86,25.86,0,0,0,2.1,8.43,36.49,36.49,0,0,0,2.1,3.78c.84,1.19,1.84,2.24,2.75,3.36l3.3,2.83,3.73,2.31a35.51,35.51,0,0,0,8.5,3,57.46,57.46,0,0,0,9.13,1.4,75.69,75.69,0,0,0,9.28.24l4.57-.44,4.49-.86a39.23,39.23,0,0,0,8.47-3.2,32.51,32.51,0,0,0,7.33-5.18,32.09,32.09,0,0,0,5.75-7c.82-1.27,1.43-2.68,2.17-4l1.71-4.29,1.27-4.51.89-4.6v.17l1-11.89c.32-4,.81-7.9,1.51-11.8s1.17-7.86,2-11.71S434.05,381.74,435.05,377.9Z"/><path class="cls-2" d="M429.5,424.94a43.69,43.69,0,0,0,2.5,14.77l1.47,3.41,1.84,3.2,2.22,2.92c.79.94,1.72,1.72,2.57,2.59a20.21,20.21,0,0,0,2.8,2.26A14.42,14.42,0,0,0,446,456a31.28,31.28,0,0,0,6.68,2.77,65,65,0,0,0,7.1,1.56l7.25.45,7.58-.3c2.39-.38,4.79-.49,7.15-1a48.64,48.64,0,0,0,7-1.92,49.47,49.47,0,0,0,6.6-2.83,44.61,44.61,0,0,0,5.93-4,31.55,31.55,0,0,0,5.13-4.87,34.64,34.64,0,0,0,4.13-5.74,32.32,32.32,0,0,0,2.79-6.23l.38-1.23,1.17-.6a38.18,38.18,0,0,0,4.66-2.55,19.32,19.32,0,0,0,2.13-1.55,15.61,15.61,0,0,0,2-1.74,26.27,26.27,0,0,0,3.38-3.94,24.3,24.3,0,0,0,2.36-4.55,18.57,18.57,0,0,0,1-4.85,11.58,11.58,0,0,0-.63-4.7,8.18,8.18,0,0,0-1-2.12,13.09,13.09,0,0,0-1.41-1.87c-.56-.55-1.26-1-1.84-1.53l-2.16-1.21-8.79-4.87,9.55.38,4.84.19,2.4.11c.81.08,1.57.28,2.37.43a41.24,41.24,0,0,1,4.69,1A38.92,38.92,0,0,1,543,400.4l-2.51,2.45a56,56,0,0,0-6-10.35,46.32,46.32,0,0,0-3.81-4.64,41.82,41.82,0,0,0-4.4-4.12,29.19,29.19,0,0,0-5.05-3.17,13.11,13.11,0,0,0-2.74-1.14,23.46,23.46,0,0,0-2.92-.81l-3-.4c-1-.07-2,.06-3,.06-2.09-.12-4,.69-6.09,1,2-.52,3.89-1.56,6-1.69a27.73,27.73,0,0,1,3.14-.38l3.18.18A19.81,19.81,0,0,1,519,378a13.82,13.82,0,0,1,3.06,1,30.72,30.72,0,0,1,5.7,2.93,42.87,42.87,0,0,1,5,4,53.1,53.1,0,0,1,4.3,4.71A59.85,59.85,0,0,1,544,401.36l2.13,4.36-4.64-1.89a36.91,36.91,0,0,0-4.09-1.2,41.23,41.23,0,0,0-4.29-.7,15.76,15.76,0,0,0-2.16-.28l-2.18,0h-4.33l.77-4.49,2.93,1.51c.88.7,1.81,1.32,2.63,2.1a17.21,17.21,0,0,1,2.16,2.66,13,13,0,0,1,1.53,3.05,16.61,16.61,0,0,1,1.09,6.62,22.25,22.25,0,0,1-1.2,6.43,28.07,28.07,0,0,1-2.89,5.71,29.38,29.38,0,0,1-4.07,4.86,21.23,21.23,0,0,1-2.34,2.11,20,20,0,0,1-2.51,1.82,39.88,39.88,0,0,1-5.43,3.06l1.53-1.82a33.05,33.05,0,0,1-3.37,7.63,42.89,42.89,0,0,1-4.79,6.56,41.7,41.7,0,0,1-5.9,5.53,50.15,50.15,0,0,1-6.78,4.37,54.15,54.15,0,0,1-7.43,3,51.33,51.33,0,0,1-7.71,1.9c-2.6.52-5.32.61-8,.9-2.55.08-5.06,0-7.63,0l-7.89-.91a70.34,70.34,0,0,1-7.63-2.07,33.54,33.54,0,0,1-7.17-3.44,14.17,14.17,0,0,1-3.24-2.28,20.84,20.84,0,0,1-3-2.66c-.84-1-1.78-1.95-2.54-3l-2.1-3.33-1.68-3.56-1.24-3.71a41.84,41.84,0,0,1-1.3-7.59A38.11,38.11,0,0,1,429.5,424.94Z"/><path class="cls-19" d="M376.25,354.62s33.81,29.81,60.78,29.21,46.76-24.23,51.47-32.48S470,327.51,439.33,322.14,361.79,333.36,376.25,354.62Z"/><path class="cls-20" d="M471.42,352.5c-7.78-1.14-19.89-7.24-26.67-.55-3.29,3.24-5.89,7-9.7,9.7-9.17,6.38-15.91-2.45-22.86-7.13-7.24-4.9-17.65-4.59-26-6.18-3.81-.72-9.9-1.49-12.17-4.95-1,3.53-.47,7.3,2.22,11.23,0,0,33.81,29.81,60.78,29.21s46.76-24.23,51.47-32.48a3.89,3.89,0,0,0,.47-1.2A35.12,35.12,0,0,1,471.42,352.5Z"/><path class="cls-21" d="M410.77,374.18S402.61,361,390,357.52c-8.36-1.88-7.52-10.62,7.74-4.93S414.76,378.29,410.77,374.18Z"/><path class="cls-21" d="M437,377.87s5.7-11.05,20.59-12.25,15.62-10.22.38-10.56S430,377.45,437,377.87Z"/><path class="cls-17" d="M445.65,329.55c-11.1-5.43-24.68-2.44-36.43-1.27-9.82,1-17.79,5.59-26.4,9.65-.88.43-3.63,3.87-1.28,3,8.33-2.92,15.55-7.08,24.47-8.54a101.43,101.43,0,0,1,35.9.87C443.25,333.58,447.41,330.41,445.65,329.55Z"/><path class="cls-17" d="M460.77,332.43c-1.81-1.8-5.34-1.49-7.74-1.46a4.56,4.56,0,0,0-2.8,1.53c-.23.23-1.78,2.21-.61,2.34,2.54.32,4.93,1.19,7.48,1.3C458.07,336.16,462,333.64,460.77,332.43Z"/><g class="cls-22"><path class="cls-23" d="M417,541c-17.27-19.45-18.44-45.22-10.59-69.33.6-1.8-1.74-1.55-2.26-.25-9.23,22.85-10,54.93,10,72.32C415.52,545,418.2,542.42,417,541Z"/><path class="cls-23" d="M422.33,543.85c-1.87,0-4,3.71-1.63,3.71C422.55,547.56,424.68,543.85,422.33,543.85Z"/></g><path class="cls-7" d="M359.17,290.21c-.62.41-1.29.91-1.92,1.34,1.07-1.21,2.18-2.41,3.33-3.65,7.23-7.66,17.3-13.81,23.91-22.1,2-2.41,3.87-4.84,5.67-7.38a11.68,11.68,0,0,0-5-2.54c7.36-1.06,14.85-1.87,21.52-4.32a20.68,20.68,0,0,1,2.83,1,1.83,1.83,0,0,0,1.72-.35l.91-.62a2.25,2.25,0,0,0,1-2.55c-1.87-5.18-18-10.16-29.05-13.37,6-1,12-2.3,16.94-2.54,5.69-.28,11.27-.59,16.81-.51-17-3.13-34.19-3.26-50.35,2.92a1.8,1.8,0,0,0,1,1.13c6.57,2.09,13.52,2.79,20.13,4.85,5.13,1.59,10.23,3.12,15.3,4.88,6.12,2.11,7.05,2.61,5.84,2.48a.71.71,0,0,0-.66-.38c-4.22-.31-8.61-1.46-12.79-2.19-5.13-.91-12,.61-17.12,1.18a93.14,93.14,0,0,0-16,3.17,40,40,0,0,0-14.58,12.82h0c4.61.23,9.52-.83,14.33-2.19,4.66.37,9.58,1.34,14.15,1.77-3.69,1.14-7.4,2.19-10.85,3.62-7.68,3.22-14.22,8.59-20.7,13.71-11.43,9.05-19,23.19-21.31,37.34a1.31,1.31,0,0,0,2,1.27,39.22,39.22,0,0,0,7.26-5.32c-4.88,7.06-7.66,14.89-5.67,23.13a2.72,2.72,0,0,0,.85,1.47c20.64-31.84,57.51-49.6,92.61-64.27C400.26,275.73,377.09,278.07,359.17,290.21Z"/><path class="cls-7" d="M379.43,431.37c-3-2.33-6.15-4.48-9.08-7-5.2-4.44-3.53-11.38-2.09-17.06.25-1-.85-.91-1.27-.27-4,6.07-8,12.16-5.71,19.65,2.08,6.68,9.56,9.81,16,9C378.79,435.56,381.12,432.69,379.43,431.37Z"/><path class="cls-7" d="M471.13,436.69c-5-8.92-20.24-5.42-24.19-15.36-.26-.67-1.09.16-1.15.53-2.6,12.61,10.73,29.54,23.53,19.67C470.61,440.54,472.08,438.38,471.13,436.69Z"/><path class="cls-7" d="M169,128.36c-10-.32-20.54,6-29.21,10.16-6.57,3.16-15.91,9.27-17,17.18-.27,1.89,2,1.52,2.81.63,5.08-5.21,13-9.4,19.17-13.18C152.44,138.45,160.31,132,169,129,169.19,128.93,169.42,128.38,169,128.36Z"/><path class="cls-7" d="M142.21,163.37c-5,2.29-10.64,3.14-15.76,5.34A60.81,60.81,0,0,0,109,179.57c-8,7.55-14.35,20-10.51,31.14.69,2,3.3.06,4-.79,6-7.95,9.48-18.08,16.17-25.55,7.2-8,16.11-13.31,23.82-20.51C142.71,163.65,142.59,163.19,142.21,163.37Z"/><path class="cls-7" d="M129.09,239.32c-17.81,19.5-6.67,41.78-12.28,65.08-.5,2.06,2.25,1.11,2.89.19,4.06-5.85,5.81-13.27,7.18-20.2,3.05-15.38-4.54-29.62,3.16-44.47C130.45,239.16,129.64,238.71,129.09,239.32Z"/><path class="cls-7" d="M226.56,60.51c-4.48,1.9-9,2.48-13.13,5.27a55.45,55.45,0,0,0-13,12.44c-1.94,2.54-.34,6.35,2.87,3.9a161.6,161.6,0,0,0,12.24-10.68c3.69-3.47,8-6.43,11.4-10.13C227.3,60.93,227.14,60.26,226.56,60.51Z"/><path class="cls-7" d="M369.88,67.37c-6.2-1.55-13.08-3.36-19.53-2.2-6.73,1.18-11.26,4.62-16.85,8.13-.46.28-.55,1.17.15,1.08,5.25-.67,9.9-3.1,15.24-3.21,6.38-.15,12.66.67,19.05.22C369.39,71.28,372.35,68,369.88,67.37Z"/><path class="cls-7" d="M393.12,54.8c-1.33-1.84-3-2.8-4.83-4.07a19,19,0,0,0-5.45-2.95c-.39-.1-1,.51-.64.86,3.1,2.75,3.87,8.8,8.56,9.23C392,58,394,56.06,393.12,54.8Z"/><path class="cls-7" d="M454.49,39a50.88,50.88,0,0,0-8.09,4.12c-2.8,1.9-4,4.89-5.66,7.65-.47.79.23,1.33,1,.87,2.34-1.43,4.22-3.34,6.56-4.77a50.72,50.72,0,0,0,7.06-5.14C456.48,40.72,456.67,38,454.49,39Z"/><path class="cls-7" d="M654.72,189.08c-5.88,7.8-19.15,20.71-11.59,31.34,1.72,2.42,4.73-.24,5.15-2.34.94-4.73,1.21-9.39,1.83-14.14.67-5.19,4.14-9.74,5.34-14.82C655.57,188.59,654.89,188.86,654.72,189.08Z"/><path class="cls-7" d="M705.61,245.22c-3.46,7.47-5.74,15.37-9.27,22.86-3.33,7.08-6.29,12.92-5.19,20.9.37,2.69,3.68.56,4.25-.86,2.85-7.24,5.18-14.84,7.61-22.23,2.25-6.83,2.2-13.76,3.62-20.74C706.8,244.39,705.78,244.83,705.61,245.22Z"/><path class="cls-7" d="M722,307a89.57,89.57,0,0,0-3.62-9.55c-1.37-3.34-3.65-9.59-2.51-13.36.18-.54-.48-.51-.7-.16-4.14,7-.58,18.85,2.85,25.4C719.15,311.44,722.57,308.85,722,307Z"/></g></g></svg>