<svg xmlns="http://www.w3.org/2000/svg" viewBox="0 0 881.92 728.67"><defs><style>.cls-1{isolation:isolate;}.cls-2,.cls-3,.cls-8{fill:#3a3438;}.cls-12,.cls-3{mix-blend-mode:screen;}.cls-10,.cls-13,.cls-4,.cls-6,.cls-8{mix-blend-mode:multiply;}.cls-5{fill:#fff;}.cls-6{opacity:0.5;}.cls-12,.cls-7{fill:#d8d2d5;}.cls-10,.cls-9{fill:#f79797;}.cls-11{fill:#eb566c;}.cls-13{fill:#a59da2;}</style></defs><g class="cls-1"><g id="Layer_1" data-name="Layer 1"><path class="cls-2" d="M195.7,38.46s-21.93-30.78-53.45-11.1-32,55.19-13.31,71.21C154.57,76.14,195.7,38.46,195.7,38.46Z"/><path class="cls-3" d="M183.77,32.66s-21-21.61-48.2,1.86C120.12,47.5,120.74,75.3,146.08,63S191.19,40.69,183.77,32.66Z"/><g class="cls-4"><path class="cls-2" d="M191.84,34c-8.16,8.51-34,34.32-53.22,39.7-14.22,4-20.74-2.94-21-14.07-3.59,14.95.86,29.95,11.3,38.92,25.63-22.43,66.76-60.11,66.76-60.11A41.41,41.41,0,0,0,191.84,34Z"/></g><path class="cls-5" d="M176.79,28.87s-29.2-5.83-46.73,22.4C132,35.69,156.35,16.22,176.79,28.87Z"/><path class="cls-2" d="M152.93,478.26s-9,31.39-17.92,53.82-13.46,46.75-3.21,54.45,19.86,27.54,0,31.38c0,0-9,7.69-17.29,4.49-7.05,9.61-28.84,4.49-44.85-12.16S-5.92,516.7.48,405.25c6.4-85.85,21.14-139,31.39-159.53C31.87,245.72,56.22,419.34,152.93,478.26Z"/><path d="M96.31,597.69a26.69,26.69,0,0,1,5.88.62c3.44.71,8.2,2.32,11.72,6a15.31,15.31,0,0,1,2.15,3.06,11.93,11.93,0,0,1,1.16,3.42,12.61,12.61,0,0,1,.15,3.33,15.39,15.39,0,0,1-.48,2.9,17.26,17.26,0,0,1-.81,2.32,15.61,15.61,0,0,1-.79,1.7c-.48.91-.78,1.41-.78,1.41s.14-.59.44-1.55c.16-.48.28-1.09.43-1.78s.26-1.48.41-2.31a18.31,18.31,0,0,0,.13-2.72,13,13,0,0,0-.38-2.94,11.22,11.22,0,0,0-1.14-2.9,13.22,13.22,0,0,0-1.9-2.6,18.53,18.53,0,0,0-2.5-2.17,28.43,28.43,0,0,0-2.75-1.71,38.89,38.89,0,0,0-5.36-2.34c-1.63-.58-3-1-4-1.28Z"/><path d="M120,594.44a22.28,22.28,0,0,1,5,1.18,22.91,22.91,0,0,1,4.78,2.33,15.72,15.72,0,0,1,4.51,4.34,10.59,10.59,0,0,1,1.77,6.12,7.31,7.31,0,0,1-.12,1.49,8.31,8.31,0,0,1-.32,1.39,12.49,12.49,0,0,1-.89,2.4,18.32,18.32,0,0,1-2,3.14c-.57.71-.91,1.08-.91,1.08s.2-.47.59-1.26a27.06,27.06,0,0,0,1.3-3.38,18.33,18.33,0,0,0,.53-2.29,7.26,7.26,0,0,0,.12-1.25,6.35,6.35,0,0,0,0-1.31,10.79,10.79,0,0,0-.47-2.6,11,11,0,0,0-1.22-2.45,16.55,16.55,0,0,0-3.86-4,32.5,32.5,0,0,0-4.26-2.72c-1.3-.7-2.45-1.29-3.25-1.62Z"/><g class="cls-6"><path class="cls-2" d="M152.93,478.26C56.22,419.34,31.87,245.72,31.87,245.72,21.62,266.25,6.88,319.4.48,405.25c-6.4,111.45,53.18,188.31,69.18,205s37.8,21.77,44.85,12.16c8.33,3.2,17.29-4.49,17.29-4.49,19.86-3.84,10.26-23.69,0-31.38-4.78-3.58-6.32-10.82-5.74-19.75C120.55,584.63,108,588.46,78.71,574,14.11,529.4,12.12,409.53,28.1,384.21s22,27.31,57.94,67.26c35.59,39.57,51,53,48,83,.32-.82.61-1.62.94-2.42C144,509.65,152.93,478.26,152.93,478.26Z"/></g><path class="cls-3" d="M82.52,600.84s28.38,0,19.64,16.7c-5.89,8.39,8.43,11.3,12.19-.18S107.85,595.25,82.52,600.84Z"/><path class="cls-3" d="M106.69,596s18.72,0,16.19,17.13c-1.59,12.07,10.79,7.61,10.79-2.54S128.59,594.72,106.69,596Z"/><path class="cls-3" d="M125.64,593.07s14.65-.92,13.07,13.29c-1,10,3.78,7.2,3.78-1.21S139.3,592,125.64,593.07Z"/><path class="cls-5" d="M147.89,484.72S83.28,453.56,41.72,317.37C17.49,219.29,25.57,200.82,70.57,148.89,123.66,98.12,171,61.19,201,31.17S249.47-6.91,292.15,5.78,362.54,37,362.54,37s133.88-5.78,189.27,33.45C480.25,82,147.89,484.72,147.89,484.72Z"/><path class="cls-7" d="M362.54,37s-28-17.6-70.39-31.18c-63.36-20.27-79.92,21-97.63,31.6,21.9-15.22,54.28-54.73,106.21-18.24,38.3,26.9-48,18.18-57.11,38.94s99.95-19.47,151.86-3.9S249,159.51,152.65,366.84c-19.09,41.05-178.76-116.22-33.21-262.71C104,117.79,87.58,132.62,70.57,148.89c-45,51.93-53.08,70.4-28.85,168.48C83.28,453.56,147.89,484.72,147.89,484.72S480.25,82,551.81,70.41C496.42,31.18,362.54,37,362.54,37Z"/><path class="cls-2" d="M825.09,311.17S703.43,53.65,540.17,66.36c-110.27,7.43-172.81,52-307.46,214.17-67.84,97.53-114.49,185.52-74.2,264s106,143.11,159,173.87c29.7,17,44,9.56,52.92,1.88,12.39,6.41,22.62,4.69,27.75-.42,6.83,5.11,20.9-.42,20.9-12.81s-15.35-13.22-26.88-18.77-23.89-58.9-30.31-87.5-7.25-46.09,14.51-53.35c29.89,16.22,132.64,31.14,257.88-.66-15.57,22.7-22,36.92-13,51.91,17.52,29.21,21.4,48,39.58,77.88s29.84,36.34,45.41,38.28a48.55,48.55,0,0,0,27.28-4.54s10.37,5.19,25.29-3.89C768,712.23,778.36,705.1,779,696s-14.28-14.27-21.42-17.52-18.16-18.16,6.49-45.42,59-55.17,89.23-98S908.8,467.9,825.09,311.17Z"/><g class="cls-6"><path class="cls-2" d="M825.09,311.17S732,114.1,599.38,73.26c21.38,8.58,43.75,21.08,63.18,39.3,59.86,56.11,5.61,58-31.79,48.63S483,234.14,421.23,307.11s-38.74,74.67-20,121.44-.53,48.8-41.7,80.6-28.05,80.44,0,145.92c13.11,26.19-8.81,31.68-25.07,24s-259.54-197.24-52.63-456c-15.32,17.27-31.57,36.34-49.08,57.42-67.84,97.53-114.49,185.52-74.2,264s106,143.11,159,173.87c29.7,17,44,9.56,52.92,1.88,12.39,6.41,22.62,4.69,27.75-.42,6.83,5.11,20.9-.42,20.9-12.81s-15.35-13.22-26.88-18.77-23.89-58.9-30.31-87.5-7.25-46.09,14.51-53.35c29.89,16.22,132.64,31.14,257.88-.66-15.57,22.7-22,36.92-13,51.91,17.52,29.21,21.4,48,39.58,77.88s29.84,36.34,45.41,38.28a48.55,48.55,0,0,0,27.28-4.54s10.37,5.19,25.29-3.89C768,712.23,778.36,705.1,779,696s-14.28-14.27-21.42-17.52c-4.84-2.2-11.47-9.79-7.51-23-6.25,12.13-9.67,20-22.49,20.91-14,.94-32.61-9.3-43.79-41.9s-28.87-65.2,22.36-99.67S794.65,474.3,826.33,465s38.18,48.43,19.55,78.23c-2.18,3.49-4.3,6.87-6.36,10.11,4.65-5.81,9.29-11.84,13.8-18.27C883.49,492.23,908.8,467.9,825.09,311.17Z"/></g><path class="cls-8" d="M638.18,560c27.94-18.64,48.43-28.88,60.54-46.57-33.54,19.56-48.44,28-123,31.66s-183.49,1.87-150-22.35c27-25.15,23.3-30.72,23.3-41s-23.3,36.34-79.19,57.77c-25.13,8.38-15.09,35-8,61.25-6.39-28.59-7.25-46.09,14.51-53.35,29.89,16.22,132.64,31.14,257.88-.66-14.17,20.67-20.69,34.3-15,47.87C620,583.17,624.13,569.36,638.18,560Z"/><path class="cls-2" d="M407.92,549.44s-19.59,20.93,3.28,35.29c14.36,9.79,18.94,26.79-1.33,25.48-5.86,7.85-16.32.67-18.29,3.92-17,12.42-30.71,4.58-38.54-19.61S345.2,525.26,407.92,549.44Z"/><path class="cls-8" d="M407.92,549.44s-19.59,20.93,3.28,35.29c14.36,9.79,18.94,26.79-1.33,25.48-5.86,7.85-16.32.67-18.29,3.92-17,12.42-30.71,4.58-38.54-19.61S345.2,525.26,407.92,549.44Z"/><path d="M379.83,593.89a14.28,14.28,0,0,1,4.87-.06,17,17,0,0,1,2.34.47,13.65,13.65,0,0,1,2.55.94,12.37,12.37,0,0,1,4.9,3.83,9.89,9.89,0,0,1,1.51,3,9.64,9.64,0,0,1,.34,3.21,10.37,10.37,0,0,1-.57,2.83,10,10,0,0,1-1,2.23,9.91,9.91,0,0,1-1.14,1.69,9.47,9.47,0,0,1-1,1.15,11,11,0,0,1-1,.92s.1-.49.32-1.28.5-2,.75-3.25c.13-.66.2-1.37.27-2.09a13,13,0,0,0,0-2.16,8.92,8.92,0,0,0-.51-2.08,6.82,6.82,0,0,0-1.06-1.89,13.45,13.45,0,0,0-3.41-3.16A39.63,39.63,0,0,0,384,596C381.61,594.72,379.83,593.88,379.83,593.89Z"/><path d="M398.12,591.92a7.68,7.68,0,0,1,1.15-.31,11.55,11.55,0,0,1,3.16-.14,11.74,11.74,0,0,1,2.12.38,12.71,12.71,0,0,1,2.32.9,10.14,10.14,0,0,1,2.22,1.6,9,9,0,0,1,1.84,2.22,12.21,12.21,0,0,1,1.15,2.63,15,15,0,0,1,.4,2.67c0,.84-.06,1.67-.13,2.43s-.37,1.45-.56,2.07a6.52,6.52,0,0,1-.64,1.64c-.22.48-.45.87-.64,1.21-.4.64-.64,1-.64,1s-.05-.44-.11-1.18,0-1.75-.19-2.94c-.07-.58-.14-1.21-.17-1.85s-.27-1.3-.35-2-.42-1.26-.57-1.91a17.26,17.26,0,0,0-.87-1.78,9,9,0,0,0-1.18-1.57,15,15,0,0,0-1.4-1.36c-.55-.35-1-.81-1.6-1.1s-1.1-.65-1.6-.94c-1-.52-2-1-2.63-1.23S398.12,591.92,398.12,591.92Z"/><path class="cls-3" d="M371.22,595.39s13.65,5.37,11.58,20.25c-2.07,5,12.4-2.07,7.45-13.23S371.22,595.39,371.22,595.39Z"/><path class="cls-3" d="M390.42,592.88s12.39,1.25,12,13.24c-.82,6.61,8.28,6.2,8.28-2.07S400.34,588.75,390.42,592.88Z"/><path class="cls-3" d="M405.84,589.71s16.53,2.49,11.16,19C423.62,607.07,426.92,594.25,405.84,589.71Z"/><path class="cls-2" d="M527.41,228s29.18-60.92-12.81-78.85-106,31.24-104.41,96.25C411.21,273.57,469.56,326.8,527.41,228Z"/><g class="cls-4"><path class="cls-2" d="M514.6,149.17c-14.71-6.26-32.09-4.28-48.43,3.69,18.36-4.12,47.18-7.37,57.47,9.31,8.61,15.05-1.07,47.82-7,26.87s-24.7-31.16-59.63-7-38.14,61.23-8,70.37c19.88,4.83,1.61,28.47-19.34,15.05s-20.95-37.61-10.75-63.4a43.61,43.61,0,0,0,1.57-4.62,98.78,98.78,0,0,0-10.26,46c1,28.15,59.37,81.38,117.22-17.4C527.41,228,556.59,167.1,514.6,149.17Z"/></g><path class="cls-9" d="M460.28,186s40.62-28.3,48.18-4.48c6.42,20.25,1.11,68.31-39.21,70.56S416.6,215.15,460.28,186Z"/><g class="cls-4"><path class="cls-9" d="M508.46,181.55c-4.53-14.24-20.85-9.85-33.26-4,10.94-1.31,21.19,1.7,21.49,17.58.58,33.73-64.44,72.17-62.74,22.47-5.53,19.64,8.86,36,35.3,34.54C509.57,249.86,514.88,201.8,508.46,181.55Z"/></g><path class="cls-3" d="M483.11,162.21s-58,20.74-59.21,67.13c-1.22,15.88-17.7-13.4,10.38-45.77S506.91,148.17,483.11,162.21Z"/><path class="cls-5" d="M454.65,170.08S424.57,189.77,421.84,222C417.47,206.17,431.13,181.57,454.65,170.08Z"/><path class="cls-2" d="M710.15,211.64s-9.73-39.94,26.1-57.84S832,165.06,834.54,229c-.53,58.86-49.66,67.56-75.25,47.1C744.45,258.73,716.8,218.29,710.15,211.64Z"/><g class="cls-4"><path class="cls-2" d="M799.36,259.46c5-5,24.57-16.38,5.67-59.21s-80.63-10.08-58.59-39.06c9.22-12.13,24-11.87,38-7.52-16.48-6.66-34.16-6.87-48.18.13-35.83,17.9-26.1,57.84-26.1,57.84,6.65,6.65,34.3,47.09,49.14,64.5C784.88,296.6,834,287.9,834.54,229a91.94,91.94,0,0,0-7.73-33.94,2.12,2.12,0,0,1-.36.1C851.66,267,794.32,264.52,799.36,259.46Z"/></g><path class="cls-9" d="M800.42,207.35s-11-27.26-37-18.84-15.57,55.16,6.49,64.9S816.65,244.33,800.42,207.35Z"/><path class="cls-10" d="M787.6,245.48c-24.21,5.06-39.35-42.86-23.21-54,7.33-5,15.6-3.61,22.43-.58-5.77-3.67-13.49-5.63-23.37-2.43-26,8.45-15.57,55.16,6.49,64.9,20.78,9.17,43.85-7,32.89-39.83C803.8,216.8,810.16,240.78,787.6,245.48Z"/><path class="cls-3" d="M776.43,166.13s33.57,7.79,42.34,47.21c4.87,24.34,20.43-7.3-8.77-39.42S756.48,159.8,776.43,166.13Z"/><path class="cls-5" d="M789.82,163.46s25.49,13.25,31.62,38.76C824.49,193.55,810.73,169.06,789.82,163.46Z"/><path class="cls-5" d="M443.32,331.16S409,319.93,400,343.1c7.49-5.23,18.67-.74,18.67-.74s-16.43,5.22-16.43,23.17a19.37,19.37,0,0,1,12-7.48S379.8,393.18,456,460.44c68.75,44.84,112.1,59,112.1,59s37.37,24.67,78.48-1.49c55.3-1.5,118.82-27.65,161.41-69.5,36.62-39.62,34.37-67.26,20.92-74,7.49-1.48,14.21,3.74,14.21,3.74s5.21-15.08-20.89-18.67c14.82-3.58,17.39-1,17.39-1s-12.8-18.94-40.44-8.17c0,0-11.69-26.26-48.63-88.06-28.16-47.09-55.29-69.62-116.2-76.77S531.5,219.32,510,249,450.87,326.78,443.32,331.16Z"/><path class="cls-7" d="M655.27,501.9c51.81-28.26,58.41-53.69,45.17-95.86,0,0-22.45-69.3-79.59-77.73s-107.67,73-109.59,104.89c-1.07,17.82,17.79,51.73,47,64-2.45,4.49-1.35,12.21,4.3,20.25,3.67,1.4,5.59,2,5.59,2s37.37,24.67,78.48-1.49C646.61,518,660,511.32,655.27,501.9Z"/><path class="cls-2" d="M601.86,458.77s2.53,21.42-7.56,31.51-21,10.72-36.06,6.91c8.42,5.23,26.26,3.42,31.68,1.87s7.23,6.46,14.47,2.06,9.57-1.81,15.5,2.08,18.29,5.43,35.38-1.3c-15.48,3.37-39.25,1.83-47.79-10.85C602.33,481.49,604.25,461.61,601.86,458.77Z"/><path class="cls-2" d="M527.29,266c-22.45,14.95-46.33,44.56-48.14,72.32-1.21,18.6,13.85,35.08,31.33,37.53,20.69,2.89,35.59-9.77,48.84-24.08,24.65-26.61,30.56-79.87,6.9-93.17C555.38,252.67,537.63,259.08,527.29,266Z"/><path class="cls-2" d="M660.88,279.28s-10.36,43.88,28.59,83.8c36,30.07,100.19,10.83,64.09-56.18-33-49.31-61.13-58.68-74.45-54.23S661.36,271.4,660.88,279.28Z"/><path class="cls-3" d="M540.62,321.36c-4.07,9.67-10.56,16.07-14.53,14.28s-3.87-11.05.16-20.74,10.56-16.06,14.53-14.29S544.66,311.68,540.62,321.36Z"/><path d="M538.14,320.25c-2.66,6.35-6.93,10.54-9.52,9.38s-2.56-7.27.1-13.62,6.93-10.55,9.52-9.36S540.81,313.89,538.14,320.25Z"/><path class="cls-5" d="M538.34,316c-.88,2.57-2.54,4.28-3.74,3.85s-1.44-2.85-.57-5.39,2.55-4.27,3.73-3.83S539.21,313.41,538.34,316Z"/><path class="cls-3" d="M711.32,317.57c3.54,9.54,3.2,18.4-.79,19.79s-10.11-5.26-13.69-14.82-3.21-18.4.79-19.78S707.75,308,711.32,317.57Z"/><path d="M709,318.38c2.42,6.44,2.18,12.43-.52,13.36s-6.83-3.55-9.22-10-2.18-12.43.51-13.37S706.55,311.92,709,318.38Z"/><path class="cls-5" d="M706.17,315.12c1.09,2.46,1.06,4.85-.09,5.35s-3-1.08-4.13-3.53-1.05-4.85.1-5.36S705.06,312.66,706.17,315.12Z"/><path class="cls-7" d="M550.51,247.11a34.9,34.9,0,0,1,25.68,3.08c3.08,2.56-2.07-13.35-7.19-12.83S550.51,247.11,550.51,247.11Z"/><path class="cls-7" d="M659.36,248.13s10.78-16.94,32.86-10.25c3.6,1-9.25-14.39-16.44-11.82S660.91,240.43,659.36,248.13Z"/><path class="cls-2" d="M550.51,244.9A34.84,34.84,0,0,1,576.19,248c3.08,2.56-2.07-13.36-7.19-12.85S550.51,244.9,550.51,244.9Z"/><path class="cls-2" d="M659.36,245.93s10.78-17,32.86-10.28c3.6,1-9.25-14.37-16.44-11.81S660.91,238.22,659.36,245.93Z"/><g class="cls-4"><path class="cls-7" d="M843.15,378.23s5.21-15.08-20.89-18.67c14.82-3.58,17.39-1,17.39-1s-12.8-18.94-40.44-8.17c0,0-11.69-26.26-48.63-88.06-11.81-19.75-23.44-35.16-37.46-46.94,17,18.57,14.91,19.86,28.37,39,25.56,36.34,26.16,46.06,38.82,72.07s1.34,28.66-6,41.33C799,349.13,815,357.12,815,357.12s-12,4.67-13.35,12.67c13.35-7.32,22,2.67,22,2.67a31.78,31.78,0,0,0-17.33,4.66c9.33-2,22,16.68-2.67,44s-92,34.67-92,21.34-4.68-50-30-72c54.68,89.35-40.67,92-29.33,81.35,22-22-52.67-38.67-85.34-29.35s21.32,36.68-11.34,26c-38-12-35.35-39.35-18-72.68-34,38.68-25.31,75.34-79.33,45.34-60.68-36-7.34-59.35-7.34-59.35s-14-3.33-22,2c.67-12.66,23.34-18.67,23.34-18.67s-4-4-18.67-1.33c7.34-8,24-10.66,38.67-8.68-10.66-10.65-20-5.32,2.26-32.12,18.54-25.68,44.57-58.78,54.31-76.32A196,196,0,0,0,510,249c-21.51,29.69-59.14,77.78-66.69,82.16,0,0-34.37-11.23-43.34,11.94,7.49-5.23,18.67-.74,18.67-.74s-16.43,5.22-16.43,23.17a19.37,19.37,0,0,1,12-7.48S379.8,393.18,456,460.44c68.75,44.84,112.1,59,112.1,59s37.37,24.67,78.48-1.49c55.3-1.5,118.82-27.65,161.41-69.5,36.62-39.62,34.37-67.26,20.92-74C836.43,373,843.15,378.23,843.15,378.23Z"/></g><path class="cls-11" d="M602.41,482.64a29.49,29.49,0,0,1-7.85,11.57c-3.73,2.62,6,8.23,10.84,3S602.79,492.74,602.41,482.64Z"/><path class="cls-2" d="M574,416.36s41.1-1.53,66.44,7.11c35,10.22,7.72,40.36-35.59,35.6C562.61,454.45,539.54,418.72,574,416.36Z"/><g class="cls-4"><path class="cls-2" d="M593.42,444.53c-23.47-5.3-32.6-13-35.65-19.88-4,11.5,16.54,31.08,47.05,34.42,33.23,3.65,57-13.23,50.47-25.91C646.79,443.12,625.06,451.69,593.42,444.53Z"/></g><path class="cls-5" d="M564.13,424s32.54-5.78,66.12,2.32C644.53,429.46,611.13,409.8,564.13,424Z"/><path class="cls-5" d="M645.51,429.47c-.31.72-2.15.63-4.08-.21s-3.22-2.15-2.91-2.89,2.15-.62,4.07.24S645.84,428.74,645.51,429.47Z"/><path class="cls-3" d="M512.81,334s14.49-3.11,22.26,9.84C532.49,331.89,521.09,330.84,512.81,334Z"/><path class="cls-3" d="M723.2,335.37s-14.5-3.1-22.27,9.85C703.52,333.29,714.92,332.27,723.2,335.37Z"/><path class="cls-12" d="M605.9,336.26s-55.09,21.88-64,72.1C533.79,384.87,565.4,337.08,605.9,336.26Z"/><path class="cls-13" d="M800.91,446.93c-62.47,59.46-146,64.72-146,64.72s6.76-6.77.35-9.75c-6.42,15.08-36.49,22.55-53.79,21s-37.63-9-44.41-22.57c-2.26,9.79.76,14.3-45.91-12-94.84-49.68-106.88-104.62-97-130.28,0,0-34.39,35.13,41.84,102.39,68.75,44.84,112.1,59,112.1,59s37.37,24.67,78.48-1.49c55.3-1.5,118.82-27.65,161.41-69.5,36.62-39.62,34.37-67.26,20.92-74C842.69,393.12,831,419.84,800.91,446.93Z"/><g class="cls-4"><path d="M336,698.79a39.67,39.67,0,0,1,9.56-5.46,36.75,36.75,0,0,1,5.31-1.77,30.85,30.85,0,0,1,5.61-.93c1-.08,1.92-.08,2.89-.08a23.34,23.34,0,0,1,2.9.28,20.43,20.43,0,0,1,2.89.64,20.11,20.11,0,0,1,2.81,1,21,21,0,0,1,2.59,1.5,17.63,17.63,0,0,1,2.34,1.85l1.09,1c.32.35.61.74.93,1.12a25.43,25.43,0,0,1,1.7,2.39l.06.09,0,0,.56,1.39a6.59,6.59,0,0,1,.38,1.45,11.94,11.94,0,0,1,.25,2.91l-.13,1.42a12.64,12.64,0,0,1-.27,1.39,8.81,8.81,0,0,1-.39,1.33,12.55,12.55,0,0,1-.48,1.29,18.27,18.27,0,0,1-1.2,2.43,23.5,23.5,0,0,1-1.45,2.22,23.12,23.12,0,0,1-1.65,2,20.19,20.19,0,0,1-1.86,1.84,41,41,0,0,0,2.36-4.55c.35-.78.64-1.56.92-2.34a23.6,23.6,0,0,0,.7-2.37,9.87,9.87,0,0,0,.24-1.18,7,7,0,0,0,.17-1.19c0-.39.1-.78.09-1.15l0-1.15a10.18,10.18,0,0,0-.44-2.17,4.82,4.82,0,0,0-.35-1l-.47-1,.07.11a22.52,22.52,0,0,0-1.58-1.93,20.41,20.41,0,0,0-1.75-1.73,13.89,13.89,0,0,0-1.95-1.45,16.18,16.18,0,0,0-2.12-1.16,20.31,20.31,0,0,0-2.28-.89,18.93,18.93,0,0,0-2.39-.58c-.81-.15-1.65-.24-2.49-.32s-1.68-.11-2.53-.09-1.73.07-2.56.12-1.74.16-2.6.29c-1.75.24-3.45.61-5.19,1A89.14,89.14,0,0,0,336,698.79Z"/><path d="M377.08,689.8a27.58,27.58,0,0,1,7.57-.26,29.12,29.12,0,0,1,3.68.53,26.22,26.22,0,0,1,4.05,1.15,19.18,19.18,0,0,1,7.91,5.15,13.5,13.5,0,0,1,2.64,4.31,11.21,11.21,0,0,1,.65,2.38,12.87,12.87,0,0,1,.24,2.37,15.9,15.9,0,0,1-.45,4.34,19.61,19.61,0,0,1-1.21,3.59c-.24.52-.47,1-.67,1.51s-.51.88-.74,1.29a19.48,19.48,0,0,1-1.3,2c-.78,1.07-1.26,1.66-1.26,1.66s.18-.76.55-2c.22-.61.4-1.38.62-2.25s.45-1.84.66-2.89a8.64,8.64,0,0,0,.27-1.64,14,14,0,0,0,.2-1.74,19.3,19.3,0,0,0-.08-3.64,12.68,12.68,0,0,0-1-3.58,11.77,11.77,0,0,0-2-3.16,15.75,15.75,0,0,0-2.93-2.57,23,23,0,0,0-3.42-2,49.47,49.47,0,0,0-6.81-2.64c-2.08-.64-3.89-1.13-5.13-1.45Z"/></g><g class="cls-4"><path d="M704.61,690.44s.79-.55,2.27-1.37a43.46,43.46,0,0,1,6.34-2.92,40.19,40.19,0,0,1,4.49-1.45,35,35,0,0,1,5.22-1,27.75,27.75,0,0,1,5.79-.16,15.77,15.77,0,0,1,3,.46l1.54.35c.48.15,1,.37,1.48.55s1,.4,1.46.65l1.37.85.68.46.16.1.08.06.18.14.27.23,1,.94a7.54,7.54,0,0,1,1.07,1.15,12.28,12.28,0,0,1,1,1.33,12.08,12.08,0,0,1,1.33,2.9,9.82,9.82,0,0,1,0,5.93,14.16,14.16,0,0,1-2.31,4.45,20.13,20.13,0,0,1-2.74,3,22.79,22.79,0,0,1-2.44,1.89,15,15,0,0,1-1.69,1l-.59.33s.69-.68,1.76-1.92c.55-.64,1.16-1.42,1.85-2.31a25.23,25.23,0,0,0,1.95-3.18,13.69,13.69,0,0,0,1.38-3.93,7.61,7.61,0,0,0-.39-4.17,9.58,9.58,0,0,0-1-1.93c-.24-.3-.51-.54-.74-.83a4.81,4.81,0,0,0-.84-.87l-1.08-.92-.26-.23,0,0,0,0c.06,0-.1-.09.1.07l-.07,0-.13-.08-.53-.31-1-.64c-.37-.2-.78-.3-1.15-.47s-.75-.33-1.17-.46l-1.22-.31a12.59,12.59,0,0,0-2.55-.44,30.56,30.56,0,0,0-5.15-.17c-1.69.1-3.34.22-4.92.46s-3.06.46-4.44.73c-2.76.54-5.07,1.08-6.68,1.49S704.61,690.44,704.61,690.44Z"/><path d="M740.58,682.09a28.14,28.14,0,0,1,7.14-1.27,29.57,29.57,0,0,1,3.55,0,26.34,26.34,0,0,1,4,.45,20.78,20.78,0,0,1,2.12.5,12.84,12.84,0,0,1,2.13.74,14.3,14.3,0,0,1,4.1,2.5,7.5,7.5,0,0,1,.88.9l.41.49.23.23.1.11.17.28.54.91.26.46.26.66c.15.43.31.88.45,1.32a11.32,11.32,0,0,1,.17,1.23,10.22,10.22,0,0,1,0,2.41,13.17,13.17,0,0,1-1.19,4.1,15.28,15.28,0,0,1-1.84,3.15,17.29,17.29,0,0,1-1.91,2.34,15,15,0,0,1-1.68,1.6,14.58,14.58,0,0,1-1.58,1.23s.39-.64,1-1.7c.3-.56.67-1.23,1-2s.8-1.61,1.2-2.58a27.87,27.87,0,0,0,1-3,15.15,15.15,0,0,0,.5-3.34,7.93,7.93,0,0,0-.17-1.64c-.06-.27-.12-.56-.19-.79s-.18-.43-.26-.65l-.1-.32-.28-.46-.58-.88,0-.06,0,0v0l.1.14-.07-.07-.15-.15-.29-.32a5.9,5.9,0,0,0-.61-.62,13.55,13.55,0,0,0-3-1.94,21.82,21.82,0,0,0-3.53-1.36c-1.19-.36-2.39-.67-3.54-.91s-2.26-.43-3.3-.6c-2.07-.34-3.83-.57-5.05-.71Z"/></g><path class="cls-3" d="M430.52,116.48S299.43,194.35,238.44,337.13C222.85,373.47,247.52,209.93,430.52,116.48Z"/><path class="cls-3" d="M339.89,698.18s27.94-5,22.29,13c-4.32,9.31,10.29,9.64,12-2.33S363.83,688.2,339.89,698.18Z"/><path class="cls-3" d="M373.48,691.52s19.61,0,16.95,18c-1.65,12.63,11.3,8,11.3-2.67S396.42,690.18,373.48,691.52Z"/><path class="cls-3" d="M402.36,694.38s11,4.43,7.1,14.49,5.34,9.17,7.68,1.78S413.9,696.15,402.36,694.38Z"/><path class="cls-3" d="M515.53,95.07S563.39,80.74,616,102.14C590.65,73,529.16,83.38,515.53,95.07Z"/><path class="cls-3" d="M704.27,692.39s27.39-7,22.39,9.46c-2.48,8.46,14,6,14.94-4S722.69,680.43,704.27,692.39Z"/><path class="cls-3" d="M743.1,684.42s16.42,2,12.45,13,7,7,9-3S751.57,680.43,743.1,684.42Z"/><path class="cls-3" d="M764.91,683.73s9.73,4,6.39,12.15,4.56,8.49,6.37,1.52S773.41,685.25,764.91,683.73Z"/><path class="cls-3" d="M291.65,505.86S330,568.7,359.49,655.07,344.21,535.06,291.65,505.86Z"/><path class="cls-3" d="M838.74,521.56S804.51,577.5,760,627.73C741.73,655.12,836.47,567.23,838.74,521.56Z"/></g></g></svg>