<svg xmlns="http://www.w3.org/2000/svg" viewBox="0 0 835.46 722.92"><defs><style>.cls-1{isolation:isolate;}.cls-11,.cls-19,.cls-2{fill:#f9c2a5;}.cls-11,.cls-13,.cls-28,.cls-3{opacity:0.5;}.cls-11,.cls-13,.cls-15,.cls-27,.cls-28,.cls-3,.cls-5,.cls-6{mix-blend-mode:multiply;}.cls-4,.cls-7{fill:#da9474;}.cls-18,.cls-5{fill:#e29572;}.cls-16,.cls-7{opacity:0.8;}.cls-8{fill:#9e6f2b;}.cls-9{fill:#75470d;}.cls-10,.cls-17,.cls-19{mix-blend-mode:screen;}.cls-12,.cls-13{fill:#821001;}.cls-14{fill:#fff;}.cls-15,.cls-20{fill:#dedede;}.cls-16,.cls-17{fill:#f78982;}.cls-21{fill:#b79a7a;}.cls-22{fill:#00bfd1;}.cls-23{fill:#68d3d8;}.cls-24{fill:#00798e;}.cls-25{fill:#353434;}.cls-26{fill:none;}.cls-27,.cls-28{fill:#81531a;}.cls-27{opacity:0.7;}</style></defs><g class="cls-1"><g id="Layer_1" data-name="Layer 1"><path class="cls-2" d="M748.81,368.7s-5.93,17.58-17.79,57.71S694.57,593.5,586.45,671.88c31.26,3.81,48.48,21.36,49.94,25.85-33.52,22-34.66,32.94-97.06,14.42-44.57-15.85-58.71,14.2-98,10.44-34.74-3.32-64.43-17.05-83.74-24.21s-20.82-5.19-47.78,7.46-60.31,17.77-116.13-15.57c-26.15-15.67-49.11-6-87.44,1.08-43.82,7-74-5.21-91.26-18.79S-4.16,653,6.86,644.14c19-15.21,22.88-2.74,37.92-17.5s43.53-28.86,66.91-31.11,194.48,82,325.8-31c102.26-90.39,105.82-149,146.66-157.54s54.09-36.05,65.26-55C670.37,362.25,711.31,378,748.81,368.7Z"/><g class="cls-3"><path class="cls-2" d="M649.41,352C638.24,371,625,398.49,584.15,407s-44.4,67.15-146.66,157.54c-131.32,112.94-302.42,28.75-325.8,31s-51.84,16.36-66.91,31.11-18.88,2.29-37.92,17.5C-4.16,653-2.22,659,15,672.56s47.44,25.8,91.26,18.79c38.33-7,61.29-16.75,87.44-1.08,55.82,33.34,89.17,28.21,116.13,15.57s28.46-14.61,47.78-7.46,49,20.89,83.74,24.21c39.27,3.76,53.41-26.29,98-10.44,34.14,10.14,50,11.45,62.75,7-40.93-10.51-36.66-34.32-14.28-40.06,17.41-4.45,37.24,9.37,48.32,18.84a2.71,2.71,0,0,0,.27-.16c-1.46-4.49-18.68-22-49.94-25.85.66-.49,1.34-1,2-1.5-85.18,34.16-108-18.15-58.63-34.68,47.29-15.86,56.3-27.65,85-86C650.06,477.89,652.68,407.34,708,392c16.93-4.7,24.16,6.53,26,24.39,9.86-33,14.8-47.67,14.8-47.67C711.31,378,670.37,362.25,649.41,352Z"/></g><path class="cls-4" d="M391.37,695.61c51.72,5.77,65.24-24.87,76.73-46s12.85-28.35,44-36S570.61,597,589,552.84,604.79,496,639.21,435.39c20.39-35.9,47.11-55.45,65.52-65.44-22.34-3.41-42.56-11.7-55.32-17.94C638.24,371,625,398.49,584.15,407s-44.4,67.15-146.66,157.54c-131.32,112.94-302.42,28.75-325.8,31s-51.84,16.36-66.91,31.11-18.88,2.29-37.92,17.5C-4.16,653-2.22,659,15,672.56s47.44,25.8,91.26,18.79c38.33-7,61.29-16.75,87.44-1.08,55.82,33.34,89.17,28.21,116.13,15.57,9.65-4.53,16-7.68,21.17-9.54C343.33,689.25,361.32,692.38,391.37,695.61Z"/><path class="cls-5" d="M493.08,691.76l4.24-.16c2.69-.08,6.52-.39,11.13-.74,2.28-.2,4.76-.39,7.37-.71s5.4-.63,8.25-1,5.77-.86,8.75-1.29,6-1.13,9-1.74,6-1.22,8.91-2,5.8-1.45,8.52-2.4,5.4-1.61,7.85-2.57,4.82-1.73,6.91-2.69,4-1.8,5.73-2.53,3.09-1.63,4.31-2.25c2.4-1.23,3.75-1.94,3.75-1.94s-1.31.81-3.53,2.29c-1.18.7-2.52,1.63-4.18,2.55s-3.54,1.85-5.63,2.9-4.42,1.95-6.83,3-5.11,1.95-7.84,2.89-5.66,1.68-8.61,2.55-5.93,1.43-8.95,2.16-6.13,1.12-9.11,1.59-6,.93-8.83,1.19-5.69.58-8.33.74-5.16.26-7.45.37A148.5,148.5,0,0,1,493.08,691.76Z"/><g class="cls-6"><path class="cls-7" d="M598.07,467c-1.94,3.16-5.48,4.51-7.89,3s-2.8-5.25-.8-8.42,5.46-4.52,7.87-3S600,463.81,598.07,467Z"/><path class="cls-7" d="M580.93,513.12c-1.25,2-3.52,2.87-5,1.94s-1.82-3.39-.55-5.42,3.5-2.86,5-1.92S582.16,511.07,580.93,513.12Z"/><path class="cls-7" d="M576.08,546.21c-1.34,2.21-3.86,3.17-5.5,2.13s-2-3.68-.61-5.89,3.84-3.16,5.53-2.12S577.47,544,576.08,546.21Z"/><path class="cls-7" d="M541.12,574.39c-1.93,3.09-5.36,4.43-7.73,3s-2.74-5.15-.84-8.26,5.42-4.42,7.74-3S543,571.3,541.12,574.39Z"/><path class="cls-7" d="M515,594.72c-1.25,2-3.54,2.89-5.1,2s-1.77-3.39-.52-5.44,3.56-2.9,5.07-1.94S516.23,592.69,515,594.72Z"/><path class="cls-7" d="M549.06,537.2c-1.24,2-3.52,2.92-5.06,1.94s-1.82-3.39-.55-5.41,3.53-2.92,5.09-2S550.33,535.16,549.06,537.2Z"/><path class="cls-7" d="M548,590c-1.27,2-3.51,2.91-5.09,1.94s-1.8-3.39-.52-5.43,3.54-2.91,5.09-1.94S549.29,587.93,548,590Z"/><path class="cls-7" d="M612.1,451.86c-1.24,2-3.54,2.89-5.08,1.94s-1.81-3.38-.54-5.42,3.53-2.9,5.09-1.94S613.37,449.82,612.1,451.86Z"/><path class="cls-7" d="M481.83,608.28c-1.1,1.75-3.08,2.51-4.44,1.68s-1.52-2.91-.45-4.68,3.07-2.51,4.41-1.69S482.89,606.52,481.83,608.28Z"/><path class="cls-7" d="M468.36,630.93c-1.09,1.8-3.05,2.55-4.4,1.7s-1.55-2.91-.46-4.7,3-2.49,4.39-1.68S469.42,629.18,468.36,630.93Z"/><path class="cls-7" d="M449.19,653.1c-1.1,1.79-3.06,2.52-4.4,1.68s-1.54-2.92-.44-4.68,3-2.52,4.38-1.66S450.26,651.36,449.19,653.1Z"/><path class="cls-7" d="M442.65,638.76c-1.65,2.7-4.66,3.85-6.71,2.57s-2.37-4.47-.69-7.14,4.64-3.83,6.69-2.58S444.33,636.08,442.65,638.76Z"/><path class="cls-7" d="M405.05,682.82c-2.05,1.32-4.51,1.13-5.52-.45s-.17-3.91,1.88-5.22,4.52-1.12,5.55.45S407.1,681.51,405.05,682.82Z"/><path class="cls-7" d="M352,679c-2.86,1.14-5.84.32-6.75-1.84s.71-4.87,3.56-6,5.87-.35,6.75,1.8S354.8,677.83,352,679Z"/><path class="cls-7" d="M334,682.51c-1.65.65-3.36.2-3.84-1s.4-2.75,2-3.41,3.3-.2,3.84,1S335.61,681.84,334,682.51Z"/><path class="cls-7" d="M291.51,694.57c-1.61.65-3.3.17-3.8-1s.39-2.77,2-3.4,3.32-.2,3.81,1S293.12,693.89,291.51,694.57Z"/><path class="cls-7" d="M272.07,701c-2.94,1.2-6,.33-6.95-1.88s.71-5,3.66-6.19,6-.36,6.89,1.85S275,699.78,272.07,701Z"/><path class="cls-7" d="M232.8,695.88c-1.61.65-3.3.17-3.78-1s.38-2.72,2-3.39,3.29-.18,3.79,1S234.4,695.22,232.8,695.88Z"/><path class="cls-7" d="M222.1,684.28c-1.6.63-3.3.17-3.78-1s.39-2.74,2-3.36,3.31-.22,3.79,1S223.71,683.61,222.1,684.28Z"/><path class="cls-7" d="M92.15,674c-2.43,1.41-5.21,1.08-6.32-.75s0-4.44,2.38-5.85,5.2-1.08,6.27.74S94.52,672.62,92.15,674Z"/><path class="cls-7" d="M66.28,681.09c-2.38,1.43-5.19,1.09-6.26-.73s0-4.43,2.34-5.84,5.2-1.09,6.27.74S68.66,679.69,66.28,681.09Z"/><path class="cls-7" d="M64.75,659.07c-1.83,1.1-4,.82-4.78-.55s0-3.37,1.78-4.45,4-.83,4.79.54S66.58,658,64.75,659.07Z"/><path class="cls-7" d="M39.6,670.41c-1.82,1.06-4,.81-4.77-.57s0-3.37,1.8-4.45,4-.82,4.75.55S41.43,669.33,39.6,670.41Z"/><path class="cls-7" d="M114,677.2a1.69,1.69,0,0,1-2.3-.26,1.67,1.67,0,0,1,.89-2.13,1.69,1.69,0,0,1,2.29.26A1.66,1.66,0,0,1,114,677.2Z"/><path class="cls-7" d="M104,681.84a1.43,1.43,0,1,1-1.41-2.38,1.44,1.44,0,1,1,1.41,2.38Z"/><path class="cls-7" d="M35.5,656.56a1.67,1.67,0,0,1-2.3-.27,1.63,1.63,0,0,1,.89-2.11,1.43,1.43,0,1,1,1.41,2.38Z"/><path class="cls-7" d="M142.4,670.64c-3.51,1.43-7.28.43-8.36-2.27s.85-6,4.41-7.5,7.24-.4,8.33,2.27S145.93,669.18,142.4,670.64Z"/><path class="cls-7" d="M371.2,679.59c-.78,1.18-2.14,1.65-3,1s-1-2-.23-3.19a2,2,0,1,1,3.26,2.14Z"/><path class="cls-7" d="M427.1,675.87c-1.33.83-2.89.73-3.53-.28s-.11-2.47,1.2-3.29,2.9-.72,3.5.26A2.48,2.48,0,0,1,427.1,675.87Z"/></g><g class="cls-3"><path class="cls-4" d="M649.41,352c-9.89,16.65-21.28,40-51.65,51.14,2.92,1.23,4.4,3.47,2.36,7.38-6.43,12.33,2.16,24.11,21.44,4.82s28.93-19.83,32.7-19.83-40.72,42.21-57.86,84.11c-32.47,79.29-54.29,113.08-110,114.09s-18.87,89.41-105.31,76.5-92.43,52.68-157,7S90,694.07,52.21,665.26s53.64-62.62,83.46-34.79,91.41,6,107.31,15.91,111.31,22.85,202.73-53.67C525.08,526.26,555,485.28,575.19,409.93c-33,15-43.43,71.29-137.7,154.61-131.32,112.94-302.42,28.75-325.8,31s-51.84,16.36-66.91,31.11-18.88,2.29-37.92,17.5C-4.16,653-2.22,659,15,672.56s47.44,25.8,91.26,18.79c38.33-7,61.29-16.75,87.44-1.08,55.82,33.34,89.17,28.21,116.13,15.57,9.65-4.53,16-7.68,21.17-9.54,12.33-7,30.32-3.92,60.37-.69,51.72,5.77,65.24-24.87,76.73-46s12.85-28.35,44-36S570.61,597,589,552.84,604.79,496,639.21,435.39c20.39-35.9,47.11-55.45,65.52-65.44C682.39,366.54,662.17,358.25,649.41,352Z"/></g><path class="cls-8" d="M66.24,422.24S26,471.07,68,533.73c-6.5,33.69,20.32,76,67.4,75.19,14.29,25.5,75.64,29.37,100.25,22.9,0,0,91.19,42.71,225-70.57,103.32-90.1,172.91-213.32,26.52-308.74-61.62-32.44-198.77-66.24-277.6,3.33-25.83.66-69.58,27.81-82.15,74.2C97.57,342,70,385.25,66.24,422.24Z"/><g class="cls-6"><path class="cls-9" d="M68,533.73a21.61,21.61,0,0,0,1.91,1.56,37.12,37.12,0,0,0,6,3.46A24,24,0,0,0,86.12,541a23.37,23.37,0,0,0,12.72-4.14,45.14,45.14,0,0,0,11.24-11.46A94.44,94.44,0,0,0,119,509.47,97.78,97.78,0,0,0,125.26,491a104.93,104.93,0,0,0,2.66-19.92,100.2,100.2,0,0,0-1.25-20.07,75.81,75.81,0,0,0-5.43-18.55,46.05,46.05,0,0,0-10.06-14.68,26.77,26.77,0,0,0-14-6.83,31.15,31.15,0,0,0-13.46,1.38,41,41,0,0,0-5.34,2.2,37.77,37.77,0,0,0-4.3,2.35c-1.29.79-2.45,1.46-3.39,2.12s-1.75,1.27-2.43,1.74l-2,1.46s.65-.59,1.87-1.63c.63-.53,1.34-1.17,2.24-1.95s2-1.5,3.25-2.39a34,34,0,0,1,4.23-2.67A39.66,39.66,0,0,1,83.21,411a30.77,30.77,0,0,1,14.18-2.25,28.47,28.47,0,0,1,15.74,6.88A47,47,0,0,1,124.4,431a77,77,0,0,1,6.06,19.39,101.34,101.34,0,0,1,1.41,20.85A106.27,106.27,0,0,1,129,491.92a96.27,96.27,0,0,1-6.79,19,92.77,92.77,0,0,1-9.71,16.21A45.31,45.31,0,0,1,100,538.79a24.39,24.39,0,0,1-13.92,3.69,25,25,0,0,1-10.59-3,29.19,29.19,0,0,1-5.73-4A20.91,20.91,0,0,1,68,533.73Z"/><path class="cls-9" d="M127.38,330a32.72,32.72,0,0,1,3.92-1.1,52.07,52.07,0,0,1,11.47-1.25,53.42,53.42,0,0,1,17.76,3,55.14,55.14,0,0,1,19.91,12.27c1.54,1.57,3.11,3,4.65,4.77,1.38,1.75,2.79,3.51,4.25,5.28,1.28,1.95,2.62,3.92,4,5.92s2.43,4.19,3.68,6.33A147.88,147.88,0,0,1,208.35,394a228.71,228.71,0,0,1,6.3,32.4,288.78,288.78,0,0,1,1.76,34,321.85,321.85,0,0,1-2.51,33.93c-.33,2.77-.71,5.56-1.06,8.31-.5,2.74-1,5.46-1.41,8.17-.23,1.35-.47,2.71-.71,4.06-.13.69-.2,1.26-.37,2.08l-.46,2c-.67,2.62-1.29,5.23-1.92,7.81-.34,1.27-.61,2.57-1,3.83s-.85,2.57-1.23,3.81c-.83,2.52-1.67,5-2.46,7.47s-2,4.77-3,7.1-1.87,4.65-3.07,6.8S195,560,193.9,562.16s-2.45,4.06-3.66,6a117.18,117.18,0,0,1-7.74,10.91,99.74,99.74,0,0,1-16.76,16.29,82,82,0,0,1-15.4,9.28c-1.1.55-2.23,1-3.28,1.39s-2,.78-2.91,1.06a45.76,45.76,0,0,1-4.75,1.27l-1.71.34c-.5,0-.95.06-1.25.1l-1.08.09,1-.15c.34,0,.76-.1,1.29-.19s1-.26,1.68-.4c1.28-.27,2.81-.9,4.64-1.51.88-.33,1.82-.78,2.83-1.21A33.87,33.87,0,0,0,150,604a78.68,78.68,0,0,0,14.82-9.75c1.3-1.11,2.64-2.26,4-3.46s2.64-2.6,4-4c.65-.69,1.32-1.37,2-2.06s1.27-1.5,1.93-2.28c1.27-1.54,2.67-3.06,4-4.74a114.46,114.46,0,0,0,7.3-10.88c1.14-2,2.44-3.85,3.49-6s2-4.25,3.11-6.4a69.21,69.21,0,0,0,2.86-6.74c.88-2.31,1.91-4.62,2.71-7s1.5-4.86,2.23-7.32c.45-1.2.83-2.44,1.22-3.67s.63-2.57,1-3.86c.61-2.58,1.2-5.2,1.82-7.82l.47-2c.1-.49.21-1.26.31-1.9.25-1.33.45-2.68.69-4,.41-2.66.86-5.39,1.31-8.1s.67-5.47,1-8.22a323,323,0,0,0,2.23-33.52A293.34,293.34,0,0,0,211,426.8a221.25,221.25,0,0,0-5.89-31.91,161.39,161.39,0,0,0-10.68-28.33c-1.16-2.1-2.16-4.27-3.37-6.24s-2.47-3.89-3.7-5.76l-4.08-5.37c-1.36-1.57-2.94-3.15-4.31-4.68A57,57,0,0,0,160,332a52.28,52.28,0,0,0-17.25-3.57,57.09,57.09,0,0,0-11.41.68A31,31,0,0,0,127.38,330Z"/><path class="cls-9" d="M73.05,481.16s-.45-.33-1.27-1.08a18.49,18.49,0,0,1-3-3.69,18,18,0,0,1-2.65-7.05,19.86,19.86,0,0,1,.91-9.83c.17-.45.36-.87.51-1.32.09-.24.12-.36.27-.74l.33-.59a18,18,0,0,1,1.34-2.49,16.73,16.73,0,0,1,4.28-4.71A14.05,14.05,0,0,1,80,446.88a12.47,12.47,0,0,1,7.26,1.19A17.22,17.22,0,0,1,92.77,453a28,28,0,0,1,3.35,6.49c1.76,4.56,2.36,9.32,2.84,14.13a59.92,59.92,0,0,1-.85,14.3A52.18,52.18,0,0,1,94,501.22a39.76,39.76,0,0,1-7.15,10.93,22.68,22.68,0,0,1-10,6.33,16.42,16.42,0,0,1-10-.22,22.32,22.32,0,0,1-6.62-3.6,28,28,0,0,1-3.5-3.2c-.73-.81-1.14-1.23-1.14-1.23s.45.36,1.28,1.06A41.24,41.24,0,0,0,60.76,514a21.15,21.15,0,0,0,6.6,2.8,15.32,15.32,0,0,0,8.84-.52,21.28,21.28,0,0,0,8.48-6.16,39.74,39.74,0,0,0,6.16-10.35,56.73,56.73,0,0,0,3.51-12.49A56.21,56.21,0,0,0,95,473.88a48.78,48.78,0,0,0-2.45-13.07c-1.45-4-3.65-7.81-6.92-9.64a9.53,9.53,0,0,0-5.18-1.05,10.63,10.63,0,0,0-5,1.94,15.52,15.52,0,0,0-3.79,3.7A16.33,16.33,0,0,0,70.25,458l-.35.6-.23.49c-.17.4-.34.78-.53,1.17a20.88,20.88,0,0,0-1.63,8.88A17.88,17.88,0,0,0,69.39,476a22,22,0,0,0,2.51,3.93A15,15,0,0,0,73.05,481.16Z"/><path class="cls-9" d="M208.72,255.84s1.87-.34,5.52-.62a96.62,96.62,0,0,1,15.71.28,110.5,110.5,0,0,1,23.93,5,106.12,106.12,0,0,1,28.34,14.4l3.55,2.63c1.2.91,2.35,1.89,3.51,2.85,2.4,1.9,4.58,4.11,6.89,6.25A125.44,125.44,0,0,1,309,301.4a161.75,161.75,0,0,1,20.34,36.8c1.3,3.42,2.53,6.87,3.82,10.35,1.1,3.54,2.24,7.09,3.34,10.69s1.92,7.27,2.9,10.92,1.64,7.43,2.47,11.17A270,270,0,0,1,347,427.45a269.08,269.08,0,0,1-13.46,89.93c-9.16,27.71-22.76,51.75-37.3,69.93a162.49,162.49,0,0,1-22.06,22.85,136.28,136.28,0,0,1-20.09,14,106.94,106.94,0,0,1-14.27,6.54l-5.27,1.77s1.81-.67,5.2-2a111.74,111.74,0,0,0,14-7,135.58,135.58,0,0,0,19.5-14.41,179.16,179.16,0,0,0,21.23-23.13,211.84,211.84,0,0,0,19.93-31.36,258,258,0,0,0,15.9-38.28A264.5,264.5,0,0,0,343,427.53a270.63,270.63,0,0,0-4.8-45.47c-.8-3.67-1.48-7.35-2.35-11s-1.87-7.25-2.83-10.83-2.16-7-3.25-10.54c-1.24-3.42-2.42-6.83-3.68-10.22a169.23,169.23,0,0,0-19.49-36.36,127.9,127.9,0,0,0-12.24-14.66c-2.24-2.12-4.33-4.35-6.66-6.23-1.13-.95-2.23-2-3.38-2.86s-2.3-1.77-3.44-2.62-2.3-1.68-3.49-2.47-2.31-1.57-3.46-2.3c-2.37-1.35-4.64-2.81-7-4a106.52,106.52,0,0,0-13.57-6.06,110.32,110.32,0,0,0-23.51-5.65,103.91,103.91,0,0,0-15.64-.8A52.11,52.11,0,0,0,208.72,255.84Z"/></g><g class="cls-3"><path class="cls-8" d="M129,448.44c-1.68-8-6.38-14.73-10.53-21.63-.41-.66-1.4.46-1.5.9-1.45,6.44-9.67,2.51-14,2.16a10.37,10.37,0,0,0-9.23,3.89c-3.86,5.15-4.64,11.39-3.15,17.54.91,3.85,2.81,7.51,4.29,11.14A34.1,34.1,0,0,1,97.43,473a.65.65,0,0,0-.21-.06c-.27-.11-.79.51-.48.68l.73.3c0,.81.08,1.6,0,2.45s1.5-.35,1.56-.92c0-.34,0-.67,0-1,5.58.94,5-8,4.46-12.47-.75-6.36-2-15.91,6.52-17.83,5.83-1.33,12.74,2.77,17.54,5.59C128.2,450,129.06,449,129,448.44Z"/><path class="cls-8" d="M78,447.38c.54-.39,1.1-1.72,0-1.15a3.67,3.67,0,0,0-.6.36c-4.11-5.75-2.65-12.27-1.37-19,.81-4.16,1.51-8.91-2.24-11.88-.45-.36-1,.61-1.34.82C66.1,420.56,55.86,437,53.66,448c-.65,3.22-1.31,4.22,1.74,5.8,4.3,2.24,8.4,3.69,11.34,7.86.38.56,1.39-.78,1.46-1,1.77-5,4.3-9.29,8.5-12.35.27.28.5.58.78.83s1.46-.71,1.09-1.11A3.91,3.91,0,0,1,78,447.38Z"/><path class="cls-8" d="M97.59,485.8a3.4,3.4,0,0,1-.5.26c.22-2.47.27-4.94.3-7.44a.31.31,0,0,0-.23-.32c-6-2.93-12.55-15.55-20.44-12.67a10,10,0,0,0-5.28,4.54c-1.26,2-2.25,4.22-3.52,6.24-2,3-5.41,4-8.51,5.09-15.41,5.62-6.1,29.73,6.28,36.8.59.32,1.91-.81,1.57-1.43-3.63-6.51-6.14-13.22-2.37-20.15a63.85,63.85,0,0,1,10.32-14.39c6.61-6.77,13.41,8.34,20.29,5.44a1.36,1.36,0,0,0,0,.39c-.12.88,1.49-.29,1.55-.92,0-.14,0-.28.06-.45.19-.17.43-.39.63-.61S97.91,485.56,97.59,485.8Z"/><path class="cls-8" d="M125.46,495.52c-6.47,1.36-9.88-.88-13.57-5.89-2.29-3.09-5.58-6.78-9.8-6.36-2.82.25-4.09,3.87-4.73,6.1s-1,4.86-1.45,7.26a23.44,23.44,0,0,1-6.23,11.16c-.46.23-.92.46-1.37.71-.24.13-.72,1-.24.88-.69.68-.65,2,.41,1.08.68-.62,1.34-1.23,1.94-1.89,4.92-1.49,10.67-1.5,14.76,1.62,4.8,3.65,3.65,11.81,4.21,17.05.06.7.85.17,1.1-.12,8-8.33,12.47-20.1,15.32-31.09C125.87,495.8,125.81,495.43,125.46,495.52Z"/><path class="cls-8" d="M101,572.91c-1.89-6.46-12.65-9.31-17.48-13-9.51-7.14,5.11-14.4,4.83-22.19-.14-2.78-3.83-5.46-5.35-7.48-2.17-2.84-3.23-5.95-2.39-9.49a33.88,33.88,0,0,0,1.12-5,2.69,2.69,0,0,0,.27-.2c.58-.39,1.16-2.1.08-1.34-5.21,3.59-8.61,5.32-11.6,11.32-3.65,7.23-3.92,18-2.79,25.77a69.74,69.74,0,0,0,28.47,47.21c.68.47,2-1,1.54-1.64a15.46,15.46,0,0,1-3.14-9.54c0-3.12,3.18-4.85,4.89-6.93A7.5,7.5,0,0,0,101,572.91Z"/><path class="cls-8" d="M205.61,255.06c-9.26,3.13-18.69,5.91-27.51,10.15-8.33,4-15.38,9.91-22,16.22a119.28,119.28,0,0,0-19,23.18c-5.38,8.48-8.7,17.79-11.75,27.3a1.13,1.13,0,0,0,0,.32c-6.68,3.92-14.22,7.68-16,15.83-1,4.48-5,4.05-8.32,5.07A13.6,13.6,0,0,0,96.12,356a13.41,13.41,0,0,0-5,9.48c-.24,4.52,2.06,8.95,2,13.57-.13,6.36-7.24,7.48-11.54,10.23-8.3,5.38-6.32,16.81-3.15,24.51.2.48.89-.09,1.12-.29,5-5,14-3.55,20.23-2.56.64.1,1.73-1.41,1.06-1.51l-.67-.12c-1.68-6-3.32-12.08-3.46-18.37-.13-4.51,1-9.3,6.11-10.34,4-.81,8,1.12,11.94.44,4.47-.77,5.5-5.26,5.57-9.1,0-3.49-.31-6.92,0-10.42.56-7.06,6.36-13.87,12.8-16.4,8.56-3.4,16.89,8.41,25.69,3.28,7.06-4.08,4.88-11.25,1.41-17.18-2.56-4.37-5.18-8.21-6.1-13.26s2.15-8.3,6.18-10.81c5.28-3.27,10.61-6.2,13.29-12.09.25-.51,0-.51-.35-.37A92.48,92.48,0,0,0,178,283.9c2.85-6.89,8-9.54,14.43-12.11,7.94-3.19,10-8.84,13.58-16.07C206.23,255.33,206.15,254.9,205.61,255.06Z"/><path class="cls-8" d="M200.39,379.25c-.22-.54-1,.06-1.16.26-6.89,6.7-10.22.19-13.83-5.48-3.15-4.88-7.6-8.6-13.69-8.88-11.83-.53-25,9.38-24.27,21.94.19,3.38,1.47,6.58,2.39,9.78,1.27,4.58-3.56,8.05-7.64,6.41a47.25,47.25,0,0,1-4.64-2.49,10.72,10.72,0,0,0-13.15,2c-3.83,3.69-8.82,8.17-9.8,13.67-1.21,6.92,8,9.51,9.53,15.15-.51.11-1.14,1-.82,1.24l1,.51c0,.1,0,.21,0,.33,0,.49.43.36.84,0,4.68,1.7,8.28-.73,11.39-4.86,2.23-3,4-6.49,7.29-8.45,4.88-2.95,11,1.85,15,4,9.46,5,21.43,5.46,27.75-4.48,3.31-5.19,5.09-15.12,12.26-16.34,4.67-.77,8.82,7.91,11.08,10.8.41.51,1.37-.67,1.44-1C213.87,400.64,204.82,390.38,200.39,379.25Z"/><path class="cls-8" d="M333.4,514.15c-.11-.15-.25-.31-.35-.45.09-.57.17-1.15.26-1.72s-.7.14-.75.37a4.58,4.58,0,0,0-.17.56c-3.69-5.12-3.32-12-10.08-14.89-2-.81-4.63.07-6.38,1-3.8,2.1-7.25,4.68-11.36,6.29-5,2-9.66.88-12.21-4-2.47-4.76,1.93-10.28,3.81-14.52,2-4.52,2.67-10.48-1.9-13.57-4.9-3.26-11-.8-15.25,2.18s-7.9,5.45-13,6.29c-4.63.75-9.14-1.23-13.05-3.5-6.71-3.89-12.38-10.62-20.46-11.34-6.24-.55-12.23,3.87-17.15,7.53a86.63,86.63,0,0,0-1.73-19.13c-.09-.42-.87.29-.87.58v.11c-2.66-.66-5,.31-7,2.34-1.16,1.13-2,2.57-3.06,3.81-2.75,3.37-6.62.8-9.39-1.06-4.74-3.2-9.54-6.9-15.5-5-3.83,1.26-5.79,5.23-7.1,8.68-.88,2.37-1.53,4.78-2.62,7.07-2,4.33-7,5.29-10.77,2.66-4.19-3-5.65-9.59-8.24-13.82-2.12-3.47-6.56-6.6-10.85-5.34-3.64,1.09-6,3.85-7.54,7.09-.2,0-.65.41-.65.58s0,.52.06.77a3.53,3.53,0,0,0-.31.81c-.19.34.05.32.31.18.11,6.64-1.2,13.29,0,19.9.12.51.91-.1,1-.25,8.35-9.91,14.94,9.36,17.91,13.88s8.69,5.84,12.9,2.74c3.63-2.71,5.15-7.38,10.73-4.36,3.46,1.89,4.73.35,8.26-.42,8-1.8,7.67,9.85,8.91,14.65-1.68,8.12,6.13,7.32,11.59,4.7a61.62,61.62,0,0,0,13.58-9.2c4.53-4,8.15-8.86,13.2-12.22,5.92-3.94,13.44-1.41,12.81,6.35-.44,4.89-3.79,9.07-4.35,13.93-1,8.71,7.44,13.13,14.75,9.67,10.52-5,7.08-21.47,20-23.62,5.31-.87,7,6.17,7.75,10,.92,4.77,1.2,9.35,4.18,13.44,2.81,3.85,7.71,5.31,11.61,7.63,5,3,.06,10.34,1,14.77,1.94,9.4,11.81,8.61,18.66,5.11-.15.17-.26.34-.41.5-.47.6-.31,1.48.45.75,9.88-8.91,15.57-23.93,18.06-37.13C333.22,515.23,333.74,514.49,333.4,514.15Z"/><path class="cls-8" d="M343.86,416.27c0-.36-.28-.27-.53-.06-1.67-4.54-4.59-7.42-10.11-7.2-7.06.29-13.26,4.31-20.44,2.21-7.78-2.29-11.43-10.2-20.53-8.81-2.87.43-5.44,2.32-7.63,4-5.25,4.1-8.95,8.69-15.91,9.85-9.66,1.6-18-4.92-26.18-8.67a25.39,25.39,0,0,0-19.86-.86c-5.3,2.15-9,7-11,12.2-3.3,8.47,1.83,19,1.84,27.66,0,.61.92-.2.93-.54v-.28c.06,0,.1-.07.11-.1,5.51-8.15,11.68-17.39,22.88-15.6,8.38,1.35,14.29,8.73,21.29,12.83,12.89,7.58,20.29-6.86,27.74-14.7,6.47-6.79,15.93-5.16,20.17,3.41,3.05,6.24.48,13.94,2.72,20.48a9.33,9.33,0,0,0,12.85,5.66c2.88-1.39,5.06-4.08,7.78-5.74,6.45-3.94,10.24,3.26,12.14,8.11a.3.3,0,0,0,.36.2.26.26,0,0,1-.05.19c-.2,1,1.29.05,1.42-.53C347,445.93,344.91,430.54,343.86,416.27Z"/><path class="cls-8" d="M334.63,355.44c-.53-.84-1-1.69-1.48-2.54,0,0,0,0,0,0,.51-.82.06-.92-.45-.69a104.31,104.31,0,0,1-6.24-13.68c-2.13-5.45-3.29-11.29-5.59-16.65-.09-.24-.38-.08-.58.14-5.8-2.27-14.59-5.27-20.29-1.27-6.73,4.73-5.65,15.56-14.73,17.72-4.61,1.09-8.64-1.92-12.77-3.35-2.88-1-6.15-.49-9,.35-4.78,1.41-9.09,5.62-9.4,10.71-.3,4.43,5,12.29-1.37,15.1-3,1.32-7.05-.05-10.06-1-6.41-2.12-12.27-5.79-18.84-7.53-13.45-3.64-19.76,12-25.85,20.55-.11.2-.31.53-.11.78,2.85,3.61,6.8,7.61,6.85,12.53,0,.56.88-.23.91-.53a7.54,7.54,0,0,0,.05-1.57c4.17-6.86,7.23-14.27,16.68-13.76,9.94.53,19.45,6.26,28.46,10,4.53,1.87,12.22,5.55,17.12,2.53,3.36-2.09,4.51-5.66,5.45-9.32,2.14-8.36,4.1-15.44,13.86-17.57a12.11,12.11,0,0,1,12.45,4.29c2.11,2.78,2.9,6.05,5.5,8.5,4,3.82,11.49,4.52,16,1.23a16.28,16.28,0,0,0,5.34-6.9c1.11-2.39,1.14-4.44,3-6.67.73-.82,1.47-1.49,2.15-2.18.48.79.92,1.6,1.41,2.36C333.56,357.49,335,356.1,334.63,355.44Z"/><path class="cls-8" d="M290.34,283.7a71,71,0,0,0-13.89-12.46c-4.63-3.17-10.16-4.76-14.65-8.09.05-.13,0-.22-.21-.18h0c-.05,0-.11-.06-.15-.1-.23-.17-.52.08-.68.33a24.56,24.56,0,0,0-12,7.15c-4.33,4.72-5.56,11-9,16.21-6.83,10.42-16,1.77-25,2.81a10.39,10.39,0,0,0-8.33,7.19c-1.42,4.53.91,10,1.29,14.54,1,10.17-8.65,11.06-16.06,11.28-4.42.13-9.42,1.05-12.54,4.52a16.37,16.37,0,0,0-3.52,6.1c-.72,2.25.29,4.78-.38,7-.2.56.6,0,.75-.28a6.24,6.24,0,0,0,1.24,2.12,14.75,14.75,0,0,0,2.26,2.43.7.7,0,0,1-.2.26c-.83,1.09.5,1,1.11.28,3.07-3.89,6.67-7,11.91-6.53,3.7.37,6.77,3,9.84,4.85,2.27,1.34,5.65,2.57,8.12,1s3.64-3.82,4.84-6.28c3.42-7,5.86-12.64,14.85-13.14,4.85-.27,9-.93,12.77-4.21,4.08-3.53,7.45-9.13,10.13-13.73,4.25-7.3,5.13-16.07,11.67-21.94,7-6.3,17-2.38,24.58.42C289.63,285.43,290.78,284.2,290.34,283.7Z"/><path class="cls-8" d="M193.42,546c-3.84-6.24-9.77-4.79-15.37-1.72-7.2,4-13.71,11.89-22.77,10.53-7.81-1.19-9.52-12.45-12.2-18.32-5.39-11.68-24.84-15.18-34.41-6.6.06-.35-.52,0-.63.21a5.79,5.79,0,0,0-.3.77,10.58,10.58,0,0,0-1,1.05c-.63.78-.15,1,.42.79-1,5.86,5.34,8.71,10.53,11.07,3.55,1.58,7.84,3.45,9,7.5,1.58,5.57-5,11.19-6.49,16.24-1.41,4.89,3.82,8.14,7.74,9.43,4.29,1.37,12.53-1.16,14.92,3.66,1.17,2.39-.2,5.87-.45,8.44a24.67,24.67,0,0,0,.31,6.75c1,5.08,5,7.6,10,6.6a2,2,0,0,0,1-.94c6.74,0,12.79-6.19,17-10.7,6.38-6.75,12.58-14.13,18.26-21.48C193.9,562.82,198.2,553.86,193.42,546Z"/><path class="cls-8" d="M296.4,583.18a7.11,7.11,0,0,1-.5.72c-9.49,1.75-17.46-1.67-26.81-2.57-6-.57-11.65,3-17.1,4.73-8.44,2.71-17-3.8-15.33-12.71,1-5.21,4.18-10.18,3.56-15.64-.36-2.86-1.87-8-5.62-8s-7,2.91-10,4.89c-5.9,4-11.24,5.43-16.59-.3-5-5.28-2-13.48-2.12-20,.23-.61.48-1.22.72-1.85.36-.82-.65-.3-.87.11-4.51,8.17-6.26,17.49-9.55,26.18-2.88,7.62-8,15.34-2.22,22.94,4.7,6.11,14.24,5,19.56,10.56,5.55,5.78-3.26,15.62,2.77,22,4.24,4.54,13.54,2.69,19,3.07,8.23.63,16.25,6.69,24.32,3.4S274,608.82,279.92,603c6.69-6.51,13.29-11.78,18.13-20C298.9,581.57,296.85,582.43,296.4,583.18Z"/><path class="cls-8" d="M328.7,214.59c-10.94,2.26-22.29-.39-33.15,2.74-7.75,2.23-15.73,9.56-11.52,17.93,1.41,2.81,8.92,11.24,2,12.11-5.36.66-11.09-2.18-16.43-2.57-9.5-.74-17.93,8.89-20.38,17.17-.26,1,1.12,0,1.27-.47.09-.19.16-.35.26-.55,6.37,1.8,12.58,3.36,18.59,6.26A62.73,62.73,0,0,1,287,280.07c.55.53,1.41-.76,1.47-1.19,1.78-11.23,15.66-5.37,21.24-13.48,5.25-7.62.21-14.09-4.93-20-4-4.62-8.57-15.06,1.45-16.86,4.34-.77,8.76.33,13.13-.55,6.46-1.27,9.24-7,9.8-13A.37.37,0,0,0,328.7,214.59Z"/><path class="cls-8" d="M437.32,232.53c-9.3-2.17-18.21-5.64-27.47-8-6.65-1.7-14.22-1.43-20.41-4.69,0,0,0,0-.08,0s-.28,0-.6.15c-4.49,3.09-8.49,7.3-10.07,12.6-.77,2.47.51,5.5,1.22,7.81.86,2.83,2,7.07-2,8.65a12.5,12.5,0,0,1-5.27.26c-11.57-1-21.72-8.36-32.69-.88a16.26,16.26,0,0,0-6.94,11c-.82,7.06,2.88,13.33,4.6,20,1.78,7-1.65,13.32-8.11,16.43-2.68,1.28-5.47,2.2-8,3.75-4.36,2.67-5.16,7.13-5.08,11.76-.19-.27-.32-.56-.48-.83-.37-.65-1.76.64-1.47,1.2,2.24,4.24,4.08,8.67,6.65,12.74.31.51,1.3-.59,1.41-.84,2.89-6.67,7.11-9.23,14.13-8.11,4.33.69,8.45,2.11,12.81,2.39,5.9.38,14.13-2.89,16-9.1,2.42-8-3.13-15.89-.89-24.06,2.46-9.07,13.18-8.52,20-12.15,5.67-3,7.55-7.84,8.09-14,.68-7.8,1.16-22.85,12.6-20.22,7.55,1.71,13.48,8.11,21.54,8.19,6.9.07,9.52-8.19,10.72-13.54C437.54,232.86,437.54,232.57,437.32,232.53Z"/><path class="cls-8" d="M514.69,274.78a8.54,8.54,0,0,0-.6-.88c.19-.3.21-.58-.14-.52h-.16c-2.14-2.8-5.14-5.05-7.86-7.18-3.11-2.43-6.7-5.48-10.62-6.65.28-.44.36-.91-.14-.91A27,27,0,0,0,473,269.11c-5.95,7.65-10.4,22.37-22.83,19-4.41-1.2-8-5.18-12-7.28-4.24-2.21-9.13-1.36-13.54,0-8.83,2.73-16.62,9.2-22.11,16.46-6,7.9-9.36,17.43-14.11,26-3.68,6.73-8.22,11.41-16,12.68-4.26.68-8.59.48-12.87,1.08-8.16,1.19-14.47,7-19.15,13.49a21.15,21.15,0,0,0-3.8,10.74c-.49,5.77,2.74,11.22,3.71,16.81-.11.22-.05.31.09.36a2.7,2.7,0,0,1,.08.39c0,.51,1.23-.39,1.17-.82,0-.22-.05-.43-.06-.63,4.71-6.36,6.71-15.1,12.86-20.19,4.54-3.75,10.72-2.52,16-1.94a35.6,35.6,0,0,0,12.44-.6c16.81-4.25,21.74-22,27.32-36.28a38.13,38.13,0,0,1,7.14-12.3c4.17-4.52,9.95-5.45,15.78-5.38,8.43.1,17.54,2.6,25.85.51,8.78-2.23,14-8.84,19.15-15.8,4.1-5.6,9.12-9.8,16-11.31,6.09-1.37,12.08,1.47,18.21.7.3.43.65.81.93,1.27S515,275.3,514.69,274.78Z"/><path class="cls-8" d="M554.75,323.64a4.26,4.26,0,0,0-.66-.53A78.65,78.65,0,0,0,550.33,311c.16-.31.13-.56-.13-.63l-.1,0a7.91,7.91,0,0,1-.28-.78c-.11-.23-.53.18-.53.37a.31.31,0,0,1,.05.21c-5.48-1.37-10.62-3.47-16-5.18s-11-1.53-16.64-.32c-11,2.39-21.86,8.51-30.16,16-8,7.17-10.93,17.26-18,25-10.75,11.72-24.87,2.08-37.59,5.65-9,2.52-15.5,10.43-20.76,17.73-6.62,9.1-10.78,19.58-16.86,29-4.13,6.4-9.24,9.68-17,8.41-4.48-.73-9.27-2.57-13.84-1.28-6.8,1.93-13.94,7.62-17,14.28-.11-.47-.18-.92-.3-1.38s-.85.32-.78.67c.13.81.26,1.66.39,2.47a1.62,1.62,0,0,0-.13.34c-.05.2,0,.2.19.17,1,7.77.93,15.56,1.3,23.39.06.77,1.2-.31,1.24-.73,1.54-13.41,9.08-24.58,22.83-27.36,10.23-2.07,20.58,2.3,30.93.57,18.45-3,24-23.77,32-37.65,4.89-8.53,11.43-13.32,21.36-14.19,10.62-.91,21.63,3.54,31.93-.54s12.46-15.39,15.73-24.74c4.87-13.94,21.08-24.76,35.76-22.77,5.62.77,10.61,3.7,14.95,7.26a4.85,4.85,0,0,0,.21.56c.23.4.73,0,1-.44C554.69,324.59,555.1,323.9,554.75,323.64Z"/><path class="cls-8" d="M565.58,417.25a.25.25,0,0,0-.16-.05c0-.24-.15-.23-.35-.09-5.65-1.27-9.63-3.85-14.44-7.08-3.26-2.2-7.37-3.94-11.33-2.65-9.22,3-15.79,17.24-26.36,11.13-8-4.63-12.63-15.57-23.06-15-5,.31-10,3.43-14.36,5.66a64.36,64.36,0,0,0-14.7,9.92c-7.78,7.21-10.52,16.74-16.39,25.24-8.83,12.81-21.56,3.51-33.5,4.41-12.12.93-16.9,17.08-30.08,14.65-10.64-2-16.93-12.82-28.69-8.5-8,2.92-11.29,13-13.08,20.4-2.64,10.86-2.5,22.24-5.18,33.11-.14.61.55.27.85-.13,3.74,10.56,16.46,11.33,24.7,5.28,11.53-8.48,16.4-23.05,30.79-28.16,8.16-3,16.23.19,24.48.67a35.35,35.35,0,0,0,19.08-4.29c5.65-3,8.9-8.37,11.64-13.92,4.3-8.75,9.79-15,16.79-21.72a.84.84,0,0,0,.33-.8c4.1-2.77,7.41-6.58,12-8.77,6.12-2.93,12.75-2,18.17,1.74,6.1,4.17,12.51,13.13,21.1,10.34,6.59-2.12,11.15-8.26,16.42-12.4,4.45-3.51,10.7-6.6,16.48-5.45,4.42.88,6.83,5.86,10.29,8.38-.25.5-.51,1-.75,1.51-.35.73.55.36.79,0s.53-.75.81-1.15c.45-.13.92-.73.72-1.08,3.58-5.76,4.87-13.24,6.52-19.75C565.66,418.27,566.16,417.35,565.58,417.25Z"/><path class="cls-8" d="M518.84,502c-8.3-.22-16.32-3-24.66-2.83a31.88,31.88,0,0,0-18.1,6.41c-4.08,3-7,7-10.23,10.82-2.68,3.16-6.68,8.45-11.17,10.19,0-.16,0-.24-.24-.21-6,.58-11.2.39-16.9-1.64-4-1.41-7.4-.52-11.24,1.08-8.09,3.35-14.17,11.13-20.07,17.33-6.22,6.48-11.13,14.11-17.51,20.5-4.15,4.25-9.12,7.65-15,9s-10.18-1.89-15.32-3.78c-7.52-2.77-12.31,4.13-17.27,8.41-5.6,4.83-12.58,2.32-17.39-2.12-3-2.75-5-8.86-8.88-10.32-5.93-2.3-10.73,7.37-13.33,11.09-7.12,10.22-14.45,20.46-23.91,28.64-.18-.27-.35-.56-.5-.84s-.91.33-.78.64a7,7,0,0,1,.49.88,5.87,5.87,0,0,1-.73.66c-.32.3-.37.91.16.5.32-.22.57-.47.88-.7,8.22,14,31.56,12.53,44.3,6.61,9.46-4.4,15.2-14.26,23.83-19.9,6.62-4.31,13.29-2.51,20.28-.47a32.72,32.72,0,0,0,17.77.57c8.64-2.08,15.25-8.28,21.08-14.61,3.46-3.71,6.78-7.56,10.39-11.11a31.36,31.36,0,0,1,10-7.16c3.55-1.46,7.71-1.61,11.5-2.11,11.77-1.61,19.49-9.78,27.11-18.2,10.58-11.77,22.81-23,38.62-26.69,3.18-.72,6.36-1.4,9.5-2.3-.61.57-.28,1.45.47.77a11,11,0,0,0,1.26-1.3l1-.29c.55-.22,1.43-1.76.44-1.44a52.34,52.34,0,0,1,4.07-5C519.05,502.84,519.51,502,518.84,502Z"/><path class="cls-8" d="M540.91,471.49c-.29.2-.6.36-.9.56-.07-.25-.55.09-.76.38-5.92,2.78-9.24-1.71-14.21-5.31a13.42,13.42,0,0,0-9.73-2.7c-6.52.86-10.52,7.48-16.18,10.06-9.3,4.21-16.19-9.59-26.09-7.05-7.84,2-9.87,8.39-8.62,15.85.11.53,1-.12,1.09-.27,6.49-7.13,14.48-10.2,22.52-4.1,3.92,2.95,7,7,11.7,8.85,3.79,1.49,8.41-.38,11.16-3.08s4.74-5.7,7.59-8.1c5.84-5,12.39,1.72,12.61,7.52,0,.61.83-.07,1-.25,2.1-2.72,6.61-6.65,7.74-10.4.35-.2.7-.42,1.06-.66C541.41,472.42,542,470.79,540.91,471.49Z"/><path class="cls-8" d="M239.5,235.45c.11-.36,0-.64-.63-.32-6.43,3.43-13.52,5.92-17.91,12.05-.12.16-.5.85-.05.91A38.33,38.33,0,0,1,230,249.8c2.54.91,4.73,2.77,7.28,3.79a6.25,6.25,0,0,0,7.09-2.08C247.81,247.32,242.32,239,239.5,235.45Z"/><path class="cls-8" d="M480.78,248.41c-7.42-3.14-14.82-5.22-21.92-9.27-.34-.2-.74.15-1,.39-4.11,4-17.7,12.77-9.44,19.7,1.82,1.52,4.63.22,6.09-1.15,3.05-3,5.55-6.08,9.68-7.68,4.36-1.71,9.19-1.54,13.78-1.08.56.2,1.11.43,1.64.67S481.53,248.71,480.78,248.41Z"/><path class="cls-8" d="M555,333.76c-8.4-1-17.9,2.71-24.28,7.95-4.11,3.44-8.92,13.36-1.11,16.22,4.86,1.77,10-1.25,14.29-3.2,8.67-4,15.73.94,23.61,4.16,0,.23,0,.48,0,.71.06.9,1.6-.32,1.58-.94C568.36,349,566.67,335.19,555,333.76Z"/></g><g class="cls-10"><path class="cls-2" d="M716.64,426.57a359.82,359.82,0,0,1-30.83,106.89c-15.42,32.92-36.09,62.37-56,92.6-2.44,3.67,1.63,3.24,3.45.87,43.71-57.67,83.37-128.09,86.08-202C719.41,423.33,716.76,425.58,716.64,426.57Z"/><path class="cls-2" d="M621.24,634.72c-.75-.7-2,.44-2.49.9a25,25,0,0,1-5,4.3,3.49,3.49,0,0,0-1.83,2.52c0,1.06,1.05.74,1.66.45,2.68-1.33,4.84-3.53,6.92-5.64C620.94,636.76,621.93,635.38,621.24,634.72Z"/></g><g class="cls-6"><path class="cls-2" d="M746.15,376.91c1.78-5.54,2.66-8.21,2.66-8.21-37.5,9.32-78.44-6.45-99.4-16.69-2.09,3.55-4.28,7.41-6.68,11.38C658.5,371.37,700.12,388.57,746.15,376.91Z"/></g><path class="cls-2" d="M797.27,316.3c-4-5.48-9-6.69-14.19-6-1-12-4.81-23.8-9.05-35-3.68-9.72-9.19-19.67-17.91-25.67a80.19,80.19,0,0,0-21.94-10.1,40.72,40.72,0,0,0-6.75-1.43,66.61,66.61,0,0,0-21.5.94,73.91,73.91,0,0,0-11.52,3.42c-16.19,5.42-32.41,13.89-43.66,27a54.35,54.35,0,0,0-11.14,21.46c-3.07,11.32-1.15,21.85,2.57,32.74A33.82,33.82,0,0,0,635,336.59c-2,7.5,2.22,14.46,8.05,18.79s13.85,6.18,20.95,7.78c9.52,2.15,18.88,4.79,28.37,7.11,20.74,5.1,41.62,6.43,62.17-.32a51.34,51.34,0,0,0,7.81-3.25,57.39,57.39,0,0,0,34.34-26.4C801.18,332.75,802.67,323.74,797.27,316.3Z"/><path class="cls-2" d="M643.76,179.8c-4.62-14.45-9.67-28.84-16.41-42.42-6-12.14-13.4-27.47-23.66-36.46-1-.85-3.18,1.52-2.76,2.55,6,13.48,13.81,25.86,19.24,39.74q8.34,21.38,15.37,43.25c4.53,14,8.73,28.19,12.61,42.39,4.35,15.69,4.86,32,8.64,47.66.85,3.49,6.89-2.83,7-4.9C665,240.74,653,208.8,643.76,179.8Z"/><path class="cls-2" d="M643.76,179.8c-4.62-14.45-9.67-28.84-16.41-42.42-6-12.14-13.4-27.47-23.66-36.46-1-.85-3.18,1.52-2.76,2.55,6,13.48,13.81,25.86,19.24,39.74q8.34,21.38,15.37,43.25c4.53,14,8.73,28.19,12.61,42.39,4.35,15.69,4.86,32,8.64,47.66.85,3.49,6.89-2.83,7-4.9C665,240.74,653,208.8,643.76,179.8Z"/><path class="cls-2" d="M780.54,83.12c-20.08,22.49-25.43,55.08-32.5,83.4a335.22,335.22,0,0,0-8.55,51.74c-1.51,16.55-2.8,35.32,1.76,51.48.85,3.08,6.08-2.52,6.14-4.34.51-16.14-1-32.18.07-48.36A316.9,316.9,0,0,1,755,167.17c6.45-28.6,12.71-58.1,27.9-83.43C784.17,81.6,781.49,82.05,780.54,83.12Z"/><path class="cls-11" d="M761.11,297.93c.47-1.08,1.13-2,1.66-3.1.11-.65-.78-.29-1.11.13-.59,1-1.2,1.69-2.2,3.12C747.28,309.9,733,315,716,314.53c-16-.43-29.56-6.28-41.22-17-.34-.5-.7-1-1-1.42-.21-.26-.83.41-.72.64a126.18,126.18,0,0,1,7.72,20.83c1.9,7.08,3.62,14.19,6.6,20.89,5.59,12.48,14.91,23.29,28.84,23.95,12.54.6,22.21-3.87,29.67-18.21,3.46-6.7,4.44-13.82,6.43-21.1a161.48,161.48,0,0,1,8.08-22.85A14.58,14.58,0,0,1,761.11,297.93Z"/><path class="cls-12" d="M748.38,308.77c-16.83,13.39-46.63,12.45-65,1.85a0,0,0,0,0,0,0c-2.3-2.33,1.1,5.57,1.34,6.67,4.91,20.79,15.73,45.35,41.44,37.06,18.06-5.85,23-29.15,24.28-45.44C750.48,307.62,748.84,308.36,748.38,308.77Z"/><path class="cls-13" d="M687.06,326c6.7-2.92,15-3.46,21.44-2.87,10.77,1,20.24,5,29.68,10.17,2,1.1,3.91,2.21,5.81,3.37,4-8.86,5.71-19.29,6.38-27.83.11-1.26-1.53-.52-2-.11-16.83,13.39-46.63,12.45-65,1.85a0,0,0,0,0,0,0c-2.3-2.33,1.1,5.57,1.34,6.67C685.34,320.13,686.16,323.11,687.06,326Z"/><path class="cls-14" d="M741,313.31c-17.2,8.42-41.73,6.49-57.69-2.69a0,0,0,0,0,0,0c-2.3-2.33,1.1,5.57,1.34,6.67.52,2.17,1.1,4.38,1.78,6.59C726.91,341.71,738,323.32,741,313.31Z"/><path class="cls-15" d="M699.33,320.94c7.25.86,12.44,2.35,20.11,1.72A56.76,56.76,0,0,0,739.69,317a27.86,27.86,0,0,0,1.35-3.67A50.53,50.53,0,0,1,729,317.38c-15.4,3.17-33.15.43-45.63-6.76a0,0,0,0,0,0,0c-2.3-2.33,1.1,5.57,1.34,6.67.52,2.17,1.1,4.38,1.78,6.59,2.1,1,4.15,1.79,6.13,2.51C692.06,321.9,693.7,320.28,699.33,320.94Z"/><path class="cls-16" d="M692.09,338.38c6.1,11.69,15.57,20.07,30.41,16.87C719.62,330.27,701.34,334.53,692.09,338.38Z"/><path class="cls-17" d="M714.65,341.62c-.42,1-2.57,1.07-4.76.16s-3.67-2.5-3.21-3.52,2.54-1.06,4.74-.15S715.08,340.61,714.65,341.62Z"/><g class="cls-6"><path class="cls-18" d="M689.49,312.47c-5.84-2.26-10.08-6.63-13.51-11.84-.11-.22-.61.31-.51.49,2.33,5.41,6.89,11.95,13.26,12.47C689.11,313.59,690,312.71,689.49,312.47Z"/><path class="cls-18" d="M758.53,299.36A24.15,24.15,0,0,1,747,309.86c-.16.09-.58.65-.16.54a21.27,21.27,0,0,0,12.6-11.14C759.83,298.42,758.77,299,758.53,299.36Z"/></g><path class="cls-11" d="M643.76,179.8c-4.62-14.45-9.67-28.84-16.41-42.42-6-12.14-13.4-27.47-23.66-36.46-1-.85-3.18,1.52-2.76,2.55,2.66,5.94,5.64,11.68,8.63,17.43,1.23-2,1.71-2.3,4.1.2,6.42,6.82,36.31,75.08,42.4,116.05,3.26,21,6.11,31,6.92,36.28a4.24,4.24,0,0,0,.77-1.82C665,240.74,653,208.8,643.76,179.8Z"/><path class="cls-19" d="M640.44,193c-6.2-19-12.28-38.39-20.42-56.67-.17-.3-.73.25-.63.49C625.73,156,632.76,175,639,194.18s11.87,38.65,18.6,57.7c.23.62,1.44-.52,1.3-1C653.06,231.47,646.72,212.23,640.44,193Z"/><path class="cls-19" d="M763.19,118.11c-7.67,19.06-12.07,39.89-16,60-3.87,19.54-8.17,40.17-6.81,60.19.08.78,1.23-.28,1.26-.74.7-10.22.66-20.36,2-30.56,1.32-10.48,3.4-20.92,5.43-31.28,3.87-19.6,9.62-38.49,14.6-57.78C763.71,117.6,763.25,118,763.19,118.11Z"/><path class="cls-19" d="M734.8,245.1c-21.43-9.61-49.94,3.06-65.53,18.4-1.48,1.5-.84,3.54,1.22,2,19.11-14.82,38.6-20.48,62.5-17.81C733.9,247.77,736.06,245.69,734.8,245.1Z"/><path class="cls-11" d="M797.27,316.3c-4-5.48-9-6.69-14.19-6-1-12-4.81-23.8-9.05-35-3.68-9.72-9.19-19.67-17.91-25.67a64.73,64.73,0,0,0-8.84-5c-.19-9.17-.4-18.34.18-27.54A316.9,316.9,0,0,1,755,167.17c6.45-28.6,12.71-58.1,27.9-83.43,1.27-2.14-1.41-1.69-2.36-.62-11.49,12.86-18.13,29-23.06,45.81,2.76-7.71,7.91-21.32,10.06-21.67,3-.48-7.43,23.15-14,51.33S743.33,222,744,241.94c.62,17.05,4.34,25.91,6.67,17.05s27.45,10.75,23.7,55.58c-2.8,14,3.75-3.73,14.41,0s12.24,33.82-32,50c-25.59,9.35-65.1,5.61-96.73-12.14-20.91-12.63-15.31-24.31,5.6-22-14.87-8.11-27.38-19.35-22.71-48.68a57.6,57.6,0,0,0-3.3,9.11c-3.07,11.32-1.15,21.85,2.57,32.74A33.82,33.82,0,0,0,635,336.59c-2,7.5,2.22,14.46,8.05,18.79s13.85,6.18,20.95,7.78c9.52,2.15,18.88,4.79,28.37,7.11,20.74,5.1,41.62,6.43,62.17-.32a51.34,51.34,0,0,0,7.81-3.25,57.39,57.39,0,0,0,34.34-26.4C801.18,332.75,802.67,323.74,797.27,316.3Z"/><path class="cls-19" d="M762.29,286.71c-12.43,27-49.5,24.79-73.39,17.62-1.13-.36-3.52,2.47-2.1,3,25,10.39,65.88,8.46,77-21C764.23,285.24,762.51,286.2,762.29,286.71Z"/><path class="cls-2" d="M668.89,340.61c-.24-1.78-3.27,1.43-3.43,2.06-3.66,11.7-8.05,22.4-15.14,32.43a71.15,71.15,0,0,1-11.15,11.73c-4.55,4-10,7.94-16,9.13-1.49.28-2.38-.31-3.74-.8a7.66,7.66,0,0,0-10.22,7.51,9.24,9.24,0,0,0,2.73,6.06c2,2.11,4.82,1.6,6.94-.29a11.3,11.3,0,0,0,3.33-4.52,39.86,39.86,0,0,0,6-3.41c7.42-4.87,14.79-9.11,21.11-15.48C659.94,374.25,671,356.33,668.89,340.61Z"/><path class="cls-2" d="M831.56,381c-2.27-.28-5,.33-6.48,1.8q-3.9-2.43-7.78-4.89a193.92,193.92,0,0,1-17.43-12.56c-9.53-7.78-19-15.66-26.75-25.2-.6-.68-2,1.07-1.85,1.73,1.75,6.06,5.84,10,10.29,14.26,6.42,6.19,12.06,13.18,18.41,19.43a131.48,131.48,0,0,0,19.32,15.83c.5.34,1.07.7,1.61,1.07.22.13.41,1.22.6,1.51a3.08,3.08,0,0,0,1.21,1.08c2.17,1.05,5.13-.13,7.07-1.23a12.34,12.34,0,0,0,4.59-5.19c1-2,2-5.43-.41-6.86A6.4,6.4,0,0,0,831.56,381Z"/><g class="cls-6"><path class="cls-18" d="M654.79,263.05c-.07-.12-.26.12-.26.23,1,5.45,2.15,11,3.25,16.42.11.42.92-.37.86-.71C658.08,273.86,657.45,267.59,654.79,263.05Z"/><path class="cls-18" d="M664,256.45c0-.44-.69.16-.71.43-.52,6.22-.38,13.7,2.18,19.47.21.46,1-.39.92-.73A190.07,190.07,0,0,1,664,256.45Z"/><path class="cls-18" d="M738.39,240.18c-.06-.32-.72.28-.69.54.28,5.86-.17,11.78.48,17.59.05.43,1-.35,1-.68C739.12,251.9,739.64,245.86,738.39,240.18Z"/><path class="cls-18" d="M747.61,243.64c-.05-.45-.69.18-.72.42-.55,5,.24,10.8,1.19,15.66.09.43.85-.33.85-.56C749.28,254.06,748,248.71,747.61,243.64Z"/><path class="cls-18" d="M665.09,341.78c-2.57,6.82-3.92,14-8.36,20-.22.35.2.3.37.08,4.75-5.84,6.69-13.33,8.83-20.41C666.1,340.83,665.21,341.49,665.09,341.78Z"/><path class="cls-18" d="M669.82,345.1c-.93,7.37-3.41,13.71-6.39,20.43-.31.7.51.39.76,0a41.36,41.36,0,0,0,6.24-20.8C670.43,344.4,669.85,344.9,669.82,345.1Z"/><path class="cls-18" d="M781.53,356.18a76.68,76.68,0,0,1-7-7.51c-.13-.15-.57.3-.45.48a40,40,0,0,0,6.84,7.73C781.13,357.07,781.77,356.41,781.53,356.18Z"/><path class="cls-18" d="M788.21,352.79a65.24,65.24,0,0,1-5.44-4.29,35.74,35.74,0,0,1-4.25-5.17c-.15-.18-.69.32-.58.5,2.25,3.79,5.44,8,9.52,9.88C787.76,353.86,788.51,353,788.21,352.79Z"/></g><path class="cls-5" d="M739.16,351.89c-6,4.54-11.62,9.29-19.49,9.51a30.51,30.51,0,0,1-12.57-2.56c-4.05-1.71-7.2-5.09-10.82-7.46-.28-.16-.82.41-.6.61,6.51,7,13.54,10.77,23.17,11,8.07.22,14.78-5.33,20.54-10.34C739.94,352.22,740,351.28,739.16,351.89Z"/><path class="cls-14" d="M760.52,60.42c-1.59,19.88,8.19,36,21.87,36.08s26-16,27.66-35.91-8.24-36-21.88-36.06S762.1,40.57,760.52,60.42Z"/><g class="cls-6"><path class="cls-20" d="M760.52,60.42a54.05,54.05,0,0,1,1.33-8.35,43.9,43.9,0,0,0-.74,5.3c-1.34,16.84,6.94,30.5,18.54,30.55s22.07-13.57,23.41-30.41S796.12,27,784.55,27c-4.7,0-9.22,2.21-13,6,4.74-5.28,10.57-8.45,16.66-8.45,13.64,0,23.43,16.21,21.88,36.06s-14,36-27.66,35.91S758.93,80.3,760.52,60.42Z"/></g><path class="cls-21" d="M763.25,61.87c-1.37,13.46,4.8,24.89,13.73,25.52s17.29-9.75,18.63-23.22-4.78-24.88-13.73-25.51S764.62,48.42,763.25,61.87Z"/><path class="cls-22" d="M763.25,61.87c-1.37,13.46,4.8,24.89,13.73,25.52s17.29-9.75,18.63-23.22-4.78-24.88-13.73-25.51S764.62,48.42,763.25,61.87Z"/><path class="cls-23" d="M767,63.06c-1.06,10.25,3.66,19,10.48,19.46s13.19-7.45,14.2-17.7-3.65-19-10.47-19.48S768,52.79,767,63.06Z"/><path class="cls-24" d="M772.76,64.1c-.65,6.53,2.33,12.05,6.64,12.37s8.36-4.73,9-11.25-2.31-12.06-6.66-12.36S773.41,57.57,772.76,64.1Z"/><g class="cls-6"><path class="cls-22" d="M795.79,60.3a34,34,0,0,1-.18,3.87C794.27,77.64,785.94,88,777,87.39s-15.1-12.06-13.73-25.52c.14-1.25.35-2.45.56-3.64C772.82,66.24,786.87,68.94,795.79,60.3Z"/></g><path class="cls-14" d="M779.62,55.94c-.07,5.4,2.83,9.67,6.41,9.57s6.6-4.65,6.68-10-2.82-9.69-6.41-9.54S779.71,50.56,779.62,55.94Z"/><path class="cls-14" d="M782,71.06c0,2,1,3.58,2.38,3.51s2.45-1.69,2.46-3.69-1-3.57-2.37-3.53S782.08,69.06,782,71.06Z"/><path class="cls-14" d="M570,86.38c2.91,19.46,15.91,32.74,29.06,29.7s21.46-21.27,18.52-40.68-15.9-32.77-29-29.72S567.06,66.93,570,86.38Z"/><g class="cls-6"><path class="cls-20" d="M570,86.38a53.48,53.48,0,0,1-.56-8.31,37.75,37.75,0,0,0,.46,5.25c2.46,16.47,13.47,27.72,24.6,25.15s18.18-18,15.73-34.47-13.5-27.74-24.61-25.16c-4.54,1.06-8.39,4.21-11.17,8.7,3.34-6.16,8.24-10.51,14.09-11.86,13.14-3,26.13,10.26,29,29.72s-5.38,37.65-18.52,40.68S572.88,105.84,570,86.38Z"/></g><path class="cls-21" d="M573.42,85.28c1.39,13,9.41,22.48,18,21.32S605.76,94,604.38,81s-9.4-22.46-18-21.3S572.06,72.35,573.42,85.28Z"/><path class="cls-22" d="M573.42,85.28c1.39,13,9.41,22.48,18,21.32S605.76,94,604.38,81s-9.4-22.46-18-21.3S572.06,72.35,573.42,85.28Z"/><path class="cls-23" d="M577.2,85.66c1,9.89,7.19,17.15,13.7,16.25s11-9.64,9.92-19.53-7.2-17.16-13.71-16.26S576.15,75.76,577.2,85.66Z"/><path class="cls-24" d="M582.83,85.47c.67,6.29,4.55,10.9,8.7,10.35s7-6.13,6.33-12.4-4.59-10.89-8.74-10.31S582.16,79.21,582.83,85.47Z"/><g class="cls-6"><path class="cls-22" d="M603.77,77.32a33.62,33.62,0,0,1,.61,3.68c1.38,13-4.43,24.4-13,25.6s-16.61-8.37-18-21.32c-.12-1.2-.16-2.39-.16-3.56C583.31,87.49,597.05,87.24,603.77,77.32Z"/></g><path class="cls-14" d="M587.7,76.44c1,5.11,4.54,8.55,7.9,7.72s5.33-5.66,4.29-10.77-4.5-8.56-7.86-7.73S586.72,71.33,587.7,76.44Z"/><path class="cls-14" d="M592.94,90.19c.38,1.9,1.68,3.16,2.94,2.86s2-2.09,1.61-4-1.69-3.18-2.92-2.86S592.59,88.3,592.94,90.19Z"/><path class="cls-25" d="M573.42,45.85s4.2-14.59,16.64-5.69c5.33,2.93-1.13-9.39-8.57-8.08S568.11,52.81,573.42,45.85Z"/><path class="cls-25" d="M772.63,13.76s7.86-16.25,19.38-7c5.46,3.79,0-9.37-9.92-6.29S769.26,17,772.63,13.76Z"/><path class="cls-19" d="M665.36,346.13c-3.29,9.25-6.65,18.18-12,26.46-5.51,8.48-12.88,15.46-21,21.44-.43.32-.67,1.46.12,1,16.54-11.38,29.25-29.21,33.45-49.08C666.1,345.39,665.43,345.9,665.36,346.13Z"/><path class="cls-19" d="M825.29,385.82c-6.63-5.28-14.46-8.83-21.06-14.15-6.22-5-13.49-10.44-18.45-16.71-.1-.17-.56.29-.44.48,4.35,6.4,11,10.87,16.58,16.14,6.48,6.14,14.91,10.65,22.55,15.12C824.81,386.91,825.6,386.1,825.29,385.82Z"/><g class="cls-10"><path class="cls-2" d="M626.39,693.89c-8.1-8.12-19.19-14.33-30.79-14.9-.86,0-1.88,1.65-.79,1.68,11.36.57,22.22,6.64,30.14,14.56C625.6,695.91,627,694.54,626.39,693.89Z"/><path class="cls-2" d="M630,696.34l-1.27-1.29c-.66-.66-2.13.71-1.47,1.36.43.42.85.87,1.28,1.28C629.17,698.36,630.61,697,630,696.34Z"/></g><path class="cls-26" d="M133.34,389.66s39,83-15.62,154.15c-20.15,24.71,85.86,41.93,85.86-90.56C212.85,353.86,112.14,306.19,133.34,389.66Z"/><g class="cls-10"><path class="cls-8" d="M407.86,239.68c-6-.31-11.72,9.62-4,10,53.54,2.58,92.49,35,114.91,70.46C541.48,356,551.45,404.19,527.7,444c-4,6.74,6.13,7.62,9.52,2C584.39,366.8,520.1,245.05,407.86,239.68Z"/><path class="cls-8" d="M520.74,462.36c-2.94,1.4-4.69,3.84-4.78,6.39,0,.06-.08.21-.21.53a10,10,0,0,1-1,1.89,38,38,0,0,1-3.52,4.52,38.54,38.54,0,0,1-8.51,7.8c-2.46,1.49-4.48,4.9-2.92,7.08,1.68,2.37,5.46,1,7.65-.35,5-3.06,9-7.43,12.44-11.53,3.8-4.41,7.88-9.48,7.53-14.86C527.24,461.09,523,461.3,520.74,462.36Z"/></g><path class="cls-26" d="M133.34,389.66s39,83-15.62,154.15c-20.15,24.71,85.86,41.93,85.86-90.56C212.85,353.86,112.14,306.19,133.34,389.66Z"/><path class="cls-26" d="M124.22,463.4c-3-38.71-20.89-49.78-39.33-45.46-12.89,4.3-6.75,12.28-.6,13.5,0,0,25.2,10.44,20.3,50.39S127.34,502.63,124.22,463.4Z"/><path class="cls-27" d="M344.57,405.54c1.55,79.35-19.4,183.84-107.22,227,11.55,4.5,80.72,26.72,181.46-39.8-19,8.67-40.29,14.82-62.05,14.26C287.88,605.26,370.72,546.82,344.57,405.54Z"/><path class="cls-26" d="M133.34,389.66s39,83-15.62,154.15c-20.15,24.71,85.86,41.93,85.86-90.56C212.85,353.86,112.14,306.19,133.34,389.66Z"/><path class="cls-26" d="M124.22,463.4c-3-38.71-20.89-49.78-39.33-45.46-12.89,4.3-6.75,12.28-.6,13.5,0,0,25.2,10.44,20.3,50.39S127.34,502.63,124.22,463.4Z"/><path class="cls-27" d="M183.18,624.22c-12.24-19.68,25.54-44.16,30.87-140.92-12.54,70.9-31.24,114.83-78.28,126,9.49,14.62,35.51,22.83,59.54,24.76A25.49,25.49,0,0,1,183.18,624.22Z"/><path class="cls-26" d="M84.89,417.94c-12.89,4.3-6.75,12.28-.6,13.5,0,0,25.2,10.44,20.3,50.39s22.75,20.8,19.63-18.43C121.17,424.69,103.33,413.62,84.89,417.94Z"/><path class="cls-26" d="M133.34,389.66s39,83-15.62,154.15c-20.15,24.71,85.86,41.93,85.86-90.56C212.85,353.86,112.14,306.19,133.34,389.66Z"/><path class="cls-27" d="M92.93,558.56c16-26.68,31.1-26.37,37.17-73.91-12.75,39.49-36.28,71-62.46,51.08C63.8,560.82,78,590.06,104.89,602.64,95,595,83.78,580.89,92.93,558.56Z"/><path class="cls-26" d="M124.22,463.4c-3-38.71-20.89-49.78-39.33-45.46-12.89,4.3-6.75,12.28-.6,13.5,0,0,25.2,10.44,20.3,50.39S127.34,502.63,124.22,463.4Z"/><path class="cls-26" d="M133.34,389.66s39,83-15.62,154.15c-20.15,24.71,85.86,41.93,85.86-90.56C212.85,353.86,112.14,306.19,133.34,389.66Z"/><path class="cls-28" d="M565.82,345.45c7.71,182.08-232.26,252.13-192.65,178C460.61,335.34,227.1,242.93,322.12,225c64.66-12.21,156.47,26.12,193,48.35a276.07,276.07,0,0,0-28-20.81c-61.62-32.44-198.77-66.24-277.6,3.33-25.83.66-69.58,27.81-82.15,74.2C97.57,342,70,385.25,66.24,422.24c0,0-40.2,48.83,1.72,111.49-6.5,33.69,20.32,76,67.4,75.19,14.29,25.5,75.64,29.37,100.25,22.9,0,0,91.19,42.71,225-70.57C532.55,498.52,588.13,419.73,565.82,345.45ZM104.59,481.83c4.9-39.95-20.3-50.39-20.3-50.39-6.15-1.22-12.29-9.2.6-13.5,18.44-4.32,36.28,6.75,39.33,45.46C127.34,502.63,99.64,521.77,104.59,481.83Zm99-28.58c0,132.49-106,115.27-85.86,90.56,54.6-71.12,15.62-154.15,15.62-154.15C112.14,306.19,212.85,353.86,203.58,453.25ZM239.5,501.7c5-25.26,7.61-52.7,5.63-78.41-2.26-29.79-9-59-25.19-84.36-5.93-9.31-13.74-17.18-19.65-26.47-.48-.71-1-1.55-1.47-2.45-5.74-10.1-14.93-32.24-2.89-39.82,17.11-10.77,42.39-6.09,59.89,1.53C315.53,297.7,335,374.35,336.14,433,338.69,567.82,215.31,622.52,239.5,501.7Z"/></g></g></svg>