<svg xmlns="http://www.w3.org/2000/svg" viewBox="0 0 837.46 1015.58"><defs><style>.cls-1{isolation:isolate;}.cls-2{fill:#f9efef;}.cls-14,.cls-3{opacity:0.3;}.cls-10,.cls-13,.cls-14,.cls-16,.cls-18,.cls-19,.cls-21,.cls-24,.cls-25,.cls-3,.cls-5,.cls-7{mix-blend-mode:multiply;}.cls-13,.cls-14,.cls-23,.cls-4{fill:#bcadad;}.cls-5{fill:#a09595;}.cls-25,.cls-6{fill:#3a3438;}.cls-16,.cls-7{opacity:0.5;}.cls-15,.cls-8{fill:#fff;}.cls-24,.cls-8{opacity:0.8;}.cls-11,.cls-9{fill:#b4a98b;}.cls-10{opacity:0.7;}.cls-11,.cls-22,.cls-23{mix-blend-mode:screen;}.cls-12{fill:#564626;}.cls-13{opacity:0.6;}.cls-16{fill:#894416;}.cls-17,.cls-21,.cls-22{fill:#f9bbae;}.cls-19{fill:#e08475;}.cls-20{fill:none;}</style></defs><g class="cls-1"><g id="Layer_1" data-name="Layer 1"><path class="cls-2" d="M211.64,716.29S238.22,734,252.4,739.91a64.44,64.44,0,0,0-11.81,14.76l11.81-2.36s1.18,7.68,7.69,11.84,21.87,59.67,32.5,84.48,15.35,34.28,2.35,43.73c-10.63,11.22-11.81,12.41,6.51,23-11.23,20.09-14.18,37.83,6.49,45.52s62,18.89,89.83,9.42c23-7.08,28.35-21.83,24.22-37.21s-26.6-25.39-44.33-29.55c-11.81-4.13-9.45-10.62-32.49-19.49-11.82-5.92-21.86-31.93-29-70.31s-4.13-63.23,13.6-78c.59,8.87,3,11.82,3,11.82s7.08-16,17.13-26,11.22-68.55-35.45-89.24S258.9,608.13,250.64,630,211.64,716.29,211.64,716.29Z"/><g class="cls-3"><path class="cls-4" d="M422,933.13c-4.14-15.35-26.6-25.39-44.33-29.55a24.63,24.63,0,0,1-7.17-3.8c-31.33,9.15-45.53,49.84-57.05,36.39-12.24-14.28,10.2-25.49-1-33.66s7.15-11.24-6.12-52C290,806.58,276.7,747.41,266.51,725c-6.81-15,6.13-44.91,6.13-44.91l8.16,14.28s2-18.34,12.24-29.57c16.45-19.42,40.37-7,57.68,7.06C345.1,656.27,334,641,314.45,632.37c-46.68-20.69-55.55-24.24-63.81-2.37s-39,86.29-39,86.29S238.22,734,252.4,739.91a64.44,64.44,0,0,0-11.81,14.76l11.81-2.36s1.18,7.68,7.69,11.84,21.87,59.67,32.5,84.48,15.35,34.28,2.35,43.73c-10.63,11.22-11.81,12.41,6.51,23-11.23,20.09-14.18,37.83,6.49,45.52s62,18.89,89.83,9.42C420.81,963.26,426.12,948.51,422,933.13Z"/></g><path class="cls-5" d="M211.64,716.29S238.22,734,252.4,739.91a64.44,64.44,0,0,0-11.81,14.76l11.81-2.36s1.18,7.68,7.69,11.84,21.87,59.67,32.5,84.48,15.35,34.28,2.35,43.73c-10.63,11.22-11.81,12.41,6.51,23-11.23,20.09-14.18,37.83,6.49,45.52s62,18.89,89.83,9.42c23-7.08,28.35-21.83,24.22-37.21s-26.6-25.39-44.33-29.55c-11.81-4.13-9.45-10.62-32.49-19.49-11.82-5.92-21.86-31.93-29-70.31s-4.13-63.23,13.6-78c.59,8.87,3,11.82,3,11.82s7.08-16,17.13-26,11.22-68.55-35.45-89.24S258.9,608.13,250.64,630,211.64,716.29,211.64,716.29Z"/><path class="cls-6" d="M422,933.13c-3.79-14-22.87-23.62-39.67-28.34-44,5.67-46.62,47-45.65,64.64,19.94,4.54,43.31,7,61.1.91C420.81,963.26,426.12,948.51,422,933.13Z"/><path d="M356.64,914.41a22.58,22.58,0,0,1,2.93-.93,39.89,39.89,0,0,1,8.06-1.25,39.28,39.28,0,0,1,11.63,1,32.37,32.37,0,0,1,6.33,2.3,30.76,30.76,0,0,1,5.92,3.75,32.2,32.2,0,0,1,4.87,5c.71.89,1.32,1.88,1.95,2.81s1.07,2,1.57,2.92.87,2,1.25,2.95.61,2,.92,2.88a38,38,0,0,1,1.14,5.38c.12.83.23,1.64.33,2.42s.1,1.48.13,2.18a26.75,26.75,0,0,1,.05,3.53c-.06,2-.15,3-.15,3s-.27-1.07-.66-3c-.16-.95-.46-2.09-.79-3.39s-.71-2.74-1.2-4.31a20.07,20.07,0,0,0-.79-2.38c-.32-.81-.58-1.68-.93-2.52s-.76-1.7-1.14-2.58-.91-1.68-1.36-2.56-1-1.68-1.59-2.53-1.17-1.65-1.81-2.44a27,27,0,0,0-4.37-4.31,25.93,25.93,0,0,0-5.12-3.41,35.59,35.59,0,0,0-5.54-2.36,49.55,49.55,0,0,0-10.69-2.16,65.41,65.41,0,0,0-7.91-.28C357.75,914.31,356.64,914.41,356.64,914.41Z"/><g class="cls-7"><path class="cls-6" d="M366,964.73c-29.07-1.51-20.39-37.23-20.39-37.23l-.14-.26c-8.71,14.42-9.32,32.14-8.78,42.19,19.94,4.54,43.31,7,61.1.91,20.26-6.22,26.81-18.4,25.27-31.71-9.57-.18-18.48-2.48-23.88-6.53C404.25,946.9,395.07,966.28,366,964.73Z"/></g><path class="cls-2" d="M565.47,637.21s-21.42,18.34-20.39,36.73c8.15-8.17,14.26-7.14,14.26-7.14s-19.4,14.28-20.41,33.66c0,0,8.39-6.23,15.93-7.75-6.41,11.7-4.15,40,19.24,54.7-.38-6.4,2.28-10.17,2.28-10.17s1.33,13.72,22.75,25.47c14.3,9.18,13.27,31.12,15.81,74.48,2.06,30.61,7.16,70.93,7.16,70.93s-15.32-3-14.8,2,9.7,10.72.52,18.37A42.23,42.23,0,0,0,593,961.68c.54,12.75,16.86,21.44,43.88,28.58s73,12.75,75-4.58c17.36,5.1,27.57-3.08,26.52-10.22S734.33,926,669,919.35c-13.27-2.56-10.71-7.66-7.14-13.27s3.05-11.22-2.56-16.35-4.58-12.24-2.54-30.58,6.63-74,10.71-76,9.19-2.56,7.66-9.7-10.71-19.9-10.71-19.9,10.19,4.58,14.79-.49c0,0-21.44-7.68-5.63-30.63s41.33-15.29,46.44-28.07-10.22-27-10.22-27,5.62.51,11.73-5.62c-9.18.52-15.5-8.41-4.07-27,17.85-29.09,28.57-44.91,29.09-54.59s5.6-38.79-3.57-52.54C743,527.52,631.78,579,565.47,637.21Z"/><g class="cls-3"><path class="cls-4" d="M743,527.52S631.78,579,565.47,637.21c0,0-21.42,18.34-20.39,36.73,8.15-8.17,14.26-7.14,14.26-7.14s-19.4,14.28-20.41,33.66c0,0,8.39-6.23,15.93-7.75-6.41,11.7-4.15,40,19.24,54.7-.38-6.4,2.28-10.17,2.28-10.17s1.33,13.72,22.75,25.47c14.3,9.18,13.27,31.12,15.81,74.48,2.06,30.61,7.16,70.93,7.16,70.93s-15.32-3-14.8,2,9.7,10.72.52,18.37A42.23,42.23,0,0,0,593,961.68c.54,12.75,16.86,21.44,43.88,28.58s73,12.75,75-4.58c17.36,5.1,27.57-3.08,26.52-10.22-.92-6.58-3.66-43.22-55.56-54-46.15,2-53.25,38.62-61.94,26.46-9.6-13.43,1-29.71,13.41-33.54s1-10.56-5.76-64.24S639.1,761,619,740.87c-23-23-11.5-52.75-11.5-52.75s-12.46,6.73-15.35,17.26c-13.41-24,4.82-47,28.78-53.67s31.62-23,31.62-23,2.89,6.72,22.07,6.72c-18.23-26.85,27.79-62.32,46.95-52.73,15.39,7.68,10.43,25.82,7.85,32.72,10.64-17.27,16.81-28,17.2-35.33C747.08,570.36,752.18,541.27,743,527.52Z"/></g><path class="cls-5" d="M565.47,637.21s-21.42,18.34-20.39,36.73c8.15-8.17,14.26-7.14,14.26-7.14s-19.4,14.28-20.41,33.66c0,0,8.39-6.23,15.93-7.75-6.41,11.7-4.15,40,19.24,54.7-.38-6.4,2.28-10.17,2.28-10.17s1.33,13.72,22.75,25.47c14.3,9.18,13.27,31.12,15.81,74.48,2.06,30.61,7.16,70.93,7.16,70.93s-15.32-3-14.8,2,9.7,10.72.52,18.37A42.23,42.23,0,0,0,593,961.68c.54,12.75,16.86,21.44,43.88,28.58s73,12.75,75-4.58c17.36,5.1,27.57-3.08,26.52-10.22S734.33,926,669,919.35c-13.27-2.56-10.71-7.66-7.14-13.27s3.05-11.22-2.56-16.35-4.58-12.24-2.54-30.58,6.63-74,10.71-76,9.19-2.56,7.66-9.7-10.71-19.9-10.71-19.9,10.19,4.58,14.79-.49c0,0-21.44-7.68-5.63-30.63s41.33-15.29,46.44-28.07-10.22-27-10.22-27,5.62.51,11.73-5.62c-9.18.52-15.5-8.41-4.07-27,17.85-29.09,28.57-44.91,29.09-54.59s5.6-38.79-3.57-52.54C743,527.52,631.78,579,565.47,637.21Z"/><path class="cls-2" d="M138.8,149.74S123.57,165,113.61,162,94.89,146.82,93.72,141c-5.84,9.38-7,18.15-1.75,24-27.51-4.08-41.55,1.79-45.66,17.58,12.87-.58,16.4,1.74,16.4,1.74s-47.41,16.39-51.51,31,7.6,46.24,7.6,46.24,1.17-9.94,11.71-11.11c-10,15.79-12.87,40.38-4.09,56.19C57.44,261,137.62,158.52,138.8,149.74Z"/><g class="cls-3"><path class="cls-4" d="M113.61,162c-9.93-2.94-18.72-15.22-19.89-21.09a43.61,43.61,0,0,0-2.68,5c.77,4.88,3,10.59,8,16.7,14.5,17.63,14.5,15.77-1.26,25.21s-36.57,33.42-41,40.35,13.88-8.2,18.28-10.1-19.52,21.44-30.87,39.1-10.1-2.52-1.28-16.39-28.36,20.81-32.15-16.38c-.12-1.21-.26-2.36-.4-3.47-.74,15.83,8.42,40.58,8.42,40.58s1.17-9.94,11.71-11.11c-10,15.79-12.87,40.38-4.09,56.19,31-45.65,111.2-148.09,112.38-156.87C138.8,149.74,123.57,165,113.61,162Z"/></g><path class="cls-6" d="M663.38,933.55c-30,9.7-28.21,44.49-26.6,56.67,0,0,.08,0,.1,0,27,7.13,73,12.75,75-4.58,17.36,5.1,27.57-3.08,26.52-10.22-.76-5.51-2.8-32-33.76-46.87C693.68,926.69,680.63,928,663.38,933.55Z"/><path d="M663.38,933.55s.29,0,.87-.06a24.26,24.26,0,0,1,2.5,0,34.45,34.45,0,0,1,3.89.32,40,40,0,0,1,5,1,44,44,0,0,1,5.76,1.83c1,.37,2,.89,3,1.34a23.19,23.19,0,0,1,3.06,1.63c1,.63,2,1.25,3.07,1.88s1.94,1.49,2.92,2.29a51.91,51.91,0,0,1,5.44,5.17c1.64,1.91,3.09,4,4.52,6,1.22,2.16,2.4,4.31,3.44,6.39.86,2.18,1.62,4.32,2.37,6.33s1,4,1.39,5.83c.19.91.38,1.78.57,2.6s.17,1.64.24,2.38c.1,1.51.21,2.79.29,3.87.13,2.16.16,3.37.16,3.37s-.36-1.19-1-3.24c-.29-1-.63-2.26-1-3.69-.2-.71-.35-1.46-.62-2.24s-.59-1.58-.9-2.44c-.65-1.66-1.24-3.51-2-5.41s-1.82-3.75-2.74-5.77-2.35-3.79-3.49-5.82c-1.38-1.82-2.75-3.72-4.27-5.47a50.49,50.49,0,0,0-4.94-4.88c-.88-.73-1.77-1.47-2.62-2.2s-1.83-1.27-2.72-1.91a27.5,27.5,0,0,0-2.76-1.72c-.91-.52-1.78-1.09-2.69-1.55-1.85-.83-3.55-1.76-5.22-2.38s-3.21-1.19-4.6-1.66-2.64-.8-3.67-1-1.83-.45-2.4-.57Z"/><path class="cls-2" d="M436.89,61.73s-57.13-10.87-107.47-20.4-62.58-4.09-99.31,20.4S143.05,139.28,70.94,238.58C22,306.61-2.51,332.46.2,380.06S43.74,508,73.66,544.68l-5.44,12.24,13.59-2.41s2.58,21.19,6.2,23.78,3.61-9.81,3.61-9.81,9.8,22.19,15.49,37.17-.52,15.49-29.95,53.2c-25.82,31.5-34.09,38.74-16,33C45.14,710.48,40,727.54,40,727.54l12.4-3.63s-8.79,18.09-6.2,26.86c.51,4.66,12.39-3.1,12.39-3.1S41,786.17,77.07,867.8c11.57,30,8.16,38.1-.69,47s-6.11,12.93,8.17,25.86c-15,16.33-10.89,35.35-6.81,44.19,4.1,7.48,47,21.78,82.33,24.5,31.27,2.72,38.07-2,38.77-8.83,17,1.34,21.75-2.72,21.75-9.54s-10.88-44.21-49-57.82c-25.17-10.19-38.09-22.43-32-28.56s6.8-8.86-2.73-12.24-12.92-8.86-18.36-30.62-15-74.15,20.4-98.63c34-21.78,79.58-34,82.31-49a12.68,12.68,0,0,1,4.09,10.22s19.1-16.29,19.94-39.7l7.53,11.71s11.69-21.74,2.51-36.78c10.86,3.33,11.69,6.69,11.69,6.69s4.19-24.24-5.85-41c43.48,13.38,67.71,19.24,72.72,35.12,3.34,10-15,21.72-13.37,35.95,15-4.19,23.4-9.21,23.4-9.21s-11.7,15.87-6.69,31.78c5.86-9.2,10-10.06,10-10.06s-5.85,22.58,6.69,25.09,45.13,21.75,47.65,39.3,7.51,66.87,10.86,96.11,6.68,33.43,0,41-16.72,12.54-9.21,25.91c7.53,11.7,1.68,12.53-2.5,21.74s-6.69,30.92-1.67,37.62,37.62,20.05,78.57,20.05c36.78-.84,49.31-5,46.81-12.53,15.87-1.67,23.4-10,14.2-25.92S512.76,947,491,941.19c-11.7-4.17-9.19-10-7.51-16.72s-2.51-10-7.52-15-8.36-16.72-15.89-53.5-25.91-107-5.85-129.54c21.74-19.22,25.91-17.58,20.05-29.26s-8.37-15.87-8.37-15.87a25.31,25.31,0,0,0,11.72,5c-7.52-10-9.2-25.07,5-35.11,19.22,3.33,82.42,5.77,104.48-25.77-.8,11-4.72,15.77-4.72,15.77s55.14-16.56,68.55-33.89c4.72,8.66,9.44,11,9.44,11s-3.15-18.92,16.54-27.59,39.4-16.54,41-48.84c7.1,8.67,4.73,14.19,4.73,14.19A47.1,47.1,0,0,1,741.57,534c14.17-8.67,18.11-15,18.11-24.43,9.45-3.93,39.39-39.38,41-69.31,4.72,12.6,4,18.12,4,18.12s17.32-26,12.6-46.49c8.66,12.61,9.45,17.33,9.45,17.33s7.88-33.88-1.58-50.42c8.66-12.6,12.61-40.18,7.1-47.28,8.64,1.59,8.64-41.73-15-80.34-22.85-47.27-39.39-79.58-89-137.07s-78-93.75-126.83-107.93S486,17.25,436.89,61.73Z"/><path class="cls-2" d="M722.69,556a.14.14,0,0,0,0,.08A.25.25,0,0,1,722.69,556Z"/><path class="cls-8" d="M601.33,14.13C552.49-.07,486,25.2,436.89,69.68c0,0-57.13-10.87-107.47-20.4s-62.58-4.09-99.31,20.4c-35.76,23.86-84.47,74.82-153.6,169.24,6.11-6.49,103.37-109.28,148.85-124,46.95-15.18,52.47,29,103.56,92.52S435.16,188.81,496.66,127C557,66.37,655.28,28,773.81,180.72c-11.69-17.28-26.09-36-45.65-58.65C678.53,64.54,650.19,28.32,601.33,14.13Z"/><g class="cls-3"><path class="cls-4" d="M722.69,556a.14.14,0,0,0,0,.08A.25.25,0,0,1,722.69,556Z"/><path class="cls-4" d="M832.17,331.52c8.64,1.59,8.64-41.73-15-80.34-8.39-17.34-15.94-32.67-24.57-48-4.18,30.31-43.28,67.67-77.78,71.29,52.67,36.54,86,3.24,95.66,35.48s-1.07,64.48-14,64.48c15.06,30.09,8.61,44.06,8.61,44.06s-2.15-9.67-14-22.56c6.44,61.26-30.09,90.26-30.09,90.26S760,471.17,754.62,469c-1.06,32.24-33.31,53.74-33.31,53.74s-1.08-5.38-8.59-17.21C707.33,550.7,600.93,598,600.93,598s10.75-14,4.31-22.56c-45.13,48.35-88.13,36.54-93.5,8.58s-30.09-39.76-30.09-39.76c16.12,39.76,10.74,48.38-12.9,86-53.74,87.07-106.4,44.09-158-35.46s18.29-139.71,18.29-139.71-7.52-4.3-21.5,5.38c8.59-18.28,37.6-45.14,37.6-45.14s-43,16.12-80.59,59.09-64.48,96.73-130-5.36c-73.08-129,32.24-185.93,32.24-185.93s-8.6-6.44-23.63-1.08c9.66-12.88,32.22-18.27,32.22-18.27-34.38-4.28-60.17,19.35-60.17,19.35l10.74,3.22C100.12,292.77,75.41,339,75.41,339l11.82-3.24c-9.66,10.76-16.11,39.78-16.11,39.78L82.93,368s-23.64,23.63,11.84,98.87-14,69.85-61.26-36.55C6.9,370.52,20.08,319.18,36.7,285.71,10.75,322.14-1.78,345.32.2,380.06,2.93,427.68,43.74,508,73.66,544.68l-5.44,12.24,13.59-2.41s2.58,21.19,6.2,23.78,3.61-9.81,3.61-9.81,9.8,22.19,15.49,37.17-.52,15.49-29.95,53.2c-25.82,31.5-34.09,38.74-16,33C45.14,710.48,40,727.54,40,727.54l12.4-3.63s-8.79,18.09-6.2,26.86c.51,4.66,12.39-3.1,12.39-3.1S41,786.17,77.07,867.8c11.57,30,8.16,38.1-.69,47s-6.11,12.93,8.17,25.86c-15,16.33-10.89,35.35-6.81,44.19,4.1,7.48,47,21.78,82.33,24.5,31.27,2.72,38.07-2,38.77-8.83,17,1.34,21.75-2.72,21.75-9.54s-10.88-44.21-49-57.82c-25.17-10.19-38.09-22.43-32-28.56s6.8-8.86-2.73-12.24-12.92-8.86-18.36-30.62-15-74.15,20.4-98.63c34-21.78,79.58-34,82.31-49a12.68,12.68,0,0,1,4.09,10.22s19.1-16.29,19.94-39.7l7.53,11.71s11.69-21.74,2.51-36.78c10.86,3.33,11.69,6.69,11.69,6.69s4.19-24.24-5.85-41c43.48,13.38,67.71,19.24,72.72,35.12,3.34,10-15,21.72-13.37,35.95,15-4.19,23.4-9.21,23.4-9.21s-11.7,15.87-6.69,31.78c5.86-9.2,10-10.06,10-10.06s-5.85,22.58,6.69,25.09,45.13,21.75,47.65,39.3,7.51,66.87,10.86,96.11,6.68,33.43,0,41-16.72,12.54-9.21,25.91c7.53,11.7,1.68,12.53-2.5,21.74s-6.69,30.92-1.67,37.62,37.62,20.05,78.57,20.05c36.78-.84,49.31-5,46.81-12.53,15.87-1.67,23.4-10,14.2-25.92S512.76,947,491,941.19c-11.7-4.17-9.19-10-7.51-16.72s-2.51-10-7.52-15-8.36-16.72-15.89-53.5-25.91-107-5.85-129.54c21.74-19.22,25.91-17.58,20.05-29.26s-8.37-15.87-8.37-15.87a25.31,25.31,0,0,0,11.72,5c-7.52-10-9.2-25.07,5-35.11,19.22,3.33,82.42,5.77,104.48-25.77-.8,11-4.72,15.77-4.72,15.77s55.14-16.56,68.55-33.89c4.72,8.66,9.44,11,9.44,11s-3.15-18.92,16.54-27.59,39.4-16.54,41-48.84c6.58,8,5,13.38,4.77,14.11a46.88,46.88,0,0,1,18.88-22c14.17-8.67,18.11-15,18.11-24.43,9.45-3.93,39.39-39.38,41-69.31,4.72,12.6,4,18.12,4,18.12s17.32-26,12.6-46.49c8.66,12.61,9.45,17.33,9.45,17.33s7.88-33.88-1.58-50.42C833.73,366.2,837.68,338.62,832.17,331.52Z"/></g><path class="cls-9" d="M543.69,153.55S556,66.5,664.11,6.63C708.3-9,790.63-5.61,832.11,114.79c17,80.27-5.44,190.45-104.75,161.88,32.65-3.4,94.54-60.54,59.19-133.32C753.2,76,670.22,87.58,636.88,135.2c-12.92,22.43-17.34,46.41-17.34,46.41Z"/><g class="cls-10"><path class="cls-9" d="M795.38,238.58c36.06-50.34,15-120.74-27.9-153.37-49.17-37.47-109.84-22.46-145.9,29.58-30.09,43.42-67,34.69-54.74-.68,18.34-52.38,80.25-97.28,80.25-97.28v0c-92.43,59.06-103.4,136.77-103.4,136.77l75.85,28.06s4.42-24,17.34-46.41C670.22,87.58,753.2,76,786.55,143.35,821.9,216.13,760,273.27,727.36,276.67c2.25.64,4.43,1.2,6.6,1.7C764.37,273.87,776.77,259.05,795.38,238.58Z"/></g><path class="cls-11" d="M622.16,56.62S724.5-39.53,795.94,72.72c27.54,47.94,10.72-34.47-46.25-57.93C663-20.93,597.64,69.2,622.16,56.62Z"/><g class="cls-7"><path class="cls-12" d="M551.09,127.07a29.34,29.34,0,0,1,3.53-.94c1.15-.23,2.56-.51,4.16-.69.82-.1,1.67-.2,2.6-.34s1.85-.1,2.86-.16c2-.14,4.18,0,6.48,0a67.78,67.78,0,0,1,7.22.8c1.23.22,2.5.43,3.79.67l3.81,1a74.29,74.29,0,0,1,7.6,2.52c2.52,1,4.88,2.3,7.3,3.37,2.28,1.31,4.48,2.74,6.64,4,2,1.47,3.93,3,5.75,4.38s3.32,3,4.83,4.37a37,37,0,0,1,3.8,3.89c1.07,1.23,2,2.32,2.74,3.21,1.49,1.78,2.32,2.82,2.32,2.82s-.95-.94-2.62-2.56l-3-2.94c-1.09-1.17-2.56-2.28-4-3.57s-3.07-2.76-5-4-3.81-2.65-5.83-4.06L599.5,135c-2.33-1-4.68-2.28-7.1-3.21a68.72,68.72,0,0,0-7.39-2.54c-1.25-.36-2.48-.7-3.69-1s-2.48-.52-3.67-.74c-.62-.14-1.21-.26-1.81-.37s-1.19-.18-1.76-.24l-3.46-.48c-2.26-.1-4.4-.38-6.36-.34s-3.79,0-5.4.08-3,.24-4.16.34C552.4,126.79,551.09,127.07,551.09,127.07Z"/><path class="cls-12" d="M573.72,86.42s1.37-.17,3.81-.29,5.89-.2,10,.05a111.79,111.79,0,0,1,14.17,1.71c2.56.52,5.19,1.1,7.83,1.88a78,78,0,0,1,7.88,2.7c1.31.5,2.58,1.12,3.85,1.67s2.51,1.22,3.7,1.91a53.34,53.34,0,0,1,6.81,4.4,30.21,30.21,0,0,1,3,2.44,36.5,36.5,0,0,1,2.7,2.55,31.4,31.4,0,0,1,2.36,2.59,25.88,25.88,0,0,1,2,2.55,43.93,43.93,0,0,1,3.1,4.8c.79,1.5,1.43,2.85,2,3.93.86,2.26,1.35,3.57,1.35,3.57s-.61-1.25-1.71-3.41c-.61-1-1.34-2.29-2.24-3.7s-2-2.92-3.37-4.47a21.13,21.13,0,0,0-2.12-2.39,28.91,28.91,0,0,0-2.42-2.4,28.19,28.19,0,0,0-2.72-2.33c-.49-.39-1-.79-1.47-1.17s-1-.73-1.52-1.12a69.83,69.83,0,0,0-6.69-4.12c-1.17-.65-2.42-1.2-3.63-1.82s-2.48-1.11-3.75-1.6c-2.52-1-5.09-1.94-7.67-2.7s-5.14-1.43-7.66-2-4.94-1-7.28-1.42-4.54-.66-6.58-.9A129.41,129.41,0,0,0,573.72,86.42Z"/><path class="cls-12" d="M579.15,78.88a38.61,38.61,0,0,1,3.87-.46,80.08,80.08,0,0,1,10.26-.18c2.12.08,4.42.27,6.82.53s5,.64,7.6,1.22a79.32,79.32,0,0,1,15.92,5,75,75,0,0,1,7.58,3.88A70.78,70.78,0,0,1,638,93.55a64.84,64.84,0,0,1,5.77,5.1l2.46,2.6c.73.86,1.43,1.72,2.12,2.54a51.77,51.77,0,0,1,3.41,4.7c.89,1.47,1.73,2.73,2.32,3.82l1.79,3.44-2.14-3.23c-.66-1-1.59-2.21-2.58-3.58s-2.28-2.85-3.65-4.42l-2.24-2.38-2.52-2.42C641,98.14,639,96.54,636.91,95c-1-.77-2.14-1.48-3.25-2.25s-2.3-1.4-3.45-2.12a73.34,73.34,0,0,0-7.42-3.71,76.55,76.55,0,0,0-7.73-3c-2.62-.81-5.2-1.59-7.76-2.16a104.58,104.58,0,0,0-14.1-2.36c-4.19-.4-7.7-.56-10.18-.56S579.15,78.88,579.15,78.88Z"/><path class="cls-12" d="M613,42.59a36.65,36.65,0,0,1,4,.4,67.45,67.45,0,0,1,10.41,2.37,72.18,72.18,0,0,1,13.91,6A67.8,67.8,0,0,1,648.5,56c1.21.85,2.3,1.83,3.47,2.75s2.24,1.94,3.27,3,2.11,2.13,3.06,3.28l1.43,1.69,1.33,1.75a61.22,61.22,0,0,1,4.74,7.17,56.45,56.45,0,0,1,3.47,7.22c1,2.33,1.7,4.64,2.4,6.73s1.15,4.08,1.45,5.87.67,3.28.81,4.56c.3,2.55.49,4,.49,4s-.33-1.42-.89-3.93c-.24-1.27-.69-2.75-1.17-4.47S671.21,92,670.58,90c-.8-2-1.57-4.29-2.68-6.53-.52-1.12-1-2.3-1.71-3.43s-1.19-2.35-1.92-3.48a61.63,61.63,0,0,0-4.72-6.9l-1.33-1.69-1.41-1.6c-.93-1.09-2-2.1-3-3.12s-2.09-2-3.14-3-2.18-1.85-3.33-2.69a71.84,71.84,0,0,0-6.9-4.69,83.11,83.11,0,0,0-23.53-9.46C614.44,42.79,613,42.59,613,42.59Z"/><path class="cls-12" d="M673.19,4a40,40,0,0,1,4.43,1.86,69.37,69.37,0,0,1,10.83,6.52c2.12,1.55,4.3,3.37,6.56,5.38a68.83,68.83,0,0,1,6.58,6.8A81.34,81.34,0,0,1,712.85,41.8c.76,1.57,1.38,3.23,2.1,4.82s1.2,3.28,1.78,4.91,1,3.29,1.44,4.94.84,3.26,1.18,4.87.59,3.19.88,4.75.36,3.09.54,4.6.23,3,.34,4.36.19,2.76.19,4.08c.06,2.62.06,5-.09,7.14s-.19,4-.37,5.48c-.34,3-.53,4.76-.53,4.76s0-1.75.12-4.78c.09-1.51.05-3.36,0-5.47s-.16-4.48-.3-7.08c0-1.3-.18-2.65-.34-4s-.25-2.83-.5-4.29-.47-3-.72-4.51-.65-3.07-1-4.66-.8-3.15-1.19-4.76-1-3.18-1.5-4.8-1.19-3.17-1.8-4.77-1.35-3.16-2.12-4.7a81.33,81.33,0,0,0-10.75-17c-2-2.48-4.17-4.76-6.25-6.86s-4.2-3.93-6.25-5.53a80.27,80.27,0,0,0-10.31-7.09C674.8,4.67,673.19,4,673.19,4Z"/><path class="cls-12" d="M693.11.81A44.18,44.18,0,0,1,697,3.43a82.71,82.71,0,0,1,9.44,8.05,90.71,90.71,0,0,1,11.2,13.59,85.89,85.89,0,0,1,5,8.61c.79,1.51,1.47,3.09,2.21,4.64s1.35,3.17,1.9,4.82,1.1,3.26,1.55,4.94.88,3.31,1.23,5a75.42,75.42,0,0,1,1.49,9.86,65.48,65.48,0,0,1,.28,9.31c0,3-.36,5.75-.58,8.3-.38,2.56-.65,4.9-1.17,6.93s-.76,3.84-1.2,5.26c-.82,2.89-1.3,4.52-1.3,4.52s.32-1.66.9-4.6c.35-1.45.54-3.27.86-5.3s.46-4.39.76-6.91c.13-2.54.35-5.31.25-8.21,0-1.44,0-2.95-.17-4.47s-.14-3.08-.38-4.65a76.89,76.89,0,0,0-1.6-9.62c-.35-1.63-.77-3.25-1.28-4.86s-1-3.21-1.56-4.79-1.2-3.15-1.8-4.73S721.75,36,721,34.55A87.84,87.84,0,0,0,716.2,26c-1.73-2.64-3.46-5.19-5.26-7.47s-3.57-4.41-5.28-6.28a99.92,99.92,0,0,0-8.86-8.55C694.52,1.81,693.11.81,693.11.81Z"/><path class="cls-12" d="M767,19.89a36.62,36.62,0,0,1,2.17,3.54c.61,1.14,1.35,2.58,2.13,4.24a56.46,56.46,0,0,1,2.31,5.74c.82,2.11,1.4,4.49,2.13,7,.34,1.26.56,2.59.85,3.91a34.53,34.53,0,0,1,.67,4.13c.15,1.42.32,2.85.48,4.31s.1,3,.17,4.43a71.9,71.9,0,0,1-.33,9,32.26,32.26,0,0,1-.67,4.51l-.81,4.45c-.68,2.89-1.64,5.69-2.41,8.42-.93,2.69-2.11,5.17-3.12,7.56a24.19,24.19,0,0,1-1.68,3.38c-.6,1.06-1.19,2.09-1.73,3.08a41.41,41.41,0,0,1-3.25,5.26l-2.77,3.82c-1.57,2.11-2.46,3.33-2.46,3.33s.76-1.3,2.13-3.54c.67-1.11,1.52-2.46,2.48-4a54.06,54.06,0,0,0,2.84-5.39c.5-1,1-2,1.56-3.11a23,23,0,0,0,1.53-3.41c.87-2.39,1.89-4.89,2.81-7.51.7-2.68,1.58-5.44,2.21-8.27.24-1.44.49-2.89.72-4.35a28.21,28.21,0,0,0,.59-4.4,68.66,68.66,0,0,0,.43-8.81c0-1.45,0-2.91-.07-4.33s-.27-2.84-.41-4.21a40.7,40.7,0,0,0-.55-4.07c-.23-1.32-.39-2.63-.65-3.85-.61-2.49-1.07-4.88-1.78-7s-1.32-4.06-1.92-5.8-1.25-3.16-1.8-4.35-1-2.12-1.3-2.74Z"/><path class="cls-12" d="M814.41,74.32s.12,1.14.11,3.13a73.76,73.76,0,0,1-.44,8.27c-.22,1.71-.42,3.56-.8,5.5a56.34,56.34,0,0,1-1.26,6c-.48,2.12-1.19,4.23-1.84,6.39-.83,2.11-1.54,4.29-2.52,6.39a60.72,60.72,0,0,1-3.13,6.12c-.59,1-1.14,1.94-1.72,2.9s-1.28,1.81-1.89,2.68-1.28,1.73-1.88,2.58-1.4,1.53-2,2.26a34.74,34.74,0,0,1-3.94,3.93c-1.29,1.15-2.48,2.18-3.56,3s-2.18,1.43-3,2c-1.69,1.07-2.65,1.66-2.65,1.66l2.41-2L789,133c1-1,2.06-2.09,3.26-3.28a34.35,34.35,0,0,0,3.58-4.1c.61-.74,1.26-1.49,1.87-2.3s1.14-1.71,1.72-2.56,1.23-1.75,1.76-2.67l1.6-2.88a59.6,59.6,0,0,0,3-6c1-2,1.68-4.16,2.51-6.2.65-2.12,1.45-4.16,2-6.2s1.14-4,1.55-5.89.78-3.69,1.09-5.37c.58-3.34,1-6.13,1.2-8.13S814.41,74.32,814.41,74.32Z"/><path class="cls-12" d="M835.18,129.41a19.72,19.72,0,0,1-1.47,1.64,44.74,44.74,0,0,1-4.3,3.89c-.93.73-2,1.49-3.14,2.28s-2.36,1.57-3.68,2.26-2.69,1.49-4.13,2.14-2.94,1.25-4.41,1.89-3,1-4.55,1.51-3,.77-4.49,1.15-2.92.51-4.27.73a34.91,34.91,0,0,1-3.86.42,27.62,27.62,0,0,1-3.25.18c-1,0-1.83,0-2.52,0-1.39,0-2.2,0-2.2,0s.79-.16,2.16-.34l2.49-.36c1-.12,2-.39,3.17-.57s2.43-.42,3.73-.76l4.14-1c1.38-.41,2.84-.83,4.32-1.29s3-1,4.41-1.55,2.94-1.09,4.31-1.74,2.8-1.25,4.08-1.94a78.9,78.9,0,0,0,7-3.93A57.88,57.88,0,0,0,835.18,129.41Z"/><path class="cls-12" d="M792,156.26s.73.1,2,.2,3.12.18,5.31.18c1.1,0,2.28,0,3.54-.06s2.57-.2,3.92-.26,2.73-.31,4.14-.53,2.85-.46,4.25-.84l2.11-.49,2.06-.62a38.66,38.66,0,0,0,3.93-1.38c1.29-.44,2.46-1,3.59-1.55l1.65-.76,1.48-.87c.94-.55,1.85-1,2.59-1.47s1.39-.93,1.93-1.31c1.06-.71,1.69-1.11,1.69-1.11s-.51.52-1.44,1.43L833,148.43c-.68.59-1.52,1.17-2.41,1.84-.46.36-.93.7-1.42,1l-1.62.94a29.67,29.67,0,0,1-3.6,1.86,26.23,26.23,0,0,1-4.05,1.59c-.7.24-1.42.45-2.11.69l-2.2.54a37,37,0,0,1-4.41.77c-1.46.26-2.92.28-4.31.4s-2.75.08-4,0-2.5-.14-3.6-.28a41.62,41.62,0,0,1-5.31-1A14.8,14.8,0,0,1,792,156.26Z"/><path class="cls-12" d="M797.42,181.77l6.14.1c1.84,0,4,0,6.25.08s4.72,0,7.15-.1,4.84-.24,7.11-.38l3.26-.33c1-.14,2-.28,2.9-.42s1.71-.32,2.45-.46a15.21,15.21,0,0,0,1.87-.45c1-.26,1.64-.4,1.64-.4s-.53.3-1.49.78a32.87,32.87,0,0,1-4.2,1.68c-.9.24-1.86.52-2.92.77s-2.15.42-3.3.62-2.34.32-3.56.42-2.46.17-3.7.19c-2.49.06-5,0-7.26-.13s-4.47-.42-6.3-.7-3.33-.61-4.39-.83A17.07,17.07,0,0,1,797.42,181.77Z"/><path class="cls-12" d="M794,212s.58.16,1.6.38,2.48.53,4.23.89,3.79.69,6,1c1.09.18,2.23.26,3.38.44s2.32.24,3.49.32,2.34.17,3.49.15,2.29.08,3.39,0,2.17,0,3.16-.15,2-.12,2.84-.28,1.68-.24,2.4-.34l1.83-.38c1-.23,1.63-.31,1.63-.31l-1.5.69c-.5.2-1.08.48-1.77.74s-1.49.49-2.36.75a19.85,19.85,0,0,1-2.88.63,23.4,23.4,0,0,1-3.24.46,33.66,33.66,0,0,1-3.51.18c-1.2,0-2.42-.08-3.63-.12a56.63,56.63,0,0,1-7-1,49.27,49.27,0,0,1-6-1.67A37.77,37.77,0,0,1,794,212Z"/><path class="cls-12" d="M780.75,240.62a9.91,9.91,0,0,1,1.55-.39,25.66,25.66,0,0,1,4.21-.5,30.85,30.85,0,0,1,6,.38,32.15,32.15,0,0,1,3.32.75c.56.16,1.13.34,1.68.52l1.67.63c1.1.42,2.13,1,3.17,1.55a31.64,31.64,0,0,1,2.88,1.86,28.06,28.06,0,0,1,2.44,2.05,15.21,15.21,0,0,1,2,2,13.78,13.78,0,0,1,1.51,1.84c.39.6.74,1.1,1,1.53.58.84.87,1.35.87,1.35s-.44-.39-1.17-1.09c-.35-.36-.79-.79-1.28-1.27s-1.14-1-1.77-1.53a25,25,0,0,0-2.14-1.7c-.81-.54-1.58-1.21-2.49-1.73s-1.81-1.15-2.8-1.6a28.66,28.66,0,0,0-3-1.41l-1.54-.64-1.58-.51a31.84,31.84,0,0,0-3.12-.88,48.81,48.81,0,0,0-5.69-1c-1.7-.16-3.13-.26-4.12-.26S780.75,240.62,780.75,240.62Z"/><path class="cls-12" d="M768.5,254.23a28.08,28.08,0,0,1,4.47,1.45,38.66,38.66,0,0,1,4.31,2,44.76,44.76,0,0,1,4.68,2.94,37.27,37.27,0,0,1,4.2,3.63,25.12,25.12,0,0,1,3.06,3.75c.38.61.71,1.15,1,1.65a8.45,8.45,0,0,1,.61,1.37l.49,1.19s-.29-.37-.82-1c-.28-.31-.53-.7-.92-1.11l-1.26-1.4c-.49-.48-1-1-1.56-1.53s-1.21-1.05-1.82-1.62-1.35-1.07-2-1.67l-2.15-1.63c-2.92-2.16-6-4.1-8.33-5.61Z"/><path class="cls-12" d="M762.38,259.67a22.8,22.8,0,0,1,3.87,1.44,31.82,31.82,0,0,1,3.71,2,36.87,36.87,0,0,1,4,2.79,33.4,33.4,0,0,1,3.51,3.4,24.08,24.08,0,0,1,2.49,3.48c.29.56.54,1.09.74,1.54a7.46,7.46,0,0,1,.43,1.25c.23.71.33,1.09.33,1.09l-.68-.92c-.21-.28-.43-.64-.76-1s-.65-.8-1-1.29a18,18,0,0,1-1.3-1.4c-.49-.46-1-1-1.53-1.49-1.1-1-2.26-2.09-3.52-3.08s-2.47-2-3.67-2.89l-3.3-2.48C763.68,260.66,762.38,259.67,762.38,259.67Z"/></g><path class="cls-11" d="M616.88,63.69c1.29,1.46,0,4.69-2.78,7.19s-6.16,3.34-7.47,1.87-.06-4.68,2.77-7.18S615.57,62.22,616.88,63.69Z"/><path class="cls-9" d="M508.33,158.33s.68-123.8-83-131.3c-74.13-2.71-131.28,79.6-91.83,155.1,27.9,36.73,53.07,56.45,50.35,75.51S356.64,282.79,337.59,278c-5.45-.66,17.68,19.07,53.07,8.18s34-64.62,23.8-88.42-26.54-76.86-6.13-85.72c10.88-4.08,33.33,33.33,34.69,58.51C473,162.39,508.33,158.33,508.33,158.33Z"/><g class="cls-10"><path class="cls-9" d="M453.74,35.27c18,23.57,55.18,79.61,28.05,98.92-27,13.21-21.42-19.4-54.36-44.57-24.9-19-89.58,5.6-50.2,95.07,29.68,55.28,24,109.58-34.72,98.41,8.49,4.68,25.88,9.95,48.15,3.1,35.36-10.89,34-64.62,23.8-88.42s-26.54-76.86-6.13-85.72c10.88-4.08,33.33,33.33,34.69,58.51,29.93-8.18,65.31-12.24,65.31-12.24S508.84,64.48,453.74,35.27Z"/></g><path class="cls-11" d="M425.29,38.54s-90.4-2.1-91.81,105.11c.7,18.23-21.72-33.62,16.81-81.28S443.51,32.93,425.29,38.54Z"/><g class="cls-7"><path class="cls-12" d="M436.85,146.86a21.55,21.55,0,0,1,1-3.27,36.92,36.92,0,0,1,1.65-3.57c.37-.66.74-1.41,1.17-2.14s1-1.45,1.5-2.25,1.2-1.5,1.82-2.32a22.5,22.5,0,0,1,2.1-2.34l2.38-2.36c.87-.71,1.79-1.42,2.73-2.12.49-.38.95-.75,1.44-1.09s1.05-.62,1.56-.93c1.06-.62,2.11-1.27,3.2-1.87l3.45-1.49,1.74-.75c.59-.22,1.21-.36,1.81-.55a45.69,45.69,0,0,1,7.3-1.78,44.1,44.1,0,0,1,7.2-.81,67.5,67.5,0,0,1,6.77-.11l6,.48a31,31,0,0,1,5.06.71l3.83.75,3.36.68-3.41-.28-3.9-.4a48.58,48.58,0,0,0-5-.32l-6-.15c-2.11,0-4.32.33-6.62.41a52.23,52.23,0,0,0-7,1,49.54,49.54,0,0,0-7,1.77c-.58.18-1.17.34-1.74.54l-1.66.71c-1.14.46-2.23.93-3.33,1.39s-2.1,1.15-3.1,1.72l-1.53.86c-.49.29-.93.65-1.41,1-.92.67-1.83,1.33-2.72,1.94-.81.76-1.62,1.45-2.41,2.16a20.66,20.66,0,0,0-2.14,2.15,28.33,28.33,0,0,0-1.9,2.14,48.72,48.72,0,0,0-2.92,4.07,32.36,32.36,0,0,0-1.95,3.37c-.46,1-.86,1.72-1.06,2.26A7.46,7.46,0,0,0,436.85,146.86Z"/><path class="cls-12" d="M431.43,134s.21-1.35.83-3.65a63,63,0,0,1,3.37-9.28c.85-1.87,1.9-3.82,3.07-5.89a54.63,54.63,0,0,1,4.18-6.13,48.67,48.67,0,0,1,11.89-11,46.33,46.33,0,0,1,7.34-3.78,29.85,29.85,0,0,1,3.81-1.36c1.26-.43,2.56-.68,3.82-1a43.66,43.66,0,0,1,7.4-1,30.54,30.54,0,0,1,3.43-.08c1.11,0,2.17,0,3.2.1a48.37,48.37,0,0,1,5.57.63c1.63.28,3.05.49,4.2.8l3.63.91-3.69-.52c-1.16-.21-2.6-.29-4.25-.44s-3.48-.15-5.5-.23a30.4,30.4,0,0,0-3.14.07,26.07,26.07,0,0,0-3.35.25,57.1,57.1,0,0,0-7.09,1.2,48.15,48.15,0,0,0-7.28,2.42,42.08,42.08,0,0,0-7,3.69c-9,5.76-15.53,14.65-19.21,21.77a75,75,0,0,0-4,8.93C431.82,132.68,431.43,134,431.43,134Z"/><path class="cls-12" d="M428.05,127.88a35.3,35.3,0,0,1,.92-3.71,64.77,64.77,0,0,1,3.62-9.42c.9-1.9,2-3.9,3.2-6a57.71,57.71,0,0,1,4.35-6.23,49.16,49.16,0,0,1,5.58-5.93,47.7,47.7,0,0,1,6.74-5.07,44,44,0,0,1,7.62-3.65l1.95-.69c.68-.19,1.34-.36,2-.52a34.55,34.55,0,0,1,3.94-.83,42.48,42.48,0,0,1,7.59-.53h1.79l1.72.14c1.13.11,2.23.13,3.27.32a46.93,46.93,0,0,1,5.6,1.08c1.65.41,3.09.73,4.23,1.14,2.32.79,3.64,1.22,3.64,1.22l-3.72-.83c-1.17-.31-2.63-.51-4.28-.79s-3.55-.43-5.6-.67c-1-.15-2.09-.11-3.22-.17l-1.67-.05-1.75.09a32,32,0,0,0-3.58.27,37.39,37.39,0,0,0-3.71.56,28,28,0,0,0-3.76.87l-1.91.55-1.86.68a42.89,42.89,0,0,0-7.24,3.54A44.33,44.33,0,0,0,447,98.11a50.09,50.09,0,0,0-5.51,5.6,66,66,0,0,0-7.92,11.56,86.32,86.32,0,0,0-4.26,9C428.45,126.55,428.05,127.88,428.05,127.88Z"/><path class="cls-12" d="M408.33,112.06s-.24-.36-.65-1.07a30.84,30.84,0,0,1-1.56-3.27c-.27-.74-.56-1.54-.87-2.43s-.55-1.87-.81-2.93-.46-2.2-.61-3.42a38.08,38.08,0,0,1,.55-12.48,39.24,39.24,0,0,1,3.05-9.22,49.4,49.4,0,0,1,2.38-4.55l2.84-4.42c1.11-1.37,2.21-2.77,3.33-4.16a45.26,45.26,0,0,1,3.66-3.92l1.88-1.92a24.05,24.05,0,0,1,2.09-1.74c1.39-1.09,2.72-2.2,4.22-3.18s2.9-2,4.43-2.85l2.22-1.3c.76-.4,1.52-.76,2.28-1.12a45.38,45.38,0,0,1,9.09-3.38,39.19,39.19,0,0,1,8.61-1.19,30.44,30.44,0,0,1,7.29.64,27.6,27.6,0,0,1,5.35,1.73,10.5,10.5,0,0,1,1.87.93,11.76,11.76,0,0,1,1.32.79l1,.73s-.38-.23-1.09-.63A21.3,21.3,0,0,0,467,46.25a25.85,25.85,0,0,0-5.34-1.35,35.36,35.36,0,0,0-7.11-.24,38.37,38.37,0,0,0-8.27,1.47,54.4,54.4,0,0,0-8.7,3.53c-.73.37-1.46.72-2.18,1.12s-1.44.86-2.17,1.29c-1.45.83-2.81,1.84-4.21,2.82s-2.77,2.08-4.14,3.18a21.12,21.12,0,0,0-1.94,1.67l-1.83,1.86c-1.2,1.29-2.54,2.41-3.6,3.78s-2.2,2.69-3.27,4-1.9,2.82-2.83,4.23S409.81,76.56,409,78a45.57,45.57,0,0,0-3.2,8.79,37.44,37.44,0,0,0-1.11,8.31,43.31,43.31,0,0,0,.48,7.13c.17,1,.4,2,.6,2.93s.49,1.7.7,2.45c.5,1.44.94,2.58,1.28,3.34S408.33,112.06,408.33,112.06Z"/><path class="cls-12" d="M398.64,129.58s-.51-.11-1.45-.37a38.27,38.27,0,0,1-4-1.35,49,49,0,0,1-5.88-3,39.28,39.28,0,0,1-6.83-5.09l-1.75-1.63c-.59-.59-1.11-1.25-1.67-1.9s-1.15-1.25-1.68-2-1-1.47-1.5-2.2a33.91,33.91,0,0,1-2.82-4.81,35.44,35.44,0,0,1-2.21-5.36,52.3,52.3,0,0,1-2.51-11.86c-.09-1-.31-2.06-.31-3.1l0-3.12,0-3.13a25.73,25.73,0,0,1,.26-3.16,52.42,52.42,0,0,1,.86-6.16,61.69,61.69,0,0,1,1.37-6.12,56.58,56.58,0,0,1,1.91-5.82c.37-.93.73-1.87,1.1-2.81s.87-1.78,1.3-2.66a50,50,0,0,1,6.11-9.53c1.17-1.38,2.36-2.68,3.54-3.89s2.38-2.34,3.65-3.26a33.82,33.82,0,0,1,3.64-2.65,32.72,32.72,0,0,1,3.48-2.07,40.51,40.51,0,0,1,6-2.64,18.89,18.89,0,0,1,2.3-.71,12,12,0,0,1,1.75-.42l1.47-.26-1.44.36a37.71,37.71,0,0,0-4,1.4,40.32,40.32,0,0,0-5.77,2.93,31.66,31.66,0,0,0-3.3,2.21,41,41,0,0,0-3.44,2.73c-1.23.94-2.26,2.17-3.46,3.29s-2.22,2.52-3.31,3.9a57.16,57.16,0,0,0-5.7,9.39c-.39.84-.84,1.71-1.23,2.6l-1,2.74a49.37,49.37,0,0,0-1.77,5.68,49.45,49.45,0,0,0-1.28,5.89c-.44,2-.55,4-.8,6.1a25.26,25.26,0,0,0-.27,3V86.9c0,1,.19,2,.25,3a51.23,51.23,0,0,0,2.3,11.49,42,42,0,0,0,2,5.2,32.87,32.87,0,0,0,2.55,4.73l1.38,2.17c.5.7,1.05,1.32,1.57,2s1,1.27,1.53,1.88l1.66,1.63a44.75,44.75,0,0,0,6.47,5.28,49.17,49.17,0,0,0,5.62,3.25c1.64.74,2.95,1.29,3.86,1.63S398.64,129.58,398.64,129.58Z"/><path class="cls-12" d="M367,44.39a24.37,24.37,0,0,0-3,4.12,39.83,39.83,0,0,0-2.74,5.16c-.47,1-.84,2.18-1.33,3.35s-.78,2.46-1.2,3.79-.68,2.75-1,4.22-.52,3-.7,4.57-.32,3.19-.39,4.87-.06,3.36-.08,5.08.15,3.5.23,5.28.39,3.57.61,5.38.63,3.6.92,5.42l.51,2.66.73,2.71a41.57,41.57,0,0,0,1.74,5.19c.63,1.68,1.51,3.3,2.27,4.93a62.89,62.89,0,0,0,5.89,8.84c.54.68,1.07,1.33,1.62,2s1.13,1.27,1.69,1.88c1.09,1.27,2.26,2.4,3.4,3.51a72.13,72.13,0,0,0,6.86,5.78c1.09.81,2.23,1.52,3.27,2.26s2.12,1.27,3.09,1.84,1.94,1,2.82,1.43,1.74.71,2.48,1a22,22,0,0,0,3.65,1l1.33.16-1.35-.06a17.29,17.29,0,0,1-3.75-.69c-.77-.26-1.64-.52-2.57-.87s-1.91-.8-3-1.27-2.1-1.1-3.25-1.69-2.25-1.37-3.42-2.16a68.82,68.82,0,0,1-7.21-5.62c-1.19-1.09-2.45-2.2-3.6-3.45-.6-.61-1.2-1.23-1.79-1.88s-1.12-1.35-1.69-2a63.72,63.72,0,0,1-6.17-9c-.83-1.68-1.74-3.32-2.45-5.11a44.35,44.35,0,0,1-1.88-5.4l-.68-2.71L356.38,96c-.29-1.85-.72-3.67-.87-5.53s-.37-3.67-.56-5.49-.13-3.62-.19-5.39.12-3.53.21-5.21.39-3.36.58-5,.6-3.15.9-4.65.78-2.9,1.15-4.27.91-2.63,1.4-3.82,1-2.31,1.55-3.31a42.47,42.47,0,0,1,3.08-5.07,26.53,26.53,0,0,1,2.42-3A10,10,0,0,1,367,44.39Z"/><path class="cls-12" d="M343.55,65.81s-.38,1.73-.81,4.79a102,102,0,0,0-.85,12.67A77.94,77.94,0,0,0,343.81,101c.29,1.61.83,3.19,1.25,4.8s1,3.21,1.74,4.76a52.84,52.84,0,0,0,4.83,9.09c1,1.37,1.92,2.87,3.09,4.14l1.66,1.95,1.82,1.82a49.51,49.51,0,0,0,7.77,6.25,65.92,65.92,0,0,0,8.23,4.52,38.23,38.23,0,0,0,4,1.69c1.31.51,2.59,1,3.85,1.39,2.5.75,4.8,1.48,6.89,1.92s3.89,1,5.44,1.19l4.76.87-4.84-.47a54.48,54.48,0,0,1-5.52-.84c-1.05-.19-2.2-.31-3.37-.63l-3.7-.95c-1.29-.3-2.6-.78-4-1.25a43.46,43.46,0,0,1-4.16-1.55,55.9,55.9,0,0,1-8.59-4.4,52.69,52.69,0,0,1-8.15-6.37l-1.9-1.86-1.75-2c-1.23-1.33-2.18-2.85-3.28-4.3a56.08,56.08,0,0,1-4.91-9.48c-.71-1.62-1.14-3.33-1.71-5s-.93-3.3-1.23-5a64.73,64.73,0,0,1-1.28-9.54,82.43,82.43,0,0,1,0-8.59,80,80,0,0,1,1.6-12.71A46.1,46.1,0,0,1,343.55,65.81Z"/><path class="cls-12" d="M321.1,142.34a8.2,8.2,0,0,0,.51.83c.35.54,1,1.29,1.68,2.24a38.74,38.74,0,0,0,2.89,3.2c1.15,1.21,2.66,2.34,4.2,3.65a46.59,46.59,0,0,0,5.55,3.55,62.69,62.69,0,0,0,6.63,3.05c1.2.42,2.45.74,3.7,1.11a21.5,21.5,0,0,0,3.81,1l4,.76c1.31.28,2.7.24,4,.4s2.69.21,4,.31,2.72-.06,4.05-.1l4-.08c1.3-.09,2.59-.29,3.86-.43s2.53-.3,3.75-.42c.61-.08,1.22-.14,1.83-.2s1.17-.24,1.74-.35l6.52-1.31c2-.34,3.83-.92,5.45-1.33l4.2-1.13c2.34-.6,3.66-1,3.66-1l-3.54,1.33-4.11,1.49a41.67,41.67,0,0,1-5.38,1.73c-2,.49-4.21,1-6.5,1.64l-1.77.44-1.83.3-3.81.55c-1.29.18-2.6.42-3.93.54s-2.69.1-4.08.16l-4.15.14-4.16-.3a32.39,32.39,0,0,1-4.18-.46l-4.08-.79a25,25,0,0,1-4-1.05c-1.27-.46-2.57-.82-3.79-1.29a48.88,48.88,0,0,1-6.74-3.45,47.78,47.78,0,0,1-5.52-3.93,36.16,36.16,0,0,1-4-4.05,38.29,38.29,0,0,1-2.7-3.45A25,25,0,0,1,321.1,142.34Z"/><path class="cls-12" d="M348.66,201a22,22,0,0,1,2-2c.64-.66,1.49-1.35,2.43-2.2s2.06-1.75,3.37-2.6c.65-.44,1.31-.91,2-1.39s1.47-.91,2.24-1.37c1.49-1,3.23-1.8,5-2.71,1.81-.74,3.61-1.65,5.6-2.27a49.59,49.59,0,0,1,6-1.72c1-.2,2-.48,3.08-.62s2.08-.27,3.09-.37a41.5,41.5,0,0,1,6.06-.26,37.65,37.65,0,0,1,5.65.47,29.72,29.72,0,0,1,5,.94,33.66,33.66,0,0,1,4.11,1.13l3.05,1.19c1.68.67,2.63,1.07,2.63,1.07s-1-.26-2.75-.68c-.88-.23-1.93-.51-3.13-.85s-2.65-.42-4.13-.73a30.4,30.4,0,0,0-4.9-.6,49.23,49.23,0,0,0-5.49-.14,44.63,44.63,0,0,0-5.83.4c-1,.14-2,.28-3,.4s-2,.43-3,.63a48.31,48.31,0,0,0-5.83,1.61c-1.92.57-3.73,1.37-5.5,2-1.71.87-3.44,1.51-5,2.38-.77.4-1.54.8-2.26,1.21s-1.38.84-2,1.21c-1.34.8-2.49,1.61-3.56,2.26s-1.93,1.33-2.63,1.89C349.42,200.32,348.66,201,348.66,201Z"/><path class="cls-12" d="M369.56,224.48a16.23,16.23,0,0,1,1.51-1.71c.52-.51,1.16-1.13,1.91-1.78a31.39,31.39,0,0,1,2.68-2.13c1-.75,2.17-1.44,3.39-2.22s2.57-1.44,4-2.06a36.14,36.14,0,0,1,4.55-1.69,37.57,37.57,0,0,1,4.86-1.23c1.64-.37,3.35-.37,5-.59s3.27,0,4.85,0,3.08.38,4.49.54a31.51,31.51,0,0,1,3.94.87,21.77,21.77,0,0,1,3.25,1c.95.38,1.77.69,2.44,1l2.11.85-2.22-.47-2.54-.62c-1-.27-2.08-.33-3.29-.57a30.93,30.93,0,0,0-3.89-.54c-1.38,0-2.85-.2-4.35-.2s-3.08,0-4.66.16-3.2.26-4.75.66a37.31,37.31,0,0,0-4.67,1.07,43.25,43.25,0,0,0-4.42,1.49c-1.4.55-2.74,1.15-4,1.72s-2.42,1.21-3.45,1.85a52.6,52.6,0,0,0-5,3.25C370.2,223.92,369.56,224.48,369.56,224.48Z"/><path class="cls-12" d="M383.35,247.92a12.1,12.1,0,0,1,1.14-1.29,25,25,0,0,1,3.43-3,24.37,24.37,0,0,1,2.54-1.73,32,32,0,0,1,3-1.62,33.94,33.94,0,0,1,3.48-1.31,24.37,24.37,0,0,1,3.73-.87c.65-.08,1.28-.22,1.93-.26l1.92-.06a20.43,20.43,0,0,1,3.7.24,19.47,19.47,0,0,1,3.4.71,16.22,16.22,0,0,1,2.93,1.05,16.56,16.56,0,0,1,2.34,1.09c.65.42,1.23.76,1.7,1,.92.58,1.43.94,1.43.94s-.6-.18-1.61-.58c-.51-.2-1.12-.42-1.84-.71s-1.54-.42-2.41-.7a22.26,22.26,0,0,0-2.88-.65,23.48,23.48,0,0,0-3.24-.42,25.08,25.08,0,0,0-3.48-.06l-1.79.1c-.59,0-1.17.18-1.76.28a23,23,0,0,0-3.53.73c-1.14.3-2.24.72-3.32,1.07s-2.08.82-3,1.33-1.84.89-2.64,1.35c-1.61.91-2.93,1.73-3.81,2.36S383.35,247.92,383.35,247.92Z"/><path class="cls-12" d="M383.85,257.64a9.19,9.19,0,0,1,1.35-.51c.86-.28,2.13-.72,3.65-1.07a40.52,40.52,0,0,1,11.57-1,27.67,27.67,0,0,1,3.15.4,21.85,21.85,0,0,1,3,.75,17.43,17.43,0,0,1,2.71,1.1,21.53,21.53,0,0,1,2.23,1.36,19.2,19.2,0,0,1,1.64,1.53,6.91,6.91,0,0,1,1,1.29c.5.79.77,1.25.77,1.25s-.42-.36-1.08-1a5.52,5.52,0,0,0-1.24-1c-.53-.32-1.09-.74-1.74-1.09s-1.42-.68-2.22-1-1.66-.55-2.59-.75a24.8,24.8,0,0,0-2.85-.54,26.61,26.61,0,0,0-3-.29,54.77,54.77,0,0,0-6-.14c-1.93.06-3.71.14-5.27.26C385.94,257.4,383.85,257.64,383.85,257.64Z"/></g><path class="cls-11" d="M451.77,47.68c-1.25,2.36-6.11,2.22-10.82-.3s-7.52-6.47-6.25-8.84,6.11-2.23,10.8.3S453,45.32,451.77,47.68Z"/><path class="cls-4" d="M445.17,255.76S408.42,278.2,373.75,344c-7.66,18.38,9.17,45.4,35.7,67.86-8.17,14.8-13.27,25,27.54,32.15-12.75,15.81-11.22,24,5.12,23.46s33.16-5.11,33.16-5.11,9.69,28.05-4.09,38.77-19.39,18.35-19.39,18.35,28.07-2,33.68-5.6c-9.19,14.29-3.58,33.16-3.58,33.16s2.05-14.79,32.15-29.57c21.91-10.23,29.59-18.89,33.66-23,1.54,14.79-5.62,16.31-5.62,16.31s44.91-25.49,39.79-39.77-11.21-26,4.09-30.62,82.65-30.6,75-56.12c6.12,7.14,5.09,14.29,5.09,14.29s15.32-38.77,1.55-65.82c8.15,9.7,8.15,13.79,8.15,13.79s5.1-38.27-10.71-59.71C675.26,291,678.83,295,678.83,295s-4.09-35.71-34.2-56.64c39.79,5.1,58.68,3.08,67.34-17.33s14.29-49.49,19.39-55.62c-11.73-13.25-46.42-29.58-72.45-18.35-21.42,10.71-21.42,26-29.06,43.36-.51-7.66-17.87-18.88-30.6-17.36C607.4,168,611,168,611,168s-28.58-14.28-48-3.06l3.57-9.7a47.9,47.9,0,0,0-43.88,10.2c0-8.67,1-11.72,1-11.72s-12.74,6.12-16.31,15.8a22.05,22.05,0,0,0-13.78-13.76l4.61,8.17s-27.57-7.16-35.72-2.06l7.15,2.56S425.28,181.26,437,212.91A272,272,0,0,1,445.17,255.76Z"/><path class="cls-2" d="M434.86,246.91s-36.74,22.45-71.43,88.27c-7.64,18.37,9.2,45.4,35.73,67.85-8.18,14.8-13.27,25,27.54,32.14-12.76,15.81-11.23,24,5.11,23.47s33.15-5.1,33.15-5.1,9.7,28.06-4.08,38.76-19.37,18.37-19.37,18.37,28-2.05,33.67-5.62c-9.2,14.28-3.58,33.16-3.58,33.16s2-14.79,32.15-29.59c21.93-10.19,29.56-18.87,33.65-23,1.53,14.8-5.61,16.33-5.61,16.33s44.9-25.5,39.79-39.78-11.21-26,4.08-30.61,82.66-30.6,75-56.11c6.13,7.14,5.1,14.28,5.1,14.28s15.31-38.78,1.55-65.83c8.15,9.71,8.15,13.79,8.15,13.79s5.1-38.27-10.71-59.71c10.19,4.09,13.78,8.18,13.78,8.18s-4.08-35.7-34.19-56.62c39.81,5.09,58.67,3,67.34-17.36s14.28-49.49,19.39-55.6c-11.75-13.27-46.43-29.59-72.45-18.37-21.42,10.71-21.42,26-29.08,43.36-.52-7.65-17.85-18.88-30.61-17.33,8.16-5.12,11.73-5.12,11.73-5.12s-28.57-14.26-47.95-3.06l3.57-9.7a47.83,47.83,0,0,0-43.86,10.22c0-8.69,1-11.72,1-11.72S500.67,151,497.1,160.69a22,22,0,0,0-13.77-13.77l4.59,8.17s-27.55-7.16-35.69-2.06l7.13,2.58S415,172.43,426.7,204.07A270.79,270.79,0,0,1,434.86,246.91Z"/><path class="cls-13" d="M445.46,249.79s42.75-16.58,99.06,11.58c-5.49-4.48-7.56-5.16-7.56-5.16s5.86-33.66-10-33.66c-7.9,0-10.66,18.55-7.22,24.38,0,0-34-11-50.48-5.49,3.44-20.25-5.48-28.51-12-26.11s-8.57,21.31-4.45,28.51C448.71,245.56,445.46,249.79,445.46,249.79Z"/><path class="cls-14" d="M648.62,138.25c-21.42,10.71-21.42,26-29.08,43.36-.52-7.65-17.85-18.88-30.61-17.33,8.16-5.12,11.73-5.12,11.73-5.12s-28.57-14.26-47.95-3.06l3.57-9.7a47.83,47.83,0,0,0-43.86,10.22c0-8.69,1-11.72,1-11.72S500.67,151,497.1,160.69a22,22,0,0,0-13.77-13.77l4.59,8.17s-27.55-7.16-35.69-2.06l7.13,2.58s-1.35.49-3.47,1.49c13.4,1.17,31,4.68,38.14,14.81l-2-7.14,6.13,8.18,10.19-14.62-1,13.58s10.19-13.25,32.63-14.28A23.53,23.53,0,0,0,531.79,174s13.29-13.27,44.9-10.2c-13.27,4.09-14.3,12.24-14.3,12.24s45.92,4.09,50,46.93c3.05,31.66-33.44,51.14-70.3,37.31,69.29,32.08,63.16,66.77,35.61,86.16-25.51,17.35-22.44-6.13-22.44-11.22s-15.33,4.09-10.19,19.38S543,372.93,519.55,378,506.29,418.85,464.47,425c-31.65,5.1-37.77-9.17-22.45-16.32s58.15-41.84,53.05-61.22-38.78-26.53-74.49-25.51c-29.88.85-41.87-9-31.29-28.38a334.55,334.55,0,0,0-25.86,41.65c-7.64,18.37,9.2,45.4,35.73,67.85-8.18,14.8-13.27,25,27.54,32.14-12.76,15.81-11.23,24,5.11,23.47s33.15-5.1,33.15-5.1,9.7,28.06-4.08,38.76-19.37,18.37-19.37,18.37,28-2.05,33.67-5.62c-9.2,14.28-3.58,33.16-3.58,33.16s2-14.79,32.15-29.59c21.93-10.19,29.56-18.87,33.65-23,1,9.19-1.45,13.27-3.39,15,8.94-5.36,42-26.12,37.57-38.48-5.1-14.28-11.21-26,4.08-30.61s82.66-30.6,75-56.11c6.13,7.14,5.1,14.28,5.1,14.28s15.31-38.78,1.55-65.83c8.15,9.71,8.15,13.79,8.15,13.79s5.1-38.27-10.71-59.71c10.19,4.09,13.78,8.18,13.78,8.18s-4.08-35.7-34.19-56.62c39.81,5.09,58.67,3,67.34-17.36s14.28-49.49,19.39-55.6C709.32,143.35,674.64,127,648.62,138.25Z"/><path class="cls-13" d="M699.63,174.25s-1.09-20.88-19.79-12.95-41.4,24.48-43.56,33.13C651.06,207.38,680.22,222.49,699.63,174.25Z"/><path d="M466.05,232.49c.2,8-2.33,14.48-5.64,14.48s-6.18-6.48-6.36-14.5S456.37,218,459.69,218,465.85,224.5,466.05,232.49Z"/><path class="cls-15" d="M464.22,227.85c.27,3.11-.68,5.73-2.14,5.85s-2.88-2.34-3.16-5.45.66-5.74,2.13-5.85S463.93,224.74,464.22,227.85Z"/><path d="M533.87,239.2c.2,8-2.32,14.48-5.63,14.48s-6.17-6.51-6.37-14.48,2.32-14.48,5.65-14.48S533.67,231.18,533.87,239.2Z"/><path class="cls-15" d="M532.05,234.55c.25,3.12-.7,5.74-2.15,5.86s-2.87-2.34-3.17-5.46.67-5.73,2.14-5.83S531.75,231.44,532.05,234.55Z"/><path class="cls-14" d="M448.58,208.19s5.47-15.35,19.72-4.38C460.88,190.94,454.05,187.11,448.58,208.19Z"/><path class="cls-14" d="M519,204.9s11.23-10.67,25.47,3.29C535.1,190.94,525.8,180.8,519,204.9Z"/><path class="cls-4" d="M448.18,205s5.46-15.33,19.72-4.38C460.5,187.72,453.64,183.9,448.18,205Z"/><path class="cls-4" d="M518.56,201.69S529.76,191,544,205C534.7,187.72,525.4,177.61,518.56,201.69Z"/><path class="cls-16" d="M430.89,258.28a15.4,15.4,0,0,1,1.17-1,35.28,35.28,0,0,1,3.57-2.52c.81-.5,1.7-1,2.68-1.59s2.12-1.09,3.29-1.69,2.49-1.13,3.86-1.68a42.39,42.39,0,0,1,4.38-1.59l4.88-1.47c1.69-.41,3.5-.73,5.31-1.11.92-.18,1.85-.39,2.79-.53l2.89-.36c2-.22,4-.46,6-.59s4.11-.08,6.2-.14c1.05,0,2.12,0,3.17,0l3.17.21c2.14.18,4.3.34,6.45.5s4.28.64,6.42.93,4.28.74,6.41,1.09c2.08.52,4.16,1.06,6.24,1.57s4.1,1.07,6.11,1.61,3.93,1.33,5.83,2,3.79,1.33,5.63,2a47.51,47.51,0,0,1,5.3,2.1c3.39,1.46,6.57,2.95,9.48,4.3a69.88,69.88,0,0,1,7.8,4.07c2.28,1.27,4.26,2.4,5.91,3.31,3.25,1.87,5.08,3,5.08,3s-2-.8-5.46-2.25c-1.71-.75-3.79-1.64-6.19-2.67s-5.06-2.24-8.07-3.3-6.25-2.28-9.66-3.61a47.4,47.4,0,0,0-5.32-1.78c-1.82-.56-3.71-1.13-5.59-1.73s-3.81-1.25-5.77-1.74-4-.94-6-1.43-4.07-1-6.1-1.47c-2.07-.34-4.17-.65-6.24-1s-4.16-.81-6.25-1L484,248.1c-1-.08-2.07-.18-3.09-.28l-3.06,0c-2,0-4-.05-6-.09s-3.88.27-5.78.37c-1,0-1.88.1-2.82.16s-1.81.26-2.72.38l-5.21.75c-1.66.38-3.27.74-4.82,1.07s-3,.82-4.37,1.19-2.72.76-3.92,1.25-2.34.86-3.38,1.27-2,.89-2.81,1.29c-1.65.83-3,1.49-3.82,2A15.08,15.08,0,0,0,430.89,258.28Z"/><path class="cls-16" d="M420.06,433.63s11.23,3.08,6.13-6.62-5.11-17.36-5.11-17.36,7.08,27.41,32.66,25.52c25.05-1.85,41.33-6.13,48.47-21.94s6.12-24,28.57-29.58,26.52-10.21,26.52-16.85-9.68-10.7-4.59-19.89c2.56-4.09,0,16.32,11.73,10.7s19.89-12.23,20.41-8.15-23,10.21-23,16.33.49,15.3-20.41,19.89-24,8.17-31.13,21.94-10.19,24.49-28.05,28.56S441.51,446.4,420.06,433.63Z"/><path class="cls-17" d="M638.32,193.93s5.52-9,26.25-20.37c22.09-12.08,23.82-12.08,26.58-8.63a90.43,90.43,0,0,1,6.22,9.68S678.37,225,638.32,193.93Z"/><path class="cls-2" d="M534,500.69l-2.22,1.3A5.36,5.36,0,0,0,534,500.69Z"/><g class="cls-18"><path class="cls-14" d="M635.88,219.88c-17.35-6.11-16.34,2-1,18.36s22.46,33.67,3.06,22.44c12.26,15.31,19.4,44.91,16.32,51s-19.38-16.32-19.38-16.32,14.28,43.9,8.16,54.09-14.29-7.14-14.29-7.14-8.17,49-56.11,67.33c-27.53,10.21-31.64,27.57-22.46,35.72s7.15,19.39-1,28.56c-2-11.21-8.17-15.29-8.17-15.29s-5.1,22.44-30.61,34.68c-17.34,10.2-27.55,17.35-27.55,17.35s3.07-9.19,15.33-19.39-20.42,9.18-32.67,10.2c21.43-17.34,14.29-27.55,10.21-40.81s10.2-8.15,26.53-19.37c9.52-4.78-40.61,17.95-84,9.79-.3,5.25,4.17,7.84,13.57,7.55,16.31-.51,33.15-5.1,33.15-5.1s9.7,28.06-4.08,38.76-19.37,18.37-19.37,18.37,28-2.05,33.67-5.62c-9.2,14.28-3.58,33.16-3.58,33.16s2-14.79,32.15-29.59c21.93-10.19,29.56-18.87,33.65-23,1,9.19-1.45,13.27-3.39,15,8.94-5.36,42-26.12,37.57-38.48-5.1-14.28-11.21-26,4.08-30.61s82.66-30.6,75-56.11c6.13,7.14,5.1,14.28,5.1,14.28s15.31-38.78,1.55-65.83c8.15,9.71,8.15,13.79,8.15,13.79s5.1-38.27-10.71-59.71c10.19,4.09,13.78,8.18,13.78,8.18s-4.08-35.7-34.19-56.62c39.81,5.09,58.67,3,67.34-17.36.84-2,1.64-4.05,2.43-6.17C691.9,218.05,670.36,229.66,635.88,219.88Z"/></g><path class="cls-17" d="M382.32,331.09s34.69-7.15,74.48,1.53c32.14,10.2,36.72,15.31,31.63,26.53s-48,56.64-77.55,49c-27-7.65-50.49-37.25-56.12-50S354.76,335.18,382.32,331.09Z"/><path class="cls-19" d="M456.29,371.91s-15.83-5.11-16.84,14.29c0,11.21.1,15.12-8.16,17.33-5.45,1.48-3.78-6-.85-12.73S439.93,367.22,456.29,371.91Z"/><path class="cls-19" d="M370.25,368s14.63,5.85,18.6,17.13c2.5,10.24,4.6,14.44,9.2,14.44S392.39,372.62,370.25,368Z"/><path class="cls-20" d="M457,332.68c3.2,1,6.12,2,8.78,2.92A73.79,73.79,0,0,0,457,332.68Z"/><path class="cls-17" d="M456.8,332.62l-.18,0,.38.1A1.17,1.17,0,0,1,456.8,332.62Z"/><path class="cls-21" d="M465.78,335.6c28,11.38-2.1,26.44-18.2,27.45-19.3,1.25-19.3,27.92-34.49,28.33s-26.26-25.87-48.42-33.25c-6.61-2.2-10.12-5.21-11.86-8.35a20.67,20.67,0,0,0,1.95,8.35c5.63,12.75,29.09,42.35,56.12,50,29.58,7.66,72.45-37.76,77.55-49C493,349.09,489.77,343.93,465.78,335.6Z"/><path class="cls-22" d="M363.11,343.51s29.09-12.23,73.95-3.38c15.17,3.38,3-9.53-29.11-10.2S352.8,345.56,363.11,343.51Z"/><path class="cls-22" d="M459.58,342.05c-.51,1.58-3.76,2-7.25.86s-5.93-3.31-5.44-4.89,3.76-2,7.25-.85S460.07,340.47,459.58,342.05Z"/><path class="cls-16" d="M697.37,174.61s-.57-1-1.64-2.76c-.52-.85-1.19-1.88-2-3a25.74,25.74,0,0,0-3-3.57,5,5,0,0,0-2-1.25,1.48,1.48,0,0,1-.42,0l-.7.2-1.42.36c-1.85.67-3.77,1.28-5.76,2.18l-3,1.23c-1,.47-2,1-3,1.44l-3.07,1.47c-1,.52-2,1.13-3,1.69-2,1.15-4.08,2.1-5.93,3.41s-3.78,2.42-5.61,3.57-3.43,2.5-5.08,3.63l-4.48,3.31c-2.62,2.28-4.86,4.09-6.41,5.42l-2.48,2,2.21-2.3c1.42-1.45,3.43-3.57,5.93-6L650.8,182c1.57-1.25,3.11-2.72,4.94-3.93s3.69-2.5,5.61-3.79,4-2.32,6-3.53c1-.53,2-1.13,3.08-1.66s2.12-1,3.15-1.47,2.08-.95,3.12-1.41,2.1-.79,3.15-1.17a49.09,49.09,0,0,1,6.09-1.92l1.43-.3.71-.14a4,4,0,0,1,1,0,5.88,5.88,0,0,1,2.5,1.73,20.56,20.56,0,0,1,2.78,4c.71,1.23,1.27,2.34,1.72,3.26C697,173.52,697.37,174.61,697.37,174.61Z"/><g class="cls-18"><path class="cls-17" d="M666.47,196.41c-23-1.53,3.07-21.44,17.36-27.57,4.44-1.88,7.69-1.47,10.07,0a42.91,42.91,0,0,0-2.75-3.91c-2.76-3.45-4.49-3.45-26.58,8.63-20.73,11.39-26.25,20.37-26.25,20.37,25.31,19.66,42.21,6.73,51.24-5.43A28.57,28.57,0,0,1,666.47,196.41Z"/></g><path class="cls-2" d="M428.9,212.91s-45.8,14-61.71-25.6-13.59-38.82-13.59-38.82,69.09-16.31,88.1,16.68C432,176,421.13,185.76,428.9,212.91Z"/><path class="cls-20" d="M364.25,179.91c-3.81-9.62-6.29-16.29-7.9-20.93A134.45,134.45,0,0,0,364.25,179.91Z"/><path class="cls-14" d="M441.7,165.17c-9.56-16.58-31.75-20.69-51.49-20.71,14.35,1.63,31.59,5.73,35,15.95,6,17.55-11,7.68-25.22-1.09-12.06-8.79-26.87,0-29.05,10.41-2.2,5.48,15.34,30.15,29.59,31.24,12,.92-15.67,21.41-36.29-21.06.89,2.3,1.88,4.76,2.94,7.4,15.91,39.59,61.71,25.6,61.71,25.6C421.13,185.76,432,176,441.7,165.17Z"/><path class="cls-2" d="M356.35,159q-1.43-4.93-2.75-10.49S352.61,148.15,356.35,159Z"/><path class="cls-14" d="M428.9,212.91s-45.8,14-61.71-25.6-13.59-38.82-13.59-38.82,69.09-16.31,88.1,16.68C432,176,421.13,185.76,428.9,212.91Z"/><path class="cls-17" d="M422,192.05s-27.65-33.35-36.49-31.58C380,161.56,376.22,173,376.22,173s6,14.7,20.68,21.76S422,192.05,422,192.05Z"/><path class="cls-16" d="M376.22,173a22.64,22.64,0,0,1,.63-2.77,22.28,22.28,0,0,1,3.21-6.83,9.53,9.53,0,0,1,4.1-3.33,6.28,6.28,0,0,1,3-.45,6.37,6.37,0,0,1,1.52.27,12.36,12.36,0,0,1,1.43.46c3.83,1.53,7.09,4.19,10.25,6.88a114.86,114.86,0,0,1,8.5,8.65c2.58,2.88,4.82,5.69,6.77,8.07s3.48,4.47,4.59,5.88l1.73,2.22s-.77-.68-2-2-3.07-3.13-5.15-5.37-4.57-4.84-7.22-7.62-5.53-5.65-8.56-8.33c-1.52-1.35-3.07-2.64-4.64-3.81a29.13,29.13,0,0,0-4.89-2.91,6.7,6.7,0,0,0-4.81-.56,8.51,8.51,0,0,0-3.69,2.64,25.4,25.4,0,0,0-3.73,6.25A27.38,27.38,0,0,0,376.22,173Z"/><g class="cls-18"><path class="cls-17" d="M385.46,160.47c-2.11.42-4,2.44-5.48,4.72,5.38-1.55,12.59-.2,20.7,10.31,13.26,14.78-4.09,22.95-19.39,5.6-.05.08-.11.16-.15.24a42.86,42.86,0,0,0,15.76,13.42c14.69,7.09,25.05-2.71,25.05-2.71S394.3,158.7,385.46,160.47Z"/></g><path class="cls-2" d="M697.43,150.15a51.76,51.76,0,0,0-38.1,12.92c-19,16.34-30.61,5.45-16.32-10.2S684.5,137.22,697.43,150.15Z"/><path class="cls-15" d="M370,153s24.23-7.83,43.21,7.22C420.43,167.45,408.65,135.38,370,153Z"/><path class="cls-15" d="M525.4,258.6s-54.85-15.91-83.66,23.22c-25.1,39.14-62,34.7-39.88,2.21S470.21,235.37,525.4,258.6Z"/><path class="cls-15" d="M446.66,174.06s-25.2,11.46-5.35,53.47C428.32,210.73,415.34,185.52,446.66,174.06Z"/><path class="cls-4" d="M722.69,556a.14.14,0,0,0,0,.08A.25.25,0,0,1,722.69,556Z"/><path class="cls-4" d="M133.53,162.85S73.89,239.65,51.66,267C72.88,228.54,117.35,174,133.53,162.85Z"/><path class="cls-23" d="M700.85,932.34s19.67,8,31.32,35.78C737.53,977.07,728.59,935.93,700.85,932.34Z"/><g class="cls-24"><path class="cls-4" d="M829.7,404a57,57,0,0,1-4.56,8.21s-2-5.6-10.2-13.77c-.53,30.6-9.7,40.3-9.7,40.3s-1-5.11-7.14-17.34c2.56,49.49-36.67,80.69-37.64,79.2s0,0-4-7.4c-1,26.16-32.56,45.41-32.56,45.41s-.49-5-9.38-10.36c2,24.18-24.69,47.87-42.45,54.79s-19.24,20.23-19.24,20.23-4-6.42-3.47-13.33C644,600.3,632.81,612.7,594,621.88c5.1-13.26,3.06-19.39,3.06-19.39s-33,33.35-65.66,33.35-25.83-25.17-26.5-42.19-16.33-37.41-16.33-37.41,15,26.54,6.8,47.61c-9.52,27.21-32,46.27-34,68-6.12-5.44-6.12-21.07-6.8,3.41s-19.06,58.52-44.9,56.47-42.85-33.32-42.85-33.32-3.41,2.72-6.12,18.35c-6.81-18.35-2-51.69-2-51.69a28,28,0,0,1-11.56,7.47c4.76-15-32-52.38-66-96.61-42.21-54.88,25.17-108.15,25.17-108.15l-10.88,1.36s4.08-13.6,25.84-35.36c-29.25,15.64-40.82,47.61-40.82,47.61h8.17c-20.41,17-44.22,53.06-27.2,84.34s32.64,46.94-3.4,34.7-57.13-2.72-117-98.64c-76.18-114.26-38.1-153.71-38.1-153.71L90.67,354.9c4.76-15,23.12-39.45,23.12-39.45L103.6,320.2c18.36-27.88,47.32-35.14,47.32-35.14l-12.49-4.55s1.69-4,14.78-9.66c-20.47,1.71-28.42,11.37-28.42,11.37l13.07,3.41C111.16,288.48,87.29,330,87.29,330l12.5-2.28c-8,7.39-20.46,36.37-20.46,36.37l11.37-1.13C66.83,402.69,90.29,436.1,114.61,487s66,120.44,34.74,112.34S55.56,518.3,55.56,518.3l-.55,0a279.72,279.72,0,0,0,18.65,26.34l-5.44,12.24,13.59-2.41s2.58,21.19,6.2,23.78,3.61-9.81,3.61-9.81,9.8,22.19,15.49,37.17-.52,15.49-29.95,53.2c-25.82,31.5-34.09,38.74-16,33C45.14,710.48,40,727.54,40,727.54l12.4-3.63s-8.79,18.09-6.2,26.86c.51,4.66,12.39-3.1,12.39-3.1S41,786.17,77.07,867.8c11.57,30,8.16,38.1-.69,47s-6.11,12.93,8.17,25.86c-15,16.33-10.89,35.35-6.81,44.19,4.1,7.48,47,21.78,82.33,24.5,31.27,2.72,38.07-2,38.77-8.83,17,1.34,21.75-2.72,21.75-9.54s-10.88-44.21-49-57.82c-2.64-1.07-5.1-2.16-7.45-3.25-38.45,6.23-59.44,37.95-60.57,24.34-1.36-16.33,29.93-21.76,8.16-23.13s2.72-27.2-5.45-40.81c-29.93-62.58-42.17-132-8.17-195.93s119.73-77.55,133.33-44.88-10.88,47.62-10.88,47.62,5.43-15-2.72-24.5c2.72,24.5-17.68,53.08-65.3,80.28A61.14,61.14,0,0,0,139,763.06h0c34-21.78,79.58-34,82.31-49a12.68,12.68,0,0,1,4.09,10.22s19.1-16.29,19.94-39.7l7.53,11.71s11.69-21.74,2.51-36.78c10.86,3.33,11.69,6.69,11.69,6.69s4.19-24.24-5.85-41c43.48,13.38,67.71,19.24,72.72,35.12,3.34,10-15,21.72-13.37,35.95,15-4.19,23.4-9.21,23.4-9.21s-11.7,15.87-6.69,31.78c5.86-9.2,10-10.06,10-10.06s-5.85,22.58,6.69,25.09,45.13,21.75,47.65,39.3,7.51,66.87,10.86,96.11,6.68,33.43,0,41-16.72,12.54-9.21,25.91c7.53,11.7,1.68,12.53-2.5,21.74s-6.69,30.92-1.67,37.62,37.62,20.05,78.57,20.05c36.78-.84,49.31-5,46.81-12.53,15.87-1.67,23.4-10,14.2-25.92a78.71,78.71,0,0,0-40-33.46c-28.28,3.33-53.91,14-63.17-1.71-9.6-16.32,8.17-10.89,0-49C426,838.56,413.78,750.13,426,748.76c7.92-.87,18.12,35.86,26.19,69.64-7-35.24-12.31-75.87,2.05-92,21.74-19.22,25.91-17.58,20.05-29.26s-8.37-15.87-8.37-15.87a25.31,25.31,0,0,0,11.72,5c-7.52-10-9.2-25.07,5-35.11,19.22,3.33,82.42,5.77,104.48-25.77-.8,11-4.72,15.77-4.72,15.77s55.14-16.56,68.55-33.89c4.72,8.66,9.44,11,9.44,11s-3.15-18.92,16.54-27.59,39.4-16.54,41-48.84c6.58,8,5,13.38,4.77,14.11a46.88,46.88,0,0,1,18.88-22c14.17-8.67,18.11-15,18.11-24.43,9.45-3.93,39.39-39.38,41-69.31,4.72,12.6,4,18.12,4,18.12s17.32-26,12.6-46.49c8.66,12.61,9.45,17.33,9.45,17.33A137.78,137.78,0,0,0,829.7,404Z"/></g><path class="cls-6" d="M134.31,949c-20.57,9.78-23.08,37.67-23,51.11a251.43,251.43,0,0,0,48.8,9.23c31.27,2.72,38.07-2,38.77-8.83,17,1.34,21.75-2.72,21.75-9.54,0-5.83-8-34.19-34.35-50.72C170.79,936.31,152.29,940.39,134.31,949Z"/><path d="M131.62,950.65s1.45-.26,4-.56a93.68,93.68,0,0,1,10.71-.53c2.22,0,4.65.08,7.2.31a69.47,69.47,0,0,1,8,1.17c1.37.38,2.79.6,4.2,1.1.71.21,1.41.45,2.13.67l2.1.89a13.86,13.86,0,0,1,2.08,1c.69.4,1.33.72,2.1,1.21,1.2.88,2.37,1.65,3.59,2.72a55.12,55.12,0,0,1,6.4,6.49,67.67,67.67,0,0,1,5.13,7,66.26,66.26,0,0,1,4,7,61.66,61.66,0,0,1,2.86,6.65,55.92,55.92,0,0,1,1.78,5.87,35.42,35.42,0,0,1,.78,4.63,19.66,19.66,0,0,1,.14,3c0,.7,0,1.07,0,1.07s-.09-.37-.22-1.05a22.77,22.77,0,0,0-.72-2.88,44.68,44.68,0,0,0-1.47-4.34c-.66-1.62-1.49-3.45-2.43-5.39a96.69,96.69,0,0,0-7.66-12.6,81.2,81.2,0,0,0-5.15-6.48,49.44,49.44,0,0,0-6-5.89,37.56,37.56,0,0,0-3.37-2.64c-.46-.28-1.13-.66-1.69-1a10.57,10.57,0,0,0-1.8-.94,49.25,49.25,0,0,0-7.63-2.75c-2.58-.66-5.12-1.21-7.57-1.63s-4.78-.75-6.95-1c-4.34-.5-8-.8-10.56-1Z"/><path class="cls-23" d="M178.81,946.38s21.89,9,34.8,39.79C219.57,996.1,209.64,950.35,178.81,946.38Z"/><path class="cls-8" d="M343.53,466.6s-67.08,52.94,7.08,144.74c65.31,68.87-17.65,5.3-38.85-31.77S301.16,493.06,343.53,466.6Z"/><path class="cls-8" d="M179.38,300.66s-70.62,51.19-15.91,160.64C182.9,507.18,59.33,374.8,179.38,300.66Z"/><path class="cls-15" d="M46.42,295.09s-30.63,59.07,8.75,147.7C89.1,518.27,44.23,450.45,30,410S19.07,330.1,46.42,295.09Z"/><path class="cls-16" d="M721.07,156.62c-1.93,5.26-3.76,10.53-5.61,15.79s-3.61,10.57-5.41,15.87c-.94,2.64-1.7,5.31-2.48,8l-2.38,8a58.53,58.53,0,0,1-2.55,8.11,32.29,32.29,0,0,1-4.3,7.46L697,221.52a18.49,18.49,0,0,1-1.55,1.51c-.54.5-1,1-1.59,1.49l-1.76,1.27c-.6.39-1.15.87-1.79,1.21l-1.9,1-1.91,1-2,.77a54.31,54.31,0,0,1-8.21,2.42c-1.41.26-2.82.44-4.23.64a26.42,26.42,0,0,1-4.24.45,80.42,80.42,0,0,1-8.49.26c-2.82-.08-5.65-.06-8.47-.39s-5.63-.38-8.41-.86l-8.35-1.23,1.25-2.75,3.29,2.75c1.11.88,2.12,1.91,3.16,2.88s2.08,2,3,3l2.88,3.18,2.69,3.35c.9,1.11,1.67,2.3,2.52,3.45s1.61,2.36,2.36,3.55,1.53,2.42,2.23,3.67,1.42,2.46,2.06,3.75,1.33,2.52,1.9,3.83,1.23,2.56,1.77,3.87,1.15,2.61,1.62,3.94c2.11,5.26,3.79,10.75,5.46,16l1.58,5-4.4-2.87-6.62-4.34c-1.13-.66-2.26-1.3-3.4-1.95-.57-.34-1.13-.65-1.66-.9l-.83-.37c-.34-.18-.44-.19-.58-.27l1.84-3.06a37.39,37.39,0,0,1,2.33,3.45c.67,1.15,1.35,2.33,1.92,3.53a58.78,58.78,0,0,1,3.13,7.32c.5,1.25.88,2.51,1.27,3.78a38.7,38.7,0,0,1,1,3.83c.34,1.28.66,2.57.9,3.87s.51,2.59.69,3.91l.54,3.92c.2,1.3.22,2.63.33,3.94s.24,2.64.22,3.95l0,3.95c.06,2.65-.2,5.26-.32,7.9-.07,1.3-.27,2.6-.41,3.91l-.44,3.92-.83,7.18-3-6.68-1.36-3.05c-.48-1-.92-2.06-1.41-3l-1.53-2.93c-.28-.51-.58-.92-.83-1.39a10.44,10.44,0,0,0-.82-1.25l3.42-1.91c.45,1.37.83,2.64,1.15,4s.59,2.63.89,3.94.49,2.64.67,4,.42,2.64.54,4,.32,2.66.36,4,.19,2.67.23,4l0,4-.12,4c0,1.33-.15,2.67-.25,4s-.18,2.67-.4,4l-.58,4c-.17,1.32-.49,2.63-.73,4s-.48,2.64-.85,3.91l-1,3.88c-.3,1.29-.76,2.54-1.19,3.83l-1.27,3.79L655,398.54V387.35a7.75,7.75,0,0,0,0-1.36,9.13,9.13,0,0,0-.28-1.4,15.51,15.51,0,0,0-1.23-2.79,22.4,22.4,0,0,0-1.85-2.64,12.31,12.31,0,0,0-1-1.24c-.37-.39-.77-.81-1.13-1.14l2.88-1.85a13.89,13.89,0,0,1,.06,6.08,14.27,14.27,0,0,1-.72,2.77,15,15,0,0,1-1,2.66L649.47,389c-.5.79-1,1.53-1.51,2.32a40.88,40.88,0,0,1-3.37,4.34l-.89,1-1,1-2,1.9A42.83,42.83,0,0,1,636.7,403a103,103,0,0,1-8.69,6.27c-3,1.88-6.13,3.61-9.21,5.36l-9.52,4.73-9.73,4.22c-3.26,1.37-6.61,2.51-9.9,3.8-1.69.61-3.3,1.25-5,1.83s-3.33,1.09-4.94,1.68a33,33,0,0,0-9,4.7,9.47,9.47,0,0,0-3.71,8.55c.16,3.37,1.43,6.61,2.7,9.92s2.48,6.7,2.48,10.4a16.5,16.5,0,0,1-4.24,9.76,60.9,60.9,0,0,1-7.6,7.38c-2.7,2.28-5.47,4.41-8.29,6.54,2.74-2.23,5.43-4.48,8.05-6.83a68.28,68.28,0,0,0,7.26-7.57c2.14-2.69,3.77-5.9,3.79-9.3s-1.37-6.68-2.68-9.92-2.77-6.58-3.07-10.28a11.28,11.28,0,0,1,4.08-10.08,32,32,0,0,1,9.51-5.25c1.66-.64,3.33-1.25,5-1.78s3.26-1.28,4.88-1.92c3.26-1.3,6.55-2.5,9.76-3.92l9.54-4.31,9.31-4.83c3-1.77,6-3.52,8.92-5.4a97.05,97.05,0,0,0,8.31-6.21,37.09,37.09,0,0,0,3.85-3.43l1.83-1.81.89-.9.79-1a37.74,37.74,0,0,0,3.06-4.05l1.35-2.12,1.07-2.22a15.35,15.35,0,0,0,.85-2.28,11,11,0,0,0,.6-2.34,14,14,0,0,0,.23-2.32A9.61,9.61,0,0,0,649,376l-1.62-6,4.5,4.15a18.8,18.8,0,0,1,1.33,1.36c.44.44.83.91,1.23,1.39a24.21,24.21,0,0,1,2.14,3.09,16.5,16.5,0,0,1,1.59,3.55,11,11,0,0,1,.42,2,13.81,13.81,0,0,1,.06,2.14l-3.5-.81,1.21-3.68c.38-1.23.84-2.44,1.14-3.7l.95-3.74c.37-1.24.55-2.51.81-3.78s.54-2.52.71-3.81l.52-3.82c.2-1.27.22-2.57.38-3.84s.22-2.59.22-3.88l.09-3.86-.09-3.86c0-1.27-.14-2.57-.2-3.86s-.26-2.56-.4-3.84-.34-2.56-.52-3.82-.45-2.53-.69-3.8-.54-2.51-.85-3.75-.7-2.47-1.07-3.59l-3.83-11.43,7.24,9.53a17.25,17.25,0,0,1,1,1.6c.32.52.67,1,1,1.54l1.65,3.11c.53,1,1,2.1,1.47,3.15l1.46,3.16-3.84.51.41-3.79c.12-1.27.3-2.53.38-3.8.08-2.52.36-5.06.32-7.59l0-3.81c0-1.27-.12-2.52-.2-3.79s-.1-2.54-.3-3.8l-.48-3.75c-.17-1.26-.45-2.48-.67-3.73s-.5-2.47-.81-3.7-.6-2.45-1-3.64-.71-2.42-1.17-3.59a59.72,59.72,0,0,0-2.93-6.93c-.54-1.14-1.15-2.21-1.77-3.29a30.06,30.06,0,0,0-2-3l-3.49-4.58,5.35,1.52a7.05,7.05,0,0,1,1.29.49l1,.46a18.91,18.91,0,0,1,1.84,1c1.19.69,2.38,1.37,3.55,2.09l6.76,4.46-2.81,2.11c-1.69-5.43-3.27-10.7-5.28-15.87-.47-1.29-1.05-2.54-1.57-3.82s-1.13-2.52-1.68-3.79-1.23-2.46-1.85-3.69-1.3-2.44-2-3.65-1.37-2.38-2.1-3.53-1.47-2.34-2.28-3.45-1.55-2.29-2.42-3.36l-2.54-3.25-2.72-3.08c-.89-1.07-1.88-2-2.86-3s-1.94-2-3-2.82l-3.12-2.71-4.2-3.63,5.45.89,8.22,1.33c2.71.51,5.49.63,8.25,1s5.51.4,8.25.5,5.53,0,8.29-.08a31.41,31.41,0,0,0,4.09-.38c1.35-.18,2.73-.32,4.08-.54a53.26,53.26,0,0,0,7.86-2.2l1.92-.67,1.81-.94,1.8-.93c.6-.31,1.11-.75,1.67-1.11l1.68-1.15c.52-.42,1-.89,1.47-1.35s1-.89,1.49-1.37l1.31-1.56a29.86,29.86,0,0,0,4.23-6.91,58.13,58.13,0,0,0,2.69-7.79l2.61-8c.87-2.68,1.7-5.36,2.71-8,2-5.26,3.81-10.51,5.85-15.73S719,161.8,721.07,156.62Z"/><path class="cls-25" d="M192.91,981c6.16,12.35-2.39,20.91-21.87,20s-48-4.75-48.47-27.08c-.2-9.23,3.9-17.14,8.77-23.27-17.83,11-20.11,36.69-20.07,49.46a251.43,251.43,0,0,0,48.8,9.23c31.27,2.72,38.07-2,38.77-8.83,17,1.34,21.75-2.72,21.75-9.54a14.8,14.8,0,0,0-.26-2.42C215.08,995,202,990.42,192.91,981Z"/><path class="cls-6" d="M471.14,955.45c-38.48,11.66-47.47,39.27-49.57,51.55a183.81,183.81,0,0,0,56.09,8.58c36.78-.84,49.31-5,46.81-12.53,15.87-1.67,23.4-10,14.2-25.92a75.88,75.88,0,0,0-18.53-21.23C508.25,950.71,493.22,950,471.14,955.45Z"/><path d="M469.9,955.9a30.67,30.67,0,0,1,3.43-.25,50.89,50.89,0,0,1,9.12.53,57.46,57.46,0,0,1,6,1.19,51.25,51.25,0,0,1,6.56,2.11,49.13,49.13,0,0,1,6.7,3.19,56.9,56.9,0,0,1,6.34,4.34,49.68,49.68,0,0,1,5.54,5.4,30.66,30.66,0,0,1,2.33,3c.73,1,1.41,2,2,3.1a27.84,27.84,0,0,1,1.69,3.11,26.09,26.09,0,0,1,1.39,3.12,45.21,45.21,0,0,1,1.92,5.85,42.73,42.73,0,0,1,1,5.1,37.75,37.75,0,0,1,.4,3.94c.1,2.21.12,3.45.12,3.45s-.38-1.22-.92-3.32c-.21-1.05-.71-2.28-1.13-3.73s-1.11-3-1.68-4.71c-.76-1.68-1.47-3.49-2.48-5.33a30.51,30.51,0,0,0-1.55-2.76c-.55-.91-1.11-1.87-1.77-2.78a33.79,33.79,0,0,0-2-2.74c-.71-.91-1.49-1.76-2.26-2.63a47.75,47.75,0,0,0-5.16-4.88,51.45,51.45,0,0,0-5.8-4.11,61,61,0,0,0-6.09-3.29A76.61,76.61,0,0,0,482,958.44,88.12,88.12,0,0,0,469.9,955.9Z"/><path class="cls-23" d="M505.16,955.47s19.66,8,31.29,35.8C541.82,1000.21,532.88,959,505.16,955.47Z"/><g class="cls-18"><path class="cls-6" d="M519.65,981.59c14.76,23.32-80,31.12-78,8s31.67-33.92,31.67-33.92l.36-.8-2.55.6c-38.48,11.66-47.47,39.27-49.57,51.55a183.81,183.81,0,0,0,56.09,8.58c36.78-.84,49.31-5,46.81-12.53,12.2-1.29,19.42-6.53,18-16.08C536.55,989.33,528,987.36,519.65,981.59Z"/></g><g class="cls-7"><path class="cls-6" d="M738.39,975.46c-.17-1.31-.42-3.77-1.12-7-4.13,10.51-22.85,7.1-28-.85,2.07,8.9.65,23.32-37,18.4-36.73-4.8-26.22-39.69-25.68-41.41-12.24,14.42-10.93,36.42-9.72,45.6,0,0,.08,0,.1,0,27,7.13,73,12.75,75-4.58C729.23,990.78,739.44,982.6,738.39,975.46Z"/></g></g></g></svg>