<svg xmlns="http://www.w3.org/2000/svg" viewBox="0 0 937.46 894.59"><defs><style>.cls-1{isolation:isolate;}.cls-2,.cls-5{fill:#8ea41f;}.cls-3,.cls-54,.cls-6{fill:#adb924;}.cls-10,.cls-13,.cls-17,.cls-19,.cls-22,.cls-23,.cls-30,.cls-31,.cls-36,.cls-37,.cls-4,.cls-48,.cls-5,.cls-52,.cls-53,.cls-55,.cls-57,.cls-58,.cls-6,.cls-8{mix-blend-mode:multiply;}.cls-16,.cls-7,.cls-8{fill:#c1ba24;}.cls-10,.cls-20,.cls-57,.cls-9{fill:#f0e830;}.cls-11{fill:#917b17;}.cls-12,.cls-13{fill:#d3b949;}.cls-13,.cls-17,.cls-30,.cls-33,.cls-36,.cls-49,.cls-55,.cls-57,.cls-58{opacity:0.5;}.cls-14{fill:#a99126;}.cls-15{fill:#c2aa21;}.cls-16,.cls-20,.cls-25,.cls-33,.cls-34,.cls-49,.cls-50,.cls-54,.cls-56{mix-blend-mode:screen;}.cls-18{fill:#baba24;}.cls-19{fill:#f1d42c;}.cls-21,.cls-22,.cls-25,.cls-58{fill:#d8e730;}.cls-23{opacity:0.8;}.cls-24,.cls-31,.cls-33,.cls-34,.cls-36{fill:#b2cd2a;}.cls-26,.cls-55,.cls-56{fill:#b29826;}.cls-27{fill:#e8e830;}.cls-28{fill:#adb422;}.cls-29,.cls-30{fill:#8c9b1f;}.cls-32{fill:#3a6e0f;}.cls-35{fill:#ecf349;}.cls-37{fill:#91a11e;}.cls-38{fill:#f49820;}.cls-39,.cls-49{fill:#fff;}.cls-40{fill:#dedede;}.cls-41{fill:#b37480;}.cls-42{fill:#00c556;}.cls-43{fill:#5ecf8d;}.cls-44{fill:#008644;}.cls-45{fill:#f92905;}.cls-46{fill:#821001;}.cls-47,.cls-50,.cls-53{fill:#86af21;}.cls-48{opacity:0.7;}.cls-51,.cls-52{fill:#9acd2a;}</style></defs><g class="cls-1"><g id="Layer_1" data-name="Layer 1"><path class="cls-2" d="M522.34,510.38s26.48,26.54,44.08,41.3c14.85,12.4,26.12,24.85,41.11,1.4s30.63-48.7,30.63-48.7l-11.62,1.21L599.7,544.85c-9.62,14.06-52.1-33.25-52.1-33.25Z"/><path class="cls-3" d="M654.39,503.36s-.66,267.6,9.47,308c3.78,10.1,9.45,7.56,24.62,5.67s20.18-1.9,27.12,14.52l-5.68-3.18-1.87,4.43-5.07-7s-32.2,7-39.76,7.6-4.42-5.69-4.42-5.69l-6.31,9.47s-1.91-13.26,4.44-20.83c-7-36-15.17-244.24-13.28-291.57C648.71,514.73,654.39,503.36,654.39,503.36Z"/><g class="cls-4"><path class="cls-2" d="M626.54,505.59,599.7,544.85c-9.62,14.06-52.1-33.25-52.1-33.25l-25.26-1.22s5.53,5.55,13.2,13c1-1,2.56-1.47,4.93-.93,7.18,1.68,13.77,6.63,19.57,11,9.42,7.07,21.16,13.09,28,23a22.34,22.34,0,0,1,3.93,9.84c4.91-.65,10-4.39,15.53-13.09,15-23.45,30.63-48.7,30.63-48.7Z"/><path class="cls-3" d="M688.48,817c-15.17,1.89-20.84,4.43-24.62-5.67a106.84,106.84,0,0,1-2.13-13c-3.56-4.7-5.19-11.67-6.22-16.62-3.16-15.88-3.32-32.31-3.2-48.41.21-25-.38-49.89-.8-74.84-.26-15.24.23-30.54-.72-45.69-.45-7.49-1.2-15-1.24-22.47,0-5.33.54-10.68.32-16-.42-9.61-1.68-19.24-.84-28.83.49-5.9,1.66-12.1,5.38-16.73,0-15.77,0-25.36,0-25.36s-5.68,11.37-10.74,21.47c-1.89,47.33,6.32,255.61,13.28,291.57-6.35,7.57-4.44,20.83-4.44,20.83l6.31-9.47s-3.15,6.33,4.42,5.69,39.76-7.6,39.76-7.6l5.07,7,1.87-4.43,5.68,3.18C708.66,815.14,703.61,815.14,688.48,817Z"/></g><path class="cls-2" d="M408.26,477.82s-10,61.05-11.85,80c0,10.43,7.57,16.11,12.3,3.33s18.47-77.64,18.47-77.64S414.39,481.13,408.26,477.82Z"/><path class="cls-5" d="M408.26,477.82l-1.57,9.7a5,5,0,0,1,1.34-.32c4.28-.52,8.09,2.77,8.86,7,.93,5.13-.28,10.23-1.68,15.16-1.89,6.51-3.39,13.1-5.24,19.6-1.21,4.18-2.43,8.35-3.69,12.52-.61,2-1,4.48-2.09,6.35-1.16,2-3.36,3.95-5.89,2.76a7.64,7.64,0,0,1-1-.53c-.4,3-.72,5.66-.93,7.76,0,10.43,7.57,16.11,12.3,3.33s18.47-77.64,18.47-77.64S414.39,481.13,408.26,477.82Z"/><path class="cls-3" d="M283.63,582.59s27.11,75.55,36.57,101.59,33.61,108.88,35.52,119.75c1.87,7.11,4.72,8.55,9.45,9.45s3.79-9.92-1-26S320.2,661,314.06,641.12s-17.05-52.06-20.37-56.8S282.51,579.45,283.63,582.59Z"/><path class="cls-6" d="M364.21,787.38c-4.73-16.1-44-126.38-50.15-146.26s-17.05-52.06-20.37-56.8-11.18-4.87-10.06-1.73c0,0,2.2,6.2,5.57,15.64a8.28,8.28,0,0,1,2.8-2.32.37.37,0,0,1,.5.11c5.91,10.76,9.7,22.37,13.21,34.07,3.43,11.37,7.27,22.39,11.5,33.5,9.22,24.25,16.37,49.19,24.11,73.94,3.95,12.64,7.93,25.18,11.31,38,1.46,5.65,6.36,13.77,1.1,19-.07.06-.18.12-.21.18,1.13,4.39,1.9,7.64,2.2,9.24,1.87,7.11,4.72,8.55,9.45,9.45S369,803.46,364.21,787.38Z"/><path class="cls-2" d="M399.73,557.66s-31.55,8.83-84.88,15.15c-34.09,6-36,6.92-31.22,9.78s14.17,1.27,35.31-1.6,38.82-6.92,56.49-8.5,24.93-1.56,27.13-6S399.73,557.66,399.73,557.66Z"/><path class="cls-7" d="M360.59,806.31s-10.1,6.3-33.11,10.73-35.05,3.15-39.15,28.09a114.43,114.43,0,0,1,12-12l.34,9.8s4.4-11.36,10.41-11.68,31.22-5.07,38.81-9.15c3.79-1.26,4.75,3.47,4.75,3.47l3.75-6s6.33,3.79,6.8-6.17C365.64,804.72,360.59,806.31,360.59,806.31Z"/><path class="cls-8" d="M360.59,806.31a52.17,52.17,0,0,1-8.14,3.79c-1.08,5.8-6.27,9.76-13.1,11.87-5.05,1.54-10.38,2-15.62,2.37-7.69.51-17.3,1-20.73,9.27-.1.28-1.36,1.4-1.32.54a20.42,20.42,0,0,1,1.15-6.3c1.69-4.94-3.5.59-4.65,1.82a35.15,35.15,0,0,1-6.39,5.86c-.27.15-.68.25-.7-.16s0-.5,0-.73a49.56,49.56,0,0,0-2.76,10.49,114.43,114.43,0,0,1,12-12l.34,9.8s4.4-11.36,10.41-11.68,31.22-5.07,38.81-9.15c3.79-1.26,4.75,3.47,4.75,3.47l3.75-6s6.33,3.79,6.8-6.17C365.64,804.72,360.59,806.31,360.59,806.31Z"/><path class="cls-5" d="M399.73,557.66s-3.63,1-10.48,2.58a10.57,10.57,0,0,1-5.89,5.21c-5.05,2.07-10.61,2.63-15.92,3.71-7.62,1.55-15.2,3.24-22.83,4.74-8.29,1.58-16.55,2.86-24.94,3.61-4.19.34-8.38.73-12.56,1.1-3.16.28-6.67,1.06-9.82.76-1.87-.17-3.9-1.09-3.53-2.66-13.52,2.76-13.63,3.8-10.13,5.88,4.7,2.86,14.17,1.27,35.31-1.6s38.82-6.92,56.49-8.5,24.93-1.56,27.13-6S399.73,557.66,399.73,557.66Z"/><path class="cls-9" d="M404.4,829.74c-.49-.23.29,8-22.65,10.89S343.4,846.3,337,852.22s-4.5,26.73.46,37.38c1.2-13.24,2.37-16.32,2.37-16.32l4.25,6.38s-3.77-18.93,8-19.14,44.49-3.32,49-10.43a97.29,97.29,0,0,1,5.45,9.48l1.89-8.78,5.2,3.81S417.61,835.91,404.4,829.74Z"/><path class="cls-10" d="M404.4,829.74c-.25-.11-.18,2.09-3.34,4.65,1.62,1.67,1.94,4.11-.35,7.52-3.65,5.42-11.34,7.07-17.35,8.3a205.93,205.93,0,0,1-22.8,2.91c-4,.35-8.28.79-11.88,2.65-5.33,2.74-7.11,7.78-7.52,13.48,0,.39-1.1,1.79-1.43,1.06-.54-1.22-1.17-2.44-1.76-3.63a58.53,58.53,0,0,1-4,11,49,49,0,0,0,3.53,11.89c1.2-13.24,2.37-16.32,2.37-16.32l4.25,6.38s-3.77-18.93,8-19.14,44.49-3.32,49-10.43a97.29,97.29,0,0,1,5.45,9.48l1.89-8.78,5.2,3.81S417.61,835.91,404.4,829.74Z"/><path class="cls-11" d="M428.25,461c4.24,8.2,1.46,18.06-6.19,22s-17.31.52-21.56-7.69-1.48-18.05,6.19-22S424,452.78,428.25,461Z"/><path class="cls-12" d="M392.46,451.63s30.46,58.35,148.78,59.8c109.83-2.38,208.29-18.94,294.45-54.45,49.7-18.47,71.95-33.13,72.42-38.8s-45.46-14.7-45.46-14.7,72.91-19.39,74.8-27-207.33-41.17-332.3-22.23C530.35,367.05,421.19,396.08,392.46,451.63Z"/><path class="cls-13" d="M937.45,376.51c1.9-7.58-207.33-41.17-332.3-22.23-74.8,12.77-184,41.8-212.69,97.35,0,0,11.22,21.49,46.48,38.7,4-6.69,3.06-16.25,8.88-21.87,4.78-4.61,15.62-2.18,18.88,3.37,4.3,7.3-.17,17.12-3.67,23.83-.61,1.25-1.32,2.41-2,3.62,3.8,1.29,7.8,2.46,12,3.56,2.81-5.27,4-11.64,5.56-17.17.85-3.18,1.36-8.74,4.63-10.64,3.75-2.17,9.61-1.63,13.77-1,5.22.69,11,1.76,14.22,6.37,5.54,7.95.31,19.91-3.6,27.34-.26.54-.54,1-.82,1.52a321,321,0,0,0,34.47,2.22c16.72-.39,33.16-1.05,49.34-2.08a143.74,143.74,0,0,0,6.75-17.86c1.29-4,.78-6.93,4.22-9.62,4.76-3.69,11.76-3.54,17.32-5.28,4.53-1.38,11.06-4.42,15.8-2.71,9.15,3.33,5.15,17.09,2.62,23.44-1.16,2.87-2.49,5.66-3.88,8.39,5.22-.54,10.45-1.17,15.65-1.79,1.84-5.43,2.12-11.47,3.3-17.06,1-4.82,2.78-9.34,7.27-12,5.4-3.14,11.68-3.76,17.41-6.08,5.05-2.05,10.37-4.62,15.86-5.21,11.71-1.3,10.36,12.68,10.05,20.74a46.27,46.27,0,0,1-2,11.59c8.49-1.57,16.86-3.29,25.18-5.13,2.55-6,3-13.32,3.64-19.44.4-3.76.56-8.06,3.47-10.88,4.81-4.57,12.34-6.77,18.31-9.24,7-2.9,16.46-7.26,24.29-5.74,12.32,2.36,8.81,17.9,3.28,31.51,7-2.12,13.84-4.36,20.69-6.67,2.13-6.41.7-14,.4-20.54-.15-3.54-.19-7.71,2.89-10.12,4.35-3.43,10.29-4.76,15.34-6.75,5.24-2.06,13-5.92,18.73-3.8,9.36,3.45,7.11,16.55,5.43,24.12-.08.38-.19.8-.28,1.21q8.63-3.32,16-6.43c2.17-7.1,4.06-14.4,4.34-21.64.17-3.74.76-6.08,4.29-7.93,5.28-2.78,12-3.6,17.81-3.86,4.93-.22,10.24-.06,14,3.6a14.89,14.89,0,0,1,3.93,6.5c3.48-2.77,5.23-5,5.37-6.53.47-5.69-45.46-14.7-45.46-14.7S935.56,384.09,937.45,376.51Z"/><g class="cls-4"><path class="cls-14" d="M470.79,455.11c-.21-.73-1.57.48-1.43,1.07,3.37,14.65,1.59,28.51-3.64,42.54-.57,1.59,1.4.77,1.79-.15C473.5,484.88,475.14,469.49,470.79,455.11Z"/><path class="cls-14" d="M517.18,460.34c-.19-.9-1.47.25-1.4.84,1.86,16.13,3.2,33.81-7.51,47.35-1.1,1.37.1,2.38,1.29,1.06C521.11,496.57,520.55,476.39,517.18,460.34Z"/><path class="cls-14" d="M584.71,460.18c-.33-.75-1.59.56-1.38,1.21,5.68,16.75.53,32.27-3.49,48.66-.37,1.48,1.67.26,2-.46C587.77,494.76,591.19,475.31,584.71,460.18Z"/><path class="cls-14" d="M644.89,455.8c-.18-1.23-1.84.36-1.82,1.11,0,15.95,2.92,30.16-4,45.32-.82,1.78,1.54,1.21,2.14.13C649,488,647.09,471.45,644.89,455.8Z"/><path class="cls-14" d="M712.17,445.05c-.26-.75-1.48.55-1.33,1.15,3.83,15.22,4,28.42,2.85,44-.12,1.56,1.73.07,1.94-.72C719.39,475.27,717,458.71,712.17,445.05Z"/><path class="cls-14" d="M785.73,425.78c-.21-.76-1.57.45-1.45,1.05,3.46,16.37,5.91,31.16,3.13,47.9-.28,1.73,2,.13,2.18-.77C794,458.06,790.55,441.16,785.73,425.78Z"/><path class="cls-14" d="M845.38,409.36c-.33-.79-1.62.57-1.41,1.22,4.45,14.09,8.8,27,2.92,41.43-.63,1.53,1.25,1,1.74.15C856.37,438.92,851,422.38,845.38,409.36Z"/></g><g class="cls-4"><path class="cls-12" d="M937.45,376.51c1.9-7.58-207.33-41.17-332.3-22.23-74.8,12.77-184,41.8-212.69,97.35,0,0,3.57,6.8,13,15.84.91-9.39,5.27-18.88,20-15.64,27.18,6,124.56,34.79,269.23,3.8,112.75-24.18,152.17-42,176.7-50.31-5.14-1.12-8.7-1.84-8.7-1.84S935.56,384.09,937.45,376.51Z"/></g><path class="cls-7" d="M31.47,244.46S23,221,33.6,200.44a34.73,34.73,0,0,0,4,14S56.49,187.26,40,158.78C27.36,137,18.85,120,16,122.81S1.48,144,.22,153.11c-1.88-16.42,8.53-46.4,16.1-46.4S43.77,137,51,160s8.22,34.39,1.58,46.08S40.9,237.67,40,247.15C32.41,245.87,31.47,244.46,31.47,244.46Z"/><g class="cls-4"><path class="cls-15" d="M56.87,185.48a54.81,54.81,0,0,1-5.52,18.36c-8.09,15.38-9.19,34.42-15.05,34.42-4.22,0-6.16-4.59-8-12.13a65.52,65.52,0,0,0,3.2,18.33s.94,1.41,8.5,2.69c.93-9.48,6-29.35,12.64-41C56.19,199.77,57.55,193.54,56.87,185.48Z"/><path class="cls-15" d="M49.85,184.07C51,158.44,22,114.83,16.51,116.3,10.74,119.19,5.38,134.89,2,146.8c3.72-9.48,11.67-21.71,13.94-24,2.87-2.84,11.38,14.19,24,36,16.52,28.48-2.35,55.62-2.35,55.62S48.76,209.7,49.85,184.07Z"/></g><path class="cls-16" d="M48.31,154.32C44.36,140.75,36.45,127,27.6,116c-1.81-2.27-7.26-8.57-11-7.09-5.73,2.25-7.77,9.37-10,14.52-.24.58.51.41.72.05,2.86-5.63,7-16.28,14.36-10.08,4.44,3.73,7.6,9.11,10.59,14a187,187,0,0,1,14.08,28.61C46.74,157.19,48.57,155.26,48.31,154.32Z"/><path class="cls-2" d="M182.3,375.58s58.69-38.5,76.06-52.71,25.27-15.78,27.12-11.05-1.24,18-36.29,51.12-95.3,74.79-107,58.7c-6.92-12.31-4.09-16.39,5.05-23C159.47,389.78,173.8,382.52,182.3,375.58Z"/><g class="cls-17"><path class="cls-2" d="M285.48,311.82c-1.85-4.73-9.77-3.15-27.12,11.05-1.55,1.27-3.42,2.72-5.54,4.33,9.7-6,18.31-10.44,21-9.37,7.1,2.82-52.53,61.52-95.15,87.08-43.54,26.52-8-10.88.94-18.46-10.08,6.84-24.55,11.73-28.86,9.73-1.17.78-2.32,1.61-3.48,2.43-9.14,6.64-12,10.72-5.05,23,11.67,16.09,71.94-25.56,107-58.7S287.38,316.57,285.48,311.82Z"/></g><path class="cls-18" d="M253.89,331.13c-28.24,18.26-55.23,38.59-82.84,57.78-.78.53-1.24,2.56.14,1.71,28.78-17.33,56.14-37.55,83.21-57.42C255.39,332.46,255.5,330.07,253.89,331.13Z"/><path class="cls-9" d="M91.59,543.12S69.33,582,90.16,602.32C77.85,599,76,592.36,76,592.36S66,616,72.65,643c6.15,20.33,11.83,18,29.33,11.83,0,0-18,22.71-27,21.28S52.29,651.55,58.44,613.2,82.59,537,82.59,537Z"/><path class="cls-19" d="M72.65,643C66,616,76,592.36,76,592.36s1.88,6.65,14.19,10c-20.83-20.37,1.43-59.2,1.43-59.2l-9-6.13s-1.87,3.94-4.63,10.55c.35-.21.7-.41,1.05-.59,3.25-1.31,4.49,1.44,4.16,4.31-.6,5.24-3.76,10.24-4.83,15.46-1.74,8.59,1.1,15.83,2.57,24.14.09.47-.78,1.83-1.31,1.32A17.72,17.72,0,0,1,74,583.45a105.26,105.26,0,0,0-4.81,22.89c-.87,7.94-2.34,17.64-2.13,25.59.23,8.48.58,14.74,4.86,22,2.37,4,5.07,9.2,2.79,13.77-2.53,5.05-5.36,2-9.92-.84,3.28,5.61,7,8.83,10.2,9.3,9,1.43,27-21.28,27-21.28C84.48,661,78.8,663.34,72.65,643Z"/><path class="cls-20" d="M77.91,555.72c-10.59,28.47-33,73-10,101,.54.69,2-1.05,1.59-1.71-17.89-33.19-1.34-66.77,9.59-99.42C79.44,554.56,78.17,555.11,77.91,555.72Z"/><path class="cls-21" d="M277.6,458.87l7.58,8.85c-7.9,21.78-34.09,36.61-34.09,36.61l.3-6.95c-5.68,6.95-19.53,18-20.49,17s0,0,1.88-7.56c-6,7.88-22.69,21.42-22.69,21.42s-.67-1.56,4.07-11.66c-6,6.32-28.08,24-28.08,24s0-1.59,2.53-13.56c0,0-41.65,65.63-110.13,11.65C107.19,509.05,181.52,468.35,277.6,458.87Z"/><g class="cls-17"><path class="cls-22" d="M277.6,458.87c-10.68,1.06-21.05,2.53-31.17,4.27,14.08-1,25.87-.77,26.12,3,.63,9.46-15.15,14.5-20.18,21.44,1.89-8.84,1.89-13.25,1.89-13.25l-18.94,27.14,4.42-15.15L217,512.84l1.89-15.78-22.73,27.15,1.27-12.61S143.8,571.55,95.22,539.35c10-17.81,33.13-34.42,46.58-43-28.72,13.84-50.54,29.22-63.32,42.4,68.48,54,110.13-11.65,110.13-11.65-2.53,12-2.53,13.56-2.53,13.56s22.08-17.67,28.08-24c-4.74,10.1-4.07,11.66-4.07,11.66s16.7-13.54,22.69-21.42c-1.88,7.56-2.85,6.58-1.88,7.56s14.81-10.1,20.49-17l-.3,6.95s26.19-14.83,34.09-36.61Z"/></g><g class="cls-23"><path class="cls-22" d="M277.6,458.87c-.86.09-1.68.21-2.53.28,4.63,5.66,6.44,12.22.57,19.74a86.37,86.37,0,0,1-11.77,12.56c-2,1.74-4.34,4.13-6.91,5.07-4.77,1.74-5.2-4.93-5.5-8.66-5.89,7.41-9.31,16.47-15.67,23.54-.19.2-1.07.85-1.07.13V497.24a213.45,213.45,0,0,0-17.73,24c-.16.22-1.26,1.17-1.23.36.11-4.3,1-8.5,1.12-12.78,0-1-3.88,2.64-4.26,3-1.31,1.15-2.59,2.32-3.86,3.5-6.43,5.92-12.79,12-19.59,17.5-.17.16-1,.57-.87,0a41.06,41.06,0,0,1,2.86-10.6c-10.74,12-22.71,24-36.39,32.95,21.79-9.16,33.84-28.12,33.84-28.12-2.53,12-2.53,13.56-2.53,13.56s22.08-17.67,28.08-24c-4.74,10.1-4.07,11.66-4.07,11.66s16.7-13.54,22.69-21.42c-1.88,7.56-2.85,6.58-1.88,7.56s14.81-10.1,20.49-17l-.3,6.95s26.19-14.83,34.09-36.61Z"/></g><path class="cls-24" d="M131.77,543a26.05,26.05,0,0,1-10.16,3.62c1.69-2.73,2.67-5.79,4.47-8.48.24-.35-.21-.49-.44-.17-2.1,2.78-3.06,6.24-5.15,9-.18.21-.44.84.07.79a21.24,21.24,0,0,0,11.28-3.84C132.26,543.63,132.54,542.49,131.77,543Z"/><path class="cls-24" d="M157.21,528a42.65,42.65,0,0,1-5.27,4,74.9,74.9,0,0,1,3.77-7.42c.3-.46-.26-.46-.49-.11a72.84,72.84,0,0,0-4.54,8.61c-.19.33.12.58.4.38a43.05,43.05,0,0,0,6.43-4.86C157.9,528.23,157.76,527.51,157.21,528Z"/><path class="cls-24" d="M191.23,510.4a44.35,44.35,0,0,0-13.4,7.93c1.43-3.53,3-7,4.46-10.54.19-.49-.4-.36-.54-.05-2.05,4-3.95,8.19-5.63,12.4-.3.75.49.57.82.22,4-4.09,9-6.42,14.1-8.88C191.46,511.3,192,510.1,191.23,510.4Z"/><path class="cls-24" d="M203.53,491.2a60.56,60.56,0,0,0-10.81,5.07A30.62,30.62,0,0,1,194,492c.23-.64-.58-.33-.72,0a35.53,35.53,0,0,0-1.68,5.21c-.08.33.27.38.48.23a78.67,78.67,0,0,1,11.27-5.28C203.76,492,204.2,491,203.53,491.2Z"/><path class="cls-24" d="M221.09,496.34c-3.81,1.88-7.61,3.71-11.32,5.72-1,.58-2.06,1.17-3.07,1.77-1.19.71-1.44,1.13-1.28-.39a25.19,25.19,0,0,1,1.49-7c.19-.53-.49-.26-.6.07a35,35,0,0,0-2.11,9.29c-.07.42.28.48.54.32,5.29-3.34,10.95-5.89,16.41-8.9C221.58,496.93,221.79,496,221.09,496.34Z"/><path class="cls-24" d="M228.43,481.23a61.39,61.39,0,0,1-7.13,2.62,29.7,29.7,0,0,1,.4-3.94c.11-.47-.5,0-.55.22a26.23,26.23,0,0,0-.83,4.5c0,.25.13.35.41.32a26.62,26.62,0,0,0,7.67-3C228.62,481.8,228.9,481,228.43,481.23Z"/><path class="cls-24" d="M243,483.71c-4.19,1.87-8.25,4.08-12.33,6.21a27.4,27.4,0,0,1,1.57-5.18c.24-.54-.47-.39-.65-.05a32.15,32.15,0,0,0-2,6.1c-.14.41.12.61.5.41,4.35-2.09,8.67-4.34,12.92-6.69C243.2,484.35,243.49,483.45,243,483.71Z"/><path class="cls-24" d="M269.77,475.21c-4.93,1.45-9.68,4.84-13.75,8.08a24.24,24.24,0,0,1,2.88-5.73c.25-.35-.17-.5-.42-.2a23.94,23.94,0,0,0-3.75,7.12c-.18.55.26.62.63.34A118.17,118.17,0,0,1,269.74,476C270,475.8,270.3,475.08,269.77,475.21Z"/><path class="cls-25" d="M213.84,471.17c-38.07,11.41-75.9,27.7-102.58,58.18-1.26,1.44.09,2.47,1.36,1.16,27.35-28.41,63.71-43,100.44-54.9C215,475,217,470.23,213.84,471.17Z"/><path class="cls-26" d="M415.35,422s8.76,21.54-5.8,29.86-23.59,1.64-28.5-8.46C398.28,435.94,415.35,422,415.35,422Z"/><path class="cls-27" d="M273.63,243.53l-12.32,11.08c11.34,25.21,33.78,72.39,61.87,117.19,18.39,31.68,27.12,47.42,31.3,62.71,6.53,8,12.51,9.76,25.87,10.51,10.52-1.49,12.53-5.48,12.53-5.48C351.28,395.28,288.55,273.17,273.63,243.53Z"/><path class="cls-22" d="M273.63,243.53l-12.32,11.08c1.52,3.39,3.27,7.2,5.19,11.34,4.07-2.95,7.74-9,12.74-3.49a51,51,0,0,1,5.68,8.48c1.24,2.07,3.34,5.11,2.81,7.68-1.15,5.51-6.5,6.52-12.26,6.26.63,1.27,1.27,2.6,1.92,3.91,5.4-.36,11.88-1.87,15.62,1.93s7.51,10.58,5.7,16c-1.24,3.79-4.88,5.68-9,6.3,9.19,17.55,19.72,36.54,31.29,55.24,6.69.39,13.72-4.61,18.71,2.1,4.6,6.15,9.93,14,11,21.78,1,7.24-3.25,11.06-8.82,12.66,1,1.95,2,3.81,2.88,5.63a11.65,11.65,0,0,0,8.65,1,19.8,19.8,0,0,1,5.19-1c3.54.07,5.26,2.37,7.14,5.11,3.72,5.38,9.63,14.68,4.72,21a14.42,14.42,0,0,1-7.3,5.12c4.31,2.1,9.55,2.87,17.22,3.31,10.52-1.49,12.53-5.48,12.53-5.48C351.28,395.28,288.55,273.17,273.63,243.53Z"/><path class="cls-24" d="M404.38,400c-21.51-31-124-162.52-124-162.52l-6.71,6.05c14.92,29.64,77.65,151.75,119.25,196,0,0,3,8,10.5,3.48S425.89,431,404.38,400Z"/><g class="cls-17"><path class="cls-24" d="M414.34,419.13c-2.29,13.87-26.25-1.29-50.83-38-31.08-46.36-73.73-114-68.61-118.22,1.05-.87,4,.62,7.91,3.46-13.35-17.21-22.47-28.9-22.47-28.9l-6.71,6.05c14.92,29.64,77.65,151.75,119.25,196,0,0,3,8,10.5,3.48C409,439.64,418.85,434.57,414.34,419.13Z"/></g><g class="cls-4"><path class="cls-28" d="M292.12,277.82c-7.64,10.64-20.29,6.82-27.84-1.7-.24-.26-.82.41-.59.71,7.48,9.76,21.82,13,29.14,1.36C293.27,277.52,292.52,277.27,292.12,277.82Z"/><path class="cls-28" d="M302.15,307.49c-6,8-16,5.83-22.66-.09-.27-.21-.79.41-.56.63,6.86,6.88,18.05,8.82,23.92-.2C303.27,307.19,302.55,307,302.15,307.49Z"/><path class="cls-28" d="M334.26,357.6c-6.51,7.88-18.19,8.2-25.94,1.93-.25-.21-.72.36-.51.57,7.5,7.08,21.16,6.95,27-2.21C335.19,357.34,334.59,357.19,334.26,357.6Z"/><path class="cls-28" d="M361.24,399.12c-3.91,9.52-14.64,9.66-22.92,6-.27-.12-.75.54-.49.69,8.31,4.51,21.8,4.1,24.49-6.94C362.52,398.05,361.38,398.74,361.24,399.12Z"/></g><path class="cls-29" d="M261.31,254.61,255.36,260s34,75.52,71,128.55c14.87,24.49,21.75,38.22,28.13,46-4.18-15.29-12.91-31-31.3-62.71C295.09,327,272.65,279.82,261.31,254.61Z"/><path class="cls-30" d="M318.45,373.92c5.29,2.78,8.84,9.13,11.83,14.1a152.31,152.31,0,0,1,9.91,18.2,68.83,68.83,0,0,1,4.1,12.75c4,6.83,7.2,11.86,10.19,15.54-4.18-15.29-12.91-31-31.3-62.71-28.09-44.8-50.53-92-61.87-117.19L255.36,260s2.08,4.63,5.73,12.35c3.67-3.84,9.92,9,10.73,10.88,4.49,10.48,8.85,20.91,13.76,31.21,2.14,4.39,3.87,9,4.09,13.88,8.37,15.28,17.72,31.41,27.5,46.55C317.38,374.35,317.93,373.62,318.45,373.92Z"/><path class="cls-24" d="M26.89,253.45s-3-10.27,2.51-10.73,11.36,1.74,11.67,4.89S26.89,253.45,26.89,253.45Z"/><path class="cls-24" d="M937.45,376.51c1.9-7.58-207.33-41.17-332.3-22.23-59.42,10.14-140.53,30.58-185.76,66.37-18.73,28.1,30.57,34.77,107.66,39.63,159.05,5.69,311.47-50.62,335.6-56.8C862.65,403.48,935.56,384.09,937.45,376.51Z"/><g class="cls-17"><path class="cls-24" d="M859.68,360.28c15,6.19-14,9.68-67.24,22.35C712.91,401.56,433.23,432.56,453.11,408s152-53.67,152-53.67c-59.42,10.14-140.53,30.58-185.76,66.37-18.73,28.1,30.57,34.77,107.66,39.63,159.05,5.69,311.47-50.62,335.6-56.8,0,0,72.91-19.39,74.8-27C938.2,373.53,906.27,366.54,859.68,360.28Z"/></g><path class="cls-31" d="M910.92,368.52C882,380.71,771.3,398,586.23,422c-94.4,12.19-144.14,10.15-168.89,2.29-12.23,25.06,36.05,31.37,109.71,36,159.05,5.69,311.47-50.62,335.6-56.8,0,0,72.91-19.39,74.8-27C937.86,374.84,928,371.9,910.92,368.52Z"/><path class="cls-32" d="M506.21,409.23c-13.88,5.95-27.42,12.61-41.06,19.07-.46.22-1,1.56-.21,1.2,13.75-6.05,27.47-12.25,41-18.79C506.51,410.43,507.2,408.78,506.21,409.23Z"/><path class="cls-32" d="M501.89,444.27c-7.62-4.58-15.36-9-23-13.57-.65-.4-1.86,1-1.24,1.47,7.21,5.24,14.64,10.34,22.66,14.26C501.14,446.84,502.73,444.77,501.89,444.27Z"/><path class="cls-32" d="M557.14,436c-8.07-2.92-16-6.32-24.29-8.51-.5-.14-1.31,1-.71,1.17,8.12,2.7,15.81,6.52,24,9C556.84,437.92,558,436.34,557.14,436Z"/><path class="cls-32" d="M573.16,406.91c-10.76,6.38-22.13,12-32.41,19.16-.35.23-.58,1.14,0,.78,10.89-6.09,22-12,32.45-18.71C573.84,407.74,574.16,406.29,573.16,406.91Z"/><path class="cls-32" d="M595.39,432c-6.75-3.1-13.84-5.35-20.65-8.2-.48-.19-1.23.87-.69,1.13a150.82,150.82,0,0,0,20.55,8.38C595.14,433.44,596,432.24,595.39,432Z"/><path class="cls-32" d="M651.42,396c-14.71,6.22-29.95,13.17-43,22.48-.38.25-.65,1.25.07.84,14-8.1,28.5-14.75,42.86-22.13C651.81,397,652.26,395.64,651.42,396Z"/><path class="cls-32" d="M646.62,426.33c-7.27-3.44-14.84-6.12-21.79-10.17-.53-.29-1.49.83-1,1.18C630.54,422,638,425.2,645.6,428,646.3,428.27,647.42,426.7,646.62,426.33Z"/><path class="cls-32" d="M722.22,389.72a170.06,170.06,0,0,0-34.75,16.53c-.56.35-.81,1.66.1,1.14,10.94-6.55,22.52-11.54,34.39-16.13C722.57,391,723.28,389.32,722.22,389.72Z"/><path class="cls-32" d="M702.13,421.27a245.93,245.93,0,0,1-25.23-12.44c-.44-.26-1.28.66-.86,1a64.22,64.22,0,0,0,25.25,12.81C701.9,422.79,702.82,421.57,702.13,421.27Z"/><path class="cls-32" d="M797.51,376.61a135.81,135.81,0,0,0-45,21.7c-.54.38-.82,1.82.11,1.2a158.22,158.22,0,0,1,44.59-21.19C797.93,378.1,798.71,376.29,797.51,376.61Z"/><path class="cls-32" d="M773.19,408.57c-8.69-2.82-17.39-5.39-25.58-9.45-.54-.25-1.56,1.13-1,1.42a118.14,118.14,0,0,0,25.69,9.55C772.92,410.26,773.92,408.85,773.19,408.57Z"/><path class="cls-32" d="M837.59,392.4c-6.43-.76-12.89-1.37-19.06-3.58-.51-.19-1.38,1-.75,1.27,6,2.64,12.33,3.45,18.81,4C837.33,394.13,838.43,392.52,837.59,392.4Z"/><path class="cls-32" d="M835,374.15c-9.35,4.43-18.52,9.08-26.59,15.67-.82.65-.56,2.06.54,1.19,7.86-6.43,16.91-10.91,26-15.39C835.53,375.34,836,373.7,835,374.15Z"/><path class="cls-33" d="M934.23,372.15c-48.7,16.24-129.89,48.43-282.67,70.34-143.64,20.61-213.39-1.2-235.86-10.94,3.5,17.32,48,22.53,111.35,26.56,159.05,5.68,311.47-50.64,335.6-56.8,0,0,72.91-19.41,74.8-27C937.59,373.76,936.45,373,934.23,372.15Z"/><path class="cls-34" d="M828.08,357.35c-124.19-10.55-255.23-11.88-369.31,45.28-1.38.68-1.94,3.66.21,2.59,114.76-56.58,243-51.48,367.22-44.06C827.67,361.25,829.8,357.5,828.08,357.35Z"/><path class="cls-34" d="M847,362c-.12,1.26-3.06,2-6.54,1.69s-6.18-1.72-6.06-3,3.06-2,6.53-1.65S847.15,360.72,847,362Z"/><path class="cls-35" d="M384.78,378.7c-20-35.11-47.09-65.86-71.89-97.54-.38-.51-1.6.77-1.24,1.26,23.52,32.88,48.87,64.25,70.85,98.24C383.24,381.81,385.33,379.68,384.78,378.7Z"/><path class="cls-35" d="M390.86,386.8a25,25,0,0,1-3.05-3.61c-.59-1.08-2.53.87-2,1.8a12.74,12.74,0,0,0,3.27,4C389.91,389.72,391.57,387.65,390.86,386.8Z"/><path class="cls-24" d="M293.22,341s-7.09,47.33-15.13,84.26c-7.58,30.77-5.23,36,2.83,41.67s10.88,4.26,17.51-21.81S322.08,328.72,310.74,315C299.86,302.67,296.07,331.08,293.22,341Z"/><path class="cls-36" d="M310.74,315c-10.88-12.3-14.67,16.11-17.52,26,0,0-2.74,18.41-6.78,41.18h0s11.41-50.55,16.42-55.53c6.92-6.93,1.89,58.06-7.58,99.1s-13.28,34.05-10.74,7.55c-3.29,7.1-7.08,13.53-11.05,18-.24,8.9,2.54,12.16,7.43,15.64,8.05,5.64,10.88,4.26,17.51-21.81S322.08,328.72,310.74,315Z"/><path class="cls-27" d="M298.37,337.65c-8,31.18-13.4,63.75-18.41,95.56-.37,2.25,2.58.2,2.86-1,7.38-31.15,11.4-63.49,16.93-95.05C300,336.07,298.51,337.06,298.37,337.65Z"/><path class="cls-37" d="M309.78,313.39c-.31-.43-1,.37-.85.76,7.81,17.49,3.51,35.27,2.27,53.53-.11,1.56,1.78.15,1.94-.69C316.32,351.2,319.83,327.34,309.78,313.39Z"/><path class="cls-24" d="M160.22,209.43s4.25,29.83,46.39,60.11c28.86,18.48,44.95,4.28,71.48-21.78s51.47-89.64,1.71-95.28c-41.64-4.74-83.29-4.74-107.91,9.14C150.73,173.56,160.22,209.43,160.22,209.43Z"/><path class="cls-36" d="M279.8,152.48c-41.64-4.74-83.29-4.74-107.91,9.14C161,167.79,158.21,180.31,158.11,191c6.79,1.18,13.94-.39,20.75-1.51,9.32-1.58,18.75-3.66,27.28-7.82,5.27-2.58,11.41-8.69,17.47-9.18,6.53-.48,11.11,5.84,17.65,6,.5,0-.06.94-.16,1.07-10.38,11.78-13.94,29.13-10.27,44.33a46,46,0,0,0,3.35,9.81c1.14,2.36,2.67,5,2.74,7.69.11,5-2.93,10-6.3,13.58-9.93,10.37-23.17,9.78-35.79,5.35,3.57,3.06,7.45,6.15,11.78,9.25,28.86,18.48,44.95,4.28,71.48-21.78S329.56,158.12,279.8,152.48Z"/><path class="cls-31" d="M203.46,264.85s34.56,12.59,41.73-23.46c2-8.66,9.14,19.25-3.44,30.6S208.39,271,203.46,264.85Z"/><path class="cls-38" d="M197,232.45s-3.76,10.42-2.52,18.36c-10-7.94-12.49-16.27-12.49-16.27Z"/><path class="cls-38" d="M260.74,238.29S263.22,248.71,262,255a45.18,45.18,0,0,0,10-16.25Z"/><path class="cls-31" d="M301.92,215.23c-10.08,24-31.85,37.78-48.63,30.71s-22.22-32.21-12.12-56.22S273,152,289.81,159,312,191.21,301.92,215.23Z"/><path class="cls-39" d="M305.12,210.65c-10.07,24-31.85,37.78-48.64,30.71s-22.19-32.21-12.13-56.21,31.87-37.78,48.64-30.74S315.2,186.65,305.12,210.65Z"/><g class="cls-4"><path class="cls-40" d="M293,154.41c-16.77-7-38.56,6.73-48.64,30.74s-4.63,49.19,12.13,56.21,38.57-6.71,48.64-30.71S309.78,161.47,293,154.41Zm6.43,56.68c-8.54,20.32-27,32-41.22,26S239.39,209.83,248,189.48s27-32,41.2-26S308,190.74,299.42,211.09Z"/></g><path class="cls-31" d="M214.68,197.57c4,22.39-5.49,42.79-21.09,45.58S162.11,230,158.14,207.6s5.47-42.79,21.07-45.56S210.71,175.17,214.68,197.57Z"/><path class="cls-39" d="M213.18,191.81c3.95,22.41-5.49,42.8-21.07,45.55s-31.51-13.15-35.47-35.54,5.47-42.79,21.09-45.56S209.19,169.42,213.18,191.81Z"/><g class="cls-4"><path class="cls-40" d="M213.18,191.81c-4-22.39-19.85-38.32-35.45-35.55s-25.08,23.16-21.09,45.56,19.85,38.31,35.47,35.54S217.13,214.22,213.18,191.81ZM192.25,231c-12.55,2.21-25.29-10.58-28.47-28.56s4.39-34.38,16.92-36.61,25.31,10.57,28.49,28.55S204.81,228.75,192.25,231Z"/></g><path class="cls-41" d="M258.61,208.15c-.74,10.27,4.21,18.82,11.07,19.1s13-7.8,13.75-18.07-4.22-18.86-11.07-19.14S259.34,197.87,258.61,208.15Z"/><path class="cls-42" d="M258.61,208.15c-.74,10.27,4.21,18.82,11.07,19.1s13-7.8,13.75-18.07-4.22-18.86-11.07-19.14S259.34,197.87,258.61,208.15Z"/><path class="cls-43" d="M261.47,208.94c-.54,7.86,3.25,14.37,8.48,14.61s9.92-6,10.5-13.82-3.24-14.37-8.46-14.6S262.05,201.11,261.47,208.94Z"/><path class="cls-44" d="M265.91,209.62c-.33,5,2,9.13,5.38,9.27s6.31-3.81,6.66-8.78-2.05-9.12-5.37-9.26S266.28,204.63,265.91,209.62Z"/><g class="cls-4"><path class="cls-42" d="M283.47,206.19c0,1,0,2,0,3-.73,10.27-6.9,18.38-13.75,18.07s-11.81-8.83-11.07-19.1a25.06,25.06,0,0,1,.36-2.81C266,211.26,276.81,213,283.47,206.19Z"/></g><path class="cls-39" d="M271,203.25c.07,4.11,2.36,7.32,5.12,7.13s4.93-3.66,4.88-7.78-2.36-7.31-5.12-7.13S271,199.13,271,203.25Z"/><path class="cls-39" d="M273.18,214.69c0,1.54.89,2.73,1.9,2.65s1.82-1.36,1.8-2.87-.85-2.71-1.88-2.65S273.16,213.18,273.18,214.69Z"/><path class="cls-41" d="M177.17,204.77c-.39,10.29,4.86,18.68,11.72,18.75S201.63,215.27,202,205s-4.86-18.7-11.71-18.74S177.57,194.46,177.17,204.77Z"/><path class="cls-42" d="M177.17,204.77c-.39,10.29,4.86,18.68,11.72,18.75S201.63,215.27,202,205s-4.86-18.7-11.71-18.74S177.57,194.46,177.17,204.77Z"/><path class="cls-43" d="M180.09,205.48c-.3,7.87,3.7,14.27,8.94,14.31s9.73-6.3,10-14.15-3.7-14.29-8.95-14.31S180.4,197.61,180.09,205.48Z"/><path class="cls-44" d="M184.56,206c-.21,5,2.34,9.06,5.64,9.08s6.19-4,6.38-9-2.34-9.06-5.66-9.08S184.73,201,184.56,206Z"/><g class="cls-4"><path class="cls-42" d="M202,202a26.31,26.31,0,0,1,.07,3c-.4,10.3-6.29,18.61-13.14,18.55s-12.11-8.46-11.72-18.75a23.62,23.62,0,0,1,.28-2.82C184.7,207.62,195.55,209,202,202Z"/></g><path class="cls-39" d="M189.4,199.46c.21,4.1,2.62,7.23,5.36,6.95s4.81-3.81,4.61-7.92-2.58-7.22-5.34-7S189.21,195.36,189.4,199.46Z"/><path class="cls-39" d="M192,210.84c.06,1.54,1,2.68,2,2.57s1.78-1.43,1.71-2.94-1-2.67-2-2.56S191.91,209.31,192,210.84Z"/><path class="cls-45" d="M206.14,266.61s31.67,12.08,40.45-23.33C249.91,267.05,234.9,283.72,206.14,266.61Z"/><path class="cls-45" d="M241.17,263.69a31.67,31.67,0,0,0-13.4,9.89,17.89,17.89,0,0,0,16.74-11C243.41,262.9,242.27,263.3,241.17,263.69Z"/><path class="cls-46" d="M235.42,264.89a54.14,54.14,0,0,1,9.82-4.12,37.16,37.16,0,0,0,1.35-17.49c-8.78,35.41-40.45,23.33-40.45,23.33,7.89,4.71,14.73,6.82,20.46,7A27.33,27.33,0,0,1,235.42,264.89Z"/><path class="cls-38" d="M216.22,203.8s13.4-3.1,20.13.25C234,198.7,221.06,198.58,216.22,203.8Z"/><path class="cls-21" d="M209.75,173c15.15-7.59,14.51-6.64,22.4-2.21,7.67,4.27,27.8,11.83,68.79-9.07-4.56-4.83-11.41-8.13-21.14-9.23-39.12-4.45-78.24-4.72-103.24,6.78C185.19,167.38,199.46,178.13,209.75,173Z"/><g class="cls-4"><path class="cls-21" d="M279.8,152.48c-8.25-.95-16.51-1.68-24.64-2.18,2.1,1,3.76,2.42,2.31,5-2.31,4.14-5.21,8.22-9.12,11s-9.43,5.13-13.59,1.58c-2.38-2.05-4.46-5.14-7.64-6s-5.82-.32-8.79.65c-5.19,1.67-9.85,2.52-14.94-.22-4.42-2.42-8.14-5.8-12.54-8a84.71,84.71,0,0,0-14.29,4.95c8.63,8.12,22.9,18.87,33.19,13.73,15.15-7.59,14.51-6.64,22.4-2.21,7.67,4.27,27.8,11.83,68.79-9.07C296.38,156.88,289.53,153.58,279.8,152.48Z"/></g><path class="cls-47" d="M304.87,165.11A25.42,25.42,0,0,0,293,154.41c-16.77-7-38.56,6.73-48.64,30.74a65.44,65.44,0,0,0-4.75,18.44C248.7,192.83,271.92,169.46,304.87,165.11Z"/><g class="cls-48"><path class="cls-47" d="M287.94,164.23c-7.06,2.56-13.61,6-20.27,9.57-4.08,2.17-9.47,6.24-14.2,6.36-3.83.09-1-7.48.79-11.41a65.78,65.78,0,0,0-14.66,34.84c9.1-10.76,32.32-34.13,65.27-38.48a27.82,27.82,0,0,0-3.47-4.68A113.41,113.41,0,0,0,287.94,164.23Z"/></g><path class="cls-47" d="M214,200.85a59.88,59.88,0,0,0-.85-9c-4-22.39-19.85-38.32-35.45-35.55a22.06,22.06,0,0,0-12.44,7.12C175.63,166.48,197.38,175.65,214,200.85Z"/><path class="cls-49" d="M235.91,267.69c-.91.83-2,1.16-2.34.71s0-1.43.92-2.24,1.94-1.15,2.33-.72S236.82,266.87,235.91,267.69Z"/><g class="cls-48"><path class="cls-47" d="M213.18,191.81a55.41,55.41,0,0,0-7.36-19.52c6,11.38,4.44,20-5.73,8.26-8.81-10.17-22.61-17.09-30.94-20.6a23.49,23.49,0,0,0-3.86,3.43c10.34,3.1,32.09,12.27,48.74,37.47A59.88,59.88,0,0,0,213.18,191.81Z"/></g><path class="cls-50" d="M287.8,155.15c-11.46-.55-27.15,5.59-31.85,16.94-1.1,2.64,1.45,2.76,3.06,1.57,4.05-3,7-7,11.34-9.7a36.11,36.11,0,0,1,16-5C287.84,158.82,290.2,155.26,287.8,155.15Z"/><path class="cls-50" d="M199.37,167.17c-2.44-6.35-11.65-10.63-18.17-9.08-1.08.24-2.9,2.49-1.76,3.52,2,1.84,4.63,3,6.85,4.53,2.74,2,5,4.52,7.69,6.51S200.3,169.53,199.37,167.17Z"/><path class="cls-21" d="M241.17,246.12c-4.79,10.28-15.48,22.36-28,17.49-.58-.23-1.66,1.17-1.09,1.52,13.53,7.87,27.89-7.37,32.19-19.28C245.28,243,241.89,244.6,241.17,246.12Z"/><path class="cls-21" d="M216.83,201.5c-.17-.62-1.1.41-1.08.78.82,14.45-3.1,25-12.69,35.81-1.19,1.32-.29,3.1,1.31,1.74C215.12,230.82,221.11,215.16,216.83,201.5Z"/><path class="cls-51" d="M243.06,158.31s59.65-136.79,124-146.74c18.92-1.42,32.16,7.1,29.79-6.15S342,2.1,304.58,48s-65.79,105.1-66.26,109.35S241.62,160.68,243.06,158.31Z"/><path class="cls-52" d="M258.19,125.47c-1.92.07-2.64-1.48-2.8-3.21-10.52,19.08-16.86,33.1-17.07,35.1-.47,4.26,3.3,3.32,4.74.95,0,0,6-13.82,16.28-33A6.54,6.54,0,0,1,258.19,125.47Z"/><path class="cls-39" d="M379.8,1.09a76.61,76.61,0,0,0-26.56,8.83C334,20.24,318,36.26,302.79,51.67c-.17.16-.12.49.11.26,13.92-13.28,27.69-26.84,44-37.28a80.41,80.41,0,0,1,27.5-11.72,56.38,56.38,0,0,1,10.2-1.13c5.17-.07,7.39,3.18,9.33,7.49.21.47,1-.34.93-.69C393,.78,386.7.19,379.8,1.09Z"/><path class="cls-51" d="M206.35,157.22S126,25.46,71.74,21.55c-9.79-1-7.36,3.41-15.67-3.43S68.3,1.49,107.91,33.76s99.26,109,105.6,126.64C213.51,160.4,209.82,164.16,206.35,157.22Z"/><path class="cls-52" d="M186.53,119.49c.13.31.28.61.4.89,1.26,2.8,2.49,6.36,1.33,9.34,11.15,16.15,18.09,27.5,18.09,27.5,3.47,6.94,7.16,3.18,7.16,3.18C211.06,153.6,200.63,138,186.53,119.49Z"/><path class="cls-39" d="M136.72,62a229.13,229.13,0,0,0-34.23-30.58C90.28,22.49,76.33,15.12,61,14.06c-.21,0-.51.48-.28.48,31.22,2.75,53.8,28.32,75.44,48.14C136.44,62.92,137,62.24,136.72,62Z"/><path class="cls-39" d="M196.61,259.06a92.6,92.6,0,0,1-17.87-17.78c-.16-.22-.65.31-.52.52A58.63,58.63,0,0,0,195.85,260C196.25,260.28,197,259.35,196.61,259.06Z"/><path class="cls-39" d="M201.35,262.7a14.46,14.46,0,0,0-2-1.52c-.31-.21-.87.48-.59.7.68.46,1.26,1.11,2,1.5C201.09,263.54,201.63,263,201.35,262.7Z"/><path class="cls-53" d="M247.35,174.21c-4.71,1.34-8.68,1.17-12.65-1.85-2.46-1.86-4.49-4.12-7.3-5.5-6.53-3.23-14.34,4.54-19.69,7.31-.19.11-.39.68,0,.54,3.67-1.43,6.92-3.78,10.33-5.64,4.61-2.49,8-2,11.92,1.22,5.62,4.74,9.64,7.8,17.26,5C247.63,175.17,248.16,174,247.35,174.21Z"/><path class="cls-3" d="M26.59,257.26s12.67,60.8,30.19,91.34c-8.52-3.56-9.45-4.73-9.45-4.73s6.38,17.5,14.64,25.06a97,97,0,0,1-9.68-4s7.81,17,17.51,25.09a62.2,62.2,0,0,1-8.53-3.31s7.11,12.77,14.7,18.2l-4.51-1.18s18.92,24.61,49.94,25.1c20.58-1.66,22.95-4.27,13.73-25.1S87.8,306.44,66,275.22s-25.57-29.82-32.66-27S26.59,257.26,26.59,257.26Z"/><path class="cls-2" d="M100.15,404.56c-7.44-1.73-13-6-17.53-11.89a57,57,0,0,0,7.66,1.12c.21,0,.59-.43.31-.53-3.13-.9-6.36-.86-9.31-2.28-.32-.16-.89.59-.7.86,4.58,6.62,10.71,12.57,19,13.63C100,405.51,100.64,404.66,100.15,404.56Z"/><path class="cls-2" d="M105.55,391.36a30.67,30.67,0,0,1-7.45-4.65,33,33,0,0,1-4.9-6c1.71.48,3.47.75,5.18,1.29.37.08.93-.66.51-.83C96.64,380.3,94.23,380,92,379c-.37-.16-1,.63-.8,1,3.12,5.12,7.54,10.95,13.71,12.43C105.34,392.52,106.05,391.6,105.55,391.36Z"/><path class="cls-2" d="M93.67,369.28c-2.4-2.63-5.17-5.09-6.66-8.34,1.52,1.18,2.85,2.58,4.35,3.8.3.27.93-.49.63-.73-2-1.62-3.58-3.59-5.7-5-.4-.25-.85.44-.78.82,1,4.13,4.38,7.51,7.44,10.31C93.28,370.44,94,369.62,93.67,369.28Z"/><path class="cls-2" d="M72.84,367.91a69.59,69.59,0,0,0,8.26,3.94c.37.16,1.05-.75.69-1-3.55-2.08-7.6-2.82-10.7-5.73-.29-.27-1,.47-.77.79a52.06,52.06,0,0,0,10.82,13.52c.24.23.79-.41.56-.66A68.53,68.53,0,0,1,72.84,367.91Z"/><path class="cls-2" d="M73.56,347.52C70.45,345.41,67,345,65,341.45c-.23-.44-.93.28-.84.62a23.56,23.56,0,0,0,7.6,13.52c.21.17.57-.31.42-.49-2.89-3.39-5.26-6.81-6.52-11,2,2,4.58,2.84,7.18,4.25C73.22,348.6,73.92,347.77,73.56,347.52Z"/><path class="cls-2" d="M65.78,323.3c-2.25-2-5.36-2-7-4.82-.23-.42-.81.22-.82.5-.3,3.27.89,5.95,2.58,8.71.19.34.75-.25.6-.53a17.13,17.13,0,0,1-2.36-6.85c1.64,1.87,4.07,2.43,6.2,3.87C65.41,324.46,66.11,323.6,65.78,323.3Z"/><path class="cls-2" d="M60,305.28a22.84,22.84,0,0,0-4.47-2.66A11,11,0,0,1,51,298.38c-.26-.43-.81.29-.81.57a21.88,21.88,0,0,0,2.2,8.19c.11.27.63-.21.51-.46a27.7,27.7,0,0,1-1.75-6.23,10.92,10.92,0,0,0,3.25,2.82,42.26,42.26,0,0,1,4.86,2.83C59.65,306.36,60.31,305.56,60,305.28Z"/><g class="cls-4"><path class="cls-3" d="M135.13,403.73a2.75,2.75,0,0,1-.14-.3c.23,5-1.1,8.85-5.7,9.06,8.2,10.09-28.65,4.13-48.71-20.65,10.83,4.24,15.9,2.34,15.9,2.34S76.37,376.85,70.32,366c11.62,6.14,16.67,5.5,16.67,5.5s-15.51-14.24-21.33-27.32c8.07,4,13.14,6.5,13.14,6.5S58.65,333.38,58,319a46.81,46.81,0,0,0,7.77,4.32S51.61,307.94,51,298.38c7.58,7.45,13.28,8.71,13.28,8.71s-27.16-18.3-29.06-54.26c-.11-1.92-.11-3.66-.05-5.3-.61.23-1.21.46-1.82.72-7.13,2.84-6.78,9-6.78,9s12.67,60.8,30.19,91.34c-8.52-3.56-9.45-4.73-9.45-4.73s6.38,17.5,14.64,25.06a97,97,0,0,1-9.68-4s7.81,17,17.51,25.09a62.2,62.2,0,0,1-8.53-3.31s7.11,12.77,14.7,18.2l-4.51-1.18s18.92,24.61,49.94,25.1C142,427.17,144.35,424.56,135.13,403.73Z"/></g><g class="cls-4"><path class="cls-6" d="M68,382.17c-.16-.49.61-1.56,1.19-1.38l8.73,2.93C72.14,375,63.79,368,59.81,358.19c-.25-.56.75-1.66,1.31-1.31A55.26,55.26,0,0,0,69.71,361c-4-5.88-9.26-10.81-11.18-17.92-.16-.55.72-1.61,1.33-1.3a12.61,12.61,0,0,0,2.36.94c-6.33-6.95-14.59-14.26-15.69-23.75-.07-.51.68-1.34,1.2-1.25A24.49,24.49,0,0,0,51,318a114.22,114.22,0,0,1-12-13.48c4.87,15.7,11,32.17,17.78,44.06-8.52-3.56-9.45-4.73-9.45-4.73s6.38,17.5,14.64,25.06a97,97,0,0,1-9.68-4s7.81,17,17.51,25.09a62.2,62.2,0,0,1-8.53-3.31s7.11,12.77,14.7,18.2l-4.51-1.18s14.41,18.73,38.7,23.85C90.71,417.49,73.91,403.19,68,382.17Z"/></g><path class="cls-54" d="M118.39,382c-5.29-21.83-17.38-43.62-28-63.25-11.54-21.22-25.14-41.61-41.95-59-.47-.45-1.5.79-1.08,1.29a340.82,340.82,0,0,1,39.59,60.72c5.4,10.51,10.24,21.28,14.78,32.19,4.32,10.3,7.27,21.4,12.11,31.46C114.91,387.72,118.83,383.81,118.39,382Z"/><path class="cls-26" d="M555.6,490.33c0,9.28-7.93,16.8-17.75,16.8s-17.77-7.52-17.77-16.8,8-16.82,17.77-16.82S555.6,481.06,555.6,490.33Z"/><path class="cls-55" d="M537.85,473.51a18.41,18.41,0,0,0-8.74,2.19c1.12.83,1.8,2.36,1.77,4.7-.12,4.48-4.54,8.59-3.13,13.17,1.26,4,4,6.81,6.52,10a13.54,13.54,0,0,1,2,3.48c.5,0,1,.05,1.55.05,9.82,0,17.75-7.52,17.75-16.8S547.67,473.51,537.85,473.51Z"/><path class="cls-56" d="M527.75,500.22c-4.23-6.06-6.13-12.36-1.89-19.11.39-.6-.28-.76-.68-.32a15.57,15.57,0,0,0,1,21.06C526.76,502.43,528.19,500.83,527.75,500.22Z"/><path class="cls-26" d="M439.6,462.87c4.25,8.19,1.47,18.08-6.18,22s-17.32.54-21.56-7.66-1.47-18.08,6.2-22S435.38,454.66,439.6,462.87Z"/><path class="cls-55" d="M439.6,462.87c-4.22-8.21-13.89-11.65-21.54-7.68-.37.19-.7.4-1,.6a4.61,4.61,0,0,1,1.05,4.7c-1.47,4.07-3.48,7.29-2.36,11.86,1,4,4.28,8.46,4.63,12.84a15.2,15.2,0,0,0,13.07-.3C441.07,481,443.85,471.06,439.6,462.87Z"/><path class="cls-56" d="M416.68,478.46c-3.22-6.08-4.93-12.25-1.54-18.72.35-.66-.35-.59-.64-.16-4.28,6.08-3.62,14.25.71,20.14C415.74,480.46,417,479.13,416.68,478.46Z"/><path class="cls-24" d="M459.05,558.28s-105.39,47-126.22,58.07c-10.1,7.24-3.79,9.48,10.73,3.47s126.53-52.71,126.53-52.71Z"/><path class="cls-21" d="M328.09,622.53s8.72-3.33,13.35,5.86,66.35,156.15,70.1,203.47c.49,7.1-12.75-1.41-11.81-8.52S374.17,737.2,349.06,678C328.5,629.47,325.11,623.84,328.09,622.53Z"/><path class="cls-22" d="M341.44,628.39c-4.63-9.19-13.35-5.86-13.35-5.86-1.81.82-1.27,3.2,4.06,15.88a8.59,8.59,0,0,1,2.13-2.61c5.12-4.08,8.88,9.41,9.57,12.2,1.59,6.4,4.9,12.58,7.31,18.69,2.57,6.49,4.49,13.15,6.83,19.72,4.89,13.77,11.32,26.86,17.44,40.07A372.12,372.12,0,0,1,391.59,768a233.71,233.71,0,0,1,7.3,26.86c1.17,6.14,2.41,12.74,1.56,19a17.75,17.75,0,0,1-1.33,4.92,18.79,18.79,0,0,1,.61,4.59c-.94,7.11,12.3,15.62,11.81,8.52C407.79,784.54,346.11,637.58,341.44,628.39Z"/><g class="cls-17"><path class="cls-24" d="M459.05,558.28s-20.56,9.15-45.31,20.4a6,6,0,0,1,.65,0s36.95-17,40.71-14.67-54.9,26.51-85.19,41.18c-23.92,11.6-30.72,11.37-23.43,4.44-5.91,2.88-10.66,5.17-13.65,6.77-10.1,7.24-3.79,9.48,10.73,3.47s126.53-52.71,126.53-52.71Z"/></g><path class="cls-24" d="M466.3,542.09c-3.56-9.61-7.35-19-10-28.9-3.88-14.52-8.33-29.94-18.19-41.69-2.69-3.25-19.2-15.91-19.67-4.35-.35,8.65,5,18.36,8.49,26,5.45,11.93,12.68,22.57,17.23,34.92C449.65,543,454,563.77,471,569.49c.59.17,1.13-.75,1.15-1.21C472.42,559.25,469.39,550.46,466.3,542.09Z"/><path class="cls-36" d="M464.85,553.47c-6.45-7.83-9.61-17.54-13.51-26.76-4.19-10-8.5-20.22-13.83-29.62A127.28,127.28,0,0,1,430,482.44c-1.22-3-3.68-8.42-1.5-11.58,1.66-2.45,4.49-2.51,7.13-1.73-5.45-4.56-16.81-11.55-17.19-2-.35,8.65,5,18.36,8.49,26,5.45,11.93,12.68,22.57,17.23,34.92C449.65,543,454,563.77,471,569.49c.59.17,1.13-.75,1.15-1.21a46.22,46.22,0,0,0-.8-9.26A26,26,0,0,1,464.85,553.47Z"/><path class="cls-27" d="M436.16,472.07c-.47-.8-1.92.64-1.54,1.33,12.6,21.41,18.94,44.11,27.23,67.26.31.89,1.8-.57,1.67-1.21C458.86,515.93,448.53,492.49,436.16,472.07Z"/><path class="cls-27" d="M448.62,568.86c-29.95,10-58.81,24.56-88.1,36.33-.33.13-.77,1-.17.85,30.24-8.07,59.06-23.82,88-35.6C449,570.19,449.76,568.46,448.62,568.86Z"/><path class="cls-25" d="M386.73,771.18c-11.09-32.85-22.38-65.69-36.22-97.49-.24-.57-1.26.39-1.05.89,13.58,32,24.1,65,36.14,97.6C385.82,772.8,386.94,771.72,386.73,771.18Z"/><path class="cls-9" d="M744.39,822.34s-9.92,3.07-4.44,24.87c2.4-6.52,4.13-8.05,4.13-8.05L746.63,850l3.27-7.72s31.11,21.31,45.3,19.91a44.75,44.75,0,0,1,6.42,19l3.75-7.14,1.68,20.61s15.86-22.72-4-37.39S756.15,838,747.15,822.41C746.44,820.72,744.39,822.34,744.39,822.34Z"/><path class="cls-24" d="M672.48,477.8c-.06,0-.09,0-.11,0-7.57,4.71-57.75,71.47-64.84,75.26,0,0-11.71,4.33-7.08,18.22,7.47,6.9,17,8.94,19.52-2.29s7.92-18.31,19.59-32.83,30.61-34,30.61-34C669.56,489.36,670.92,482,672.48,477.8Z"/><path class="cls-21" d="M735.32,736.26c-10-41.67-31.71-142-39.29-175.12s-16-87.65-23.55-83.34c-1.56,4.2-2.92,11.56-2.31,24.33,0,0,27.29,106.81,36.76,151.3s26.51,121.17,29.34,143c3.32,21.29,3.79,28.85,9.45,27.93S745.28,777.91,735.32,736.26Z"/><path class="cls-24" d="M607.69,553.53s-30.54-37.4-42.39-52.08-23.2-20.34-29.56-16.09-5.93,12.3,11.58,29.12c18.92,18.21,53,57,53,57a1.78,1.78,0,0,1,.26.22C596,557.84,607.69,553.53,607.69,553.53Z"/><g class="cls-4"><path class="cls-57" d="M811.73,882.16c-1.19-2.42-1.82-5-2.88-7.49C808,872.79,806.8,868,804,871c-.16.15-.72.69-1,.39-3.3-3.72-3-8.74-7.36-11.89-4.68-3.38-11.13-5.13-16.58-7-5.1-1.69-10.82-3-15.27-6.18a68.78,68.78,0,0,1-7.72-6.21c-2.31-2.21-4-5-7.41-2.81-.14.08-.47.22-.63.08-2.73-2.81-3.18-7.51.44-9.72a7,7,0,0,1,2.06-.69,26,26,0,0,1-3.43-4.52c-.71-1.69-2.76-.07-2.76-.07s-9.92,3.07-4.44,24.87c2.4-6.52,4.13-8.05,4.13-8.05L746.63,850l3.27-7.72s31.11,21.31,45.3,19.91a44.75,44.75,0,0,1,6.42,19l3.75-7.14,1.68,20.61a38.88,38.88,0,0,0,5.12-11.7A4.42,4.42,0,0,1,811.73,882.16Z"/><path class="cls-36" d="M672.48,477.8c-.06,0-.09,0-.11,0-7.57,4.71-57.75,71.47-64.84,75.26,0,0-11.71,4.33-7.08,18.22,5.33,5,11.73,7.38,15.89,4.24a.59.59,0,0,1-.16-.2c-4.74-6.82-2.13-15.6,1.59-22.29,4.79-8.62,12-15.83,18.45-23.16a233.86,233.86,0,0,0,18.47-23.12c2-3,5.14-9.33,9.17-10.07,2.8-.54,2.92,4.43,2.06,9.86,2.61-2.76,4.25-4.43,4.25-4.43C669.56,489.36,670.92,482,672.48,477.8Z"/><path class="cls-58" d="M730.78,745.37c-3.48-23.48-9.45-46.46-14.73-69.61-6.9-30.3-13.49-60.65-20.18-91-3-13.68-5.5-27.61-10-40.94A182.45,182.45,0,0,1,677.11,507c-.51-3.54.24-10.28,4.29-12.88-3-11-6.06-18-8.92-16.35-1.56,4.2-2.92,11.56-2.31,24.33,0,0,27.29,106.81,36.76,151.3s26.51,121.17,29.34,143c3.32,21.29,3.79,28.85,9.45,27.93,2.66-.46,2.74-10.48,1.08-25.23C739.22,791,733.38,762.87,730.78,745.37Z"/><path class="cls-36" d="M607.69,553.53,602.31,547a5.4,5.4,0,0,1-2.34,3.63c-3.87,2.47-9.42-2.72-11.76-5.2-5.73-6.11-11.19-12.49-16.92-18.57-6-6.47-11.93-12.87-18.31-19-4.86-4.71-10.81-10.11-13.07-16.71a10.68,10.68,0,0,1-.28-7.05,7.87,7.87,0,0,0-3.89,1.33c-6.4,4.26-5.93,12.3,11.58,29.12,18.92,18.21,53,57,53,57a1.78,1.78,0,0,1,.26.22C596,557.84,607.69,553.53,607.69,553.53Z"/></g><path class="cls-27" d="M596.31,545.45c-12.79-21.23-29.72-40.19-48-56.78-.39-.34-1.21.65-.84,1,18.07,17.32,33.41,36.26,47.61,56.83C595.49,547.13,596.65,546,596.31,545.45Z"/><path class="cls-25" d="M687.85,528s.86,3.54,2.4,9.74,3.61,15.11,6.18,25.75,5.36,23.17,8.46,36.5,6.25,27.59,9.48,41.88,6.19,28.55,9.07,42c1.42,6.7,2.8,13.19,4.09,19.33s2.38,12,3.44,17.38c2,10.79,3.73,19.77,4.91,26s1.8,9.89,1.8,9.89-.77-3.57-2.16-9.83-3.29-15.17-5.61-25.89c-1.16-5.33-2.29-11.18-3.72-17.29s-2.83-12.58-4.36-19.27c-3-13.37-6.16-27.63-9.31-41.91s-6.29-28.53-9.21-41.94-5.62-25.85-7.93-36.57l-5.5-26C688.58,531.55,687.85,528,687.85,528Z"/><path class="cls-27" d="M662.46,506.24c-15.09,14.68-30,30.61-41.77,48.11-.54.87.43,1.2.94.49,12.65-17.07,27.71-31.79,41.2-48.12C663.16,506.33,662.9,505.76,662.46,506.24Z"/></g></g></svg>