<svg xmlns="http://www.w3.org/2000/svg" viewBox="0 0 902.59 1140.67"><defs><style>.cls-1{isolation:isolate;}.cls-2,.cls-4,.cls-7{fill:#cc7206;}.cls-16,.cls-3,.cls-6,.cls-8{fill:#782600;}.cls-13,.cls-16,.cls-17,.cls-21,.cls-4,.cls-5{mix-blend-mode:multiply;}.cls-15,.cls-16,.cls-17,.cls-24,.cls-5{opacity:0.5;}.cls-15,.cls-22,.cls-24,.cls-25,.cls-6,.cls-7{mix-blend-mode:screen;}.cls-8,.cls-9{opacity:0.8;}.cls-10,.cls-24{fill:#f91;}.cls-11,.cls-17{fill:#c97106;}.cls-12,.cls-25{fill:#fed57b;}.cls-14{fill:#d35e00;}.cls-15,.cls-19,.cls-22{fill:#fff;}.cls-18{fill:#762b04;}.cls-20,.cls-21{fill:#573220;}.cls-23{fill:#8b1b00;}</style></defs><g class="cls-1"><g id="Layer_1" data-name="Layer 1"><path class="cls-2" d="M185.26,976.52S48.57,957.81,28.9,875.21C19.07,824.07,81,745.43,95.76,712.94s25.66-42.84-8.67-88.41c.3-.45.59-.82.88-1.25-2.69,2.94-6.19,5-12.6,3.63a14.4,14.4,0,0,1,2.7,2.12c5.63,5.06,21.4,23.07,17.45,43.89S55.54,755.14,28,799.6-4.12,885.7,41.48,930.8s101.91,70.35,145.24,68.08C195.73,998.88,198.42,995.78,185.26,976.52Z"/><path class="cls-3" d="M88,623.28c10.61-14.72,14.58-18.72,4.19-26.93-10.71-8.47-7.9-13.5-6.76-23.64s-7.88-23.08-7.88-23.08-2.84,6.19-3.38,16.89c-3.39-28.71-47.86-50.11-67.56-47.84,19.13,8.42,12.94,14.62,3.94,32.64s-16.33,36-3.94,54C2.64,618.34,16.7,642,44.3,633.51c11.19-3.42,17.92-5.64,22.36-6.73a8.66,8.66,0,0,1,4.76-.78,6.88,6.88,0,0,1,4,.91C81.78,628.29,85.28,626.22,88,623.28Z"/><path class="cls-4" d="M185.26,976.52s-10-1.4-24.84-5c.7,7.1-1.87,15.23-20,10C111.54,973.1,11.3,938,7.39,855.38c-1.74,24.78,7.91,49.54,34.09,75.42,45.61,45,101.91,70.35,145.24,68.08C195.73,998.88,198.42,995.78,185.26,976.52Z"/><g class="cls-5"><path class="cls-3" d="M92.16,596.35c-10.71-8.47-7.9-13.5-6.76-23.64a21.13,21.13,0,0,0-.41-6.3c-3.25,10-9,17.45-3,23.12,8.86,8.37,11.3,20.2,2,19.67S74.14,592,65.29,605.26c-13.79,25.12-53.6,6.88-36.87-11.3C12.69,598.4,4.3,576.74,17.1,561S28.42,530.53,24,525.12c6.27-2.06,21,5.38,25.32,7.71C34.69,523,17.1,517.47,6.58,518.68c19.13,8.42,12.94,14.62,3.94,32.64s-16.33,36-3.94,54C2.64,618.34,16.7,642,44.3,633.51c11.19-3.42,17.92-5.64,22.36-6.73a8.66,8.66,0,0,1,4.76-.78,6.88,6.88,0,0,1,4,.91c6.41,1.38,9.91-.69,12.6-3.63C98.58,608.56,102.55,604.56,92.16,596.35Z"/></g><path class="cls-6" d="M35.13,531.35s31.48,15.08,36,47.22C75.75,563.49,62,539.21,35.13,531.35Z"/><path class="cls-7" d="M50.38,775.12S1,832.33,20.88,882.91C3.39,853.42,10.63,817.91,50.38,775.12Z"/><path class="cls-2" d="M722.21,745.43s26.54-34.44,38.35-30.5,61.93,109.14,5.88,166.18C716.32,928.32,642.53,965.7,632.71,1006c49.18-25.58,61-20.63,73.76,0,27.55-6.86,46.21,27.54,38.35,58s-38.35,56.09-60,43.28c-23.61,11.8-129.81-5.92-153.42-6.86s-17.69-6.9-54.07-4.93-42.31,8.85-62-3,2.95-38.33,35.41-56.06S659.25,865.36,722.21,745.43Z"/><g class="cls-5"><path class="cls-2" d="M760.56,714.93c-11.81-3.94-38.35,30.5-38.35,30.5-63,119.93-239,273.36-271.42,291.05s-55.09,44.27-35.41,56.06,25.56,5,62,3,30.46,4,54.07,4.93,129.81,18.66,153.42,6.86c21.63,12.81,52.12-12.8,60-43.28s-10.8-64.87-38.35-58c-12.78-20.63-24.58-25.58-73.76,0,7-28.61,46.15-55.73,86.24-86a318.78,318.78,0,0,1-43,21.05c-46.22,18.68-33.46-30.48-1-69.83s57-81.61,75.74-106.21c17.88-23.53,40.28,41.31,38.7,73.61C802.54,783.14,769.8,718,760.56,714.93Z"/></g><path class="cls-8" d="M706.47,1006s.25.39.66,1.06,1,1.72,1.64,3.13a45.62,45.62,0,0,1,2.17,5c.38,1,.76,2.07,1.16,3.19s.66,2.37,1,3.62c.15.63.34,1.28.5,1.93s.28,1.34.42,2c.29,1.37.58,2.82.79,4.29a73,73,0,0,1,.76,9.48c0,1.64.09,3.33,0,5s-.29,3.36-.4,5.1l-.27,2.58-.49,2.59c-.33,1.71-.64,3.48-1,5.21-.91,3.36-2,6.73-3.1,10-1.33,3.21-2.72,6.31-4.11,9.3-1.62,2.85-3.25,5.56-4.78,8.16s-3.44,4.72-5,6.8c-.77,1-1.54,2-2.25,3s-1.58,1.71-2.26,2.51c-1.48,1.52-2.75,2.86-3.81,3.93l-3.34,3.36s1-1.41,2.75-3.87c.88-1.21,2-2.67,3.21-4.37a26.83,26.83,0,0,0,1.92-2.68c.61-1,1.27-2.08,1.95-3.13s1.38-2.24,2.1-3.41,1.61-2.31,2.2-3.62c1.32-2.62,2.68-5.35,4.17-8.18,1.27-2.9,2.37-6,3.68-9,1-3.2,2-6.43,2.84-9.63.33-1.68.67-3.34,1-5l.48-2.45.3-2.46c.15-1.66.35-3.29.54-4.93s.11-3.23.15-4.79a91.11,91.11,0,0,0-.2-9.13c-.14-1.44-.3-2.84-.46-4.21-.07-.67-.13-1.35-.21-2s-.22-1.31-.34-1.9c-.23-1.27-.45-2.48-.67-3.59s-.52-2.23-.73-3.26c-.48-2-1-3.74-1.46-5.21s-.85-2.55-1.15-3.27S706.47,1006,706.47,1006Z"/><g class="cls-5"><path class="cls-2" d="M722.7,1080.91c-15.71-6.71,4.49-29.16-9-47.85,0,22.42-24,32.17-65.81,26.93-95-10.48-15.69-143.55,18-190.66s60.56-96.51,74-130.87c6.49-16.61,14.18-22.2,20.42-23.61-11.89-3.41-38.11,30.58-38.11,30.58-63,119.93-239,273.36-271.42,291.05s-55.09,44.27-35.41,56.06,25.56,5,62,3,30.46,4,54.07,4.93,129.81,18.66,153.42,6.86c19.34,11.46,45.78-7.82,56.78-33.82C735.58,1080.11,728.45,1083.37,722.7,1080.91Z"/></g><path class="cls-2" d="M215.73,745.43s-44.24-21.65-61.94-6.9-49.17,104.22-21.63,179c20.64,38.38,51.13,59,58,74.75-15.74,4.92-23.62,27.55-23.62,27.55s-44.26-18.66-37.36,52.13c6.88,37.36,56,55,67.86,44.27,25.55,6.86,39.32-3,39.32-3,19.66,8.86,36.38-2,44.26-13.74s87.54-36.41,85.56-80.66S215.73,745.43,215.73,745.43Z"/><g class="cls-5"><path class="cls-2" d="M366.21,1018.79c-2-44.25-150.48-273.36-150.48-273.36s-44.24-21.65-61.94-6.9c-12.51,10.4-31.87,58.19-32.45,111.66,2.23-23.76,10.25-82.66,35.75-96.6,32.13-17.52,40.92,28.5,59.15,84s32.14,95.69,17.53,120.54C219.43,982.49,191,989.9,144.38,937c18.87,26.33,40.17,42.42,45.81,55.26-15.74,4.92-23.62,27.55-23.62,27.55s-44.26-18.66-37.36,52.13c6.88,37.36,56,55,67.86,44.27,25.55,6.86,39.32-3,39.32-3,19.66,8.86,36.38-2,44.26-13.74S368.19,1063,366.21,1018.79Z"/></g><g class="cls-9"><path class="cls-3" d="M166.57,1019.78a47.36,47.36,0,0,0-1.9,4.44c-.59,1.39-1.16,3.14-1.82,5.17s-1.2,4.35-1.77,6.86a76.41,76.41,0,0,0-1.28,8.22,65.49,65.49,0,0,0-.25,9.26c0,1.55.21,3.19.35,4.82s.4,3.28.77,5a64.61,64.61,0,0,0,2.67,9.74c.61,1.61,1.23,3.17,1.92,4.73s1.39,3.07,2.24,4.53a82.49,82.49,0,0,0,5.21,8.44c1.84,2.61,3.8,5,5.69,7.34s3.82,4.34,5.74,6.15c.89.92,1.79,1.81,2.63,2.64s1.72,1.53,2.49,2.27c1.57,1.47,3,2.72,4.15,3.64,2.32,2,3.66,3.2,3.66,3.2l-4.14-2.56a45.7,45.7,0,0,1-4.59-3.13c-.9-.61-1.83-1.27-2.82-2s-1.91-1.59-2.92-2.46a84.89,84.89,0,0,1-6.38-5.77c-1-1.11-2.1-2.3-3.19-3.46s-2.06-2.55-3.12-3.82a70.13,70.13,0,0,1-5.76-8.64c-.9-1.52-1.6-3.18-2.42-4.79s-1.43-3.31-2.07-5a66.52,66.52,0,0,1-2.73-10.43,57.63,57.63,0,0,1-.83-10.36,60.44,60.44,0,0,1,.79-9.72,67.26,67.26,0,0,1,2-8.39,60.4,60.4,0,0,1,5.07-11.81A38,38,0,0,1,166.57,1019.78Z"/><path class="cls-3" d="M190.19,992.23a6.83,6.83,0,0,1,1.48-.67,11.2,11.2,0,0,1,4.6-.72,18.41,18.41,0,0,1,7.1,1.71,43.89,43.89,0,0,1,3.94,2.25c.62.47,1.31,1,1.92,1.47a11.19,11.19,0,0,1,2,1.65,56,56,0,0,1,7.43,8.35c1.11,1.62,2.31,3.3,3.45,5s2.08,3.61,3.16,5.49,2,3.87,3,5.81,2,4,2.79,6.08,1.73,4.15,2.6,6.28l.66,1.54.59,1.69,1.09,3.2c.7,2.17,1.32,4.42,1.91,6.64s1.07,4.44,1.49,6.67a126.17,126.17,0,0,1,1.93,13.07c.22,2.14.4,4.24.49,6.32s.17,4.06.2,6a104.17,104.17,0,0,1-.29,11.08,88.23,88.23,0,0,1-1.11,9.26,58.74,58.74,0,0,1-1.66,7A18.31,18.31,0,0,1,238,1110a9.91,9.91,0,0,1-.84,1.75c-.53.93-.8,1.43-.8,1.43s.19-.53.62-1.49a9.08,9.08,0,0,0,.57-1.85,24.79,24.79,0,0,0,.62-2.56,60.88,60.88,0,0,0,.91-7c.2-2.73.33-5.83.33-9.17s-.13-7-.4-10.86c-.12-1.91-.24-3.91-.49-5.9s-.4-4.08-.71-6.15c-.51-4.14-1.33-8.41-2.19-12.71-.44-2.17-1-4.28-1.53-6.48s-1.17-4.18-1.86-6.33l-1.07-3.22-.53-1.55-.62-1.55c-.86-2.07-1.68-4.12-2.49-6.2s-1.72-4-2.62-6-1.69-4-2.72-5.79-1.94-3.68-2.89-5.44-2.09-3.39-3.08-5a66.43,66.43,0,0,0-6.58-8.45,18.39,18.39,0,0,0-1.74-1.68c-.59-.52-1.17-1-1.7-1.55-1.19-.93-2.4-1.68-3.49-2.45a18.77,18.77,0,0,0-6.52-2.23,12.81,12.81,0,0,0-4.5.16A5.87,5.87,0,0,0,190.19,992.23Z"/><path class="cls-3" d="M230,1031.24s.28-1.4,1-3.8a53.08,53.08,0,0,1,4.1-9.71,30.9,30.9,0,0,1,4-5.94,17.25,17.25,0,0,1,6.71-5.15,11.18,11.18,0,0,1,9.46.53,24.52,24.52,0,0,1,7.11,5.92,58.44,58.44,0,0,1,4.92,7.38,68.14,68.14,0,0,1,3.63,7.67,77.77,77.77,0,0,1,4.2,14.32,60.28,60.28,0,0,1,1.17,10.43c0,1.28,0,2.28-.06,2.95s-.06,1-.06,1-.19-1.4-.63-3.85-1.33-6-2.6-10a109.54,109.54,0,0,0-5.21-13.49c-1.07-2.39-2.36-4.79-3.73-7.18a48.86,48.86,0,0,0-4.67-6.75,21.23,21.23,0,0,0-5.79-5.1,8.94,8.94,0,0,0-3.25-1,7.72,7.72,0,0,0-3.28.37,16.44,16.44,0,0,0-5.77,3.87,42.41,42.41,0,0,0-4.27,5.18,78.66,78.66,0,0,0-5.23,8.82C230.59,1029.91,230,1031.24,230,1031.24Z"/></g><g class="cls-5"><path class="cls-2" d="M366.21,1018.79c-2-44.25-150.48-273.36-150.48-273.36a148,148,0,0,0-25.64-9.32c17,22.19,29.33,70.39,59.08,113.55,39.37,57,49.83,74.93,57.82,117.78s-26.16,64-47.24,45.82c18.9,28.33,9.46,61.77-3.63,61s-12.34-38.51-28.35-46.5c10.92,28.34,2.2,63.21-20.34,65.39s-40.69-11.63-49.41-43.59c-4.35,22.5,6.55,45-7.26,40.68-16.13-5.15-20.86-36-21.72-42.85a118.33,118.33,0,0,0,.17,24.49c6.88,37.36,56,55,67.86,44.27,25.55,6.86,39.32-3,39.32-3,19.66,8.86,36.38-2,44.26-13.74S368.19,1063,366.21,1018.79Z"/></g><path class="cls-10" d="M557.32,1132.75c29,11,46.95-3.84,46.95-3.84s14.64,10,32.33-1.53c9.25,9.24,35.43,1.53,47-30s7.69-83.18-31.57-68.55c0,0-16.17-36.92-45.39.8-4.63-7.72-17.72-7.72-17.72-7.72s-1.54-38.48,26.17-85.45S698.21,814.1,728.22,750.18s22.32-115.43-6.17-190.9-471.7,1.18-471.7,1.18S197.05,640.92,196,687.68s16.82,90.85,69.25,165.59S353.72,971,361.32,1025.44c-14.06-14.35-40.08-9-48,14.36-7-13.06-21.23-20.91-32.47,5.79s-17.43,50.39,3.22,71.07,33.92,24.07,45.23,15.7c11.8,12.81,35.42,9.34,45.22-.48,0,0,36.3,12.21,50.9-34.78,20.95,5.72,44.42-2.52,57.79-1.92s38,8.88,47.6,5.73A40.9,40.9,0,0,0,557.32,1132.75Z"/><g class="cls-5"><path class="cls-11" d="M557.32,1132.75c28.62,11.92,46.95-3.84,46.95-3.84s14.64,10,32.33-1.53c9.25,9.24,35.43,1.53,47-30s7.69-83.18-31.57-68.55c0,0-16.17-36.92-45.39.8-4.63-7.72-17.72-7.72-17.72-7.72s-1.54-38.48,26.17-85.45c7.32-12.39,16.59-26.83,26.82-42.48a1.12,1.12,0,0,0-.31-.1c-31.47,48.52-49.82,13.13-53.76-17s7.87-82.62,57.68-127.23S700.58,633,722.87,630.38s15.73,93.08,15.73,93.08l.08.32c16.93-52.49,7.84-99.7-16.63-164.5-28.46-75.42-471.7,1.18-471.7,1.18S197.05,640.92,196,687.68c-.12,4.3,0,8.59.17,12.88l.92-.71s15.73-84,51.11-95.74,23.6,68.21,66.89,133.75,55.07,115.41,55.07,157.35c0,40.93-23.71,53.14-84.5-13.2,41.27,57.84,69.1,96.34,75.68,143.43-14.06-14.35-40.08-9-48,14.36-7-13.06-21.23-20.91-32.47,5.79s-17.43,50.39,3.22,71.07,33.92,24.07,45.23,15.7c11.8,12.81,35.42,9.34,45.22-.48,0,0,35.89,12.54,50.92-33.91,25.72,4,36.4-1.16,48.79-2.33,14-1.35,21.4,1.35,30.75,3s20.07,3.67,25.71,2.38C530.71,1106.33,538.13,1124.8,557.32,1132.75Z"/></g><path class="cls-12" d="M337,521.68s-44.82,71.07-43.29,98.88c3.1-12.35,15.47-13.88,15.47-13.88s-21.64,37.08-4.64,68c1.55-17,9.07-18.18,9.07-18.18s-9.8,34.29,16.8,60.21c-2.81-9.82,0-16.77,0-16.77s-2.81,18.88,28,34.28,44.19,44.65,49.13,62.34a31.62,31.62,0,0,0,0-20.64,132.36,132.36,0,0,1,10.8,36.41c2.95,15.68,8.85,0,10.81-8.87s3.93,21.63,31.47,39.32c15.74,12.81,27.53-19.67,42.29-35.38-4.91,13.75,0,30.46,0,30.46s12.81-36.37,43.28-48.17,32.45-26.53,33.44-34.42L583.55,769s3.94-18.68,38.34-38.33,63.93-54.11,57-95.41L684.84,651s13.76-27.54,11.82-63S337,521.68,337,521.68Z"/><g class="cls-9"><path class="cls-3" d="M313.34,1039.8s-.79,1.41-1.91,3.89a75.59,75.59,0,0,0-3.84,10.74c-.63,2.27-1.12,4.79-1.6,7.4a79.76,79.76,0,0,0-.88,8.35,71.75,71.75,0,0,0,.15,8.9,68.43,68.43,0,0,0,1.31,9.14c.35,1.51.68,3,1.09,4.48s.83,3,1.36,4.4c1,2.9,2.08,5.72,3.3,8.36.63,1.33,1.28,2.63,1.88,3.88s1.32,2.49,1.95,3.64,1.37,2.3,2,3.39,1.3,2.12,2,3.09c1.3,2,2.47,3.84,3.62,5.34s2.09,3,3,4.09l2.62,3.47-3.2-3a49,49,0,0,1-3.55-3.6c-.67-.75-1.36-1.5-2.13-2.3s-1.4-1.75-2.18-2.68c-1.56-1.82-3-4-4.63-6.3-.73-1.14-1.48-2.35-2.25-3.6s-1.43-2.62-2.17-3.94a75.74,75.74,0,0,1-3.75-8.59c-.62-1.51-1-3.1-1.52-4.6s-.81-3.16-1.2-4.76a70.51,70.51,0,0,1-1.26-9.67,61.47,61.47,0,0,1,.17-9.43,63.77,63.77,0,0,1,1.48-8.68,63,63,0,0,1,2.33-7.49,54.35,54.35,0,0,1,5.28-10.4A27,27,0,0,1,313.34,1039.8Z"/><path class="cls-3" d="M361.32,1025.44a42.57,42.57,0,0,1,3.16,3.59c.9,1.25,2.08,2.71,3.2,4.54.61.89,1.22,1.85,1.87,2.85s1.21,2.17,1.84,3.31a84.5,84.5,0,0,1,3.71,7.71,82.13,82.13,0,0,1,3.24,9c.46,1.57,1.07,3.17,1.43,4.84s.74,3.34,1.16,5,.63,3.45.9,5.2.48,3.45.73,5.21c.29,3.5.45,7,.58,10.54-.06,3.47-.23,6.89-.39,10.18-.34,3.3-.79,6.45-1.2,9.47s-1.21,5.77-1.75,8.33a60.69,60.69,0,0,1-1.84,6.9c-.7,2-1.27,3.79-1.79,5.24-1,2.85-1.63,4.52-1.63,4.52s.34-1.72.89-4.72c.3-1.5.65-3.32,1.07-5.39s.71-4.41,1.08-7c.19-1.29.35-2.61.54-4s.48-2.78.53-4.28c.18-2.94.38-6.06.66-9.26.05-3.22,0-6.55.05-9.94-.21-3.34-.42-6.77-.71-10.17-.21-1.71-.43-3.39-.66-5.1a46.65,46.65,0,0,0-.8-5c-.33-1.65-.66-3.29-1-4.91s-.79-3.17-1.18-4.73c-.76-3.16-1.75-6.07-2.66-8.89-.43-1.43-1.05-2.71-1.49-4s-1-2.59-1.51-3.75-1-2.34-1.49-3.41-1-2-1.46-3c-.9-1.87-1.86-3.48-2.56-4.81s-1.38-2.34-1.84-3A11.94,11.94,0,0,0,361.32,1025.44Z"/><path class="cls-3" d="M377.12,1060.09a54.49,54.49,0,0,1,5.31-8.81c.94-1.27,2-2.6,3.13-4,.59-.69,1.21-1.34,1.86-2.07s1.37-1.35,2.11-2,1.49-1.37,2.39-2l1.32-.9a11.29,11.29,0,0,1,1.45-.79,6.56,6.56,0,0,1,1.57-.71c.58-.15,1.09-.41,1.72-.54l1.88-.21.92,0a7.56,7.56,0,0,1,1,.16,16,16,0,0,1,6.07,3.38,38.11,38.11,0,0,1,4.3,4.45,65.65,65.65,0,0,1,6,8.77,62.79,62.79,0,0,1,4.45,9.31s-2.54-3.2-6.31-8.07c-1.93-2.31-4.17-5-6.75-7.72a41.61,41.61,0,0,0-4.09-3.76,12.57,12.57,0,0,0-4.49-2.5c-1.41-.48-3,.08-4.64.81a25.19,25.19,0,0,0-4.61,2.87c-1.42,1.11-2.81,2.26-4.05,3.44s-2.45,2.32-3.52,3.37c-2.13,2.17-3.88,4-5.12,5.32S377.12,1060.09,377.12,1060.09Z"/></g><g class="cls-9"><path class="cls-3" d="M545.7,1071.91a75.18,75.18,0,0,1,4-9.85c1.38-2.86,3.13-6.17,5.17-9.58,1.09-1.66,2.09-3.48,3.33-5.17s2.4-3.45,3.74-5.16,2.67-3.35,4.08-4.91a65.79,65.79,0,0,1,8.69-8.27c1.41-1.18,3-2.07,4.28-3a30.06,30.06,0,0,1,3.91-2.07c.61-.29,1.13-.58,1.66-.77s1.05-.31,1.52-.44c1.79-.55,2.82-.79,2.82-.79s-.93.6-2.5,1.48c-.42.23-.83.5-1.3.79s-.93.66-1.45,1-1.06.82-1.63,1.22a18.54,18.54,0,0,0-1.68,1.38c-.6.52-1.19,1-1.8,1.6s-1.31,1.11-1.91,1.76c-1.2,1.31-2.58,2.56-3.84,4s-2.63,2.94-3.91,4.5-2.6,3.18-3.84,4.81c-2.61,3.27-5,6.68-7.26,9.83-1.14,1.61-2.2,3.18-3.26,4.68s-2,2.87-2.86,4.15C548.08,1068.43,545.7,1071.91,545.7,1071.91Z"/><path class="cls-3" d="M606.61,1029.64a78.57,78.57,0,0,1,8,14.51,80.15,80.15,0,0,1,3,7.51,84.42,84.42,0,0,1,2.58,8.72,93,93,0,0,1,1.86,9.51,96.92,96.92,0,0,1,.77,10,77.55,77.55,0,0,1-.47,10c-.15,1.67-.45,3.31-.71,4.89s-.67,3.16-1,4.74-.82,3-1.3,4.46-1.06,2.83-1.58,4.2-1.14,2.6-1.68,3.85-1.27,2.37-1.85,3.49a60.8,60.8,0,0,1-3.66,5.77c-1.23,1.6-2.27,3.07-3.22,4.17l-3.07,3.37s.9-1.39,2.44-3.82c.78-1.21,1.56-2.79,2.58-4.51.51-.83.93-1.83,1.41-2.81s1.06-2,1.49-3.2,1-2.27,1.45-3.52.9-2.51,1.37-3.79.8-2.72,1.19-4.13.7-2.86,1-4.33.5-3,.79-4.54.41-3.07.52-4.67a78.62,78.62,0,0,0,.33-9.62,87.92,87.92,0,0,0-.62-9.61c-.43-3.14-.81-6.29-1.46-9.25a148.14,148.14,0,0,0-4.25-16.17A137.48,137.48,0,0,0,606.61,1029.64Z"/><path class="cls-3" d="M652,1028.84a89.05,89.05,0,0,1,6.71,15.68c.81,2.47,1.64,5.14,2.34,8s1.39,5.91,1.9,9.12a93.7,93.7,0,0,1,1.08,9.9,89,89,0,0,1,0,10.33c-.07,1.76-.34,3.44-.53,5.17s-.54,3.45-.93,5.12a50.51,50.51,0,0,1-1.32,4.94c-.28.78-.53,1.6-.78,2.4s-.63,1.53-.92,2.29a51.94,51.94,0,0,1-4.32,8.37,34.43,34.43,0,0,1-2.51,3.59,31.14,31.14,0,0,1-2.6,3.12,56.87,56.87,0,0,1-5.1,4.9c-1.65,1.27-3.11,2.38-4.35,3.22l-4,2.39,3.55-3c1.11-1,2.36-2.34,3.83-3.71,1.31-1.59,2.94-3.2,4.38-5.27a26.07,26.07,0,0,0,2.19-3.2,29.5,29.5,0,0,0,2.13-3.55,37.07,37.07,0,0,0,1.93-3.89c.58-1.38,1.21-2.75,1.72-4.22a66.19,66.19,0,0,0,2.48-9.16c.37-1.6.57-3.23.82-4.83s.39-3.29.45-5a83.79,83.79,0,0,0,.18-9.89c0-1.63-.2-3.25-.28-4.89s-.26-3.18-.46-4.72c-.39-3.11-.81-6.14-1.34-9s-1.08-5.51-1.64-8C654.26,1035.33,652,1028.84,652,1028.84Z"/></g><g class="cls-13"><path class="cls-11" d="M671.06,1105.35c-13.75-3,0-36.38-11.81-48.21,2,26.56-5.89,53.09-22.59,49.19s-7.87-31.48-19.06-54.67c3.6,20.12-4.55,63.52-36,59.57s-32.46-39.32-11.8-74.75c-10.83,6.9-14.74,11.81-21.64-2-27.5-53.08-24.56-123.91-27.5-208.49-12.82,27.54-6.9,116,1.94,154.38s-1,81.64-48.17,86.57-63.62-25.21-51.58-71.91c10.19-39.48,6.32-139.52-10.38-161.14,10.82,135.68-11.8,186.83-35.32,226.15,15.83-19.69,28.42-19.66,35.32,4.9s-.23,49.62-15.34,48-3.14-22.38-15.27-41.55c1.37,19.8-12.85,39.44-36.26,40.49s-40.59-11.43-42.15-47.36c-9.38,22.9,9.39,56.57-8.89,46-20.51-12.15-21.78-34.5-21.42-43.32-4.83,18-3.9,34.5,11,49.39,20.65,20.63,33.92,24.07,45.23,15.7,11.8,12.81,35.42,9.34,45.22-.48,0,0,35.89,12.54,50.92-33.91,25.72,4,36.4-1.16,48.79-2.33,14-1.35,21.4,1.35,30.75,3s20.07,3.67,25.71,2.38c0,5.32,7.42,23.79,26.61,31.74,28.62,11.92,46.95-3.84,46.95-3.84s14.64,10,32.33-1.53c8.72,8.72,32.46,2.37,44.86-24.86C678.23,1105.09,674.71,1106.12,671.06,1105.35Z"/></g><g class="cls-13"><path class="cls-11" d="M319.22,627.5c-1.37,8.3,9.7-8.32,9.7-8.32s8.28,30.45,74.71,38.76,87.16,45.65,60.86,71.93c-9.68,9.68,45.66,2.75,65-41.5,16.59-27.66,47-29,102.37-42.89,46.2-11.53,79.83-27.91,98.56-62.79-2.55-7.54-5.33-15.34-8.4-23.41-28.46-75.42-471.7,1.18-471.7,1.18s-6.83,10.29-15.66,25.67c11.06,2.6,29.37,5.41,56.86,5.41C323.39,592.92,320.63,619.18,319.22,627.5Z"/></g><path class="cls-3" d="M502,0s-6.54,22.59-42.23,40.06S416.08,61.9,414.6,76.48l-4.34-13.13L403,86s-9.51-18.24-18.22-19c5.81,31.32-21.14,42.21-72.83,85.2s-142,116.53-184.27,102c8,13.82,12.39,13.82,12.39,13.82S87.63,281.12,71.6,332.07s45.16,76.47,9.47,99.78c7.28,4.38,16-2.17,16-2.17s-28.42,48,1.43,64.07,72.84-2.94,63.37,43.72c6.54,2.17,12.38-19.68,12.38-19.68s-8.74,54.61,89.58,60.42c52.45,2.94,64.07,7.32,59.71,27.7,8,1.47,13.12-8.76,13.12-8.76s-15.3,38.62,70.65,49.55c61.18,13.12,101.22,34.94,69.18,76.46,29.85-12.37,35.67-28.4,45.89-45.9s29.13-28.39,64.8-34.21,128.19-30.57,134.73-75c0,0,7.28,8.74,13.1,12.37-3.65-12.37,4.37-35.68,43-42.26s46.64-30.57,43.71-56.79c8,11.66,16,8,16,8s-20.38-16,3.63-31.31,67.74-54.61,49.54-121.62c10.18,2.94,11.65,7.29,11.65,7.29s2.18-31.3-34.95-59c13.83.74,18.2,8,18.2,8s0-26.23-47.33-39.32c-24.05-6.55-46.62-21.84-66.28-41.53S621.89,140.61,631.74,106.21c-13.77,0-21.64,17.69-21.64,17.69s-9.85-27.53-26.55-31.46c7.86,8.85,3,21.64,3,21.64S580.64,100.2,554.75,79,503.83,21.31,502,0Z"/><g class="cls-5"><path class="cls-3" d="M867.61,284.73c13.83.74,18.2,8,18.2,8s0-26.23-47.33-39.32c-24.05-6.55-46.62-21.84-66.28-41.53S621.89,140.61,631.74,106.21c-13.77,0-21.64,17.69-21.64,17.69s-9.85-27.53-26.55-31.46c7.86,8.85,3,21.64,3,21.64S580.64,100.2,554.75,79a163.06,163.06,0,0,1-14-13c-.06.17-.1.36-.16.53,36.69,32.78,49.79,74.7,49.79,74.7s4-5.22,6.59-24.86c5.23,5.21,10.49,38,10.49,38s0-9.17,23.58-19.67c10.5,15.75-7.84,28.86,6.55,49.83s4,52.44,4,52.44l24.9-27.53s3.95,47.21,18.37,34.09c0,9.19,39.36,39.34,101,28.87S871,330.09,871,330.09s-32.79-23.6-69.48-18.36c41.93,15.75,34.07,82.6-7.91,119.33C737.27,306.49,481.59,315.65,358.11,349S208.86,475.62,228.54,500.53c-104.91-27.53-83.92-115.36-89.17-101s-27.54,17.06-27.54,17.06,18.36-17.06,0-55.07,36.13-80.74,89-92,87.66,1.13,87.66,1.13V253.81l15.71,5.62,5.59-38.19,13.51,12.39s4.51-18,10.11-25.87c-10.11-25.84-6.74-55.07,31.47-80.89S394,88.68,394,88.68s19.11,21.33,15.74,14.59,1.14-19.1,1.14-19.1l7.87,12.36C415.41,83,424.39,70.69,465.94,46,489.74,31.86,498.42,14,501.52,1.35c-2,5.11-11.25,23.76-41.75,38.71C424.1,57.54,416.08,61.9,414.6,76.48l-4.34-13.13L403,86s-9.51-18.24-18.22-19c5.81,31.32-21.14,42.21-72.83,85.2s-142,116.53-184.27,102c8,13.82,12.39,13.82,12.39,13.82S87.63,281.12,71.6,332.07s45.16,76.47,9.47,99.78c7.28,4.38,16-2.17,16-2.17s-28.42,48,1.43,64.07,72.84-2.94,63.37,43.72c6.54,2.17,12.38-19.68,12.38-19.68s-8.74,54.61,89.58,60.42c52.45,2.94,64.07,7.32,59.71,27.7,8,1.47,13.12-8.76,13.12-8.76s-15.3,38.62,70.65,49.55c61.18,13.12,101.22,34.94,69.18,76.46,29.85-12.37,35.67-28.4,45.89-45.9s29.13-28.39,64.8-34.21,128.19-30.57,134.73-75c0,0,7.28,8.74,13.1,12.37-3.65-12.37,4.37-35.68,43-42.26s46.64-30.57,43.71-56.79c8,11.66,16,8,16,8s-20.38-16,3.63-31.31,67.74-54.61,49.54-121.62c10.18,2.94,11.65,7.29,11.65,7.29S904.74,312.44,867.61,284.73Z"/></g><path class="cls-10" d="M322.67,198.05s-9.64-13.6-7.73-56.43S267.29,83.33,211.8,126.24c-44.59,38.83-49.83,92.59-21.39,115.15,27.23,15.78,46.77,16.13,84.56,12.49-8-13.76-8.58-15.72-8.58-15.72s19.68,5.61,27.51,6.81c-3.65-19.12,13.28-46.9,13.28-46.9s5.75,12,10.7,20.38C315.3,205.71,322.67,198.05,322.67,198.05Z"/><path class="cls-14" d="M204.52,174.82s13.2-33.73,41.7-40.49c20.46-4.87,41.86,19.77,42,50.21s-24.15,47.34-59.71,40.55S199.22,189.07,204.52,174.82Z"/><g class="cls-13"><path class="cls-14" d="M246.22,134.33c-28.5,6.76-41.7,40.49-41.7,40.49a66.83,66.83,0,0,0-3.76,15c2.26-8.08,13.29-41,43.16-40.27,34.1.89,44.83,85.28-21,73.63-.21.09-.41.23-.63.33a59.74,59.74,0,0,0,6.26,1.54c35.56,6.79,59.83-10.12,59.71-40.55S266.68,129.46,246.22,134.33Z"/></g><g class="cls-5"><path class="cls-11" d="M322.67,198.05s-9.64-13.6-7.73-56.43c1.43-31.83-25.55-48.49-62.28-37.42.34-.06.71-.08,1.08-.16,34.37-6.92,52.3,7.9,53.4,33.5s-11.79,46.55-19.06,16.71S251.16,114.1,222.49,140s-34.9,59.26-18.84,75.91,7.9,24.05-8.52,14.09c-31.36-21.89-11.46-67.13-5.69-78.59-22.92,34.25-21.67,72,1,89.95,27.23,15.78,46.77,16.13,84.56,12.49-8-13.76-8.58-15.72-8.58-15.72s19.68,5.61,27.51,6.81c-3.65-19.12,13.28-46.9,13.28-46.9s5.75,12,10.7,20.38C315.3,205.71,322.67,198.05,322.67,198.05Z"/></g><path class="cls-15" d="M230.49,125.47s-40.21,23.64-41,73.6c-5,19.86-18-6.24,3.28-45.13S252.55,113,230.49,125.47Z"/><path class="cls-10" d="M648.78,184.91s9.65-13.56,7.76-56.43,47.63-58.26,103.14-15.37c44.59,38.88,49.81,92.63,21.39,115.18-27.24,15.77-46.79,16.1-84.58,12.49,8-13.77,8.59-15.75,8.59-15.75s-19.67,5.63-27.53,6.83C681.22,212.76,664.3,185,664.3,185s-5.75,12-10.7,20.37C656.15,192.61,648.78,184.91,648.78,184.91Z"/><path class="cls-14" d="M766.94,161.72S753.77,128,725.28,121.23c-20.49-4.88-41.92,19.77-42,50.2s24.14,47.31,59.68,40.54S772.26,176,766.94,161.72Z"/><g class="cls-13"><path class="cls-14" d="M725.28,121.23c28.49,6.77,41.66,40.49,41.66,40.49a65.53,65.53,0,0,1,3.78,15c-2.26-8.08-13.29-41-43.21-40.24-34.06.9-44.78,85.24,21,73.59.2.12.42.22.63.34a49.16,49.16,0,0,1-6.27,1.54c-35.54,6.77-59.82-10.09-59.68-40.54S704.79,116.35,725.28,121.23Z"/></g><g class="cls-5"><path class="cls-11" d="M648.78,184.91s9.65-13.56,7.76-56.43C655.1,96.66,682.09,80,718.82,91.1L717.7,91c-34.35-7-52.26,7.88-53.35,33.44s11.76,46.6,19,16.77,37-40.16,65.62-14.24,34.89,59.26,18.84,75.92-7.9,24,8.52,14.06c31.35-21.85,11.46-67.09,5.69-78.59,22.94,34.28,21.66,72-1,90-27.24,15.77-46.79,16.1-84.58,12.49,8-13.77,8.59-15.75,8.59-15.75s-19.67,5.63-27.53,6.83C681.22,212.76,664.3,185,664.3,185s-5.75,12-10.7,20.37C656.15,192.61,648.78,184.91,648.78,184.91Z"/></g><path class="cls-15" d="M741,112.39s40.23,23.59,41,73.55c5,19.86,17.95-6.19-3.33-45.13S718.92,99.83,741,112.39Z"/><path class="cls-16" d="M359.94,194.63s-57.74,62.24-55.45,90.53l19.23,13.59-26,1.12s39.62,21.52,53.19,47.57c0,0-83.76,22.61-104.12,70.18l21.5-9.08S244.48,427.76,244.48,455c22.63-13.59,46.41-6.8,46.41-6.8L275,461.76s71.31,0,124.54,65.65C415.41,550,439.93,539,446.9,536,436,548.56,435.59,554.2,435.59,554.2s17.83-10.86,26.51-11.29a49.66,49.66,0,0,0-.45,20.42s15.64-20.42,26.06-26.51c6.51,15.65,9.14,20,9.14,20l3.9-19.1,20.38,7.35s-6.49-12.59-3-14.76,39.94,6.52,39.94,6.52l-7.8-14.76s24.31-4.35,31.26-20.86,78.86-108.11,147.72-86.85c-6.2-13-17.06-22.29-17.06-22.29s17.6,1,30.54,11.91c-6.2-21.23-28.49-35.73-28.49-35.73s14.49-2.08,24.87,4.65c-11.91-16.07-45.57-35.73-133.64-48.7,5.69-21.21,17.08-33.13,24.84-34.7-16.57-5.71-20.18-2.58-20.18-2.58s4.66-8.82,17.61-9.84c0,0-19.17-63.22-65.27-82.89-25.89,8.31-76.13,41.46-82.88,68.39-6.22-11.43-5.18-17.63-5.18-17.63s-15.54,14.49-16.07,44.55c-12.94-15-20.17-36.24-20.17-36.24l-4.15,14S418,217.32,359.94,194.63Z"/><path class="cls-10" d="M366.72,204s-54.79,59.11-52.63,85.93l18.27,12.92-24.73,1.08s37.62,20.4,50.48,45.11c0,0-79.49,21.5-98.84,66.61L279.69,407s-22.55,18.27-22.55,44c21.48-12.89,44.05-6.45,44.05-6.45l-15.06,12.91s67.69,0,118.2,62.28c15,21.54,38.35,11,44.94,8.15-10.32,11.95-10.73,17.31-10.73,17.31s16.9-10.31,25.16-10.73a47.12,47.12,0,0,0-.42,19.38S478.13,534.55,488,528.8c6.18,14.84,8.64,19,8.64,19l3.71-18.16,19.4,7s-6.21-12-2.89-14,37.92,6.2,37.92,6.2l-7.43-14S570.46,510.66,577,495s74.87-102.6,140.25-82.44c-5.9-12.29-16.22-21.14-16.22-21.14s16.74,1,29,11.31c-5.87-20.16-27-33.92-27-33.92s13.74-2,23.62,4.4C715.33,358,683.36,339.26,599.77,327c5.4-20.2,16.23-31.51,23.62-33-15.76-5.41-19.18-2.47-19.18-2.47s4.4-8.37,16.69-9.32c0,0-18.19-60-62-78.68-24.55,7.87-72.27,39.31-78.65,64.88-5.89-10.8-4.91-16.71-4.91-16.71S460.61,265.5,460.12,294c-12.29-14.25-19.18-34.45-19.18-34.45L437,272.88S421.82,225.52,366.72,204Z"/><g class="cls-5"><path class="cls-11" d="M701.06,391.39s16.74,1,29,11.31c-5.87-20.16-27-33.92-27-33.92s13.74-2,23.62,4.4C715.33,358,683.36,339.26,599.77,327c5.4-20.2,16.23-31.51,23.62-33-15.76-5.41-19.18-2.47-19.18-2.47s4.4-8.37,16.69-9.32c0,0-18.19-60-62-78.68-22,7-62.4,32.93-75.29,56.6.05.33.09.64.14.95,32.39-32.86,66.76-50.81,87.2-38.86s36.86,41.88,31.4,46.86S594.9,288.05,588.91,304s-12.42,15.94-41.35,19.93C691.08,329.41,703,382.74,703,382.74s-24.92,0-26.92,5.46c15.45,1,19.45,13,8,9s-18.93-2-57.83,16.95-40.85,0-28.88-7,22.42-14.95,6.47-11.94-22.4,6.95-28.41-.51S566,370.76,563,376.24s-6.48,9-13.44,9c-6.47,0-9-6-11-19.47-7-25.38-39.86-44.82-29.41-33.88s24.42,25.44,1.24,20.48c-51.32-10.93-112.76,18.36-112.76,18.36s2.62-5.24,32.79-36.69c-22.3,15.71-62.94,42-57.7,69.46s2.61,51.16-28.86,38.05-26.22-31.47-47.2-23.61c5.24-18.37,42-43.25,3.92-27.53,11.82-17.06,76.06-40.66,116.74-61.42-17,.24-42,18.13-48.54,5s-2.62-32.78-21-40.63c-35.39-18.4-2.59-51.19,15.74-66.89,15.83-13.56,52.05,15.68,61.79,24.05A125,125,0,0,0,366.72,204s-54.79,59.11-52.63,85.93l18.27,12.92-24.73,1.08s37.62,20.4,50.48,45.11c0,0-79.49,21.5-98.84,66.61L279.69,407s-22.55,18.27-22.55,44c21.48-12.89,44.05-6.45,44.05-6.45l-15.06,12.91s67.69,0,118.2,62.28c15,21.54,38.35,11,44.94,8.15-10.32,11.95-10.73,17.31-10.73,17.31s16.9-10.31,25.16-10.73a47.12,47.12,0,0,0-.42,19.38S478.13,534.55,488,528.8c6.18,14.84,8.64,19,8.64,19l3.71-18.16,19.4,7s-6.21-12-2.89-14,37.92,6.2,37.92,6.2l-7.43-14S570.46,510.66,577,495s74.87-102.6,140.25-82.44C711.38,400.24,701.06,391.39,701.06,391.39Z"/></g><path class="cls-12" d="M452.75,452s-53.76-35.38-72.1-6.5,11,44.93,34.09,48.48,42.54,8.87,52-21.85c21.27,21.28,38.38,28.36,67.94,2.36s46.67-56.11,39.59-72.08-39-18.35-66.19,12.39S452.75,452,452.75,452Z"/><path class="cls-17" d="M416,318.27s-33.2-28.9-57-28.9l11-31.08S415.6,289.37,416,318.27Z"/><path class="cls-17" d="M483.2,291.06S487,317,495.53,310.61s47.62-50.18,85.05-30.63c-3.83-20.39-26.37-39.09-26.37-39.09S526.57,254.5,492.54,300C490.4,305.07,484.9,295.31,483.2,291.06Z"/><path class="cls-18" d="M416,313s-33.2-28.91-57-28.91l11-31.05S415.6,284.1,416,313Z"/><path class="cls-18" d="M483.2,285.81s3.82,25.95,12.33,19.55,47.62-50.18,85.05-30.63c-3.83-20.4-26.37-39.09-26.37-39.09s-27.64,13.62-61.67,59.1C490.4,299.84,484.9,290.08,483.2,285.81Z"/><path d="M394.75,318.89c0,8.64-2.88,15.6-6.47,15.55s-6.51-7.18-6.51-15.84,2.85-15.62,6.44-15.53S394.71,310.23,394.75,318.89Z"/><path class="cls-19" d="M392.85,313.83c.25,3.35-.83,6.17-2.43,6.26s-3.07-2.6-3.28-6,.85-6.21,2.42-6.29S392.61,310.45,392.85,313.83Z"/><path d="M542.22,301.25c0,8.65-2.89,15.58-6.47,15.52s-6.51-7.15-6.53-15.85,2.88-15.57,6.47-15.55S542.18,292.55,542.22,301.25Z"/><path class="cls-19" d="M540.32,296.17c.23,3.38-.85,6.2-2.46,6.29s-3-2.62-3.27-6,.86-6.2,2.44-6.31S540.11,292.79,540.32,296.17Z"/><path class="cls-20" d="M393.08,381.22s63-37.36,130.49-20.3c24.24,7.86,0,57-39.36,89.13S353.08,403.49,393.08,381.22Z"/><path class="cls-21" d="M443,453.76s-4.1-29.47-18.31-37.14-21.56-5.21-21.84-.27S432.35,424.81,443,453.76Z"/><path class="cls-21" d="M490.24,443.94s-2.74-21.85,11.47-30.86,18.3-16.69,10.93-18.56-26.22,11.72-31.39,20.18S489.16,434.65,490.24,443.94Z"/><path class="cls-22" d="M502.48,365.16c-.18,1.4-3.23,2.19-6.82,1.77s-6.37-2-6.18-3.36,3.23-2.21,6.81-1.75S502.66,363.79,502.48,365.16Z"/><path class="cls-22" d="M396.51,390.26s37.62-24.18,83.17-24C495.17,366.72,455.43,349.19,396.51,390.26Z"/><path class="cls-23" d="M367.58,345.59s.77-.42,2.26-1.16,3.68-1.78,6.54-2.94c1.45-.61,3.05-1.25,4.77-1.92l5.7-2.08c2-.75,4.22-1.39,6.54-2.16s4.72-1.53,7.31-2.21,5.25-1.4,8-2.17,5.68-1.27,8.67-2c5.93-1.45,12.3-2.41,18.83-3.62,3.29-.5,6.65-.93,10.05-1.44s6.81-1,10.3-1.27,7-.65,10.48-1l5.29-.43,5.33-.29c7.08-.29,14.16-.79,21.14-.71,3.5,0,6.95,0,10.36,0h5.11c1.7.07,3.37.16,5,.19,6.66.26,13.06.55,19.13.86,6.06.55,11.8,1,17.09,1.5l7.59.74c2.39.31,4.69.6,6.82.9,4.25.6,8,1.1,11.06,1.56,6.1.89,9.61,1.44,9.61,1.44s-3.55-.26-9.71-.67c-3.11-.26-6.83-.55-11.13-.87-2.13-.14-4.41-.32-6.83-.51l-7.58-.31-17.06-.84c-6-.1-12.43-.22-19-.31-1.67,0-3.31-.08-5-.1s-3.37.07-5.09.1c-3.39,0-6.82.09-10.28.16-6.94-.05-14,.53-21,.82l-5.29.27-5.24.4c-3.48.29-7,.61-10.42.89-6.88.69-13.66,1.51-20.22,2.35-6.5,1.1-12.84,1.82-18.75,3.06-3,.58-5.88,1.14-8.66,1.7s-5.46,1.18-8,1.76-5,1.27-7.36,1.85-4.56,1.09-6.61,1.76-4,1.13-5.78,1.69-3.39,1.11-4.85,1.59c-2.91,1-5.21,1.82-6.75,2.43S367.58,345.59,367.58,345.59Z"/><g class="cls-5"><path class="cls-20" d="M523.57,360.92c-1.83-.48-3.66-.9-5.45-1.27,17.45,6.78-1.48,23.86-23.67,30-25.83,7.15-19.23,38.47-41.21,38.47S423,401.2,397.19,401.2c-12.94,0-14.15-6.12-12.13-12.18-14.86,28.56,63.59,90.07,99.15,61C523.57,417.93,547.81,368.78,523.57,360.92Z"/></g><path class="cls-10" d="M424.12,501.74s29.69,8.79,38.46-8.79c7.15-13.19,7.71,0,24.73,5.46s39.55-7.65,47.77-17,22.56-7.12,25.3,5-3.85,20.3-19.76,21.42-10.45,2.2-5.54,6-4.91,6-20.3,2.2,1.66,15.93-15.94,4.92-6,9.36-12.07,0-14.29,1.66-22.54,6.61-4.94-5.49-1.1-11-12.66,9.35-33,4.94S411.47,500.08,424.12,501.74Z"/><path class="cls-24" d="M419,363.12s18.18-38.24,44.28-40.06S499.67,351,499.67,351,454.76,347.94,419,363.12Z"/><path class="cls-15" d="M442.2,355.38s20.64-4.12,35.09-4.81c-2.75-24.79-7.43-28.17-14-27.51S442.2,355.38,442.2,355.38Z"/><path class="cls-18" d="M597.9,400.29c-.59.3-1.32.55-2.15.91s-1.77.66-2.81,1a31,31,0,0,1-3.26.94c-.59.1-1.21.24-1.78.33s-1.25.15-1.89.23a19,19,0,0,1-3.77-.23,12.47,12.47,0,0,1-3.61-1.15,17.64,17.64,0,0,1-3.25-2.09,24.07,24.07,0,0,1-2.77-2.76,38.51,38.51,0,0,1-4.09-6,71.66,71.66,0,0,1-3.3-6.53,25.11,25.11,0,0,0,1.25,7.44,26.21,26.21,0,0,0,3.39,7.15,21.8,21.8,0,0,0,3,3.52,17.58,17.58,0,0,0,4.06,2.78l1.39.57c-.06.32-.13.7-.18,1.13a23.5,23.5,0,0,1-.57,2.89c-.29,1.11-.54,2.38-.93,3.68s-.87,2.74-1.37,4.25-1.19,3-1.79,4.64-1.39,3.25-2.17,4.87-1.54,3.36-2.44,4.95-1.65,3.33-2.54,4.93-1.73,3.19-2.58,4.72c-1.73,3-3.36,5.89-4.73,8.31-2.84,4.86-4.74,8.2-4.74,8.2a60.66,60.66,0,0,0,6.56-6.89c.91-1.11,1.9-2.3,2.88-3.62s2-2.68,3-4.21,2-3,2.94-4.66,1.87-3.29,2.75-5,1.62-3.5,2.41-5.22,1.31-3.5,1.92-5.2,1-3.46,1.4-5.05.54-3.2.76-4.61.16-2.8.2-3.95a14.14,14.14,0,0,0-.16-3c0-.37-.1-.69-.12-1a12.08,12.08,0,0,0,2.9.66,19.59,19.59,0,0,0,4.73-.1c.74-.19,1.47-.32,2.17-.51s1.32-.45,1.95-.66a23.39,23.39,0,0,0,3.36-1.74c.49-.28,1-.56,1.39-.85s.83-.58,1.18-.87a20.36,20.36,0,0,0,1.85-1.53c1-.89,1.49-1.43,1.49-1.43S599.1,399.81,597.9,400.29Z"/><path class="cls-22" d="M408.7,331S468,318.53,519.28,320.41C495.76,315.46,450.09,312.81,408.7,331Z"/><path class="cls-25" d="M386.24,456.15s5.7-19.47,22.92-13.75,26.88,13.16,38.93,17.19,13.13,30.87-17.19,29.15S378.8,474.44,386.24,456.15Z"/><path class="cls-25" d="M478.38,461.84S509.9,436.68,519,418.93c10.56-20.51,29.76-23.46,40.06-15.47s6.86,41.24-29.21,67S468.67,471.6,478.38,461.84Z"/><path d="M417.68,463.48,402,464.77c-4.74.34-10.22.88-16.11,1.39s-12.17,1.15-18.39,1.95c-6.28.65-12.51,1.47-18.33,2.36-2.94.43-5.72,1-8.4,1.38s-5.18,1-7.47,1.4-4.42,1-6.29,1.44l-2.62.62-2.17.62c-2.66.77-4.18,1.26-4.18,1.26s1.48-.61,4-1.62c.64-.25,1.38-.5,2.14-.79s1.68-.5,2.6-.82a63.73,63.73,0,0,1,6.22-1.75c2.29-.56,4.78-1.29,7.44-1.76s5.47-1.23,8.4-1.67c5.85-1,12.11-1.88,18.41-2.62s12.56-1.25,18.45-1.65,11.44-.68,16.2-.84,8.66-.22,11.44-.22S417.68,463.48,417.68,463.48Z"/><path d="M417.68,449.79s-1.42-.19-3.86-.56-5.95-.77-10.14-1.3-9.1-1.05-14.34-1.57-10.83-1-16.46-1.34c-2.8-.16-5.6-.35-8.37-.48s-5.47-.26-8.1-.22-5.2-.1-7.61,0-4.69,0-6.81.16-4,.23-5.76.29-3.18.26-4.43.34c-2.46.24-3.83.32-3.83.32l3.81-.66c1.21-.24,2.67-.55,4.4-.74s3.63-.45,5.75-.66,4.41-.29,6.85-.48,5-.2,7.63-.22,5.39.06,8.17.08,5.62.23,8.43.36c5.64.42,11.28.92,16.52,1.6s10.14,1.46,14.33,2.16C412.18,448.34,417.68,449.79,417.68,449.79Z"/><path d="M416.43,446s-1.15-.22-3.17-.64-4.84-1-8.24-1.75l-11.68-2.52c-4.26-.95-8.8-2-13.34-3s-9.07-2-13.31-3c-2.14-.43-4.2-.85-6.16-1.27s-3.79-.82-5.5-1.08-3.3-.67-4.69-.84-2.63-.44-3.62-.57c-2-.18-3.19-.32-3.19-.32s1.16,0,3.22,0c1,0,2.24.13,3.68.19s3,.26,4.75.46,3.61.5,5.6.75,4.08.67,6.22,1c4.31.77,8.89,1.75,13.45,2.72s9.08,2.15,13.3,3.26,8.14,2.21,11.53,3.13,6.14,1.85,8.07,2.46S416.43,446,416.43,446Z"/><path d="M499.25,462.24l3.5-.59c2.22-.31,5.38-.85,9.19-1.34s8.27-1.15,13-1.69,9.87-1.15,15-1.76,10.19-1,15-1.46,9.28-.77,13.14-1.08,7-.45,9.24-.65l3.52-.15-3.47.53c-2.22.33-5.37.87-9.21,1.37s-8.25,1.13-13,1.71-9.88,1.13-14.93,1.71-10.24,1-15,1.47-9.25.78-13.08,1.11-7,.46-9.29.62S499.25,462.24,499.25,462.24Z"/><path d="M502,452.94s4.5-2.08,11.54-4.54c3.53-1.19,7.64-2.61,12.15-3.86,2.23-.65,4.56-1.26,6.93-1.85s4.83-1.09,7.23-1.64,4.89-.92,7.32-1.36,4.82-.71,7.14-1,4.54-.44,6.68-.58,4.19-.12,6-.19,3.59.07,5.11.14a38.14,38.14,0,0,1,3.91.31c2.14.27,3.39.4,3.39.4H576c-1.06,0-2.36-.1-3.88,0s-3.19.16-5,.22-3.85.35-6,.55-4.31.61-6.61.86-4.64.77-7,1.12L540.26,443c-2.42.53-4.81,1-7.17,1.56s-4.72,1.09-6.94,1.69-4.41,1.13-6.48,1.63-4,1.08-5.78,1.6c-3.58,1-6.58,1.82-8.63,2.48S502,452.94,502,452.94Z"/><path d="M501,445.07s1.15-.61,3.22-1.53,5-2.25,8.6-3.7,7.83-3.1,12.42-4.69,9.55-3.13,14.52-4.51c2.48-.74,5-1.31,7.47-1.95s5-1.08,7.33-1.6,4.7-.82,6.92-1.16,4.3-.48,6.26-.74,3.7-.27,5.28-.32,3,0,4.1,0l3.54.06s-1.28.13-3.54.32a35.37,35.37,0,0,0-4.06.4q-2.33.27-5.19.66c-1.94.35-4,.69-6.16,1.09s-4.43.93-6.79,1.43c-4.7,1.11-9.69,2.3-14.64,3.71-2.48.7-5,1.38-7.37,2.15s-4.84,1.42-7.11,2.16c-4.64,1.44-8.92,2.81-12.59,4.05s-6.72,2.31-8.86,3Z"/><g class="cls-5"><path class="cls-3" d="M898.19,322.55c-1.71,6.24-7.06,8.76-19,3.13,20.42,49.29-16.85,101-39.72,110.62s-20.45,30.08-20.45,30.08-6-14.44-20.43-13.25c12,24.06,3.62,57.74-27.66,65s-40.88,16.82-44.5,37.24c-9.61-12-7.22-39.68-25.25-6-38.47,86.57-173.16,68.54-175.58,87.77S502.81,678,502.81,678s-12-49.28-75.74-52.89-67.38-36.08-83-55.32c-2.39,14.42-12,18-12,18S334.44,556.56,290,559c-97.4,3.6-119.07-77-119.07-77s0,15.62-7.19,26.44c-2.42-8.44-8.44-26.44-46.9-22.84-17.71,1.67-27-7.08-31.88-17.05-.11,10,3.17,19.57,13.63,25.19,29.86,16,72.84-2.94,63.37,43.72,6.54,2.17,12.38-19.68,12.38-19.68s-8.74,54.61,89.58,60.42c52.45,2.94,64.07,7.32,59.71,27.7,8,1.47,13.12-8.76,13.12-8.76s-15.3,38.62,70.65,49.55c61.18,13.12,101.22,34.94,69.18,76.46,29.85-12.37,35.67-28.4,45.89-45.9s29.13-28.39,64.8-34.21,128.19-30.57,134.73-75c0,0,7.28,8.74,13.1,12.37-3.65-12.37,4.37-35.68,43-42.26s46.64-30.57,43.71-56.79c8,11.66,16,8,16,8s-20.38-16,3.63-31.31,67.74-54.61,49.54-121.62c10.18,2.94,11.65,7.29,11.65,7.29S903.16,335,898.19,322.55Z"/></g><path class="cls-6" d="M500,33.59s-68.38,39.5-60.65,70.29C426.85,81.75,439.37,57.66,500,33.59Z"/><path class="cls-6" d="M411.13,114.87s-48.52,17-47.6,50.3C350.05,147.2,367.1,113.08,411.13,114.87Z"/><path class="cls-6" d="M478.89,61.11s-26.14,24.18-14.77,47.67C448.71,102.74,452.07,77.93,478.89,61.11Z"/><path class="cls-24" d="M217.49,678.22S218.7,753.55,270.1,830C311.94,897,190,777.47,217.49,678.22Z"/><path class="cls-24" d="M722.87,695.89s-11.81,81.32-76,160C619.29,880.8,721.56,820.48,722.87,695.89Z"/><path class="cls-25" d="M341.45,643.7S359.12,663.77,403.3,667s73.91,39.39,49.84,64.29c-14.48,11.23,42.57,14.46,69.87-17.69s52.22-45,93.18-57.86S662,679,634.66,694.28s-44.18,46.6-44.18,46.6-4-9.61,0-17.66-16.07,8-16.85,24.92-16.89,16.07-32.15,24.08-27.31,32.13-27.31,32.13,1.6-16.85,8.84-28.94-27.3,13.68-36.95,35.37-32.15,3.22-45.77-32.93c-8.07-25.71-8.88,2.39-10.47,11.24S416.18,766.62,414.57,753s-6.45,10.41-6.45,16c-8.82-24.89-26.51-38.56-44.17-51.42S335,685.43,335.82,676.64s-8-.82-8,9.59S309.31,634.05,341.45,643.7Z"/></g></g></svg>