<svg xmlns="http://www.w3.org/2000/svg" viewBox="0 0 906.89 1026.67"><defs><style>.cls-1{isolation:isolate;}.cls-2{fill:#c0c3c2;}.cls-12,.cls-3,.cls-5{fill:#8d7b63;}.cls-11,.cls-3{opacity:0.3;}.cls-10,.cls-11,.cls-3,.cls-5,.cls-7,.cls-9{mix-blend-mode:multiply;}.cls-4{fill:#d1d1d1;}.cls-5{opacity:0.7;}.cls-6,.cls-7{fill:#d0725b;}.cls-7{opacity:0.4;}.cls-8{fill:#151000;}.cls-10,.cls-13,.cls-9{fill:#a6a291;}.cls-9{opacity:0.6;}.cls-14{fill:#452c00;}.cls-15{fill:#e88f7c;mix-blend-mode:screen;}</style></defs><g class="cls-1"><g id="Layer_1" data-name="Layer 1"><path class="cls-2" d="M888.52,652.7a49.56,49.56,0,0,0,9-2.09,1.9,1.9,0,0,0,.92-2.87c-6.3-9-14.81-17.74-25.64-20.91-6.74-2-15.67-4.61-23-2.63,1.24-2.32,2.41-4.71,3.69-7,.74-1.37-.74-2.47-2-2.17-5.91,1.42-13.07,4.29-17.9,8.94-1.73-4.59-3.53-9-3.87-12.69a1.53,1.53,0,0,0-2.69-.84c-7.4,8-12.59,17.92-18.09,27.41-5.45,4.71-9.56,11.91-12.73,17.69-2.69,4.85-5,9.88-7.38,14.93-7.1,15.36-13.43,31.09-19,47.06-5.13,14.59-10,29.81-11.69,45.27-.62,5.7-1.39,19.23,6.68,20.4A46.08,46.08,0,0,0,798,785.07c6.6-2,12.94-5.45,19.15-8.48,2.23-1,4.52-2.13,6.84-3.17-1.28,2.13-2.64,4.15-4.11,6.2-.94,1.28-.14,3.67,1.75,3.33,16.84-3,36.55-3.09,50.66-13.92,5.06-3.89,9-9.24,12.36-14.64,4.9-7.94,9.61-16.1,13.85-24.42C910.91,705.54,911.07,670.86,888.52,652.7Z"/><path class="cls-3" d="M888.52,652.7a49.56,49.56,0,0,0,9-2.09,1.9,1.9,0,0,0,.92-2.87c-.22-.34-.43-.64-.65-.94-6.41.48-13,0-19.31,1.29,15.79,9.14,29.65,30.88,23.4,48.71-1.51,4.37-13.5,34.19-20.16,22.32-4.69,3.39-9,7.38-13.52,11a1.17,1.17,0,0,1-1.9-.5c-1.25-5.74-.51-11.57-1.45-17.29-9,5-29.16,20.5-27.53.6.36-4.59,1.2-9.06,1.9-13.59.78-5.2.52-10.54,1.06-15.79,1.11-11,4.74-20.62,9.93-30.26-4.43.08-8.74,1.1-13.13,1.72-.71.08-1.47-.28-1.43-1.1a32.5,32.5,0,0,1,5.9-17.06c-5,1.1-12.92,3.32-15.24-1-3.83-7.17-1.29-17.64,1.24-25.72a1.37,1.37,0,0,0-.46.32c-7.4,8-12.59,17.92-18.09,27.41-5.45,4.71-9.56,11.91-12.73,17.69-2.69,4.85-5,9.88-7.38,14.93-7.1,15.36-13.43,31.09-19,47.06-5.13,14.59-10,29.81-11.69,45.27-.62,5.7-1.39,19.23,6.68,20.4A46.08,46.08,0,0,0,798,785.07c6.6-2,12.94-5.45,19.15-8.48,2.23-1,4.52-2.13,6.84-3.17-1.28,2.13-2.64,4.15-4.11,6.2-.94,1.28-.14,3.67,1.75,3.33,16.84-3,36.55-3.09,50.66-13.92,5.06-3.89,9-9.24,12.36-14.64,4.9-7.94,9.61-16.1,13.85-24.42C910.91,705.54,911.07,670.86,888.52,652.7Z"/><path class="cls-3" d="M888.63,747c-6.82,8.22-14.61,16.57-25,20.1-9.77,3.3-19.94,6.17-30.26,7a1.13,1.13,0,0,1-1-1.7c5.06-9.43,11.07-18.31,15.66-28-6.89,5.71-13.27,12.09-20.65,17.14-5.79,4-13.11,8.64-20.23,9.73-11.89,1.74,5.43-28.48,6.62-31.25,9.78-22.57,18.7-47.91,13.45-72.73-2.47-11.64-6.5-22.94-8.14-34.74a33.52,33.52,0,0,1,1.14-13.37c-4.11,5.94-7.62,12.39-11.25,18.65-5.45,4.71-9.56,11.91-12.73,17.69-2.69,4.85-5,9.88-7.38,14.93-7.1,15.36-13.43,31.09-19,47.06-5.13,14.59-10,29.81-11.69,45.27-.62,5.7-1.39,19.23,6.68,20.4A46.08,46.08,0,0,0,798,785.07c6.6-2,12.94-5.45,19.15-8.48,2.23-1,4.52-2.13,6.84-3.17-1.28,2.13-2.64,4.15-4.11,6.2-.94,1.28-.14,3.67,1.75,3.33,16.84-3,36.55-3.09,50.66-13.92,5.06-3.89,9-9.24,12.36-14.64,2-3.23,4-6.54,5.88-9.84C889.91,745.37,889.28,746.23,888.63,747Z"/><path class="cls-2" d="M818.21,638.42a185,185,0,0,0-37.62-78.8c-9.73-11.91-21.14-22.78-32.42-33.19a172,172,0,0,0-18.7-15.16c-.2-.2-.39-.44-.58-.66-21.66-23.12-46.79-42.05-74.31-57.63s-59.13-27.09-91.17-22.32c-15.62,2.33-31,8.74-45,15.78S492.27,463.28,479,471.57a183.18,183.18,0,0,1-38.37,17.52,221.4,221.4,0,0,0-21.83-8,265.09,265.09,0,0,0-50.31-9.62c-33.05-3.39-66.9-2.41-99.94.42-30.62,2.62-61.08,9.28-87.43,25.66-19.34,12.06-36.84,28.86-51.67,46a187.75,187.75,0,0,0-32.09,51.92c-3.1,3.71-6.29,7.34-9.33,11-6.42,7.78-14.81,15-20.08,23.56-5,8.18-6.87,18-10.63,26.79a.74.74,0,0,0,.1.72.58.58,0,0,0,.62.58,15.14,15.14,0,0,0,6.45-1.66c-7.83,8.48-13.42,19-18,29.63-3.57,8.39-9.52,17.66-7.75,27.06.81,4.36,3.28,8.27,5.11,12.22,2.43,5.11,4.3,10.46,6.6,15.62.06.22.06.42.13.64a.4.4,0,0,0,.33.32l.33.84a.73.73,0,0,0,1.41-.32,21.51,21.51,0,0,0-.37-2.79A52.52,52.52,0,0,1,55.56,731c-.75,14.5,3.46,28.5,14.16,39.14,7.29,7.28,16.1,13,25,18.13,2.59,1.48,5.21,2.87,7.85,4.25,3.2,13.86,8.55,27.33,14.07,40.37,6,14.13,12.79,28.59,22.76,40.4,10.16,12.05,22.86,22,34.05,33.07,6.42,6.31,13.07,12.73,18.3,20.09,2.58,3.65,4.92,7.5,7.24,11.39-2.16,2.79-3.11,6.3-4.71,9.46a62.68,62.68,0,0,0-18.84-13.13c-6.19-2.89-13.58-5.57-20.35-3.13-4.75,1.73-6.88,6.3-8.09,11.13-11.14-.58-21.29-.5-27.4,11.15-5.19,9.95-4.42,23.88-2.31,34.53,2.18,10.83,7.92,21.7,18.21,26.69,6.52,3.19,14.34,1.08,21.15-2.61a17.82,17.82,0,0,0,4.8,2c4,1,13.53,2.86,20.15,1.42a36,36,0,0,0,19.29,7,38.47,38.47,0,0,0,17.1-3,.82.82,0,0,0,1.14.18c21.07-12.25,41.25-32.44,48.75-56.2a39.61,39.61,0,0,0,1.25-14.5c5.5,4.37,10.76,9,16.82,12.65a45.08,45.08,0,0,0,13.13,5.29c-2.63,4.52-4.82,9.29-7.14,14.18-3.83,8.12-5.23,16.2-.62,24.41A44.9,44.9,0,0,0,311,1023.43c6.05,3,12.37,2.69,18.3.6,3.51,2.47,7.87,3.29,13.8,2.11,6.26-1.28,11.49-4.41,16.54-8.22,1.05-.74,2.05-1.51,3.09-2.25,20,12.21,47.59.4,60.14-17.42,7.24-10.25,8.38-21.12,7.06-33.25a55.91,55.91,0,0,0-2.33-11.41c13,6.7,28.43,11,42.17,6.76,8.81-2.75,16.58-8.44,24.74-12.62a85,85,0,0,1,19.26-6.81c-4.2,9.92-5.27,21.05-.75,29.73,4.41,8.49,14.16,13.4,21.88,18.33,6.77,4.33,13.71,4,20.31,1.39.93.92,1.86,1.84,2.78,2.7,6.75,6.3,15.13,4.31,23.21,1.79,2.91,3.79,7.11,6.37,13.27,6.76,7.62.42,15.3-1.49,22.65-3,9.53-2.09,19.15-3.29,28.82-4.51,17.26-2.23,34.61-4.58,51.17-10.19a68.65,68.65,0,0,0,35.69-26.65,1,1,0,0,0,.16-1c1.51-1.69,2.93-3.37,4.26-5.16,5.12-6.87,5.85-15.54,8.49-23.46,5.78-17.5,11.41-35.11,13.63-53.5,1-8.36,1.94-16.86,2.3-25.3.27-7-.08-15.54-4.59-21.32-3-3.85-7.25-4.15-11.56-3,5.94-7.6,13.89-13.55,19.21-21.67,5.71-8.82,11.35-17.75,17.06-26.59,1.59-2.41,3.25-4.85,4.89-7.2,2.05-1.8,4-3.63,5.92-5.53,10.71-10.65,15.6-23.75,19.81-37.94S821,697.68,822,682.8,821.25,653,818.21,638.42Z"/><path class="cls-3" d="M475.51,513.15c25.67,14.42,52.16,27.2,78.84,39.63a88.77,88.77,0,0,0-10.09-6.92c-11.75-6.7-23.62-12.25-34.54-20.33-7.16-5.32-15.3-11.59-18.55-20.32-6.87-18.36,9.79-38.7,23.32-49.3,11.41-9,24.23-15.53,36.76-22.64a179.91,179.91,0,0,0-32.87,13.17c-14.05,7.12-26.11,16.84-39.39,25.13a183.18,183.18,0,0,1-38.37,17.52,221.4,221.4,0,0,0-21.83-8c-.86-.26-1.77-.5-2.63-.72C436.67,489.59,455.92,502.11,475.51,513.15Z"/><path class="cls-3" d="M818.21,638.42a184.79,184.79,0,0,0-28.74-66.93A177.08,177.08,0,0,1,798.9,590c9.7,22.16,15.86,48.39,6.93,71.83-5.19,13.68-14.85,25.09-23.68,36.59-9.46,12.33-19.26,24.46-29.48,36.19-21.16,24.26-44,47.26-69.57,66.93-22.16,17.13-45.81,37.06-72.78,45.94a70.41,70.41,0,0,1-19.92,3.91c-3.85.06-9.14.18-12.33-2.5-6.27-5.32-.35-16.46,1.95-22.36,11.58-29.84,30.25-55.44,49.37-80.81,9.17-12.17,18.6-24,28.31-35.73,4-4.84,7.95-9.69,11.72-14.72a181.4,181.4,0,0,1-18.84,18.35A226.74,226.74,0,0,1,630,729.45c-5.2,3.43-11,6.77-17.47,5.49a1.1,1.1,0,0,1-.79-1.38,100.16,100.16,0,0,0,4.65-14.66c-7.1,7.24-13.71,18.39-23.57,20.61-11.7,2.63-19.27-8.86-23.4-18-3.19-7.08-6.05-13.1-11.71-18.59-4.92-4.71-7.81-11.06-10.3-17.32-6.25-15.74-10-32.38-21.55-45.4a1.14,1.14,0,0,1,1.11-1.9c7.26,1.06,12.49,6,18,10.41-10.45-21.5-33.35-39.31-57.76-34.85,14.08,3.95,32.19,6,39.64,19.69a1.14,1.14,0,0,1-1.29,1.64c-7.22-1.54-13.76-5.09-21.1-5.37,37.93,26.91-1.95,79.63-29.41,99a1.14,1.14,0,0,1-1.67-.69c-3.61-19.67-.89-49.35-20.77-60.9,8.12,41.73,1.28,99.32-45.1,114.64a1.17,1.17,0,0,1-1.44-1.12c-.61-11.77.52-23.86-2.43-35.35C392.26,759.2,382,773.78,368,785.29a1.13,1.13,0,0,1-1.93-.8c0-8.88.44-17.75-1-26.55a224.77,224.77,0,0,1-25,31.26c-5.07,5.26-10.3,10.35-15.78,15.2-5.63,5.08-12.19,9.55-17.52,14.94-7,7.06-14.22,14.48-24.7,9.95-8.94-3.91-16.91-9.67-25.74-13.82-29.34-13.81-78.69-32.64-80.06-71.14-5.67,10.56-9.84,21.83-14.36,32.92a1.15,1.15,0,0,1-1.65.66c-11.93-5.41-21.86-14-33-20.71-9.48-5.72-19.41-11.07-28.17-17.83C90.52,732.76,81.87,724,79.67,713c-1.62-8.22.16-15.84,3.39-23.19-10.12,7.71-18.48,17.5-25.6,28a1.15,1.15,0,0,1-2.08-.24c-6.69-32.42,13.17-62.36,38.93-80.38C85,639.9,75.8,643.21,67.63,648.67a1.14,1.14,0,0,1-1.53-1.57c6.28-9.8,12.54-20.29,21.17-28.29,3.52-3.31,7.33-6.24,12-7.74,2.34-.76,6-2.55,8-.14,1,1.2,1.37,2.91,2.18,4.21,1.83,2.89,3.92,5.61,5.69,8.54,4.06,6.88,7.88,13.48,13.22,19.43C138.53,654.48,152,661.8,166,667.4c14.56,5.79,29.41,10.84,44.08,16.26,16.2,6,32.92,10.06,50.12,5.79,28.07-6.89,49.08-28.91,72.42-44.57,26.61-17.83,55.33-31.65,77.46-55.39a393.88,393.88,0,0,0,33.39-41.74c4.55-6.46,9.29-12.8,13.72-19.34,3.79-5.55,7.6-11.51,8.6-18.3-21-12.36-42-25.59-64.87-33.67a294.18,294.18,0,0,0-32.46-5c-33.05-3.39-66.9-2.41-99.94.42-30.62,2.62-61.08,9.28-87.43,25.66-19.34,12.06-36.84,28.86-51.67,46a187.75,187.75,0,0,0-32.09,51.92c-3.1,3.71-6.29,7.34-9.33,11-6.42,7.78-14.81,15-20.08,23.56-5,8.18-6.87,18-10.63,26.79a.74.74,0,0,0,.1.72.58.58,0,0,0,.62.58,15.14,15.14,0,0,0,6.45-1.66c-7.83,8.48-13.42,19-18,29.63-3.57,8.39-9.52,17.66-7.75,27.06.81,4.36,3.28,8.27,5.11,12.22,2.43,5.11,4.3,10.46,6.6,15.62.06.22.06.42.13.64a.4.4,0,0,0,.33.32l.33.84a.73.73,0,0,0,1.41-.32,21.51,21.51,0,0,0-.37-2.79A52.52,52.52,0,0,1,55.56,731c-.75,14.5,3.46,28.5,14.16,39.14,7.29,7.28,16.1,13,25,18.13,2.59,1.48,5.21,2.87,7.85,4.25,3.2,13.86,8.55,27.33,14.07,40.37,6,14.13,12.79,28.59,22.76,40.4,10.16,12.05,22.86,22,34.05,33.07,6.42,6.31,13.07,12.73,18.3,20.09,2.58,3.65,4.92,7.5,7.24,11.39-2.16,2.79-3.11,6.3-4.71,9.46a57.94,57.94,0,0,0-9.62-7.94,7.39,7.39,0,0,1-2.66.42c-10.2-.36-12.61,4.36-14.46,13.56-1.44,7.32-2.76,14.56-6.76,21-1.91,3-6.33,4.72-9.51,2.53-15.94-11.05-5.67-27.51-.86-42.31a20.74,20.74,0,0,0-3.41,7.64c-1.26-.08-2.51-.12-3.74-.14-3.4,4.27-5.68,9.06-5.07,14.84.84,7.84,2.32,19.51-7.27,22.74-7.48,2.52-12.78-3.41-15.19-9.83a78.66,78.66,0,0,0,1.56,18.07c2.18,10.83,7.92,21.7,18.21,26.69,6.52,3.19,14.34,1.08,21.15-2.61a17.82,17.82,0,0,0,4.8,2c4,1,13.53,2.86,20.15,1.42a36,36,0,0,0,19.29,7,38.47,38.47,0,0,0,17.1-3,.82.82,0,0,0,1.14.18c21.07-12.25,41.25-32.44,48.75-56.2a39.61,39.61,0,0,0,1.25-14.5c5.5,4.37,10.76,9,16.82,12.65a45.08,45.08,0,0,0,13.13,5.29c-2.63,4.52-4.82,9.29-7.14,14.18-3.83,8.12-5.23,16.2-.62,24.41A44.9,44.9,0,0,0,311,1023.43c6.05,3,12.37,2.69,18.3.6,3.51,2.47,7.87,3.29,13.8,2.11,6.26-1.28,11.49-4.41,16.54-8.22,1.05-.74,2.05-1.51,3.09-2.25,20,12.21,47.59.4,60.14-17.42,7.24-10.25,8.38-21.12,7.06-33.25a55.91,55.91,0,0,0-2.33-11.41c13,6.7,28.43,11,42.17,6.76,8.81-2.75,16.58-8.44,24.74-12.62a85,85,0,0,1,19.26-6.81c-4.2,9.92-5.27,21.05-.75,29.73,4.41,8.49,14.16,13.4,21.88,18.33,6.77,4.33,13.71,4,20.31,1.39.93.92,1.86,1.84,2.78,2.7,6.75,6.3,15.13,4.31,23.21,1.79,2.91,3.79,7.11,6.37,13.27,6.76,7.62.42,15.3-1.49,22.65-3,9.53-2.09,19.15-3.29,28.82-4.51,17.26-2.23,34.61-4.58,51.17-10.19a68.65,68.65,0,0,0,35.69-26.65,1,1,0,0,0,.16-1c1.51-1.69,2.93-3.37,4.26-5.16,5.12-6.87,5.85-15.54,8.49-23.46,5.78-17.5,11.41-35.11,13.63-53.5,1-8.36,1.94-16.86,2.3-25.3.27-7-.08-15.54-4.59-21.32-3-3.85-7.25-4.15-11.56-3,5.94-7.6,13.89-13.55,19.21-21.67,5.71-8.82,11.35-17.75,17.06-26.59,1.59-2.41,3.25-4.85,4.89-7.2,2.05-1.8,4-3.63,5.92-5.53,10.71-10.65,15.6-23.75,19.81-37.94S821,697.68,822,682.8,821.25,653,818.21,638.42ZM210.4,963c-2.46,7.62-6.76,16.09-13.05,21.24-5.73,4.75-12.69,1.86-15.64-4.37s-2.42-15.44,3.71-19.57a18.2,18.2,0,0,1,4.19-2s0,0,0,0l.06,0c.64-.24,1.31-.4,2-.58.29,0,.59-.14.91-.18,5.07-1,10.56-.24,15.54.84a2.09,2.09,0,0,1,1.68,2.37A2.54,2.54,0,0,1,210.4,963Zm116.25-.3c-3.07,5.28-7.64,12.44-14.16,13.82-4.09.88-7.16-1.46-7-5.82.38-10.76,6.92-25.66,17.21-29.77a1.89,1.89,0,0,1,2.42.68c2.57-.52,5.08.44,5.86,3.49C332.52,951,329.6,957.64,326.65,962.69Zm52.07-12.55c-5,8.6-13,29.18-25.48,28.31-19.71-1.3,5.73-44.07,16.7-47.36a2.22,2.22,0,0,1,1.95.3C381.49,928.16,383.5,941.82,378.72,950.14Zm49.19,13.52c-.32,5.45-1,11.65-5.39,15.4-3.63,3.06-7.6-.24-9.13-3.75-3.65-8.26-6.63-24.37,3.59-29.26a2.64,2.64,0,0,1,3.67,2.05,4,4,0,0,1,3.53,1.16C427.91,952.87,428.17,958.78,427.91,963.66Z"/><path class="cls-3" d="M766,787.9c-14.65,19.35-29.09,38.84-45.58,56.65A649.74,649.74,0,0,1,669,893.92a168,168,0,0,0,48.72-28.6,211.61,211.61,0,0,0,18.57-18c3.72-4.07,7.53-8.84,12.5-11.47,10.45-5.45,6.12,21.4,5.87,25-1.17,17-2.94,34.55-8.69,50.71-4.22,11.85-10.33,23.08-20.26,31.1-10.26,8.28-23.79,11.51-36.54,13.62-15.88,2.64-31.78,5.67-47.76,7.82-8.63,1.16-17.28,2.14-26,2.66-5.44.29-12.68,2.29-18,.75-10.09-2.87-13-14.1-8.85-23,5.38-11.61,15.65-17,28.32-15.9,13.88,1.18,27,6.19,40.78,8.18,13.27,1.9,26.61,1.6,38.58-3.87A72.67,72.67,0,0,1,673,933c-1.11-.16-1-2,0-2.19,18.94-4.11,38-10.35,53-22.76a162,162,0,0,1-41,9c-27.3,2.56-55.18,1.48-82.57.56-17.19-.59-39.88-1.59-51.73-16.07-6.4-7.82-6.31-18.72-5-28.21,2.19-15.54,8-30.2,14.24-44.51,11.43-26.35,23.1-52.08,38.73-76.06-9.33,9.88-18.37,20.17-29.88,27.45a1.15,1.15,0,0,1-1.56-.38c-8.84-12.21-7-31.6-7.78-45.8-.81-14.4-1.06-38.32-18-43.65a1.16,1.16,0,0,1-.86-1.1c.37-14.27-5.7-27.31-8.8-41a61.76,61.76,0,0,0-6-8.07,1.14,1.14,0,0,1,1.11-1.9c7.26,1.06,12.49,6,18,10.41-10.45-21.5-33.35-39.31-57.76-34.85,14.08,3.95,32.19,6,39.64,19.69a1.14,1.14,0,0,1-1.29,1.64c-5.71-1.22-11-3.67-16.6-4.79,14.87,12.21,23.35,33.15,20.73,52.06-3,21.68-18.31,38.75-27.21,58.16,13.69-8.51,25-20.16,37.53-30.22a1.12,1.12,0,0,1,1.6,0c4.09,5.09,5.17,12.19,6.08,18.49,1.09,7.56,2.4,15.2,3,22.82.41,5.53.26,11.24.94,16.74.66,5.31,1.6,10.61,2,16,.63,8.08.32,16.2-4,23.32-4.56,7.56-11,13.54-17.07,19.81-6.75,7-13.55,13.9-20.76,20.4A442.75,442.75,0,0,1,465,884.49Q444.46,898.4,423,910.76c-6.92,4-13.8,8.56-21.12,11.81-4.31,1.9-9.14,2.53-13.53.56-8.56-3.89-18.21-13.69-18.69-23.68-.36-8.18,5.07-15.14,10.81-20.41,15.72-14.44,36.53-21.68,52.21-36,22.52-20.49,33.77-49.41,45.34-76.82-12.41,13.3-21.31,30.82-38.94,37.26a151.81,151.81,0,0,1-16.18,10.69c-15.8,9.52-32.19,18-48.73,26.09a1.14,1.14,0,0,1-1.66-1.29c1.34-6,2.9-11.91,2.06-18-5,9.16-9.46,19.53-17.58,26.26-8.83,7.32-19.15,12.54-29.46,17.47-7.1,3.37-14.5,6-21.56,9.46-6.05,3-15.83,7.18-17.49,14.52a1.13,1.13,0,0,1-1.65.68c-9.51-4.09-18.23-9.76-27.69-13.95-9.81-4.37-20.3-6.82-30.24-10.87-8.57-3.51-17.18-7.46-24.4-13.32-5.59-4.53-8.67-10.1-11.78-16.1-6.33-5.07-12.82-10.53-16.93-17.56s-6.44-15.1-8.2-23.06c-1.21,8.46-.12,17.22-3.55,25.3a1.17,1.17,0,0,1-1.3.52c-13.42-5.47-24.27-15.22-35.32-24.36-12.72-10.51-26.38-21-40.54-29.46C75.24,759.61,62.09,753,59.63,738.29c-1.54-9.28,2.79-18.57,7.25-27.07a208.79,208.79,0,0,0-14.34,20.17,1.13,1.13,0,0,1-1.95,0c-5.15-7.22-9.43-14.7-12.09-23a18.32,18.32,0,0,0,.25,4.73c.81,4.36,3.28,8.27,5.11,12.22,2.43,5.11,4.3,10.46,6.6,15.62.06.22.06.42.13.64a.4.4,0,0,0,.33.32l.33.84a.73.73,0,0,0,1.41-.32,21.51,21.51,0,0,0-.37-2.79A52.52,52.52,0,0,1,55.56,731c-.75,14.5,3.46,28.5,14.16,39.14,7.29,7.28,16.1,13,25,18.13,2.59,1.48,5.21,2.87,7.85,4.25,3.2,13.86,8.55,27.33,14.07,40.37,2.19,5.07,4.44,10.2,6.91,15.22-3.46-9.19-7.57-21.62-3-30.1,6.31-11.75,21.25,0,28.12,5.05,6,4.35,12.68,8.2,17.41,14,5.07,6.23,7.9,14,12.33,20.71.19-2.2.2-4.39.22-6.58a1.15,1.15,0,0,1,2.12-.58,54.91,54.91,0,0,0,3.84,5.76,31.53,31.53,0,0,0-.25-6.6c-.19-1.38,1.84-2,2.18-.58,5,21.66,33.14,18.33,43.78,35.43,11.11,17.81,9.45,40.25,17.44,59.23.42,1-.87,1.75-1.65,1.31-7.48-4.35-15.63-5.36-24-6.44-4.93-.64-10.09-1.12-14.47-3.67-5.47-3.13-10.84-6.25-16.27-9.26.16.22.32.4.47.64,2.58,3.65,4.92,7.5,7.24,11.39-2.16,2.79-3.11,6.3-4.71,9.46-.86-.88-1.76-1.66-2.64-2.48a1.24,1.24,0,0,1-1.72.9c-15.12-7-23.2,16.94-22.94,27.93.15,7.14,1.28,28.14-11.64,25.09-4.92-1.15-8.18-8.18-9.7-12.37a60,60,0,0,1-3.46-20.58,80.57,80.57,0,0,1,3.55-23.66c-.69,0-1.38-.08-2.05-.1-3.08,6.06-5.81,12.39-5.92,19.27-.12,5.35,1,10.55,1.52,15.84s1.29,18.09-7.56,17.13c-8.7-1-12.89-11.27-14.54-18.73a38.89,38.89,0,0,1-.29-14.7c-2.05,8.72-1.22,18.85.4,27,2.18,10.83,7.92,21.7,18.21,26.69,6.52,3.19,14.34,1.08,21.15-2.61a17.82,17.82,0,0,0,4.8,2c4,1,13.53,2.86,20.15,1.42a36,36,0,0,0,19.29,7,38.47,38.47,0,0,0,17.1-3,.82.82,0,0,0,1.14.18c21.07-12.25,41.25-32.44,48.75-56.2a39.61,39.61,0,0,0,1.25-14.5c5.5,4.37,10.76,9,16.82,12.65a45.08,45.08,0,0,0,13.13,5.29c-2.63,4.52-4.82,9.29-7.14,14.18-3.83,8.12-5.23,16.2-.62,24.41A44.9,44.9,0,0,0,311,1023.43c6.05,3,12.37,2.69,18.3.6,3.51,2.47,7.87,3.29,13.8,2.11,6.26-1.28,11.49-4.41,16.54-8.22,1.05-.74,2.05-1.51,3.09-2.25,20,12.21,47.59.4,60.14-17.42,7.24-10.25,8.38-21.12,7.06-33.25a55.91,55.91,0,0,0-2.33-11.41c13,6.7,28.43,11,42.17,6.76,8.81-2.75,16.58-8.44,24.74-12.62a85,85,0,0,1,19.26-6.81c-4.2,9.92-5.27,21.05-.75,29.73,4.41,8.49,14.16,13.4,21.88,18.33,6.77,4.33,13.71,4,20.31,1.39.93.92,1.86,1.84,2.78,2.7,6.75,6.3,15.13,4.31,23.21,1.79,2.91,3.79,7.11,6.37,13.27,6.76,7.62.42,15.3-1.49,22.65-3,9.53-2.09,19.15-3.29,28.82-4.51,17.26-2.23,34.61-4.58,51.17-10.19a68.65,68.65,0,0,0,35.69-26.65,1,1,0,0,0,.16-1c1.51-1.69,2.93-3.37,4.26-5.16,5.12-6.87,5.85-15.54,8.49-23.46,5.78-17.5,11.41-35.11,13.63-53.5,1-8.36,1.94-16.86,2.3-25.3.27-7-.08-15.54-4.59-21.32-3-3.85-7.25-4.15-11.56-3,5.94-7.6,13.89-13.55,19.21-21.67,5.71-8.82,11.35-17.75,17.06-26.59,1.59-2.41,3.25-4.85,4.89-7.2,2.05-1.8,4-3.63,5.92-5.53,10.71-10.65,15.6-23.75,19.81-37.94,2-6.84,4.09-13.54,5.82-20.32C805.07,735,785.44,762.17,766,787.9ZM221.35,963.44c-.11-.06-.2-.06-.32-.12a1.91,1.91,0,0,1-.51.16c-18.21,1.1-13.66,20.87-21.16,32.3-7.09,10.73-16.27,3.89-19.55-6-3.36-10.1-2.47-27.17,8.91-32.2,10.59-4.63,23.09,0,33.24,3.69C223.31,961.75,222.73,963.92,221.35,963.44Zm102,14.75c-2.45,5.86-5.58,14.44-12,17.23-5,2.1-11.47,1.22-13.52-4.47-3.85-10.81,4-25.41,9.21-34.55,4-7.22,12.83-21.24,22.33-13.92C342.47,947.94,326.43,970.61,323.3,978.19ZM380,957.6a140.49,140.49,0,0,1-11.83,26.81c-4.19,7.08-9.33,14.46-17,18.11-5.23,2.48-12.17,2.14-14.76-3.65-2.94-6.56-.5-15.7,1.33-22.2,4.79-17.43,13-39,31.76-45.12a1,1,0,0,1,1.18.42,14.09,14.09,0,0,1,6.24-.76,7.19,7.19,0,0,1,5.81,4.57C385.28,942.7,382.21,951,380,957.6Zm48.2,7c-.38,9.12-1.88,24.14-11.21,28.91-3.51,1.83-9,2.79-11.37-1.24-1.06-1.82-.52-4.53-.28-6.48a62.12,62.12,0,0,0,.6-11.33c-.36-6.77-2.16-15.16,1.75-21.37,3.11-5,7.64-7.6,13.55-7.24a1.18,1.18,0,0,1,1,.68C428.19,948.18,428.39,959.34,428.19,964.64Zm103.19-11c-5.8,3.41-13.14,3.29-14.06-4.85-1.17-10.25,6.07-20.32,13.59-26.53,8-6.6,17.4-5.34,25.25.58,1.05.8.24,2.45-.78,2.13a.86.86,0,0,1-.35.4C545.1,932.84,542.29,947.21,531.38,953.59ZM586,934.48c-6.61,9.95-15.05,21.34-25.53,27.23-6.63,3.69-15.81,3.51-13.72-6.52,1.79-8.68,6.29-21.73,13.95-26.85,7.43-4.93,18.53-1.7,25.38,3.53a1.09,1.09,0,0,1,.6.44c.13.12.26.2.38.33C588,933.4,586.94,934.66,586,934.48Z"/><path class="cls-3" d="M531.16,915.39c3.68-2.93,8.61-5.57,13.34-3.73,2.55,1,4.67,3,6.84,4.63a40.5,40.5,0,0,0,11,5.4c15.43,5.43,30.66,6.43,46.76,7.14a33.77,33.77,0,0,1,7.69-.18c13.88,1.18,27,6.19,40.78,8.18,1.92.26,3.84.48,5.72.66-7.2-1.45-14.33-3.53-20.06-7.62a1.16,1.16,0,0,1,.27-2.09c4.74-1.16,9.49-.66,14.33-.92,6.4-.32,12.87-2.06,19.18-3.23a97.19,97.19,0,0,0,14.14-3.93c-19,4.11-38.53,5.58-58.24,5.4a492.57,492.57,0,0,1-55.1-3.29c-7.08-.86-14.05-1.77-20.75-4.29a34.54,34.54,0,0,1-8-4.31c-2.8-2.09-5-4.88-7.9-6.78a1.14,1.14,0,0,1,0-1.93c-3.16-5.37-3.38-12.81-3.24-18.61.28-11.45,2.94-22.73,6.32-33.66,7.6-24.41,19.2-47.39,33.13-68.76a65.41,65.41,0,0,1-9.9,9.78,1.15,1.15,0,0,1-1.88-.5c-3-8.9-2.76-18.27-4.57-27.35-2-9.85-3.93-19.71-5.7-29.56-2.27-12.83-5.15-28.57-14.46-38.52,10.35,23,14.36,48.31,17.89,73.07,1.51,10.77,4.34,23.4,2,34.21a67.29,67.29,0,0,1-9,21.3,1.06,1.06,0,0,1,.41,1.5c-13.17,22.8-32,41.11-51.41,58.53-19.63,17.65-40.27,36.26-63.25,49.51a91.69,91.69,0,0,1-33.67,11c-3.73.42-8.32.6-11.43-2-3.69-3.07-4.35-7.94-7.56-11.33-9.2-9.69-22.46-2.85-30.6,4.45-4.13,3.75-10.23,10.73-16.46,9.82,1.14,1.11,2.14,2.15,2.92,3,.93,1-.46,2.51-1.44,1.69a17.49,17.49,0,0,1-3.55,6.61,54.28,54.28,0,0,0-6.46,11.39c-3.78,8.87-9,18.17-11.3,27.51-1.53,6.2,4.69,22.54-8,17.67-7.7-3-19.27-11.11-20.33-20-1.39-11.67,5.5-20.09,12-28.76,1.75-3.73,3.69-7.22,5.34-10.12,3.41-6.08,10.18-16.93,17.9-15.84,3.53-.36,7.5,2.12,10.77,4.87,5.54-6.9,8.72-15.56,11.53-23.86,2.63-7.78,6.52-16.65,4.15-25-1.32-4.57-3.55-8.54-5.65-12.75-.82-1.57-1.65-3.39-1.15-5.23,2-6.94,8.17-11.49,13.12-16.31a1.12,1.12,0,0,1,1.92.79c-.1,3.06-.52,6.11-.82,9.16,5.11-6.42,12.71-10.67,19.41-15.22,10.91-7.42,22-14.36,33.39-21s23.9-12,33.77-20.87c7.28-6.5,12.25-14.34,16.1-23a96.65,96.65,0,0,1-30.28,27.67c-10.95,6.52-22.28,12-32.89,19.15-11.51,7.76-22.65,16-34.32,23.52a1,1,0,0,1-.91.12,1.12,1.12,0,0,1-1.12-1.4c1-3.95,2.37-7.78,2.61-11.79-6.82,6.64-12.36,15.18-20.82,19.75-10,5.41-21.05,9.14-31.52,13.7-5.19,2.26-11.41,4.15-16,7.36-3.37,2.36-6.17,5.35-9.53,7.68-4.67,3.18-8,3.2-11.13-1.77-6.35-10.23-19.8-15.36-30.71-19.31-10.11-3.69-20.55-6.64-30.49-10.79-9.23-3.85-17.94-8.62-24.42-16.4a45.6,45.6,0,0,1-6.78-11.43A46.89,46.89,0,0,0,194,857.2c7.3,7.88,17,12.15,26.53,16.72,8.64,4.07,17.51,7.48,26.25,11.41,5.48,2.47,11.59,5.28,13,11.65,1,4.6.29,9.39,1.31,14,1.37,6.28,2.58,12.61,3.91,18.93,1.44,6.78,2.71,13.65,3.57,20.57.2,1.71.43,3.63.65,5.7a55.36,55.36,0,0,0,0-7.4c5.5,4.37,10.76,9,16.82,12.65a45.08,45.08,0,0,0,13.13,5.29c-2.63,4.52-4.82,9.29-7.14,14.18-3.83,8.12-5.23,16.2-.62,24.41A44.9,44.9,0,0,0,311,1023.43c6.05,3,12.37,2.69,18.3.6,3.51,2.47,7.87,3.29,13.8,2.11,6.26-1.28,11.49-4.41,16.54-8.22,1.05-.74,2.05-1.51,3.09-2.25,20,12.21,47.59.4,60.14-17.42a41.31,41.31,0,0,0,2.89-4.72,42.48,42.48,0,0,1-10.55,10.05c-6.92,4.71-15.24,10-23.46,11.87-5.32,1.26-13.28,1.81-17.25-2.85-2.91-3.4,5.6-8.92,7.26-10.5,8-7.64,14.82-16.83,13.32-28.58-.87-6.88-2.37-12.93,4.37-17.2,3.39-2.17,6.94-4.17,10.46-6.06a13.85,13.85,0,0,1,11.33-4.37,1.18,1.18,0,0,1,1,.68c2,.52,3.33,2.13,4.25,4.21,2.46,1.85,4.85,3.71,7.2,5.66,11.59,5,24.44,7.58,36.11,3.91,8.81-2.75,16.58-8.44,24.74-12.62a85.4,85.4,0,0,1,18.26-6.55C517.42,931.53,522.75,922.11,531.16,915.39ZM386.68,990.33a83.76,83.76,0,0,1-17.5,17.92c-6.84,5.3-15.12,10.81-23.94,11.71-8.31.87-14.66-3.15-18.41-10.55-4.37-8.64-1.49-19.77,1.76-28.25,4-10.25,8.59-20.83,15.32-29.58a64.85,64.85,0,0,1,12.74-12.19,35.57,35.57,0,0,1,9.66-6.57c.6-.39,1.22-.75,1.81-1.13a1,1,0,0,1,1.1,0,2,2,0,0,0,.3-.14,1,1,0,0,1,1.18.42,14.09,14.09,0,0,1,6.24-.76,7.19,7.19,0,0,1,5.81,4.57c.12.32.22.65.3,1,4.86,4.85,6.46,11.47,7.46,18.91C392.12,967.29,393.84,980,386.68,990.33Z"/><path class="cls-3" d="M686.87,884.25c18-11.61,33.45-27.63,47.38-43.63,4.56-5.24,10.39-12.12,17-16.61a13.47,13.47,0,0,0-5.79.48c.24-.3.5-.6.75-.88C727.21,844.53,705.9,863.32,686.87,884.25Z"/><path class="cls-3" d="M738.86,948.48c-8,7.78-16.24,15.2-26,20.55-11.5,6.32-24.52,8.8-37.26,11.41-14.17,2.89-28.33,5.83-42.66,7.86-7.09,1-14.17,1.81-21.22,3-4.87.78-10.1,1.8-15,1.06-8.59-1.2-12.79-9.91-15-17.4-3.73-13.08-1.27-32.63,10.1-41.87-5.32,2.6-9.15,8.86-11.67,13.87-4,7.86-4,15.08-3.38,23.66.55,7.66.29,21.18-10.84,16.95-14.49-5.54-27.4-27.37-17-40.61,2.4-7.24,6.24-14.92,11.71-18.59a14.88,14.88,0,0,1,7.41-2.36c-1.32-.38-2.67-.74-4-1.14a1,1,0,0,1-1.08,1c-8.38-.42-14.33,15.18-17.3,21.29-2.31,4.7-5.8,9.69-5.42,15.1.43,6.48,4.39,11.83,7.82,17.11a1.12,1.12,0,0,1-.41,1.54c-9.43,7-19.62.32-27.35-6.11-5.78-4.86-8.91-10.07-10.2-16.17a27,27,0,0,0,2.91,12c4.41,8.49,14.16,13.4,21.88,18.33,6.77,4.33,13.71,4,20.31,1.39.93.92,1.86,1.84,2.78,2.7,6.75,6.3,15.13,4.31,23.21,1.79,2.91,3.79,7.11,6.37,13.27,6.76,7.62.42,15.3-1.49,22.65-3,9.53-2.09,19.15-3.29,28.82-4.51,17.26-2.23,34.61-4.58,51.17-10.19a68.65,68.65,0,0,0,35.69-26.65,1,1,0,0,0,.16-1c1.51-1.69,2.93-3.37,4.26-5.16A21.61,21.61,0,0,0,738.86,948.48Z"/><path class="cls-3" d="M217.61,956.42c-5.39-1.31-10.76-2.39-14.91-6.34a1.16,1.16,0,0,1-.19-1.36c3.07-5.42,10.14-4.43,17.12-1.93a313.88,313.88,0,0,1-26.95-18.91c2.21,3.25,4.27,6.6,6.29,10-1.85,2.35-2.81,5.27-4,8,.51.78,1.06,1.52,1.61,2.23.16.06.29.06.45.12a1.17,1.17,0,0,1,.74,1.36,28.31,28.31,0,0,0,7.75,6.68,106.27,106.27,0,0,1,16.46,5,1.19,1.19,0,0,1,.76,1.16,58,58,0,0,0,16.94,1.15A168.15,168.15,0,0,0,217.61,956.42Z"/><path class="cls-3" d="M226.75,1004.74c-5.87,4.17-12.51,8.35-20,8.36-7,0-13.89-2.18-20.23-5-6.13-2.72-7.76-7.58-8.74-14-1.06-7.1-2.47-15.14-1.49-22.3A21.51,21.51,0,0,1,185.17,957c5.52-3.91,9.34-2.67,14.94-1.36.26,0,.51,0,.77,0a37.5,37.5,0,0,1-5.39-5.52c-11.21-3.29-19.7,7-22,17.25-2.81,12.65-.36,26.62.89,39.34a1.14,1.14,0,0,1-.83,1.12c-15.24,2.91-23.94-6.76-27-19-.37-.86-.69-1.7-1-2.44a60,60,0,0,1-3.46-20.58,85.92,85.92,0,0,1,.81-11.27c-4.3,17.33-2.06,34.93,6.34,51.64a1.19,1.19,0,0,1-.4,1.58c-9.87,7-20,1.08-27.24-7.28a31.35,31.35,0,0,0,13.81,14.08c6.52,3.19,14.34,1.08,21.15-2.61a17.82,17.82,0,0,0,4.8,2c4,1,13.53,2.86,20.15,1.42a36,36,0,0,0,19.29,7,38.47,38.47,0,0,0,17.1-3,.82.82,0,0,0,1.14.18c17.09-9.94,33.58-25.16,43.18-43.21A412.34,412.34,0,0,1,226.75,1004.74Z"/><path class="cls-4" d="M801.64,610.65c-5.07-13.44-13.95-25.85-21.49-38.06a313.89,313.89,0,0,0-29.77-41.45c-21.15-24.44-46.86-44.09-74.75-60.2-25.14-14.53-57.34-30.35-86.87-31.26-29.9-1-58.14,15.36-80.88,33.21-1,.78-.2,2.57,1,2,12.21-5.28,24.8-11.7,37.78-15a117,117,0,0,1,41.24-2.39c29.1,3.23,57.93,18.45,83.41,32,25.16,13.4,49.79,29.74,70.07,49.91a307.1,307.1,0,0,1,29.5,34.79c9.25,12.46,16.57,26.89,26.83,38.42C799.32,614.44,802.63,613.17,801.64,610.65Z"/><path class="cls-4" d="M850.93,616.68c-7.14-2.26-15.62,8.33-19.71,12.9a1.12,1.12,0,0,0,1.48,1.64c3.07-2.2,5.88-4.69,8.95-6.88s7.52-2.28,9.86-5.07A1.68,1.68,0,0,0,850.93,616.68Z"/><path class="cls-4" d="M893,641.59c-11.39-17.85-35.05-20-52.27-10.41-.69.34-.25,1.61.52,1.42,18.3-3.82,34.26,2.41,50,11.09C892.51,644.44,893.68,642.69,893,641.59Z"/><path class="cls-4" d="M893.36,664.73c-7-12.15-18.7-11.77-30.86-13.6a1.11,1.11,0,0,0-.36,2.19c22.62,6.11,36.55,24.84,32.91,48.7-.07.58.79.88,1,.3A43,43,0,0,0,893.36,664.73Z"/><path class="cls-4" d="M707.34,676.1c-24.4,19.06-46.43,42.9-65.19,67.44-19.91,26.11-39.28,53.38-50.78,84.28a1.2,1.2,0,0,0,2,1.27c40.39-49.23,69.21-106.9,115.74-151.11C710.18,677,708.49,675.2,707.34,676.1Z"/><path class="cls-4" d="M490.27,596.85c-17.73-13.73-34.93-9.92-51.73,3.29a.81.81,0,0,0,.72,1.44c17.11-5.37,31.44-6.63,48.71-1.08C490.15,601.22,492.38,598.5,490.27,596.85Z"/><path class="cls-4" d="M491.67,609.49c-9.37-5.5-19.75-.55-28.41,4-1.2.62-.12,2.44,1.07,2.08,3.63-1.16,7.28-2.31,10.9-3.35,5.25-1.54,10.38-1,15.69-.28A1.28,1.28,0,0,0,491.67,609.49Z"/><path class="cls-4" d="M483.84,626.11a6,6,0,0,0,.84,0,.64.64,0,0,0,0,.26,55.76,55.76,0,0,1,6.05,2.63,22.84,22.84,0,0,1,7.56,4.85c10.46,8.24,16.8,20.91,16.87,37.6,0,2.06,0,4.13,0,6.29a58.59,58.59,0,0,0,2.39-25.08c-1.35-9.31-6.1-17.93-13.13-23a92.23,92.23,0,0,0,10.82,1.74c1,.12,1.94-1.26.93-2-13.91-9.77-27.47-12.9-43.54-6A60.18,60.18,0,0,1,483.84,626.11Z"/><path class="cls-4" d="M447.72,694.71a150.14,150.14,0,0,1,1.47,19.16A116.85,116.85,0,0,0,452,689.73c.06-17.14-8.64-31.6-20.35-43.25C440.56,660.58,445.64,679.21,447.72,694.71Z"/><path class="cls-4" d="M408.38,728.79a47.81,47.81,0,0,0,5.23-20.54c.1-14.75-7.11-27.56-17.66-37.19a98.34,98.34,0,0,1,10,24,2.31,2.31,0,0,0-1.34.92,36.78,36.78,0,0,1-23.08,13.8.65.65,0,0,0,.1,1.3c9.93-.44,18.13-4.47,25.53-10.81a94,94,0,0,1,1.7,22.58C408.72,724.83,408.56,726.8,408.38,728.79Z"/><path class="cls-4" d="M349,695.94c2,5.13,4,10.25,5.69,15.4a46.29,46.29,0,0,1,4.23,14.2,53.59,53.59,0,0,0-6.07-6.14c-.32-.28-.81.18-.53.48a27,27,0,0,1,4.36,9.23c.92,3,.48,6.55,1.92,9.4a2.43,2.43,0,0,0,.78.9,55.7,55.7,0,0,1-3.45,17,122,122,0,0,1-6.67,14.78c6.65-7.7,15.72-16.41,18.65-26.29C373.77,725,363.92,708.13,349,695.94Z"/><path class="cls-4" d="M328.77,777.19c-8.4,11.83-19.73,21.4-27.65,33.67-.78,1.2.52,3,1.83,2,12.21-9.24,20.35-21.35,27.15-34.81C330.52,777.25,329.29,776.45,328.77,777.19Z"/><path class="cls-4" d="M210.92,769.71c-8.53-9.14-15.25-17.34-18.93-29.49-3.24-10.67,1.94-22.76,1.15-33.77-.17-2.33-4-2.59-4.17-.16-.76,11.87-8.74,24.58-4.35,36.55s13.79,22.1,24.35,29.22A1.53,1.53,0,0,0,210.92,769.71Z"/><path class="cls-4" d="M158.62,713c-10.32-.88-18.84-.7-27.92-6.31-5.15-3.17-9.72-5.86-15.89-5.5-4.57.28-8.8,5.3-12.06,7.92-8.32,6.62-8.44-15.39-9-18.43a.18.18,0,0,0,0-.12c2.56-6.1,5.84-11.93,8.11-16.79a.84.84,0,0,0-1.42-.86c-7.53,8.24-25.78,31.75-13.87,42.46a34.09,34.09,0,0,0,1.9,3.57c5.17,8.42,14.61,11.85,21.71,18.13,1,.88,2.47-.52,1.71-1.59-4.24-5.71-8.38-11.65-13.16-16.94l-.59-.72a14.2,14.2,0,0,0,4.25-.38c2.52-.59,4.68-3.33,6.33-5.2,2-2.18,3.41-4.43,5.68-6.33,4-3.55,11.35,2.08,14.31,4,8.1,5.23,20.52,4.81,29.88,4C159.13,713.91,159.19,713,158.62,713Z"/><path class="cls-4" d="M90.67,652.16c-8.19,5.17-16.39,11.43-22.14,19.33-6,8.1-6.15,20.25-8.33,29.72a.83.83,0,0,0,1.57.48c3.91-9.73,6.5-20.2,13.14-28.6,5.47-6.88,13-11.87,17.27-19.67C92.69,652.46,91.47,651.64,90.67,652.16Z"/><path class="cls-4" d="M303.81,736.53c-8.87,0-15.52-2.49-23.77-5.52-3.22-1.16-4.55-1.4-7.83-.36s-6,4-8.6,6c-7,5.25-12.35-1.63-16.8-5.94-3.86-3.73-8.36-4.33-12.47-.34-1.89,1.8-9.66,11.19-9.08,11.65-7.06-5.53-10.33-14.5-13.54-22.54-2.78-7-12.44-3.19-10.76,3.85s.7,14.92,2.64,22.34a36.43,36.43,0,0,0,11.53,18.71c1.14,1,2.86-.58,1.94-1.77a52.8,52.8,0,0,1-9.39-23.12c3.91,6.78,9.27,12.6,16.59,14.7,12.11,3.51,11-27.67,20.43-18,5.53,5.67,12.33,10.18,19.79,5.23a19.83,19.83,0,0,0,3.23-3.31c4.49-5.15,10.84-5.37,16.64-1.3,5.35,3.77,13.73,2.36,19.57,1.16A.71.71,0,0,0,303.81,736.53Z"/><path class="cls-4" d="M351.61,720a.75.75,0,0,0-1.26-.22c-1.62,1.79-3,3.73-4.55,5.62a4.44,4.44,0,0,0-.58,1.08,4.71,4.71,0,0,0-.24-.68c-1.15-3.17-3.17-7.38-6.42-8.85a6.84,6.84,0,0,0-8,1.85c-4.83,5.55-11.83,9.18-18.19,12.85-2.29,1.31.06,4.51,2.33,3.31,3.06-1.66,6.05-3.45,9.06-5.21s7.14-2.83,9.89-5.26c1.76-1.56,4.71,9.15,6.75,10.81,2.67,2.23,6.92,1.23,8.89-1.48C352.54,729.21,353.64,725.42,351.61,720Z"/><path class="cls-3" d="M116.77,615a191.72,191.72,0,0,0,37.72,20.29,1.14,1.14,0,0,1,.79,1.41c-5.89,20.31,26.67,22.55,39.46,23.2a272.77,272.77,0,0,0,45.08-1.63c14.06-1.62,28.13-3.67,42-6.42,8.81-1.76,17.66-3.72,26.26-6.35,7.78-2.39,15.86-4.71,21.82-10.55,3.73-3.67,6.57-8.76,11-11.59,5.24-3.39,11.58-4.53,17.39-6.62a180.39,180.39,0,0,0,38.14-18.56,176.4,176.4,0,0,0,17.71-13.22,412.57,412.57,0,0,0,29.31-37.17c4.55-6.46,9.29-12.8,13.72-19.34,3.79-5.55,7.6-11.51,8.6-18.3-21-12.36-42-25.59-64.87-33.67a294.18,294.18,0,0,0-32.46-5c-33.05-3.39-66.9-2.41-99.94.42-30.62,2.62-61.08,9.28-87.43,25.66-19.34,12.06-36.84,28.86-51.67,46a187.75,187.75,0,0,0-32.09,51.92c-.49.64-1,1.22-1.52,1.8C103,602.89,109.22,609.75,116.77,615Z"/><path class="cls-2" d="M461.6,302c36.55-39.49,55.21-93.55,66.31-145.24,7.64-35.62,20.9-72.91,17.67-109.79-.84-9.64-3.14-20.93-9.54-28.53-5.79-6.94-13-4.84-18.67.18-31.21,12.61-61.71,26.73-91.64,42.09C401,73.39,376.22,86.16,353.44,102.15c-22.22,15.54-42,34.53-55.71,58.11-15.57,26.71-22.21,58.21-26.53,88.45-2.87,20.09-4.41,40.28-5.93,60.47a63.15,63.15,0,0,0-22.61-1.68c-2.42.22-4.86.5-7.3.82-1.77-14.38-4.55-28.77-6.43-43.07q-3.63-27.58-6.57-55.22c-1.67-15.64-3.89-30.78-9.18-45.74a132.6,132.6,0,0,0-22.52-39.83c-20.25-24.78-46.6-45.94-72.4-64.7C104.21,49.55,89.44,40.39,74.88,30.9,64.38,24.06,55.21,15.86,45,8.62,37.39,3.25,27.77-1.56,19.23.48h0C12.39,1.16,8,4.49,6.62,11.29a68.77,68.77,0,0,0-1,11.09,527.71,527.71,0,0,0-5,104.49,536.51,536.51,0,0,0,5.69,54.72C9,198.42,12.85,215,15.92,231.72c2.72,14.9,5.75,29.84,12,43.7,5.77,12.73,14.85,23.2,25.88,31.64s23.59,14.44,36,20.23c14.69,6.82,29.3,13.5,44.72,18.53A266.59,266.59,0,0,0,166.4,354c-3,4.87-5.84,9.89-8.51,14.86-8,14.94-14.47,30.54-20.79,46.22-6.65-3.53-14.59-5.37-21.14-6.34-15.85-2.28-31.21,2.47-44.58,10.89-.12.06-.13.18-.12.3-.71.18-1.39.4-2.1.64-.5.18-.34,1.05.21,1a27.25,27.25,0,0,1,12.47.72c-3.16.62-6.33,1.38-9.42,2.1C56.73,428.13,41,435.67,30.19,448c-.25.11-.51.21-.76.33-.62.34-.54,1.44.28,1.32a53.2,53.2,0,0,1,16.08-.4c-16.16,12.25-30.42,30.8-34.36,50.69-4.49,22.58,19.12,38.46,33.81,51.23,9.68,8.45,18.92,17.53,29.19,25.25,10.57,8,22.13,14.5,33.12,21.84,10.48,7,19.5,15.82,30.12,22.63a147.36,147.36,0,0,0,24.26,12.64c-.16,4.31.62,8.32,3.94,11s8.6,3.36,12.67,4c6.55.92,13.22,1.3,19.79,1.88,9.49.86,18.78,3.09,26.34-3.91,4-3.73,7-8.64,10.24-13,1.82-2.47,3.77-4.86,5.72-7.24A81.14,81.14,0,0,0,263.88,642c11.44,5.07,22.05,5,34.21,3.27,8.75-1.28,20.42-2.53,25.53-10.85,1.18-1.93,2.29-4,3.29-6,6.13-3.95,12.61-7.27,18.85-11,8-4.88,15.42-10.63,23.22-15.81,15.8-10.54,32.1-20.69,47.16-32.32C430.46,558.17,443,544.16,454.08,530c10.63-13.64,21.59-28.19,26.08-45.16a1.52,1.52,0,0,0-.93-1.9,9.13,9.13,0,0,0-.17-4.6,76.83,76.83,0,0,0-8-18.22c-5.07-8.24-12.21-16.57-21.25-20.54,5.49-.56,11-.34,16.58-.5a1.81,1.81,0,0,0,1-3.17c-17.48-14.79-44.81-22.35-67.53-16.2a64.8,64.8,0,0,1,10.31-7.46,1.74,1.74,0,0,0-.69-3.13c-11.07-1.76-22.94,2.83-32.84,7.32-3.05,1.39-6,2.93-8.91,4.61-4.95-11.2-10.78-22.05-16.5-32.9-4.17-8-8.9-15.64-12.43-24-.58-1.35-1.18-2.65-1.79-3.95C383.72,354.3,428.69,337.52,461.6,302Z"/><path class="cls-3" d="M361.24,451.65a128.31,128.31,0,0,0-15.76-12.25c-11.93-7.88-25.59-12.87-39.59-15.58a1.13,1.13,0,0,1-2-.38s0,0-.06,0c-1.42-.26-.84-2.39.6-2.18,2.15-7.52-1.74-15.73-6.7-21.46-3.82-4.39-11.59-12.55-18.25-10.37C273,391.56,273,400.06,273,405.73c0,4.54-1.31,11,1.42,14.9a.89.89,0,0,1,.23.5.92.92,0,0,1-.51,1.23,1.24,1.24,0,0,1-.87.2,116.85,116.85,0,0,0-30.92-1c-9.19,1-18.44,3.36-27.73,2.16a1.3,1.3,0,0,0-.19-.06,1,1,0,0,1-1-1.08c.13-6.94,1.84-14,1.2-20.93-.35-4.06-1.83-11.05-7.37-10.79-4,.18-7.58,2.66-10.39,5.43-5.83,5.66-10.36,13.26-11,21.48-.33,4.13-.29,7.38-4.51,9.16-5.38,2.29-11.23,3.15-16.66,5.25A146.41,146.41,0,0,0,138.63,445c-11,7.06-24.7,15.48-31.15,27.57,40.29-30.1,92.18-45.06,142.2-44.88a353.74,353.74,0,0,1,42.8,2.59c13.84,1.72,28.47,3.89,41.73,8.26,9.66,3.17,18.49,8,27.09,13.15Z"/><path class="cls-3" d="M479.23,482.9a9.13,9.13,0,0,0-.17-4.6c-.62-2.14-1.39-4.29-2.21-6.39.21,5.93-.88,11.61-5.33,16.84-3.63,4.31-8.08,7.48-12.57,10.81-5.43,4-10.56,8.44-16.08,12.37a284.58,284.58,0,0,1-73.33,37c-7.58,2.56-16.38,5.57-24.26,2.52-7.52-2.88-11.23-11.73-13.52-18.8-1.9-5.86-3.35-13-8-17.37-4.91-4.63-11.67-7.7-18-9.93-13.08-4.53-26.93-7.05-40.63-8.66-18.33-2.16-37-2.48-55.18.86-13,2.35-26.81,5.12-38.78,11-6.25,3.09-12.31,6.88-16.93,12.17-4.21,4.86-6.79,10.31-9.66,16-4.1,8.06-9.89,17-20.23,16.36-14.31-.94-28.44-9-40.77-15.72-7-3.83-13.93-7.88-21.15-11.33A164.34,164.34,0,0,1,46,517.43c-9.51-6.06-18-14.32-19.89-25.93s3-20.86,7.07-30.9c-10.54,11.15-18.87,24.88-21.73,39.34-4.49,22.58,19.12,38.46,33.81,51.23,9.68,8.45,18.92,17.53,29.19,25.25,10.57,8,22.13,14.5,33.12,21.84,10.48,7,19.5,15.82,30.12,22.63a147.36,147.36,0,0,0,24.26,12.64c-.16,4.31.62,8.32,3.94,11s8.6,3.36,12.67,4c6.55.92,13.22,1.3,19.79,1.88,9.49.86,18.78,3.09,26.34-3.91,4-3.73,7-8.64,10.24-13,1.82-2.47,3.77-4.86,5.72-7.24A81.14,81.14,0,0,0,263.88,642c11.44,5.07,22.05,5,34.21,3.27,8.75-1.28,20.42-2.53,25.53-10.85,1.18-1.93,2.29-4,3.29-6,6.13-3.95,12.61-7.27,18.85-11,8-4.88,15.42-10.63,23.22-15.81,15.8-10.54,32.1-20.69,47.16-32.32C430.46,558.17,443,544.16,454.08,530c10.63-13.64,21.59-28.19,26.08-45.16A1.52,1.52,0,0,0,479.23,482.9Z"/><path class="cls-3" d="M366.93,599c-7.48,3.67-15.56,7.68-23.38,2.82C337,597.71,331.88,592,326,587.15c2.26,4,4,8.4,3.36,13-.82,6.14-4.63,11.27-8.6,15.88-9.62,11.25-19.83,16.93-34.55,18.71-10.55,1.28-22.64.26-29.8-8.62-6.94-8.6-8.77-19.85-9.76-30.54a1.13,1.13,0,0,1,1.14-1.14c21.28-.18,42.44-7.58,56.83-23.77,13.46-15.12,19.51-34.57,19.89-54.52a8.5,8.5,0,0,0-.7-.78c-4.91-4.63-11.67-7.7-18-9.93-13.08-4.53-26.93-7.05-40.63-8.66-18.33-2.16-37-2.48-55.18.86-13,2.35-26.81,5.12-38.78,11-6.25,3.09-12.31,6.88-16.93,12.17-.53.61-1,1.21-1.49,1.83.47,18.83,8,36.51,22.47,49.23,16.12,14.17,37,21.45,58.17,23.38a1.12,1.12,0,0,1,1.13,1.12c-.52,12.83,1.36,21.8-8.69,32.53-7,7.43-13.06,7.84-21.93,7.92-9.71.12-24.43,3.18-31.85-5-5.38-5.91-6.22-15.56-6.34-24.2-1.17,3.43-2.81,6.66-5.6,8.1-6.16,3.29-15.23.48-21.54-.82-4.66-1-9.28-2.17-13.89-3.43a152.2,152.2,0,0,0,13,9.54,147.36,147.36,0,0,0,24.26,12.64c-.16,4.31.62,8.32,3.94,11s8.6,3.36,12.67,4c6.55.92,13.22,1.3,19.79,1.88,9.49.86,18.78,3.09,26.34-3.91,4-3.73,7-8.64,10.24-13,1.82-2.47,3.77-4.86,5.72-7.24A81.14,81.14,0,0,0,263.88,642c11.44,5.07,22.05,5,34.21,3.27,8.75-1.28,20.42-2.53,25.53-10.85,1.18-1.93,2.29-4,3.29-6,6.13-3.95,12.61-7.27,18.85-11,8-4.88,15.42-10.63,23.22-15.81,7.4-5,14.92-9.82,22.38-14.77C383.32,591.1,375.13,595,366.93,599Z"/><path class="cls-3" d="M545.58,47a75.42,75.42,0,0,0-2.83-15.46,15.45,15.45,0,0,0-6.29-4C524.28,23.78,513,31.1,502,35.31a445.67,445.67,0,0,0-93.26,48.61C383.19,101.52,355.24,116,335.67,141c-9.42,12-18,25.14-22.72,39.82a140.79,140.79,0,0,0-6.39,43.83c.08,27.74,3.32,58.5-11.35,83.46a1.15,1.15,0,0,1-1.55.42c-9-5.69-11.6-17.3-12.94-27.15-1.76-13.05-1.14-26.45-.25-39.54.91-13.64,2-26.89,5.31-40.21,3-11.93,7-24.1,9.19-36.39-13.59,25.59-19.7,55.1-23.77,83.5-2.87,20.09-4.41,40.28-5.93,60.47a63.15,63.15,0,0,0-22.61-1.68c-2.42.22-4.86.5-7.3.82-1.77-14.38-4.55-28.77-6.43-43.07q-3.63-27.58-6.57-55.22c-1.67-15.64-3.89-30.78-9.18-45.74-.13-.4-.29-.75-.41-1.15,1,14.14,1.53,28.32,2,42.37.61,17.77,1.33,35.14,3.65,52.74,1.81,13.68,4.64,30.4-2.59,43a1.14,1.14,0,0,1-1.81.24c-12.3-11.37-15.94-30.6-18.57-46.38-1.68-9.7-2.85-19.51-4.06-29.27-1-8.12-1.53-16.69-3.71-24.63a246.14,246.14,0,0,0-36.79-78.08c-16.82-23.42-37.32-43.89-58.84-63C76.1,46,62.73,28.93,45.49,16.2,38,10.69,28.75,4.53,19.05,4.67A20.21,20.21,0,0,0,7.5,8.36a18.31,18.31,0,0,0-.88,2.93,68.77,68.77,0,0,0-1,11.09,527.71,527.71,0,0,0-5,104.49,536.51,536.51,0,0,0,5.69,54.72C9,198.42,12.85,215,15.92,231.72c2.72,14.9,5.75,29.84,12,43.7,5.77,12.73,14.85,23.2,25.88,31.64s23.59,14.44,36,20.23c14.69,6.82,29.3,13.5,44.72,18.53A266.59,266.59,0,0,0,166.4,354c-3,4.87-5.84,9.89-8.51,14.86-8,14.94-14.47,30.54-20.79,46.22-6.65-3.53-14.59-5.37-21.14-6.34a57.72,57.72,0,0,0-10.14-.5c11,2.47,23,6,32.67,11.45.67-4.55,3.22-9.08,5.27-12.91,3.63-6.78,7.76-13.26,11.44-20,8-14.74,14.27-29.76,24.61-43.12,9.74-12.63,22.58-23.46,37.77-28.81a72.56,72.56,0,0,1,23.25-4.13,1,1,0,0,1,1-.3c.81.14,1.62.24,2.42.3,1.67,0,3.33.1,5,.22,6,0,12-.62,18,.6a83.06,83.06,0,0,1,21.79,7.7,100.22,100.22,0,0,1,32.91,27.69c8.74,11.13,15.42,23.76,21.71,36.36,3.11,6.25,6.48,12.43,9.15,18.87,2,4.85,3.79,9.84,6.17,14.53a28.67,28.67,0,0,1,6.08,11.83,63.36,63.36,0,0,1,12.07-12.31c-.16.08-.36.16-.52.22-3.05,1.39-6,2.93-8.91,4.61-4.95-11.2-10.78-22.05-16.5-32.9-4.17-8-8.9-15.64-12.43-24-.58-1.35-1.18-2.65-1.79-3.95,46.75-5.9,91.72-22.68,124.63-58.19,36.55-39.49,55.21-93.55,66.31-145.24C535.55,121.15,548.81,83.86,545.58,47Z"/><path class="cls-5" d="M326.91,628.41c.4-.26.82-.48,1.22-.74,1.3-2.44,2.63-4.89,3.85-7.36,2.39-4.65,7.82-11.91,6-17.32s-5.88-9.83-9.77-13.9c-.74-.74-1.44-1.52-2.16-2.28,2.82,5.29,5.73,10.58,8.58,15.82s-3.91,12.65-6.6,16.68c-3.73,5.68-8.52,13.8-15.18,16.28-7.26,2.73-15.88,2.81-23.55,3.23-8.86.52-17.17.32-25.27-3.69-5.57-2.77-13.51-6.25-17.84-10.87-4.15-4.43-3.13-12.81-3.66-18.46q-1.29-13.27-1.74-26.51a26.67,26.67,0,0,1-4.19.12c-.08,10.16,1.49,20.15,1.69,30.26.11,5.73,1.68,8.68-1.36,13s-7.92,11.45-11.85,14.78-3.75,3.59-9.36,6.78c-3.51,2-11.36,1.7-15.31,1.72-7.11,0-16.13-.4-22.88-3.57a14,14,0,0,1-5.38-2.85c-4.62-4.07-4.16-10.18-4.1-15.84.06-8,.41-16,.79-24-1.74,6-3.47,11.93-4.72,18A76.72,76.72,0,0,0,162,632.44c0,1.09,0,2.15-.09,3.17.17,3.49,1.18,6.68,3.94,8.95,3.33,2.68,8.6,3.36,12.67,4,6.55.92,13.22,1.3,19.79,1.88,9.49.86,18.78,3.09,26.34-3.91,4-3.73,7-8.64,10.24-13,1.82-2.47,3.77-4.86,5.72-7.24A81.14,81.14,0,0,0,263.88,642c11.44,5.07,22.05,5,34.21,3.27,8.75-1.28,20.42-2.53,25.53-10.85C324.8,632.52,325.91,630.48,326.91,628.41Z"/><path class="cls-6" d="M533,44.36c-1.32-6.38-7-5.16-11.5-2.85C492.33,54,464.09,68.64,436.39,84.14c-24,13.43-47.4,28.65-67.55,47.4-19.55,18.25-36,40-43.7,65.91-9.2,31-7.13,63.67-5.37,95.49.52,8.94,1.3,17.85,1.86,26.73a.93.93,0,0,0,1.83.14c3.25,3.37,9.34,3.15,13.67,2.73,9.59-.88,19.07-3.85,28.18-6.78,21.31-6.9,43-14.56,62-26.61,26.13-16.6,42.45-42.83,56-69.94,7.52-15,15.7-29.86,22.49-45.18s11.08-31.44,14.5-47.68c2.09-9.91,3.66-19.93,5.79-29.82a218.65,218.65,0,0,0,4-24.24c.55-2.31,1.07-4.63,1.52-7C532.94,58.71,534.39,51.11,533,44.36Z"/><path class="cls-7" d="M533,44.36c-1.32-6.38-7-5.16-11.5-2.85C492.33,54,464.09,68.64,436.39,84.14c-24,13.43-47.4,28.65-67.55,47.4-19.55,18.25-36,40-43.7,65.91-9.2,31-7.13,63.67-5.37,95.49.52,8.94,1.3,17.85,1.86,26.73a.93.93,0,0,0,1.83.14c3.25,3.37,9.34,3.15,13.67,2.73,9.59-.88,19.07-3.85,28.18-6.78,21.31-6.9,43-14.56,62-26.61,26.13-16.6,42.45-42.83,56-69.94,7.52-15,15.7-29.86,22.49-45.18s11.08-31.44,14.5-47.68c2.09-9.91,3.66-19.93,5.79-29.82a218.65,218.65,0,0,0,4-24.24c.55-2.31,1.07-4.63,1.52-7C532.94,58.71,534.39,51.11,533,44.36Zm-25.14,70.32c-5,17.81-11.7,35-18.27,52.31-9.7,25.51-17.36,55.67-40.36,73-13.74,10.37-37.38,13.38-48.05-3.16-9.68-15.06-7-36-3.49-52.64,11.09-51.62,52.72-89.23,97.78-113.36,4.68-4.25,9.87-7.82,16.47-8.2a1.06,1.06,0,0,1,1.08.8C515.78,80.53,512.46,98.16,507.86,114.68Z"/><path class="cls-6" d="M175.33,268.64c-1.2-10-2.62-20-4-30-.57-4.35-.77-8.68-1.73-13-.17-.67-.35-1.33-.53-2-.44-5.57-.92-11.19-1.49-16.78-2.69-26.59-10.75-51.13-25.51-73.51-15.58-23.62-34.49-44.68-54.21-64.87C68,48,45.36,30.64,24,11.89a.55.55,0,0,0-.81.74c.63.82,1.32,1.61,2,2.43-3.93,2.91-4.95,7.22-5.45,12-.85,8.16-.92,16.42-1,24.58,0,18.31,0,36.64-.22,55-.41,34.27,1.85,68.33,9.51,101.84,3.42,15,8.64,29.58,16.59,42.77,7.62,12.78,18.78,23.24,30.89,31.67C88,291.56,102.06,297.23,116,303.25c15.34,6.64,30.92,12.75,47.5,15.38a46.88,46.88,0,0,0,5.3.38,2,2,0,0,0,1.83-.84l-.47,2.72a1.29,1.29,0,0,0,2.43.77C179.9,305.8,177.34,285.34,175.33,268.64Z"/><path class="cls-7" d="M175.33,268.64c-1.2-10-2.62-20-4-30-.57-4.35-.77-8.68-1.73-13-.17-.67-.35-1.33-.53-2-.44-5.57-.92-11.19-1.49-16.78-2.69-26.59-10.75-51.13-25.51-73.51-15.58-23.62-34.49-44.68-54.21-64.87C68,48,45.36,30.64,24,11.89a.55.55,0,0,0-.81.74c.63.82,1.32,1.61,2,2.43-3.93,2.91-4.95,7.22-5.45,12-.85,8.16-.92,16.42-1,24.58,0,18.31,0,36.64-.22,55-.41,34.27,1.85,68.33,9.51,101.84,3.42,15,8.64,29.58,16.59,42.77,7.62,12.78,18.78,23.24,30.89,31.67C88,291.56,102.06,297.23,116,303.25c15.34,6.64,30.92,12.75,47.5,15.38a46.88,46.88,0,0,0,5.3.38,2,2,0,0,0,1.83-.84l-.47,2.72a1.29,1.29,0,0,0,2.43.77C179.9,305.8,177.34,285.34,175.33,268.64Zm-56.91-65.09C108,224.16,83.7,222.86,66.55,211.27a80.61,80.61,0,0,1-24.86-26.09c-7.75-13.49-10.76-29.72-13-45-5.06-34.13-6.46-68-6.57-102.37-2.43-8.93,6.48-5.78,11.09-3A157.69,157.69,0,0,1,60,55.38C75.27,69.7,90.5,84.32,104.35,100c5.94,6.76,11.55,13.7,15.28,21.92,3.45,7.6,4.19,15.58,4.51,23.76C124.85,164.45,127.17,186.24,118.42,203.55Z"/><path class="cls-7" d="M354.82,317.53c-8.86-6.18-11.37-18.91-12.91-28.82-4.79-30.7-6.8-64.75,2.26-94.91,8.24-27.35,26.27-51.21,46.75-70.76,15.52-14.8,35.31-25.69,50-41.41-1.51.86-3,1.67-4.54,2.51-24,13.43-47.4,28.65-67.55,47.4-19.55,18.25-36,40-43.7,65.91-9.2,31-7.13,63.67-5.37,95.49.52,8.94,1.3,17.85,1.86,26.73a.93.93,0,0,0,1.83.14c3.25,3.37,9.34,3.15,13.67,2.73a104,104,0,0,0,19.32-4C355.9,318.17,355.32,317.89,354.82,317.53Z"/><path class="cls-7" d="M175.33,268.64c-1.2-10-2.62-20-4-30-.57-4.35-.77-8.68-1.73-13-.17-.67-.35-1.33-.53-2-.44-5.57-.92-11.19-1.49-16.78-2.69-26.59-10.75-51.13-25.51-73.51-3.24-4.9-6.64-9.67-10.11-14.34a233.1,233.1,0,0,1,16.44,38.46,228.39,228.39,0,0,1,9.46,38.38c2.34,16,5.55,32.08,6.88,48.24,1.23,14.78,1.09,30.42-1.86,45-2.13,10.49-7.27,17.65-16.71,22.66-1.18.64-2.36,1.22-3.57,1.81a142.6,142.6,0,0,0,20.81,5.09,46.88,46.88,0,0,0,5.3.38,2,2,0,0,0,1.83-.84l-.47,2.72a1.29,1.29,0,0,0,2.43.77C179.9,305.8,177.34,285.34,175.33,268.64Z"/><path class="cls-6" d="M323.46,513.3c-12.67-15.14-33.55-22.94-52.42-26.65-20.79-4.16-43.65-3-64.05,2.58a180.79,180.79,0,0,0-35.35,13.34c-6.93,3.59-21.23,11-19,20.93-.93,15.18,10.32,29.42,21,39.3a96.91,96.91,0,0,0,54.9,25.57,91.46,91.46,0,0,0,65.81-17.45C308,560.66,321.57,544.3,323,526.65,324.66,521.38,326.19,514.48,323.46,513.3Z"/><path class="cls-7" d="M307.76,529.38c-12.27,5.31-26.36,7.24-39.52,9a313.73,313.73,0,0,1-54.88,2.79c-17-.74-54.27-3.27-60-23.82a9.75,9.75,0,0,0-.71,6.13c-.93,15.18,10.32,29.42,21,39.3a96.91,96.91,0,0,0,54.9,25.57,91.46,91.46,0,0,0,65.81-17.45C308,560.66,321.57,544.3,323,526.65c1.34-4.25,2.63-9.57,1.62-12.09C320,520.57,315.06,526.19,307.76,529.38Z"/><path class="cls-8" d="M208.08,418.51c.68-11.85.46-20.25-4.93-18.07s-11.5,21-8.69,26.07,6.34,4.73,9.38,3.47S207.84,422.48,208.08,418.51Z"/><path class="cls-4" d="M200.45,403.91c-2.79,3.71-2.47,6.84-1.29,8.18s3-1,4-5S204.2,398.9,200.45,403.91Z"/><path class="cls-9" d="M211.91,370.88s-5-16.3-12.63-14.87-11.14,21.57-11,23.86.49,10.12,2.76,5.61,11.63-10.36,16.17-5.11S218.14,387.05,211.91,370.88Z"/><path class="cls-10" d="M211.91,370.88s-5-16.3-12.63-14.87-8.94,15-8.78,17.26-2,3.57,2.24.86c6.25-4,8.5-4.27,12.18-2.56C211.21,374.47,213.6,375.84,211.91,370.88Z"/><path class="cls-8" d="M276.91,417.35c-.69-11.82-.47-20.22,4.92-18.05s11.5,20.95,8.69,26.05-6.35,4.75-9.39,3.48S277.14,421.38,276.91,417.35Z"/><path class="cls-4" d="M278.66,403.29c-.84,4.57.83,7.22,2.47,7.94s2.3-2.25,1.37-6.26S279.84,397.13,278.66,403.29Z"/><path class="cls-9" d="M273.07,369.72s5-16.28,12.61-14.86,11.17,21.6,11,23.87-.49,10.14-2.78,5.61-11.61-10.35-16.15-5.09S266.86,385.9,273.07,369.72Z"/><path class="cls-10" d="M273.07,369.72s5-16.28,12.61-14.86,8.94,15,8.81,17.29,2.05,3.59-2.25.84c-6.23-3.95-8.48-4.25-12.19-2.55C273.76,373.35,271.37,374.71,273.07,369.72Z"/><path class="cls-10" d="M341.51,439.74c-37.26-11.65-77.12-15.3-115.95-12.57-37,2.57-72.3,12-102.34,34.63a.61.61,0,0,0,.71,1c14.85-9.12,30.28-16.86,46.88-22.35,17.89-5.92,36.32-8.35,55.05-9.75,39-2.87,77.09,3.11,115.35,10C341.73,440.77,342.05,439.9,341.51,439.74Z"/><path class="cls-4" d="M240.63,626.23c-1.95,2.38-3.9,4.77-5.72,7.24-3.27,4.37-6.21,9.28-10.24,13a17.34,17.34,0,0,1-7.06,4c-.1,5.15-.19,10.63,2.71,15,5.48,8.3,18.08,3.87,25.34,1.71a.57.57,0,0,0,.27-.85,7.81,7.81,0,0,0,.91-.54c.08-.08.12-.18.17-.22,4.82,5.58,16.76.3,22.11-1.32,4.84-1.47,6.17-5.72,6.76-10.31a71.58,71.58,0,0,0,.56-8.24A50.7,50.7,0,0,1,263.88,642,81.14,81.14,0,0,1,240.63,626.23Z"/><g class="cls-11"><path class="cls-12" d="M218.85,660.34c-.48-3.33,3.64-6.52,5.72-8.34,3.09-2.67,7.41-7,11.83-7,3.51,0,5,1.74,7,3.93,5.27-14.58,19,4.59,28.95,2.2a1.08,1.08,0,0,1,1.37.79c.56,1.66,1.11,3.32,1.59,5,.21-.94.41-1.95.53-2.93a71.58,71.58,0,0,0,.56-8.24A50.7,50.7,0,0,1,263.88,642a81.14,81.14,0,0,1-23.25-15.8c-1.95,2.38-3.9,4.77-5.72,7.24-3.27,4.37-6.21,9.28-10.24,13a17.34,17.34,0,0,1-7.06,4c-.1,5.15-.19,10.63,2.71,15a11.8,11.8,0,0,0,1.23,1.55A17.68,17.68,0,0,1,218.85,660.34Z"/></g><path class="cls-13" d="M272.55,645.42c0,4.17.47,11.59-3,14.56-1.09,1-4,1.12-5.48,1.48-1.89.46-3.49,1.73-5.39,2.29-3.35.86-9.61.8-12.27-1.79-.78-7.12-1.7-14.22-2-21.43-.13-3.65-.16-7.34-.16-11-1.19-1-2.4-2.07-3.55-3.19-.17,12.53.13,25.67,4.23,37.16a19.68,19.68,0,0,0-3.94,1.86,18.63,18.63,0,0,1-4.93,1.89c-5.79.3-11.76-.53-14.15-5.4-1.65-3.37-1.7-8.1-1.62-12.37a18.29,18.29,0,0,1-2.73,1c-.1,5.15-.19,10.63,2.71,15,5.48,8.3,18.08,3.87,25.34,1.71a.57.57,0,0,0,.27-.85,7.81,7.81,0,0,0,.91-.54c.08-.08.12-.18.17-.22,4.82,5.58,16.76.3,22.11-1.32,4.84-1.47,6.17-5.72,6.76-10.31a71.58,71.58,0,0,0,.56-8.24c-1.29-.24-2.59-.48-3.89-.8Z"/><path class="cls-14" d="M218.76,612.49c-4.9-3.67-10.67-5.25-16.52-6.69-8.19-2-16.41-3.81-24.75-5.08a94,94,0,0,0-21.06-1c-8.92.64-17.61,2.35-26.57,1.72-.33,0-.45.53-.1.55,15.05,1.34,30-.29,45,1.8,14.77,2.07,28.91,6.5,43.31,10.09A.82.82,0,0,0,218.76,612.49Z"/><path class="cls-14" d="M206.52,616.7c-5-2.72-11.4-3.18-17-3.89a179.29,179.29,0,0,0-21-1.08c-14.6-.14-28.67,2.21-42.77,5.74-.19.06-.14.38.07.34,13.36-2.79,27.29-2.89,40.9-2.85,7.4.06,14.84.52,22.23,1,5.79.44,11.58.3,17.29,1.47A.41.41,0,0,0,206.52,616.7Z"/><path class="cls-14" d="M213.23,627.93c-29.1-2.58-56,14.08-80.26,28-.38.22,0,.86.39.66,25-12.57,51.48-25.55,79.82-27.67C213.72,628.88,213.8,628,213.23,627.93Z"/><path class="cls-14" d="M365.17,580.37c-13-.66-25.45,3.51-37.5,7.82-13.29,4.75-27.11,8.92-39.75,15.18-2.19,1-1,4.67,1.28,3.59,11.7-5.62,24.05-9.85,36.14-14.48,12.78-4.93,25.85-11.09,39.79-11.25C365.61,581.17,365.65,580.39,365.17,580.37Z"/><path class="cls-14" d="M358.83,602.45c-11.19,1.32-22.46.7-33.53,3-10.88,2.25-21.91,3.73-32.76,6.12-1.82.4-1.13,3.55.68,3.19,10.17-2,20.41-3.73,30.54-6,11.63-2.68,23.36-3.45,35.15-5.37A.44.44,0,0,0,358.83,602.45Z"/><path class="cls-14" d="M359.61,631.4c-9.62-4.75-20.47-6.84-30.92-8.76-10.18-1.89-21.37-4.39-31.7-4.21a.92.92,0,0,0-.3,1.74c9.06,3.59,19.87,3.59,29.46,4.69a173.58,173.58,0,0,1,33.1,7.34A.44.44,0,0,0,359.61,631.4Z"/><path class="cls-15" d="M267.78,496.43c-3.6-1.36-7.83-1.68-12-1.68a62.77,62.77,0,0,0-8.61-.14A217.7,217.7,0,0,0,224,496a113.36,113.36,0,0,0-22,4.31c-3.29,1.1-8.46,3.07-8.76,6.58-.69,8.4,19.55,7.4,25.25,7.36,14.93-.16,31.15-1.65,45.14-6.24,3.1-1,7.08-2.42,8.6-5.07C274,500,270.66,497.49,267.78,496.43Z"/><path class="cls-15" d="M294.17,502c-11.36-8-31.48,10.14-6.45,8.3C292.72,510,300,506.16,294.17,502Z"/><path class="cls-4" d="M383.54,464.75C344,437.92,298.41,427.59,251.16,429.7c-47.58,2.1-98.52,12.11-135.41,44.21a.8.8,0,0,0,.9,1.33c39.67-22.08,86.3-30.68,131.25-33.73a267.05,267.05,0,0,1,69.24,4.17c22.4,4.31,42.91,15.06,64.35,22.34C383.42,468.68,385.5,466.11,383.54,464.75Z"/><path class="cls-4" d="M403,412.49c-16,.14-31.32,8.32-39.15,22.48-.4.7.71,1.36,1.19.74,10-11.75,24.08-16.74,38.3-21.59C404.33,413.82,404,412.49,403,412.49Z"/><path class="cls-4" d="M459.63,434.15c-17.3-17.79-46.4-21.44-66.67-8-.46.32-.06,1.16.46.92,21-9.72,46.42-3,65.21,8.7C459.61,436.36,460.34,434.85,459.63,434.15Z"/><path class="cls-4" d="M459.21,447.16c-7.88-8.18-16.76-9-27.45-9.14-.76,0-.74,1.12-.06,1.28,8.16,2,16.38,4.23,22.8,9.89,7.48,6.51,12.79,15.08,16.3,24.24.45,1.2,2.4.84,2.23-.46C471.74,463.22,466,454.08,459.21,447.16Z"/><path class="cls-4" d="M55.28,449.55c-11.77,2.17-22,12.63-24.55,24.18-.08.42.51.7.75.36,3.13-4.55,5.93-9.34,9.83-13.31,4.13-4.19,9.59-6.64,14.51-9.71A.84.84,0,0,0,55.28,449.55Z"/><path class="cls-4" d="M91.48,425.63c-19.35-6-43.09,7.76-56.65,20.59-.53.5.29,1.24.84.9a123.81,123.81,0,0,1,55.7-18.83A1.35,1.35,0,0,0,91.48,425.63Z"/><path class="cls-4" d="M139.47,424c-18.41-15.82-41.19-14-62.38-5.49-.74.28-.35,1.24.38,1.12,21.43-4.63,40.91-3.41,61,5.94A.94.94,0,0,0,139.47,424Z"/><path class="cls-4" d="M206.77,164.65c-3.77-16.36-15.15-31-25.9-43.41-11.55-13.3-24.42-25.79-37.27-37.78-15.54-14.58-33.92-25.73-51.39-37.78a.34.34,0,0,0-.41.54c27.6,25.07,54.83,49.63,79.92,77.32,11,12.13,20.51,25.29,26.48,40.61,7.61,19.57,10,41.65,10.39,62.54,0,.76,1.15.62,1.17-.1C210,206,211.43,184.88,206.77,164.65Z"/><path class="cls-4" d="M470.34,40.28c-23.64,10.83-45.26,25.57-68.48,37.24C379.1,88.93,357.73,102.39,338.34,119c-16.85,14.42-31,30.44-39.67,51-8.46,20.09-9.66,42.73-10.18,64.27,0,.94,1.54,1,1.63.08,2.55-21.16,7-41.55,15.21-61.28,9.49-22.8,27.87-39.92,46.7-55.18,36.42-29.56,78.61-52.6,119.39-75.46C472.6,41.71,471.57,39.7,470.34,40.28Z"/><path class="cls-4" d="M238.73,320.17c20.06-2.22,39.16,4.65,57.11,13.1a169.48,169.48,0,0,1,20,11.17c-6.84-8-14.62-15.2-23.78-20.36-14.34-8.16-31.15-11.71-47.5-12-23-.42-41.9,11.41-55.43,28.32A100.9,100.9,0,0,1,238.73,320.17Z"/></g></g></svg>