<svg xmlns="http://www.w3.org/2000/svg" viewBox="0 0 883.46 532.28"><defs><style>.cls-1{isolation:isolate;}.cls-2,.cls-4{fill:#c48459;}.cls-3,.cls-8{fill:#aa744d;}.cls-15,.cls-4{opacity:0.7;}.cls-13,.cls-15,.cls-16,.cls-17,.cls-22,.cls-4,.cls-7,.cls-8,.cls-9{mix-blend-mode:multiply;}.cls-14,.cls-23,.cls-24,.cls-5{fill:#d08d4f;}.cls-6{fill:#534841;}.cls-10,.cls-11,.cls-16,.cls-9{fill:#d29d64;}.cls-17,.cls-22,.cls-9{opacity:0.6;}.cls-10,.cls-16{opacity:0.8;}.cls-10,.cls-14,.cls-24{mix-blend-mode:screen;}.cls-12,.cls-13{fill:#80471e;}.cls-13,.cls-23,.cls-24{opacity:0.4;}.cls-14{opacity:0.5;}.cls-15{fill:#c26d52;}.cls-17{fill:#954f34;}.cls-18{fill:#512d19;}.cls-19{fill:#2a1300;}.cls-20{fill:#fff;}.cls-21,.cls-22{fill:#753f27;}</style></defs><g class="cls-1"><g id="Layer_1" data-name="Layer 1"><path class="cls-2" d="M563.14,376.46a103.2,103.2,0,0,1-17.3-39.6c-5.11-26.35-5-53.9-.63-80.43-7.63-15.11-25.93-21.82-42.38-20.72-10.61.71-20.53,2.15-30.46,6.2-10.17,4.15-19.33,10.35-28.83,15.76a67.61,67.61,0,0,0-17.14,13.55,42.08,42.08,0,0,0-9.7,18.56c-1.75,6.68-.3,12.48,2.88,18.42a82.51,82.51,0,0,0,5.77,8.42c1.29,2.94,2.87,5.78,4.26,8.65,3.14,6.51,6.42,12.91,9.76,19.31s7.57,12.27,11.54,18.42a111.78,111.78,0,0,0,12.48,16.55c10.2,10.84,24.92,9,38.24,12.07a96,96,0,0,1,18.78,6.91,29.84,29.84,0,0,1,8,5.57,11.57,11.57,0,0,1-1.37,8.1c-2.43,4.23-4.29,9-6.35,13.4-4.84,10.41-9.82,21-15.58,31-4.86,8.36-9.15,17.05-14.38,25.2-2.95,4.62-4.93,9.06-10.55,11-2.75.92-5.48,2-8.22,3a10.32,10.32,0,0,1-4.88-1.56c-2.78-1.77-5.83-3.47-9.18-3.22a6.71,6.71,0,0,0-.76.13c-4-4.39-11.68-4-16.76-1-5.92-1.08-11.56,4.65-12.43,10.63-1.44,9.94,11.41,11.76,18.37,12.6,10.59,1.27,20.8,1.86,31.41.55A46.8,46.8,0,0,0,491.6,510a16.36,16.36,0,0,0,6.27-2.85c5.19-3.71,9.31-9.2,13.34-14.09,8.17-9.91,14.92-20.92,22.86-31,4-5.15,8.83-9.79,13.27-14.6a210,210,0,0,1,14.86-15.27c1.74-1.54,4.5-3.26,5.55-5.4,1.25-2.53,1.15-5.17,1.86-7.86.76-2.86.23-5.94-.51-9,1.84,1.25,3.63,2.54,4.49,4.8.15.38.66.13.85-.05,1.79-1.83.92-6.34.87-8.61,0-.38,0-.78-.1-1.19l.36.23c2.15,1.4,3.14,3.4,4.84,5.13.17.17.45-.1.46-.27.44-6.44-.18-12.12-2.71-17.7C572.65,387.47,567.35,382.46,563.14,376.46Z"/><path class="cls-3" d="M448.21,513.44a1.53,1.53,0,0,0,.37.17Z"/><path class="cls-3" d="M482.21,497.63c-3.47-.09-6.76-.15-10-1.45-2.71-1.07-4.8-3.07-7.47-4.05-4.67-1.72-7.73-2.53-12.21.3-4.1,2.59-6.74,7.26-7.76,11.86a12.78,12.78,0,0,0,.65,7.08c.43,1.22,1.74,1.6,2.84,2.07a9.26,9.26,0,0,1-2.42-3.28c-.81-3.14,0-6.38,1.26-9.28,2.19-5.24,7.88-10.13,13.77-8.41,3.81,1.11,7.05,3.26,10.74,4.7a22.76,22.76,0,0,0,10.53,1C482.3,498.12,482.53,497.65,482.21,497.63Z"/><path class="cls-3" d="M449,513.78l.18-.15c.05,0,0-.14,0-.09a.71.71,0,0,1-.57.07l.36.19S449,513.79,449,513.78Z"/><path class="cls-3" d="M442.26,488.93c-4.64,1.95-7.63,6.4-8.71,11.24-.66,2.9-.7,10.61,3.53,11.05,0,0,.08-.06,0-.08-3.73-1.86-2.67-9-1.79-12.09a18,18,0,0,1,7-9.84C442.48,489.11,442.47,488.85,442.26,488.93Z"/><path class="cls-4" d="M563.14,376.46a103.2,103.2,0,0,1-17.3-39.6c-5.11-26.35-5-53.9-.63-80.43-7.63-15.11-25.93-21.82-42.38-20.72-10.61.71-20.53,2.15-30.46,6.2-10.17,4.15-19.33,10.35-28.83,15.76a67.61,67.61,0,0,0-17.14,13.55,42.08,42.08,0,0,0-9.7,18.56c-1.75,6.68-.3,12.48,2.88,18.42a82.51,82.51,0,0,0,5.77,8.42c1.29,2.94,2.87,5.78,4.26,8.65,3.14,6.51,6.42,12.91,9.76,19.31s7.57,12.27,11.54,18.42a111.78,111.78,0,0,0,12.48,16.55c10.2,10.84,24.92,9,38.24,12.07a96,96,0,0,1,18.78,6.91,29.84,29.84,0,0,1,8,5.57,11.57,11.57,0,0,1-1.37,8.1c-2.43,4.23-4.29,9-6.35,13.4-4.84,10.41-9.82,21-15.58,31-4.86,8.36-9.15,17.05-14.38,25.2-2.95,4.62-4.93,9.06-10.55,11-2.75.92-5.48,2-8.22,3-1.67-.17-3.06-1.32-4.73-2.38a15.05,15.05,0,0,0-9.33-2.4,6.71,6.71,0,0,0-.76.13c-4-4.39-11.88-3.95-17-.89-5.93-1.08-11.37,4.57-12.24,10.55-1.44,9.94,11.41,11.76,18.37,12.6,10.59,1.27,20.8,1.86,31.41.55A46.8,46.8,0,0,0,491.6,510a16.36,16.36,0,0,0,6.27-2.85c5.19-3.71,9.31-9.2,13.34-14.09,8.17-9.91,14.92-20.92,22.86-31,4-5.15,8.83-9.79,13.27-14.6a210,210,0,0,1,14.86-15.27c1.74-1.54,4.5-3.26,5.55-5.4,1.25-2.53,1.15-5.17,1.86-7.86.76-2.86.23-5.94-.51-9,1.84,1.25,3.63,2.54,4.49,4.8.15.38.66.13.85-.05,1.79-1.83.92-6.34.87-8.61,0-.38,0-.78-.1-1.19l.36.23c2.15,1.4,3.14,3.4,4.84,5.13.17.17.45-.1.46-.27.44-6.44-.18-12.12-2.71-17.7C572.65,387.47,567.35,382.46,563.14,376.46Z"/><path class="cls-4" d="M578.16,392.27c-5.51-4.8-10.81-9.81-15-15.81a103.2,103.2,0,0,1-17.3-39.6c-5.11-26.35-5-53.9-.63-80.43-7.63-15.11-25.93-21.82-42.38-20.72-10.61.71-20.53,2.15-30.46,6.2-10.17,4.15-19.33,10.35-28.83,15.76a67.61,67.61,0,0,0-17.14,13.55,42.08,42.08,0,0,0-9.7,18.56c-1.75,6.68-.3,12.48,2.88,18.42a82.51,82.51,0,0,0,5.77,8.42c1.29,2.94,2.87,5.78,4.26,8.65,3.14,6.51,6.42,12.91,9.76,19.31s7.57,12.27,11.54,18.42a111.78,111.78,0,0,0,12.48,16.55,27,27,0,0,0,9.68,6.58,28.22,28.22,0,0,1-7.23-7.64,50.43,50.43,0,0,1-7.65-26c0-.29.57-.81.82-.47a56.17,56.17,0,0,0,7.36,8.18c-1.84-14.79,3.74-30.44,11.46-42.76.1-.16.73-.62.8-.18,1.92,12.56,3.62,25.28,8.78,37-.07-4-.65-7.89.33-11.81.06-.25.73-.73.85-.28,1.13,4.39,1.92,9,3.71,13.16a27.16,27.16,0,0,0,8.05,10.45c6.92,5.75,15,9.74,22.66,14.36,7.28,4.39,15.41,7.28,22.43,12.13,3,2.12,5.94,4.43,7.66,7.81,1.8,3.55,2.82,7.39,4.18,11.11.14.38-.5.84-.81.56A80.15,80.15,0,0,0,547.7,405c4.25,4.39,8,9.86,7.93,15.51a.62.62,0,0,1-.65.55,15.17,15.17,0,0,1-5.3-1.91,33.55,33.55,0,0,1,3,7.9.59.59,0,0,1-.74.62,26.13,26.13,0,0,0-10.35-3l1,.65c2.51,1.59,7.37,3.85,4.24,7.05a30.9,30.9,0,0,1-5.34,3.86c-2.8,1.85-5.16,4.56-7.46,7-10.42,11-19.3,23.34-27.37,36.12-2.73,4.3-5.23,9.16-9.16,12.52a21.47,21.47,0,0,1-11.67,4.77,47.45,47.45,0,0,1-12,.38c-1.91-.25-4.4-.74-5.58-2.3a8.13,8.13,0,0,1-1.07-.59c-2.51-1.59-5.23-3.12-8.21-3.22l-1.63.11-.1,0h0c-4.21.3-8.33.85-11.34,4.38-2.5,2.94-3.42,6.57-4,10.29-.05.3-.55.62-.8.37a8.35,8.35,0,0,1-2.47-5.63,10.82,10.82,0,0,0-1.19,3.5c0,.28-.76.89-.87.39-.83-3.87-.23-9.18,2.31-12.68a13.22,13.22,0,0,0-6.09,8.11c-.46,1.7-1.34,3-3.27,2.49a2.22,2.22,0,0,1-1.47-1.23c-1.13,9.65,11.51,11.45,18.4,12.28,10.59,1.27,20.8,1.86,31.41.55A46.8,46.8,0,0,0,491.6,510a16.36,16.36,0,0,0,6.27-2.85c5.19-3.71,9.31-9.2,13.34-14.09,8.17-9.91,14.92-20.92,22.86-31,4-5.15,8.83-9.79,13.27-14.6a210,210,0,0,1,14.86-15.27c1.74-1.54,4.5-3.26,5.55-5.4,1.25-2.53,1.15-5.17,1.86-7.86.76-2.86.23-5.94-.51-9,1.84,1.25,3.63,2.54,4.49,4.8.15.38.66.13.85-.05,1.79-1.83.92-6.34.87-8.61,0-.38,0-.78-.1-1.19l.36.23c2.15,1.4,3.14,3.4,4.84,5.13.17.17.45-.1.46-.27C581.31,403.53,580.69,397.85,578.16,392.27ZM466.48,505.52c-1.56,4.58-7.53,5.3-11.61,5.29-1.72,0-4.52-.18-5.1-2.21a7.33,7.33,0,0,1,.34-4.64,18.4,18.4,0,0,0-2.23,3.58c-.13.27-.77.57-.81.08-.44-5.95,1.75-12.52,7.91-14.47a.42.42,0,0,1,.25,0C461,490.47,468.43,499.8,466.48,505.52Z"/><path class="cls-4" d="M439.37,344.58c1.39,2.69,2.93,5.23,4.52,7.73a72.59,72.59,0,0,1,.59-12.6,51.55,51.55,0,0,1,7-19.11,140.74,140.74,0,0,1,30.16-35.22c.2-.17.63-.27.65.1.42,7.55.9,15.1,1.89,22.61,1.42,10.82,3.65,21.87,8.51,31.73a47.77,47.77,0,0,0,8.93,12.91c4.35,4.33,9.6,7.19,15,9.91a151.19,151.19,0,0,0,47.27,14.89c-.27-.36-.54-.71-.79-1.07a103.2,103.2,0,0,1-17.3-39.6c-5.11-26.35-5-53.9-.63-80.43-7.63-15.11-25.93-21.82-42.38-20.72-10.61.71-20.53,2.15-30.46,6.2-10.17,4.15-19.33,10.35-28.83,15.76a67.61,67.61,0,0,0-17.14,13.55,42.08,42.08,0,0,0-9.7,18.56c-1.75,6.68-.3,12.48,2.88,18.42a82.51,82.51,0,0,0,5.77,8.42c1.29,2.94,2.87,5.78,4.26,8.65C432.75,331.78,436,338.18,439.37,344.58Z"/><path class="cls-5" d="M883.36.81c-1.45-2.9-3.39,2.9-3.39,2.9-14.48,53.12-61.8,105.74-139.05,122.64-36.49,8-71.47,2.82-98.22-4.84-8.86-3.23-17.62-6.58-26.39-10.06-4.76-1.89-9.6-3.53-14.28-5.62-3.64-1.62-7.22-5.38-11.15-6,0,0,0,0,0,0a11.8,11.8,0,0,1,4.38,2.52,139,139,0,0,0-17.85-8.65c-19.32-7.57-41.26-13.45-61.69-6.85a161,161,0,0,0-28.54,12.35c-9.38,5.26-18.93,10.64-27.77,16.78s-17.24,13.15-26.53,18.49c-14.55,4.05-29.05,8.3-43.68,12-14.13,3.58-28.44,5-42.8,7.19a98.09,98.09,0,0,1-23.29.4c-2.2-.19-4.59-.35-6.91-.66-1.22-.55-2.45-1.1-3.67-1.67-7.64-3.6-15.58-6.49-23.2-10.11-7.86-3.73-15.49-8-23-12.49-7.17-4.26-14.1-8.91-21.25-13.18-6.75-4-13.77-7.46-20.21-12-6.07-4.33-12.57-8-18.29-12.83-3.31-11.28-6.59-22.55-11.88-33.14-4-8.09-8.25-16.1-13.87-23.22A34.71,34.71,0,0,0,172.67,27c-.53-.31-1.13-.66-1.76-.95-3-2.15-6.52-1.54-7.28,3.58-1.7,11.46.36,22.81,2.41,34.07,2.17,12,5,23.72,7.76,35.52.34,1.47.66,3,1,4.43a167.44,167.44,0,0,0-18.23,21.89c-8.39,11.86-17.83,24.2-22.46,38.11-1.83,5.52-3.27,10.77-1.53,16.52a6,6,0,0,0,1.73,2.7,23.92,23.92,0,0,0-2.55-.24c-.07,0-.13.14-.05.14a19.38,19.38,0,0,1,3,.4,11.85,11.85,0,0,0,6.25,2.13c1.06.46,2.1.94,3.13,1.41,3.71,1.71,7.46,3.35,11.18,5.05a106.58,106.58,0,0,1,10.64,6.08A101.68,101.68,0,0,1,178,206.39c3.46,2.85,7.13,5.41,10.44,8.43s7.28,5.92,9.71,9.66c.09,1.29.16,2.58.14,3.88-.07,4.09-.73,8.17-1.2,12.23-.88,7.88-.92,15.81-1.85,23.67a117,117,0,0,0,.05,25.92c.85,7.83,2.41,15.43,6.36,22.32.43.76,1.52-.19,1.42-.83a33.56,33.56,0,0,1-.33-7.22,35.67,35.67,0,0,0,4.4,10.57,92.15,92.15,0,0,0,10.39,12.92c4.16,4.43,7.91,9.34,11.8,14s7.79,9.2,11.71,13.77,6.62,9.71,10,14.55a39.37,39.37,0,0,1,5.42,11.4c.05,1.07.07,2.17.07,3.35,0,7.47-2.7,13.52-5.72,20.23-5.63,12.53-10.73,25.31-16.44,37.79-5.27,11.53-9.81,23.58-15.92,34.72-4.28,7.83-10.28,15.75-17.63,21.5-1.18-.36-2.36-.72-3.51-1.14a10.6,10.6,0,0,0-6.33-.16,18.83,18.83,0,0,0-2.77-2.12c-1.5-.92-4-.94-5.61-1.47s-2.64.06-4.3.42a18.37,18.37,0,0,0-3.38,1,6.19,6.19,0,0,0-.83-.51,7.7,7.7,0,0,0-5.76,0,22.36,22.36,0,0,0-11.6,10c-1.27,2.38-3.89,9-1.49,11.41,2.81,2.84,6.48,3.07,10,2.2,2.86,2.75,8.36,2,12.72.49,1.35,2.23,5.28,1.72,7.46,2,4.91.57,9.92.08,14.85.21,8.48.23,16.3.22,23.54-4.76,2.52-1.72,6-4.38,6.69-7.6a16.22,16.22,0,0,0,.44-5,96.88,96.88,0,0,1,8.23-15.89c3.42-5.5,6.62-11.49,10.57-16.6s7.27-11.24,11.1-16.7c4.38-6.21,8.77-12.4,13.1-18.64,8.07-11.66,16.75-22.9,25.31-34.19,2.14-2.83,4.29-5.62,6.7-8.23,1.75-1.89,3.71-3.38,5-5.67a16.15,16.15,0,0,0,1.68-9.45c.11.18.22.36.32.54.6,1,.51,2.24,1.11,3.25.34.56,1.11-.07,1.17-.54a65.89,65.89,0,0,0,.82-9.81,15.1,15.1,0,0,1,1.37,6.11c0,.88.87.78,1.34.31,1.18-1.17,1.16-2.66,1.71-4.21,1-3,2.24-5.95,3.48-8.84s2.5-5.87,3.68-8.84c1-2.45,2.37-6.81,4.55-8.53a2.15,2.15,0,0,0,.73-1.07c4.77,3.95,9.6,7.81,14,12.14,7.54,7.35,15.14,15.28,21.1,24,3.43,5,6.37,10.08,8.06,15.94.06.19.1.38.16.57a39,39,0,0,1-.91,6.7c-1.22,5.72-3.17,11.31-4.72,16.95-2.72,9.83-5.56,19.67-7.85,29.61-2.41,10.48-5.31,20.94-8.73,31.13-3.29,9.8-7.17,19.33-14.92,26.28-.45-.24-.91-.47-1.38-.68a10.6,10.6,0,0,0-5.33-.6,15.91,15.91,0,0,0-13.83-4.84,10.8,10.8,0,0,0-7.56-1.77c-5.52.87-8.73,5.14-11.11,9.85-1.76,3.5-3.93,9.9-2.31,13.77,1.55,3.68,6.67,4.81,10.41,3.86a11.32,11.32,0,0,0,5.85.77,30.06,30.06,0,0,0,5.45-1,5.6,5.6,0,0,0,2.37.94A88.08,88.08,0,0,0,335.69,532a66.16,66.16,0,0,0,13.48-1.13c4.55-.91,9.19-1,13.62-2.63,1.45-.53,5.89-1.63,5.32-4.11-.36-1.6-1.18-3-1.59-4.67-.34-1.41-.65-2.83-1-4.26A12.8,12.8,0,0,1,366,510a75.41,75.41,0,0,1,3.87-8.43c2.83-6,5-12.33,8.16-18.22,5.31-9.91,9.35-20.64,13.66-31,2.34-5.63,4.92-11.14,7-16.87s4-11.68,6.21-17.46c2.3-6,4.28-12,7.13-17.73s5.09-11,9.7-15.39a1.2,1.2,0,0,0,.27-1.48,6.91,6.91,0,0,1,3-.24,1.53,1.53,0,0,0,1.49-1.61,17.74,17.74,0,0,0-.63-2.27c-.24-2.52-1.67-5.26-2.68-7.23a17.49,17.49,0,0,0-2.71-4,26,26,0,0,0,3.2,1.14.63.63,0,0,0,.73-.78,17.84,17.84,0,0,0-4.8-7.5c.64.28,1.28.56,1.88.86,1.51.74,2.59,2.15,3.84,3.23.53.46,1.4-.36,1.28-.94a112.66,112.66,0,0,0-5.95-20.75c-.8-2-1.63-4-2.59-5.95a79.72,79.72,0,0,0,14.24-.56c1-.09,2.69,0,3.33-1.06a2.31,2.31,0,0,0,.41-1.39,11.84,11.84,0,0,1,.69-5.16c2.08-7.05,4.25-13.34,8.09-19.7a101.39,101.39,0,0,1,28.4-30.3A122,122,0,0,1,492,268.38a143.75,143.75,0,0,0-3.66,20.44,106.86,106.86,0,0,0,2.2,33.59,85.73,85.73,0,0,0,11,28.28,8.29,8.29,0,0,0,3.29,2.59,69.45,69.45,0,0,1,7.4,5c4,2.94,9.62,6.39,12.42,10.55.34.51,1.08-.18.91-.65-1.1-2.89-2.19-5.72-3.11-8.64a2.39,2.39,0,0,0,.13.21,62.12,62.12,0,0,0,4.54,6c2,2.3,4.6,4,6.38,6.49.41.55,1.13-.13,1.1-.64a13.43,13.43,0,0,0-1.23-4,42.06,42.06,0,0,0,7.88,7c9.45,6.51,19.5,12.11,29.43,17.86s20.48,11,29.36,18.31a38.86,38.86,0,0,1,12.46,17.85,19.17,19.17,0,0,1-.81,4.37,68.61,68.61,0,0,1-5.42,12.44c-4.69,8.22-9.25,16.44-14.42,24.4s-10.82,15.4-16.25,23.09a66.7,66.7,0,0,1-10.35,11.71c-2.88,2.48-6.78,5.68-10.76,5.76-.77-.22-1.53-.45-2.3-.75-4.37-1.7-8.88-3.88-13.61-3.28a14.69,14.69,0,0,0-8.92-1.65c-4.24.46-7.36,4.52-9,8.07s-3.48,9.07-1.46,12.87c1.34,2.52,4.46,3,7.49,2.58,1.88,1.83,4.26,2,6.84,2.06a9,9,0,0,0,3-.54c1.4,1.11,4.09,1,5.64,1.37A71,71,0,0,0,557,532.27c4,0,8-.18,12-.47,4.24-.32,9-.41,13-2.12,2.47-1.08,3.44-4.09,4.37-6.41q.48-1.2.9-2.4a.54.54,0,0,0,.19-.24,66.65,66.65,0,0,1,5.05-11.51c2.44-4.1,4.87-8.11,7.62-12,5.13-7.34,10-14.9,15.17-22.19,5.34-7.46,10-15.32,15.35-22.81,2.77-3.91,5.69-7.71,8.7-11.43,1.26-1.57,2.42-3.23,3.71-4.78,1.05-1.26,2.55-3.56,4.08-4.22a1,1,0,0,0,.62-.79,5.87,5.87,0,0,0-.53-3.14,6.43,6.43,0,0,0,1,.54,1.24,1.24,0,0,0,1.52-.8c1.06-2.92-.09-6.31-2-8.88a18.7,18.7,0,0,1,4.42,4.11c.44.53,1.27-.33,1.31-.77a18.59,18.59,0,0,0-1.71-9.16c.4.26.81.51,1.2.79,1.17.84,2.17,2.07,3.45,2.7.52.26,1.28-.5,1.15-1-3.68-14.89-16.26-24.58-26.46-35.25-6.09-6.35-11.85-14.22-11.31-23.41a71.81,71.81,0,0,1,2-12.17c3.36-8.05,7.68-15.82,11.64-23.58,7.67-15,16.19-29.56,24.26-44.35,3.85-7.05,8.27-13.87,11-21.46,2.34-6.43,2-15,1.42-21.68-.69-8-1.43-16-2.51-24a64.12,64.12,0,0,0-2.09-11.17c-.37-1.14-.8-2.29-1.24-3.44a18.49,18.49,0,0,1,2,1.62c1.24,1.18,1.72,2.85,3.22,3.74.45.27,1-.46,1-.86-.83-5.76-1.7-11.24-4.57-16.36-.28-.51-.59-1.05-.91-1.59,1.85,1.4,3.35,3.28,5.3,4.47.37.21.86-.38.8-.72-1.28-6.8-3.95-13-7-19.18a28.25,28.25,0,0,0-4.25-6.27c38,2.26,103.74-7,152-37.57C871.28,84.34,884.81,3.71,883.36.81Z"/><path class="cls-3" d="M221.48,499.93c-2.31,2.73-5.93,3-9.24,2.4-2.77-.5-5.74-1.41-8.49-2.09-4.38-1.07-9.18-3.7-13.7-1.73-4,1.73-7.35,4.24-9.22,8.28-1.47,3.22-4.25,9.57-2.35,13.08.11.22.38,0,.37-.21-.26-5.65,2.17-11.73,5.52-16.08,1.58-2,4.52-3.63,6.91-4.55,3.51-1.34,7.45.32,10.72,1.61,6.06,2.41,15.09,6.45,19.54-.68C221.57,499.91,221.52,499.88,221.48,499.93Z"/><path class="cls-3" d="M175.4,495.65c-4,1-7.6,6.68-9.56,9.94-2.54,4.21-4.65,11.37.52,14.2.13.07.33-.16.26-.28-2.71-4.72-1.69-9.82.88-14.39,1.85-3.3,4.6-7.34,7.92-9.34C175.47,495.75,175.49,495.63,175.4,495.65Z"/><path class="cls-4" d="M330.21,343.64c-2.44-2.47-5-5.69-7.89-8-17.79.95-36.44-2.3-52.39-10.18a65.62,65.62,0,0,1-22.63-13.94c-7.87-7.62-14.62-18.65-16.39-29.89-.25-.56-.51-1.12-.76-1.67a41.08,41.08,0,0,0-2.57,16.9c0,.52-1,1.2-1.26.56-5.55-12.45-8.61-25.52-6.7-38.74A25.77,25.77,0,0,0,213,267c-.16.34-1.27.85-1.18.12a49.31,49.31,0,0,1,4.32-15.83c-4.25,1.92-7.9,4.71-9.9,9.43-.16.37-1.24.84-1.19.13.58-7.7,4.55-13.18,9.89-18q-5.73-6.72-11.35-13.52c-2-2.4-5.55-7.54-9.25-9.17a25.68,25.68,0,0,1,3.79,4.4c.09,1.29.16,2.58.14,3.88-.07,4.09-.73,8.17-1.2,12.23-.88,7.88-.92,15.81-1.85,23.67a117,117,0,0,0,.05,25.92c.85,7.83,2.41,15.43,6.36,22.32.43.76,1.52-.19,1.42-.83a33.56,33.56,0,0,1-.33-7.22,35.67,35.67,0,0,0,4.4,10.57,92.15,92.15,0,0,0,10.39,12.92c4.16,4.43,7.91,9.34,11.8,14s7.79,9.2,11.71,13.77,6.62,9.71,10,14.55a39.37,39.37,0,0,1,5.42,11.4c.05,1.07.07,2.17.07,3.35,0,7.47-2.7,13.52-5.72,20.23-5.63,12.53-10.73,25.31-16.44,37.79-5.27,11.53-9.81,23.58-15.92,34.72-4.28,7.83-10.28,15.75-17.63,21.5-1.18-.36-2.36-.72-3.51-1.14a10.6,10.6,0,0,0-6.33-.16,18.83,18.83,0,0,0-2.77-2.12c-1.5-.92-4-.94-5.61-1.47s-2.64.06-4.3.42a18.37,18.37,0,0,0-3.38,1,6.19,6.19,0,0,0-.83-.51,7.7,7.7,0,0,0-5.76,0,22.36,22.36,0,0,0-11.6,10c-1.27,2.38-3.89,9-1.49,11.41,2.81,2.84,6.48,3.07,10,2.2,2.86,2.75,8.36,2,12.72.49,1.35,2.23,5.28,1.72,7.46,2,4.91.57,9.92.08,14.85.21,8.48.23,16.3.22,23.54-4.76,2.52-1.72,6-4.38,6.69-7.6a16.22,16.22,0,0,0,.44-5,96.88,96.88,0,0,1,8.23-15.89c3.42-5.5,6.62-11.49,10.57-16.6s7.27-11.24,11.1-16.7c4.38-6.21,8.77-12.4,13.1-18.64,8.07-11.66,16.75-22.9,25.31-34.19,2.14-2.83,4.29-5.62,6.7-8.23,1.75-1.89,3.71-3.38,5-5.67a16.15,16.15,0,0,0,1.68-9.45c.11.18.22.36.32.54.6,1,.51,2.24,1.11,3.25.34.56,1.11-.07,1.17-.54a65.89,65.89,0,0,0,.82-9.81,15.1,15.1,0,0,1,1.37,6.11c0,.88.87.78,1.34.31,1.18-1.17,1.16-2.66,1.71-4.21,1-3,2.24-5.95,3.48-8.84s2.5-5.87,3.68-8.84c1-2.45,2.37-6.81,4.55-8.53a2.11,2.11,0,0,0,.64-.88A13.25,13.25,0,0,0,330.21,343.64Z"/><path class="cls-6" d="M278.22,138.77c-3.05-.35-1.23,1.38-.21,2.75.29.39-.2.91-.56,1-2.51.75.24,2.64.26,4a2.62,2.62,0,0,1-.85,2.26c-1.37,1.15-2.15.83-.71,2.9a1.48,1.48,0,0,1-.08,1.87c-1.31,1.59,0,2.71-.74,4.44a2.63,2.63,0,0,1-.76.87c-.91.89.41,1.5.59,2.08.7,2.19-.69,4.37-.35,6.68a19,19,0,0,1,.2,3.33c1.6-.85,3.5-1.56,4.66-2.05-1.06-1.09-2.76-2.65-1.58-4,1.31-1.56,4.85-1.26,3.44-3.81-.69-1.26,0-2.42.92-3.27a7.28,7.28,0,0,1,2.26-1c2.44-1,.62-1.5,1.43-2.71,1-1.48,3.59-2,3.68-3.72s1.32-2,2.7-2.65c2-.88-.79-3.22-.28-4.73-1-.43-1.95-.85-2.92-1.31-3.91-1.85-7.77-3.86-11.57-6a12.25,12.25,0,0,1,1.41,2.17C279.39,138.31,278.61,138.82,278.22,138.77Z"/><path class="cls-6" d="M299.12,150.23c-1.47.08,1.25,2.38,1.23,3.5a1,1,0,0,1-.38.73c-1.44,1.11-.79,3.32,0,4.74,1.38,2.52-1.78,4.87.06,7.23,1.3,1.67-1.27,3.48.36,5.53a5.09,5.09,0,0,1,.61,3,24.09,24.09,0,0,0,.3,5.22c.05.39.08.79.12,1.19a8,8,0,0,1,1.85-2.24c-1.55-2.58,1.73-3.67,3.88-4.68-2.14-3.37.88-3.61,3.15-5.77,1.91-1.81-1.92-3.94-.41-6,1.61-2.21,3.8-2.28,6-3.4a13.38,13.38,0,0,0-2.18-2.21c-.27-.22.09-.68.25-.83a5.64,5.64,0,0,1,3.46-1.49,8.77,8.77,0,0,1-1.41-1.51c-1.15-.52-2.29-1-3.43-1.56-4.57-2.16-9.24-4.07-13.89-6C300.18,147.33,302.4,150.05,299.12,150.23Z"/><path class="cls-6" d="M325.45,158.35c.24.34-.1.79-.4,1a11.61,11.61,0,0,1-1.72.68c-.05,0-4.46,1.51-2.3,2.33,1.52.58,3.19.87,4.06,2.38a.48.48,0,0,1,0,.54c-1.61,2.47,1.39,2.26,2.54,3.8.84,1.13-.18,2.69-.78,3.63-3.37,5.3,6.38,2.36,3.28,6.55-.41.57-3.12,3.26-1.64,3.44a7,7,0,0,1,1.62.31c1.11.43,2.86,1.52,2.62,3a3.5,3.5,0,0,0,.69,3.19,3.48,3.48,0,0,1,.61.83c.15.86.13,1.65.22,2.5.24,1.95,2.08,4.2,4,5.72.11-1.66.39-3.31.35-5,0-1.07-1.07-2.35-1-3.41a5,5,0,0,1,1.05-2.83c2.39-3.39-.19-2.73.06-5a8.34,8.34,0,0,1,1.41-3.7c1.44-2.34-.76-3.4-1.35-5.16-.68-2,5.35-5.33,4-6.6-1.09-1.06-3.45-2.55-2.91-4.44s4.56-3.08,1.91-5.15c-.8-.62-1.73-1.58-1.3-2.61a109.85,109.85,0,0,1-17.4-.26H323a2.55,2.55,0,0,0-.33.11C320,155.2,324.68,157.28,325.45,158.35Z"/><path class="cls-6" d="M347.83,155.34c1.32.36,3.18,1.08,2.67,2.87a4.29,4.29,0,0,1-1.62,1.91c-1.69,1.49,1.47,2.16,2.1,2.77,1,1,.46,3.3,1.17,4.38.39.59,1.53,1.93,1.45,2.75-.2,1.85-.75,3,.19,4.85.16.3,1.19,1.33,1.18,1.87,0,1.09-.9,2.35-1.19,3.4-.5,1.79,2.11,3.26,3.21,4.08,1.31,1,.07,2.51-.66,3.42-1.84,2.27-2.73,4.7.86,5,1.29.09,2.59.14,3.87.22.37,0,.34.45.23.68-.58,1.26-1.71,2.67-1,3.94a21.07,21.07,0,0,1,2.16-2.75c1.56-1.7.62-1.46-1.34-2a.42.42,0,0,1-.23-.68,8.64,8.64,0,0,1,2.09-2.18c1.82-1.46-.58-1.35-1.16-1.6-1.23-.54-1.47-1.22-1.17-2.5.4-1.7,1.71-2.81,1-4.89a5.4,5.4,0,0,1-.5-1.66c-.06-2.4,2.32-4.38,1.65-6.74-.53-1.88-.82-3.8.2-5.58.62-1.07,1.81-2.4,2.05-3.61.32-1.63-.85-2.52-1.75-3.65a2.31,2.31,0,0,1,.2-3c.85-1.18,4.14-2,1.5-2.9-.26-.09-.19-.47-.1-.64a9.69,9.69,0,0,1,1.78-2.37c-6.21.92-12.44,1.73-18.67,2.66C347,154.17,346.45,155,347.83,155.34Z"/><path class="cls-6" d="M374.52,153.3c.67,1,0,2.06-.76,2.72-2.15,2,2.88,4,3.63,5S376,165.35,377,166c2,1.15,2,3.68,3.17,5.5a5.89,5.89,0,0,1,1.31,2.91c0,.89-.9,2.57-.28,3.26,1,1.14,2.19,2.18,1.91,3.86-.43,2.7-3.91,6.07,0,7.87,1,.48,2.74.73,3.49,1.65.6.73-.55,2.44-.86,3-.52.95,2.41.28,3.11,1.12,1.21,1.44-.83,3.23,1.63,4.3,1.09.48,2.22.88,3.35,1.3-.2-.35-.56-.55-1.13-1.26a1.51,1.51,0,0,1-.35-1.5c.57-2,2.22-3.18,3.61-4.65a30.3,30.3,0,0,1-4.5-.79.41.41,0,0,1-.15-.49,6.47,6.47,0,0,1,2.21-3c.1-.07,3.68-2.69,2-3-.67-.14-1.41-.17-2.07-.35-2.18-.59-2.13-2.42-1.22-4.25.38-.74,3.24-3,1.2-4a3.33,3.33,0,0,1-1.34-.94c-.91-.85-.61-2.12-.29-3.1.85-2.57-1.73-3.18-1.61-5.3a5.36,5.36,0,0,1,1.08-3.19c1-1.25,3.64-3.8,2.77-5.57a22,22,0,0,0-1.39-2,6.32,6.32,0,0,1-1.33-3.89c.13-1.84,2.4-2.57,3.73-3.25,3.42-1.74-.78-2.47-1.45-3.31a1.56,1.56,0,0,1-.41-1.43l-4,1c-6,1.53-12.12,2.65-18.22,3.63l-1.2.68C371.52,151.37,373.42,151.69,374.52,153.3Z"/><path class="cls-6" d="M404.86,145.33c1.51,1.22.87,2.45-.3,3.59-2.45,2.41,3.33,3.69,3.58,5.66.23,1.76-.54,4.5.3,6.07,1,1.86,3.07,2.41,4.12,4.21.83,1.43-.22,3.09-1,4.28-2.11,3.21,3.08,1.35,4.59,3,1,1.11-1.14,3-1.68,3.64-2.81,3.29,2.95,2.74,4.33,2.73a2.18,2.18,0,0,1,2,1.14c.5.69-.26,1.65-.39,2.28-.51,2.32,2.09,2.12,3.4,2.47,1.78.48,1.7,2.57,1,3.88-2.51,4.65,2.2,5.25,5.61,5.6,2.31.24,10,1.44,5.79,5.25-2.1,1.9,2.85,1.83,3.33,2.17,1.35,1,1.12,1.65,1.71,3.08a4.11,4.11,0,0,0,.84,1.24,5,5,0,0,1-.09-2.7c.65-1.93,4.74-6.07,1-7-.73-.18-2.29-.34-2-1.48a4.9,4.9,0,0,1,.94-1.88c.46-.61-.47-.56-.79-1.17a7.6,7.6,0,0,1-1.28-3.45c0-1.35.15-3.21-1-4.22s-1.89-1.39-.67-3c3.36-4.33-3.92-3.15-3.59-6.16.22-1.94,3.53-3.86.78-5.29-.93-.49-2.33-1.2-2.56-2.36-.36-1.7.48-3.89-.19-5.44-.94-2.19-3.31-2.68-4.47-4.6-.7-1.14.08-3,.84-3.95,1.35-1.6,2.33-3.9-.3-4.84-.4-.13-1.17-.37-1.27-.9a5.12,5.12,0,0,1,1.89-4.67c1.46-1.39,2.52-3.23-.1-3.7a1.74,1.74,0,0,1-1.1-1,3,3,0,0,1,.07-2.1c-8.64,2.42-17.3,4.87-26,7.23a6.75,6.75,0,0,0-.85.84C400.68,144.62,404.6,145.12,404.86,145.33Z"/><path class="cls-6" d="M484.32,151.39a3.34,3.34,0,0,1,1.55,1.78c.44,1-.08,2.25-.57,3.48a3,3,0,0,0,2.08,1c2.39.32,4.17,1.58,4.6,4,.24,1.43-.41,3.31.29,4.65.91,1.71,2.32,2.74,3.58,4.16.51.57,1.34,1.31,1.32,2.17a1.54,1.54,0,0,1-.11.48,5,5,0,0,1,1.2.06,2.27,2.27,0,0,1,.95.44c2-.2,2.55.76,2.63,2.7a2.78,2.78,0,0,0,1.35,2.63c1.42,0,3.1-.32,4.18.43a5.62,5.62,0,0,1,3,.55c.8.49,1.84,1.13,2.1,2.11,0,.18.11.35.17.51a7.12,7.12,0,0,1,2.86-.08,11.12,11.12,0,0,1,2.8,1.54h.07c1-.08,2.39-.3,3.28.22l.23.15c-.29-.81-.55-1.71-.85-2.66-1.15-3.66-4.13-1.86-6.46-3.75a2.68,2.68,0,0,1-1.16-2.67c.47-3-1.21-3.44-3.4-3.88-2.84-.59-3.62-2.34-3.4-5.06.3-3.9-4.18-4-3.92-7.44.1-1.43,2.55-3.69,1.07-5-1-.89-2.87-1-4.06-1.56-1.6-.81-2.88-1.93-2.71-3.88.28-3.35,1.71-6.13,0-9.32-1.31-2.47-1.94-3.33-.74-6,.52-1.17-3.12-1.41-3.75-1.81a2.08,2.08,0,0,1-.65-1.52c.1-2.68,2-4.86,1.91-7.57-.06-2.25-.05-4.91-1.16-7-.78-1.43-1.86-2.05-2.86-3.21-2-2.32,3.08-4.92-.31-7.31-2.59-1.83-2-4-.86-6.3l-1.37.74c-6.47,3.62-13,7.34-19.3,11.28a18.69,18.69,0,0,0-1,1.73c-2.37,4.72,3.19.75,4.54,2.16s.4,2.58-.44,4c-.65,1.08-2.44,3.53,0,4.53a11,11,0,0,1,1.41.62,4.58,4.58,0,0,1,1.85,2.72c.28,1-.31,2.23-.51,3.15-.55,2.54,0,3.33,1.68,4.83,2.39,2.12,1.94,3.22,2.24,6.14s3.56,3.8,4.08,6.78C482.05,149.08,482.46,150.28,484.32,151.39Z"/><path class="cls-6" d="M554.41,175.28c-.5-.6-1.79-1.72-1.65-2.66.34-2.26,2.16-4.42.49-6.68a4,4,0,0,1-.85-3.1,4.93,4.93,0,0,1,1.21-2.46l0-.06a3.63,3.63,0,0,0-1.56-2.42,2.87,2.87,0,0,1-1-2.06c.18-1.8,3.75-3.84.73-5-1.87-.71-2.47-2-1.16-3.66a3.77,3.77,0,0,0,1.12-2.19,13.38,13.38,0,0,0-3.85-3.11c-1.29-.66-4.25-2.65-2.56-4.37s-1.11-2-1.43-3-.22-1.13,0-2.28a6.82,6.82,0,0,1,.77-2c.69-1.44-1.48-2.17-2.28-2.54a3.73,3.73,0,0,1-2.12-1.66c-.75-1.51,1.26-3,2.34-3.55,1.75-.85,4.53-2.22,2.23-4.41a20.71,20.71,0,0,0-4.2-2.91c-1.7-1-4.79-2.21-5.47-4.3a2.69,2.69,0,0,1,.22-2.42c.39-.69,3.94-3.45,1-4.16-1.3-.31-2.26-1.53-1.13-2.79,7.29-8.16-8.32-3-7.87-7.83.17-1.77,1.73-2.55,3.3-3,.62-.19,1.26-.36,1.88-.56,1.43-.47,0-1.64-.86-1.84a5,5,0,0,1-2.67-1.13,1.78,1.78,0,0,1,.1-2.91,59.93,59.93,0,0,0-13.45,2.62c-3,1-6.08,2.1-9.11,3.29-1.55,1.11-3.13,2.2-4.58,3.44-.68.59-4.75,5-1.58,3.93.76-.26,5.59-2,5.16.43-.25,1.36-1.38,2.38-2.29,3.34-.31.34-3.07,2.88-.25,2.55a28.28,28.28,0,0,1,3.43-.26c.29,0,.58.19.45.52a5.46,5.46,0,0,1-1.24,1.81,24.86,24.86,0,0,0-2.5,2.42c-1.41,1.87,1.74,1.62,2.25,1.59,1.45-.09,2.88-.31,4.33-.37s3.78.19,4,1.84c.08.75-1,1.63-1.39,2.07-1.71,1.83-2.36,3.68,0,5.2,2,1.28,3.48,2.45,3.53,5,0,.94-.6,1.81-.76,2.71-.55,3.2,2,3.11,3.8,3.64a5.28,5.28,0,0,1,3.2,2,4.3,4.3,0,0,1,.74,3c-.24,1.51-1.59,4.74-.22,5.86,2.13,1.73,13.49,1.76,7.57,6.63-4.37,3.6,1.94,2,3.37,3.65a1.7,1.7,0,0,1,.41,1.51c-.43,2.33-.08,1.91,2,2.34s.86,2.27.06,3.54c-1.11,1.79-4.41,4.5-2.06,6.7,1.36,1.26,3.14,1.6,4.87,2.07,2.27.62,5.29,1.44,5.69,4.14.18,1.3-.94,3.16,1.32,3.63a2.08,2.08,0,0,1,1.7,1.64c.18.57-.4,1.27-.78,1.6-.67.58,3.21,3.51,3.53,3.84a6,6,0,0,1,1.89,3.29c.13.69.17,1.58.24,2.45a.85.85,0,0,1,.36-.17.63.63,0,0,1,0-.21c0-.39,0-.78,0-1.17,0-.65-.1-1.31-.17-2a17.49,17.49,0,0,1-.21-2.89C552.52,179.51,556.38,177.65,554.41,175.28Z"/><path class="cls-6" d="M548,88.69c1.11.74,3.35,1.84,3.32,3.47,0,1.18-1.31,1.93-2.16,2.48-2.2,1.41,3.33,3.59,3.79,4.4,1.13,1.94-.44,4.09,2,5.53a17.77,17.77,0,0,1,6.17,5.58c2.33,3.6,2.38,5.35-.48,7.76,1.17.77,3.62,1.94,3.17,3.47-.9,3,.29,3.74,2,5.83,1,1.21,2,2.73,1.08,4.36A5.78,5.78,0,0,1,565.9,133c-2.16,2.05-1.42,4,.86,5.38,3.19,1.89,7.68,5.63,6.58,9.81-.38,1.45-3.38,3.35-1.2,5.12a12.78,12.78,0,0,1,2.45,2c.76,1,1.88,3.05,1.51,4.38-.5,1.82,1.72,1.46,1.68,3.45a1.24,1.24,0,0,1-.28.68c-1.18,1.45-.26,3.65.57,5s2,3,1.83,4.68c-.24,2.34-2.32,4.64-2.21,6.87.15,3,3.46,4.74,4.35,7.46a6.24,6.24,0,0,1-.34,5.22c-.42.74,1.21,1.83,1.43,2.31.09.18.15.33.22.49a4.1,4.1,0,0,1,1.51-2.25,2.62,2.62,0,0,1,.57-3c2.77-3.35-2.74-3.94-2.16-6.13.73-2.69,6.88-2.94,5.11-6.82-1.16-2.54-4-4.49-3.57-7.5.2-1.33,1.24-2.51,1.87-3.64,1.15-2,.56-3.91-.18-6a6.49,6.49,0,0,1-.5-4.36c.5-1.81,3.13-3.77,1.33-5.74-1.5-1.64-3.08-2.94-2.44-5.41,1.09-4.21,4.09-7.75,1.92-12.25-1.08-2.23-3.7-5.45-2.92-8.11s.16-2.64-1-4.63c-.22-.39-.87-1.22-.75-1.77.49-2.24.16-2.88-1-4.59-.43-.62-.23-1-.08-1.71s1-1.08,1.46-1.41c1.37-.89.88-2.13.48-3.28a1.83,1.83,0,0,1,1-2.24c.87-.52,4.65-1.73,3.29-2.62a12.58,12.58,0,0,1-1.75-1.24c-.8-.77-1.63-2.23-.71-3.27a2.82,2.82,0,0,1,.83-.58c-2.71-1.3-5.44-2.52-8.22-3.61a147.85,147.85,0,0,0-28.74-8.46C547.14,85.91,546,87.33,548,88.69Z"/><path class="cls-6" d="M602.28,115.55c-2.63,2.21,1.22,3.81,2.37,5.85.86,1.52,0,3.13-.61,4.51-.9,2.14,1.66,5.08,2.54,6.87a17.91,17.91,0,0,1,1.69,5c.37,2.25-.39,3.53-1.68,5.19-1.78,2.31,2.26,6.3,1.27,9.23-.71,2.07-1.07,3.63-.25,5.77a4.43,4.43,0,0,1,.17,2.94c-.37,1.78-3.12.08-1.87,3.77a27,27,0,0,1,1.47,4.81,5.56,5.56,0,0,1-1.21,4.79c-.64.82-2.86,1.95-2.77,3.14s.83,2.55,1.13,3.85c.69,3-.58,4.3-1.35,7.06-.41,1.46.54,3.1.08,4.44-.4,1.15-2,3-1.82,4,.36,2.56,2.51,4.36,3.16,6.84a4.31,4.31,0,0,1-1.31,4c-1.6,1.14-2.86,2.19-1.45,4.23a11.73,11.73,0,0,1,1.15,1.94h0c.17,0,.4.05.45.25a7.71,7.71,0,0,1-.37,5c-.72,1.84-1.28,3.35.79,4.45s3.74,2.93,2.41,5.28c-.91,1.57-2.32,3.58-1,5.36.18.24.37.47.57.7a37.8,37.8,0,0,1,2.7-3.62c1.95-2.8-1.31-3.48-.73-5.71a3.51,3.51,0,0,1,1.6-2,2,2,0,0,1-.32-2.84c1-1.4,4-3.57,3.22-5.59a13.46,13.46,0,0,1-1.13-2.8,5.74,5.74,0,0,1,.94-4.42c1.4-1.93,4.54-3.72,5.07-6.07.6-2.64-1.62-4.4-.66-7,.68-1.81,2.61-2,1.94-4.14a3.73,3.73,0,0,1,.28-3.57c.66-.79,1.6-.36.7-2.18a6.92,6.92,0,0,1-.82-2.72c-.12-1.45,1.76-2.85,2.71-3.6,4.43-3.51,1-5.36,0-9a7.26,7.26,0,0,1,.81-5.59,7.32,7.32,0,0,0,.68-5.7,5.13,5.13,0,0,1-.26-2.09c.35-1.73,1.25-2.48,2.68-3.42,2.54-1.69-.73-4.78-.69-7,0-1.67-.07-3.55.75-5.07a17.55,17.55,0,0,1,1.86-2.18c1.62-2.07-.54-3.49-1.63-4.64-.3-.32.16-.79.4-.95a26.35,26.35,0,0,1,4.83-2.22c-1.32-1.7-5.26-3.35-3.43-5.5,2.3-2.69,8-2,11.89-1.81-3.9-2.53-10-2.39-12.77-6.26-.55-.77-.45-1.32,0-1.75-3.42-1.32-6.85-2.64-10.27-4-4.76-1.89-9.6-3.53-14.28-5.62l-.08,0a27.75,27.75,0,0,0-3.65,0C600.24,108.55,605.86,112.55,602.28,115.55Z"/><path class="cls-6" d="M644.89,125.29a5.73,5.73,0,0,1,1.58,1.74.66.66,0,0,1-.24.84c-.41.29-3.2,1.64-2.45,2.24,1.52,1.24,2.91,1,4.62,1.52s2.82,1.16,2.89,3c0,1-2.75,3.6-1.61,4.18,3.1,1.59,6.68,1.3,9.55,3.34.29.21.17.54,0,.78-2.59,3.6,2.69,4.24,5.33,4.92l1.39.34c-.19-1-2.18-1.59-2.72-2.79-1.15-2.58,2.89-3.64.31-7.19-1-1.41-.37-2.71.48-4.07.61-1,1.57-1.24-.33-2.26a22,22,0,0,1-2.54-1.43,1.79,1.79,0,0,1-.33-2.4,4.13,4.13,0,0,1,2.48-1.64c-6.21-1.2-12.17-2.6-17.78-4.14C644.27,123,643.3,124.06,644.89,125.29Z"/><path class="cls-6" d="M682.59,130c.34.27.13.68-.15.92-.7.63-3.2,1.53-1.75,2.78.92.78,1.91.86,2.85,1.43a.87.87,0,0,1,.19.23,1.46,1.46,0,0,1,.74,1.81c-.55,1.53-1,2.9,1.13,3.44a4.57,4.57,0,0,1,1.89.72c1.33,1.26.68,2.75-.43,3.89-1.87,1.94,1.58,1.69,2.87,1.68a7,7,0,0,1,1.93.26c.58-1.55,2-2.84,2.88-4.5,1.41-2.68-1.15-2.57-1.11-4.66a2.23,2.23,0,0,1,1-1.66c1.18-.8,5.05-1.93,3.75-3.44a1.74,1.74,0,0,1,0-1.9,3,3,0,0,1,.61-.73,209.45,209.45,0,0,1-22.86-1.78,12.26,12.26,0,0,0,3.17.59A5.83,5.83,0,0,1,682.59,130Z"/><path class="cls-6" d="M714,134.42a15.86,15.86,0,0,1-2.4,1.87c1.48.48,3,.63,4.53,1.06a2.9,2.9,0,0,1,2.31,2.72c.05,1.22-3.39,2.44-1.43,3.52a25.49,25.49,0,0,0,5.69,1.81,27.06,27.06,0,0,1,3.54,1.08,17.91,17.91,0,0,1,2-1.39c-3.08-1.66,1.13-3.45,3.32-4.63-2.42-1.36-10-4.18-4.64-6.63,1.55-.71,2.57-2.33.76-3.53a.75.75,0,0,1-.1-.92,4.21,4.21,0,0,1,.55-.76,178.5,178.5,0,0,1-18.47,1.59C712,131,716,132.55,714,134.42Z"/><path class="cls-6" d="M661.81,165.84a7.53,7.53,0,0,1,3,1.28c-.2-.42-.41-.85-.62-1.27a21,21,0,0,0-1-1.93.36.36,0,0,1-.26-.22c-.12-.29-.29-.57-.42-.85a32.27,32.27,0,0,0-2.52-3.27l.39,0a60.18,60.18,0,0,0-7.17-7c-2.48-2.19-5.21-4-7.79-6.06-1.16-.92-2.24-1.93-3.38-2.82a16.46,16.46,0,0,1,2.2,3.68c.2.48-.51,1-.93.94-1.8-.27-3-.4-1.41,1.76.22.32.78,1,.74,1.42a3.18,3.18,0,0,1-1.11,2.17c-1,.91-2.57,1.06-3.76,1.55-4,1.64-.69,5,.48,7.13a5.19,5.19,0,0,1,.14,5.21,7.85,7.85,0,0,1-1.53,1.89c-.77,1.7-1.17,3.09,0,5s1.94,3.49,1,5.6c-1,2.41-3.2,3.09-2.21,6.38.42,1.4,1.21,3.07,1.15,4.57a11.16,11.16,0,0,1-3,7.29c-1.16,1.32-5.07,3.7-4.19,5.82.53,1.27,1.56,2,2.35,3.09,1,1.34,1.49,2.9.3,4.35a3,3,0,0,1-1.72,1c-2.06.4-.63,1.72-.31,2.76a2.22,2.22,0,0,1-1.3,2.48c-1.7.49-4.9.93-3.38,3.8a31,31,0,0,1,2,3.56c.57,1.57.74,3.64-.58,4.91-2,2-8.24,3.37-4.91,7.34,1.13,1.36,2.82,2.9,2.8,4.83a3.38,3.38,0,0,1-.76,2.45c-.77.81-3.53,2.54-1.12,3.91,1.76,1,2.34,2.36,1.34,4.22-1.48,2.76-1.78,4-.28,6.45a5.67,5.67,0,0,1,.93,2.37,5.53,5.53,0,0,1-.84,3,36.22,36.22,0,0,0,4-7.81c1.12-3.49.59-6.37.55-9.87,0-1.82.2-3.87,1.52-5.27a13.6,13.6,0,0,1,2.53-2.14c1.88-1.25,2.7-2.11,1.5-4.21-2.68-4.72,4.25-5.73,3.5-10.12-.47-2.76.18-4.4,2.66-4.79l-.12-.42c-.12-.44.39-.91.79-.95,4.56-.36,5.36-4,3.74-7.56-.66-1.43-2-3.37-1.71-5.05a5.88,5.88,0,0,1,3.84-5.1c1.76-.58,5.86-1,4.66-4a3.69,3.69,0,0,1-.25-2.87c.5-1.55,2.48-2,3.85-2.23s-.79-5.07-.79-6a2.88,2.88,0,0,1,.84-2.15c1.81-2.14,5.37-1.06,3.26-5.13-.73-1.42-3-4.24-1.58-5.91,1.22-1.47,3.37-1.17,5.19-1.09-.58-1.85-1.56-3.45-1.19-5.49A.92.92,0,0,1,661.81,165.84Z"/><path class="cls-6" d="M670.19,233.34c-.41-4.79-.85-9.55-1.36-14.32-.49-.68-1-1.36-1.52-2-1.63-1.92-4-4.9-3.71-.27a36.4,36.4,0,0,1,.34,6.51c0,.39-.64,1.06-1.09.76-3.49-2.37-3.25,2.13-3.57,4.49a5.4,5.4,0,0,1-.54,2c-.81,1.43-.25,2.26-.24,3.73,0,.9-.57,2.48-1.72,2.52s-2.22-.88-3.14-1.77c.27,2.81,1.27,6.26-.11,8.51a6.83,6.83,0,0,1-2.2,2.34c-3,2-.79,3.25-1.54,5.47-.81,2.42-5.23,4.18-5,6.77.29,2.83,1.68,5.18-.44,7.57-1.38,1.55-3,2.2-2.55,4.91a3.25,3.25,0,0,1-.07,2.09,4,4,0,0,1-1.84,2.09c-2.64,1.47-3.25,2.58-3.68,5.49-.36,2.33-1.09,4.25-3.06,5.62a4.86,4.86,0,0,1,1.73-.33c3.37,0,4-2.79,6.52-4,2.12-1,2-3.14,3.53-4.74a2.08,2.08,0,0,1,2-.66c2.2.77,2.11-3.14,2.54-4.37.54-1.56,1.44-2.48,2.88-2.14.75-2.07,1.14-4.74,3-6,.83-.57,4-1.53,4.12-2.23a18.91,18.91,0,0,1,.62-3c.25-.74,1.58-2.15,2.53-1.86,4.26,1.31,3.68-2.74,3.6-5.25-.08-3.19.51-6.44,4.3-6.65h0A88.41,88.41,0,0,0,670.19,233.34Z"/><path class="cls-6" d="M754.59,139.31a12.1,12.1,0,0,1,1.07-.64c1-.57,2.14-1.06,3.14-1.69,1.81-1.14-.11-1.67-.73-2.47s-1.71-2.42-.54-3.27,4.34-3.07,1.56-3.81a19.19,19.19,0,0,1-2.13-.6c-1.32-.54-2.16-1.32-2.12-2.81a2.29,2.29,0,0,1,.56-1.41c-3.57,1-7.19,2-10.9,2.9l-.24.16c-1,.8-2.24,1.39-.51,1.93s2.88,1,3.18,2.79c.18,1.16-2,4.13-1.23,4.79S755.14,137.26,754.59,139.31Z"/><path class="cls-6" d="M773.67,118.91a15.27,15.27,0,0,1,2.44.06c3.06.53,3.14,3.1,1.55,5.34-1.93,2.71,4.05,1.73,5.45,1.58a.55.55,0,0,1,0-.47c1.7-2.52,4.56-3.35,6.9-5-2.14.28-5.47.85-5.55-1.42s4.63-3.63,5.94-4.79-3-1.1-3.2-1.34a1.92,1.92,0,0,1-.28-2.3c-4.09,2-8.28,3.82-12.62,5.55C773,117.27,771.22,118.93,773.67,118.91Z"/><path class="cls-6" d="M803.45,106.52c.66.15.52,1.12.37,1.57-.07.21-1.94,4.81-.83,4.56.59-.13,1.17-.33,1.76-.45a3.64,3.64,0,0,1,3,.41,2.34,2.34,0,0,1,.61,2.85,20.84,20.84,0,0,1-1.46,2.3c-.5,1-.43,1.66-.06,2a7.84,7.84,0,0,1,1.54-2.43c1-1,6.53-5.23,4.67-6.26-3.52-2,6.24-7.16,2.2-8.6-2.18-.78-4.57-.18-3.25-3.34a13.29,13.29,0,0,1,1.84-2.82c.77-1.07.64-1.41.3-1.7-3.88,2.73-7.92,5.36-12.12,7.85a18,18,0,0,0-1.74,2C798.07,107.55,802.23,106.24,803.45,106.52Z"/><path class="cls-6" d="M437.67,133.87c.56-.18,1.12-.34,1.7-.47a2.89,2.89,0,0,1,1.86.07c1.65.87.14,3.09-.33,4.13-.6,1.31-1.88,5,.6,5.17a18.53,18.53,0,0,1,2.36.27c.94.2,2.37,1.34,2,2.46-.5,1.67-1.64,2.73.54,4.5a4.52,4.52,0,0,1,1.82,3c.36,2.42-.6,5.09,2.14,6.41,2.15,1,4,1.23,4.57,3.74.24,1-.31,2.46.16,3.38s1.67,1,2,2.05-.75,2.64-.83,3.43c-.18,1.67.69,1.52,1.87,2.12s3.31,1.58,2.95,3.36c-.26,1.33-1.05,2.78-.36,4.13,1,2,3,1.66,4.82,2.13s3.44,1.42,3.69,3.5-.11,4.31,3.49,4.31a2.83,2.83,0,0,1,.91.14,3.12,3.12,0,0,1,1.82,1.6c1.91,3.36,4.41,3.24,7.76,4.11a5.89,5.89,0,0,1,1.09.39l-.05-.05c-.71-.44-2-1.11-2.13-2a8.45,8.45,0,0,1,.13-2.88c.65-3.87-1.52-2.05-2.79-3.34-2.21-2.24-.35-6.24-3.52-7.55-1.72-.71-2.88-2.28-2.14-4.22s1.51-4.1-.78-5.3a8.5,8.5,0,0,1-2.89-2,4.73,4.73,0,0,1-.83-4.35c.59-1.95,1.87-3.61,2.47-5.54,1.14-3.67-3.91-1.89-5.89-2.38-1.35-.33-1.39-2.15-.94-3.14.31-.66,2.82-4.77,1.63-4.94a2.91,2.91,0,0,1-1.56-.57c-1.72-1.55-2.06-2.77-.84-4.75,2.35-3.85.65-4.66-1.3-7.59a5.7,5.7,0,0,1-.13-5.27c.92-2.14,3.07-5.48.82-7.53-.92-.85-2.36-1.49-3.11-2.54-2.19-3.08-.33-5.16,1.33-7.47-.81.54-1.64,1.07-2.43,1.62-6.93,4.79-13.61,10.16-20.66,14.83C438.21,131.67,436.88,134.11,437.67,133.87Z"/><g class="cls-7"><path class="cls-8" d="M323.48,336.53c-6.06-5.84-12.9-10.66-18.4-17.07a65.62,65.62,0,0,1-11.64-18.69c-2.63-6.83-4.45-13.7-6.58-20.67,0-.05-.11,0-.1.06,1.39,7,1.81,13.89,4.48,20.65a66.77,66.77,0,0,0,11.06,18.08c5.12,6,11.18,10.75,17.11,15.87a35.43,35.43,0,0,0-7.81-.54c-5.63,0-11.1-.38-16.7-.91-11.57-1.11-22.75-6-32.46-12.2-8.75-5.62-18.64-12.2-23-22.1-2-4.6-4.15-9.09-6-13.77-1.21-2.39-2.32-4.83-3.3-7.33a28.11,28.11,0,0,0-4,11.12,25.39,25.39,0,0,0,0,5.23c0,.85,0,1.69,0,2.54-4-6.57-4.89-15-5.62-22.47a57.5,57.5,0,0,1-.19-11,38.44,38.44,0,0,1,1.32-10.61,5,5,0,0,0-.36.48,18.58,18.58,0,0,0-2,5.32c-1.63,2-3.76,3.56-5.28,5.74a11.57,11.57,0,0,0-1.26,2.45,35,35,0,0,1,6.74-18.95,0,0,0,0,0,0,0,27.33,27.33,0,0,0-4,4.14,18.26,18.26,0,0,0-9.66,9.29c-.16.23-.34.45-.5.7-.1-4.76,2.35-9.8,4.81-13.63a32.91,32.91,0,0,1,5.15-6.14c.54-.5,1.13-1,1.72-1.45a31.05,31.05,0,0,0-3.74,2.31,3.73,3.73,0,0,1-.3.26,28.6,28.6,0,0,0-5.3,6.46,32.17,32.17,0,0,0-3.4,7.46,23.08,23.08,0,0,0,1,6.22,1,1,0,0,0,.11-.23,7.5,7.5,0,0,1,.38-1.16,22.7,22.7,0,0,1,4.25-5.16c.71-.59,1.38-1.24,2.09-1.84.46-.3.92-.59,1.37-.85s.55-.32.78-.44a24.51,24.51,0,0,0-2,4,19.73,19.73,0,0,0-.48,12.19,14.14,14.14,0,0,1,.67-1.45c.44-.78.91-1.54,1.42-2.27a16.9,16.9,0,0,1,2.93-4.15c.73-.74,1.5-1.32,2.18-2a39.69,39.69,0,0,0-.73,12.63c.82,8.86,2.14,18.79,8.11,25.85a.28.28,0,0,0,.15.08,2.27,2.27,0,0,0,.82.92l0,.09c.11.32.53-.11.53-.32-.11-5.44-.06-10.53,1.44-15.82.23-.81.48-1.65.76-2.5l.05-.12c.23.93.49,1.86.77,2.8a89,89,0,0,0,6.63,16.69c4.87,9,12.59,15.91,21.33,21.14a153.89,153.89,0,0,0,15,7.92,73,73,0,0,0,15.3,4.69,80.56,80.56,0,0,0,16.92,1.55c4.7,0,10.77.23,15.5.73,6.23,5.48,11.12,11.39,18,16.1.11.08-1.55-1.41-1.66-1.49C332,346.36,328.9,341.75,323.48,336.53Z"/><path class="cls-3" d="M397.61,303.83c-4.32-6.05-8.63-12.14-13.16-18a92,92,0,0,1-7.2-10.05c-1.55-2.69-.89-6.38-2.51-8.93,0-.06-.13,0-.1.08,1.38,2.59.94,6.49,1.8,9.32a25.77,25.77,0,0,0,4.43,7.68c4.94,6.59,9.67,13.32,14.53,20,4.69,6.41,8.75,13.31,13.25,19.86a123.66,123.66,0,0,1,11,18.84c.09.21.45-.05.4-.23a64.52,64.52,0,0,0-9.06-18.7C406.55,317,402.23,310.29,397.61,303.83Z"/><path class="cls-3" d="M521.62,203c3.33-2.66,7-4.25,10.59-6.32,0,0,0-.06,0,0-1.93.83-4,1.24-5.92,2.11a39.25,39.25,0,0,0-6.15,3.79,26.58,26.58,0,0,0-5.23,4.92c-1.07,2.05-2,4.2-2.94,6.38a1,1,0,0,0,.31-.17c2.48-2,6.09-3.25,9.62-3.94a44,44,0,0,0-6.35,5.63c-4.69,4.81-8.15,10.54-11.61,16.27-6.83,11.31-10.67,24.1-12.46,37.12,0,.26.31.1.34-.07a146.75,146.75,0,0,1,12.61-34.21,107.91,107.91,0,0,1,8.4-13.44c2.46-3.4,6.56-8.5,11-10.8,1.16-1,2.37-1.92,3.61-2.84a28.06,28.06,0,0,0-12.73,2.9A39.45,39.45,0,0,1,521.62,203Z"/></g><path class="cls-3" d="M315.13,506c-2.64,1.67-4.59,4.44-6.17,7.09-3,5-3.54,11.89-.37,17,.05.09.17,0,.14-.1-1.85-4.74-1-9.61.74-14.31a22.38,22.38,0,0,1,4-6.46c1.27-1.56,4.17-5.32,6.53-4.76,0,0,0,0,0,0C318.79,503.81,316.13,505.38,315.13,506Z"/><path class="cls-3" d="M327.2,510.42c-3.35,2.25-5.23,5.43-6.54,9.19-.93,2.69-2.61,8-.85,10.54.15.2.41-.06.41-.24-.1-6.71,1.77-14.44,7.42-18.6,6-4.4,15.21.81,20.47,4.12,0,0,.07,0,0-.06C342.63,511.18,334,505.88,327.2,510.42Z"/><path class="cls-3" d="M573.27,511.89c-6.06,1.64-11.47.45-17.47-1.05-3.65-.92-7.14-1.47-10.51.53-3.57,2.09-6.66,7-8.36,10.67-.79,1.73-2.95,6.76.09,7.75,0,0,.08,0,0-.06-3.42-2.64,2.94-11.1,4.7-13.34s3.76-4.44,6.59-4.94a15.7,15.7,0,0,1,6.63.72c6.38,1.76,12,2.45,18.29,0C573.38,512.1,573.44,511.84,573.27,511.89Z"/><path class="cls-3" d="M527.74,513.87c-3.1,4.15-4.73,11.46-.34,15.17.12.09.31-.12.22-.24-3.16-4-1.6-9.42.51-13.57,1.77-3.47,7.94-8.58,11.93-8.74,0,0,0,0,0,0C535.52,505.4,530.2,510.59,527.74,513.87Z"/><path class="cls-9" d="M883.36.81c-.53-1-1.1-.95-1.64-.42-.34,2-.77,4.08-1.28,6.08-3.44,13.4-9.23,26.27-14.78,38.9a127.62,127.62,0,0,1-10.2,19.4A145.78,145.78,0,0,1,843.29,80.2a170.43,170.43,0,0,1-62,45.17,198.36,198.36,0,0,1-42.23,12,392.74,392.74,0,0,1-42.83,5.38c-13.17.88-27.16.48-38.89-6.31-6.28-3.63-11.66-8.42-17.51-12.66-3.32-2.4-6.79-4.62-10.09-7.06q-6.74-2.57-13.45-5.23c-4.76-1.89-9.6-3.53-14.28-5.62-3.64-1.62-7.22-5.38-11.15-6,0,0,0,0,0,0a11.8,11.8,0,0,1,4.38,2.52,139,139,0,0,0-17.85-8.65c-19.32-7.57-41.26-13.45-61.69-6.85a161,161,0,0,0-28.54,12.35c-9.38,5.26-18.93,10.64-27.77,16.78s-17.24,13.15-26.53,18.49c-14.55,4.05-29.05,8.3-43.68,12-14.13,3.58-28.44,5-42.8,7.19a98.09,98.09,0,0,1-23.29.4c-2.2-.19-4.59-.35-6.91-.66-1.22-.55-2.45-1.1-3.67-1.67-7.64-3.6-15.58-6.49-23.2-10.11-7.86-3.73-15.49-8-23-12.49-7.17-4.26-14.1-8.91-21.25-13.18-6.75-4-13.77-7.46-20.21-12-6.07-4.33-12.57-8-18.29-12.83-3.31-11.28-6.59-22.55-11.88-33.14-4-8.09-8.25-16.1-13.87-23.22A34.71,34.71,0,0,0,172.67,27c-.53-.31-1.13-.66-1.76-.95-3-2.15-6.52-1.54-7.28,3.58-1.7,11.46.36,22.81,2.41,34.07,2.17,12,5,23.72,7.76,35.52.34,1.47.66,3,1,4.43a167.44,167.44,0,0,0-18.23,21.89c-8.39,11.86-17.83,24.2-22.46,38.11-1.83,5.52-3.27,10.77-1.53,16.52a6,6,0,0,0,1.73,2.7,23.92,23.92,0,0,0-2.55-.24c-.07,0-.13.14-.05.14a19.38,19.38,0,0,1,3,.4,11.85,11.85,0,0,0,6.25,2.13c1.06.46,2.1.94,3.13,1.41,3.71,1.71,7.46,3.35,11.18,5.05a106.58,106.58,0,0,1,10.64,6.08A101.68,101.68,0,0,1,178,206.39c3.46,2.85,7.13,5.41,10.44,8.43s7.28,5.92,9.71,9.66c.09,1.29.16,2.58.14,3.88-.07,4.09-.73,8.17-1.2,12.23-.88,7.88-.92,15.81-1.85,23.67a117,117,0,0,0,.05,25.92c.85,7.83,2.41,15.43,6.36,22.32.43.76,1.52-.19,1.42-.83a33.56,33.56,0,0,1-.33-7.22,35.67,35.67,0,0,0,4.4,10.57,92.15,92.15,0,0,0,10.39,12.92c4.16,4.43,7.91,9.34,11.8,14s7.79,9.2,11.71,13.77,6.62,9.71,10,14.55a39.37,39.37,0,0,1,5.42,11.4c.05,1.07.07,2.17.07,3.35,0,7.47-2.7,13.52-5.72,20.23-5.63,12.53-10.73,25.31-16.44,37.79-5.27,11.53-9.81,23.58-15.92,34.72-4.28,7.83-10.28,15.75-17.63,21.5-1.18-.36-2.36-.72-3.51-1.14a10.6,10.6,0,0,0-6.33-.16,18.83,18.83,0,0,0-2.77-2.12c-1.5-.92-4-.94-5.61-1.47s-2.64.06-4.3.42a18.37,18.37,0,0,0-3.38,1,6.19,6.19,0,0,0-.83-.51,7.7,7.7,0,0,0-5.76,0,22.36,22.36,0,0,0-11.6,10c-1.27,2.38-3.89,9-1.49,11.41,2.81,2.84,6.48,3.07,10,2.2,2.86,2.75,8.36,2,12.72.49,1.35,2.23,5.28,1.72,7.46,2,4.91.57,9.92.08,14.85.21,8.48.23,16.3.22,23.54-4.76,2.52-1.72,6-4.38,6.69-7.6a16.22,16.22,0,0,0,.44-5,96.88,96.88,0,0,1,8.23-15.89c3.42-5.5,6.62-11.49,10.57-16.6s7.27-11.24,11.1-16.7c4.38-6.21,8.77-12.4,13.1-18.64,8.07-11.66,16.75-22.9,25.31-34.19,2.14-2.83,4.29-5.62,6.7-8.23,1.75-1.89,3.71-3.38,5-5.67a16.15,16.15,0,0,0,1.68-9.45c.11.18.22.36.32.54.6,1,.51,2.24,1.11,3.25.34.56,1.11-.07,1.17-.54a65.89,65.89,0,0,0,.82-9.81,15.1,15.1,0,0,1,1.37,6.11c0,.88.87.78,1.34.31,1.18-1.17,1.16-2.66,1.71-4.21,1-3,2.24-5.95,3.48-8.84s2.5-5.87,3.68-8.84c1-2.45,2.37-6.81,4.55-8.53a2.15,2.15,0,0,0,.73-1.07c4.77,3.95,9.6,7.81,14,12.14,7.54,7.35,15.14,15.28,21.1,24,3.43,5,6.37,10.08,8.06,15.94.06.19.1.38.16.57a39,39,0,0,1-.91,6.7c-1.22,5.72-3.17,11.31-4.72,16.95-2.72,9.83-5.56,19.67-7.85,29.61-2.41,10.48-5.31,20.94-8.73,31.13-3.29,9.8-7.17,19.33-14.92,26.28-.45-.24-.91-.47-1.38-.68a10.6,10.6,0,0,0-5.33-.6,15.91,15.91,0,0,0-13.83-4.84,10.8,10.8,0,0,0-7.56-1.77c-5.52.87-8.73,5.14-11.11,9.85-1.76,3.5-3.93,9.9-2.31,13.77,1.55,3.68,6.67,4.81,10.41,3.86a11.32,11.32,0,0,0,5.85.77,30.06,30.06,0,0,0,5.45-1,5.6,5.6,0,0,0,2.37.94A88.08,88.08,0,0,0,335.69,532a66.16,66.16,0,0,0,13.48-1.13c4.55-.91,9.19-1,13.62-2.63,1.45-.53,5.89-1.63,5.32-4.11-.36-1.6-1.18-3-1.59-4.67-.34-1.41-.65-2.83-1-4.26A12.8,12.8,0,0,1,366,510a75.41,75.41,0,0,1,3.87-8.43c2.83-6,5-12.33,8.16-18.22,5.31-9.91,9.35-20.64,13.66-31,2.34-5.63,4.92-11.14,7-16.87s4-11.68,6.21-17.46c2.3-6,4.28-12,7.13-17.73s5.09-11,9.7-15.39a1.2,1.2,0,0,0,.27-1.48,6.91,6.91,0,0,1,3-.24,1.53,1.53,0,0,0,1.49-1.61,17.74,17.74,0,0,0-.63-2.27c-.24-2.52-1.67-5.26-2.68-7.23a17.49,17.49,0,0,0-2.71-4,26,26,0,0,0,3.2,1.14.63.63,0,0,0,.73-.78,17.84,17.84,0,0,0-4.8-7.5c.64.28,1.28.56,1.88.86,1.51.74,2.59,2.15,3.84,3.23.53.46,1.4-.36,1.28-.94a112.66,112.66,0,0,0-5.95-20.75c-.8-2-1.63-4-2.59-5.95a79.72,79.72,0,0,0,14.24-.56c1-.09,2.69,0,3.33-1.06a2.31,2.31,0,0,0,.41-1.39,11.84,11.84,0,0,1,.69-5.16c2.08-7.05,4.25-13.34,8.09-19.7a101.39,101.39,0,0,1,28.4-30.3A122,122,0,0,1,492,268.38a143.75,143.75,0,0,0-3.66,20.44,106.86,106.86,0,0,0,2.2,33.59,85.73,85.73,0,0,0,11,28.28,8.29,8.29,0,0,0,3.29,2.59,69.45,69.45,0,0,1,7.4,5c4,2.94,9.62,6.39,12.42,10.55.34.51,1.08-.18.91-.65-1.1-2.89-2.19-5.72-3.11-8.64a2.39,2.39,0,0,0,.13.21,62.12,62.12,0,0,0,4.54,6c2,2.3,4.6,4,6.38,6.49.41.55,1.13-.13,1.1-.64a13.43,13.43,0,0,0-1.23-4,42.06,42.06,0,0,0,7.88,7c9.45,6.51,19.5,12.11,29.43,17.86s20.48,11,29.36,18.31a38.86,38.86,0,0,1,12.46,17.85,19.17,19.17,0,0,1-.81,4.37,68.61,68.61,0,0,1-5.42,12.44c-4.69,8.22-9.25,16.44-14.42,24.4s-10.82,15.4-16.25,23.09a66.7,66.7,0,0,1-10.35,11.71c-2.88,2.48-6.78,5.68-10.76,5.76-.77-.22-1.53-.45-2.3-.75-4.37-1.7-8.88-3.88-13.61-3.28a14.69,14.69,0,0,0-8.92-1.65c-4.24.46-7.36,4.52-9,8.07s-3.48,9.07-1.46,12.87c1.34,2.52,4.46,3,7.49,2.58,1.88,1.83,4.26,2,6.84,2.06a9,9,0,0,0,3-.54c1.4,1.11,4.09,1,5.64,1.37A71,71,0,0,0,557,532.27c4,0,8-.18,12-.47,4.24-.32,9-.41,13-2.12,2.47-1.08,3.44-4.09,4.37-6.41q.48-1.2.9-2.4a.54.54,0,0,0,.19-.24,66.65,66.65,0,0,1,5.05-11.51c2.44-4.1,4.87-8.11,7.62-12,5.13-7.34,10-14.9,15.17-22.19,5.34-7.46,10-15.32,15.35-22.81,2.77-3.91,5.69-7.71,8.7-11.43,1.26-1.57,2.42-3.23,3.71-4.78,1.05-1.26,2.55-3.56,4.08-4.22a1,1,0,0,0,.62-.79,5.87,5.87,0,0,0-.53-3.14,6.43,6.43,0,0,0,1,.54,1.24,1.24,0,0,0,1.52-.8c1.06-2.92-.09-6.31-2-8.88a18.7,18.7,0,0,1,4.42,4.11c.44.53,1.27-.33,1.31-.77a18.59,18.59,0,0,0-1.71-9.16c.4.26.81.51,1.2.79,1.17.84,2.17,2.07,3.45,2.7.52.26,1.28-.5,1.15-1-3.68-14.89-16.26-24.58-26.46-35.25-6.09-6.35-11.85-14.22-11.31-23.41a71.81,71.81,0,0,1,2-12.17c3.36-8.05,7.68-15.82,11.64-23.58,7.67-15,16.19-29.56,24.26-44.35,3.85-7.05,8.27-13.87,11-21.46,2.34-6.43,2-15,1.42-21.68-.69-8-1.43-16-2.51-24a64.12,64.12,0,0,0-2.09-11.17c-.37-1.14-.8-2.29-1.24-3.44a18.49,18.49,0,0,1,2,1.62c1.24,1.18,1.72,2.85,3.22,3.74.45.27,1-.46,1-.86-.83-5.76-1.7-11.24-4.57-16.36-.28-.51-.59-1.05-.91-1.59,1.85,1.4,3.35,3.28,5.3,4.47.37.21.86-.38.8-.72-1.28-6.8-3.95-13-7-19.18a28.25,28.25,0,0,0-4.25-6.27c38,2.26,103.74-7,152-37.57C871.28,84.34,884.81,3.71,883.36.81ZM650.79,198.4c-2.7-1.87-5.33-3.86-8-5.78a47.81,47.81,0,0,1,6.54,10.71c2.12,5.12,2.29,10,1.49,15.42-.91,6.25-2,12.47-4.28,18.38-.09.23-.56.69-.81.37-3.5-4.62-6.85-10.16-11.32-14.16,5.72,8.93,11.34,18.35,12.9,28.86,1.73,11.59-4.82,21.93-10.33,31.6-10.58,18.51-16.72,39.61-29.66,56.68a87.29,87.29,0,0,1-5.32,9.11c-5.79,8.57-12.83,17.86-21.83,23.26-3.93,2.36-8.66,4.18-13.32,3.24-6-1.21-11.68-4.26-16.82-7.5-5.7-3.6-11.07-7.67-16.39-11.8-4.58-3.55-9.28-6.93-12.9-11.53-4.42-5.62-7.08-12.08-9-18.82-.09-.23-.17-.45-.24-.68.3,7.61,2.6,14.89,5.27,22,.11.31-.45.84-.74.62a86.38,86.38,0,0,1-15.35-14.49c-4.84-6-4.77-13.23-4.7-20.65a145.76,145.76,0,0,1,4.08-31.78,41.17,41.17,0,0,0-6.86,13.4c-.07.23-.78.75-.85.28-.75-5,.35-9.89,1.17-14.79.94-5.64,1.94-11.25,3.36-16.8,2.61-10.15,5.8-20.45,10.75-29.73A64.63,64.63,0,0,1,522.32,215a73.19,73.19,0,0,1,20.07-11.93c-7.59-2.18-16.24,1.21-23.37,3.59-.39.13-.56-.27-.3-.55,6-6.38,13.72-9.75,21.5-13.21a79.57,79.57,0,0,0-19,4.59,83.88,83.88,0,0,0-32,22c4.13-2,8.39-4.16,13.07-4,.4,0,.14.53,0,.66-4.44,4-9.24,7.54-13.6,11.61a77.35,77.35,0,0,0-12.63,15.79c-3.81,6.11-7,12.76-11.27,18.59A32.55,32.55,0,0,1,452,272.43c-5.31,2.47-10.93,4.1-16.47,6-4.6,1.57-9.07,3.51-13.66,5.12-8.75,3.08-20.29,7.06-29.48,3.52-10.29-4-9.49-15-9-24.2a62.73,62.73,0,0,0-3.31,14c0,.35-.62.83-.86.4a38,38,0,0,1-4-18c.11-6.22,2.57-12.24,2.38-18.46-6.77,10.9-14.07,24.21-12.33,37.38.94,7.15,4.41,14.3,8.05,20.44A84.77,84.77,0,0,0,386,315.18c.31.31-.37.85-.69.69-2.54-1.25-5.16-2.38-7.75-3.57,8.19,8,15.7,16.55,21.25,26.64,4.16,7.58,3.57,15.68,1.32,23.78-2.38,8.62-6.21,16.7-9.82,24.85-.13.3-.76.56-.82.08C387.43,371.13,378.16,356,367,343.43c4.33,10.13,7.13,20.83,9.71,31.56.08.34-.53.92-.81.56-14.76-19.53-35.34-33.19-53.35-49.42-8-7.26-17.14-15.27-22.18-25a26.86,26.86,0,0,1-2.84-16.56c.78-5.52,2.38-10.92,2.61-16.5-3.57,3.84-5.42,9-7.06,13.88-.08.25-.72.76-.85.29-1.87-6.69-1.39-13.63-1.78-20.48-2.77,14.94-5.15,31.28,4.25,44.15.22.3-.28.83-.6.72-14.71-4.49-31.28-3.74-43.62-14.19-5.24-4.43-8.28-10.14-8-17.13a39.29,39.29,0,0,1,5.13-17.07c-3.37,3.15-5.37,7.52-8.42,11-.16.17-.78.45-.75,0a54,54,0,0,1,1.69-10.8c-7.09,7.18-11.45,15.93-15.48,25.31-.11.27-.64.53-.8.18-4.88-10.7-4.93-23.06.39-33a29.93,29.93,0,0,0-8,6.69c-.13.17-.79.45-.74,0,.66-5.59,4.16-10.81,8.48-14.9a30.87,30.87,0,0,0-13.37,9.27c-.27.33-1,.32-.69-.22a36.27,36.27,0,0,1,12.3-14.46A209.63,209.63,0,0,0,190.17,206c-.22-.18-.1-.48.1-.63,3.16-2.49,6.52-4.72,9.8-7.05-4.6-.31-9.15,1.63-13.68,2.07-.55.05-.24-.58,0-.74,5.27-3.39,11.31-7.58,15.37-12.89a20.23,20.23,0,0,1-6.43,1.35c-.44,0-.33-.46-.09-.66,4.95-4.28,9.76-9,12.86-14.86A41.51,41.51,0,0,0,212.62,154c0-.32.75-.86.86-.38,1.75,7.32,1.74,14.84,2.23,22.32,5.12-13.16,3.36-27.14.9-40.76-.06-.33.54-.94.81-.56a49.57,49.57,0,0,1,7.45,14.76c-.12-10.65-.92-21.65-6.23-31a.5.5,0,0,1,.19-.58c-.08-.16-.16-.32-.23-.49-.13-.32.45-.83.74-.62,29.77,22,60.31,45.37,95.2,58.56a42.22,42.22,0,0,1-6-8.82c-.15-.31.38-.72.65-.65a164.37,164.37,0,0,0,42.51,5.34,152.28,152.28,0,0,0,42.09-6.73c12.67-3.77,25.24-8,37.57-12.83q4-2,7.84-4.23c25.63-14.88,46.43-37.39,73.56-49.9,5.11-2.36,11-1.38,16.37-.54a140.94,140.94,0,0,1,20.89,5c1.32.42,2.64.87,3.93,1.32,2.36.72,4.71,1.47,7,2.29,41.43,14.63,83.69,46.05,90.57,92.26C651.57,198.08,651.13,198.63,650.79,198.4Z"/><path class="cls-9" d="M882,11.59a59.22,59.22,0,0,0,1.41-9.9C883.15,5,882.66,8.32,882,11.59Z"/><path class="cls-9" d="M878.64,25.06a191.93,191.93,0,0,1-18.11,39.33c-6.72,11.39-13.84,22.75-23.41,32-19.83,19.12-46,31.31-71.66,40.45a236.83,236.83,0,0,1-43.9,11.36c-15.81,2.39-31.68,2.67-47.64,2.52-4.15,0-8.31-.15-12.46-.06-2.52,0-5.25.34-7.7-.42-6.37-2-11.44-7.4-16.59-11.39-9-7-18.85-12.91-28.71-18.71l.3.23c6.83,5.38,13.12,11.55,19.72,17.22,11.9,10.22,23,21.58,29.68,36,.15.3-.45.82-.73.61-4.22-3.08-8.94-5.25-13.65-7.44,10.4,8.69,15.89,22.34,18.6,35.35a114.21,114.21,0,0,1,.43,45.67c0,.23-.61.69-.81.37-1.92-3.15-3.49-6.52-5.31-9.72.47,2.29.87,4.6,1.19,6.91.79,5.76,1.15,11.75-.47,17.39-1.87,6.46-5.23,12.08-8.26,18-3.35,6.6-6.82,13.15-10.31,19.68-7,13.11-13.87,26.24-20.26,39.65-5.53,11.61-12.34,25-6.79,37.7a87.08,87.08,0,0,1,1.72-8.77c.07-.23.78-.75.85-.28.71,4.71,2.1,9.37,5,13.21s6.52,6.83,9.68,10.3c6.47,7.1,11.93,14.9,14.49,24.27.1.37-.51.88-.81.56a49,49,0,0,0-7.17-6.14c2.22,4.6,4,9.59,2.93,14.75-1.28,6.18-4.75,11.95-8.4,17-4,5.6-8.65,10.74-13,16.07a182.8,182.8,0,0,0-13.71,18.68c-3.6,5.69-7,11.51-10.39,17.32-2.15,3.88-4.43,7.68-6.49,11.65-2.69,5.2-4.79,11.54-9.18,15.62s-10,3.36-15.57,3.67c-5.21.28-11,1.35-16-.73a.26.26,0,0,1-.12-.32c1.55-4.84,4.11-10.41,9.6-11.61,5.22-1.14,11.14,1,16.2-.51a25.28,25.28,0,0,1-5.5.46c-3.72-.09-7.84-.69-11.18-2.57l-.28,0c-.77-.22-1.53-.45-2.3-.75-4.37-1.7-8.88-3.88-13.61-3.28a12.58,12.58,0,0,0-3.37-1.32,2.26,2.26,0,0,1,.17.35.54.54,0,0,1-.32.57c-6.55,3.18-11.69,7.59-14.28,14.56-.08.2-.59.71-.8.37a7,7,0,0,1-1-3.86c-.85,2.93-1.16,6.13.17,8.62s4.46,3,7.49,2.58c1.88,1.83,4.26,2,6.84,2.06a9,9,0,0,0,3-.54c1.4,1.11,4.09,1,5.64,1.37A71,71,0,0,0,557,532.27c4,0,8-.18,12-.47,4.24-.32,9-.41,13-2.12,2.47-1.08,3.44-4.09,4.37-6.41q.48-1.2.9-2.4a.54.54,0,0,0,.19-.24,66.65,66.65,0,0,1,5.05-11.51c2.44-4.1,4.87-8.11,7.62-12,5.13-7.34,10-14.9,15.17-22.19,5.34-7.46,10-15.32,15.35-22.81,2.77-3.91,5.69-7.71,8.7-11.43,1.26-1.57,2.42-3.23,3.71-4.78,1.05-1.26,2.55-3.56,4.08-4.22a1,1,0,0,0,.62-.79,5.87,5.87,0,0,0-.53-3.14,6.43,6.43,0,0,0,1,.54,1.24,1.24,0,0,0,1.52-.8c1.06-2.92-.09-6.31-2-8.88a18.7,18.7,0,0,1,4.42,4.11c.44.53,1.27-.33,1.31-.77a18.59,18.59,0,0,0-1.71-9.16c.4.26.81.51,1.2.79,1.17.84,2.17,2.07,3.45,2.7.52.26,1.28-.5,1.15-1-3.68-14.89-16.26-24.58-26.46-35.25-6.09-6.35-11.85-14.22-11.31-23.41a71.81,71.81,0,0,1,2-12.17c3.36-8.05,7.68-15.82,11.64-23.58,7.67-15,16.19-29.56,24.26-44.35,3.85-7.05,8.27-13.87,11-21.46,2.34-6.43,2-15,1.42-21.68-.69-8-1.43-16-2.51-24a64.12,64.12,0,0,0-2.09-11.17c-.37-1.14-.8-2.29-1.24-3.44a18.49,18.49,0,0,1,2,1.62c1.24,1.18,1.72,2.85,3.22,3.74.45.27,1-.46,1-.86-.83-5.76-1.7-11.24-4.57-16.36-.28-.51-.59-1.05-.91-1.59,1.85,1.4,3.35,3.28,5.3,4.47.37.21.86-.38.8-.72-1.28-6.8-3.95-13-7-19.18a28.25,28.25,0,0,0-4.25-6.27c38,2.26,103.74-7,152-37.57,41.17-26.1,60.29-72.84,67.67-100C879.26,23,879,24,878.64,25.06ZM545.17,509.3c-4,2.48-6,7.47-9.27,10.73-2.32,2.29-6.48,4.68-9.61,2.33-2.4-1.81.52-6.06,1.72-7.66,2-2.73,4.82-6,8.11-7.27.32-.13.41,0,.38.25a11.23,11.23,0,0,1,8.88.91C545.7,508.78,545.38,509.18,545.17,509.3Z"/><path class="cls-9" d="M491.86,247.11c-.13.27-.81.58-.82.09a41.53,41.53,0,0,1,.95-9.75c-1.11,1.88-2.17,3.78-3.15,5.74a98.62,98.62,0,0,0-6.82,19.3c-1.13,4.23-7.07,6.68-10.6,8.44-6.29,3.14-12.45,6.13-18.13,10.35A67.41,67.41,0,0,0,438.43,296c-1.89,2.65-2.78,5.68-4.53,8.35-.7,1.07-1.7,2.35-3,2.51-6,.72-12.56,1.06-18.3,3.17-2.42.88-7.21,3.43-9.64,1.39-.17.25-.51.42-.72.19-.07-.07-.13-.15-.2-.23a.27.27,0,0,1-.05-.18c-2.48-4.09-6.18-7.38-8.91-11.27-4.18-6-8.33-11.87-11.95-18.2a68,68,0,0,1-7.83-18.94,42.35,42.35,0,0,1-.85-5.57,45.16,45.16,0,0,0,1.11,24.54c2.84,9.07,7.74,16.84,13.47,24.34,11.34,14.85,24.81,29.07,30.51,47.28a.58.58,0,0,1-.74.61c-2.1-1.05-4.15-2.19-6.22-3.29a51.49,51.49,0,0,1,3.12,6.71c2.43,6.16,4.53,13,4.6,19.71,0,.29-.58.8-.82.46a21.78,21.78,0,0,0-6.07-5.33,29.85,29.85,0,0,1,1.17,4.2,18.13,18.13,0,0,1,.41,6.44c-.47,3-2,5.91-3.35,8.56-3.49,6.9-7.44,13.43-10.47,20.56-3.17,7.47-6,15.08-9,22.58-5.84,14.3-12.33,28.32-18.33,42.55-3.16,7.5-6.2,15-8.91,22.74-1.32,3.75-3.21,8.08-3.09,12.13.05,2,.77,4.17.28,6.12-1,3.87-5.38,3.57-7.73,1.1-2.22-2.31-4-4.67-6.71-6.54a21.07,21.07,0,0,0-5.69-2.89c-.28.26-.55.53-.83.78-.45-.24-.91-.47-1.38-.68a10.6,10.6,0,0,0-5.33-.6,15.91,15.91,0,0,0-13.83-4.84,10.8,10.8,0,0,0-7.56-1.77,11.53,11.53,0,0,0-3.42,1.1,10,10,0,0,1,3.82-.25c.38.06.16.51,0,.66a23.26,23.26,0,0,0-7.57,12.38c-.41,1.81-.3,3.8-.79,5.58-.18.62-.42,1.44-1.08,1.7-1.81.75-3.75-.42-4.9-1.93a9.57,9.57,0,0,0,.52,4.38c1.55,3.68,6.67,4.81,10.41,3.86a11.32,11.32,0,0,0,5.85.77,30.06,30.06,0,0,0,5.45-1,5.6,5.6,0,0,0,2.37.94A88.08,88.08,0,0,0,335.69,532a66.16,66.16,0,0,0,13.48-1.13c4.55-.91,9.19-1,13.62-2.63,1.45-.53,5.89-1.63,5.32-4.11-.36-1.6-1.18-3-1.59-4.67-.34-1.41-.65-2.83-1-4.26A12.8,12.8,0,0,1,366,510a75.41,75.41,0,0,1,3.87-8.43c2.83-6,5-12.33,8.16-18.22,5.31-9.91,9.35-20.64,13.66-31,2.34-5.63,4.92-11.14,7-16.87s4-11.68,6.21-17.46c2.3-6,4.28-12,7.13-17.73s5.09-11,9.7-15.39a1.2,1.2,0,0,0,.27-1.48,6.91,6.91,0,0,1,3-.24,1.53,1.53,0,0,0,1.49-1.61,17.74,17.74,0,0,0-.63-2.27c-.24-2.52-1.67-5.26-2.68-7.23a17.49,17.49,0,0,0-2.71-4,26,26,0,0,0,3.2,1.14.63.63,0,0,0,.73-.78,17.84,17.84,0,0,0-4.8-7.5c.64.28,1.28.56,1.88.86,1.51.74,2.59,2.15,3.84,3.23.53.46,1.4-.36,1.28-.94a112.66,112.66,0,0,0-5.95-20.75c-.8-2-1.63-4-2.59-5.95a79.72,79.72,0,0,0,14.24-.56c1-.09,2.69,0,3.33-1.06a2.31,2.31,0,0,0,.41-1.39,11.84,11.84,0,0,1,.69-5.16c2.08-7.05,4.25-13.34,8.09-19.7a101.39,101.39,0,0,1,28.4-30.3,120.56,120.56,0,0,1,17.88-10.36,138.77,138.77,0,0,1,4-13.38,155.41,155.41,0,0,1,6.74-16.22c5-10.32,11.24-20.07,19.48-27.92C507.67,219.27,498.63,232.65,491.86,247.11ZM317.74,519.38c-1.13,1.72-2.73,3.37-4.84,3.73a.26.26,0,0,1-.31-.27,4.66,4.66,0,0,1,.08-1.6,17.21,17.21,0,0,1-4.64,3.9c-.14.08-.49.16-.53-.08-1.16-6.51,2-14.62,7.73-18.27,2.44-2.12,5.53-3.51,7.76-.84.15.19,0,.46-.17.58-2.18,1.79-4.52,3.22-6,5.61,2.13-1.43,4-3.14,6.64-3.66.39-.08.33.37.19.57C321.35,512.3,319.94,516.06,317.74,519.38ZM343,522.52a29.79,29.79,0,0,0-4.11-3.66c1.14,1.84,1.93,4,1.59,5.87-.61,3.23-4,3-6.63,2.77-1.95-.2-3.83-.42-5.79-.45a12.94,12.94,0,0,1-4.52-.44c-1.49-.6-1.48-2.18-1-3.78-.48.72-1,1.45-1.42,2.17-.15.21-.82.62-.82.09a18.45,18.45,0,0,1,7.07-14.22c.26-.18.49-.13.6,0,6.78-4.18,15.61,3.78,15.85,11.18C343.84,522.39,343.29,522.81,343,522.52Z"/><path class="cls-9" d="M288.91,291c-.23-1.37-.46-2.76-.74-4.15A36.65,36.65,0,0,0,293.48,304c-.16-.31-.34-.61-.48-.92A45,45,0,0,1,288.91,291Z"/><path class="cls-9" d="M220,275.74a62.35,62.35,0,0,0,2.26,9.58,88.2,88.2,0,0,1-1.48-11.78,38,38,0,0,1,0-12.32c.08-1.28.19-2.56.3-3.85A48,48,0,0,0,220,275.74Z"/><path class="cls-9" d="M329.7,342.87c-3.38-3.15-7.2-5.69-10.75-8.62a117.38,117.38,0,0,1-9.93-9.12c-1.07-1.11-2.13-2.26-3.17-3.42-2.12.61-4.71.24-6.76,0a71.91,71.91,0,0,1-10-1.7,45.54,45.54,0,0,1-19.68-10.59,116,116,0,0,0,9.66,13.21c.29.37-.37.81-.69.7-10.22-3.58-21.34-8-28.91-16.06s-11.78-18.89-19.39-27a55.65,55.65,0,0,0-3.14,15.71c.2.35.39.72.61,1.07s-.4.89-.68.71a1.41,1.41,0,0,0,0,.21c0,.34-.68.84-.87.39q-1.12-2.93-2-5.88a59.7,59.7,0,0,1-5-17,47.33,47.33,0,0,1,1.07-17.27c-3.08,2.9-4.93,6.7-7.83,9.74-.15.17-.76.46-.74,0a38,38,0,0,1,3.31-14.34,44.69,44.69,0,0,0-8.54,7.38c-.18.2-.72.44-.75,0-.41-7.53,4.07-13.29,9.43-18-2.94-5-7.59-8.92-11.18-13.43-1.64-2.06-3.32-4.24-5.21-6.19a29,29,0,0,1,2.8,6.65c1.4,4.92,1,9.41.3,14.43-1.66,11.44-4.16,23-.87,34.33a31.39,31.39,0,0,1,4.79-12.8c.14-.21.83-.62.82-.09-.23,11.88.4,24.71,6.92,35,.22-5.67-.31-11.37,1.18-16.91.09-.33.79-.72.86-.19A78,78,0,0,0,239.12,330c-.36-5.26-3.36-10.17-4.43-15.29-.07-.4.62-.94.85-.48A38.78,38.78,0,0,0,244.36,326c-.54-2.22-1.54-4.29-2.2-6.48-.11-.35.52-.88.81-.56,8.24,9.35,19.48,15.43,28.87,23.51,6.65,5.72,11.93,12.27,15.22,20.19a43.61,43.61,0,0,0-3.33-16.51c-.13-.31.45-.83.74-.62,4.55,3.47,10.78,3.94,16.31,3.71a100.28,100.28,0,0,0,15.35-2c.23-.05.34.16.3.36a210.63,210.63,0,0,1-5.22,20.9c-.1.32-.82.75-.87.2a23.56,23.56,0,0,0-2.36-8.07c-.07.61-.14,1.2-.2,1.74a61.44,61.44,0,0,1-2.45,11.29c-4,12.27-13.19,22.23-21.11,32.12-4.42,5.52-8.43,11.34-12.63,17-4.5,6.13-9.07,12.21-13.55,18.36-4.61,6.35-9.15,12.76-13.36,19.38-3.53,5.53-7,11.13-9.53,17.23-3.41,8.34-6.7,18.86-16,22.31-.33.12-.53-.16-.38-.44,1.09-2.1,2.33-4.1,3.22-6.28-4.15,3.69-13.72,8.7-19.46,7.23a30.62,30.62,0,0,0,9.25,3.42c1.31.23,4.52.21,5.1,1.83.77,2.16-1.33,4.64-2.72,6.07a14.56,14.56,0,0,1-7.16,3.75,68.28,68.28,0,0,1-9.47,1.07,23.62,23.62,0,0,1-8.26-.24c-5.67-1.48-2.36-7.27.2-10.37-2.34,1-3.73,3.5-5.35,5.31-.16.19-.59.41-.73.08-1.53-3.55.79-7.59,3.35-10a20.56,20.56,0,0,1,5.42-3.6,5.27,5.27,0,0,1,.62-.24,12.22,12.22,0,0,0-1.87.33,18.83,18.83,0,0,0-2.77-2.12c-1.5-.92-4-.94-5.61-1.47s-2.64.06-4.3.42a18.37,18.37,0,0,0-3.38,1,6.19,6.19,0,0,0-.83-.51,7.7,7.7,0,0,0-5.76,0c-.66.26-1.32.55-2,.87a5,5,0,0,1,2,.51c.22.11.09.39,0,.53-1.37,1.88-3.14,3.53-4.34,5.53a45.07,45.07,0,0,0-2.54,6.08c-.56,1.36-1.91,3.93-3.67,4a2.81,2.81,0,0,1-3.22-1.92c-.51,2.26-.58,4.54.63,5.77,2.81,2.84,6.48,3.07,10,2.2,2.86,2.75,8.36,2,12.72.49,1.35,2.23,5.28,1.72,7.46,2,4.91.57,9.92.08,14.85.21,8.48.23,16.3.22,23.54-4.76,2.52-1.72,6-4.38,6.69-7.6a16.22,16.22,0,0,0,.44-5,96.88,96.88,0,0,1,8.23-15.89c3.42-5.5,6.62-11.49,10.57-16.6s7.27-11.24,11.1-16.7c4.38-6.21,8.77-12.4,13.1-18.64,8.07-11.66,16.75-22.9,25.31-34.19,2.14-2.83,4.29-5.62,6.7-8.23,1.75-1.89,3.71-3.38,5-5.67a16.15,16.15,0,0,0,1.68-9.45c.11.18.22.36.32.54.6,1,.51,2.24,1.11,3.25.34.56,1.11-.07,1.17-.54a65.89,65.89,0,0,0,.82-9.81,15.1,15.1,0,0,1,1.37,6.11c0,.88.87.78,1.34.31,1.18-1.17,1.16-2.66,1.71-4.21,1-3,2.24-5.95,3.48-8.84s2.5-5.87,3.68-8.84c1-2.45,2.37-6.81,4.55-8.53a2.15,2.15,0,0,0,.73-1.07c1.33,1.11,2.67,2.2,4,3.3A76.49,76.49,0,0,0,329.7,342.87Zm-152.15,163c-1.08,2.12-1.63,4.78-3.11,6.68s-5.73,3.81-7.76,1.53c-1.77-2-.45-5.33.45-7.38a36.89,36.89,0,0,1,2.1-4.1.61.61,0,0,1,.05-.12l.25-.34a21.75,21.75,0,0,1,2.19-3,.51.51,0,0,1,.67-.12c3.35-2.84,7.89-4.44,11.64-1.59.25.19.08.46-.09.63A31,31,0,0,0,177.55,505.87Z"/><path class="cls-9" d="M198.05,224.36a21.64,21.64,0,0,0-2.71-3.91,18.06,18.06,0,0,0-1.85-1.18A28.35,28.35,0,0,1,198.05,224.36Z"/><path class="cls-9" d="M411.36,375.4a25.51,25.51,0,0,0-1.34-4c-.62-.37-1.24-.74-1.87-1.1A24.93,24.93,0,0,1,411.36,375.4Z"/><path class="cls-10" d="M654.42,127s55.09,14.94,106.86-3.31c0,0,60.73-16.93,93.25-65.72,0,0-36.51,61.73-119.47,76C735.06,134,685.62,144.59,654.42,127Z"/><path class="cls-11" d="M115.22,64.36c-.4-.25-.82-.53-1.25-.85a.52.52,0,0,0-.34-.1l-.52-.65q-11-8.3-21.4-17.23c-5.16-4.43-10.1-9.06-15.13-13.64-4.37-4-9.73-7.86-14.64-5.19-.55.67-1,1.35-1.47,2-5.16,7.18-6.69,18.06-6.68,26.66,0,4.92,1.22,9.49,2.25,14.27a41.47,41.47,0,0,0,5.57,14c5.13,7.92,14.91,7.53,23.1,6.15C94.53,88,103.94,83.19,112.34,78c2.63-1.64,5.92-3.59,6.69-6.84.47-2,.33-3.24-.23-4.12C117.6,66.15,116.42,65.25,115.22,64.36Z"/><path class="cls-2" d="M118.8,67c-1.2-.88-2.38-1.78-3.58-2.67-.4-.25-.82-.53-1.25-.85a.52.52,0,0,0-.34-.1l-.52-.65q-11-8.3-21.4-17.23c-5.16-4.43-10.1-9.06-15.13-13.64C72.28,28,67,24.16,62.17,26.59a6.23,6.23,0,0,1,5.61,1.56C73.91,33.24,76,40.43,79.46,47.29c3.89,7.76,11,13,15.59,20.21a49.11,49.11,0,0,1,6.75,16.37c3.65-1.79,7.17-3.8,10.54-5.88,2.63-1.64,5.92-3.59,6.69-6.84C119.5,69.12,119.36,67.91,118.8,67Z"/><path class="cls-9" d="M118.8,67c-1.2-.88-2.38-1.78-3.58-2.67-.4-.25-.82-.53-1.25-.85a.52.52,0,0,0-.34-.1l-.52-.65q-11-8.3-21.4-17.23c-5.16-4.43-10.1-9.06-15.13-13.64C72.28,28,67,24.16,62.17,26.59a6.23,6.23,0,0,1,5.61,1.56C73.91,33.24,76,40.43,79.46,47.29c3.89,7.76,11,13,15.59,20.21a49.11,49.11,0,0,1,6.75,16.37c3.65-1.79,7.17-3.8,10.54-5.88,2.63-1.64,5.92-3.59,6.69-6.84C119.5,69.12,119.36,67.91,118.8,67Z"/><path class="cls-12" d="M88.37,69.43c-1.7-3-3.13-6.48-5.05-9.31-1-1.52-1.73-2.16-3.75-1.91-1.31.17-2.54.35-3.74.61,0-.09.09-.19.12-.28.75-1.82,1.25-4,2.74-5.38.11-.11.24-.49,0-.55A8.63,8.63,0,0,0,72,54c.18-.46.32-.92.47-1.29,1.25-3,.59-6.68.19-9.82s-.87-6.67-3.44-8.93c-1.42-1.25-3.54-2.42-5.32-1.13C59.47,36.07,59.23,44.11,59.26,49c0,8.15.78,16.53,3.58,24.24,1.93,5.3,4.44,11,10.9,11.07,5.48,0,12.45-4.21,15.58-8.57C90.67,73.83,89.31,71.1,88.37,69.43Z"/><path class="cls-13" d="M88.37,69.43c-1.7-3-3.13-6.48-5.05-9.31-1-1.52-1.73-2.16-3.75-1.91-1.31.17-2.54.35-3.74.61,0-.09.09-.19.12-.28.75-1.82,1.25-4,2.74-5.38.11-.11.24-.49,0-.55A8.63,8.63,0,0,0,72,54c.18-.46.32-.92.47-1.29,1.25-3,.59-6.68.19-9.82-.31-2.53-.69-5.2-2.07-7.32A24,24,0,0,1,72,43.87c.07,4.08-.22,8.91-1.75,13a10.55,10.55,0,0,1,4.66-2,.29.29,0,0,1,.26.47,19.58,19.58,0,0,0-2.93,5.87,8.88,8.88,0,0,1,6.8,5.61c.11.26-.23.55-.44.62A60.85,60.85,0,0,0,68,72.91c-.18.1-.43.12-.53-.09-1.79-3.94-2.25-8.07-2.56-12.3a26.94,26.94,0,0,0-1.23,9.09c0,.33-.71.86-.86.39a90.57,90.57,0,0,1-3.53-21.37V49c0,8.15.78,16.53,3.58,24.24,1.93,5.3,4.44,11,10.9,11.07,5.48,0,12.45-4.21,15.58-8.57C90.67,73.83,89.31,71.1,88.37,69.43Z"/><path class="cls-9" d="M118.8,67c-1.2-.88-2.38-1.78-3.58-2.67-.4-.25-.82-.53-1.25-.85a.52.52,0,0,0-.34-.1l-.52-.65q-11-8.3-21.4-17.23c-5-4.28-9.77-8.76-14.62-13.18,5.3,10.83,13.79,20.3,17.33,32,.11.35-.51.88-.8.56-1.87-2-3.85-4-5.81-6,.83,1.79,1.85,3.91,1.72,5.87-.27,3.86-4,4.69-7.25,4.94a22.46,22.46,0,0,0-8.48,1.84,29.92,29.92,0,0,0-8,5.19c-.18.17-.51.23-.64,0a10.4,10.4,0,0,1-.78-2c-.13,1.21-.22,2.41-.35,3.63,0,.29-.53.79-.82.46-6.07-6.8-8-16.51-8.24-25.37a78.06,78.06,0,0,1,1-15.23,62.59,62.59,0,0,0-2.22,17c0,4.92,1.22,9.49,2.25,14.27a41.47,41.47,0,0,0,5.57,14c5.13,7.92,14.91,7.53,23.1,6.15C94.53,88,103.94,83.19,112.34,78c2.63-1.64,5.92-3.59,6.69-6.84C119.5,69.12,119.36,67.91,118.8,67Z"/><path class="cls-14" d="M60.27,34.57c1.25-2,4.6-6,7.47-5.84a4.29,4.29,0,0,0-4.52-1.13,8.3,8.3,0,0,0-4.15,4.8,26.72,26.72,0,0,0-2.39,5.74,31.8,31.8,0,0,0-1.14,10,44.22,44.22,0,0,0,.81,9.31c0-2,0-4.14.13-6.27C56.44,45.31,57.33,39.29,60.27,34.57Z"/><path class="cls-15" d="M207.22,122c4.4,1.15,7.91,3.66,11.48,6.2-1-1.91-2.11-3.79-3.18-5.58-3.94-6.63-8.32-15.39-15.8-18.51-.14,0-.14-.2-.11-.32,3.22-17.1-1.51-34.3-7.24-50.45A115.16,115.16,0,0,0,180.85,34.7,34.71,34.71,0,0,0,172.67,27c-.53-.31-1.13-.66-1.76-.95-3-2.15-6.52-1.54-7.28,3.58-1.7,11.46.36,22.81,2.41,34.07,2.17,12,5,23.72,7.76,35.52.34,1.47.66,3,1,4.43a167.44,167.44,0,0,0-18.23,21.89c-8.39,11.86-17.83,24.2-22.46,38.11-1.83,5.52-3.27,10.77-1.53,16.52a6,6,0,0,0,1.73,2.7,23.92,23.92,0,0,0-2.55-.24c-.07,0-.13.14-.05.14a19.38,19.38,0,0,1,3,.4,11.85,11.85,0,0,0,6.25,2.13c1.06.46,2.1.94,3.13,1.41,3.71,1.71,7.46,3.35,11.18,5.05,1.2.55,2.36,1.17,3.5,1.81,11.3-3.76,21.8-10.47,31.34-17.44,3.84-2.81,7.21-6.22,8.78-10.81,1.42-4.18,1.86-8.62,2.53-13,0-.32.5-.77.82-.47,4.38,4.21,5.35,10,6.35,15.73.43-2.13.86-4.25,1.11-6.38a59.86,59.86,0,0,0-3-27.2c-.11-.31.44-.85.74-.62a20.9,20.9,0,0,1,5.29,5.28c.22.37.41.75.6,1.13-1.11-6.2-3-12.14-6.59-17.17C206.39,122.36,206.89,121.86,207.22,122Z"/><path class="cls-11" d="M207.93,119a5.72,5.72,0,0,1,1.07.64c-2-4.73-5.81-8.23-9-12.31a23,23,0,0,0-3.68-1.84,47.73,47.73,0,0,0,1.21-9.3c.23-7.5.64-15-.42-22.48-1-7.18-4.54-13.61-6.05-20.6-.63-2.91-2.51-6-3.93-8.55a47.82,47.82,0,0,0-12.07-15.36c-2-1.67-5.28-4.19-8-4.5-5.64-.64-10.33,5.71-12.6,10.09a164.31,164.31,0,0,0-9.17,20,52.69,52.69,0,0,1-4.66,9.36,62.25,62.25,0,0,1-11.82-2.09,35.41,35.41,0,0,1-6.26-2.46q-2.76-1-5.52-2a63.17,63.17,0,0,1-7-2.77,79.68,79.68,0,0,1,3.48,7.21c.28.7,1.17,2.47,1.72,4.18a31.67,31.67,0,0,0-5.15-4c-.31-.19-.66-.4-1-.6a22.49,22.49,0,0,0-10.46-.93.43.43,0,0,0,.23.25,19.41,19.41,0,0,1,6,5.82l.48.66c-.66,0-1.29.08-1.82.15a63.48,63.48,0,0,0-9.54,2,151,151,0,0,0-18.35,7.06c-9.57,4.21-20.91,9-27.56,17.55a48.12,48.12,0,0,1,5.35.74c.44.08-3.33,3.71-4.58,5.18a.35.35,0,0,0,.11.15c1,.7,4.45-.08,5.06,0a19.25,19.25,0,0,1-3,1.94,1.72,1.72,0,0,0-.61.68c.77.39,6.22,4.53,7,7.43a26,26,0,0,1,1.79,7.14c.13.49.27,1,.38,1.48a8.8,8.8,0,0,1,.18,1.92c-2,.59-4,1.25-6,1.82A157.81,157.81,0,0,0,37,129a129.38,129.38,0,0,0-15.53,8.21,74.64,74.64,0,0,0-8.37,5.46c-2.34,1.82-4.18,4.23-6.48,6S.78,155.21,2,158.47a21.78,21.78,0,0,0,3.75,5.79A5.34,5.34,0,0,1,6.71,168c.79,4.4,0,9,1.59,13.29A18.12,18.12,0,0,0,10.9,186c.67.45,1.37.83,2,1.18a23.35,23.35,0,0,0,7,2.71,29.83,29.83,0,0,0,8,10.14c4,3.07,9.77,2.89,15.1,2.38,5.16-.81,10.28-1.89,15.37-3,13.82-2.92,27.42-4,41.52-4.62,13.77-.57,27.43-1.79,41.17-2.7,6.27-.42,12.65-.58,18.82-1.87,1.17-.25,2.31-.57,3.43-.91.75-.56,1.51-1.13,2.31-1.69a75.89,75.89,0,0,0,12.34-7.21c3.09-2.32,6.52-4.14,9.75-6.23a29.55,29.55,0,0,0,7.39-7.11c3.59-4.58,4.21-11.52,4.88-17.11a16.18,16.18,0,0,0,0-3.68c1.48,1.68,2.91,3.38,4.45,5a52.62,52.62,0,0,0,2.12-4.93,35.82,35.82,0,0,0-5.44-18.39c2.1,1.12,4.19,2.26,6.25,3.48a37.1,37.1,0,0,0-1.67-6.76c-1.05-1.82-2.22-3.57-3.37-5.2a27.49,27.49,0,0,0-2.1-2.6,25.75,25.75,0,0,1,3.45.62A26.22,26.22,0,0,1,207.93,119Z"/><path class="cls-5" d="M207.93,119a5.72,5.72,0,0,1,1.07.64c-2-4.73-5.81-8.23-9-12.31a23,23,0,0,0-3.68-1.84,47.73,47.73,0,0,0,1.21-9.3c.23-7.5.64-15-.42-22.48-1-7.18-4.54-13.61-6.05-20.6-.63-2.91-2.51-6-3.93-8.55a47.82,47.82,0,0,0-12.07-15.36c-2-1.67-5.28-4.19-8-4.5-5.64-.64-10.33,5.71-12.6,10.09a164.31,164.31,0,0,0-9.17,20,52.69,52.69,0,0,1-4.66,9.36,62.25,62.25,0,0,1-11.82-2.09,35.41,35.41,0,0,1-6.26-2.46q-2.76-1-5.52-2a63.17,63.17,0,0,1-7-2.77,79.68,79.68,0,0,1,3.48,7.21c.28.7,1.17,2.47,1.72,4.18a31.67,31.67,0,0,0-5.15-4c-.31-.19-.66-.4-1-.6a22.49,22.49,0,0,0-10.46-.93.43.43,0,0,0,.23.25,19.41,19.41,0,0,1,6,5.82l.48.66c-.66,0-1.29.08-1.82.15a63.48,63.48,0,0,0-9.54,2,151,151,0,0,0-18.35,7.06c-9.57,4.21-20.91,9-27.56,17.55a48.12,48.12,0,0,1,5.35.74c.44.08-3.33,3.71-4.58,5.18a.35.35,0,0,0,.11.15c1,.7,4.45-.08,5.06,0a19.25,19.25,0,0,1-3,1.94,1.72,1.72,0,0,0-.61.68c.77.39,6.22,4.53,7,7.43a26,26,0,0,1,1.79,7.14c.13.49.27,1,.38,1.48a8.8,8.8,0,0,1,.18,1.92c-2,.59-4,1.25-6,1.82A157.81,157.81,0,0,0,37,129a129.38,129.38,0,0,0-15.53,8.21,74.64,74.64,0,0,0-8.37,5.46c-2.34,1.82-4.18,4.23-6.48,6S.78,155.21,2,158.47a21.78,21.78,0,0,0,3.75,5.79A5.34,5.34,0,0,1,6.71,168c.79,4.4,0,9,1.59,13.29A18.12,18.12,0,0,0,10.9,186c.67.45,1.37.83,2,1.18a23.35,23.35,0,0,0,7,2.71,29.83,29.83,0,0,0,8,10.14c4,3.07,9.77,2.89,15.1,2.38,5.16-.81,10.28-1.89,15.37-3,13.82-2.92,27.42-4,41.52-4.62,13.77-.57,27.43-1.79,41.17-2.7,6.27-.42,12.65-.58,18.82-1.87,1.17-.25,2.31-.57,3.43-.91.75-.56,1.51-1.13,2.31-1.69a75.89,75.89,0,0,0,12.34-7.21c3.09-2.32,6.52-4.14,9.75-6.23a29.55,29.55,0,0,0,7.39-7.11c3.59-4.58,4.21-11.52,4.88-17.11a16.18,16.18,0,0,0,0-3.68c1.48,1.68,2.91,3.38,4.45,5a52.62,52.62,0,0,0,2.12-4.93,35.82,35.82,0,0,0-5.44-18.39c2.1,1.12,4.19,2.26,6.25,3.48a37.1,37.1,0,0,0-1.67-6.76c-1.05-1.82-2.22-3.57-3.37-5.2a27.49,27.49,0,0,0-2.1-2.6,25.75,25.75,0,0,1,3.45.62A26.22,26.22,0,0,1,207.93,119Z"/><path class="cls-9" d="M139,99.85a29.8,29.8,0,0,0-21-1.5c-.39.1-.56-.25-.3-.55a42.5,42.5,0,0,1,7.1-6.37c-4.76.31-8.6,3.1-12.79,5.25-.22.12-.66.08-.52-.29a37.74,37.74,0,0,1,1.72-4,26.15,26.15,0,0,0-7.19,15,15.45,15.45,0,0,1,7.51-6.72c.41-.17.51.29.3.55a24,24,0,0,0-3.37,6c4.91-3.52,11.64-4.81,17.45-4.8,7.15,0,13.94,2.51,20.23,5.88a10.78,10.78,0,0,0-1.77-3A22.07,22.07,0,0,0,139,99.85Z"/><path class="cls-16" d="M136.18,129.09c-.4.13-.54-.28-.3-.55a49.8,49.8,0,0,1,4.7-5,8.28,8.28,0,0,0-6.88,4.27c-.13.24-.81.6-.82.09,0-5.19-1.52-15.33-8.79-14.64-5,.48-7,5.63-6.83,10.36a69.79,69.79,0,0,0,2.43,7.37c.12.31-.29.61-.54.65a22.33,22.33,0,0,0-9.92,4.71,52.77,52.77,0,0,1,17.41-1.46c5.13.45,10.36,1,14.86,3.51a11.69,11.69,0,0,0-9.27-5.89c-.5-.05,0-.72.23-.79,4.09-1.18,8.36-2.61,12.52-2.34C142.09,128.56,139.19,128,136.18,129.09Z"/><path class="cls-9" d="M49,100.37c1,.7,4.45-.08,5.06,0a19.25,19.25,0,0,1-3,1.94,1.72,1.72,0,0,0-.61.68c.77.39,6.22,4.53,7,7.43a26,26,0,0,1,1.79,7.14c.13.49.27,1,.38,1.48a7.3,7.3,0,0,1,.16,1.62,41.35,41.35,0,0,0,7.91-1.57c3.26-1.09,7.27-3.3,8.81-6.58,1.38-3,.16-7.45-2.83-9-.41-.21.2-.88.54-.78,1.51.43,3.13.67,4.59,1.25C77.64,98.79,71.63,95.69,66.93,94c-3.77-1.37-8.7-2.19-12.67-1.34a23.88,23.88,0,0,0-5,1.78c1.39.15,2.77.34,4.14.61.44.08-3.33,3.71-4.58,5.18A.35.35,0,0,0,49,100.37Z"/><path class="cls-9" d="M207.93,119a5.72,5.72,0,0,1,1.07.64c-2-4.73-5.81-8.23-9-12.31a23,23,0,0,0-3.68-1.84,47.73,47.73,0,0,0,1.21-9.3c.23-7.5.64-15-.42-22.48-1-7.18-4.54-13.61-6.05-20.6-.63-2.91-2.51-6-3.93-8.55a51.41,51.41,0,0,0-5.39-8.49l-.33-.39c5,8.77,7.74,18.94,9.33,29S193.2,85.09,192,95.38a28.35,28.35,0,0,1-1.16,5.88c-.53,1.58-1.94,4.45-1.21,6.1,1.38,3.12,5.23,4.28,6.6,7.54.14.33-.36.68-.65.64-4.43-.57-8.58-2.2-12.8-3.6a16.78,16.78,0,0,1,.51,8.63c-.08.32-.54.6-.81.37-2.63-2.28-3.65-5.75-6.05-8.22a30.86,30.86,0,0,0-6.73-5.1,71.26,71.26,0,0,1,7.57,10.61,32.92,32.92,0,0,1,3.79,13.44c0,.31-.57.78-.82.47a38.19,38.19,0,0,0-13.32-10.69c4.88,5.6,7.69,13.09,6.41,20.52-.06.33-.65.67-.85.29-2.14-4.32-4.12-8.88-8.66-10.76,7.3,9.95,6.37,27.59-6.36,32.77-6.76,2.75-13.18,7.37-19.15-1.34-4.78-7-1.22-11.6-.5-15.68-2.17,2.84-7.69,6.65-7.53,10.17a17.53,17.53,0,0,0,1.69,4.19.49.49,0,0,1-.27.65c-6.84,3.7-14.79.53-22,.39-10.14-.19-19.19,4.86-27.7,9.83-8.26,4.84-16.76,9.91-26,12.78a43.84,43.84,0,0,1-13,2.12,20.13,20.13,0,0,1-3.09-.2,16.1,16.1,0,0,1-3.63-.64c-6.15-1.81-9.84-9.57-8.94-15.63a.67.67,0,0,1,.57-.55c6.49-.36,14-2.55,19-7a20.76,20.76,0,0,0,6.81-13.52A37.72,37.72,0,0,1,49.16,155c-.27.25-.87.13-.58-.32a18.6,18.6,0,0,0,2.69-10.3,9.86,9.86,0,0,1-4.67,4.32c-.66.27-1.06-.2-1.58-.5-1.52-.85-3.19-1.47-4.74-2.26a26.93,26.93,0,0,0-12.63-3,51.71,51.71,0,0,0-13.06,1.45c-.51.13-.48-.37-.21-.64,2.17-2.05,4.29-4.14,6.46-6.18a71.77,71.77,0,0,0-7.77,5.11c-2.34,1.82-4.18,4.23-6.48,6S.78,155.21,2,158.47a21.78,21.78,0,0,0,3.75,5.79A5.34,5.34,0,0,1,6.71,168c.79,4.4,0,9,1.59,13.29A18.12,18.12,0,0,0,10.9,186c.67.45,1.37.83,2,1.18a23.35,23.35,0,0,0,7,2.71,29.83,29.83,0,0,0,8,10.14c4,3.07,9.77,2.89,15.1,2.38,5.16-.81,10.28-1.89,15.37-3,13.82-2.92,27.42-4,41.52-4.62,13.77-.57,27.43-1.79,41.17-2.7,6.27-.42,12.65-.58,18.82-1.87,1.17-.25,2.31-.57,3.43-.91.75-.56,1.51-1.13,2.31-1.69a75.89,75.89,0,0,0,12.34-7.21c3.09-2.32,6.52-4.14,9.75-6.23a29.55,29.55,0,0,0,7.39-7.11c3.59-4.58,4.21-11.52,4.88-17.11a16.18,16.18,0,0,0,0-3.68c1.48,1.68,2.91,3.38,4.45,5a52.62,52.62,0,0,0,2.12-4.93,35.82,35.82,0,0,0-5.44-18.39c2.1,1.12,4.19,2.26,6.25,3.48a37.1,37.1,0,0,0-1.67-6.76c-1.05-1.82-2.22-3.57-3.37-5.2a27.49,27.49,0,0,0-2.1-2.6,25.75,25.75,0,0,1,3.45.62A26.22,26.22,0,0,1,207.93,119ZM22.45,187.85A9.88,9.88,0,0,1,13.56,185a16.68,16.68,0,0,1-5-11.36c0-1.42.18-3.17,1.74-3.68s3,.7,4.46.83c1,.1,3.12-.41,3.72.51.34.54.14,2.33.22,3A38.38,38.38,0,0,0,23,187.2C23.14,187.5,22.68,187.81,22.45,187.85Z"/><path class="cls-9" d="M207.32,131.42a37.1,37.1,0,0,0-1.67-6.76c-1.05-1.82-2.22-3.57-3.37-5.2a27.49,27.49,0,0,0-2.1-2.6,25.75,25.75,0,0,1,3.45.62,20.86,20.86,0,0,1,2.08.64,34.49,34.49,0,0,0-9.84-3.91,5.58,5.58,0,0,1,.35.69.36.36,0,0,1,0,.1,31.7,31.7,0,0,1,7.95,10.85c.15.38-.51.83-.81.56-3.65-3.28-8.37-4.89-13-6.43,6.11,4.75,10.92,13,11.33,20.4,0,.3-.58.79-.82.47-3.29-4.44-7.73-9-12.82-11.5,5.63,7.23,6,16.54,2.67,25.07-.09.23-.55.68-.8.36-3.38-4.18-5.63-9.11-8.67-13.53a36.7,36.7,0,0,1,1.93,8.34,25.39,25.39,0,0,1-1.67,10.8c-.08.21-.59.71-.8.37-1.09-1.8-2.12-3.64-3.2-5.43.18,1.58.25,3.11.32,4.32.12,2.09.45,4.63-.22,6.66a15.65,15.65,0,0,1-4.77,6.73c-5.47,4.89-12,10.38-19.14,12.67a54.09,54.09,0,0,1-5.27,1.42,18.4,18.4,0,0,1-4.88.85c-7.37.26-14.76-.91-22.16-.84a210.7,210.7,0,0,0-24.21,1.57,262,262,0,0,0-44.13,8.87c-6.08,1.85-13.54,4.49-20.55,4.56a33,33,0,0,0,10.43.25c5.16-.81,10.28-1.89,15.37-3,13.82-2.92,27.42-4,41.52-4.62,13.77-.57,27.43-1.79,41.17-2.7,6.27-.42,12.65-.58,18.82-1.87,1.17-.25,2.31-.57,3.43-.91.75-.56,1.51-1.13,2.31-1.69a75.89,75.89,0,0,0,12.34-7.21c3.09-2.32,6.52-4.14,9.75-6.23a29.55,29.55,0,0,0,7.39-7.11c3.59-4.58,4.21-11.52,4.88-17.11a16.18,16.18,0,0,0,0-3.68c1.48,1.68,2.91,3.38,4.45,5a52.62,52.62,0,0,0,2.12-4.93,35.82,35.82,0,0,0-5.44-18.39C203.17,129.06,205.26,130.2,207.32,131.42Z"/><path class="cls-9" d="M26.68,188.47c-2,.39-4.37,1.06-6.76,1.46l.46.83c2.79,2.05,6.37-.15,9.81-.51a24,24,0,0,1,6.31.62,68.38,68.38,0,0,0,8.45.89A63.05,63.05,0,0,0,74.79,185c8.35-4.09,16.07-9.28,24.16-13.85a44.1,44.1,0,0,1,10.42-4.56,51.19,51.19,0,0,0-13.94,4.5c-6.27,3.08-12,7.16-18.19,10.35-10.48,5.39-22.78,9.5-34.73,8C33.24,188.3,26,183.32,23,174.76a22.22,22.22,0,0,0,4.2,13C27.41,188.07,27,188.42,26.68,188.47Z"/><path class="cls-9" d="M23.34,169.23c9.14-.43,22-5.14,22.35-15.81-.78.9-1.52,1.83-2.24,2.78-.16.22-.74.43-.74,0-.11-4.93-5.52-8.48-9.84-9.56a36.35,36.35,0,0,0-13-.81,48.82,48.82,0,0,0-14.3,3.79c-2.19,2.18-4.65,6-3.57,8.86a21.78,21.78,0,0,0,3.75,5.79,3.69,3.69,0,0,1,.51.85C11.11,169.08,17.26,169.51,23.34,169.23Z"/><path class="cls-12" d="M176.19,40.47c-3.41-3.4-8-7.37-13.06-4.38-3.41,2-5.28,4.4-6.14,7.53-1.57,3.29-1.94,7.31-2.73,10.8-1.41,6.32-3.59,12.89-8.69,17.18-.25.21-.72,1.19,0,1.15a20.92,20.92,0,0,0,5.3-1c-.43.55-.85,1.1-1.28,1.64a37.47,37.47,0,0,1-5.56,6c-.17.14-.43.72,0,.71a30.5,30.5,0,0,0,3.18-.18,5.5,5.5,0,0,0,1.5-.32c.66-.19,2-.94.49-.13-1,.53-2.63,1.22-3,2.37a.29.29,0,0,0,.21.43c6.92,1.34,13.39,4.48,19.93,7a41.11,41.11,0,0,1,9.16,5.21c2,1.48,3.55,3.64,5.56,5,.2.15.51,0,.57-.26,1.42-5.36-.68-10.67-3.69-15.21a24.2,24.2,0,0,1,5.92,6.7c.28.48,1,0,1.07-.35.75-2.68-1.15-6.72-2-9.31a24,24,0,0,0-4.35-7.73c3.2,2,6,5.41,8.42,7.52.36.31,1-.18,1-.58C188.27,66.57,186.46,50.71,176.19,40.47Z"/><path class="cls-13" d="M177.65,42.06c.17.28.34.56.49.83a48.54,48.54,0,0,1,4.1,8.8A52.18,52.18,0,0,1,185,71.61c0,.85-.5,3.32-.78,3-2.42-2.5-4.31-5.45-7-7.71A32.53,32.53,0,0,0,171.58,63c3.39,5.06,6.31,17.71,6,17.33A15.26,15.26,0,0,0,172.27,76c1.34,3.07,1.93,10.39,1.65,10.31-2.5-.72-12.44-5.32-15.55-5.72-.31,0,3.42-4.3,5-6.31-3.15,1.6-10.08,4.29-9.83,4,1.51-1.8,2.93-3.64,4.26-5.55a28.86,28.86,0,0,1-8.2,4c-.47.14,6-7.27,8.2-11.3a21.65,21.65,0,0,1-7.32,3.34c-.48.11,3-4.35,3.83-6.79.67-3.77,1.31-7.58,1.67-11.38a38.84,38.84,0,0,1,1-6.84C155.42,47,155,51,154.26,54.42c-1.41,6.32-3.59,12.89-8.69,17.18-.25.21-.72,1.19,0,1.15a20.92,20.92,0,0,0,5.3-1c-.43.55-.85,1.1-1.28,1.64a37.47,37.47,0,0,1-5.56,6c-.17.14-.43.72,0,.71a30.5,30.5,0,0,0,3.18-.18,5.5,5.5,0,0,0,1.5-.32c.66-.19,2-.94.49-.13-1,.53-2.63,1.22-3,2.37a.29.29,0,0,0,.21.43c6.92,1.34,13.39,4.48,19.93,7a41.11,41.11,0,0,1,9.16,5.21c2,1.48,3.55,3.64,5.56,5,.2.15.51,0,.57-.26,1.42-5.36-.68-10.67-3.69-15.21a24.2,24.2,0,0,1,5.92,6.7c.28.48,1,0,1.07-.35.75-2.68-1.15-6.72-2-9.31a24,24,0,0,0-4.35-7.73c3.2,2,6,5.41,8.42,7.52.36.31,1-.18,1-.58C188.26,67.25,186.62,52.29,177.65,42.06Z"/><path class="cls-12" d="M77.71,101.53a12.18,12.18,0,0,0-6.4-5.72,29.63,29.63,0,0,0-6-2,32.58,32.58,0,0,0-3.68-.52c-.68,0-1.33.4-2,.29,0,0,0,0,0,0,2.71.79,5.42.53,8,2,1.95,1.11,4,1.58,5.77,3a12.4,12.4,0,0,1,3.16,4,8.59,8.59,0,0,0-4.42-.27c-.19,0-.4.33-.17.46,6.3,3.76,5,12-1.7,14.82-3.55,1.49-7.35,2.11-10.93,3.53,1.33-.27,2.77-.27,4-.47l1.69-.27c4.11-1,8-2.3,10.72-6.12,1.5-2.09,1.61-5.47.84-7.82a9.32,9.32,0,0,0-2.48-3.21c.13.13-1.81-.94,0-.31a33.52,33.52,0,0,1,3.16,1.19.55.55,0,0,0,.74-.11A17.53,17.53,0,0,0,77.71,101.53Z"/><path class="cls-12" d="M127.9,101.16A30,30,0,0,0,112,105.68c.9-2.2,2.72-5,4.09-5.69a1.82,1.82,0,0,0,.77-1.29,23,23,0,0,0-6.45,2.06,21.86,21.86,0,0,0-2.62,2.81c.6-3.52,2.42-6.8,4.15-9.84-.21.17-.41.35-.61.53-1.22,1.71-2.7,3.25-3.54,5.21a23.46,23.46,0,0,0-1.55,5c.11.68.24,1.37.4,2h0c1.13-.38,1.75-1.41,2.51-2.28a12.53,12.53,0,0,1,3.84-2.9,31.19,31.19,0,0,0-3.38,6.34,1,1,0,0,0,0,.22c5.93-3,12.53-5.34,19.19-5.27,5.78.07,10.58,2.77,15.71,4.75A26.71,26.71,0,0,0,127.9,101.16Z"/><path class="cls-17" d="M140.5,165.83a10.62,10.62,0,0,1-4-4.33,38.27,38.27,0,0,1-1.26-4c-.1,1.3-.37,2.65-.39,3.84a6.19,6.19,0,0,0,1.31,4.32c.14.17.33.31.49.47-3.94,2.38-9.38.93-13.67.37-4.56-.59-9.58-1.29-14.12-.35a23.93,23.93,0,0,0-6.87,2.68c-3.82,1.59-7,4.22-10.59,6.43-5.59,3.42-11.24,6.87-17.34,9.3-1.35.69-2.71,1.35-4.11,1.95-7.68,3.29-15.47,4.38-23.77,4.42-6.74,0-14.56-.77-19.09-6.45a17.38,17.38,0,0,1-3.73-10.29,25.78,25.78,0,0,0-.86-7.35,24.6,24.6,0,0,1,0,6.3,22.67,22.67,0,0,0,1.15,8.12,11.5,11.5,0,0,0,4.38,6.12h0c.27.14.54.28.8.43s-.09.67-.32.76c-2.25,1-4.49,2.48-7,2.14-.88-.12-1.64-.85-2.48-1.07.63.33,1.2,1.17,1.86,1.38a9,9,0,0,0,2.84.94c2.88.47,3.88-1.88,6.72-1.92,2.26,0,4.35,1.32,6.55,1.56,3,.34,6,.65,9.05.73,11.21.29,22.92-1.67,32.95-7,5.17-2.74,9.71-6.35,14.65-9.45a104.62,104.62,0,0,1,10.08-6.11c.49-.16,1-.35,1.48-.48a65,65,0,0,1,8-1.72h.21a109,109,0,0,1,15.28,1.58,11.81,11.81,0,0,0,9.28-2.09c2.58,1.51,6.32,1.77,9,1.62A19.28,19.28,0,0,1,140.5,165.83Z"/><path class="cls-18" d="M130.4,123.48c.91,4.7-.9,9-4.06,9.6s-6.45-2.67-7.36-7.37.9-9,4-9.6S129.48,118.8,130.4,123.48Z"/><path class="cls-19" d="M129.16,123.81c.71,3.66-.7,7-3.16,7.5s-5-2.09-5.76-5.76.71-7,3.17-7.49S128.45,120.15,129.16,123.81Z"/><path class="cls-20" d="M125,121.48c.35,1.8-.35,3.44-1.56,3.68s-2.47-1-2.83-2.83.35-3.45,1.56-3.68S124.68,119.68,125,121.48Z"/><path class="cls-20" d="M122.61,128.65c.13.7-.14,1.34-.6,1.43s-1-.4-1.09-1.1.13-1.33.6-1.41S122.47,128,122.61,128.65Z"/><path class="cls-18" d="M64.11,119.89c3.4-.94,7-2.12,9.61-4.54-.46-4.47-2.82-7.87-5.49-7.73s-4.9,4.19-4.65,9A13.8,13.8,0,0,0,64.11,119.89Z"/><path class="cls-19" d="M72.66,116.24c-.2-3.77-2.14-6.73-4.32-6.62s-3.84,3.28-3.64,7.06a11.16,11.16,0,0,0,.53,2.88A23.21,23.21,0,0,0,72.66,116.24Z"/><path class="cls-20" d="M69.35,113.31c.09,1.86-.71,3.41-1.79,3.46s-2-1.4-2.12-3.26.7-3.41,1.78-3.47S69.25,111.44,69.35,113.31Z"/><path class="cls-21" d="M41.58,157.63a6.78,6.78,0,0,0-.9-4c-2.56-4.78-9.44-5.94-14.29-6.61a36.06,36.06,0,0,0-8.24-.25c-4.36.4-9.22,1.12-13.06,3.36-4.39,2.56-7.21,7.47-3.07,12a23,23,0,0,0,19.67,6.94C27.82,168.27,40.74,165.35,41.58,157.63Z"/><path class="cls-22" d="M40.68,153.63a9,9,0,0,0-2.71-3,9.6,9.6,0,0,1-2.36,6.14c-3.95,4.31-13.08,5.86-18.55,5.91-4.57,0-14.5-1-15.52-7a7.73,7.73,0,0,1,0-2.4A6.54,6.54,0,0,0,2,162.17a23,23,0,0,0,19.67,6.94c6.13-.84,19.05-3.76,19.89-11.48A6.78,6.78,0,0,0,40.68,153.63Z"/><path class="cls-20" d="M2.66,155.57s.72-9.66,25.35-7C28,148.56,10.15,146.63,2.66,155.57Z"/><path class="cls-14" d="M148.74,57.26c2-5.84,3.45-11.92,6.61-17.25a14.66,14.66,0,0,1,2.16-3.28,16.3,16.3,0,0,1,1.4-1.37,10.84,10.84,0,0,1,4.54-2.69,13,13,0,0,1,9.45,1.22,26,26,0,0,1,7.17,5.84A29,29,0,0,0,174.14,30a11.17,11.17,0,0,0-5.88-3.7,5.76,5.76,0,0,0-2.78,0c-2.5.28-4.87,2.1-6.53,4.26-.14.15-.3.29-.44.45a55.84,55.84,0,0,0-3.57,5.26,28.53,28.53,0,0,0-3.31,7.23c-1.68,4.89-3.77,9.59-5.76,14.37a70.68,70.68,0,0,1-3.66,7.34c-1.3,2.32-2.73,5.24-4.89,7C143.59,69.91,146.65,63.46,148.74,57.26Z"/><path class="cls-14" d="M161.44,132.44a22,22,0,0,0-6.9-6.24c-1.49-.78-3-1.41-4.61-2a7.45,7.45,0,0,1,.91,1,25.84,25.84,0,0,1,2.1,3.64c.8,1.81,1.84,6.12,1.06,8.46a7.31,7.31,0,0,0-1.44-1.78.28.28,0,0,1-.22,0c-4.1-2.4-8.38-3.82-12.63-2.14a26.86,26.86,0,0,1,5.52,7.43c-1.5-.57-3.06-1-4.57-1.41A73,73,0,0,0,126.9,137a48.81,48.81,0,0,0-5.68,0h-.12a40.82,40.82,0,0,0-9.14.83,28.08,28.08,0,0,0-5.42,1.06,68.35,68.35,0,0,0-9,2.36,71.56,71.56,0,0,1,5.8-4.93,42.17,42.17,0,0,1,7.31-4.56c1.11-.55,2.85-1,3.8-1.8.12-.1.29-.45,0-.47a23.72,23.72,0,0,0-10.74,2.4,62.14,62.14,0,0,1,.66-8.08c.35-2,1.28-3.57,1.93-5.48.36-1.08,1.13-1.84,1.37-2.93.07-.32-.27-.43-.51-.33-1.72.7-3,2.59-4.14,4a24.25,24.25,0,0,0-2.36,3.87,40.48,40.48,0,0,1,6.59-13.42c.16-.23.06-.7-.31-.58-2.31.69-4.2,2.79-5.93,4.4a20.13,20.13,0,0,0-2.21,2.43c0-1,.15-2.07.26-3.11a42.25,42.25,0,0,1,4.44-14.62,33.59,33.59,0,0,1,8.16-10.48c1.09-.94,2.5-1.66,3.51-2.61-1,.92-1.12,3.6-1.6,4.82-.2.48.3.63.64.42,1.45-.93,2.7-2.11,4.21-3a27.44,27.44,0,0,1,6.17-2.47c2.79-.78-.38,1.3-1.14,1.84-1.75,1.23-3.35,2.68-5,4-.22.17-.2.67.14.48a22.31,22.31,0,0,1,13.8-3,33.19,33.19,0,0,0-8,6.41c-.11.12-.2.49.08.48a14.44,14.44,0,0,0,2.72-.82,25.58,25.58,0,0,1,4.77-.5c5.48.66,10.83,4.21,14.75,7.71a69.26,69.26,0,0,1,7.19,7c2.34,2.81,3.65,5.8,5.37,8.94.09.17.32,0,.31-.19a25.12,25.12,0,0,0-1.31-5.15,18,18,0,0,0-.72-2.06c-.1-.26-.22-.51-.33-.77,1.39,1.75,2.9,3.31,4.15,5.2.55.82.74,2.24,1.43,3a18.32,18.32,0,0,0,1.3-8.83c-.28-2.76-.87-5.47-1.42-8.2a25.26,25.26,0,0,0-5.13-7.49,48.89,48.89,0,0,0-12.44-9c-1.63-.84-3.36-1.71-5.16-2.5,1.48-1.69,2.87-3.45,4.26-5.09.24-.27.14-.68-.26-.54-1.65.56-3,2-4.62,2.72-1,.51-2.06,1-3.14,1.47l-.41-.13c.88-.78,1.75-1.55,2.66-2.32a12.05,12.05,0,0,0,2.84-3c.11-.21.06-.51-.23-.45-2.56.47-5.16,1.41-7.69,2.07-.48.13-1,.23-1.45.34.73-.72,1.43-1.46,2.13-2.2A30.52,30.52,0,0,0,139,66.73a.46.46,0,0,0,0-.44,41.52,41.52,0,0,1-13.32-1.77c-3.4-1-7.36-2.09-10.47-4.15a39.63,39.63,0,0,1,2,8.46,19.33,19.33,0,0,1,.12,2,18.06,18.06,0,0,0-3.12-3.12,14.3,14.3,0,0,0-4-2.07c-1.27-.54-2.52-1.21-3.8-1.73-.46-.07-1-.11-1.44-.15a.27.27,0,0,0,0,.26,16.81,16.81,0,0,1,2.42,4.68c-.51.06-1,.13-1.53.22-2.59.48-5.2.82-7.79,1.36a72.83,72.83,0,0,0-14,4.74,141.76,141.76,0,0,0-14.18,7.19,72.7,72.7,0,0,0-7.44,4.42,32.94,32.94,0,0,0-2.26,2.7l.15-.07a27.83,27.83,0,0,1,5.55-2.6C67.49,86,69.29,85.3,71,84.81c-1.1.72-2.51,1.24-3.53,2a13.45,13.45,0,0,0-2.87,2.44c-.13.19,0,.49.22.43a30.83,30.83,0,0,1,7-.79c2.12,0,4.51-.47,6.66-.14a45.13,45.13,0,0,0-6.74,2.14c-.17.08-.41.4-.21.56,1.13,1,2.65,1.44,3.82,2.49a17.8,17.8,0,0,1,4.2,6.34,31.87,31.87,0,0,1,2.21,9.28c-.15-.19-.29-.38-.46-.57-.73-.88-1.79-2.94-3-3.21a.35.35,0,0,0-.41.3c-.08.36,0,.32.09.71a10.78,10.78,0,0,1,.6,5.39c-.24,2-1,4.29-2.75,5.5-1,.74-2,1.57-3.06,2.34-2.4,1.77-5.23,2.34-8.08,3S58.91,124.3,56,125c-1,.23-2,.5-3,.78l-.79.12c-1.43.36-2.85.72-4.27,1.1a86.23,86.23,0,0,0-15.32,5.61,36.06,36.06,0,0,0-10.72,7.56l-.21.23a33.3,33.3,0,0,1,15.66,2l.37.16c1,.37,2,.77,2.92,1.2,2,.88,3.69,2.39,6,2.08,2.09-.27,4.58-2.15,6.45-3.08l2.42-1.25a25.16,25.16,0,0,1-2.56,5.66c-.15.21,0,.47.26.35a16.67,16.67,0,0,0,4.65-3.32c-.08.9-.23,1.8-.29,2.64a26.76,26.76,0,0,1-1,5.76,36.87,36.87,0,0,1-4.6,9.62,13,13,0,0,1-1.34,1.66,19.39,19.39,0,0,1-6.7,6.16,21.22,21.22,0,0,1-11,2.64c8.7,11.23,22.33,6.48,34.44-.07,5.09-3.63,9.56-8.53,14.29-12.23A42.18,42.18,0,0,1,99,152.65c-1.17.69-2.33,1.4-3.51,2.15a34.46,34.46,0,0,0-7.57,6.74c-1,1.13-3.21,3.74-2.9,5.39a.4.4,0,0,0,.15.26c1-.61,2.09-1.2,3.16-1.74a30.63,30.63,0,0,1,6.61-2.83A56.33,56.33,0,0,1,105.81,160a54.81,54.81,0,0,1,14.64-.4,41,41,0,0,1,5.29,1.08c.12-2.22.18-4.36,1.22-6.38a24.79,24.79,0,0,1,3.61-5.18c.36-.39.74-.78,1.15-1.16a36.64,36.64,0,0,1,3.73-2.45c1.86-1.08,3.63-2.41,5.77-2.71-1.68,1.64-2.22,4.56-2.76,6.64a13.54,13.54,0,0,0,1.86,10.53c1.78,2.84,3.84,5.06,7.37,5.06,3.88,0,7.09-1.46,10.28-3.59,4.1-2.72,6.21-7.38,7-12.25,0-.33.07-.66.09-1C165.3,142.85,164.74,136.82,161.44,132.44Z"/><path class="cls-23" d="M286.86,374.47a27.72,27.72,0,0,0-1.46,2.81,24.84,24.84,0,0,1-3.72,5.84l-1.24,1.43c.71-3.9,0-8.13-.81-12a43.74,43.74,0,0,0-2.77-8.57c-1.2-2.76-3.46-5-5.54-7.05-4.21-4.2-9.1-7.56-13.86-11.06a72,72,0,0,1-12.46-10c.89,1.78,1.9,3.52,2.76,5.31a29.7,29.7,0,0,0,3.38,5.32c-.54-.39-1.07-.77-1.54-1.16-2.1-1.73-4.32-3.35-6.45-5.05-4.32-3.43-8.58-6.92-12.64-10.68a60.77,60.77,0,0,1-11.14-12.92c-2.49-4.12-4.61-8.38-6.94-12.58,2.29,12.94,9.73,23.79,17.86,34.07.62.63,1.23,1.26,1.82,1.89,5,5.3,10.89,10,15.28,15.87a112.71,112.71,0,0,1,7.38,11c.78,1.47,1.54,3,2.33,4.45,2.3,4.25,4.65,9.19,3.33,14.11-.09.34.12.58.47.44,1.1-.47,1.51-2.06,1.64-3.14.19-1.52.28-3.05.47-4.57.15-1.24.1-2.5.27-3.73,1,2,1.2,4.52,1.54,6.73.47,3.11-.39,5.64-1.18,8.58-1.36,5.09-4.28,9.78-6.42,14.57s-4.91,9.51-6.89,14.49c-2.07,5.24-4.91,10.14-7.37,15.2-5.18,10.71-10,21.59-15.29,32.24-2.49,5-4.89,10-7.62,14.82-.92,1.64-1.81,3.29-2.8,4.88a8.61,8.61,0,0,0-1.2,2.36,45.53,45.53,0,0,0,13.59-11.7c2.49-4.49,4.37-9.51,6.4-14.15,7.94-18.14,18.9-34.88,31.56-50.07,6.5-7.8,14.2-15.23,18.64-24.48.3-.64.58-1.26.84-1.87a5.72,5.72,0,0,0,.11-.57C287.81,381.8,287.21,378.15,286.86,374.47Z"/><path class="cls-24" d="M357.06,329.72A60.49,60.49,0,0,1,371,336.85q2,1.41,4,3c-2.45-9.59-5.24-19.1-8.53-28.43-3.32-2.82-7.28-4.93-10.81-7.41l-.69-.51q-2.38-1.25-4.81-2.41c-3.3-1.6-7.16-2.9-10.08-5.17-8.8-6.84-8-19-7.3-29.68-3,8.43-5.25,17.14-7.61,25.8-.08.28-.66.69-.84.28-5.6-12.85-5-28.06-2-41.48,2.18-9.67,5.74-19.44,11.2-27.87a48.76,48.76,0,0,0-7.67,4,104.19,104.19,0,0,0-8.26,6.67c-5.53,5-10.95,10.71-14.44,17.35-2.61,5-4.18,10.31-5.87,15.61,1.45-1.69,2.64-3.68,4.25-5.24a39.18,39.18,0,0,1,4.33-3.82,28.17,28.17,0,0,1,5.05-3.1c-1,2.31-2.88,4.54-4.14,6.66a32.41,32.41,0,0,0-2.81,7.62c-1.51,5.15-1.78,11-1.83,16.36,0,4.45-.07,9.4,2,13.44.2.39.43.77.66,1.16,1.83,2.54,3.79,5,5.83,7.39,1.18,1.24,2.38,2.45,3.53,3.61,8.26,8.37,17.6,15.28,26.61,22.79,4.35,3.63,9.06,6.82,13.27,10.61,1.06,1,2.07,2,3.06,3.05,2.81,2,5.65,4,8.53,6-1.36-4.49-2.78-9-4.45-13.37-1.59-3.17-3.24-6.29-4.86-9.37C356.13,330,356.77,329.62,357.06,329.72Z"/><path class="cls-24" d="M610.32,206.47a126.25,126.25,0,0,0-14.79-13.61,66.13,66.13,0,0,0-9.81-6.62c-2.64-.11-5.52.75-7.9,1.26-1.27.27-2.53.59-3.78.91-2.52.72-5,1.52-7.5,2.46a103,103,0,0,0-17.15,8.28c-1.1.68-2.2,1.39-3.31,2.11,3.12.16,6.26-.13,9.39-.15,2,0,4,.43,6,.5a12.74,12.74,0,0,1,3.1.21,10.5,10.5,0,0,0-3,.64c-1.88.86-3.88,1.4-5.79,2.17a75.08,75.08,0,0,0-10.88,5.05,94.27,94.27,0,0,0-19.37,16c-5.54,5.8-9.58,13.12-12.6,20.49a95,95,0,0,0-4,12.34c-1,4-2.41,7.78-3.13,11.82-.11.62.68.55,1,.22,1.66-2,3.11-4.11,5-6,1.29-1.29,2.41-2.73,3.79-3.95a22.54,22.54,0,0,1,2.58-2.47c-.57,2.17-2.43,4.17-3.69,5.92a40.7,40.7,0,0,0-3.41,6.21,102.13,102.13,0,0,0-5.65,16,71.68,71.68,0,0,0-1.88,7.51c-.47,2.64.21,5.52.88,8.07a50.68,50.68,0,0,0,6.74,14.19c5.71,9,13.43,15.83,20.84,23.32,4.08,4.14,8,8.35,12,12.6,1.87,2,3.82,3.94,5.76,5.89,1.43,1.42,2.8,3.39,4.48,4.47a.62.62,0,0,0,.59,0c-4.79-9.17-10.16-18.06-14.16-27.62-4.3-10.3-7.45-22.12-3.88-33.12,6.2-19.18,20.69-33.48,35-47.34a60.13,60.13,0,0,1,5.69-6c-9.72,3.91-19.22,8.55-26.52,16-.26.27-1,.33-.69-.22,7-12.19,14.54-24,22.34-35.71a164.1,164.1,0,0,1,11.32-15.55c4-4.69,8.23-9.18,12.21-13.89.11-.13.43-.36.62-.21,5.52,4.37,12.39,8.18,18.13,12.93C613.32,209.82,611.83,208.11,610.32,206.47Z"/><path class="cls-5" d="M345.91,511.24a13,13,0,0,0,1.67-1.06c6.86-7.16,9.15-13.7,12.52-23.11,3.68-10.3,9.06-20,13.24-30.09,2-4.93,4.05-9.83,6.32-14.64a40.54,40.54,0,0,0,1.65-4.14c.15-.49.31-1,.45-1.49,1.95-6.67,4.27-13.93,2.08-20.84-1.29-4-3.36-7.74-5.13-11.58a87.52,87.52,0,0,1-.79,9.43l-.06.45c-.75,5.27-9.21,28.92-11.05,35.12-4.85,16.43-10.35,32.63-15.41,49-1.39,4.51-2.8,8.56-5.46,12.5C345.79,511,345.81,511.14,345.91,511.24Z"/><path class="cls-24" d="M522.56,145.51c-7.49,5.63-12.76,13.91-16.55,22.74,7.68-6.42,14.59-13.77,22.72-19.65,4.5-3.25,9.48-6.43,14.86-8a72.62,72.62,0,0,1,18.93-2.87c13.1-.34,26.46,1.52,39.26,4.2q6.57,1.37,13.05,3.16a44.49,44.49,0,0,0-9.12-7.35l-.37-.31a92.42,92.42,0,0,0-9.4-6.8c-3.49-2.24-7-4.47-10.46-6.72A81.3,81.3,0,0,0,575,118.61c-2.12-1-4.25-1.91-6.39-2.84a6,6,0,0,0-.78-.57,30,30,0,0,0-4.74-2c-3.77-1.36-7.62-2.5-11.5-3.52a172.85,172.85,0,0,0-22.07-4.34,87.28,87.28,0,0,0-10.84-.68c-3.16,0-6.89-.89-9.92.3-2.48,1-4.67,3.22-6.72,4.85-3,2.36-6,4.73-9,7-6.18,4.74-12,10-18.51,14.34-6,4-11.85,8.06-17.74,12.19-3.05,2.15-6.14,4.26-9.3,6.24-3.37,2.12-6.47,4.72-9.8,6.95s-7,3.58-10.42,5.25-6.91,3.6-10.49,5.15c-15.38,6.71-32.31,10-49,11.4a223.81,223.81,0,0,1-25.89.93A54.79,54.79,0,0,1,329,177.64c-3.33-.94-6-3.46-9.47-3.82-.53-.06-1.43.79-1,1.34a18.61,18.61,0,0,0,4.58,4.13,11.94,11.94,0,0,1,3.69,4.16,11.28,11.28,0,0,1-4.89-1.24,51.09,51.09,0,0,0-5.58-1.52,120.6,120.6,0,0,1-13-4.33c-8.62-3.4-17.46-6.46-25.87-10.33-4-1.85-7.81-4.06-11.66-6.22-3.59-2-7.29-3.95-10.78-6.16l.2.09c.53.21,1.23-.8.64-1-5.11-2-9.49-5.54-13.73-9a69.54,69.54,0,0,1-5.54-5,43.8,43.8,0,0,0-4.52-4.31,106.18,106.18,0,0,0,46.25,45c21.93,11.13,46.61,15.72,71.1,15.23,31.66-.63,63.52-7.39,93.31-18,10.81-3.84,21.44-8.42,32.27-12.3.94-.5,1.89-1,2.84-1.48s1.71-.86,2.57-1.27a253.8,253.8,0,0,1,42-16.71C522.83,144.73,522.88,145.27,522.56,145.51Z"/><path class="cls-24" d="M282.57,241.73c-1.89,1.56-3.81,3.09-5.65,4.71-2.75,2.39-5,5.79-7.91,8.06,2.05-3.26,4.33-6.36,6.61-9.47,2.19-2.95,5.15-5.15,7.4-8-6,1.9-11.81,5.13-15.49,10-.13.17-.79.43-.74,0a49.53,49.53,0,0,1,3.85-14.86c-7-2.34-13-7.55-19.15-11.55s-22.41-18.06-25-20.1c-1.43-1.12-2.88-2.17-4.19-3.41-.32-.31-.74-.92-1.16-1.09a5,5,0,0,1-1.82-.88,18.76,18.76,0,0,0,4.39-5,52.23,52.23,0,0,0,4.11-9,92.67,92.67,0,0,0-.14-20.46c-.39,1.62-.67,3.26-1.17,4.85a39.37,39.37,0,0,1-3.64,7.78c-1.56,2.69-3.87,5.06-5.77,7.52a32.88,32.88,0,0,1-5.37,5.73,12.85,12.85,0,0,0,1-2.42c.4-1.91,1.06-3.81,1.56-5.71.29-1.11.66-3.71,0-4.92-2.27,6.35-5.07,12.74-9.31,18-.59.72-1.24,1.48-1.94,2.22a41.17,41.17,0,0,0,5.09-1.58c3-1.11,5.55-2.92,8.28-4.46-.08.12-.16.23-.24.36a21.27,21.27,0,0,1-4.85,4.76c-3.32,2.66-7.09,4.87-10.29,7.64-.2.17-.45.69,0,.74a7.9,7.9,0,0,0,3.92-.9,26,26,0,0,1,6.54-2.3,49.23,49.23,0,0,0-4.15,3.3c-1.32,1.23-3.23,2.45-4.26,4,0,.07-.07.15-.11.22,5.29,5.31,10.43,10.77,16,15.74,2.57,2.27,5.28,4.4,7.79,6.74,1.88,1.75,4.1,3.69,5.05,6.15.78-.76,1.47-1.75,2.18-2.34a44.72,44.72,0,0,1,3.55-3.18,31.34,31.34,0,0,1-2.83,4.25q-1.89,2.77-3.52,5.72a63.3,63.3,0,0,0-4.66,11.15c-.07.21-.13.41-.19.61a64.15,64.15,0,0,0,.6,16c.79-1.45,1.48-3,2.3-4.41a65.4,65.4,0,0,1,8.1-11.42,87.81,87.81,0,0,1,9.33-8.55c-.1.21-.21.41-.31.63-2.41,5.16-4.41,10.9-4.49,16.65,0,.55.56.34.77.06,3.15-4.18,6.41-8.73,11.12-11.24-.68,1.14-1.79,2.17-2.27,3.36-.91,2.23-2.23,4.22-2.86,6.57-.24.88-.48,1.76-.71,2.64-.2.64-.36,1.3-.52,1.95a45.11,45.11,0,0,0,.43,10.25c.2.83.41,1.64.65,2.44.78,2.64,1.87,5.25,2.51,7.94a76.91,76.91,0,0,0,13.79,7.05q4,1.63,8.08,3.16a49.14,49.14,0,0,1-2.56-23.49,45.88,45.88,0,0,1,6-17.46,51.88,51.88,0,0,1,5.65-8,54.11,54.11,0,0,0,4.58-5.43C284.87,239.4,283.82,240.69,282.57,241.73Z"/><path class="cls-5" d="M625.64,421.51c-1.62-5-6.4-10.09-10.68-13a30.8,30.8,0,0,0-7.27-3.3,20.17,20.17,0,0,0-4.67-.9,37.3,37.3,0,0,1,8,10.56A108.07,108.07,0,0,1,618.68,434c.11.34-.49.93-.78.59a17.3,17.3,0,0,0-3.89-3.32,21.67,21.67,0,0,1,.71,3c0,.19-.16.4-.31.49a11.77,11.77,0,0,0-2.87,2.81,10,10,0,0,0-.8,1.33c-5.27,14.14-27.7,46.68-29.83,50s-6.25,8.12-8.62,11.45c-1.6,2.24-5,4.89-8.09,6.93a19.69,19.69,0,0,0,5,.14c4.16-.56,8.34-1.69,11.7-4.32l.77-.62A83.56,83.56,0,0,0,592.17,487c3.33-6,6.29-12.21,9.61-18.21,3-5.52,6.38-10.84,9.49-16.31a95.55,95.55,0,0,1,12.29-16.8c1.46-1.61,3.19-3.19,3.57-5.44C627.62,427.27,626.56,424.31,625.64,421.51Z"/><path class="cls-23" d="M538.26,415.14a28.53,28.53,0,0,1-4.37-7.85c-.4-1.19-.77-2.4-1.14-3.6a.41.41,0,0,0-.1.14c-.79,1.91-.74,4.46-1.21,6.52s-.77,4.22-1.08,6.34c-.41-2-1-4-1.22-6,0,0,0-.06,0-.08-1.15,7.69-4.82,14.7-8.9,21.42-.17.33-.33.67-.51,1-3.59,6.55-7.07,13.11-10.42,19.79-1.55,3.09-3.48,6-5,9.05-1.71,3.38-3.6,6.72-5.39,10.06a99.16,99.16,0,0,1-5.62,9.76,44.2,44.2,0,0,0-2.37,4.25,25.87,25.87,0,0,1-3.53,4.41.35.35,0,0,0-.06.31,25.79,25.79,0,0,0,5.59-3.17,31.33,31.33,0,0,0,7.07-7c4.19-5.76,7.37-12.09,10.93-18.24a132.62,132.62,0,0,1,7.79-11.89c1.06-1.82,2.13-3.63,3.23-5.42a38.57,38.57,0,0,1,5.08-7.17,16.46,16.46,0,0,1,5.33-3.71,22.77,22.77,0,0,1,3.86-1.14,18.78,18.78,0,0,0-6.31-.93l1-.51c1.58-.81,3.68-1.87,5.47-1.88a3.1,3.1,0,0,0,1.72-.34.77.77,0,0,0,.16-.15,11.29,11.29,0,0,0-1.88-2.25,25.17,25.17,0,0,0-5.21-.72c2.08-2,6.06-2.85,8.49-4,1.42-.66,2.1-.24,3.38-.5a1.2,1.2,0,0,0,.61-.37A78.1,78.1,0,0,1,538.26,415.14Z"/></g></g></svg>