<svg xmlns="http://www.w3.org/2000/svg" viewBox="0 0 822.02 964.67"><defs><style>.cls-1{isolation:isolate;}.cls-2,.cls-6,.cls-7{fill:#0bd0f4;}.cls-3{fill:#08aec4;}.cls-33,.cls-4,.cls-9{fill:#0087bb;}.cls-5{fill:#006b8c;}.cls-12,.cls-18,.cls-19,.cls-20,.cls-23,.cls-33,.cls-37,.cls-40,.cls-6,.cls-8,.cls-9{mix-blend-mode:multiply;}.cls-14,.cls-17,.cls-35,.cls-43,.cls-44,.cls-7{mix-blend-mode:screen;}.cls-14,.cls-17,.cls-23,.cls-32,.cls-33,.cls-37,.cls-8{opacity:0.5;}.cls-10,.cls-17,.cls-19{fill:#fed600;}.cls-11,.cls-20{fill:#fea300;}.cls-13{fill:#febd00;}.cls-14,.cls-24,.cls-32{fill:#fff;}.cls-15,.cls-43{fill:#bca99c;}.cls-16{fill:#8c7567;}.cls-18{fill:#fe9d00;}.cls-21,.cls-23{fill:#026d8e;}.cls-22{fill:#025163;}.cls-25{fill:#d8906e;}.cls-26{fill:#b8c9d3;}.cls-27{fill:#6bb9ee;}.cls-28{fill:#a1cfea;}.cls-29{fill:#5585be;}.cls-30{fill:#192101;}.cls-31{fill:#dedede;}.cls-34,.cls-35{fill:#1e2d34;}.cls-36,.cls-37{fill:#ef7475;}.cls-38{fill:#feb400;}.cls-39{fill:none;}.cls-40{opacity:0.7;}.cls-41{fill:#cdcdcc;}.cls-42{fill:#adadac;}</style></defs><g class="cls-1"><g id="Layer_1" data-name="Layer 1"><path class="cls-2" d="M567.61,122.36s-8-52.93,39-88.71c0,0,1.63,14.3-.29,26.81C626.72,25.61,668.64-.72,711.4,1.23,712.78,20,696.86,45.11,677,62.44,693,51.27,705.24,49.56,705.24,49.56s.3,34.12-29.61,62.06c19.56-13.4,29.61-13.12,29.61-13.12S702.18,118.62,678.7,141c21.25-3.64,41.07,10.34,45,13.69-14.26-1.38-22.08,3.64-22.08,3.64s9.3,6.13,22.34,30c15.3,28,15.3,16.79,41.37,54.77s75.27,88.69,46.95,161c-3.72-18.63-22.34-41-22.34-41s26.81,31.3,2,78.3c0,0-2.74-21.29-15.42-35.09,11.17,39.14-.38,67.82-9.32,81.22,0,0-3.71-16.37-12.66-27.19,8.19,26.83-6.35,54.41-46.21,85,5.59-10.8,2.24-33.15,2.24-33.15s-.56,53.65-49.18,79.35c-37.46,17.89-62.59,19-98.37,45.29,0,0,97.24-98.94,77.13-183.91S574.48,205.47,567.61,122.36Z"/><path class="cls-3" d="M563,637.83a1.15,1.15,0,0,1-.85-.37,1.13,1.13,0,0,1,.06-1.53c1-1,96.58-99.47,76.83-182.84-4.78-20.23-11.12-45.23-17.84-71.74-22-87.09-49.49-195.48-54.7-258.89-.08-.46-7.52-53.95,39.41-89.71a1.19,1.19,0,0,1,1.13-.13,1.09,1.09,0,0,1,.65.9,127.55,127.55,0,0,1,.3,22C629.65,22.14,668.78,0,706.9,0c1.53,0,3,.06,4.55.09a1.15,1.15,0,0,1,1.07,1.06c1.16,15.34-9.6,36.73-26.83,54.6,11.19-6.1,19-7.23,19.41-7.29a1.28,1.28,0,0,1,.89.26,1.19,1.19,0,0,1,.39.84c0,.31,0,29.57-23.36,56.06,13.76-8,21.25-8.25,22.18-8.25a1.08,1.08,0,0,1,.88.38,1.21,1.21,0,0,1,.29.9c-.14.81-3.18,19.38-24.5,40.78a38.11,38.11,0,0,1,4-.18c17.71,0,33.83,10.5,38.55,14.55a1.13,1.13,0,0,1,.31,1.28,1.1,1.1,0,0,1-1.15.7,43.63,43.63,0,0,0-4.82-.26,36.79,36.79,0,0,0-15.08,2.94c3.14,2.67,11.06,10.59,21.27,29.27,7.8,14.29,11.63,18.32,16.92,23.89s11.69,12.28,24.39,30.81c3.35,4.87,7.08,9.95,11,15.34,27.16,37,61,83.12,36.08,146.68a1.15,1.15,0,0,1-1.14.69,1.07,1.07,0,0,1-1-.9c-1.76-8.76-6.89-18.38-11.75-26.08,5.11,13.9,8,36.12-6.52,63.72a1.09,1.09,0,0,1-1.19.57,1.1,1.1,0,0,1-.9-.94c0-.21-2.36-17.37-11.91-30.53,10,41.4-5.58,69.32-10.78,77.14a1.11,1.11,0,0,1-1.14.45,1,1,0,0,1-.88-.83c0-.16-2.83-12.1-9.13-22.12,4.81,25.74-11,52.13-48,80.51a1.11,1.11,0,0,1-1.66-1.38c2.85-5.52,3.29-14.3,3.06-21.36-3.09,17.37-13.5,50.55-48.48,69.05-13.85,6.62-25.89,10.89-37.55,15.06-19.64,7-38.18,13.58-60.7,30.13A1,1,0,0,1,563,637.83ZM605.67,35.78c-44.12,34.93-37,85.91-36.95,86.42,5.22,63.29,32.62,171.57,54.67,258.6,6.71,26.51,13.05,51.53,17.83,71.77,10.49,44.27-11.14,92.22-31.15,124.64A390.25,390.25,0,0,1,570.73,630c19.09-12.56,35.57-18.42,52.88-24.61,11.6-4.12,23.6-8.41,37.28-14.94,47.45-25.09,48.55-77.85,48.55-78.38a1.16,1.16,0,0,1,1-1.1,1.12,1.12,0,0,1,1.2,1c.12.82,2.67,18.35-.81,29.94,36.53-28.87,50.46-55.46,42.6-81.23a1.13,1.13,0,0,1,.53-1.33,1.15,1.15,0,0,1,1.39.29c7,8.45,10.82,20.06,12.24,25.13,6.2-10.21,19.22-38.18,7.81-78.14a1.15,1.15,0,0,1,.53-1.29,1.16,1.16,0,0,1,1.38.24c9.86,10.73,13.78,25.68,15.1,32.31,20.68-42.28-.67-70.71-3.23-73.87a.94.94,0,0,1-.08-.15h0a1.34,1.34,0,0,1-.13-1.12,1.09,1.09,0,0,1,.29-.41,1,1,0,0,1,1.37-.08h0v0h0a.22.22,0,0,1,.09.1.53.53,0,0,1,.13.15c.05,0,.05.05.05.05,1.8,2.17,16.7,20.74,21.55,37.72,22-60.68-10.7-105.25-37-141.19-4-5.39-7.67-10.46-11-15.38-12.61-18.39-19-25.13-24.17-30.52-5.41-5.73-9.33-9.82-17.25-24.36-12.72-23.21-21.9-29.55-22-29.6a1.09,1.09,0,0,1-.49-.92,1.13,1.13,0,0,1,.5-.95c.26-.15,6.44-4.05,17.75-4.05.45,0,.91,0,1.33,0-6.52-4.59-19.83-11.84-34.22-11.84a43.38,43.38,0,0,0-7,.58,1.09,1.09,0,0,1-1.17-.6,1.14,1.14,0,0,1,.22-1.32c19.43-18.47,24.73-35.51,25.92-40.41-3.34.43-12.65,2.56-27.59,12.81a1.11,1.11,0,0,1-1.39-1.73c25.85-24.19,28.87-53.33,29.22-59.89-3.54.8-13.89,3.63-26.42,12.42a1.1,1.1,0,0,1-1.52-.22,1.12,1.12,0,0,1,.15-1.54C697.16,43.36,711,19.17,710.35,2.3,670.22.9,628.48,24.83,607.27,61a1.12,1.12,0,0,1-1.35.47,1.1,1.1,0,0,1-.73-1.22C606.67,50.8,606,40.13,605.67,35.78Z"/><path class="cls-4" d="M593.12,242.22c1.5,43.22,33.17,11.2,50.13-46.57,14.78-39.53,44.86-46.44,80.09-41.28-4.58-3.77-23.93-16.94-44.64-13.41,23.48-22.34,26.54-42.46,26.54-42.46s-10-.28-29.61,13.12c29.91-27.94,29.61-62.06,29.61-62.06S693,51.27,677,62.44C696.86,45.11,712.78,20,711.4,1.23,668.64-.72,626.72,25.61,606.3,60.46c1.92-12.51.29-26.81.29-26.81-46.94,35.78-39,88.71-39,88.71.21,2.46.45,5,.72,7.63,2,5.41,4.19,11,6.92,16.84C590.13,179.63,591.63,199,593.12,242.22Z"/><path class="cls-5" d="M602.41,263.35h0c-4.41,0-9.81-3.66-10.4-21.06-1.45-41.91-2.72-61.87-17.79-95-2.44-5.26-4.64-10.66-7-16.92-.33-2.9-.56-5.46-.76-7.92-.08-.46-7.52-53.95,39.41-89.71a1.19,1.19,0,0,1,1.13-.13,1.09,1.09,0,0,1,.65.9,127.55,127.55,0,0,1,.3,22C629.65,22.14,668.78,0,706.9,0c1.53,0,3,.06,4.55.09a1.15,1.15,0,0,1,1.07,1.06c1.16,15.34-9.6,36.73-26.83,54.6,11.19-6.1,19-7.23,19.41-7.29a1.28,1.28,0,0,1,.89.26,1.19,1.19,0,0,1,.39.84c0,.31,0,29.57-23.36,56.06,13.76-8,21.25-8.25,22.18-8.25a1.08,1.08,0,0,1,.88.38,1.21,1.21,0,0,1,.29.9c-.14.81-3.18,19.38-24.5,40.78a38.36,38.36,0,0,1,4-.18c19.68,0,36,12.48,38,14.09a1.12,1.12,0,0,1,.64,1,1.18,1.18,0,0,1-1.15,1.11h-.19a127.05,127.05,0,0,0-18.75-1.5C674.15,154,655,167.37,644.3,196,633.24,233.74,614.82,263.35,602.41,263.35Zm3.26-227.57c-44.12,34.93-37,85.91-36.95,86.42.22,2.51.45,5,.73,7.66,2.21,5.95,4.38,11.28,6.8,16.52,15.25,33.54,16.52,53.61,18,95.8.42,12.2,3.32,18.91,8.17,18.94h0c9.84,0,27.85-25.14,39.75-65.77,11-29.37,31.35-43.6,62.27-43.6a126,126,0,0,1,14.71.93c-5.9-4-18.61-11.2-33.27-11.2a43.66,43.66,0,0,0-7,.58,1.09,1.09,0,0,1-1.17-.6,1.14,1.14,0,0,1,.22-1.32c19.4-18.45,24.71-35.51,25.92-40.41-3.34.43-12.65,2.58-27.59,12.81a1.11,1.11,0,0,1-1.39-1.73c25.89-24.21,28.88-53.33,29.22-59.89-3.54.8-13.89,3.63-26.42,12.42a1.1,1.1,0,0,1-1.52-.22,1.12,1.12,0,0,1,.15-1.54C697.16,43.36,711,19.17,710.35,2.3,670.18.92,628.48,24.83,607.27,61a1.12,1.12,0,0,1-1.35.47,1.1,1.1,0,0,1-.73-1.22C606.67,50.8,606,40.13,605.67,35.78Z"/><path class="cls-2" d="M790.06,363.2l-.12-.15Z"/><path class="cls-3" d="M790,364.28a1,1,0,0,1-.71-.32h0s0,0,0-.07h0a.68.68,0,0,1-.14-.18,1.08,1.08,0,0,1,.15-1.53,1.12,1.12,0,0,1,1.54.1,1.24,1.24,0,0,1,0,1.68h0A1.11,1.11,0,0,1,790,364.28Z"/><path class="cls-5" d="M650.74,120.69c.19-.52.19-1-.09-1.12,0-.09,0-.13,0-.21,0-.57-.84.28-.84.61h0A110.79,110.79,0,0,0,623,145.11c2.47-14.68,3-29.61,3.07-44.49.12-12.48-1.22-25.5-6-37.11,0-.49-.34-.75-.93-.18A153,153,0,0,0,601.79,83c.59-4.81,1-9.61,2-14.37.89-3.94,2.38-7.69,3.48-11.55.12-.47-.4-.21-.48,0-3.61,9.05-6.83,17.76-6.43,27.71-2.12,3-4.16,6-6,9.1-7.12,11.76-10.75,19.2-8.69,32.86.08.64.92-.32.92-.65,0-6.79-1.15-11.4,1.82-18.83,2.58-6.48,7.31-12.48,11-18.43,5.4-8.68,13.32-16.07,20-23.78,2.4,13.63,4.83,26.42,4.56,40.47-.29,14.32-2,28.34-3.23,42.59a77.26,77.26,0,0,0-12.55,29.2c-.13.7.6.2.71-.19,6.19-23.86,21.8-40.75,40.86-55.41.05,15.7.76,31.86-1.61,47.39-1.33,8.91-2.84,17.73-4.92,26.47-2.25,9.49-7.7,18.74-11.75,27.58-.68,1.43.81,1.62,1.47.47C650.52,192.56,654.26,155.87,650.74,120.69Z"/><path class="cls-5" d="M679.94,58.92c-4.48,5-10.42,8.17-15.92,11.87-.42.3-1,1.8-.07,1.35,6.06-2.81,12.29-7.34,16.3-12.71C680.54,59.05,680.42,58.39,679.94,58.92Z"/><path class="cls-3" d="M691.33,384.19l-1.13-.43c-1.75-14.21-5.92-27.68-13.48-39.92-7.91-12.78-20.26-18.62-33.82-23.52-.21-.08-.49.39-.31.49,12.35,6.59,21.68,10.35,30.78,21.79,9.34,11.68,12,26.34,15.06,40.5-6.74-2.53-13.85-3.91-20.43-7a70.38,70.38,0,0,1-21-15.44c-.15-.19-.41.2-.31.34,10,14.38,25.63,20.69,42.27,24.55,0,.15.06.28.09.43.11.54.54.23.89-.17a3.17,3.17,0,0,1,.49.12C691,386,692,384.47,691.33,384.19Z"/><path class="cls-3" d="M711.29,389.19c-.17-.5-.78.29-.69.62,5.49,23.29,3.88,53.56-12.9,72.17-1.29-18.85-9.09-37.45-22.3-50.88-.21-.22-.72.5-.52.73,12.7,14.32,19.45,32.59,21.57,51.53-.2.19-.37.42-.58.63-.59.58-.87,2.56.31,1.56C716.23,448.73,719.24,412.43,711.29,389.19Z"/><path class="cls-2" d="M790.06,363.2l-.12-.15Z"/><path class="cls-3" d="M790,364.28a1,1,0,0,1-.71-.32h0s0,0,0-.07h0a.68.68,0,0,1-.14-.18,1.08,1.08,0,0,1,.15-1.53,1.12,1.12,0,0,1,1.54.1,1.24,1.24,0,0,1,0,1.68h0A1.11,1.11,0,0,1,790,364.28Z"/><path class="cls-6" d="M765.33,243.05a.52.52,0,0,1-.07-.11c21.44,38.89,23.1,83.86,23.1,83.86s-5.59-33.52-45.81-65.94C764.9,297.75,766,369.31,766,369.31s-2.14-15.43-30.72-55.92c14.5,22.83,23.54,69.65,18.41,124.08-1.12-12.29-12.3-29.05-43.61-69.29,8.94,24.58,7.83,59.21-12.41,93.8-.12-9,.12-18.91-8.82-34.59s-8.94-20.1.08-41.86c9-56.41-40.69-126.9-60.06-158.2s-9.84-56,20.88-105.54C633.32,133,609.72,162,606.63,187.88c-22.84-49.75-11.94-75.7,12.8-122.75-25.57,21.39-34.08,52.74-34.08,52.74-6.53-26.62.11-53,8.12-72.33-32.16,34.53-25.86,76.82-25.86,76.82,6.87,83.11,52.41,245.53,72.53,330.47S563,636.74,563,636.74c35.78-26.28,60.91-27.4,98.37-45.29,48.62-25.7,49.18-79.35,49.18-79.35s3.35,22.35-2.24,33.15c39.86-30.55,54.4-58.13,46.21-85,9,10.82,12.66,27.19,12.66,27.19,8.94-13.4,20.49-42.08,9.32-81.22,12.68,13.8,15.42,35.09,15.42,35.09,23.84-45.13,0-75.81-1.87-78.15l-.12-.15.12.15c1.36,1.66,18.64,22.94,22.22,40.83C840.6,331.74,791.41,281.06,765.33,243.05Z"/><path class="cls-7" d="M703.6,7C695,34.72,676.3,60.59,654,78.74c-2.08,1.68-2.76,7.27.93,4.63C679.28,65.84,698.72,36,705,6.56,705.29,5.17,703.83,6.2,703.6,7Z"/><path class="cls-7" d="M692.66,71.5A136.65,136.65,0,0,1,681.92,99c-4.47,8.58-11.53,14.63-17.29,22.25-1,1.33-.57,3.48,1.09,1.74C673,115.46,679,109.64,684,100.26a122.66,122.66,0,0,0,10.43-29.21C694.82,69.36,692.93,70.56,692.66,71.5Z"/><path class="cls-7" d="M704.82,149.88c-13.71-3.62-28.88-.76-39.89,8.15-.78.65-1.67,3.72.18,2.71,11.6-6.15,24.18-4.23,36.7-3.81C704.45,157,708.22,150.79,704.82,149.88Z"/><path class="cls-7" d="M763.74,240.26c-9.27-15.75-21.29-24-37-32.59-1.18-.62-2.93,2.18-1.82,3,28.28,20.61,46.25,49.72,53.91,84.11.56,2.52,3.64-1.5,3.49-3C780.67,273.89,772.79,255.66,763.74,240.26Z"/><path class="cls-7" d="M738.74,250.74c-.79-1.34-3.09,1.66-2.42,2.87,16,28.73,19.21,58.2,21.13,90.39.17,2.75,3.11-.3,3.2-1.79C762.3,310.1,755.3,278.42,738.74,250.74Z"/><path class="cls-7" d="M729.57,306c-.55-1-2.06,1.12-1.66,1.93,16.69,35.18,24.1,66.2,21.73,105.53-.18,2.68,3-.33,3.18-1.79C757.06,371,749.61,340.86,729.57,306Z"/><g class="cls-8"><path class="cls-9" d="M807.7,307.52c7.08,39.52-.5,54.72-.5,54.72s-8.78-12.34-31.63-31.67c14.06,28.12,13.2,78.2,13.2,78.2a92.82,92.82,0,0,0-22-29.85c8.79,16.69,4.37,82.58,4.37,82.58s-4.37-10.56-32.49-30.76c10.55,25.47-11.42,64.13-11.42,64.13l2.63-59.75s-10.53,46.58-49.2,73.82c13.2-44.81,2.64-72.92-20.2-105.42s-21.09-50.08-21.09-50.08S664,377.15,686,379.78c-43.94-16.68-62.38-66.75-61.5-87,0-31.59-16.69-89.59-40.41-154.59-9-23.08-11.34-43.48-10.53-60.33-8.95,24-5.92,44.49-5.92,44.49,6.87,83.11,52.41,245.53,72.53,330.47S563,636.74,563,636.74c35.78-26.28,60.91-27.4,98.37-45.29,48.62-25.7,49.18-79.35,49.18-79.35s3.35,22.35-2.24,33.15c39.86-30.55,54.4-58.13,46.21-85,9,10.82,12.66,27.19,12.66,27.19,8.94-13.4,20.49-42.08,9.32-81.22,12.68,13.8,15.42,35.09,15.42,35.09,23.84-45.13,0-75.81-1.87-78.15l-.12-.15.12.15c1.36,1.66,18.64,22.94,22.22,40.83C827,366.43,820.77,334.68,807.7,307.52Z"/></g><path class="cls-10" d="M92.39,922.89c-1,1.12-1.85,2.29-2.77,3.41C90.56,925.18,91.48,924.07,92.39,922.89Z"/><path class="cls-11" d="M89.62,927.42a1,1,0,0,1-.69-.26,1.11,1.11,0,0,1-.17-1.55c.89-1.16,1.83-2.31,2.78-3.43a1.13,1.13,0,0,1,1.57-.16,1.11,1.11,0,0,1,.17,1.56c-.63.82-1.28,1.62-1.92,2.39l-.87,1A1.15,1.15,0,0,1,89.62,927.42Z"/><path class="cls-10" d="M162.82,810C145.5,844.65,114,864.2,105.06,859.74c-3.55-1.78-3.61-6.1-2.42-10.66-28.41,28.11-58.44,46.43-76.19,59.84-29.63,22.36-31.3,32.43-15.09,46.39,21.59,17.82,52.05,3.24,78.26-29,.92-1.12,1.82-2.29,2.77-3.41,11.51-13.57,43-49.9,62.25-78.93C155.77,837.46,158.44,827,162.82,810Z"/><path class="cls-11" d="M32.42,964.11h0a33.48,33.48,0,0,1-21.78-8C3.11,949.67-.16,944.3,0,938.67c.27-8.18,7.73-17,25.75-30.64,4.51-3.39,9.9-7.17,15.62-11.21,17.51-12.27,39.31-27.58,60.47-48.54a1.17,1.17,0,0,1,1.36-.18,1.12,1.12,0,0,1,.52,1.25c-1.31,5-.67,8.13,1.83,9.39a6,6,0,0,0,2.61.51c11.73,0,38.47-19.4,53.65-49.76a1.11,1.11,0,0,1,1.38-.56,1.14,1.14,0,0,1,.71,1.34c-4.23,16.48-7,27.35-8.18,33.88a1,1,0,0,1-.18.41c-17.59,26.51-45.4,59.18-58.77,74.89l-3.54,4.17c-.94,1.13-1.84,2.25-2.74,3.37C71,950.92,50.41,964.11,32.42,964.11Zm68.49-111.75c-20.51,19.82-41.37,34.45-58.25,46.31-5.68,4-11.07,7.76-15.55,11.15-17.18,13-24.63,21.63-24.87,28.95-.15,4.86,2.88,9.7,9.84,15.71a31.26,31.26,0,0,0,20.34,7.38c17.29,0,37.32-12.84,56.34-36.25.89-1.16,1.83-2.31,2.78-3.43L95.07,918c13.31-15.63,41-48.13,58.5-74.51,1-5.39,3-13.55,6-25.22-16,26.61-40.12,43.19-51.37,43.19a8.25,8.25,0,0,1-3.6-.74C101.71,859.31,100.49,856.49,100.91,852.36Z"/><path class="cls-10" d="M244.21,844.26c-6,.3-13.57-7.85-13.86-30.75-.25.47-.54,1-.78,1.5-.54,36.65-10.08,70.64-17.33,91.29.21-.45.32-.73.32-.73s0,2.79-3.36,18.44c-6.71,22.93,27.4,31.86,43.61-20.11,8.46-31.21,11.23-75.07,12.08-106.31C258.5,823.65,249,844,244.21,844.26Z"/><path class="cls-11" d="M220.23,943.32a12.48,12.48,0,0,1-10.3-4.93c-2.83-3.77-3.46-9-1.78-14.71,2.15-10.1,2.91-14.76,3.16-16.78a1.09,1.09,0,0,1-.11-1c7.58-21.62,16.73-55,17.25-90.95a.87.87,0,0,1,.12-.47l.76-1.51a1.13,1.13,0,0,1,1.26-.59,1.14,1.14,0,0,1,.87,1.07c.3,23.43,7.95,29.67,12.45,29.67C247.65,843,257,825,263.8,797.31a1.08,1.08,0,0,1,1.23-.82,1.09,1.09,0,0,1,1,1.12c-.85,31.35-3.63,75.29-12.11,106.57C244.88,933.05,230.6,943.32,220.23,943.32Zm-6.54-37.71c0,.41-.22,3.88-3.39,18.65-1.49,5.08-1,9.61,1.42,12.79a10.29,10.29,0,0,0,8.51,4c9.14,0,22.88-9.81,31.51-37.49,7.57-27.94,10.56-66.13,11.7-96.26-5.7,19.8-13.66,37.79-19.17,38.08h-.36c-5.24,0-11.26-5.32-13.65-19.35C228.32,857.46,220.46,886.06,213.69,905.61Z"/><path class="cls-10" d="M157.78,854.71c-3.45-.64-4.61-2.35-3.14-10.75-19.29,29-50.74,65.36-62.25,78.93-9.49,14.54-14.53,32.42,1.67,38.57,32.44,10.62,50.32-20.68,68.76-60.35-.53,1.63-1,3.22-1.53,4.8,9.71-25.65,21.84-60.94,27-88.93C181.46,837.75,163.7,855.76,157.78,854.71Z"/><path class="cls-11" d="M106.35,964.67a40,40,0,0,1-12.63-2.16c-5.43-2-8.9-5.46-10.43-10.11C80,942.16,87,929.12,91.46,922.28L95.07,918c13.35-15.69,41.11-48.29,58.63-74.69a1.12,1.12,0,0,1,2,.82c-1.52,8.77.07,9.06,2.25,9.47l.35,0c5.64,0,22.22-16.76,28.89-37a1.16,1.16,0,0,1,1.34-.75,1.11,1.11,0,0,1,.82,1.28c-5.2,28.38-17.58,64.13-27.06,89.14a1.13,1.13,0,0,1-1,.72h0C146.58,938,130.92,964.67,106.35,964.67Zm46.58-116.21c-17.62,25.76-43.44,56-56.15,71l-3.54,4.17c-7.16,11-10,21.27-7.82,28.09,1.29,4,4.35,6.91,9,8.7a38.24,38.24,0,0,0,11.88,2c24.68,0,40.31-29.24,55.47-61.82a1.14,1.14,0,0,1,.44-.48c7.87-21.11,17.13-48.31,22.62-72.21-8.11,15.75-20.87,27.94-26.55,27.94-.26,0-.51,0-.73,0C154,855.15,152.65,853.28,152.93,848.46Z"/><path class="cls-10" d="M199.7,850.8c-7.81,1.13-12.29-6.72-10.61-36.32-.25.84-.53,1.67-.8,2.5-5.16,28-17.29,63.28-27,88.93-9.37,29.52-11.6,42.31,4.32,45.48,25.43,3.13,44.1-39,46.63-45.09,7.25-20.65,16.79-54.64,17.33-91.29C221.81,830.21,207.28,849.71,199.7,850.8Z"/><path class="cls-11" d="M168.3,952.67a24.08,24.08,0,0,1-2.81-.17c-5.3-1-8.79-3.16-10.7-6.44-4.1-6.92-1.52-18.58,5.44-40.49,9.44-25,21.79-60.6,27-88.78l.25-.78c.2-.61.41-1.24.58-1.84a1.12,1.12,0,0,1,2.2.36c-1.06,18.55.27,29.53,4,33.5a5.73,5.73,0,0,0,5.32,1.65c6.82-1,21-19.36,29-35.17a1.13,1.13,0,0,1,1.27-.61,1.16,1.16,0,0,1,.85,1.11c-.54,36.29-9.74,69.9-17.38,91.66C210.07,914.4,192.75,952.67,168.3,952.67Zm19.32-126.82c-5.84,26.62-16.76,57.94-25.3,80.45-6.57,20.76-9.26,32.47-5.62,38.63,1.63,2.75,4.52,4.46,9.12,5.36a19.87,19.87,0,0,0,2.48.16c23.53,0,41-40,42.93-44.58,7.22-20.63,15.89-52,17.1-86.19-7.83,14-20.73,31.12-28.46,32.22a7.91,7.91,0,0,1-7.27-2.33C189.26,846,187.63,838.39,187.62,825.85Z"/><g class="cls-12"><path class="cls-10" d="M105.06,859.74c-3.55-1.78-3.61-6.1-2.42-10.66a373.2,373.2,0,0,1-41.86,35.26c9.19-5.73,35.83-21.79,43.31-19.71,8.54,2.39-34.33,86-91,91.94,21.48,15.69,51,1.12,76.52-30.27.92-1.12,1.82-2.29,2.77-3.41,11.51-13.57,43-49.9,62.25-78.93,1.13-6.5,3.8-16.94,8.18-34C145.5,844.65,114,864.2,105.06,859.74Z"/></g><g class="cls-12"><path class="cls-13" d="M61,947.75c-4.21,4.22-8.51,8.18-12.88,12,13.81-5.29,28.21-17,41.55-33.43.92-1.12,1.82-2.29,2.77-3.41,11.51-13.57,43-49.9,62.25-78.93,1-5.93,3.36-15.23,7.1-29.77C133,862.53,101.09,907.45,61,947.75Z"/></g><g class="cls-12"><path class="cls-10" d="M188.29,817c-6.83,20.77-24.59,38.78-30.51,37.73-3.45-.64-4.61-2.35-3.14-10.75-19.29,29-50.74,65.36-62.25,78.93-4.1,6.29-7.36,13.18-8.45,19.5,14.4-16.56,36.26-41.7,52.17-60,23.87-27.49,28.44,23.57-29.2,81.11,24.61-.44,40.05-28.28,55.91-62.36-.53,1.63-1,3.22-1.53,4.8C171,880.26,183.13,845,188.29,817Z"/></g><g class="cls-12"><path class="cls-13" d="M188.29,817a82.41,82.41,0,0,1-16,27.5c-8.52,33.35-19.19,65.73-37.54,95.76-4.12,6.74-8.55,13.09-13.16,19.28,16.58-8.81,28.83-31.66,41.26-58.41-.53,1.63-1,3.22-1.53,4.8C171,880.26,183.13,845,188.29,817Z"/></g><g class="cls-12"><path class="cls-10" d="M199.7,850.8c-7.81,1.13-12.29-6.72-10.61-36.32-.25.84-.53,1.67-.8,2.5-5.16,28-17.29,63.28-27,88.93-4.21,13.26-6.95,23.1-7.27,30.26,8.47-15.43,19.47-35.75,26.82-50.44,12.18-24.37,37.44-12.71,3.29,60.18,15.63-11.12,26.25-35.14,28.11-39.61,7.25-20.65,16.79-54.64,17.33-91.29C221.81,830.21,207.28,849.71,199.7,850.8Z"/></g><g class="cls-12"><path class="cls-13" d="M223.74,825.19c-.6,7.08-1.63,14.13-2.9,21.12-3.2,17.74-5.34,36-10.07,53.42a165.67,165.67,0,0,1-12.63,31.67,130.39,130.39,0,0,0,14.1-25.1c7.25-20.65,16.79-54.64,17.33-91.29C227.89,818.28,225.9,821.75,223.74,825.19Z"/></g><g class="cls-12"><path class="cls-10" d="M244.21,844.26c-6,.3-13.57-7.85-13.86-30.75-.25.47-.54,1-.78,1.5-.54,36.65-10.08,70.64-17.33,91.29.21-.45.32-.73.32-.73s0,2.79-3.36,18.44a18.08,18.08,0,0,0-.48,9c7-18.2,16.57-43.64,23-63.25,10.06-30.86,28.55,4.13,4.43,64.69,6.1-6,12.09-15.81,16.69-30.5,8.46-31.21,11.23-75.07,12.08-106.31C258.5,823.65,249,844,244.21,844.26Z"/></g><g class="cls-12"><path class="cls-10" d="M259.21,817.06c-.43,27.48-2.15,55.21-9.43,81.64-3.09,11.18-6.88,22.07-11,32.83,5.18-6.1,10.14-15.07,14.06-27.63,8.46-31.21,11.23-75.07,12.08-106.31C263.18,804.59,261.23,811.17,259.21,817.06Z"/></g><path class="cls-14" d="M78,876.2c-15.91,10-32.12,18.42-47.33,29.63-11.8,8.68-25.74,18.09-26.63,34-.17,3,3.3-.05,3.59-1.48,3.69-17.61,21.42-27.48,34.91-37.58,11.42-8.54,24.31-14.64,35.54-23.49C78.4,877,78.7,875.76,78,876.2Z"/><path class="cls-14" d="M139.67,881.81C124,902.39,89.74,923.86,92.05,953.59c.16,2.26,3.09-1.19,3.2-2.26C98.53,921.39,126,906,140.56,882.71,141.13,881.81,140.47,880.73,139.67,881.81Z"/><path class="cls-14" d="M186.72,881.11c-12.71,18.5-28.3,36.6-30.67,60.14-.2,2.07,2.29-.13,2.52-1.08a164.21,164.21,0,0,1,14.81-37.09c4.15-7.59,9.56-14.23,13.84-21.65C187.53,880.86,187.1,880.6,186.72,881.11Z"/><path class="cls-14" d="M231.58,877.21c.17-.87-.79-.25-.9.26-4.31,17.76-20.77,35-17.73,54.19.3,1.91,3-1.07,2.82-2.41C213.29,910.84,228.33,894.66,231.58,877.21Z"/><path class="cls-15" d="M511.3,839.89s21.81-11.44,41.37,9.25S563,901.93,530,876.78C530,876.78,530.3,860.31,511.3,839.89Z"/><path class="cls-16" d="M550.85,887.12c-6.06,0-13.29-3.18-21.49-9.44a1.18,1.18,0,0,1-.44-.92c0-.15,0-16.34-18.42-36.12a1.09,1.09,0,0,1,.29-1.73,34.72,34.72,0,0,1,15.09-3.32c10.32,0,19.61,4.3,27.6,12.76,9,9.46,12.78,22.61,9.07,31.25A12,12,0,0,1,550.85,887.12Zm-19.71-10.91c7.54,5.67,14.34,8.65,19.71,8.65,4.57,0,7.9-2.13,9.65-6.15,2.89-6.72.84-18.8-8.65-28.82-7.55-8-16.29-12-26-12a34.31,34.31,0,0,0-12.68,2.43C529.52,858.35,531,873.11,531.14,876.21Z"/><g class="cls-8"><path class="cls-15" d="M560.7,861.6c-.92,4.72-2.51,8.6-5.22,10.18-9.54,5.53-16.55-7.51-25.05-26-1.71-3.7-2.25-6.6-2.06-8.88a34.86,34.86,0,0,0-17.07,3c19,20.42,18.73,36.89,18.73,36.89C556.78,897.18,567.89,879.89,560.7,861.6Z"/></g><path class="cls-15" d="M449.94,785.89s-1.06,35.25,3.21,52.35c26.71-12.84,53.13-20.43,72.4,15.34,9.23,17.06,10.91,36.33-5.31,39.4s-23.76-13.12-40.79-19.27-27.11-2.51-48.07,5.86-34.93-1.12-25.15-14.25,20.13-24.85,19-41.09-6.43-44.69-6.43-44.69S438.61,767.1,449.94,785.89Z"/><path class="cls-16" d="M516.29,894.49c-8,0-14-4.64-20.43-9.54-5-3.84-10.11-7.79-16.79-10.19-16.38-5.91-26.2-2.58-47.28,5.88a42.2,42.2,0,0,1-15.13,3.22c-6.72,0-11.75-2.33-13.8-6.41-1.84-3.65-1-8.17,2.48-12.8,1-1.29,1.93-2.55,2.88-3.83,8.68-11.47,16.87-22.3,15.9-36.5-1.1-16-6.36-44.29-6.41-44.59a1.11,1.11,0,0,1,.51-1.16,30.57,30.57,0,0,1,14.64-4.18c7.59,0,13.67,3.68,18.05,10.91a1.11,1.11,0,0,1,.15.63c0,.33-1,33.48,2.87,50.7,10.81-5.13,23.28-10.19,35.12-10.19,15.57,0,27.84,8.73,37.48,26.61,7,12.84,8.94,25.12,5.28,32.81-2.11,4.43-5.93,7.2-11.36,8.22A20.65,20.65,0,0,1,516.29,894.49Zm-52.71-25a47.09,47.09,0,0,1,16.26,3.15c7,2.53,12.5,6.77,17.38,10.51,6.33,4.9,11.8,9.1,19.07,9.1a18.66,18.66,0,0,0,3.75-.39c4.68-.87,8-3.22,9.75-7,3.3-6.92,1.3-18.73-5.21-30.76-9.23-17.12-20.84-25.44-35.53-25.44-11.85,0-24.55,5.33-35.41,10.57a1.17,1.17,0,0,1-1,0,1.32,1.32,0,0,1-.61-.75c-4.08-16.36-3.34-48.47-3.25-52.33-3.91-6.34-9.27-9.55-15.95-9.55A28.28,28.28,0,0,0,420,780.11c.87,4.68,5.31,29.46,6.32,44,1,15-7.42,26.2-16.34,38-1,1.25-1.93,2.54-2.89,3.8-2.89,3.91-3.7,7.63-2.26,10.47,1.62,3.23,6,5.17,11.79,5.17a39.36,39.36,0,0,0,14.3-3.09C445,872.94,454,869.5,463.58,869.5Z"/><g class="cls-8"><path class="cls-15" d="M525.55,853.58a70.59,70.59,0,0,0-7.5-11.4c.13.18.22.35.35.54,20.53,30.58-2.52,42.08-19.06,22s-30.58-19-48.59-7.51-23.57,1.48-17.57-19,1.51-39.6,8.53-39.6c3.09,0,6,4,8.28,8.51-.34-11.61-.05-21.23-.05-21.23-11.33-18.79-31.13-6.35-31.13-6.35s5.29,28.5,6.43,44.69-9.24,27.95-19,41.09,4.19,22.64,25.15,14.25,31-12,48.07-5.86S504,896.05,520.24,893,534.78,870.64,525.55,853.58Z"/></g><path class="cls-15" d="M371.61,850.57s17.69-11.29,39.48,6.14c14.61,12.57,20.25,37.68,1.28,42.81-10.51,2.3-16.41-8.2-16.41-8.2S393.68,859.27,371.61,850.57Z"/><path class="cls-16" d="M409.38,901c-9.17,0-14.19-8.7-14.39-9.09a1,1,0,0,1-.13-.46c0-.32-2.53-31.45-23.64-39.78a1.15,1.15,0,0,1-.21-2,29.9,29.9,0,0,1,15.06-3.77c8.79,0,17.44,3.37,25.72,10,9.85,8.46,15.54,22.35,13.28,32.35-1.43,6.3-5.73,10.61-12.4,12.4A14,14,0,0,1,409.38,901Zm-12.31-10c.75,1.23,5.16,7.77,12.31,7.77a13.73,13.73,0,0,0,2.76-.31c5.77-1.58,9.51-5.29,10.75-10.72,2.1-9.25-3.29-22.19-12.53-30.14-7.84-6.27-16-9.48-24.29-9.48a30.2,30.2,0,0,0-11.86,2.41C393.85,860.1,396.79,887.7,397.07,891Z"/><g class="cls-8"><path class="cls-15" d="M417.44,885.73c-11.5,0-11.5-15.17-18.84-26.16-3.07-4.63-3.53-8.27-2.69-11.11-14.27-4.28-24.3,2.11-24.3,2.11,22.07,8.7,24.35,40.75,24.35,40.75s5.9,10.5,16.41,8.2c9.62-2.58,12.88-10.36,11.89-19C422.78,883.6,420.62,885.73,417.44,885.73Z"/></g><path class="cls-15" d="M336.08,794.53s-6.32,24.58-8.19,40.24c-1.51,13.05,9.85,20.54,9.85,20.54s26-19.9,46.13-2,17.32,53.4,3.91,55.9-22.91-20.12-43.32-19.55-36.32,7.53-48.61-2.53c-5.88-5-8.1-5.31-15.93-.83s-17.9,6.41-20.71-7.55,9.25-27.94,21-26.81,18.72-.58,20.66-10.37a289.52,289.52,0,0,0,5.33-48S321,779.33,336.08,794.53Z"/><path class="cls-16" d="M385.7,910.52c-5.84,0-11-4.16-16.46-8.54-6.56-5.25-14-11.23-24-11.23h-.72a167,167,0,0,0-16.92,1.59A117.16,117.16,0,0,1,313,893.65c-7.56,0-13-1.78-17.82-5.67-3.27-2.79-5-3.74-6.94-3.74-1.76,0-3.95.85-7.72,3-4,2.25-7.74,3.43-10.88,3.43-4.17,0-9.53-2-11.46-11.74a24.63,24.63,0,0,1,5.37-20.15c4.51-5.51,10.84-8.56,16.79-8,2.1.2,3.92.32,5.52.32,8.63,0,12.56-2.77,14-9.75a294.8,294.8,0,0,0,5.28-47.91,1.12,1.12,0,0,1,.35-.78c.27-.25,6.69-6.3,15.59-6.3,5.68,0,11,2.47,15.88,7.36a1.13,1.13,0,0,1,.28,1.06c-.07.24-6.33,24.7-8.18,40.11-1.18,10.46,6.48,17.23,8.75,19,2.82-2,13.91-9.19,26.66-9.19a29.64,29.64,0,0,1,20.23,7.74c13.67,12.16,17.18,32.67,13.55,45.79-1.88,6.79-5.6,11.17-10.19,12a14.77,14.77,0,0,1-2.29.21Zm-40.48-22c10.82,0,18.58,6.23,25.42,11.71,5.37,4.31,10,8,15.06,8h0a12.09,12.09,0,0,0,1.89-.18c3.7-.69,6.78-4.51,8.42-10.43,3.48-12.48.12-31.95-12.89-43.55A27.48,27.48,0,0,0,364.4,847c-13.75,0-25.87,9.12-26,9.23a1.16,1.16,0,0,1-1.31.06c-.48-.34-11.88-8.06-10.33-21.61,1.7-14.18,7.07-35.83,8.05-39.79-4.28-4.14-8.93-6.24-13.82-6.24-6.95,0-12.35,4.22-13.73,5.4A291,291,0,0,1,302,841.79c-1.61,8.08-6.45,11.54-16.15,11.54h0c-1.69,0-3.56-.1-5.73-.31-5.19-.51-10.8,2.26-14.85,7.23a22.34,22.34,0,0,0-4.9,18.28c1.32,6.58,4.42,9.93,9.26,9.93,2.77,0,6.13-1.09,9.76-3.15s6.3-3.29,8.84-3.29c2.83,0,5.23,1.55,8.38,4.24,4.32,3.54,9.38,5.14,16.38,5.14a114.23,114.23,0,0,0,14.34-1.29,167,167,0,0,1,17.14-1.59Z"/><g class="cls-8"><path class="cls-15" d="M383.87,853.3c23.47,25.15.62,49.17-8.3,34.52s-28.78-16.75-47.61-9.94-28.77-3.15-20.94-18.31,7.34-46.57,15.71-49.72c3.89-1.47,6.85.53,9,3.39,2.17-10.2,4.36-18.71,4.36-18.71-15.08-15.2-29.89-1-29.89-1a289.52,289.52,0,0,1-5.33,48c-1.94,9.79-8.93,11.46-20.66,10.37s-23.75,12.84-21,26.81,12.87,12,20.71,7.55,10.05-4.2,15.93.83c12.29,10.06,28.21,3.07,48.61,2.53s29.91,22.06,43.32,19.55S404,871.2,383.87,853.3Z"/></g><path class="cls-16" d="M340,853c-3.95,2.46-7.35,4.66-12,5.74-3.22.75-7.75,1.32-10.92-.07-.2-.11-.48.36-.29.45,7.06,4.44,17.48-.59,23.24-5C340.43,853.85,340.71,852.55,340,853Z"/><path class="cls-16" d="M297.74,847.59A48.11,48.11,0,0,1,292.2,857c-2.13,2.72-5.22,4.49-8,6.41-.55.38-1.25,2.36-.09,1.74,7.35-3.81,11.26-10,14.34-17.5C298.72,846.92,298,847.08,297.74,847.59Z"/><path class="cls-10" d="M671.43,473c4.48-20.67-1.67-46.38-31.85-83.83C610,350.56,612.2,307.52,603.8,255S583.86,126.71,545.93,80.58,455.68,32.06,435.79,40.41A44.48,44.48,0,0,1,448.48,28.6s-20.77.57-41.51,20.46c3.74-9.79,14.58-18.48,14.58-18.48-109,43.72-117,155.8-99.78,210.63,24.42,64.88,16.6,86,16.05,87.37,6.66,7.53,11.8,19.55,14.12,38.09,30-19.61,61.71-2.88,74.4,46.72S439.6,502.78,416,524.71c2.3-23.08-9.81-36.34-9.81-36.34s20.75,51.89-51.33,95.73c1.16,30.57-35.76,51.32-88.26,74.95-15.57,20.2-34,30.58-33.42,66.92,8.64-13.85,16.14-20.2,16.14-20.2s-15.57,32.3-3.47,38.06a57.45,57.45,0,0,1,19.29,15.31s8.94,5,23.2,18.14c11.63,10.72,13.2,27.52,13.2,27.52s12.08-7.83,12.08-11.65a40.49,40.49,0,0,1,6.63,9.86l10.29-9.78s2.22,6.15,11.16,11.18c11.74-39.14,35.79-53.11,50.33-58.7,20.11,18.45,19.6,50.28,19.6,50.28s4.88-3.24,11.15-13.25c2.08,6,8.12,11.15,8.12,11.15s3.25-3.25,9.74-12.75c4.64,8.57,16.21,16.37,16.21,16.37s3.73-23.83,33.54-75.29,76.75-82.69,116.79-120.49c34.5-38.57,48.18-67,46.67-102,18.26-31.95-5.3-57-5.3-57S667.52,449.48,671.43,473Z"/><path class="cls-11" d="M301.5,806a1.1,1.1,0,0,1-1.1-1c0-.16-1.7-16.51-12.87-26.81-13.95-12.87-22.89-18-23-18a.84.84,0,0,1-.34-.28,56.67,56.67,0,0,0-18.89-14.94,8.64,8.64,0,0,1-4.4-5.12c-2.74-7.78,1.86-21.39,4.95-29a110.59,110.59,0,0,0-11.79,15.79,1.17,1.17,0,0,1-1.26.49A1.11,1.11,0,0,1,232,726c-.45-28.93,11.14-41.86,23.44-55.58,3.4-3.77,6.88-7.69,10.26-12a.9.9,0,0,1,.42-.34c56.26-25.36,88.65-45.6,87.57-73.91a1.13,1.13,0,0,1,.53-1c36.83-22.41,48.7-46.85,52.17-63.44,3.75-17.94-1.23-30.81-1.27-30.94a1.1,1.1,0,0,1,.43-1.36,1.15,1.15,0,0,1,1.42.18c.49.54,11.41,12.79,10.32,34.22,19.2-19.89,21.7-54.41,7.95-108.16-8.63-33.73-26.85-53.88-48.75-53.88-7.94,0-16,2.65-24,7.86a1.19,1.19,0,0,1-1.07.08,1.22,1.22,0,0,1-.64-.88c-2.12-16.92-6.77-29.52-13.86-37.49a1.09,1.09,0,0,1-.19-1.17c.35-.87,8.33-21.73-16.06-86.56-8.06-25.59-11.6-67.93,2.52-110.22,11-33,36.94-77.41,97.88-101.86a1.12,1.12,0,0,1,1.11,1.93,60.17,60.17,0,0,0-11.52,12.73c19.19-16,36.94-16.69,37.74-16.71a1.12,1.12,0,0,1,.59,2.08,45.26,45.26,0,0,0-10,8.51,69,69,0,0,1,19.44-2.54c12.16,0,54.48,3.2,88.33,44.35,37.49,45.61,49.17,118.87,57.71,172.36l.4,2.58c1.9,11.92,3.26,23.32,4.57,34.35,4.43,37.4,8.27,69.72,31,99.29,27.11,33.63,37.3,60.57,32.08,84.76a1.13,1.13,0,0,1-1.11.87h0a1.13,1.13,0,0,1-1.07-.92c-2.63-15.71-12.25-23.74-17.93-27.17,5.79,8.4,16.5,29.29,2.53,54.05,1.41,34.37-11.8,63.12-47,102.45-10.61,10-21.85,19.69-32.68,29-30.53,26.33-62.09,53.55-84,91.28C462,773.37,458,797.44,457.91,797.7a1,1,0,0,1-.65.83,1.18,1.18,0,0,1-1.08-.1c-.44-.3-10.54-7.14-15.66-15.22-5.81,8.37-8.75,11.34-8.87,11.48a1.11,1.11,0,0,1-1.52,0,33.9,33.9,0,0,1-7.61-9.62c-5.75,8.7-10.11,11.64-10.3,11.8a1.17,1.17,0,0,1-1.16.05,1.19,1.19,0,0,1-.59-1c0-.31.27-31-18.74-49-23.5,9.29-40.43,29.22-49,57.72a1.14,1.14,0,0,1-1.62.63c-6.64-3.73-9.73-8.06-11-10.29L321,803.81a1.13,1.13,0,0,1-1,.32,1.18,1.18,0,0,1-.81-.65,42.75,42.75,0,0,0-5.18-8.21c-2.36,4.13-10.13,9.35-11.89,10.49A1.17,1.17,0,0,1,301.5,806Zm-35.65-47.68c1.43.84,10,6,23.22,18.2,9.65,8.91,12.55,21.7,13.32,26.43,4.6-3.18,10.07-7.74,10.07-9.75a1.07,1.07,0,0,1,.7-1,1.12,1.12,0,0,1,1.21.24,38.06,38.06,0,0,1,6.17,8.82l9.18-8.77a1.29,1.29,0,0,1,1-.29,1.2,1.2,0,0,1,.8.72c0,.06,2,5.29,9.47,9.87,9-28.69,26.42-48.74,50.55-58.05a1.2,1.2,0,0,1,1.17.23c17.05,15.64,19.55,41,19.91,48.78a57,57,0,0,0,9.15-11.52,1.17,1.17,0,0,1,1.07-.51,1.1,1.1,0,0,1,.92.74c1.52,4.41,5.34,8.37,7,9.91a116.91,116.91,0,0,0,8.9-11.77,1,1,0,0,1,1-.49,1.07,1.07,0,0,1,.92.56c3.52,6.54,11.29,12.66,14.47,15,1.4-6.37,7.87-30,33.31-73.89,22.07-38.1,53.79-65.44,84.46-91.88,10.83-9.31,22-19,32.54-28.9,34.77-38.87,47.79-67.25,46.33-101.1a1.06,1.06,0,0,1,.13-.6c17.62-30.86-4.89-55.44-5.13-55.7a1.1,1.1,0,0,1,1.2-1.78,39.5,39.5,0,0,1,22.35,25.45c2.51-22.09-8-46.85-32.53-77.36-23.12-30.09-27-62.69-31.45-100.42-1.31-11-2.68-22.36-4.56-34.26l-.4-2.56c-8.51-53.27-20.13-126.17-57.25-171.33-33.2-40.36-74.66-43.5-86.59-43.5-8.69,0-16.59,1.3-22.25,3.68a1.12,1.12,0,0,1-1.35-1.67,43.19,43.19,0,0,1,9.19-9.47c-7.14,1.32-21.81,5.66-36.34,19.57a1.12,1.12,0,0,1-1.81-1.2c2.2-5.77,6.69-11.07,10.17-14.61-55.95,24.55-80.22,66.59-90.71,98-14,41.82-10.45,83.61-2.54,108.8,22.72,60.38,17.72,83,16.25,87.48,6.91,8,11.52,20.31,13.74,36.44,7.83-4.81,15.81-7.25,23.68-7.25,23,0,42,20.75,50.93,55.56,14.45,56.52,11,92.26-10.7,112.42a1.12,1.12,0,0,1-1.27.15,1.11,1.11,0,0,1-.62-1.1A50.81,50.81,0,0,0,409,494.51a64.85,64.85,0,0,1-.36,25.5C405.1,537,393.1,562,356,584.7c.64,32.26-41.54,54-88.68,75.27-3.34,4.32-6.79,8.18-10.15,11.93-11.94,13.32-22.31,24.88-22.88,50.25,7.73-11.61,14-17,14.31-17.22a1.12,1.12,0,0,1,1.72,1.33c-.1.23-10.79,22.63-7.23,32.74a6.29,6.29,0,0,0,3.25,3.84A57.85,57.85,0,0,1,265.85,758.27Z"/><path class="cls-17" d="M581.19,392.76C614,422.56,614,473.25,593.12,512c10.45-46.17,3-77.48-19.38-102.82,10.44,38.75-6,67.07-6,67.07s4.47-41.73-19.38-76c0,0-35.77,38.75-25.33,67.08-11.92-40.24-17.21-53.55,2.14-77C507,396.75,485.34,422,485.34,422s7.63-24.05,29.31-35.16c-12.89-.6-35.76,14.66-35.76,14.66s11.73-20.54,37.53-22.86c-18.18-13.48-52.22-.72-60.43,12.69,1.5-23.85,18.64-38,18.64-38s-22.36,0-30.56,14.15c9.69-26.09-34.93-21.39-63.29-47.56-13.35-12.35-20.09-43.68-20.09-43.68A216.46,216.46,0,0,1,352,303.25c-1.76-13.09-2.62-26.19-16.6-62.86C290.82,100.62,403.49,41.24,403.49,41.24S393.2,58.87,394.2,64.89c16.12-19.63,43.85-32.24,43.85-32.24s-15.14,7.08-14.62,17.64C454.17,37.7,494.37,44,521.21,64.12c37.71,24.76,70,115.91,70,197.79s12.69,110.72,41.52,133.81,27.69,36.87,27.69,36.87S619.62,388.66,581.19,392.76Z"/><path class="cls-18" d="M374.59,283.62s10.42-16.57,20.46-23.14c-7.33,14.66-6.56,37-6.94,47.44,22.75,0,81.46-19.3,96.41-41.27,16.69-24.6,22.36-54.38-9.26-76.77S372.28,246.2,374.59,283.62Z"/><path class="cls-19" d="M327.26,156s4.7,56.39,39.17,42.29c17.61-11,12.13-34.06,12.13-34.06Z"/><path class="cls-19" d="M466,160.22s20.59,24.14,48.78,13,23.9-53.88,8.51-75.25c-8.94,10.73-9,6.78-26.41,7.21S456.18,123.05,466,160.22Z"/><path class="cls-20" d="M341.23,193a29.44,29.44,0,0,0,5.25,3.79,16.24,16.24,0,0,0,2.73,1.4,22.55,22.55,0,0,0,3.18,1.14,16.28,16.28,0,0,0,3.52.57,14.76,14.76,0,0,0,3.63-.16,20,20,0,0,0,3.53-.94c1.07-.58,2.26-.88,3.23-1.54l2.88-1.86c.85-.71,1.65-1.38,2.37-2a44.62,44.62,0,0,0,3.42-3.24c.84-.81,1.32-1.23,1.32-1.23s-.37.53-1,1.51a29.46,29.46,0,0,1-2.85,3.86l-2.23,2.36c-.86.77-1.86,1.5-2.88,2.26a23,23,0,0,1-3.47,1.89,24.93,24.93,0,0,1-4,1.16,17.41,17.41,0,0,1-4.14.08,18.56,18.56,0,0,1-3.91-.81,20.26,20.26,0,0,1-3.34-1.58,18.27,18.27,0,0,1-2.73-1.83A20.45,20.45,0,0,1,341.23,193Z"/><path class="cls-21" d="M198.58,766.57c-4.46,20.88,1.12,33.92,1.12,33.92s22.74-5.22,35-32.78c1.11,19.36,6.7,28.7,6.7,28.7s17.1-7.15,23.72-34.09c0-2-.06-3.18-.06-3.18a57.45,57.45,0,0,0-19.29-15.31c-12.1-5.76,3.47-38.06,3.47-38.06s-7.5,6.35-16.14,20.2c-.34-20.42,5.35-32.67,13.16-43-.13.1-.26.2-.4.29-21.25,20.89-35.64,31-50,39.74-6.11,10.66-14.56,22-22.48,31.8-5.26,12.68-11.57,31.92-11.35,50.93C180.33,795.63,191.12,782.59,198.58,766.57Z"/><path class="cls-22" d="M162.08,806.81a1.16,1.16,0,0,1-.57-.15,1.11,1.11,0,0,1-.55-.95c-.23-19.12,6.11-38.49,11.43-51.36.05-.12.11-.19.16-.29,9.66-11.91,17.19-22.56,22.39-31.65a1.06,1.06,0,0,1,.38-.38c15-9.08,29.13-19.27,49.8-39.6,0,0,.28-.21.33-.26a1.28,1.28,0,0,1,1.57.05,1,1,0,0,1,.18,1.38c-6.19,8.23-12.5,19.23-12.92,38.55,7.7-11.61,14-17,14.28-17.22a1.12,1.12,0,0,1,1.72,1.33c-.1.23-10.79,22.63-7.23,32.74a6.29,6.29,0,0,0,3.25,3.84A58.33,58.33,0,0,1,266,758.45a1.1,1.1,0,0,1,.21.66l.07,3.21a1,1,0,0,1,0,.28c-6.69,27.15-23.65,34.54-24.38,34.84a1.11,1.11,0,0,1-1.38-.47c-.23-.36-5-8.44-6.56-25-12.63,24.47-33.06,29.43-34,29.64a1.11,1.11,0,0,1-1.29-.66c-.2-.47-4.43-10.64-2.39-27.35-8,14.3-18.82,24.94-33.66,33.12A1.46,1.46,0,0,1,162.08,806.81Zm12.32-51.46c-5.08,12.24-11,30.37-11.21,48.44,15.7-9,26.65-21,34.39-37.69a1.12,1.12,0,0,1,2.11.7c-3.67,17.18-.39,29,.7,32.33,4.37-1.37,22.83-8.36,33.32-31.89a1,1,0,0,1,1.22-.64,1.06,1.06,0,0,1,.92,1c.91,15.53,4.72,24.52,6.08,27.26,3.55-1.91,16.57-10.34,22.11-32.7l0-2.66a56.74,56.74,0,0,0-18.67-14.66,8.64,8.64,0,0,1-4.4-5.12c-2.74-7.78,1.86-21.39,4.95-29a110.59,110.59,0,0,0-11.79,15.79,1.17,1.17,0,0,1-1.26.49A1.11,1.11,0,0,1,232,726c-.26-16.32,3.35-27.26,8-35.52-17.2,16.2-30,25.23-43.26,33.34C191.5,732.87,184,743.51,174.4,755.35Z"/><path class="cls-23" d="M265.1,759.14a57.45,57.45,0,0,0-19.29-15.31c-12.1-5.76,3.47-38.06,3.47-38.06s-7.5,6.35-16.14,20.2c-.34-20.42,5.35-32.67,13.16-43-.13.1-.26.2-.4.29-19.35,19-33,29.13-46.14,37.36a3.45,3.45,0,0,1,1.22.51c4.29,3.19,3.21,9.65,1,15.49a180.5,180.5,0,0,1,21.34-19.16c.75-.59,1.59-.69,2,.26,4.7,11.19-.26,27.5-2.61,38.87-2.43,11.75-6.88,22.82-16.69,30.25-1.91,1.46-2.27-.87-1.53-2.25,5.26-9.85,5.25-22.42,3.46-33.35-6.27,7.13-11,15.35-17.88,22.1a87.45,87.45,0,0,1-16.9,13A108.24,108.24,0,0,1,163,791.65a95.43,95.43,0,0,0-.92,14.06c18.25-10.08,29-23.12,36.5-39.14-4.46,20.88,1.12,33.92,1.12,33.92s22.74-5.22,35-32.78c1.11,19.36,6.7,28.7,6.7,28.7s17.1-7.15,23.72-34.09C265.12,760.29,265.1,759.14,265.1,759.14Z"/><path class="cls-21" d="M105.06,859.74c9,4.46,40.44-15.09,57.76-49.75-10,39.15-11.18,43.59-5,44.72s25.16-18.44,31.31-40.23c-1.68,29.6,2.8,37.45,10.61,36.32s23.1-21.92,30.65-37.29c.29,22.9,7.84,31,13.86,30.75,4.83-.23,14.29-20.61,20.68-46.67.43-16.56.35-29.55.27-35.27-6.62,26.94-23.72,34.09-23.72,34.09s-5.59-9.34-6.7-28.7c-12.3,27.56-35,32.78-35,32.78s-5.58-13-1.12-33.92c-7.46,16-18.25,29.06-36.5,39.14-.22-19,6.09-38.25,11.35-50.93C165,765.24,157.1,774,153.31,778.13c-13.42,29.09-31.68,52.19-50.67,71C101.45,853.64,101.51,858,105.06,859.74Z"/><path class="cls-22" d="M108.17,861.48h0a8.25,8.25,0,0,1-3.6-.74c-3.62-1.81-4.6-5.82-3-11.94a1.27,1.27,0,0,1,.29-.52c22.09-21.84,38.61-45,50.45-70.61a.82.82,0,0,1,.19-.28c3.41-3.77,11.42-12.61,20.06-23.33a1.24,1.24,0,0,1,1.46-.26,1.16,1.16,0,0,1,.46,1.41c-5.09,12.25-11.06,30.46-11.28,48.58,15.7-9,26.65-21,34.39-37.69a1.12,1.12,0,0,1,2.11.7c-3.67,17.18-.39,29,.7,32.33,4.37-1.37,22.83-8.36,33.32-31.89a1,1,0,0,1,1.22-.64,1.06,1.06,0,0,1,.92,1c.9,15.49,4.72,24.52,6.08,27.26,3.57-1.91,16.61-10.38,22.15-32.84a1.13,1.13,0,0,1,1.2-.83,1.11,1.11,0,0,1,1,1.1c.07,4.95.19,18.29-.28,35.29-5.67,23.35-15.34,47.44-21.73,47.78h-.36c-6.17,0-13.39-7.33-14.54-27.58-7.89,14.6-21.62,33-29.5,34.09a8,8,0,0,1-7.27-2.33c-3.67-3.9-5.28-12.75-4.94-27.6-7.79,19-23.77,35-30.06,33.86a5.42,5.42,0,0,1-3.8-2.19c-2.17-3.36-.6-10.64,5.74-35.35C143.57,844.9,119.42,861.48,108.17,861.48Zm-4.52-11.82c-1.2,4.78-.55,7.84,1.91,9.08a6,6,0,0,0,2.61.51c11.73,0,38.47-19.36,53.65-49.76a1.11,1.11,0,0,1,1.38-.56,1.14,1.14,0,0,1,.71,1.34c-7.35,28.58-10.1,39.24-8.23,42.16.37.62,1.07,1,2.3,1.19l.35,0c6,0,23.82-18.69,29.68-39.47a1.08,1.08,0,0,1,1.27-.8,1.1,1.1,0,0,1,.93,1.16c-1.06,18.55.27,29.53,4,33.5a5.75,5.75,0,0,0,5.32,1.65c7-1,22-20.87,29.78-36.68a1.11,1.11,0,0,1,1.24-.59,1.14,1.14,0,0,1,.89,1.07c.3,23.43,7.95,29.67,12.45,29.67C247.65,843,257,825,263.8,797.31c.29-11.22.33-20.9.31-27.56-7.6,21.33-21.58,27.4-22.24,27.69a1.11,1.11,0,0,1-1.38-.47c-.23-.36-5-8.44-6.56-25-12.63,24.47-33.06,29.43-34,29.64a1.11,1.11,0,0,1-1.29-.66c-.2-.47-4.43-10.64-2.39-27.35-8,14.3-18.82,24.94-33.66,33.12a1.18,1.18,0,0,1-1.11,0,1.11,1.11,0,0,1-.55-.95c-.19-16.09,4.27-32.34,8.86-44.78-6.8,8.15-12.7,14.66-15.56,17.82C142.34,804.54,125.78,827.73,103.65,849.66Z"/><path class="cls-16" d="M455.76,837.17a24,24,0,0,0-10,5.13c-.47.39-.6,1.67.22,1.06a47.5,47.5,0,0,1,9.65-5.38C455.87,837.87,456.22,837.08,455.76,837.17Z"/><path class="cls-24" d="M381.36,161.08s4.19,6.72,5.59,18.73c-8.95,15.93-45.29,29.33-57-23.47C348.1,143.76,371.86,140.4,381.36,161.08Z"/><path class="cls-25" d="M381.36,161.08a45.23,45.23,0,0,1,2.13,4.44c.35.74.52,1.54.8,2.31l.76,2.32a16.72,16.72,0,0,1,.66,2.4l.48,2.39.91,4.84s0,.08,0,.12a30.06,30.06,0,0,1-3.07,4.24,26.57,26.57,0,0,1-3.77,3.65,42.8,42.8,0,0,1-4.33,3,38.65,38.65,0,0,1-4.82,2.18,22.89,22.89,0,0,1-5.15,1.3,21.59,21.59,0,0,1-5.33.36c-1.8.09-3.54-.51-5.31-.76a53.09,53.09,0,0,1-5.06-1.91c-1.5-1-3.05-1.91-4.5-3l-3.91-3.71L338.59,181a32.07,32.07,0,0,1-2.68-4.6,26.8,26.8,0,0,1-2.25-4.79l-1.88-4.95c-.64-1.62-.94-3.37-1.44-5.07L329,156.51a1,1,0,0,1,.39-1c2.12-1.35,4.3-2.66,6.54-3.79a59,59,0,0,1,6.92-3,44.49,44.49,0,0,1,7.26-2.05,36.8,36.8,0,0,1,7.48-.77,23.34,23.34,0,0,1,3.74.24,19.17,19.17,0,0,1,3.7.69,29.3,29.3,0,0,1,3.57,1.19c1.15.47,2.21,1.12,3.33,1.68,1,.76,2,1.49,3,2.28s1.8,1.74,2.56,2.71,1.53,2,2.16,3.06Zm0,0-1.8-3.25c-.67-1.05-1.47-2-2.19-3s-1.73-1.76-2.58-2.66-2-1.47-3-2.2c-1.12-.55-2.17-1.15-3.32-1.64a25.63,25.63,0,0,0-3.53-1.07,24.34,24.34,0,0,0-3.66-.55,25.26,25.26,0,0,0-3.69-.06,33.85,33.85,0,0,0-7.28,1.06,41.28,41.28,0,0,0-7,2.28,53.93,53.93,0,0,0-6.63,3.2,68.43,68.43,0,0,0-6.2,4l.39-1,1.37,5c.52,1.61.85,3.33,1.49,4.92l1.9,4.77a26.68,26.68,0,0,0,2.23,4.59,33.08,33.08,0,0,0,2.53,4.42l3,4.08,3.58,3.54c1.34,1,2.78,1.89,4.14,2.85,1.55.65,3.06,1.41,4.64,1.92,1.63.28,3.25.94,4.92.92a21,21,0,0,0,5.07-.13,22.46,22.46,0,0,0,5-1.07,37.31,37.31,0,0,0,4.74-1.92,39,39,0,0,0,4.36-2.76,25.34,25.34,0,0,0,3.83-3.43,24.16,24.16,0,0,0,3.13-4.1v.1l-.85-4.81-.42-2.43a17.63,17.63,0,0,0-.62-2.37l-.72-2.32a21.34,21.34,0,0,0-.76-2.34C382.74,164.05,382.18,162.49,381.36,161.08Z"/><path class="cls-26" d="M349.36,170.57c2.08,12.6,11.15,21.68,20.31,20.33s14.89-12.7,12.8-25.25S371.3,144,362.16,145.32,347.31,158,349.36,170.57Z"/><path class="cls-27" d="M349.36,170.57c2.08,12.6,11.15,21.68,20.31,20.33s14.89-12.7,12.8-25.25S371.3,144,362.16,145.32,347.31,158,349.36,170.57Z"/><path class="cls-28" d="M353.43,170.83c1.57,9.59,8.53,16.53,15.49,15.5s11.36-9.66,9.76-19.27-8.52-16.54-15.51-15.52S351.85,161.22,353.43,170.83Z"/><g class="cls-12"><path class="cls-29" d="M355.45,169.59c1.23,7.61,6.7,13.08,12.21,12.25s9-7.62,7.72-15.22-6.75-13.05-12.27-12.25S354.16,162,355.45,169.59Z"/></g><g class="cls-12"><path class="cls-27" d="M381.64,162a31.82,31.82,0,0,1,.83,3.62c2.09,12.55-3.67,23.86-12.8,25.25s-18.23-7.73-20.31-20.33c-.15-1.16-.23-2.34-.32-3.47C360.13,172.46,374.88,171.87,381.64,162Z"/></g><path class="cls-24" d="M367.46,162.24c1,3.84,4.09,6.41,6.87,5.71s4.23-4.41,3.22-8.25-4.1-6.38-6.89-5.69S366.41,158.39,367.46,162.24Z"/><path class="cls-24" d="M372.6,173.94c.46,1.83,1.92,3,3.27,2.73s2-2.11,1.52-3.95-2-3-3.29-2.69S372.06,172.11,372.6,173.94Z"/><path class="cls-30" d="M384.44,168.61s-12.31-29.32-38-15.91c-17.89,10.05-23.18,1.38-25.42-3.06,10.33,6.7,12.56,3.92,20.66-8.11S376.14,125.12,384.44,168.61Z"/><g class="cls-12"><path class="cls-31" d="M329.94,156.34c11.72,52.8,48.06,39.4,57,23.47a56.36,56.36,0,0,0-1.53-8.17C355.58,202.14,329.94,156.34,329.94,156.34Z"/></g><path class="cls-24" d="M468.11,159s15.52,13,41.51,1,13.7-56.15,13.7-56.15S465.25,95.32,468.11,159Z"/><path class="cls-25" d="M468.11,159a30.8,30.8,0,0,0,12.12,4.91,31.87,31.87,0,0,0,6.52.68,38.32,38.32,0,0,0,6.53-.41,46.34,46.34,0,0,0,6.41-1.29,57.6,57.6,0,0,0,6.17-2.13l3-1.29a28.84,28.84,0,0,0,2.81-1.63c2-1,3.39-2.59,4.95-4a21.9,21.9,0,0,0,2-2.53,12.29,12.29,0,0,0,1.75-2.65l1.47-2.85,1.07-3.05a44.28,44.28,0,0,0,1.54-6.28,60.43,60.43,0,0,0,.64-6.49,62,62,0,0,0,0-6.54c-.1-2.14-.21-4.34-.5-6.5a100.16,100.16,0,0,0-2.31-12.87l.9.79a56.24,56.24,0,0,0-11.17-.2,51.81,51.81,0,0,0-5.55.64,54.09,54.09,0,0,0-5.49,1.16c-1.8.43-3.54,1.15-5.3,1.72s-3.37,1.58-5.06,2.35-3.11,2-4.7,3-2.8,2.43-4.23,3.61a23,23,0,0,0-3.63,4.23l-1.71,2.2c-.53.77-.88,1.65-1.35,2.47-.81,1.69-1.82,3.28-2.48,5l-1.75,5.35A26.32,26.32,0,0,0,469.5,142l-1,5.61C468.35,151.35,468.26,155.14,468.11,159Zm0,0c0-3.82-.12-7.65-.06-11.43l.71-5.69a26.92,26.92,0,0,1,1-5.65l1.61-5.53c.61-1.82,1.62-3.48,2.4-5.25.46-.85.8-1.77,1.33-2.57l1.69-2.35a26.09,26.09,0,0,1,3.7-4.48,35.31,35.31,0,0,1,4.32-3.89,52.46,52.46,0,0,1,4.85-3.24c1.74-.83,3.44-1.81,5.25-2.48s3.63-1.37,5.5-1.86,3.75-1,5.67-1.25a50.84,50.84,0,0,1,5.76-.69,59.34,59.34,0,0,1,11.61.12,1.07,1.07,0,0,1,.89.77,87.23,87.23,0,0,1,2.38,13.23c.27,2.21.37,4.46.47,6.66a71.78,71.78,0,0,1-.81,13.43,46.85,46.85,0,0,1-1.67,6.57l-1.14,3.2-1.6,3a14.13,14.13,0,0,1-1.88,2.84,22.15,22.15,0,0,1-2.2,2.64c-1.74,1.52-3.43,3.24-5.41,4.13a33.65,33.65,0,0,1-3,1.64l-3.11,1.26a59.39,59.39,0,0,1-6.39,2,53.69,53.69,0,0,1-6.61,1.15,35.46,35.46,0,0,1-6.68.12,35.1,35.1,0,0,1-6.61-.94A31.68,31.68,0,0,1,468.11,159Z"/><path class="cls-26" d="M479.94,134.27c.44,15.33,9.77,27.61,20.87,27.46s19.74-12.66,19.3-28-9.76-27.57-20.86-27.46S479.52,119,479.94,134.27Z"/><path class="cls-27" d="M479.94,134.27c.44,15.33,9.77,27.61,20.87,27.46s19.74-12.66,19.3-28-9.76-27.57-20.86-27.46S479.52,119,479.94,134.27Z"/><path class="cls-28" d="M484.75,135.22c.32,11.69,7.46,21.07,15.91,21s15.05-9.63,14.7-21.34-7.42-21-15.9-21S484.41,123.56,484.75,135.22Z"/><g class="cls-12"><path class="cls-29" d="M487.32,134.09c.24,9.26,5.87,16.64,12.55,16.56s11.87-7.61,11.66-16.86-5.92-16.61-12.59-16.56S487,124.87,487.32,134.09Z"/></g><g class="cls-12"><path class="cls-27" d="M519.71,129.35a40.14,40.14,0,0,1,.4,4.41c.44,15.31-8.21,27.81-19.3,28s-20.43-12.13-20.87-27.46c0-1.4.07-2.81.17-4.15C492.43,138.24,510.09,140,519.71,129.35Z"/></g><path class="cls-24" d="M502.8,127.27c.61,4.75,3.84,8.31,7.24,7.93s5.76-4.54,5.19-9.28-3.85-8.28-7.28-7.89S502.19,122.56,502.8,127.27Z"/><path class="cls-24" d="M507,142c.25,2.26,1.79,3.94,3.42,3.77s2.74-2.18,2.46-4.43-1.84-3.93-3.46-3.75S506.71,139.78,507,142Z"/><path class="cls-30" d="M468.27,159.7s-1.4-50.31,37.16-50c16.77,0,30.75-8.11,27.39-35.49,0,0-6.28,23.57-29.79,20.22S451.77,107.62,468.27,159.7Z"/><g class="cls-12"><path class="cls-31" d="M523.32,103.8l-.05,0c-6.66,47.06-41.09,52.74-55.2,53.06,0,.69,0,1.38,0,2.13,0,0,15.52,13,41.51,1S523.32,103.8,523.32,103.8Z"/></g><path class="cls-32" d="M466.71,143.33s-1.28-41.61,34.09-46.83C481.1,93.53,460.23,106.57,466.71,143.33Z"/><path class="cls-11" d="M653.54,498.35c-16.85,17.72-35.27,32.8-55.1,46.8a60.43,60.43,0,0,0,4.49-7.29c.51-1-.59-1.15-1.08-.36a66.13,66.13,0,0,1-8.56,11.25c-.34.22-.69.48-1,.72a1,1,0,0,0-.3.52,44.46,44.46,0,0,1-8.06,6.29c-3.2,1.89-9.12,7.05-13.47,7.94-8.91-22.74-24.83-39.59-45.68-52.12-10.64-6.42-21.52-12.41-31.86-19.4-16.79-11.34-17.42-27.43-13.13-45.5a54.89,54.89,0,0,0,2.6-8.24c.29-1.2-1-.55-1.27.13-1.71,4.47-3.44,8.92-5.32,13.31a42,42,0,0,1-5.88,9.38,53.4,53.4,0,0,1-4.34,5.29c-3.56-16.27-.5-29.85,5.81-44.56.55-.69,1.09-1.38,1.67-2.05.41-.45.41-1.59-.23-1.24a1.79,1.79,0,0,1,.19-.45c.17-.43-.25-.46-.44-.12-.34.57-.66,1.17-1,1.75-5.49,5.45-9.82,12.55-13.87,19.05,0-16.5,2.51-39.87,19.92-47.64.33-.18.86-1.4.18-1.21-6.95,1.66-12.73,10.94-15.71,16.92-5.51,11.09-7.14,22.12-5.84,34.39.1,1,1.45-.42,1.45-1v-1c3.89-4.49,7.37-9.37,11-14.1-6.6,13.48-10.62,29.38-4.48,43.53.23.55.91-.1,1.23-.78,4.13-2.72,7.28-8.28,9.8-12.28.8-1.26,1.56-2.66,2.3-4.1-2.63,8.87-3.69,18.49-.48,27.17,4.09,11.05,17.54,18.23,26.81,24,12.6,7.87,25.79,14.51,37,24.43C553.5,539,560.17,550.66,568.16,565c-.1.26-.1.52.14.6.08,0,.15,0,.2,0l.42.71c.34.62,1,0,1.37-.71a17.06,17.06,0,0,0,4.55-2.24c4.41-2.34,8.76-5,13-7.7a38.88,38.88,0,0,0,8.45-7.7c9.93-5.5,18.92-12.44,27.57-19.73,10.63-8.92,21.5-17.91,30.48-28.58C655.14,498.68,654.73,497.13,653.54,498.35Z"/><path class="cls-11" d="M469.79,717.51C457,728,445.63,734.67,429.07,737.13c-13.39,2-29,3.14-40.95,10-.23.13-.5.9,0,.73,15-6.39,32.57-7,48.49-9.68,13-2.16,24-10.22,33.52-18.93C470.82,718.57,471.06,716.46,469.79,717.51Z"/><path class="cls-4" d="M190,656.38c-15.78,11.13-29.57,16.82-39.22,19.71-7.83,14.46-24.1,46.83-26.37,69.62C134.48,744.63,159.25,724.34,190,656.38Z"/><path class="cls-5" d="M124.43,746.84a1.22,1.22,0,0,1-.78-.33,1.1,1.1,0,0,1-.32-.91c2.21-22.45,17.54-53.54,26.49-70a1.1,1.1,0,0,1,.67-.54c8.85-2.67,22.78-8.21,38.89-19.55a1.12,1.12,0,0,1,1.67,1.38c-29.12,64.28-54,88.63-66.5,90ZM151.57,677c-7.1,13.17-23.07,44.75-25.85,67.32,10.21-2.62,33.06-22.87,61.62-84.75A137,137,0,0,1,151.57,677Z"/><path class="cls-4" d="M115.49,729.68c13-17.53,23.81-39.68,29.43-52a54.41,54.41,0,0,1-8.53,1.39s1.84-9.72,19.36-40.27c-23.39,26.5-40,37.09-50.61,41.18C94,697.37,85.69,737.94,84,756.88c1.06-.4,1.94-.78,2.74-1.12C94.1,751.8,104.82,744.15,115.49,729.68Z"/><path class="cls-5" d="M84,758a1.2,1.2,0,0,1-.67-.23,1.14,1.14,0,0,1-.44-1c1.52-17.31,9.57-59.1,21.3-77.45a.9.9,0,0,1,.54-.43c9.76-3.81,26.37-13.95,50.16-40.9a1.17,1.17,0,0,1,1.49-.18,1.1,1.1,0,0,1,.31,1.47c-13.5,23.59-17.64,34.73-18.81,38.47,1.41-.18,3.72-.54,6.79-1.23a1.05,1.05,0,0,1,1.1.39,1.11,1.11,0,0,1,.17,1.17c-5.42,11.87-16.43,34.47-29.56,52.23-10.87,14.71-21.84,22.49-29.12,26.39-.88.38-1.75.75-2.85,1.19A1.21,1.21,0,0,1,84,758Zm21.87-77.14c-11,17.54-18.7,56.32-20.58,74.29l1-.44c7-3.76,17.67-11.29,28.32-25.71,12.28-16.63,22.73-37.6,28.36-49.8a51.8,51.8,0,0,1-6.54.95,1.29,1.29,0,0,1-.89-.38,1.21,1.21,0,0,1-.25-1c.06-.36,1.69-8.38,14.67-32.05C129.62,668.41,115,677.29,105.88,680.88Z"/><path class="cls-4" d="M208.44,672.54a69.82,69.82,0,0,1-20.13,3.66c6.84-5.05,19.6-23.28,32.27-46.75A194.57,194.57,0,0,1,190,656.38c-30.77,68-55.54,88.25-65.59,89.33,2.27-22.79,18.54-55.16,26.37-69.62-2.17.65-4.15,1.16-5.88,1.57-5.62,12.34-16.47,34.49-29.43,52-10.67,14.47-21.39,22.12-28.74,26.08a40.33,40.33,0,0,0,4.52-2.21S69.48,797.7,76.74,821.72c28.52-14,53.66-76.57,53.66-76.57s15.64-8.93,30.18-30.74A240.65,240.65,0,0,1,146,745.15l7.22-3.21C167.2,733.12,190.6,713.24,208.44,672.54Z"/><path class="cls-5" d="M76.74,822.86a1.85,1.85,0,0,1-.44-.1,1.21,1.21,0,0,1-.63-.7c-6.28-20.84,8.41-55.62,13.21-66-.5.2-1,.45-1.7.74a1.12,1.12,0,0,1-1-2C93.29,751,104,743.44,114.61,729c13-17.61,23.92-40,29.3-51.85a1.12,1.12,0,0,1,.77-.61c1.83-.4,3.8-.93,5.81-1.54a1.11,1.11,0,0,1,1.3,1.59c-7,12.92-23.27,44.93-26.07,67.73,10.41-2.65,34-23.66,63.3-88.41a1.14,1.14,0,0,1,.36-.46,196.06,196.06,0,0,0,30.38-26.76,1.08,1.08,0,0,1,1.46-.17,1.15,1.15,0,0,1,.34,1.45c-11.22,20.79-22.63,37.75-30.08,45a74.51,74.51,0,0,0,16.63-3.49,1.15,1.15,0,0,1,1.18.33,1.07,1.07,0,0,1,.17,1.18c-18.31,41.8-42.69,61.74-55.6,69.92l-7.34,3.27a1.1,1.1,0,0,1-1.29-.24,1.12,1.12,0,0,1-.15-1.31c.08-.13,5.85-10.27,11-22-11.67,15-22.65,22-24.76,23.3-2.28,5.6-26.29,63.2-54,76.8A1.14,1.14,0,0,1,76.74,822.86Zm15.65-69.17a1,1,0,0,1-.1.36c-.22.43-20.75,42.44-14.83,66.06C103,806.26,126,752.9,129,745.56a15.78,15.78,0,0,1-4.47,1.28,1.21,1.21,0,0,1-.9-.33,1.1,1.1,0,0,1-.32-.91c2.11-21.42,16.18-50.72,25.24-67.7-1,.23-1.93.48-2.85.71-5.48,12-16.39,34.25-29.33,51.74C107.83,741.94,99.22,749.22,92.39,753.69Zm68.19-40.4a1.26,1.26,0,0,1,.51.11,1.15,1.15,0,0,1,.55,1.4,240,240,0,0,1-13,28c1-.47,2.37-1.08,4.17-1.87,12.32-7.81,35.66-26.9,53.63-66.62a66.59,66.59,0,0,1-18.13,3h0a1.13,1.13,0,0,1-1.07-.76,1.1,1.1,0,0,1,.41-1.25c6.1-4.51,16.94-19.77,27.85-39a195.52,195.52,0,0,1-24.58,20.83c-10.89,24-21.21,42.43-30.48,56.16A.36.36,0,0,1,160.58,713.29Z"/><path class="cls-4" d="M245.9,683.24c.14-.09.27-.19.4-.29,6.1-8.1,13.48-15.07,20.26-23.9.89-.38,1.71-.77,2.57-1.15a2.42,2.42,0,0,1-.48-.13,125.81,125.81,0,0,1-19.74,6.4s8.93-14.2,21.47-32c-18.83,19.94-42.2,34.06-61.94,40.35a181.61,181.61,0,0,1-25.94,43c-2.56,7.13-5.84,15-9.64,21C197.21,721.92,213.71,714.91,245.9,683.24Z"/><path class="cls-5" d="M172.86,737.67a1.1,1.1,0,0,1-.81-.37,1,1,0,0,1-.14-1.34c3.21-5.11,6.4-12.12,9.55-20.82a1,1,0,0,1,.19-.34,181.74,181.74,0,0,0,25.76-42.71,1.2,1.2,0,0,1,.7-.63c21.17-6.74,44.13-21.68,61.46-40a1.1,1.1,0,0,1,1.51-.08,1.09,1.09,0,0,1,.2,1.51c-9.42,13.36-16.88,24.81-19.94,29.58a136.67,136.67,0,0,0,16.88-5.69,1.34,1.34,0,0,1,.66-.08,2.66,2.66,0,0,0,.28.11,1.25,1.25,0,0,1,1,1,1.12,1.12,0,0,1-.52,1.16l-.65.28-1.67.76c-3.34,4.32-6.79,8.18-10.15,11.93-3.54,4-6.86,7.67-9.93,11.7a.43.43,0,0,1-.22.2l-1.08-.56.79.81c-27,26.57-43.18,35.92-61.86,46.76-3.66,2.11-7.42,4.32-11.4,6.69A1.14,1.14,0,0,1,172.86,737.67Zm10.63-21.59A125.31,125.31,0,0,1,176,733.36c2.66-1.53,5.2-3,7.73-4.49,18.57-10.74,34.58-20,61.42-46.44,0,0,.28-.21.33-.26,3.07-4,6.44-7.79,10-11.76,2.71-3,5.5-6.16,8.23-9.51a132,132,0,0,1-14.55,4.38,1.13,1.13,0,0,1-1.15-.47,1,1,0,0,1,0-1.21c.07-.14,5.94-9.47,14.72-22.31-16.07,14.61-35.36,26.29-53.42,32.15A184.52,184.52,0,0,1,183.49,716.08Z"/><path class="cls-4" d="M172.86,736.52c3.8-6,7.08-13.88,9.64-21-10.93,13.28-21.54,21.56-29.24,26.43.86-.39,1.76-.76,2.85-1.25-17.88,22.91-33.53,64.83-33.53,64.83s1.68,2.24,30.73-27.39c7.32-8.07,30-33.12,42.6-55.15C188.52,727.46,181.14,731.57,172.86,736.52Z"/><path class="cls-5" d="M122.72,806.69a1.52,1.52,0,0,1-1-.48,1.25,1.25,0,0,1-.16-1.09c.16-.38,14.61-38.83,31.43-62.11a1.09,1.09,0,0,1-.29-2,126.06,126.06,0,0,0,29-26.23,1.12,1.12,0,0,1,1.41-.25,1.11,1.11,0,0,1,.5,1.34A126,126,0,0,1,176,733.36l7.64-4.44c4-2.31,7.85-4.57,11.71-6.89a1.11,1.11,0,0,1,1.55,1.51c-12.72,22.22-35.31,47.14-42.71,55.34C141.69,791.58,126.16,806.69,122.72,806.69Zm34.52-66a1.3,1.3,0,0,1-.24.73c-15.05,19.27-28.67,52.53-32.38,62,3-2.1,10.45-8.22,27.9-26,6.93-7.63,27.31-30.14,40.16-51.12-2.61,1.55-5.24,3.07-7.93,4.64-3.65,2.09-7.38,4.28-11.32,6.65a1.14,1.14,0,0,1-1.38-.2,1,1,0,0,1-.14-1.34,94.82,94.82,0,0,0,7.3-14.91A127.52,127.52,0,0,1,157.24,740.65Z"/><path class="cls-33" d="M172.86,736.52c3.8-6,7.08-13.88,9.64-21-10.93,13.28-21.54,21.56-29.24,26.43.86-.39,1.76-.76,2.85-1.25a125.81,125.81,0,0,0-7.28,10.53,137.09,137.09,0,0,1,12.46-8.74c1.17-.68,1.67.51,1.54,1.49-2.1,14.48-15,26.79-22.72,38.56a206.56,206.56,0,0,1-17.5,23c.27.14,3.35.5,30.7-27.39,7.32-8.07,30-33.12,42.6-55.15C188.52,727.46,181.14,731.57,172.86,736.52Z"/><path class="cls-2" d="M426.34,413.39c-12.69-49.6-44.41-66.33-74.4-46.72-2.32-18.54-7.46-30.56-14.12-38.09a.3.3,0,0,0-.05.08c-13.95-9.79-53.1,2.33-96.33,37.37s-75.69,69.35-84.69,128.91c-.45,3.9-2.46,26.36,5.67,35.42,8.94,9.93,51.59-17.86,81.69-71.76C228.25,507.87,226.35,510,226.35,510s40.59,8.08,67.69-31.25c-8.93,24.81-7.28,31.41-4.62,32.05s28.45-1.65,51.26-20.85c-12.58,23.83-12.9,30.13-10.6,31.43s30.76.89,49.28-23.18c1.65,2.35,11.57-6.31,19-24.79-1.53,10.27,3.11,7.94,7.84,15,.79.93,12,14,9.73,36.28C439.6,502.78,439,463,426.34,413.39Z"/><path class="cls-3" d="M167.74,533.45a7.83,7.83,0,0,1-6.13-2.35c-8.41-9.35-6.46-31.84-6-36.28,8.73-57.63,39-92.33,85.11-129.68,31.13-25.21,63.39-40.86,84.24-40.86,5.46,0,9.88,1.09,13.14,3.24a1.19,1.19,0,0,1,.52.31c7.15,8.05,11.9,20.45,14.18,37,7.83-4.81,15.81-7.25,23.68-7.25,23,0,42,20.75,50.93,55.56,14.45,56.52,11,92.26-10.7,112.42a1.12,1.12,0,0,1-1.27.15,1.11,1.11,0,0,1-.62-1.1c2.19-21.93-9-34.85-9.44-35.4a20.36,20.36,0,0,0-4.5-4.74c-1.94-1.56-3.3-2.81-3.77-5.35-6.32,13.35-13.75,20.63-17,20.63a1.77,1.77,0,0,1-.52,0,61.64,61.64,0,0,1-46,23.3,10.51,10.51,0,0,1-4.07-.57c-2.7-1.54-3.55-6.15,7.74-28.26-19.5,14.52-40.39,17.93-46.57,17.93a8.31,8.31,0,0,1-1.56-.12,3.37,3.37,0,0,1-2.11-1.78c-1.86-3.5-.65-11.9,3.65-25-18.88,23.1-42.42,26.71-55.35,26.71a53.87,53.87,0,0,1-9.21-.69,1.12,1.12,0,0,1-.63-1.81c0-.09,2.13-3.65,14.4-41.35C229,485.61,216,501.63,202.46,513.81,188.81,526.11,175.83,533.45,167.74,533.45ZM325,326.51c-20.36,0-52.09,15.48-82.84,40.39-45.66,37-75.68,71.35-84.29,128.2-.28,2.55-2.53,25.67,5.42,34.49a5.73,5.73,0,0,0,4.47,1.62c14.12,0,49.09-26,75.4-73.17a1.13,1.13,0,0,1,1.42-.47,1.12,1.12,0,0,1,.61,1.37c-11.4,35.44-15.64,46.66-17.17,50.23a62.88,62.88,0,0,0,7.33.43c13.48,0,38.92-4.07,57.8-31.47a1.11,1.11,0,0,1,2,1c-8,22.31-6.93,28.38-6.08,30a1.15,1.15,0,0,0,.68.65,5.46,5.46,0,0,0,1,.06c6.39,0,29.18-3.81,49.25-20.67a1.11,1.11,0,0,1,1.71,1.37c-13.62,25.81-11.87,29.43-11,29.91a10.07,10.07,0,0,0,3,.26c10,0,30.78-4.86,44.86-23.17a1.66,1.66,0,0,1,.92-.44,1.24,1.24,0,0,1,.89.49c1.91-.1,10.25-7.6,17.06-24.55a1.13,1.13,0,0,1,2.16.56c-.9,6.11.36,7.1,2.81,9.1a21.79,21.79,0,0,1,4.86,5.14c.38.43,11.18,12.88,10.14,34,19.19-19.89,21.7-54.41,7.95-108.16-8.63-33.73-26.85-53.88-48.75-53.88-7.94,0-16,2.65-24,7.86a1.19,1.19,0,0,1-1.07.08,1.22,1.22,0,0,1-.64-.88c-2.08-16.69-6.65-29.19-13.6-37.19a.18.18,0,0,1-.1-.06C334.24,327.52,330.14,326.51,325,326.51Z"/><path class="cls-3" d="M103.87,680.43l1.27-.47c0-.06.08-.15.12-.21C104.77,680,104.31,680.23,103.87,680.43Z"/><path class="cls-3" d="M103.87,680.43c-1.19.4-2.32.76-3.35,1A14.23,14.23,0,0,0,103.87,680.43Z"/><path class="cls-2" d="M281,602.92s5.59-8.69,12.32-24.61c-29.08,33.81-55,31.31-57.31,30.45s-.82-9.48,5.59-29c-26,29.31-54.48,33.51-61.47,29.89s-5.31-12.84,5.59-36.89c-8.11,10.61-24.81,23-46.55,34.86-3.58-7-9.34-31.78-9.34-31.78C87.36,635,96.31,681.43,96.31,681.43a10.78,10.78,0,0,0,4.21,0c1-.26,2.16-.62,3.35-1,.44-.2.9-.41,1.39-.68,0,.06-.08.15-.12.21,10.57-4.09,27.22-14.68,50.61-41.18-17.52,30.55-19.36,40.27-19.36,40.27s39.84-1.91,84.19-49.6c-12.67,23.47-25.43,41.7-32.27,46.75,21.83-.18,56.24-16.66,82.07-44-12.54,17.78-21.47,32-21.47,32a125.81,125.81,0,0,0,19.74-6.4,2.42,2.42,0,0,0,.48.13c51.09-23.17,86.83-43.75,85.69-73.8C318.78,604.69,281,602.92,281,602.92Z"/><path class="cls-3" d="M98.36,682.76a10.54,10.54,0,0,1-2.35-.25,1.16,1.16,0,0,1-.81-.85c-.07-.49-8.54-47.54,33.74-106.52a1.16,1.16,0,0,1,1.13-.43,1.05,1.05,0,0,1,.86.83c0,.24,5.25,22.59,8.76,30.51C161,594.37,177,582.29,184.85,572a1.14,1.14,0,0,1,1.46-.28,1.12,1.12,0,0,1,.44,1.44c-10.72,23.61-12.2,32.23-6.08,35.41a12.85,12.85,0,0,0,5.7,1c10.13,0,33-6.45,54.43-30.63a1,1,0,0,1,1.38-.23,1.07,1.07,0,0,1,.49,1.31c-8,24.41-6.56,27.33-6.2,27.67a14.21,14.21,0,0,0,3.56.33c6.17,0,28.15-2.19,52.45-30.5a1.13,1.13,0,0,1,1.88,1.19A198.09,198.09,0,0,1,283,601.83c8.39,0,40.47-1.11,71.26-18.71a1.13,1.13,0,0,1,1.1,0,1.08,1.08,0,0,1,.58.94c1.11,29.37-30.83,49.7-86.34,74.87a1.68,1.68,0,0,1-.7.07l-.17,0a133.46,133.46,0,0,1-19.58,6.33,1.13,1.13,0,0,1-1.15-.47,1,1,0,0,1,0-1.21c.07-.14,5.93-9.43,14.69-22.26-25.75,23.47-55.93,35.83-74.35,36h0a1.13,1.13,0,0,1-1.07-.76,1.1,1.1,0,0,1,.41-1.25c6.1-4.51,16.94-19.77,27.85-39-20.84,20.75-40.18,31.45-53.21,36.86-15.51,6.43-25.43,7-25.86,7a1.29,1.29,0,0,1-.89-.38,1.21,1.21,0,0,1-.25-1c.06-.36,1.69-8.38,14.67-32.05-20.6,21.9-35.38,30.73-44.41,34.22a1.18,1.18,0,0,1-.41.07l-.83.38a35.65,35.65,0,0,1-3.5,1.07A13.78,13.78,0,0,1,98.36,682.76Zm-1.08-2.28a11.58,11.58,0,0,0,3.06-.12c.91-.25,2-.57,3.16-1a10.76,10.76,0,0,0,1.21-.58,1.14,1.14,0,0,1,.68-.12c9.85-4,26.25-14.28,49.51-40.63a1.17,1.17,0,0,1,1.49-.18,1.1,1.1,0,0,1,.31,1.47c-13.48,23.55-17.64,34.73-18.79,38.44,7.75-1,43.26-7.56,81.85-49a1.08,1.08,0,0,1,1.46-.17,1.15,1.15,0,0,1,.34,1.45c-11.22,20.79-22.61,37.75-30.08,45,20.33-1.6,52.58-16.51,78.09-43.52a1.1,1.1,0,0,1,1.51-.08,1.09,1.09,0,0,1,.2,1.51c-9.42,13.36-16.88,24.81-19.94,29.58a136.67,136.67,0,0,0,16.88-5.69,1.34,1.34,0,0,1,.66-.08s.07,0,.14,0c53.23-24.13,84.35-43.63,84.71-70.73-30.35,16.77-61.45,18.11-70.37,18.11-1.55,0-2.38-.07-2.38-.07a1.12,1.12,0,0,1-.94-.61,1.1,1.1,0,0,1,0-1.11,154.32,154.32,0,0,0,9.46-18.13c-22.35,23.47-41.84,26.14-49.52,26.14a14.68,14.68,0,0,1-4.39-.49c-2-.78-3.58-3.54,3.37-25.63-19.54,20.33-40.31,27.65-52.64,27.65a15.43,15.43,0,0,1-6.73-1.22c-7.58-4-5.68-13.54,2.09-31.61-9.09,9.31-23.67,19.61-42,29.58a1.24,1.24,0,0,1-.85.08,1.06,1.06,0,0,1-.67-.57c-3-5.8-7.33-23.17-8.88-29.63C92.07,631.65,96.41,674.33,97.28,680.48Z"/><path class="cls-2" d="M398.39,473.44c-7.46,18.48-17.38,27.14-19,24.79-18.52,24.07-47,24.52-49.28,23.18s-2-7.6,10.6-31.43c-22.81,19.2-48.62,21.52-51.26,20.85s-4.31-7.24,4.62-32.05C266.94,518.11,226.35,510,226.35,510s1.9-2.16,17.76-51.43c-30.1,53.9-72.75,81.69-81.69,71.76-8.13-9.06-6.12-31.52-5.67-35.42,0,.12-.05.26-.09.38-38.56,43-26.81,80.49-26.81,80.49s5.76,24.83,9.34,31.78c21.74-11.81,38.44-24.25,46.55-34.86-10.9,24-12.57,33.24-5.59,36.89s35.48-.58,61.47-29.89c-6.41,19.55-7.81,28.22-5.59,29s28.23,3.36,57.31-30.45C286.61,594.23,281,602.92,281,602.92s37.76,1.77,73.8-18.82c72.08-43.84,51.33-95.73,51.33-95.73l.08.06C401.5,481.38,396.86,483.71,398.39,473.44Z"/><path class="cls-3" d="M186.37,611.84a15.43,15.43,0,0,1-6.73-1.22c-7.58-4-5.68-13.54,2.09-31.61-9.09,9.31-23.67,19.61-42,29.58a1.24,1.24,0,0,1-.85.08,1.06,1.06,0,0,1-.67-.57c-3.61-7-9.22-31-9.44-32-.11-.31-11.45-38.39,27-81.38a1.2,1.2,0,0,1,1.13-.65c.6.07,1.07.43,1,1-.28,2.6-2.53,25.72,5.42,34.54a5.73,5.73,0,0,0,4.47,1.62h0c14.12,0,49.1-26,75.4-73.17a1.13,1.13,0,0,1,1.42-.47,1.12,1.12,0,0,1,.61,1.37c-11.4,35.44-15.64,46.66-17.17,50.23a62.41,62.41,0,0,0,7.33.43c13.48,0,38.92-4.07,57.8-31.47a1.11,1.11,0,0,1,2,1c-8,22.31-6.93,28.38-6.08,30a1.15,1.15,0,0,0,.68.65,5.46,5.46,0,0,0,1,.06c6.39,0,29.18-3.81,49.25-20.67a1.11,1.11,0,0,1,1.71,1.37c-13.62,25.81-11.87,29.43-11,29.91a10.07,10.07,0,0,0,3,.26c10,0,30.78-4.86,44.86-23.17a1.66,1.66,0,0,1,.92-.44,1.24,1.24,0,0,1,.89.49c1.91-.1,10.25-7.63,17.06-24.55a1.13,1.13,0,0,1,2.16.56c-.9,6.11.36,7.1,2.81,9.1a21.79,21.79,0,0,1,4.86,5.14,1,1,0,0,1,.18.54c1.78,5.12,16.7,54.94-51.94,96.66-30.89,17.66-63,19.06-72,19.06-1.55,0-2.38-.07-2.38-.07a1.12,1.12,0,0,1-.94-.61,1.1,1.1,0,0,1,0-1.11,154.32,154.32,0,0,0,9.46-18.13c-22.35,23.47-41.84,26.14-49.52,26.14a14.68,14.68,0,0,1-4.39-.49c-2-.78-3.58-3.54,3.37-25.63C219.47,604.52,198.7,611.84,186.37,611.84Zm-.63-40.23a1.08,1.08,0,0,1,.57.15,1.12,1.12,0,0,1,.44,1.44c-10.72,23.61-12.2,32.23-6.08,35.41a12.85,12.85,0,0,0,5.7,1c10.13,0,33-6.45,54.43-30.63a1,1,0,0,1,1.38-.23,1.07,1.07,0,0,1,.49,1.31c-8,24.41-6.56,27.33-6.2,27.67a14.21,14.21,0,0,0,3.56.33c6.17,0,28.15-2.19,52.45-30.5a1.13,1.13,0,0,1,1.88,1.19A198.09,198.09,0,0,1,283,601.83c8.39,0,40.47-1.11,71.26-18.71,69.5-42.24,51.58-92.46,50.87-94.3a19.64,19.64,0,0,0-4.23-4.39c-1.94-1.56-3.3-2.81-3.77-5.35-6.32,13.35-13.75,20.63-17,20.63a1.77,1.77,0,0,1-.52,0,61.64,61.64,0,0,1-46,23.3,10.51,10.51,0,0,1-4.07-.57c-2.7-1.54-3.55-6.15,7.74-28.26-19.5,14.52-40.39,17.93-46.57,17.93a8.31,8.31,0,0,1-1.56-.12,3.37,3.37,0,0,1-2.11-1.78c-1.86-3.5-.65-11.9,3.65-25-18.88,23.1-42.42,26.71-55.35,26.71a53.87,53.87,0,0,1-9.21-.69,1.12,1.12,0,0,1-.63-1.81c0-.09,2.13-3.65,14.4-41.35C229,485.61,216,501.63,202.48,513.78c-13.67,12.33-26.65,19.67-34.74,19.67h0a7.83,7.83,0,0,1-6.13-2.35c-7-7.73-6.82-24.46-6.3-32.54-35.07,41-24.51,76.55-24.39,76.91s5.26,22.66,8.77,30.58C161,594.37,177,582.29,184.85,572A1.13,1.13,0,0,1,185.74,571.61Z"/><path class="cls-3" d="M386.22,483c-3.81,7.4-6.84,14.49-13.43,20a123.72,123.72,0,0,1-18.37,12.87c-4.58,2.52-30.11,12.54-23.36-4.2,2.83-7,5.57-14.25,9.79-20.57,1.32-1.1,2.64-2.19,3.95-3.22.43-.37.85-2.14-.1-1.52-.75.48-1.44,1-2.17,1.53-.07,0-.15.05-.26.17s0,0,0,0c-3.41,2.4-6.66,4.92-10,7.47-8.5,6.53-18.31,9.44-28.5,12.06-6.37,1.65-18.28,5.74-16.13-5.38,1.31-6.7,3.14-13.37,5-20,4.13-6.45,7.74-13.23,11.28-18.9.83-1.32-.3-2-1.18-.72-6.56,9-11.52,18.75-18.83,27.43A55,55,0,0,1,242,509.09c-1,0-14.48-.36-12.93-3.28a47.51,47.51,0,0,0,2.66-7.82c3.47-11.74,5-23.68,9.53-35,1.46-2.4,3-4.75,4.4-7.18.59-1-.22-1.49-.9-.57C230,475.72,219,501.06,197.45,515.57c-4.38,3-9.26,5.37-13.89,7.9-6.86,3.72-20,14.11-24-.62-2.64-9.59-4.51-25.55-1.63-34.88.13-.39-.31-.14-.41.06-5,10.29-.92,25.42.36,36.23,1.69,14.28,13.87,7.34,22,3.24,13.63-6.88,25.48-14,34.79-26.25,8.83-11.59,17.08-23.1,24.76-35.27-5.78,13.74-8.24,28.62-13.34,42.67-.17.44-.37,1.26.3,1.38,18.7,3.47,30.93.37,47.33-8.23,6.68-3.48,12-9.5,16.67-16.23-4.09,10.56-9.46,26.81-.25,26.91s20.31-4.26,28.88-7.38c7-2.58,13.18-7,19-11.75-4.31,6.4-7.32,14.26-9.62,21.22-2.4,7.33-.64,9.89,7.84,8.85,22.15-2.72,43.65-19.3,51.06-40.35C387.72,481.87,386.62,482.2,386.22,483Z"/><path class="cls-3" d="M398,472.92c-2,4.26-3.32,8.78-5.77,12.83a39,39,0,0,1-12.83,12.48c-.58.33-1.15,2.21-.09,1.64A39.7,39.7,0,0,0,394,485c1.88-3.17,2.72-9.39,4.38-11.56a2.32,2.32,0,0,0,.19-.31C399,472.42,398.28,472.27,398,472.92Z"/><path class="cls-3" d="M355.78,583.85c-9,3.72-18.38,6-27.42,9.49-11.43,4.41-22.63,7.53-35,8-1.58.08-10.39-.82-11.18-.19,1.4-1.13,2.85-4,3.67-5.33a145.47,145.47,0,0,0,8.15-16.4,99,99,0,0,0,8.3-11.54c.69-1.15-.28-1.71-1-.64-11.23,15.83-25,29.56-43.37,36.66-2.88,1.1-25.4,8.17-22.46-.77,2.58-7.91,3-15.13,6.57-22.35,3-3.38,5.74-6.84,8.25-10.2.45-.62.24-1.66-.52-.83-14.27,15.59-27,29.71-47.46,37.1-7.62,2.77-18.65,5.22-23.22.22a.45.45,0,0,0-.34-.41c-1.63-2.08-2.29-5.22-1.39-10,1.49-7.68,4.94-15,8.54-22.07a87.41,87.41,0,0,0,9.67-14.85c.64-1.19-.69-1.36-1.25-.4-10.73,18-24.05,28.32-41.42,39.58-3,1.93-5.91,4-8.92,5.87-6.41,4-6.05-1.93-7.35-6.8-2.36-9.05-5.29-17.73-7.14-26.92,0-.27-.39.16-.38.35a125.41,125.41,0,0,0,5.12,24.21c1.32,4.22,1.34,9.41,3.34,13.29a.42.42,0,0,0,.25.17c4.21.17,8.71-4,12-6.2,6.45-4.21,13.1-8.1,19.39-12.59a83.54,83.54,0,0,0,14.28-12.87c-4,7.48-7.29,15.35-8.46,23.7-.53,3.83.06,6.32,1.39,8-6.75,13.87-19.16,26.1-29.55,37.22-12,12.87-27.48,27.32-44.28,33.79-.4.15-1.11,1.47-.32,1.33,6.71-1.2,12.82-5.71,18.23-9.74,8.8-6.48,17-12.74,24.53-20.69,3-3.14,6.19-6.4,9.42-9.81-7.61,11.81-15.32,24.17-19.19,37.51-.3,1,.69.78,1.1.22,7,3.21,19.08-3.38,25.56-5.75a125.84,125.84,0,0,0,30.27-16.55,161.42,161.42,0,0,0,25.21-22.55c-2.17,3.63-4.36,7.27-6.78,10.71-7.06,10.14-13.66,20.43-21.7,29.86a.89.89,0,0,0-.18.35.15.15,0,0,0-.12,0c-.33,0-.82,1-.34,1,16.76,2,31.42-7,46.27-14.44,9.33-4.66,17.4-13.32,25.35-20,2.81-2.33,5.64-4.88,8.41-7.55-2.55,4-5.86,7.83-8.35,11.46-4.27,6.15-8.49,12.31-12.8,18.45-.7,1,.05,2.07,1,1,.25-.31.47-.64.73-1,7.44-.62,15.31-2.71,21.54-6.84.67-.43,1.5-2.84.11-2.09a92.52,92.52,0,0,1-20.64,7.67c4.65-5.84,8.45-12.13,12.55-18.39,2.58-3.9,5.8-8,7.91-12.33a91.7,91.7,0,0,0,8-9.1c.8-1.07.37-2.87-.87-1.43-11.7,13.84-27.21,28.57-42.82,37.86a146.91,146.91,0,0,1-24.82,11.74c-6.75,2.43-12.66,3-19.31,3.69,13.72-12,22-30.39,31.5-46.14a113.1,113.1,0,0,0,12.59-19c2.63.83,7.25,0,8.3-.14,19.27-3,36-13.23,48.78-27.53-4,6.78-8.51,13.3-12.13,20.16-.14.31-.61,1.41.11,1.47a113.21,113.21,0,0,0,37-3.81c12.64-3.37,27-7.65,38.63-13.68C356.1,585.91,357,583.37,355.78,583.85ZM233.19,608.93c-9.26,17.24-23.32,31.2-38.5,43.44a120,120,0,0,1-25.2,15.33c-8,3.74-23,11.2-32.45,10.12,3.32-6.41,5.69-13.31,9.25-19.68,3.85-6.86,8-13.64,11.74-20.57,7.75-8.38,15.25-17.39,19.78-27.16,2.67,1.85,7,2,12,1.71,19.62-1.15,37.1-14.55,50.46-29.31-3.47,7.49-4.54,15.76-7.31,23.86A2.23,2.23,0,0,0,233.19,608.93Z"/><path class="cls-32" d="M345.19,142.89s17.81-12.85,32.07,10C373.48,136,355.87,128.15,345.19,142.89Z"/><path class="cls-34" d="M465.76,235.12c12.44-7.09,21.51-16.31,24.39-26.51a1.15,1.15,0,0,1-.06-.21c-6-13.79-17.15-18.12-34.45-35.32-21.3-21.14-32-17.58-49.5-7.9s-36.51,10-44,48.44,13.35,74.91,13.35,74.91,3.88-39.2,37.9-46.1a4,4,0,0,0-.26.32,6,6,0,0,1,1-.26C423.2,241.31,448.16,245.2,465.76,235.12Z"/><path d="M375.52,289.65a1.13,1.13,0,0,1-1-.57c-.21-.36-20.92-37.34-13.47-75.68,6.17-31.73,20-37.91,34.67-44.45,3.24-1.45,6.61-2.94,9.85-4.75,7.46-4.13,14.76-7.81,22.26-7.81,8.69,0,17.5,4.9,28.58,15.89,6.2,6.15,11.55,10.65,16.26,14.55,8.4,7,14.47,12.06,18.42,21.14,0,.05.08.23.11.26a1.73,1.73,0,0,1,0,.64c-2.85,10.14-11.48,19.54-24.91,27.23-13.14,7.51-30.48,7.4-42.27,7.29-1.43,0-2.77-.06-4-.06a45.85,45.85,0,0,0-5.7.25,2.58,2.58,0,0,0-.42.11,3.53,3.53,0,0,1-.54.13,1.25,1.25,0,0,1-.69-.07c-31.91,7.2-36,44.52-36.05,44.87a1.12,1.12,0,0,1-.88,1A.82.82,0,0,1,375.52,289.65Zm52.33-131c-7,0-14,3.57-21.16,7.54-3.34,1.85-6.75,3.35-10.05,4.81-14.1,6.31-27.43,12.25-33.37,42.86-6.08,31.32,7.06,61.74,11.68,71.17,1.92-9.84,9.81-37.9,38.25-43.66a1.36,1.36,0,0,1,.64,0,.62.62,0,0,0,.19,0,48.68,48.68,0,0,1,6-.26c1.26,0,2.61,0,4.05.05,1.62,0,3.33,0,5.13,0,11.74,0,25.18-.82,36-7,12.57-7.2,21-16.26,23.76-25.52-3.76-8.49-9.62-13.36-17.7-20.1-4.77-4-10.14-8.46-16.41-14.67C444.23,163.33,435.92,158.62,427.85,158.62Z"/><path class="cls-35" d="M375,207.78c8.34-22.09,24.35-34.78,41.64-47.8a99,99,0,0,0-10.54,5.2c-17.51,9.69-36.51,10-44,48.44-5.78,29.79,5.43,58.37,10.75,69.71C366.65,258.43,365.8,232.28,375,207.78Z"/><path class="cls-34" d="M490.15,208.61c-2.42,8.57-9.26,16.45-18.75,23-10.75,36-78.66,70.3-78.66,70.3a343.51,343.51,0,0,0,62-22C481.42,267.45,499.05,237.38,490.15,208.61Z"/><path d="M392.74,303a1.11,1.11,0,0,1-1-.75,1.1,1.1,0,0,1,.54-1.37c.68-.34,67.59-34.47,78.06-69.62a1.18,1.18,0,0,1,.45-.62c9.75-6.69,16.08-14.4,18.31-22.35a1.13,1.13,0,0,1,1.09-.81,1.11,1.11,0,0,1,1.07.78c8.6,27.81-6.86,59-36,72.66A351.05,351.05,0,0,1,393,303,.8.8,0,0,1,392.74,303Zm79.6-70.72C463.46,261,420,288,401.51,298.41a355.11,355.11,0,0,0,52.79-19.5c26.91-12.59,41.75-40.7,35.7-66.57C487,219.48,481,226.29,472.34,232.28Z"/><path class="cls-34" d="M433.32,242.24c-8.14.19-15.19-.26-19.15.25a6,6,0,0,0-1,.26c-20,19-20.42,59.12-20.42,59.12s9.06-4.56,21-12.1C413.88,268.17,426.63,250.17,433.32,242.24Z"/><path d="M392.74,303a1,1,0,0,1-.58-.18,1.14,1.14,0,0,1-.54-.95c0-1.66.7-40.78,20.75-60a.94.94,0,0,1,.55-.28.76.76,0,0,0,.34-.11,4.45,4.45,0,0,1,.77-.17,49,49,0,0,1,6-.26c1.26,0,2.59,0,4,0,2.8,0,5.93.08,9.24,0a1.22,1.22,0,0,1,1,.64,1.16,1.16,0,0,1-.14,1.21c-5.77,6.8-19.18,25-19.29,46.79a1.14,1.14,0,0,1-.52,1c-11.9,7.48-21,12.13-21.12,12.15A1.1,1.1,0,0,1,392.74,303Zm20.95-59.25C397,260,394.34,291.93,393.93,300c3.09-1.62,10.15-5.48,18.72-10.83.33-20.47,11.88-37.72,18.27-45.75-2.43,0-4.75,0-6.88,0-1.42,0-2.75,0-4,0a46.11,46.11,0,0,0-5.72.25,2.58,2.58,0,0,0-.42.11Z"/><path class="cls-36" d="M471.4,231.57c-1.81,1.21-3.66,2.44-5.64,3.55-9.88,5.67-22.05,6.9-32.44,7.12-6.69,7.93-19.44,25.93-19.55,47.53C434.67,276.66,464.55,254.47,471.4,231.57Z"/><path class="cls-37" d="M465.76,235.12c-9.88,5.67-22.05,6.9-32.44,7.12-.52.6-1.06,1.29-1.61,2,3.74-1.24,7.62-1.84,10.58-.36,4.58,2.29,5.61,7.46,3.31,12-4.57,9-13.69,15.43-21.25,21.78-3.47,2.92-6.94,5.83-10.45,8.73-.08,1.13-.12,2.25-.13,3.4,20.9-13.11,50.78-35.3,57.63-58.2C469.59,232.78,467.74,234,465.76,235.12Z"/><g class="cls-8"><path class="cls-34" d="M490.09,208.4c-6-13.79-17.15-18.12-34.45-35.32-21.3-21.14-32-17.58-49.5-7.9,25.69-13.83,38,1.1,49.82,19.12s4.84,41.28-45.21,39.52c-37.79-1.32-38.54,41.09-36.65,62,.85,1.69,1.42,2.7,1.42,2.7s3.88-39.2,37.9-46.1a4,4,0,0,0-.26.32,6,6,0,0,1,1-.26c9-1.18,34,2.71,51.59-7.37,12.44-7.09,21.51-16.31,24.39-26.51A1.15,1.15,0,0,1,490.09,208.4Z"/></g><path class="cls-35" d="M387.44,175.58c.06,0,.07-.14,0-.09-11.69,8.25-18.11,15.61-22.6,29.42-5.77,17.65-3.07,38.07,1.19,55.66.19.81,1.2-.4,1.09-.91-2.29-13.23-4.42-26.12-3.83-39.63C364.12,200.94,372.67,186.91,387.44,175.58Z"/><g class="cls-8"><path class="cls-34" d="M414.17,242.49a6,6,0,0,0-1,.26,46.9,46.9,0,0,0-7.58,9.6c4.12-2.95,8.54-5.53,11.45-5.66,6.9-.28-6.61,17.24-9.2,31.07-1.92,10.29-7.22,14.34-14.8,18.86-.25,3.23-.29,5.25-.29,5.25s9.06-4.56,21-12.1c.11-21.6,12.86-39.6,19.55-47.53C425.18,242.43,418.13,242,414.17,242.49Z"/></g><g class="cls-8"><path class="cls-34" d="M490.15,208.61c-2.42,8.57-9.26,16.45-18.75,23-1.86,6.2-5.44,12.35-10,18.3A57.32,57.32,0,0,0,475.83,237c13.64-17.3,12.74,39.11-63.27,53.58-11.38,7.09-19.82,11.34-19.82,11.34a343.51,343.51,0,0,0,62-22C481.42,267.45,499.05,237.38,490.15,208.61Z"/></g><path class="cls-35" d="M423.2,285.83s25.34-16.41,44.72-39.89C474.63,237.38,466.44,273.16,423.2,285.83Z"/><path class="cls-20" d="M523.17,163.81s-.69.69-1.9,1.86c-.6.59-1.35,1.31-2.2,2.16a23.11,23.11,0,0,1-3.27,2.35l-2,1.26c-.7.38-1.47.69-2.27,1.05a19.13,19.13,0,0,1-5.08,1.73c-.92.22-1.86.43-2.8.63-1,0-1.95.09-2.94.15a34,34,0,0,1-5.95-.32A41,41,0,0,1,483.73,171a51.58,51.58,0,0,1-8.54-5.35,46.68,46.68,0,0,1-7.08-6.69l2.1,1.63c1.31,1.11,3.32,2.41,5.71,4a63.4,63.4,0,0,0,8.66,4.61,48.24,48.24,0,0,0,5.11,1.92,41.69,41.69,0,0,0,5.46,1.29,29.93,29.93,0,0,0,5.56.41l2.74-.08,2.63-.46A20.46,20.46,0,0,0,511,171c.76-.27,1.54-.49,2.23-.79l1.94-1.08c1.2-.72,2.45-1.2,3.41-1.92s1.76-1.33,2.45-1.81C522.37,164.37,523.17,163.81,523.17,163.81Z"/><g class="cls-12"><path class="cls-10" d="M671.43,473c3.53-16.29.39-35.76-15.85-61.59,6.26,13.82,11.6,28.28,11.6,37.44-15.59-24-39.62-19.5-39.62-19.5s47.4,47.41-9.1,90.28c11-21.43,4.55-39.64,4.55-39.64s-3.26,45.49-42.21,64.95c2.59-24.66-27.28-39-55.87-53.91s-45.45-49.35-23.37-86.36C481.43,420.2,471,449.42,471,449.42s-.64-23.38,24-51.29a54.36,54.36,0,0,0-29.21,19.49s-.66-23.4,26.6-29.25c0,0-33.13-4.54-44.16,20.79,0,0-9.82-17.51,1.35-30.93,0,0-14.52-2.23-17.88,8.94,3.36-30.17-10.06-39.12-39.12-42.47s-31.29-17.9-33.52-34.65c-11.19,3.35-10.08,20.11-10.08,20.11s-2.23-26.83-13.41-45.83c-.2-.35-.46-.68-.7-1.05,7.66,32.44,3.28,44.31,2.88,45.3,6.66,7.53,11.8,19.55,14.12,38.09,30-19.61,61.71-2.88,74.4,46.72S439.6,502.78,416,524.71c2.3-23.08-9.81-36.34-9.81-36.34s20.75,51.89-51.33,95.73c1.16,30.57-35.76,51.32-88.26,74.95-15.57,20.2-34,30.58-33.42,66.92,8.64-13.85,16.14-20.2,16.14-20.2s-15.57,32.3-3.47,38.06a57.45,57.45,0,0,1,19.29,15.31s8.94,5,23.2,18.14c11.63,10.72,13.2,27.52,13.2,27.52s12.08-7.83,12.08-11.65a40.49,40.49,0,0,1,6.63,9.86l10.29-9.78s2.22,6.15,11.16,11.18c11.74-39.14,35.79-53.11,50.33-58.7,20.11,18.45,19.6,50.28,19.6,50.28s4.88-3.24,11.15-13.25c2.08,6,8.12,11.15,8.12,11.15s3.25-3.25,9.74-12.75c4.64,8.57,16.21,16.37,16.21,16.37s3.73-23.83,33.54-75.29,76.75-82.69,116.79-120.49c34.5-38.57,48.18-67,46.67-102,18.26-31.95-5.3-57-5.3-57S667.52,449.48,671.43,473Z"/></g><g class="cls-12"><path class="cls-38" d="M542.67,647c-33.12,21.52-78.69,89.45-87.79,134.18a27.93,27.93,0,0,1-9.11-19s-10.78,5.78-13.26,18.22c-6.63-10-5.79-22.39-5.79-22.39l-9.11,18.22s2.49-16.56-4.14-24.83c33.13-5.78,56.32-19.9,63.79-46.39-19.89,18.22-50.54,21.54-79.51,26.49s-57.18,34-57.18,57.18c-6.63-9.11-6.63-16.57-6.63-16.57L322.35,787c-4.14-11.61-5-18.26-5-18.26l-10.78,15.75s-54.81-59.37,21.2-116C304,671.48,295,678.94,295,678.94s22.35-25.36,59.61-44.72,61.1-61.11,61.1-87.94l10.45,32.79s31.29-47.69,17.87-122.21c-5.95-33.06-15.72-59.08-30.07-73.74a108.22,108.22,0,0,1,12.34,30.27C439,463,439.6,502.78,416,524.71c2.3-23.08-9.81-36.34-9.81-36.34s20.75,51.89-51.33,95.73c1.16,30.57-35.76,51.32-88.26,74.95-15.57,20.2-34,30.58-33.42,66.92,8.64-13.85,16.14-20.2,16.14-20.2s-15.57,32.3-3.47,38.06a57.45,57.45,0,0,1,19.29,15.31s8.94,5,23.2,18.14c11.63,10.72,13.2,27.52,13.2,27.52s12.08-7.83,12.08-11.65a40.49,40.49,0,0,1,6.63,9.86l10.29-9.78s2.22,6.15,11.16,11.18c11.74-39.14,35.79-53.11,50.33-58.7,20.11,18.45,19.6,50.28,19.6,50.28s4.88-3.24,11.15-13.25c2.08,6,8.12,11.15,8.12,11.15s3.25-3.25,9.74-12.75c4.64,8.57,16.21,16.37,16.21,16.37s3.73-23.83,33.54-75.29,76.75-82.69,116.79-120.49c19.5-21.8,32.34-40.35,39.55-58.67C626.48,572.55,588.78,620.66,542.67,647Z"/></g><path class="cls-24" d="M433.53,244.72c-10.53,10.13-16,23.4-16.6,38,0,1,1.13-.14,1.2-.65,1.52-14.4,6.22-25.9,15.56-37C433.83,244.89,433.83,244.44,433.53,244.72Z"/><path class="cls-14" d="M401.93,44.39A124.94,124.94,0,0,0,337.74,133c-1.71,9.56,8.13,2.58,9.61-2.59,10.1-34.85,27.14-61.36,54.65-84.89C402.32,45.26,402.72,44,401.93,44.39Z"/><path class="cls-14" d="M432.44,36.27c-15.57,6.2-32.91,19.86-38.29,36.27-1.52,4.58,3.76,3.2,5.24.49,7.39-13.44,19.73-24.31,32.42-32.77C432.68,39.67,434.64,35.36,432.44,36.27Z"/><g class="cls-12"><path class="cls-2" d="M426.34,413.39c-12.69-49.6-44.41-66.33-74.4-46.72-2.32-18.54-7.46-30.56-14.12-38.09a.3.3,0,0,0-.05.08c-2.84-2-6.77-3-11.55-3.22,13.08,17,18.84,46.15,13.91,67.32,19-22.35,41.35-3.33,27.93,43.59s-60.36,44.72-60.36,44.72,10.05-32.41,7.82-60.35c-15.66,49.18-69.31,68.17-69.31,68.17a713.43,713.43,0,0,1,14.53-71.53c-26.82,51.41-83.83,102.83-85,71.53-1.7-47.57,30.83-89.31,46.53-106.61-33.47,29.93-57.95,62.28-65.57,112.66-.45,3.9-2.46,26.36,5.67,35.42,8.94,9.93,51.59-17.86,81.69-71.76C228.25,507.87,226.35,510,226.35,510s40.59,8.08,67.69-31.25c-8.93,24.81-7.28,31.41-4.62,32.05s28.45-1.65,51.26-20.85c-12.58,23.83-12.9,30.13-10.6,31.43s30.76.89,49.28-23.18c1.65,2.35,11.57-6.31,19-24.79-1.53,10.27,3.11,7.94,7.84,15,.79.93,12,14,9.73,36.28C439.6,502.78,439,463,426.34,413.39Z"/></g><g class="cls-12"><path class="cls-2" d="M406.15,488.37l.08.06c-4.73-7.05-9.37-4.72-7.84-15-7.46,18.48-17.38,27.14-19,24.79-18.52,24.07-47,24.52-49.28,23.18s-2-7.6,10.6-31.43c-22.81,19.2-48.62,21.52-51.26,20.85s-4.31-7.24,4.62-32.05C266.94,518.11,226.35,510,226.35,510s1.9-2.16,17.76-51.43c-30.1,53.9-72.75,81.69-81.69,71.76-8.13-9.06-6.12-31.52-5.67-35.42,0,.12-.05.26-.09.38a121,121,0,0,0-20.35,30.5c5.83-4.45,11.42-3.45,14.89,10,6.7,26.84,28,17.88,57-13.4,0,24.58,40.24,15.63,68.2-7.85-2.25,23.48,8.94,22.38,31.29,7.85-19,51.42-33.54,61.46-55.9,73.75,1.12-22.33,7.83-43.59,7.83-43.59s-35.77,40.25-60.37,40.25c-15.65-3.34,5.59-46.93,5.59-46.93s-34.64,34.64-54.77,40.24c-15.9,4.41-20.6-16.92-21.9-26.09-.18,9.78,1.67,15.73,1.67,15.73s5.76,24.83,9.34,31.78c21.74-11.81,38.44-24.25,46.55-34.86-10.9,24-12.57,33.24-5.59,36.89s35.48-.58,61.47-29.89c-6.41,19.55-7.81,28.22-5.59,29s28.23,3.36,57.31-30.45C286.61,594.23,281,602.92,281,602.92s37.76,1.77,73.8-18.82C426.9,540.26,406.15,488.37,406.15,488.37Z"/></g><path class="cls-39" d="M220.06,630l.32-.2.2-.36C220.4,629.65,220.22,629.82,220.06,630Z"/><path class="cls-6" d="M164.55,629.11c-27.46,19.41-58.91,38.14-58.91,38.14s-4.69-12-6-22.75a6,6,0,0,0-.77-2.24c-5.43,24-2.52,39.17-2.52,39.17a10.78,10.78,0,0,0,4.21,0c1-.26,2.16-.62,3.35-1,.44-.2.9-.41,1.39-.68,0,.06-.08.15-.12.21,10.57-4.09,27.22-14.68,50.61-41.18-17.52,30.55-19.36,40.27-19.36,40.27s39.53-1.91,83.67-49c-29.12,17.38-65.57,35.91-65.57,35.91S159.18,641.84,164.55,629.11Z"/><path class="cls-2" d="M209.39,665.25l0,0C209.29,665.34,209.24,665.34,209.39,665.25Z"/><path class="cls-3" d="M209.3,666.43h0a1.13,1.13,0,0,1-1.07-.76,1.26,1.26,0,0,1,.43-1.29,1.24,1.24,0,0,1,1.57.13,1.09,1.09,0,0,1,0,1.49.57.57,0,0,1-.23.17A1.28,1.28,0,0,1,209.3,666.43Z"/><path class="cls-6" d="M281,602.92s5.59-8.69,12.32-24.61c-29.08,33.81-55,31.31-57.31,30.45s-.82-9.48,5.59-29c-26,29.31-54.48,33.51-61.47,29.89s-5.31-12.84,5.59-36.89c-8.11,10.61-24.81,23-46.55,34.86-3.58-7-9.34-31.78-9.34-31.78-13.24,18.44-21.48,35.64-26.55,50.59,5.48-8.58,22.66-33.82,25.07-16.72,2,14.08,8,13.41,26.12,2,14.07-8.06,5.36,30.12,57.57,2.66,16.08-8-4,20.76,46.19-1.32-20,31.21-46.92,50.76-48.83,52.17l0,0c-.15.09-.1.09,0,0,2.06-1.51,11.28-23.39,12.65-36.42-.55.34-1.13.67-1.69,1-12.59,23.3-25.24,41.37-32.07,46.39,21.83-.18,56.24-16.66,82.07-44-12.54,17.78-21.47,32-21.47,32a125.81,125.81,0,0,0,19.74-6.4,2.42,2.42,0,0,0,.48.13c51.09-23.17,86.83-43.75,85.69-73.8C318.78,604.69,281,602.92,281,602.92Z"/><g class="cls-8"><path class="cls-4" d="M155.75,638.78c-23.39,26.5-40,37.09-50.61,41.18C101.39,685.81,98,694.32,95,703.73c4.27-5.57,16-19.79,27.86-24.23,9.59-2.82-10.69,51.45-37.3,65.06-.73,4.64-1.26,8.86-1.57,12.32,1.06-.4,1.94-.78,2.74-1.12,7.35-4,18.07-11.61,28.74-26.08,13-17.53,23.81-39.68,29.43-52a54.41,54.41,0,0,1-8.53,1.39S138.23,669.33,155.75,638.78Z"/></g><g class="cls-8"><path class="cls-4" d="M150.8,676.09c-3.35,6.22-8.27,15.72-13,26.36,7.86-10.8,17.06-21.72,22.62-22.34,10.13-1.11-12.6,41.36-35.84,64.23,0,.45-.14.93-.19,1.37,10-1.08,34.82-21.37,65.59-89.33C174.24,667.51,160.45,673.2,150.8,676.09Z"/></g><g class="cls-8"><path class="cls-4" d="M220.58,629.45A194.57,194.57,0,0,1,190,656.38c-30.77,68-55.54,88.25-65.59,89.33,2.27-22.79,18.54-55.16,26.37-69.62-2.17.65-4.15,1.16-5.88,1.57-5.62,12.34-16.47,34.49-29.43,52-10.67,14.47-21.39,22.12-28.74,26.08a40.33,40.33,0,0,0,4.52-2.21s-1.47,3-3.53,7.85c5.62-6.19,11.94-11.54,19.59-14.44.79-.3,1.17.54,1.21,1.17C109.92,773.7,96,801.07,76,818.73c.21,1,.44,2,.72,3,28.52-14,53.66-76.57,53.66-76.57s15.64-8.93,30.18-30.74c-.22.6-.45,1.19-.68,1.8,7.25-9.76,15.45-20.58,20.9-26.87,10.55-12.2,5.06,16.7-31,54.14l3.45-1.54c13.94-8.82,37.34-28.7,55.18-69.4a69.82,69.82,0,0,1-20.13,3.66C195.15,671.15,207.91,652.92,220.58,629.45Z"/></g><g class="cls-8"><path class="cls-4" d="M248.91,664.17s8.93-14.2,21.47-32c-18.83,19.94-42.2,34.06-61.94,40.35a181.61,181.61,0,0,1-25.94,43A139.63,139.63,0,0,1,176.92,729c10.67-12.06,27.46-31.24,35.9-42.08,10.22-13.13,23.85-1.67.3,24.69a291.16,291.16,0,0,0,32.78-28.34c.14-.09.27-.19.4-.29,6.1-8.1,13.48-15.07,20.26-23.9.89-.38,1.71-.77,2.57-1.15a2.42,2.42,0,0,1-.48-.13A125.81,125.81,0,0,1,248.91,664.17Z"/></g><g class="cls-40"><path class="cls-21" d="M265.16,762.32c-6.62,26.94-23.72,34.09-23.72,34.09s-5.59-9.34-6.7-28.7c-12.3,27.56-35,32.78-35,32.78s-5.58-13-1.12-33.92c-7.46,16-18.25,29.06-36.5,39.14-.22-19,6.09-38.25,11.35-50.93C165,765.24,157.1,774,153.31,778.13A227.24,227.24,0,0,1,134,811.91a108.78,108.78,0,0,0,13.33-11.12c10.55-11,12.48,26.62-34.27,58.73,13.19-3.9,36-21.9,49.8-49.53-2,7.59-3.56,13.83-4.84,19,6-11.81,12.85-23.37,17.26-25.44,8.21-3.87,3,28.23-16.26,51.1,7.09-1.12,24.32-19.68,30.11-40.21-.84,14.78-.14,24.14,1.74,29.65,3.51-14.78,10-34.48,20.18-38.89,12.73-5.5,6.76,20.53-6.12,42.94,8.16-6.22,19.35-22.22,25.46-34.67.12,11.17,2,18.8,4.58,23.7,1.31-14,4.26-32.38,10.73-34.76,8.49-3.13,8.72,18.77-.92,41.68,5-1.55,14-21.35,20.15-46.54C265.32,781,265.24,768,265.16,762.32Z"/></g><path class="cls-41" d="M517.15,890.11s6.14,6.87,6.62,19.67c10.42-8.55,10.42-24.87,7.58-31.25C524.72,887.29,517.15,890.11,517.15,890.11Z"/><path class="cls-42" d="M523.77,910.9a1.23,1.23,0,0,1-.47-.13,1.08,1.08,0,0,1-.65-1c-.45-12.22-6.29-18.86-6.35-18.93a1.12,1.12,0,0,1,.46-1.8c.06,0,7.37-2.84,13.7-11.21a1,1,0,0,1,1-.42,1.09,1.09,0,0,1,.9.63c3,6.88,3,23.65-7.91,32.58A1.18,1.18,0,0,1,523.77,910.9Zm-4.87-20.37a34.77,34.77,0,0,1,5.83,16.83c7.48-7.62,8.1-20,6.24-26.58A36.89,36.89,0,0,1,518.9,890.53Z"/><path class="cls-41" d="M379.2,904.41s6.65,11.28,4.44,19.32c9.74-4.79,12.14-16.06,9.56-23.23C389.79,905.28,379.2,904.41,379.2,904.41Z"/><path class="cls-42" d="M383.64,924.84a1.06,1.06,0,0,1-.72-.25,1.13,1.13,0,0,1-.36-1.16c2.07-7.48-4.27-18.32-4.33-18.43a1.19,1.19,0,0,1,0-1.17,1.12,1.12,0,0,1,1-.52s.72.05,1.79.05c2.62,0,8.95-.34,11.22-3.51a1.13,1.13,0,0,1,1.07-.46,1.1,1.1,0,0,1,.9.71c2.87,8.07-.19,19.75-10.12,24.65A1.89,1.89,0,0,1,383.64,924.84Zm-2.53-19.25c1.58,3.15,4.57,9.94,4.05,16a18.49,18.49,0,0,0,7.51-18.93C389.48,905.19,384.24,905.59,381.11,905.59Z"/><path class="cls-41" d="M405.53,896.9s4.89,11.05,5.58,17.48c5.87-6.86,6.16-19.58,6.16-19.58Z"/><path class="cls-42" d="M411.11,915.49a1.92,1.92,0,0,1-.32,0,1.13,1.13,0,0,1-.77-1c-.68-6.17-5.46-17-5.51-17.11a1.23,1.23,0,0,1,0-1,1.12,1.12,0,0,1,.81-.58l11.73-2.11a1.19,1.19,0,0,1,.93.26,1.07,1.07,0,0,1,.39.87c0,.53-.37,13.2-6.42,20.27A1.09,1.09,0,0,1,411.11,915.49Zm-4-17.74a92.4,92.4,0,0,1,4.66,13.81c3.19-5.22,4.06-12.43,4.3-15.4Z"/><path class="cls-41" d="M552.39,883.22a60.37,60.37,0,0,1,9.5,15.91c6.14-10.61,3.64-24.59-.56-30.74C560.77,878.19,557.14,882.65,552.39,883.22Z"/><path class="cls-42" d="M561.89,900.25h-.08a1.12,1.12,0,0,1-1-.71,59.8,59.8,0,0,0-9.3-15.6,1.17,1.17,0,0,1-.21-1.13,1.1,1.1,0,0,1,.93-.69c4.66-.58,7.48-5.46,8-13.8a1.1,1.1,0,0,1,.82-1,1.16,1.16,0,0,1,1.21.43c4.17,6.14,7.24,20.49.61,31.94A1.08,1.08,0,0,1,561.89,900.25Zm-7.51-16.37a62.31,62.31,0,0,1,7.6,12.61c3.79-8.28,2.73-18.17.08-24.38C560.83,880,557.31,882.9,554.38,883.88Z"/><path class="cls-41" d="M262.64,881.93s-3.79,12.11,0,24.46c2.81-8.15,11-20,11-20Z"/><path class="cls-42" d="M262.64,907.52h0a1.07,1.07,0,0,1-1-.8c-3.86-12.57-.17-24.6,0-25.15a1.06,1.06,0,0,1,.58-.67,1.22,1.22,0,0,1,.9,0l11,4.52a1,1,0,0,1,.64.71,1,1,0,0,1-.16.94c-.06.1-8.09,11.79-10.82,19.67A1.11,1.11,0,0,1,262.64,907.52Zm.76-24.07a46.36,46.36,0,0,0-.51,19.35,121.06,121.06,0,0,1,9-15.87Z"/><path class="cls-43" d="M460.86,836.36c-.68.41-1.42,2.72-.1,2,10.5-5.59,20.33-7.94,32.18-6.3,12.38,1.69,17.7,10.77,22.89,20.74,1,2,3.94-2.24,3.59-3.62C512.29,820.57,481,823.82,460.86,836.36Z"/><path class="cls-43" d="M556.66,855.84c-3.69-9.6-13.3-16-23-18-.69-.14-1.79,1.65-1.06,2,8.62,4.43,15.35,11.74,21.21,19.35C555.09,860.86,557.16,857.13,556.66,855.84Z"/><path class="cls-43" d="M400.73,852.3c-.35-.07-.77.67-.48.91,1.75,1.33,2.54,3.28,4.11,4.76a84.38,84.38,0,0,1,6.06,6.64c3.27,3.9,5.06,8.94,7.73,13.24.71,1.17,2.27-1.29,2.08-2.09C417.91,866.48,411,854.38,400.73,852.3Z"/><path class="cls-43" d="M389.35,863.94c-3.39-7.59-9-14.26-17.39-16.05-7.51-1.58-18.48,1-24.37,6-.17.15-.24.66.09.43,6.2-4.5,15.94-4.83,23-3.48,7.25,1.43,12.4,10.11,16.39,15.73C388,867.88,389.82,865,389.35,863.94Z"/><g class="cls-44"><path class="cls-2" d="M303.25,332c-31.52,13.79-61.85,26.84-87.68,50.38-22.5,20.5-31,50.07-36,79.11-.61,3.58,3.14,1.07,3.65-1,9.47-38.38,21.37-68.28,55.08-91.46,20.63-14.2,42.89-24.32,64.91-36.17C303.53,332.67,303.87,331.68,303.25,332Z"/><path class="cls-2" d="M267.87,406.37c-3.29,10.57-8,20.88-10,31.8s-3.08,21.95-4.76,32.86c-.49,3.28,3.48-.3,3.93-1.64,3-9.32,3.68-18.76,4.61-28.45,1.14-11.94,5-23.3,7.59-34.94C269.58,404.6,268.11,405.61,267.87,406.37Z"/><path class="cls-2" d="M138.77,555.61c-1.72-10.72,1.35-19.86,3.54-30.15.44-2.07-1.75-.94-2.2.25-3.55,9.12-6.91,16.3-7.31,26.19-.42,10.32,2.32,20.87,4.65,30.86.88,3.63,5.42-2.1,5.13-4.36C141.61,570.76,140,563.22,138.77,555.61Z"/><path class="cls-2" d="M322.49,413c0-1.6-1.81.21-1.86,1-1.65,20.83-3.06,40.67-11.41,60.1-1.31,3.05,1.78,3.49,3.12,1C322.66,455.88,322.87,434.33,322.49,413Z"/><path class="cls-2" d="M209.62,540.79c-3.54,6.7-6.77,11.51-8.7,19.07-2.45,9.64-2.37,19.41-1.16,29.21.36,3,4.37-1.69,4.23-3.6-.61-9-1.08-17.61.35-26.5,1-6.51,4-11.82,6.31-17.85C211.06,540.1,210.05,540,209.62,540.79Z"/><path class="cls-2" d="M266.86,541.44c-8.33,12.53-11,29.14-8.95,44,.27,2,2.63-1.09,2.72-1.93.73-6.26.63-12.61,1.08-18.89.62-8.23,3.51-15.23,6.48-22.76C268.74,540.51,267.52,540.48,266.86,541.44Z"/><path class="cls-2" d="M119.62,609.18c-6,6.51-11.72,11.48-15.07,20.15-3.26,8.46-2.49,20.43-.09,29,.82,2.92,4.29-1.69,4.05-3.46-1.27-9.64-3.47-21.28,1.35-30.34,2.87-5.39,7.18-9.6,10.46-14.61C120.8,609.16,120.32,608.4,119.62,609.18Z"/><path class="cls-2" d="M170.86,626c-9.48,10.81-13.56,24.49-14.33,38.79-.1,2.08,2.17.17,2.53-.68,2.67-6.14,3.29-12.87,4.64-19.38,1.42-6.82,5.37-11.89,8.48-17.92C172.81,625.6,171.71,625.07,170.86,626Z"/></g><g class="cls-44"><path class="cls-4" d="M105.75,691.08c-4.42,6.14-8.75,11.22-11.11,18.57A80.63,80.63,0,0,0,91,738.39c.11,2.68,3.08-.34,3.16-1.81a155.61,155.61,0,0,1,2.46-21.72c1.75-8.65,6.09-15.57,10.21-23.16C107.5,690.47,106.54,689.91,105.75,691.08Z"/><path class="cls-4" d="M144.48,694.24c-7.92,11-12,22.14-12,35.83,0,2,2.25,0,2.43-1,2.21-12.51,3.65-23.21,10.44-34.29C145.89,693.84,145.1,693.4,144.48,694.24Z"/><path class="cls-4" d="M177.93,693.38c-10.06,8.88-16.23,21.65-21.36,33.9-.69,1.69,1,1.92,1.7.57,6.36-11.77,12-22.92,20-33.65C178.5,693.84,178.57,692.8,177.93,693.38Z"/><path class="cls-4" d="M216.11,684.77c-11,13.8-21.38,27.88-34.57,39.72-.59.54-1.25,3.22.14,2.25,14.69-10.25,25.36-26.51,35.19-41.18C217.4,684.79,216.81,683.86,216.11,684.77Z"/><path class="cls-4" d="M94.82,754.62c-5,7.64-10,13.84-13.59,22.26-3.39,7.91-3.62,16.55-3.69,25,0,1.75,1.88-.25,2-1.1,1.23-9.07,1.89-17.67,5.4-26.27,2.82-6.89,7.32-12.76,10.86-19.29C96.4,754.14,95.52,753.58,94.82,754.62Z"/><path class="cls-4" d="M151.63,751.37C145,759.1,139.68,767.16,136.81,777c-.55,1.87,1.6.51,2-.53,3-9,7.8-17.08,13.19-24.77C152.18,751.37,151.94,751,151.63,751.37Z"/></g><g class="cls-44"><path class="cls-21" d="M195.33,731.18C180,742.51,171.66,762.26,169.79,781c-.25,2.6,2.89-.08,3.16-1.33a218.3,218.3,0,0,1,6.54-24c3.27-9.33,10.15-16.15,16.16-23.66C196,731.62,196,730.66,195.33,731.18Z"/><path class="cls-21" d="M136.7,811.76c-8.72,13.64-20.25,25-29.83,38-.64.87-.33,2.35.71,1.19,10.75-12.23,21.82-24.49,29.81-38.76C137.81,811.4,137.17,811,136.7,811.76Z"/><path class="cls-21" d="M167.61,811.72c-5.89,10-10.61,19.25-11.77,30.95-.16,1.56,1.67-.09,1.86-.77,1.28-4.74,2.13-9.59,3.53-14.31,1.63-5.51,4.59-10.53,7.2-15.61C168.84,811.19,168,811.08,167.61,811.72Z"/><path class="cls-21" d="M205.61,810.64c-7.16,9.44-11,20.64-12.37,32.36-.28,2.39,2.81,0,3-1.25,1.78-10.79,4-21,10.23-30.2C207.12,810.64,206.42,809.57,205.61,810.64Z"/><path class="cls-21" d="M210.22,744.1c-.12-.72-1.07.41-1,.85a210.53,210.53,0,0,1,.07,35.42c-.12,1.3,1.44,0,1.59-.68C213.44,767.74,212.22,756.06,210.22,744.1Z"/><path class="cls-21" d="M243.14,807.05c-5.91,8.73-8.61,19.7-3.44,29.47.56,1.08,2.26-1.26,1.86-2.19-4-9.27-3-18.37,1.77-27.16C243.45,807,243.29,806.84,243.14,807.05Z"/></g><g class="cls-12"><path class="cls-10" d="M598.44,545.15c-16.88,17.94-28.15,20.43-28.15,20.43s-12.72-30.48-37.86-46.47-68.78-29-52.67-71.91c-11.88,19.93-14.21,19.87-14.21,19.87s-9-19.49,5.81-44.56c-12.62,16-15.14,19.4-15.14,19.4a69.2,69.2,0,0,1,5.84-34.39c-15.88,25.9-22.18,46.47,7,96.76-6.85-18.31-4-25.74-4-25.74s5.13,29.72,44.55,45.13,54.82,46.86,49.13,71.43c25.7-14.87,46.84-38.85,46.84-38.85s1.71,10.29-5.71,22.27c8.65-7.63,38.72-47.16,54-71,.08-2.58.08-5.13,0-7.78.41-.7.7-1.43,1.09-2.17C644.89,508.19,621.57,531.55,598.44,545.15Z"/></g><path class="cls-10" d="M504.18,559.36c-.15-.49-.75.23-.73.5.41,6.83-4.12,14.23-7.7,20-3.2,5.15-8.23,8.91-13.21,12.21-2.53,1.65-5.39,10.53-.4,7.74,6.95-3.94,13.31-9.51,16.89-16.81C502.31,576.37,506.45,566.82,504.18,559.36Z"/><path class="cls-10" d="M495.66,602.71c-.17-1-1.35.42-1.43.83C493,609.4,486.39,613,482,616.39c-1.15.89-2.31,5.31.27,3.88C488.28,616.89,496.93,610.77,495.66,602.71Z"/><path class="cls-10" d="M505.22,620.29c-2.83,7.52-8.37,12.8-14.27,18-.8.69-1.9,4,.2,3,8.11-4,13.94-12.34,15.82-21.12C507.33,618.48,505.57,619.35,505.22,620.29Z"/><path class="cls-10" d="M526.59,599.15c-2,6.8-6.45,11.66-11.08,16.81-1.37,1.52-1.24,5.77,1.29,3.41a39.45,39.45,0,0,0,11.66-20.73C528.8,596.8,526.89,598.15,526.59,599.15Z"/><path class="cls-10" d="M536.53,614.49c-1.32,9.52-8.79,15.66-13.87,23.23-1.54,2.32-.76,6.59,2.44,3.9,8.14-6.81,14.88-18.14,14.11-29C539.08,610.69,536.64,613.64,536.53,614.49Z"/><path class="cls-10" d="M562.3,605.43c-3.38,7.81-8.49,13.49-14.52,19.35-1.17,1.16-3.22,6.69.34,4.93,9.12-4.5,14.38-15.35,17.37-24.61C566.43,602.18,563,603.82,562.3,605.43Z"/><path class="cls-10" d="M455,633.65c-4.53,9.65-13.61,13.62-22.1,19.09-1.14.7-3.72,6.16-.8,5.14,12-4.24,21.78-11.42,24.44-24.4C456.81,632,455.32,632.88,455,633.65Z"/><path class="cls-10" d="M457.39,662.53c-2.27,6.15-7.09,9.46-11.7,13.78-.64.58-2.74,5.09-.22,4.19,7.41-2.63,12.22-10.68,13-18.27C458.62,661.34,457.54,662.12,457.39,662.53Z"/><path class="cls-10" d="M478.72,682.91c-2.43,3.87-6.65,6-10.09,8.82a4.2,4.2,0,0,0-1.61,3.64c.28,1.36,1.64.85,2.39.26,4.33-3.31,8.57-7.15,10.8-12.25C480.86,681.92,479.42,681.81,478.72,682.91Z"/><path class="cls-10" d="M411.44,632.58c-1.83,5.73-10,7.16-14.84,9.44-1.66.75-4.2,6.76-.91,5.86,7.76-2.11,16.95-7.28,18.34-16C414.43,629.3,411.88,631.24,411.44,632.58Z"/><path class="cls-10" d="M400.49,670.65c-.82,1.81-3.24,2.47-5,3.09a39.13,39.13,0,0,1-5.66,1.34c-2.46.4-4.8,6.86-1.54,6.14,6.09-1.39,13.2-3.9,14.63-10.83C403.4,668.05,401.05,669.43,400.49,670.65Z"/><path class="cls-10" d="M417.19,693.23c-2.16,3.07-5.54,4.78-8.78,6.5a4.1,4.1,0,0,0-2,3.14c-.05,1,.8,1.7,1.73,1.06,4-2.7,8-5.49,10.46-9.8C419.61,692.48,418.28,691.68,417.19,693.23Z"/><path class="cls-10" d="M374.73,702a19.13,19.13,0,0,1-9.5,7,4.23,4.23,0,0,0-2.5,3c-.21.83,0,2.42,1.26,2a24.74,24.74,0,0,0,12.7-10.77C378,701,376.16,699.88,374.73,702Z"/><path class="cls-10" d="M335.48,727.67c-2.76,5.84-6.73,10.76-5.81,17.63.15,1.19,1.39,1.21,2.22.76a5.5,5.5,0,0,0,2.52-4.12c.34-2.77.15-5.28.92-8,.62-2.19,1.63-4.25,2.25-6.45C338.13,725.46,336,726.67,335.48,727.67Z"/><path class="cls-10" d="M346.71,695.32c-.87.77-2.17,1-3.09,1.79a16.94,16.94,0,0,0-3.28,4c-2.09,3.19-2.47,7-2.22,10.64.08,1.06,1.26,1,1.93.65a4.81,4.81,0,0,0,2.21-3.56,24.7,24.7,0,0,1,2.32-9.08c.36-.66,1.31-1.24,1.79-1.87a8.32,8.32,0,0,0,1.05-2.11C347.61,695.2,347.12,695,346.71,695.32Z"/><path class="cls-10" d="M450.6,600.57a30.11,30.11,0,0,1-5.64,8.08c-2.49,2.43-5.73,4.29-8.57,6.26-1.12.78-4.13,5.91-.82,5.31,9.09-1.64,14.71-11.46,17.62-19.42C454.21,598,451.57,598.76,450.6,600.57Z"/><path class="cls-6" d="M426.34,413.39c-12.69-49.6-44.41-66.33-74.4-46.72-2.18-17.54-6.91-29.17-13.08-36.76,5.9,11.89,12.61,29.92,9.85,46.54,22.67-14,83.12-7,72.64,109.86-5.22-19.18-29.06-29.63-29.06-29.63S382.41,509,339.4,521.75c41.27-9.31,51.73-20.33,51.73-20.33s-25.3,87-102.44,100.38c30.19,7.85,44.71,0,44.71,0s-15.65,33.55-77.12,59.25l.85.88a121.73,121.73,0,0,0,11.52-4.16,2.42,2.42,0,0,0,.48.13c51.09-23.17,86.83-43.75,85.69-73.8,72.08-43.84,51.33-95.73,51.33-95.73l.08.06c.79.93,12,14,9.73,36.28C439.6,502.78,439,463,426.34,413.39Z"/></g></g></svg>