<svg xmlns="http://www.w3.org/2000/svg" viewBox="0 0 903.46 635.09"><defs><style>.cls-1{isolation:isolate;}.cls-14,.cls-2,.cls-20{fill:#f9b522;}.cls-3{fill:#6d3303;}.cls-10,.cls-14,.cls-17,.cls-19,.cls-23,.cls-4,.cls-6,.cls-7{mix-blend-mode:multiply;}.cls-5,.cls-6{fill:#cc8c0d;}.cls-17,.cls-20,.cls-7{opacity:0.5;}.cls-8{fill:#ffefdf;}.cls-9{fill:#c18306;}.cls-10,.cls-13{fill:#cc8b09;}.cls-11{fill:#c65406;}.cls-12,.cls-16{fill:#fff;}.cls-15,.cls-23{fill:#573220;}.cls-16,.cls-20{mix-blend-mode:screen;}.cls-17,.cls-18{fill:#e1650d;}.cls-19{fill:#7f5203;}.cls-21{fill:#e2c5aa;}.cls-22{fill:#a5733d;}</style></defs><g class="cls-1"><g id="Layer_1" data-name="Layer 1"><path class="cls-2" d="M514.09,298.94s-9.91,25.62-17.56,54-2.25,36.89,18.89,52.63,26.12,20.7,46.36,34.65,35.11,26.55,36,36.46.46,14.85-6.77,26.1S545.12,573,538.39,586.91c0,0-7.22-7.19-8.56-6.76s.46,6.76.46,6.76-4.51-4-5.85-2.24,2.24,7.19,2.24,7.19a15.45,15.45,0,0,1-13.49-1.81c-6.76-4.49-11.71-4.95-15.75-.44-3.61-6.74-12.17-4.51-15.75.44-6.76-4.49-14.87,1.35-16.22,16.21s9.46,22.52,15.76,18.45c4.49,1.81,6.76-.46,6.76-.46a336,336,0,0,0,43.37.21c25.27-1.38,34-5.48,30.74-16.73s-1.91-11.81,7.69-31.3,31.3-50,50.79-65.89c20-16.19,20.85-15.37,18.4-27.44,9.06,6,10.43,3.56,2.72-6.32,12.91,3.29,10.45-.82,5-5.77s-8-7.94-9.34-14.26-10.42-35.41-10.42-35.41-59.77-40-74.65-57.22-12.58-33.05-3.27-54.43,19.54-41.89,3.27-37.69S514.09,298.94,514.09,298.94Z"/><path class="cls-3" d="M538.25,393.23s-1.32,9.77,3.56,9.77,9.12-17.7,2.44-17.05C539.46,386.4,538.25,393.23,538.25,393.23Z"/><path class="cls-3" d="M575.49,404.34s-.9,7.29,3.36,9.1,6.23-4.23,4.57-9.42S577.33,398.11,575.49,404.34Z"/><path class="cls-3" d="M554.52,423.65s2.74,3.79,1.37,5.32-5-1.67-4.87-3.36S552.86,421.37,554.52,423.65Z"/><path class="cls-3" d="M572,431.09s-.6,7.14,2.3,10.34,6.85-.3,5.93-5.78S572.92,423.79,572,431.09Z"/><path class="cls-3" d="M512,359.33s2.88,3.64.76,6.53-6.07,7.46-6.07,1.53S510,356.6,512,359.33Z"/><path class="cls-3" d="M613.88,437.17a9.75,9.75,0,0,1,2.33,7.21c-.45,4.18-3.46,7.66-6.5,2.78S609.26,433.44,613.88,437.17Z"/><path class="cls-3" d="M622.52,473.45s.22,12.32-3.49,12.78-7.45-5.81-6-11.85,4.18-8.15,6.73-7.2S622.74,470.89,622.52,473.45Z"/><path class="cls-3" d="M633.21,455.54s1.15,4.88-.92,6.27-4.19-1.62-3.75-4.89S632,452.27,633.21,455.54Z"/><path class="cls-3" d="M535.28,351.77s.23,11.87-5.14,12.57-5.57-5.35-4.65-10.46S533.18,342.71,535.28,351.77Z"/><path class="cls-3" d="M536.91,313.86s.45,7.92-4.66,8.38S535.51,308.3,536.91,313.86Z"/><path class="cls-3" d="M481.69,590.05s-.92,2.25-2.06,5.56c-.56,1.64-1.21,3.58-1.75,5.65-.29,1-.5,2.14-.76,3.21s-.4,2.2-.51,3.32a31.65,31.65,0,0,0-.2,3.34c0,1.09,0,2.17.2,3.18a24.25,24.25,0,0,0,.62,2.93c.15.49.28.92.44,1.33s.32.83.51,1.24c.34.77.73,1.43,1.06,2.07l1,1.51c.62.81,1,1.32,1,1.32s-.5-.3-1.37-.92c-.41-.33-.91-.74-1.46-1.25a18,18,0,0,1-1.62-1.94A12.25,12.25,0,0,1,475.3,618a13.86,13.86,0,0,1-1.09-3.18,19.4,19.4,0,0,1-.49-3.59,28.54,28.54,0,0,1,.14-3.7,30.08,30.08,0,0,1,1.69-7,31.34,31.34,0,0,1,1.25-3c.46-.93.91-1.79,1.38-2.58A26,26,0,0,1,481.69,590.05Z"/><path class="cls-3" d="M497.44,589.61s-1.38,2-3.19,5c-.92,1.49-1.95,3.27-2.93,5.19-.5,1-.94,2-1.39,3a32,32,0,0,0-1.24,3.17,29.55,29.55,0,0,0-1,3.22c-.21,1.09-.47,2.14-.59,3.2a29.21,29.21,0,0,0-.18,3,9.54,9.54,0,0,0,0,1.42,10.74,10.74,0,0,0,.1,1.32c.06.87.25,1.65.33,2.34s.31,1.32.42,1.8l.46,1.6s-.37-.49-1-1.38a17.51,17.51,0,0,1-.92-1.69,15.54,15.54,0,0,1-.89-2.34,14.05,14.05,0,0,1-.65-2.92,17.51,17.51,0,0,1-.17-3.36,20.81,20.81,0,0,1,.42-3.56,27.27,27.27,0,0,1,.93-3.58,33.17,33.17,0,0,1,1.44-3.39,31.29,31.29,0,0,1,1.7-3.08,33.2,33.2,0,0,1,3.78-4.93A25.76,25.76,0,0,1,497.44,589.61Z"/><g class="cls-4"><path class="cls-5" d="M646.67,471c-5.5-4.94-8-7.94-9.34-14.26s-10.42-35.41-10.42-35.41-59.77-40-74.65-57.22-12.58-33.05-3.27-54.43,19.54-41.89,3.27-37.69-38.17,26.94-38.17,26.94-9.91,25.62-17.56,54c-2.85,10.59-3.88,18.42-3,24.88,3.67-11.05,19.66-57.18,32.55-58.93,14.66-2-17.31,32.7,28.66,66,50.65,36.64,72,71.3,70.65,80.64,10.67,6.66,2.68,7.31-.66,7.31,4.65,6,8.65,12.67-8,27.33s-51.31,59.32-57.32,78.65-.66,32.63-25.32,36.66-58,3.33-42-18.67c-5.32-5.32-9.1,22.91-14.88,20.44-2.43-9.8.95-22.33.95-22.33s-8.05,9.89-8.05,19.21a8.44,8.44,0,0,1-1.89,5.64c3.41,5.45,9.07,7.48,13,5,4.49,1.81,6.76-.46,6.76-.46a336,336,0,0,0,43.37.21c25.27-1.38,34-5.48,30.74-16.73s-1.91-11.81,7.69-31.3,31.3-50,50.79-65.89c20-16.19,20.85-15.37,18.4-27.44,9.06,6,10.43,3.56,2.72-6.32C654.61,480.07,652.15,476,646.67,471Z"/></g><path class="cls-6" d="M514.09,298.94s-9.91,25.62-17.56,54-2.25,36.89,18.89,52.63,26.12,20.7,46.36,34.65,35.11,26.55,36,36.46.46,14.85-6.77,26.1S545.12,573,538.39,586.91c0,0-7.22-7.19-8.56-6.76s.46,6.76.46,6.76-4.51-4-5.85-2.24,2.24,7.19,2.24,7.19a15.45,15.45,0,0,1-13.49-1.81c-6.76-4.49-11.71-4.95-15.75-.44-3.61-6.74-12.17-4.51-15.75.44-6.76-4.49-14.87,1.35-16.22,16.21s9.46,22.52,15.76,18.45c4.49,1.81,6.76-.46,6.76-.46a336,336,0,0,0,43.37.21c25.27-1.38,34-5.48,30.74-16.73s-1.91-11.81,7.69-31.3,31.3-50,50.79-65.89c20-16.19,20.85-15.37,18.4-27.44,9.06,6,10.43,3.56,2.72-6.32,12.91,3.29,10.45-.82,5-5.77s-8-7.94-9.34-14.26-10.42-35.41-10.42-35.41-59.77-40-74.65-57.22-12.58-33.05-3.27-54.43,19.54-41.89,3.27-37.69S514.09,298.94,514.09,298.94Z"/><path class="cls-2" d="M141.82,301.52s-3.44,37.61,23.54,79c20.89,35.33,28.09,41.41,26.2,48.64s-33.05,17.09-70.27,71c-16.75,26.22-17.49,33.05-21.67,39.5A298.19,298.19,0,0,0,81.78,572c-16,11.42-30.4,29.64-12.92,46.74A16.74,16.74,0,0,0,81,627.1c8.73,7.59,21.3,10.65,31.16-5s4.76-37.95,13.69-45.18C138,567.08,141,562.9,135.7,550.33S128.11,534,128.11,534s41.43-65.34,110.56-65.73c-.36-4.93-.75-7.2-.75-7.2l6.85,7.59s-1.14-9.89-1.92-12.55c6.46,5.7,8,7.6,8,7.6s-.75-7.6-3.42-12.14c3.42,3.41,6.07,5.68,6.07,5.68s16.74-25.46-.36-62.67C205.25,358.51,170.3,304.94,141.82,301.52Z"/><path class="cls-3" d="M169.43,352.91s6.72,3.61,7.2,9.21-2.47,9.17-5.57,9.34-7.71-5.41-8-10.35-1.48-10.47,1.15-11.14S167.94,351.62,169.43,352.91Z"/><path class="cls-3" d="M193.68,370s1.65,6.08,6.4,6.08,5.58-3.46,2.45-6.9-6.69-6.4-7.69-5.42S192.37,366.36,193.68,370Z"/><path class="cls-3" d="M206,389.83s1.29,6.7,3.6,10.15,6.12,2.13,5.26-4.42C213.7,386.86,204.84,381,206,389.83Z"/><path class="cls-3" d="M216.34,432s-.16,4.88,1,6.27,3-.52,2.81-3.84S216.34,427.44,216.34,432Z"/><path class="cls-3" d="M194.87,453.1s4.19,0,3.33,3.3-5.78,11.35-9.78,10.81-4.53-5.22-1.23-9S193,453.1,194.87,453.1Z"/><path class="cls-3" d="M186.49,440.69s1.93,3,0,4.54-6.27.54-5-1.38S184.57,439,186.49,440.69Z"/><path class="cls-3" d="M164,474s-1.21,9.63-4.7,10-5.42-3.67-1.92-8.72S163.82,469.84,164,474Z"/><path class="cls-3" d="M222.63,452s-3,3.32-.19,4.71,4.54-2.45,4.37-4S223.83,449.25,222.63,452Z"/><path class="cls-3" d="M245.28,422.4s-4.17,7.32-.68,13.25,7-1.75,6.28-10.81S246.34,417.51,245.28,422.4Z"/><path class="cls-3" d="M231,397.27s1.72,9.76,5.22,7.32S231.68,389.23,231,397.27Z"/><path class="cls-3" d="M156.32,336.89s4.18,7,.7,7.33S153.54,335.16,156.32,336.89Z"/><path class="cls-3" d="M198.89,410.87s1.76,3.5-.69,3.84S193.66,407.74,198.89,410.87Z"/><path class="cls-3" d="M159.81,460.76s-1.39,3.14-4.2,2.44S159.81,456.58,159.81,460.76Z"/><path class="cls-3" d="M86.58,574s.07.18.17.55a9.84,9.84,0,0,1,.23,1.61,8.24,8.24,0,0,1-.33,2.63,10.92,10.92,0,0,1-.62,1.53c-.31.49-.75,1-1.12,1.5-1.49,1.73-3.17,4-4.87,6.33-.88,1.18-1.68,2.45-2.55,3.71s-1.73,2.6-2.52,3.91-1.62,2.68-2.33,4-1.4,2.65-2,4-1.09,2.6-1.5,3.86a35.37,35.37,0,0,0-.92,3.56,18.35,18.35,0,0,0-.24,3.1,8.72,8.72,0,0,0,.08,1.3c.07.43.08.79.16,1.1s.15.64.23.91.15.46.21.64l.19.54a5.25,5.25,0,0,0-.33-.47,7.74,7.74,0,0,1-.82-1.44,9.93,9.93,0,0,1-.79-2.45,14.85,14.85,0,0,1-.27-3.38,20.89,20.89,0,0,1,.49-4,28.36,28.36,0,0,1,1.24-4.26,35.26,35.26,0,0,1,1.88-4.3c.73-1.42,1.5-2.83,2.34-4.23s1.76-2.69,2.67-4,1.9-2.48,2.84-3.67S80,584.36,81,583.34a36,36,0,0,1,2.84-2.73c.4-.38.75-.7,1.1-1.08a8.19,8.19,0,0,0,.76-1.19,8.34,8.34,0,0,0,.76-2.26A9.43,9.43,0,0,0,86.58,574Z"/><path class="cls-3" d="M95.21,578.49c.54,2.77.92,5.55,1.27,8.34l0,.33-.34.32c-1.33,1.31-2.65,2.71-3.92,4.13s-2.5,2.88-3.63,4.38-2.29,3-3.33,4.62a52.77,52.77,0,0,0-2.79,4.86c-.43.82-.78,1.69-1.16,2.53a27.38,27.38,0,0,0-.95,2.61c-.31.88-.49,1.77-.73,2.69l-.25,1.34-.16,1.4a22.92,22.92,0,0,0-.1,2.76,24.63,24.63,0,0,0,.25,2.81,27.37,27.37,0,0,0,.65,2.75c.23.94.62,1.81.94,2.74a20.37,20.37,0,0,1-1.55-2.49,17,17,0,0,1-1.19-2.73,16.47,16.47,0,0,1-.71-2.93,17.82,17.82,0,0,1-.27-3l0-1.5.16-1.53a19.66,19.66,0,0,1,.57-3c.23-1,.55-1.94.86-2.89s.73-1.85,1.17-2.77.9-1.77,1.4-2.67,1-1.68,1.55-2.54a48.93,48.93,0,0,1,3.57-4.71,53.87,53.87,0,0,1,4.11-4.31,47.09,47.09,0,0,1,4.5-3.78l-.3.64C94.94,584.1,95,581.29,95.21,578.49Z"/><g class="cls-7"><path class="cls-5" d="M253.12,394.6c-47.87-36.09-82.82-89.66-111.3-93.08,0,0-3.44,37.61,23.54,79,6.14,10.41,11.09,18.24,15,24.36l.17,0s-34.42-58.83-24.2-68,39.48,31.4,62.09,58,23.26,43.87,21.26,53.16-7.32-4.64-7.32-4.64-4.64,8.63-12.62,13.29,1.32-8,1.32-8-19.27.66-55.83,33.23-48.51,44.53-39.86,59.15,1.31,23.25-8,31.24S82.14,569,92.77,555.07c4-5.19,6.72-11.66,9.19-19.57a41.51,41.51,0,0,1-2.34,4.2A298.19,298.19,0,0,0,81.78,572a76.53,76.53,0,0,0-7.54,6.08,10,10,0,0,1,4.92-.67c9.43,1.25-5.36,10.05-11,24.51-1.66,4.28-4,6.06-6.26,6.3A24.56,24.56,0,0,0,66.34,616c.31-7.19,2.92-18.19,13.76-30.1,9.43-8.5,12.26-1.9,4.1,8.46s-10.07,17.93-9.12,24.55c.41,2.94.78,5,.51,6.41A16.66,16.66,0,0,0,81,627.1c.27.24.52.44.79.67-1.88-5.85-2.5-14.77,4.59-24.9,12.58-17.93,22-16.35,24.23-10.37,2,5.48,4.29,31-14.78,40.82,5.57-.13,11.3-3.23,16.33-11.17,9.87-15.56,4.76-37.95,13.69-45.18C138,567.08,141,562.9,135.7,550.33S128.11,534,128.11,534s41.43-65.34,110.56-65.73c-.36-4.93-.75-7.2-.75-7.2l6.85,7.59s-1.14-9.89-1.92-12.55c6.46,5.7,8,7.6,8,7.6s-.75-7.6-3.42-12.14c3.42,3.41,6.07,5.68,6.07,5.68S270.22,431.81,253.12,394.6Z"/></g><path class="cls-6" d="M141.82,301.52s-3.44,37.61,23.54,79c20.89,35.33,28.09,41.41,26.2,48.64s-33.05,17.09-70.27,71c-16.75,26.22-17.49,33.05-21.67,39.5A298.19,298.19,0,0,0,81.78,572c-16,11.42-30.4,29.64-12.92,46.74A16.74,16.74,0,0,0,81,627.1c8.73,7.59,21.3,10.65,31.16-5s4.76-37.95,13.69-45.18C138,567.08,141,562.9,135.7,550.33S128.11,534,128.11,534s41.43-65.34,110.56-65.73c-.36-4.93-.75-7.2-.75-7.2l6.85,7.59s-1.14-9.89-1.92-12.55c6.46,5.7,8,7.6,8,7.6s-.75-7.6-3.42-12.14c3.42,3.41,6.07,5.68,6.07,5.68s16.74-25.46-.36-62.67C205.25,358.51,170.3,304.94,141.82,301.52Z"/><path class="cls-2" d="M243.71,124.85s23.26-7,32.84-3.3c-4.06,1.84-5.16,3.67-5.16,3.67s9.23-3.67,15.5,1.12l-4.79,2.95s10.7-1.86,16.61.36c-2.21,2.24-2.21,3.69-2.21,3.69s17.72,4.07,46.13,26.23c22.16,16.23,37.3,17.35,71.26,12.92s96.72-34.72,127.73-50.94,42.1-21.78,64.24-11.82,69,38,98.19,62,80.81,75.6,97.12,138.41,2.09,121.66-9.09,165.63c-7.67,32.11-11.08,60.52,10.38,82.7s49.61,22.2,66.62-2.59c-1.84-6.29-2.23-8.5-.75-8.5s5.94,4.06,5.94,4.06,1.1-8.88,3.71-8.88,3.33,6.67,3.33,6.67,10.35-7.39,18.49,1.48c1.47,1.84-3.7,1.84-3.7,1.84a28.5,28.5,0,0,1,5.17,30c-7,17.77-64.39,42.93-94.36,28.52s-48.84-54.78-44.77-94,12.21-79.9,15.54-102.11,3-84-8.52-109.91c-9.6-20.72-28.12-33.68-28.12-33.68s-16.27,29.23-35.5,52.93-36.27,59.58-36.27,67c0,5.93,48.56,55.84,61.16,68.47,9.48,12,9.16,10.73,16.09,13.55s5.68,2.53,3.15,2.83-6.29.65-6.29.65,8.82,8.18,9.44,11-9.13-2.21-9.13-2.21a336.21,336.21,0,0,1-15.8,90.36c-10.84,39.45-20.6,46.43-35.95,50.61s-44-1.4-47.82-4.54c.72,3.14-9,2.08-11.49-1.75-2.45,2.44-18.86-4.19-17.46-16.41s7-25.81,17.8-20.22c0,0,9.57-7.34,19,1.07,3.95-2.15,17.32,5.63,17.32,5.63s17-2.63,24.8,3.3c-.83-7.59-1.49-8.09-.67-8.27s7.12,6.94,7.12,6.94S715.35,576,718.23,543c2.19-36.49,1.81-54.45-14.1-65.44s-80.21-54.78-102.08-69.2S531.31,362.25,536,339s23.74-62.8,18.6-63.74-30.7,21.87-49.78,35.84-27.43,16.75-36.28,22.8-15.83,16.27-18.62,27.43-9.32,29.32-29.31,27.92l3.27,3.72h-9.77l.46,2.33h-14l3.75,3.27s-12.11,2.32-17.7-.46l6.5,4.62a145.73,145.73,0,0,1-21.87-2.78s6.48,7.29,7.16,17c-7.75-3-10.78-3.35-10.78-3.35s7.08,7.39,8.08,14.45a27,27,0,0,1-7.42-4s6.73,8.08,6.42,12.77L370,435.47s0,4,.34,7.08-13.37,1.46-22.78,42-26.86,99.09-29.67,110.26-1.05,15.7-2.08,24.77-15.36,14.3-32.46,15.34-37-2.1-41.17-4.89c-1.76,3.85-12.57.35-14-.69.36,4.89-17.79,1-18.5-14.29s8-33.85,21.3-27.56c9.07-11.54,17.09-3.85,22,2.08,4.89-5.59,13.94-2.08,20.58,3.13S286.11,599,291,596.15s6.68-26,9.08-42.57c5.22-36.28,7.65-87.58-.71-109.91s-29.16-35.05-42.27-44.15c-20.37-7.65-47.3-28.37-70.94-56.4-11.27-15.26-19.26-22.91-40-35.26-19.28-11.64-18.93-11.3-22.56-11.3s-4.73-25.45,0-35.63l-7.28,4.73s5.09-20,10.91-25.11c-5.09.36-7.63.36-7.63.36a44.82,44.82,0,0,1,9.09-12.73c-8-5.45-10.18-18.19-10.18-18.19s-2.55-13.08,36-18.89,52.75-7.66,66.19-29.11S243.71,124.85,243.71,124.85Z"/><path class="cls-8" d="M249.38,392.49c-31.64-28.85-60.5-65.14-66.09-74.43s-4.63-27,3.73-59.57c4.52-22.94-12.11-47.34-32.12-67.46l-.37.07c-38.56,5.81-36,18.89-36,18.89s2.18,12.74,10.18,18.19a44.82,44.82,0,0,0-9.09,12.73s2.54,0,7.63-.36c-5.82,5.09-10.91,25.11-10.91,25.11l7.28-4.73c-4.73,10.18-3.63,35.63,0,35.63s3.28-.34,22.56,11.3c20.74,12.35,28.73,20,40,35.26,23.09,27.36,49.26,47.71,69.44,55.79A58.33,58.33,0,0,0,249.38,392.49Z"/><path class="cls-8" d="M487.58,300.38C420.58,356.2,348,331.07,348,331.07s.93,23.28,14,50.27a109.76,109.76,0,0,0,12.1,19.16,150.76,150.76,0,0,0,19.06,2.21l-6.5-4.62c5.59,2.78,17.7.46,17.7.46l-3.75-3.27h14l-.46-2.33h9.77l-3.27-3.72c20,1.4,26.52-16.76,29.31-27.92s9.77-21.38,18.62-27.43,17.21-8.86,36.28-22.8,44.67-36.75,49.78-35.84C554.57,275.24,535,269.67,487.58,300.38Z"/><path class="cls-3" d="M190.62,239.65s7.67,6,7.26,10-9.26,12.11-11.68,11.71-6.88-6.45-3.62-14.92S186.58,236.4,190.62,239.65Z"/><path class="cls-3" d="M186.2,209a7.44,7.44,0,0,1,2.8,7.66c-1.22,4.82-7.64,5.65-9.27,2S182.58,207.78,186.2,209Z"/><path class="cls-3" d="M209.57,202.73c0,2.78-1.26,5.05-2.81,5.05s-2.83-2.27-2.83-5.05,1.26-5,2.83-5S209.57,200,209.57,202.73Z"/><path class="cls-3" d="M214,210.4c0,1.21-.55,2.21-1.22,2.21s-1.2-1-1.2-2.21.55-2.24,1.2-2.24S214,209.18,214,210.4Z"/><path class="cls-3" d="M208.76,223.88c0,1.37-.53,2.44-1.19,2.44s-1.23-1.07-1.23-2.44.56-2.42,1.23-2.42S208.76,222.56,208.76,223.88Z"/><path class="cls-3" d="M233.78,241.23c0,2-1.18,3.63-2.62,3.63s-2.63-1.62-2.63-3.63,1.17-3.62,2.63-3.62S233.78,239.23,233.78,241.23Z"/><path class="cls-3" d="M227.33,209s-5.67,8.87-.42,12.1,9.68-6.87,7.68-11.71S228.94,204.94,227.33,209Z"/><path class="cls-3" d="M220.06,187.21s-6,5.23-1.2,8.86,8-5.23,6.84-8.86S222.07,184,220.06,187.21Z"/><path class="cls-3" d="M249.51,176.32s.8,12.1-4.85,12.48-5.65-8.05-2.82-13.29S248.3,173.08,249.51,176.32Z"/><path class="cls-3" d="M268,170.28s1.21,7.64-1.59,8.46-5.67-3.23-4-7.66S265.24,165,268,170.28Z"/><path class="cls-3" d="M276.5,202.12s-2.42,5.66-8.05,6-7.26-4.84-1.62-7.25S276.92,198.11,276.5,202.12Z"/><path class="cls-3" d="M297.49,198.49s2.82,11.29-.82,11.7-8.05-5.66-8.05-12.51S295.48,193.26,297.49,198.49Z"/><path class="cls-3" d="M212,261.4s7.66,6.06,6.45,10.49-10.09,8.06-13.72,5.25-4.84-7.67-1.22-11.71S210,258.59,212,261.4Z"/><path class="cls-3" d="M194.26,296.09s2.83,2.82,2,8.45-7.65,2.42-7.27-4.42S192.62,294.08,194.26,296.09Z"/><path class="cls-3" d="M216.82,326.33s4.05,5.24,1.22,10.08-8.86-.42-8.86-6S210.77,317.05,216.82,326.33Z"/><path class="cls-3" d="M248.3,307.38s4,4.84.8,8.46-7.26,2-6.46-3.62S246.27,305,248.3,307.38Z"/><path class="cls-3" d="M223.29,286.81s1.2,6.06-2.42,6.86S214.81,292,216,288,220.06,280.36,223.29,286.81Z"/><path class="cls-3" d="M272.88,280a8.43,8.43,0,0,1,4.84,7.66c0,5.64-11.68,7.67-11.27,1.63S268.86,276.73,272.88,280Z"/><path class="cls-3" d="M250.31,275.93s2,4-1.62,4-4-2.81-3.23-5.64S250.31,273.89,250.31,275.93Z"/><path class="cls-3" d="M284.18,245.68s0,17.74-4.85,18.54-6.45-8.47-2.83-15.72S283.77,240.82,284.18,245.68Z"/><path class="cls-3" d="M261.49,226.31s2.58,10.17-.87,14-20.32-5-13.75-11.54S259.24,218.92,261.49,226.31Z"/><path class="cls-3" d="M236.37,164s-.17,4.31-2.59,3.29S235.52,160.69,236.37,164Z"/><path class="cls-3" d="M250.21,141.65s-2.25,5.18-4.83,4.15-.72-5.88,1.2-7.62S250.75,139.92,250.21,141.65Z"/><path class="cls-3" d="M263,141.65s-4.84,4-2.94,6.39,11.08,4.34,11.44.53S269.09,133,263,141.65Z"/><path class="cls-3" d="M298.52,169s-2.79,4.32-.72,6.58,9.18-.35,7.45-4S299.89,166.06,298.52,169Z"/><path class="cls-3" d="M301.46,150.13s-1.06,5,1.55,5.69,5-3.78,4.31-6.57S303.36,143.54,301.46,150.13Z"/><path class="cls-3" d="M317.87,183.37s3.49,6.62-.35,9.77S306,190,308.44,184.4,316.82,179.89,317.87,183.37Z"/><path class="cls-3" d="M346.83,169.75s2.1,8-1.39,9.77-10.12-6.27-7.67-11.16S345.78,163.81,346.83,169.75Z"/><path class="cls-3" d="M336.36,198.71s-6.62,10.48-1,12.57,10.46-4.53,10.12-10.81S340.56,189.29,336.36,198.71Z"/><path class="cls-3" d="M309.05,249.29s-3.74,7.21-.27,11,12.39,3.48,11-3.74S311.94,241.79,309.05,249.29Z"/><path class="cls-3" d="M298.67,300.92s6.64,2.3,7.21,7.22-7.49,10.38-10.38,8.95-3.17-7.79-2.31-12.7S296.08,299.49,298.67,300.92Z"/><path class="cls-3" d="M232.63,347.93s3.74,11.56-1.44,13.29-7.79-5.48-6.65-11S229.45,342.75,232.63,347.93Z"/><path class="cls-3" d="M268.38,338.15s4.34,7.19,2,10.65-7.79,1.74-9.25-4.9S262.62,329.2,268.38,338.15Z"/><path class="cls-3" d="M285.11,362.37s2.9,6.64-.87,6.91-6-3.18-5.47-6.62S283.68,358.62,285.11,362.37Z"/><path class="cls-3" d="M277.9,387.75s1.72,10.11-1.14,11.25-6.34-7.21-6.07-12.13S277,382.26,277.9,387.75Z"/><path class="cls-3" d="M320,392.36s-2,12.11,4.64,11.85,6-8.65,3.16-13.86S320.88,386,320,392.36Z"/><path class="cls-3" d="M318.88,353.14a5,5,0,0,1,4,6.05c-.86,5.2-3.16,9.26-6.07,8.66s-3.45-7.78-3.18-11.25S315.4,351.41,318.88,353.14Z"/><path class="cls-3" d="M278.09,306.19s3.48.69,2.8,2.78-5.26,2.11-4.88,0A3.66,3.66,0,0,1,278.09,306.19Z"/><path class="cls-3" d="M329.39,330.28s5.23,2.78,1.4,4.88-4.89-2.1-4.89-3.49S327.3,328.88,329.39,330.28Z"/><path class="cls-3" d="M335.32,305.15s3.13,5.93-.35,8.71-7.34,0-7-5.93S332.18,299.55,335.32,305.15Z"/><path class="cls-3" d="M315.79,289.44s1.39,3.49-.71,5.23-5.93-.69-5.22-3.84S314,284.9,315.79,289.44Z"/><path class="cls-3" d="M307.42,432.16s4.88,8,2.44,12.56-7.7,2.09-8-5.59S303.21,428,307.42,432.16Z"/><path class="cls-3" d="M330.44,460.42s-2.81,16.41-8,16.41-2.79-9.43-.35-16.07S331.13,453.1,330.44,460.42Z"/><path class="cls-3" d="M349.27,454.48s1.06,6.28-3.12,5.94-3.16-4.54-1.06-8.38S349.27,451.36,349.27,454.48Z"/><path class="cls-3" d="M331.83,492.53s.35,14.65-3.83,15-2.8-5.59-2.44-11.18S331.83,484.16,331.83,492.53Z"/><path class="cls-3" d="M342.29,422s-3.47,5.94-5.93,4.88-3.48-3.83-1-8.35S342,417.51,342.29,422Z"/><path class="cls-3" d="M343.7,365.15s1.39,4.89-1.75,5.25-5.23-.71-4.18-4.54S343,361.31,343.7,365.15Z"/><path class="cls-3" d="M359.54,230.26s-2.3,11.19-6,11.46-6.88-5.16-1.44-12S359.54,223.66,359.54,230.26Z"/><path class="cls-3" d="M340.62,252s2,4.29-.57,5.16S338.31,248.59,340.62,252Z"/><path class="cls-3" d="M383,216.22s-.57,9.45-6.6,8.87-3.72-9.46-1.42-12.88S382.76,209.05,383,216.22Z"/><path class="cls-3" d="M383.33,253.17s-3.72,15.2,1.14,16.05,13.47-9.44,12.89-14.88S383.91,239.13,383.33,253.17Z"/><path class="cls-3" d="M365.27,285.85s7.17,2,6.31,8.89S355.52,305.93,355.8,299,358.38,283,365.27,285.85Z"/><path class="cls-3" d="M374.73,325.68s6,11.19-2.59,14.64-10.61-7.47-7.16-13.77S370.71,321.67,374.73,325.68Z"/><path class="cls-3" d="M389.62,368.39s2.59,11.18-2.29,12.62-7.74-5.75-5.73-11.18S388.49,364.1,389.62,368.39Z"/><path class="cls-3" d="M407.11,353.21s2.29,8-.56,8.59-7.47,0-5.47-6.6S406,349.47,407.11,353.21Z"/><path class="cls-3" d="M422.89,365.51s-4.32,8-.3,10.33,8-6.3,8-10.9S425.74,357.51,422.89,365.51Z"/><path class="cls-3" d="M406.82,326.82s-1.14,9.17-5.74,9.48-6.58-4.89-4.27-10.32S405.68,320.53,406.82,326.82Z"/><path class="cls-3" d="M403.09,288.71s-1.13,9.74-6.28,9.74-4.3-7.44-.59-11.72S402.82,284.72,403.09,288.71Z"/><path class="cls-3" d="M428.05,296.44s-2.88,5.46-2.59,9.75,8.58,5.74,12.31,2.31,2-11.18-.58-14.63S431.47,291,428.05,296.44Z"/><path class="cls-3" d="M429.76,330.85s-4.59,10.31.87,12.62,6.56-4,6.56-9.75S432.33,324.25,429.76,330.85Z"/><path class="cls-3" d="M422.59,250s-4.58,8-1.71,10.89,8-4.29,8.88-10.59S425.46,245.15,422.59,250Z"/><path class="cls-3" d="M412,237.69s-1.15,8.31-4.87,8.61-5.73-6.86-1.43-10.61S412.28,233.41,412,237.69Z"/><path class="cls-3" d="M439.2,215.92s0,10.62-5.42,12.33-11.19.57-6.33-8.31S438.64,207.32,439.2,215.92Z"/><path class="cls-3" d="M457.26,252.61a11.12,11.12,0,0,1,5.46,8c.86,5.74-15.2,10.59-15.2,2S451.53,249.18,457.26,252.61Z"/><path class="cls-3" d="M474.18,213.65s-3.73,11.44,6,12.3,10-9.73,5.72-13.18S477.33,204.74,474.18,213.65Z"/><path class="cls-3" d="M466.16,181.82s-2.31,10.88,3.43,11.75,7.74-8.32,6-13.48S468.74,173.22,466.16,181.82Z"/><path class="cls-3" d="M382.47,193s-.57,6.32-3.45,5.75-5.16-4.31-2.28-6.88S382.2,189,382.47,193Z"/><path class="cls-3" d="M472.71,300.38s2.77,7.92-2.35,9.76-7.92-5.11-4.18-9.32S471.76,296.66,472.71,300.38Z"/><path class="cls-3" d="M487.58,300.38s-7.44,9.31-2.33,10.22,13-3.72,11.64-9.29S490.85,295.71,487.58,300.38Z"/><path class="cls-3" d="M488.06,270.61s2.3,9.28-.93,10.68-9.77-2.78-6.54-8.38S486.18,264.57,488.06,270.61Z"/><path class="cls-3" d="M560.64,224.55s-1.87,13.94-7.47,14.89-6.5-6.06-.91-14S559.71,218.5,560.64,224.55Z"/><path class="cls-3" d="M528.52,272s.46,13-3.72,14.42-6-5.13-3.27-11.18S527.14,267.35,528.52,272Z"/><path class="cls-3" d="M521.09,203.6s2.32,5.59-2.79,7.44-4.2-5.11-2.34-7.44S520.62,198.94,521.09,203.6Z"/><path class="cls-3" d="M535.51,238.49s2.32,7.45-1.88,7.45S529.91,236.17,535.51,238.49Z"/><path class="cls-3" d="M507.11,167.31s-.45,7.91-3.72,8.85S500.16,159.41,507.11,167.31Z"/><path class="cls-3" d="M537.83,175.22c0,2.57-1.45,4.67-3.27,4.67s-3.25-2.1-3.25-4.67,1.46-4.66,3.25-4.66S537.83,172.65,537.83,175.22Z"/><path class="cls-3" d="M564.34,170.11c0,3.34-1.56,6-3.47,6s-3.5-2.71-3.5-6,1.55-6,3.5-6S564.34,166.75,564.34,170.11Z"/><path class="cls-3" d="M599.72,161.74s0,10.22-4.21,11.16-5.55-6.05-3.71-11.64S596,151,599.72,161.74Z"/><path class="cls-3" d="M584.35,263.62s-.45,13-7.43,15.35-6.52-7.44-2.79-13S584.35,257.58,584.35,263.62Z"/><path class="cls-3" d="M610,288.73s-.94,8.38-5.58,7.93-3.72-5.6-.94-8.38S610,285,610,288.73Z"/><path class="cls-3" d="M617.86,232.45s.46,15.82-6.52,16.28-16.27-8.36-10.23-16.28S616.93,225,617.86,232.45Z"/><path class="cls-3" d="M597.39,203.6s.93,7.44-3.27,7.44-8.84-1.39-5.11-6S594.58,197.09,597.39,203.6Z"/><path class="cls-3" d="M522.93,253.38s0,5.59-3.72,5.13S518.76,246.87,522.93,253.38Z"/><path class="cls-3" d="M443.38,184.54s-.48,3.24-5.11,3.24-7-3.24-3.26-5.56S442.9,180.34,443.38,184.54Z"/><path class="cls-3" d="M414.08,186.38s-1.88,4.67-6.05,2.79S407.09,179.89,414.08,186.38Z"/><path class="cls-3" d="M457.32,319.91s.49,5.11-1.84,4.2S455.48,316.67,457.32,319.91Z"/><path class="cls-3" d="M577.86,138.94s-.49,9.77-4.2,10.22-1.86-7.44-.47-10.67S577.86,133.34,577.86,138.94Z"/><path class="cls-3" d="M537.36,138s2.81,6.51,0,7.93-6.05-2.33-5.56-6.53S536,133.83,537.36,138Z"/><path class="cls-3" d="M631.35,189.65s-.93,11.62-6.06,10.71-5.58-7.92-.93-13.52S630.42,185,631.35,189.65Z"/><path class="cls-3" d="M576.92,306.88s-.94,8.85-6.52,9.79S567,311.22,569,306C571.31,299.92,576.92,299.92,576.92,306.88Z"/><path class="cls-3" d="M593.66,322.7s9.29.48,10.24,7.46-4.65,4.17-8.83,1.84S590.4,322.7,593.66,322.7Z"/><path class="cls-3" d="M635.08,318.06s0,9.77-5.12,13-13-3.24-7.44-12.55S633.68,305,635.08,318.06Z"/><path class="cls-3" d="M622.52,262.69s-.48,8.38-5.14,7.92-3.24-6.52,0-9.79S623,256.63,622.52,262.69Z"/><path class="cls-3" d="M669,273.85s-1.4,8.38-7,5.59-.46-8.37,2.78-9.77S669.49,267.8,669,273.85Z"/><path class="cls-3" d="M655.55,228.27s.46,15.33-9.76,13.49S638.33,232,643,226,653.66,222.22,655.55,228.27Z"/><path class="cls-3" d="M687.64,239.44s.93,7.89-5.57,7.43-7.92-8.84-2.33-12.09S687.19,234.33,687.64,239.44Z"/><path class="cls-3" d="M696.49,245.94s-4.2,9.31.46,10.69,5.58-3.7,6.49-9.3S699.73,240.82,696.49,245.94Z"/><path class="cls-3" d="M552.26,341.77s-1.87,7,2.79,8.38a6.05,6.05,0,0,0,7-8.83C559.22,335.73,552.26,332,552.26,341.77Z"/><path class="cls-3" d="M584.81,358.07s1.4,10.22-3.71,10.69-6.51-5.12-3.24-11.62S584.35,353.42,584.81,358.07Z"/><path class="cls-3" d="M619.25,356.68s-.47,9.29-4.65,9.29-6.51-4.17-2.79-9.77S618.32,351.54,619.25,356.68Z"/><path class="cls-3" d="M625.75,380.4s-1.83,11.65-6.5,11.65-4.19-7-.93-12.1S625.29,374.35,625.75,380.4Z"/><path class="cls-3" d="M641.11,162.2s.95,7-2.78,8.36-6-5.1-2.8-8.36S639.25,158.92,641.11,162.2Z"/><path class="cls-3" d="M672.75,308.75s-.46,11.16-6.5,9.77-1.42-7,1.39-10.71S671.81,306.42,672.75,308.75Z"/><path class="cls-3" d="M651.34,359s1.39,8.86-2.78,9.3-4.18-7-1.87-9.3S651.34,355.27,651.34,359Z"/><path class="cls-3" d="M501.55,147.31S499.67,164.53,491.3,165s-9.77-9.76-4.64-13S500.16,141.27,501.55,147.31Z"/><path class="cls-3" d="M450.83,164.53s0,5.58-5.12,6.5-7-2.78-3.26-4.18A64.24,64.24,0,0,1,450.83,164.53Z"/><path class="cls-3" d="M668.55,197.09s-2.3,11.17-7,10.23-.93-11.16,1.85-14.42S668.1,190.1,668.55,197.09Z"/><path class="cls-3" d="M692.77,279.44s.91,8.84-3.74,8.84-5.57-5.11-3.73-9.31S690.9,273.4,692.77,279.44Z"/><path class="cls-3" d="M686.25,332s-6.06,7.93-1.86,11.16,8.38-5.56,8.38-10.67S687.64,328.74,686.25,332Z"/><path class="cls-3" d="M665.31,372c0,2.32-1.24,4.19-2.78,4.19s-2.8-1.87-2.8-4.19,1.24-4.18,2.8-4.18S665.31,369.71,665.31,372Z"/><path class="cls-3" d="M672.5,359.51c-1.3,2.95-3.58,4.79-5.12,4.11s-1.7-3.61-.43-6.55,3.59-4.77,5.12-4.09S673.78,356.6,672.5,359.51Z"/><path class="cls-3" d="M707.17,186.84c0,5.16-2.39,9.32-5.33,9.32s-5.35-4.16-5.35-9.32,2.37-9.28,5.35-9.28S707.17,181.71,707.17,186.84Z"/><path class="cls-3" d="M736.81,215.58c1.22,3.9.77,7.56-1.08,8.15s-4.34-2.12-5.6-6-.78-7.56,1.08-8.16S735.54,211.65,736.81,215.58Z"/><path class="cls-3" d="M751.38,256.63s7.44,11.17,3.74,14.44S743,263.15,743,257.58,747.66,252.47,751.38,256.63Z"/><path class="cls-3" d="M714.16,290.6s-.46,5.11-3.27,4.18S712.31,285,714.16,290.6Z"/><path class="cls-3" d="M649,195.48c0,1.39-.61,2.55-1.39,2.55s-1.39-1.16-1.39-2.55.62-2.58,1.39-2.58S649,194.06,649,195.48Z"/><path class="cls-3" d="M698.34,221.07c0,1.91-.93,3.48-2.09,3.48s-2.09-1.57-2.09-3.48.94-3.51,2.09-3.51S698.34,219.11,698.34,221.07Z"/><path class="cls-3" d="M572.25,185.92c0,1.54-.81,2.79-1.86,2.79s-1.86-1.25-1.86-2.79.83-2.8,1.86-2.8S572.25,184.37,572.25,185.92Z"/><path class="cls-3" d="M637.21,135.9c1.22,3.65.6,7.14-1.33,7.81s-4.53-1.81-5.74-5.45-.62-7.17,1.34-7.81S636,132.25,637.21,135.9Z"/><path class="cls-3" d="M681.58,172.9c0,2.3-1,4.17-2.32,4.17s-2.33-1.87-2.33-4.17,1-4.18,2.33-4.18S681.58,170.59,681.58,172.9Z"/><path class="cls-3" d="M618.32,146.14c0,1.41-.73,2.57-1.62,2.57s-1.64-1.16-1.64-2.57.72-2.54,1.64-2.54S618.32,144.73,618.32,146.14Z"/><path class="cls-3" d="M527.59,147.31a2.37,2.37,0,1,1-2.33-2.8A2.6,2.6,0,0,1,527.59,147.31Z"/><path class="cls-3" d="M583.9,282c0,1.41-.73,2.55-1.64,2.55s-1.63-1.14-1.63-2.55.73-2.56,1.63-2.56S583.9,280.59,583.9,282Z"/><path class="cls-3" d="M644.38,260.37c0,1.55-.64,2.78-1.41,2.78s-1.39-1.23-1.39-2.78.63-2.79,1.39-2.79S644.38,258.83,644.38,260.37Z"/><path class="cls-3" d="M654.61,335.51c0,1.66-1,3-2.1,3s-2.07-1.36-2.07-3,.93-3,2.07-3S654.61,333.84,654.61,335.51Z"/><path class="cls-3" d="M496.89,255.25c0,1.28-.72,2.33-1.62,2.33s-1.64-1.05-1.64-2.33.73-2.32,1.64-2.32S496.89,254,496.89,255.25Z"/><path class="cls-3" d="M641.11,415.3c0,2.55-1.13,4.65-2.54,4.65s-2.56-2.1-2.56-4.65,1.13-4.66,2.56-4.66S641.11,412.72,641.11,415.3Z"/><path class="cls-3" d="M604.37,394.37c0,1.78-1,3.24-2.1,3.24s-2.09-1.46-2.09-3.24.93-3.27,2.09-3.27S604.37,392.56,604.37,394.37Z"/><path class="cls-3" d="M603,217.79c0,1.17-.49,2.1-1.16,2.1s-1.15-.93-1.15-2.1.52-2.1,1.15-2.1S603,216.64,603,217.79Z"/><path class="cls-3" d="M590.33,115.5c.61,2.5-.15,4.81-1.65,5.18s-3.2-1.4-3.79-3.91.14-4.81,1.65-5.15S589.74,113,590.33,115.5Z"/><path class="cls-3" d="M775.45,297c1,3.31.65,6.35-.81,6.82s-3.51-1.87-4.52-5.18-.65-6.37.8-6.83S774.42,293.69,775.45,297Z"/><path class="cls-3" d="M782.9,330.73c1,3.31.65,6.37-.82,6.82s-3.48-1.87-4.53-5.18-.65-6.37.82-6.83S781.87,327.42,782.9,330.73Z"/><path class="cls-3" d="M783.61,279.4c.78,2.48.51,4.77-.59,5.11s-2.63-1.39-3.39-3.88-.5-4.75.6-5.09S782.86,276.94,783.61,279.4Z"/><path class="cls-3" d="M794.77,334.66c.78,2.47.5,4.76-.59,5.08s-2.62-1.39-3.38-3.84-.49-4.79.6-5.13S794,332.17,794.77,334.66Z"/><path class="cls-3" d="M794.83,366.49c.74,3.64-.2,6.9-2.09,7.27s-4-2.27-4.75-5.9.21-6.87,2.1-7.25S794.11,362.87,794.83,366.49Z"/><path class="cls-3" d="M804.58,402.26c.62,3-.41,5.82-2.29,6.21s-3.93-1.78-4.55-4.83.43-5.83,2.33-6.2S804,399.2,804.58,402.26Z"/><path class="cls-3" d="M788.42,423.63c.76,3.83-.14,7.23-2,7.62s-4.07-2.43-4.83-6.23.15-7.24,2-7.6S787.65,419.82,788.42,423.63Z"/><path class="cls-3" d="M671.67,428.24s-.69,9.48,4.57,9.48,5.63-10.19,1-13.34S671.67,428.24,671.67,428.24Z"/><path class="cls-3" d="M703.59,451s-1.74,9.1,3.52,9.48,4.19-9.84,1.4-13.34S704,447.86,703.59,451Z"/><path class="cls-3" d="M733.83,481c1.48,3.15,1.48,6.28,0,7s-3.89-1.28-5.38-4.42-1.52-6.31,0-7S732.35,477.83,733.83,481Z"/><path class="cls-3" d="M696.25,462.6c0,1.56-.65,2.82-1.43,2.82s-1.39-1.26-1.39-2.82.62-2.8,1.39-2.8S696.25,461.06,696.25,462.6Z"/><path class="cls-3" d="M171.31,200.36a1.7,1.7,0,1,1-2.34-1.21A1.88,1.88,0,0,1,171.31,200.36Z"/><path class="cls-3" d="M799.82,321c0,1.74-.67,3.13-1.49,3.13s-1.45-1.39-1.45-3.13.64-3.13,1.45-3.13S799.82,319.29,799.82,321Z"/><path class="cls-3" d="M806.07,370.9c0,1.65-.73,3-1.65,3s-1.64-1.32-1.64-3,.72-2.94,1.64-2.94S806.07,369.28,806.07,370.9Z"/><path class="cls-3" d="M781,463.63c.41,1.39,0,2.73-.84,3s-1.93-.66-2.31-2.06,0-2.74.84-3S780.61,462.22,781,463.63Z"/><path class="cls-3" d="M791.19,454.12c1.51,2.65,1.3,5.59-.43,6.59s-4.41-.32-5.94-3-1.3-5.62.44-6.62S789.66,451.47,791.19,454.12Z"/><path class="cls-3" d="M788.05,477.88c.73,2.79,0,5.4-1.73,5.87s-3.63-1.46-4.35-4.27,0-5.42,1.7-5.85S787.29,475.07,788.05,477.88Z"/><path class="cls-3" d="M772.93,443.7s3.56-2.68,3.85,1.48-5,8.69-5,6.18A49.62,49.62,0,0,1,772.93,443.7Z"/><path class="cls-3" d="M767.61,475.85s9.76,1.09,10,6.77-1.65,8.14-4.88,10.57-7.86,7.33-7.86,4.61S767.61,475.85,767.61,475.85Z"/><path class="cls-3" d="M785.78,520s.83,8.13,1.62,10.84-13.28,1.34-13.28-3.51S785.24,516.52,785.78,520Z"/><path class="cls-3" d="M767.61,527.36s-4.61,1.61-4.33,9.22,7.05,9.75,8.94,3S769.78,525.48,767.61,527.36Z"/><path class="cls-3" d="M762.73,514.88s.55,5.7,2.71,5.15,6-5.15,3.27-7S762.73,511.36,762.73,514.88Z"/><path class="cls-3" d="M231,587.45s-.53.54-1.35,1.53a48.73,48.73,0,0,0-3.18,4.27c-.58.92-1.18,2-1.77,3a37,37,0,0,0-1.64,3.52,26.82,26.82,0,0,0-1.21,3.87,21.35,21.35,0,0,0-.62,4.13,20.93,20.93,0,0,0,.05,4.19c.05.67.19,1.37.27,2s.3,1.33.43,2c.36,1.27.73,2.49,1.19,3.66.18.57.49,1.13.69,1.68s.45,1,.7,1.51c.51,1,.95,1.91,1.42,2.68s.8,1.46,1.16,2c.69,1.11,1.06,1.76,1.06,1.76s-.56-.51-1.49-1.42a19.87,19.87,0,0,1-1.63-1.76,23.1,23.1,0,0,1-1.89-2.44,22.66,22.66,0,0,1-1.91-3.18c-.3-.59-.61-1.17-.89-1.82s-.53-1.31-.76-2a24.55,24.55,0,0,1-1-4.38,23.51,23.51,0,0,1,.63-9.29,22.6,22.6,0,0,1,1.6-4.22,28,28,0,0,1,4.39-6.51,27.19,27.19,0,0,1,4-3.69A17.63,17.63,0,0,1,231,587.45Z"/><path class="cls-3" d="M253,589.53s-1.91,2.28-4.46,5.81c-.65.86-1.33,1.82-2,2.85s-1.4,2.12-2.12,3.24a49.2,49.2,0,0,0-3.88,7.38,27.56,27.56,0,0,0-2.17,7.84c-.07.64-.07,1.26-.13,1.89s0,1.22.1,1.82a16.19,16.19,0,0,0,.65,3.27c.15.51.29,1,.48,1.45s.38.83.53,1.25c.4.77.79,1.44,1.11,2l1.11,1.67s-.57-.44-1.56-1.31c-.43-.49-1-1-1.56-1.8-.25-.36-.56-.78-.86-1.22s-.49-.94-.77-1.46a14.86,14.86,0,0,1-1.19-3.54,18.33,18.33,0,0,1-.31-2,17,17,0,0,1,0-2.15,19.86,19.86,0,0,1,.62-4.42,31.31,31.31,0,0,1,1.42-4.33,38.32,38.32,0,0,1,2-4.05,41.4,41.4,0,0,1,2.39-3.63,49.25,49.25,0,0,1,5-5.77A39.08,39.08,0,0,1,253,589.53Z"/><path class="cls-3" d="M633,583.6s-.32.55-.83,1.53-1.18,2.37-1.91,4c-.33.87-.73,1.8-1.08,2.81s-.62,2-1,3.11-.47,2.25-.72,3.39a24.26,24.26,0,0,0-.34,3.53l-.08,1.79c.05.57.1,1.15.14,1.72a25.32,25.32,0,0,0,.51,3.39,24.5,24.5,0,0,0,.89,3.1,14.71,14.71,0,0,0,1.12,2.72c.17.43.36.81.54,1.2a5,5,0,0,0,.55,1.08c.38.63.73,1.2,1,1.69.55.95.85,1.52.85,1.52s-.49-.41-1.28-1.19c-.41-.38-.92-.84-1.45-1.41a13.75,13.75,0,0,1-1.6-2.09c-.28-.39-.57-.83-.87-1.25a8.74,8.74,0,0,1-.78-1.45,19.2,19.2,0,0,1-1.36-3.26,17,17,0,0,1-.79-3.75c-.09-.63-.15-1.3-.22-2l0-2a25.64,25.64,0,0,1,.49-3.91,15.25,15.25,0,0,1,.48-1.85,15.92,15.92,0,0,1,.57-1.77,20.45,20.45,0,0,1,1.42-3.2,21,21,0,0,1,1.57-2.72,22.79,22.79,0,0,1,2.88-3.62A10.22,10.22,0,0,1,633,583.6Z"/><path class="cls-3" d="M652.57,584.31a10.33,10.33,0,0,0-1.5,1.08,14.78,14.78,0,0,0-1.55,1.44,23.08,23.08,0,0,0-1.79,2c-.6.79-1.13,1.73-1.8,2.62l-1.63,3.11c-.46,1.12-.93,2.36-1.43,3.45-.2.64-.41,1.28-.62,1.93l-.5,1.86-.39,1.89c-.13.65-.23,1.28-.3,1.9s-.14,1.28-.22,1.89-.07,1.24-.07,1.85c0,1.21,0,2.4.15,3.52a31,31,0,0,0,.54,3.1c.12.48.23.94.37,1.38s.27.81.43,1.2a15.94,15.94,0,0,0,.87,1.9,7.48,7.48,0,0,0,.73,1.16,2.5,2.5,0,0,1,.26.4l-.38-.31a6.72,6.72,0,0,1-1.07-.94,9.56,9.56,0,0,1-1.36-1.73,14.15,14.15,0,0,1-1.38-2.55,19.5,19.5,0,0,1-1-3.26,20.82,20.82,0,0,1-.57-3.8,25.7,25.7,0,0,1,0-4.11c.08-.68.18-1.37.27-2.07s.27-1.4.45-2.08l.58-2.07c.22-.64.43-1.28.66-1.93.6-1.34,1.21-2.5,1.78-3.69s1.44-2.2,2.12-3.2,1.57-1.8,2.36-2.51a17.54,17.54,0,0,1,2.28-1.76,9.73,9.73,0,0,1,1.91-1,7,7,0,0,1,1.33-.51A2.33,2.33,0,0,1,652.57,584.31Z"/><path class="cls-3" d="M800.71,587.6c3.49-2.34,1.92-7,1.54-10.82s7.73-2.33,7.73-5.42c0-1.7-1.3-5.31-2.48-8.19a66.16,66.16,0,0,1-5-4.7,59.65,59.65,0,0,1-8.35-10.91c-2.92,1.6-7,3.93-7.69,4.88-1.14,1.55-2.69,14.29-2.69,14.29s-5,0-5,4.63c0,3.42-5.05-.09-6.92,2a89.6,89.6,0,0,0,15.48,22.94C792,586.48,797.6,589.67,800.71,587.6Z"/><path class="cls-3" d="M851.69,597.25c1.93-1.55,4.25-4.25,1.14-7s-5-4.64-.38-9.65c2.77-3,.6-6.54-1.6-8.88-9.19,4.09-19.35,4.06-29.21.06.57,1.3.62,2.38-.46,2.63-3.09.78,2.72,4.26,3.08,6.58s-6.17.76-2.68,5.4,5.79,6.19-2,8.88-5,5.4-2.31,10.05c2.07,3.58.49,5.77-3.41,8.19,11.05,2.92,24.44,2,37.39-1.28C857.16,604,850,598.62,851.69,597.25Z"/><path class="cls-3" d="M896.1,552.55s5.17,0,3.7-1.84c-8.14-8.87-18.49-1.48-18.49-1.48s-.76-6.67-3.33-6.67-3.71,8.88-3.71,8.88-4.44-4.06-5.94-4.06-1.09,2.21.75,8.5a51,51,0,0,1-7.56,8.78c1.39,1.14,2.86,2.07,4.08,2.07,3.09,0-.4,1.94,3.09,6.58s8.1,5.4,4.24,11.18-3.87,6.18,0,9.27c3,2.39,2.28,5.46,1.1,10.46,13.75-6.44,24.46-14.64,27.24-21.7A28.5,28.5,0,0,0,896.1,552.55Z"/><g class="cls-4"><path class="cls-9" d="M162.37,200c37.33,0,52.58-6.3,66.77-31.54,10-17.73,19.19-37,32.32-47.48a127.55,127.55,0,0,0-17.75,3.83s-9.52,15.66-23,37.14-27.63,23.29-66.19,29.11-36,18.89-36,18.89a38.62,38.62,0,0,0,4.54,12C127.3,213.1,137.73,200,162.37,200Z"/></g><g class="cls-7"><path class="cls-5" d="M811.62,593.71c-30-9.07-48.14-69.09-27.21-148.65S793.49,304.81,753,244.78s-55.81-48.14-43.25-27.92c25.12,39.77.7,70.49-18.12,99.81S635.76,399,600.88,380.86c-46.07-28.61-44-60.72-30-94.2,15.36-46.06,2.8-46.06-57.21-8.38s-69.18,80.32-99,86.3c-57,11.38-66.83-29.3-63.35-68.38s-14.24-18.63-17.74,23.94-4.88,81.67-34.89,63.52-75.36-45.38-86.52-83.05,24.42-94.21,16-89.33c-11.86,5.58-27.52,23.84-41.18,47.21S171.2,313,152.27,300.61,126,253.1,135.69,234.21c-6.76,3.32-11.71,4.83-15.35,5.24-.47.92-.73,1.46-.73,1.46s2.54,0,7.63-.36c-5.82,5.09-10.91,25.11-10.91,25.11l7.28-4.73c-4.73,10.18-3.63,35.63,0,35.63s3.28-.34,22.56,11.3c20.74,12.35,28.73,20,40,35.26,23.64,28,50.57,48.75,70.94,56.4,13.11,9.1,33.9,21.82,42.27,44.15s5.93,73.63.71,109.91c-2.4,16.6-4.2,39.78-9.08,42.57s-10.82,1.74-17.45-3.49-15.69-8.72-20.58-3.13c-4.89-5.93-12.91-13.62-22-2.08-13.26-6.29-22,12.19-21.3,27.56s18.86,19.18,18.5,14.29c1.39,1,12.2,4.54,14,.69,4.18,2.79,24.08,5.94,41.17,4.89s31.41-6.26,32.46-15.34-.71-13.62,2.08-24.77,20.25-69.8,29.67-110.26,23.12-38.95,22.78-42-.34-7.08-.34-7.08l4.73,1.34c.31-4.69-6.42-12.77-6.42-12.77a27,27,0,0,0,7.42,4c-1-7.06-8.08-14.45-8.08-14.45s3,.31,10.78,3.35c-.68-9.75-7.16-17-7.16-17a145.73,145.73,0,0,0,21.87,2.78l-6.5-4.62c5.59,2.78,17.7.46,17.7.46l-3.75-3.27h14l-.46-2.33h9.77l-3.27-3.72c20,1.4,26.52-16.76,29.31-27.92s9.77-21.38,18.62-27.43,17.21-8.86,36.28-22.8,44.67-36.75,49.78-35.84-14,40.49-18.6,63.74,44.21,54.9,66.08,69.33,86.21,58.22,102.08,69.2,16.29,28.95,14.1,65.44c-2.88,33.09-17.68,49.32-17.68,49.32s-6.26-7.09-7.12-6.94-.16.68.67,8.27c-7.77-5.93-24.8-3.3-24.8-3.3s-13.37-7.78-17.32-5.63c-9.44-8.41-19-1.07-19-1.07-10.81-5.59-16.38,8-17.8,20.22s15,18.85,17.46,16.41c2.45,3.83,12.21,4.89,11.49,1.75,3.86,3.14,32.47,8.71,47.82,4.54s25.11-11.16,35.95-50.61a336.21,336.21,0,0,0,15.8-90.36s9.76,5.05,9.13,2.21-9.44-11-9.44-11,3.78-.33,6.29-.65,3.78,0-3.15-2.83-6.61-1.56-16.09-13.55c-12.6-12.63-61.16-62.54-61.16-68.47,0-7.39,17-43.31,36.27-67S741,271.32,741,271.32s18.52,13,28.12,33.68c11.48,25.89,11.84,87.7,8.52,109.91S766.22,477.81,762.14,517s14.81,79.57,44.77,94,87.34-10.75,94.36-28.52a28.27,28.27,0,0,0,.9-19.34C885.07,589.26,837.34,601.49,811.62,593.71Z"/></g><g class="cls-7"><path class="cls-5" d="M337.12,160.16c15.94,21.39,57.06,47.41,86,44.05,23.08-3.35-6.3-10.06-21.38-16.77S437.79,179,489,147.17l.68-.45c-27.09,12.07-56.2,23.21-75.76,25.77-34,4.43-49.1,3.31-71.26-12.92a212.21,212.21,0,0,0-17.34-12.28A85.75,85.75,0,0,1,337.12,160.16Z"/></g><path class="cls-2" d="M78.11,39.4s14.66-3.15,15.71-3.68S87.54,30,87.54,30l12.06,6.3s-2.1-5.79.53-6.3,4.19,3.68,4.19,3.68,14.26-8.6,21.12-7.49c3.13,1.15-1.14,6.84-1.14,6.84s19-3.37,37,1.42c7.7,1.14,8,.87,16.5-9.67S197.21-3.19,210.31.51,238,9.07,239.94,13.34s-.27,33.32-5.69,41.88-24.5,13.67-24.5,13.67-.27,6,2,8.83,5.12,8.81,5.12,10.82a77.54,77.54,0,0,1,29.35-1.44,11.63,11.63,0,0,0-5.41,7.43s9.11.84,13.1,6c-5.71,1.15-7.42,2.28-7.42,2.28s9.7,8.84,11.13,12.53c-6,1.71-7.78,1.42-14.07,14.31s-28.63,47.11-37,55.49c-5.9,4.54-19.51,5.22-30.35,5.22-16.73,0-42.2,7.7-49.53,12.22s-4.54,7.69-2.8,11.87-5.58,3.48-10.46,3.14c2.79,4.55-.37,7.34-5.94-.36-2.1,8.05-23,9.79-38.71,9.08L68.38,220s-5.91,3.5-7.67,2.11,2.44-8,2.44-8-5.57,1.38-7-.35,5.92-5.59,5.92-5.59-5.56-4.18-7.31-7c0,0-30.7-8-30.7-18.15a43.75,43.75,0,0,1,3.83-17.78S16.75,145,0,137c1.38-3.49,7.67-7.66,7.67-7.66l-5.23-1.06s5.58-8.38,11.17-7.66c-6.29-2.45-8.74-2.78-8.74-2.78s9.43-9.1,22.69-7c3.49-4.2,9.43-21.63,9.79-28.27C34.54,85.66,32.8,86,32.8,86l-2.11-6.27S29,83.57,26.17,83.57s.68-6.28.68-6.28S4.19,66.82,6.26,57.05,17.44,12.4,34.89,9.25C42.22,8.53,51.87,17.2,78.11,39.4Z"/><g class="cls-7"><path class="cls-5" d="M246.49,102.78s1.71-1.13,7.42-2.28c-4-5.13-13.1-6-13.1-6a11.63,11.63,0,0,1,5.41-7.43,77.54,77.54,0,0,0-29.35,1.44c0-2-2.83-8-5.12-10.82s-2-8.83-2-8.83,19.1-5.14,24.5-13.67c2.32-3.68,4.08-11.12,5.16-18.74-.15.68-.3,1.39-.4,2.21-2.95,21.92-29.48,23.16-21.47,18.13,15.15-10.12,23.16-37.51,17.27-43.39-15.18-10.12-34.55.41-41.29,6.72s-4.64-2.93,6.32-13c4.39-4.08,12-4.65,19.45-3.91-2.95-.93-6-1.84-9-2.69-13.1-3.7-23.91,13.66-32.47,24.22s-8.8,10.81-16.5,9.67c-18.05-4.79-37-1.42-37-1.42s4.27-5.69,1.14-6.84a10.58,10.58,0,0,0-1.54-.1c-2.53,4.46-9.14,10.23-3.53,8.84,29.42-5.43,62.92,10.4,59.76,19.44,3.16-4.06,13.11-9.94,11.77,4.09,5-5.43,8.15,3.64,3.17,10.86,11.32,2.26,19,27.17,20.36,32.15,8.15-5,11.77,2.25,11.77,2.25s-7.21-1.8-11.77,10.41c1.37-3.14,11.77-8.58,18.13-1.8C221.78,110,215,132.66,181,153.48S129,141.7,127.17,128.57c-2.29-16.42,14-22.63,4.31-22.53s-25.14.81-22,9.87,5,24.89-6.79,19S67,129,56.55,132.66s-1.36-14.94,3.18-20.38-2.26-6.34-15.87-4.14c10.87.85,5.89,10.94-.43,20s-11.78,29-18.58,17.67,1.83-17.67,1.83-17.67-11.78,2.71-10.87,0S27.6,121.8,27.6,121.8A26.59,26.59,0,0,0,18.53,115c5.42-3.62,14.92.92,14.92.92s1.83-3.63,9.07-10c-6.35,1.36-8.16,0-1.81-16.74C47.5,69.27,71,38.94,77.82,45.94,81,38.47,94.57,37.6,94.57,37.6l-1.84-1.53C89.1,37,78.11,39.4,78.11,39.4,51.87,17.2,42.22,8.53,34.89,9.25a15.82,15.82,0,0,0-1.8.46c5.55.68,12.72,3.61,21,11.73,17.68,21,4.22,15.16-4.65,6.74S33.86,13.84,28,19.31,9,48,21.25,55.12s26.11,2.11,21,8S36.84,79.55,33,73.25c-2.85-4.77-17.25-2.6-25-9.77,5.07,7.44,18.85,13.81,18.85,13.81s-3.48,6.28-.68,6.28,4.52-3.84,4.52-3.84L32.8,86s1.74-.34,4.55-3.48c-.36,6.64-6.3,24.07-9.79,28.27-13.26-2.1-22.69,7-22.69,7s2.45.33,8.74,2.78c-5.59-.72-11.17,7.66-11.17,7.66l5.23,1.06S1.38,133.46,0,137c16.75,8,27.91,28.28,27.91,28.28A43.75,43.75,0,0,0,24.08,183c0,10.13,30.7,18.15,30.7,18.15,1.75,2.8,7.31,7,7.31,7s-7.31,3.84-5.92,5.59,7,.35,7,.35-4.17,6.61-2.44,8S68.38,220,68.38,220l.38,6.28c15.69.71,36.61-1,38.71-9.08,5.57,7.7,8.73,4.91,5.94.36,4.88.34,12.22,1.06,10.46-3.14s-4.56-7.33,2.8-11.87,32.8-12.22,49.53-12.22c10.84,0,24.45-.68,30.35-5.22,8.37-8.38,30.73-42.57,37-55.49s8.09-12.6,14.07-14.31C256.19,111.62,246.49,102.78,246.49,102.78Z"/></g><path class="cls-10" d="M38.73,107.64s65.25-15,113.75,2.45a38.64,38.64,0,0,0-15.35-8s2.78-18.31-4.89-15.7c-6.49,2.16-4.89,14.28-4.89,14.28S94.22,93,55.14,102.42c1.39-13.26-8-20.59-10.47,1.38C39.78,105.2,38.73,107.64,38.73,107.64Z"/><path class="cls-11" d="M21.58,32.15s6.85-12.33,12.33-11.31S55.79,43.08,55.79,43.08s-6.47,0-6.82,1.36,2.41,4.12,2.41,4.12-3.09,7.53-16.79,6.84S13.72,45.81,21.58,32.15Z"/><path class="cls-11" d="M185.86,39.3s13.68-36.6,46.86-24.61c5.83,3.07-2,25.65-7.18,31.8s-27,13.36-26,3.09-.69-9.58-6.15-6.84c4.76-4.8,4.76-6.49,4.76-6.49Z"/><path d="M53,98.81c-.52,3.81-2.23,6.69-3.81,6.41s-2.42-3.56-1.86-7.36,2.25-6.67,3.82-6.42S53.55,95,53,98.81Z"/><path class="cls-12" d="M52.48,96.46c-.1,1.51-.77,2.67-1.45,2.6S49.84,97.74,50,96.23s.78-2.67,1.46-2.6S52.61,95,52.48,96.46Z"/><path d="M135.29,95.34c-.46,3.81-2.12,6.71-3.7,6.48s-2.45-3.54-2-7.34,2.12-6.72,3.7-6.49S135.77,91.5,135.29,95.34Z"/><path class="cls-12" d="M134.77,93c-.09,1.5-.73,2.7-1.44,2.62s-1.2-1.3-1.12-2.8.74-2.67,1.43-2.63S134.83,91.49,134.77,93Z"/><g class="cls-4"><path class="cls-13" d="M43.86,108.14s5.64.49,6.6,5.3-14.63,22.34-15.11,30.72c9.81-16.25,21.39-29.42,21.87-32.48S48.54,106.53,43.86,108.14Z"/><path class="cls-13" d="M131.48,106s-7.38,5.64-7.23,13.83S122.34,144,133,159.12c-7.09-6.28-11.09-7.56-10.94-11.74s2.09-17.21-2.73-24.77-2.1-8.68,2.25-13S133.43,105.09,131.48,106Z"/></g><path class="cls-14" d="M48.44,81.53S53,73,59.79,82.06C58.41,72.43,53.83,66.13,48.44,81.53Z"/><path class="cls-14" d="M123.9,81.87s7.36-10.68,15.76-1.57c-3.5-7-8.21-11-10.32-8.4S123.9,81.87,123.9,81.87Z"/><path class="cls-15" d="M48,79.57s4.56-8.57,11.38.52C58,70.46,53.45,64.14,48,79.57Z"/><path class="cls-15" d="M123.49,79.91s7.39-10.67,15.77-1.57c-3.49-7-8.21-11-10.33-8.41S123.49,79.91,123.49,79.91Z"/><path class="cls-3" d="M94.49,79.07a4.46,4.46,0,1,1-5.73-1.85A4.31,4.31,0,0,1,94.49,79.07Z"/><path class="cls-3" d="M67.27,61.82s4.25-3.07,6.31-1.36a13,13,0,0,1,3.73,7.68c.19,2.21-3.57,2.21-7.66,1A4.53,4.53,0,0,1,67.27,61.82Z"/><path class="cls-3" d="M89.61,63.37s-3.4-.87-3.58,2.72,4.26,5,5.62,3.08A3.8,3.8,0,0,0,89.61,63.37Z"/><path class="cls-3" d="M78.69,48.51a5.41,5.41,0,0,1-3.92,4.79c-4.27,1.19-9.23-.87-7.85-2.74s3.24-3.24,5.11-5,4.28-.49,5.79.34A2.07,2.07,0,0,1,78.69,48.51Z"/><path class="cls-3" d="M94.56,47.83s-1.54,2.9.69,4.94,4.76-1.36,4.26-4.26S96.43,44.77,94.56,47.83Z"/><path class="cls-3" d="M110.26,50.37s-6.66,4.8-6,8.55c.87,3.08,7,3.76,10.41,0s3.07-5.81,1.55-7.85S113,48,110.26,50.37Z"/><path class="cls-3" d="M138.93,46.64s3.42,2.56,2.55,5.64-7,3.24-8.86-.53S135.34,44.07,138.93,46.64Z"/><path class="cls-3" d="M117.6,67.11a4.54,4.54,0,0,1-3.77,4.11c-3.57.65-3.57-3.42-1.18-5.47S118.12,64.73,117.6,67.11Z"/><path class="cls-3" d="M111.45,37.75s.87,3.77-1.87,4.28S106,40,107.17,37.94,110.94,35.05,111.45,37.75Z"/><path class="cls-3" d="M124.77,44.24s1.35,3.24-1.9,3.24-1.68-3.75-.14-4.61S124.43,43.73,124.77,44.24Z"/><path class="cls-3" d="M153.44,37.75s.51,2.4-1.37,3.25-3.42,2.39-4.61.18S151.21,34.36,153.44,37.75Z"/><path class="cls-3" d="M189.43,88.61s3.24,1.21,2.91,4.45-2.72,5.27-5,3.74-1.69-5-1-6.82S188.93,87.93,189.43,88.61Z"/><path class="cls-3" d="M202.78,78.57c0,2-1.19,3.56-2.7,3.56s-2.72-1.6-2.72-3.56,1.2-3.56,2.72-3.56S202.78,76.61,202.78,78.57Z"/><path class="cls-3" d="M209.73,101c-.76,1.87-2.42,3-3.77,2.48s-1.81-2.49-1.1-4.4,2.45-3,3.76-2.45S210.46,99.06,209.73,101Z"/><path class="cls-3" d="M209.26,111.51c.73,1.89.22,3.85-1.13,4.35s-3-.59-3.75-2.49-.21-3.85,1.13-4.36S208.54,109.61,209.26,111.51Z"/><path class="cls-3" d="M21.36,119.08a5,5,0,0,1,1.9,5.2c-.71,3.54-5.24,2.13-5.47-1.19S19,117.89,21.36,119.08Z"/><path class="cls-3" d="M17.79,130.19s1.2,6.87-.93,7.83-5.93-1.41-5.68-5.46S15,125.22,17.79,130.19Z"/><path class="cls-3" d="M20.17,141.56s2.84,2.15,1.19,3.34S17.09,140.63,20.17,141.56Z"/><path class="cls-3" d="M155.66,149.16s2.6,1.41,2.14,3.05-3.08.26-3.56-.92A1.63,1.63,0,0,1,155.66,149.16Z"/><path class="cls-3" d="M173,154.13s7.58-1.43,6.61,7.1-10.89,7.36-12.77,4S164.43,156,173,154.13Z"/><path class="cls-3" d="M194,141.33s7.61-1.65,10.21,2.13-4.28,6.86-8.54,5.7S188.12,143.46,194,141.33Z"/><path class="cls-3" d="M212.74,130.19s3.79,2.37,1.68,4.75-6.17-1.66-5-3.57A2.91,2.91,0,0,1,212.74,130.19Z"/><path class="cls-3" d="M183.62,175.44a4.69,4.69,0,0,0,5.9,3.33c4.75-1.19,4.28-6.65.49-6.65S183.13,172.6,183.62,175.44Z"/><path class="cls-3" d="M163.5,178.77s-1,7.1,4,7.57,2.37-9.23-.22-10.43S163.24,177.35,163.5,178.77Z"/><path class="cls-3" d="M189.31,115.75s4.85-1.92,6.86,1.19c1.67,2.57-1.3,5.26-5.71,3.8S186.89,116.16,189.31,115.75Z"/><path class="cls-3" d="M216.1,142.5s.83-1.49,3.07-.53,1.5,3.93-.75,3.61S215.45,142.82,216.1,142.5Z"/><path class="cls-3" d="M205.6,157.35s-.65,2.76,1.47,2.54,1.62-3.6.65-4.34S205.51,155.44,205.6,157.35Z"/><path class="cls-3" d="M180.35,136a2,2,0,0,1-1.37,2c-1.48.4-2.66-1.28-1.6-2.32S179.83,134.65,180.35,136Z"/><path class="cls-3" d="M206.24,118.53s1.48.64,1,2-2.74.32-2.74-1S205.4,117.45,206.24,118.53Z"/><path class="cls-3" d="M226.34,115.69s-3.38,1.15-2.92,4.51,5.93,5.14,7.69.25S228.78,114.28,226.34,115.69Z"/><path class="cls-3" d="M223.89,101.48a4.91,4.91,0,0,1,1.4,4.77c-.83,2.78-6.5,2.68-7.55-1.62S220.64,98.59,223.89,101.48Z"/><path class="cls-3" d="M246.32,103.15s-6.51-1.26-7.21,6.87,9.19,5.77,10.1,1.26S248.84,104.06,246.32,103.15Z"/><path class="cls-3" d="M156,174.25s-.83,3.56,2.22,4.52S158,170.26,156,174.25Z"/><path class="cls-3" d="M151.39,164.22s-3.56-.68-2.88.84S154.27,165.87,151.39,164.22Z"/><path class="cls-16" d="M58.92,101.42s40.41-7.49,66.25-.84C112.24,94.35,83.91,92.26,58.92,101.42Z"/><path class="cls-17" d="M55.79,43.08S39.4,21.88,33.91,20.84a3.53,3.53,0,0,0-.92,0c3.25,2.06,7.5,6.13,11.63,14.38,3.82,7.21,2.12,12.5-6.14,15.25C33,52.25,24.41,51,19.09,46.79c2,5.13,7.68,8.22,15.5,8.61,13.7.69,16.79-6.84,16.79-6.84S48.64,45.81,49,44.44,55.79,43.08,55.79,43.08Z"/><g class="cls-7"><path class="cls-18" d="M201.34,33.83c-1-13,9.91-19,17.83-21.52-23.41.5-33.31,27-33.31,27l12.29-3s0,1.69-4.76,6.49c5.46-2.74,7.16-3.44,6.15,6.84s20.87,3.08,26-3.09c2.6-3.07,5.82-10.29,7.72-17.09C227.12,47.67,202.83,53.11,201.34,33.83Z"/></g><path class="cls-19" d="M28.38,23.45a7.49,7.49,0,0,1,3.87-2.77,5.08,5.08,0,0,1,2.48,0A6,6,0,0,1,37,21.86c.65.51,1.17,1,1.77,1.59l1.74,1.62,3.33,3.35C46,30.71,48.18,33,50.3,35.36c1.05,1.16,2.11,2.35,3.1,3.58.51.59,1,1.21,1.51,1.86.23.31.47.62.71,1l.35.51a6.08,6.08,0,0,1,.33.62l.44.84-1-.13a21.22,21.22,0,0,0-3-.23,10,10,0,0,0-1.46.09,4.34,4.34,0,0,0-1.33.39,1.92,1.92,0,0,0-.5.39,1.1,1.1,0,0,0-.19.55,1.48,1.48,0,0,0,0,.66c.1.23.14.45.25.68l.36.65.46.62a14.54,14.54,0,0,0,1,1.16c-.39-.34-.77-.67-1.13-1.05a8.35,8.35,0,0,1-1-1.21c-.14-.21-.22-.47-.36-.71a2.62,2.62,0,0,1-.14-.82A1.84,1.84,0,0,1,49,43.9a2.69,2.69,0,0,1,.63-.63,4.86,4.86,0,0,1,1.54-.56,8.54,8.54,0,0,1,1.58-.2,22.87,22.87,0,0,1,3.1,0l-.55.72-.25-.4-.37-.43a8.75,8.75,0,0,0-.72-.89c-.51-.62-1-1.19-1.54-1.79l-3.17-3.49-6.41-6.94-3.22-3.44L38,24.18C37.5,23.63,37,23,36.41,22.53a6,6,0,0,0-1.88-1.16,4.54,4.54,0,0,0-2.17-.16A7.71,7.71,0,0,0,28.38,23.45Z"/><path class="cls-19" d="M232.72,14.69a30.18,30.18,0,0,0-7.12-1.83,29.77,29.77,0,0,0-3.65-.3c-.6,0-1.23,0-1.84,0a14.27,14.27,0,0,0-1.82.1,29.26,29.26,0,0,0-3.61.49l-1.78.38-1.73.54-.44.14-.11,0s-.06,0-.1,0l-.21.09-.86.34a11.8,11.8,0,0,0-1.66.74l-1.59.82-1.53,1a45.11,45.11,0,0,0-10.6,10c-.77.93-1.51,1.92-2.23,2.9s-1.4,2-2,3a37.4,37.4,0,0,0-3.39,6.44l-.71-.79c2-.5,4.11-1,6.17-1.45l3.1-.69c1.05-.23,2-.48,3.05-.76l1.19-.3-.72.94c-1.62,2.14-3.27,4.29-4.94,6.39l-.32-.32a18.26,18.26,0,0,1,3.07-1.67,5.48,5.48,0,0,1,1.72-.41,1.77,1.77,0,0,1,.86.19,1.22,1.22,0,0,1,.33.27l.24.36-.25-.34a1.56,1.56,0,0,0-.36-.23,1.72,1.72,0,0,0-.81-.11,5.69,5.69,0,0,0-1.62.52,18.17,18.17,0,0,0-2.9,1.78l-1.15.88.84-1.19c1.5-2.22,3.06-4.41,4.63-6.6l.48.64c-1,.29-2.09.62-3.11.86l-3.06.82c-2.05.56-4.09,1.08-6.16,1.58l-1.12.27.41-1.07a41.14,41.14,0,0,1,3.41-6.68c.66-1.08,1.34-2.1,2.05-3.13s1.46-2,2.25-3,1.6-1.91,2.45-2.85,1.72-1.84,2.65-2.65a33.38,33.38,0,0,1,2.83-2.45A37.26,37.26,0,0,1,204,16.16l1.6-1,1.73-.84a13.64,13.64,0,0,1,1.7-.71l.87-.31.24-.07.13-.06.12,0,.47-.11,1.82-.48,1.84-.34a30.44,30.44,0,0,1,3.72-.39,14.61,14.61,0,0,1,1.87,0c.61,0,1.25,0,1.87.06a35.72,35.72,0,0,1,3.7.5A26.7,26.7,0,0,1,232.72,14.69Z"/><path class="cls-20" d="M61.87,129.16a65.77,65.77,0,0,1,31.19,0c12.09,3.27,9.3-26.52-2.34-27.45S55.37,125,61.87,129.16Z"/><path class="cls-20" d="M75.06,46.47S46.27,69.84,41.81,97.28C39.8,83.15,59.34,54.55,75.06,46.47Z"/><path class="cls-8" d="M135.39,160.34c-10.48-11.86-29.31-16.74-56.54-20.94-27.61,0-43.77,14.4-51.72,24.51.51.82.78,1.32.78,1.32A43.75,43.75,0,0,0,24.08,183c0,10.13,30.7,18.15,30.7,18.15,1.75,2.8,7.31,7,7.31,7s-7.31,3.84-5.92,5.59,7,.35,7,.35-4.17,6.61-2.44,8S68.38,220,68.38,220l.38,6.28c15.69.71,36.61-1,38.71-9.08,5.57,7.7,8.73,4.91,5.94.36,4.88.34,12.22,1.06,10.46-3.14s-4.56-7.33,2.8-11.87c3.3-2.06,10.36-4.74,18.63-7.07A38.91,38.91,0,0,0,135.39,160.34Z"/><g class="cls-4"><path class="cls-21" d="M137.51,162.73a33.83,33.83,0,0,1-4.45,10.63c-20.47,24.67-40,23.73-47,19.54s-7.9-11.17,2.78-14.41,26.52-17.23,27.46-24.18c.4-3.07,4.69-2.91,9.41-1.8-11-6.47-26.6-10-46.87-13.11-21.37,0-35.86,8.59-45,17.18,3.59,5.23,9.54,12.14,17.78,15.87,14.44,6.49,14.44,10.23,13.49,17.2-.68,5.11-9.9,10-25,6.51a125.89,125.89,0,0,0,14.7,5A27.25,27.25,0,0,0,60,206.49c.86-.33,1.79-.7,2.76-1,8.39-2.79,5.58-10.25,14.89-3.72s19.53,4.63,22.79,11.16c3,6-11,12.81-31.84,12l.12,1.38c15.69.71,36.61-1,38.71-9.08,5.57,7.7,8.73,4.91,5.94.36,4.88.34,12.22,1.06,10.46-3.14s-4.56-7.33,2.8-11.87c3.3-2.06,10.36-4.74,18.63-7.07A38.85,38.85,0,0,0,137.51,162.73Z"/></g><g class="cls-4"><path class="cls-22" d="M68.83,176.6s7.06,19.86-14,24.56c5.07,4,12.73-2.27,16-8.38,9.28,6.11,17.47,11.18,30.38,9.95s28.83-17.85,34.56-26.45c4.3-8.24,0-12.87,0-12.87s4.3,7.87-7.16,17.89-19.7,19.33-32.94,19.33-22.52-8.7-23.24-15.11-.34-8.9-.34-8.9Z"/><path class="cls-22" d="M37,154.31s-7.21,7.43-9.54,12.31C29.78,157.09,33,155.44,37,154.31Z"/></g><path d="M46.5,192l-.61,1.57c-.44,1-1,2.47-1.69,4.15s-1.59,3.71-2.56,5.81-2,4.33-3.08,6.57-2.14,4.45-3.21,6.5-2.08,4-2.94,5.62-1.65,3-2.17,3.9-.84,1.48-.84,1.48L30,226c.4-1,1-2.45,1.68-4.13s1.58-3.71,2.56-5.8,2-4.36,3.06-6.57S39.47,205,40.52,203s2.09-4,3-5.62,1.65-3,2.15-3.92S46.5,192,46.5,192Z"/><path d="M40.14,189.47l-.63,1.35c-.46.82-1,2.05-1.84,3.47-1.52,2.87-3.65,6.62-5.9,10.32s-4.58,7.31-6.42,10c-.91,1.33-1.71,2.41-2.27,3.18S22.2,219,22.2,219s.24-.51.66-1.36,1-2.05,1.81-3.46c1.53-2.87,3.67-6.62,5.91-10.32s4.59-7.33,6.43-10c.9-1.36,1.72-2.45,2.26-3.22S40.14,189.47,40.14,189.47Z"/><path d="M34.07,182s-.36.41-1,1.1-1.65,1.68-2.88,2.81-2.6,2.5-4.13,3.89-3.19,2.86-4.86,4.31-3.38,2.91-5,4.2-3.12,2.52-4.42,3.57-2.45,1.82-3.2,2.41l-1.24.89s.38-.41,1.06-1.1,1.64-1.68,2.86-2.8,2.6-2.51,4.14-3.9,3.21-2.86,4.86-4.31,3.36-2.88,5-4.18,3.12-2.52,4.43-3.56,2.41-1.85,3.2-2.42S34.07,182,34.07,182Z"/><path d="M29.93,178.69a10.72,10.72,0,0,1-.88.71c-.57.42-1.39,1.06-2.41,1.76-2,1.42-4.73,3.2-7.51,4.91s-5.66,3.26-7.85,4.38c-1.08.58-2,1-2.68,1.3s-1,.48-1,.48.32-.27.89-.71,1.39-1.05,2.39-1.76c2-1.41,4.75-3.19,7.54-4.9s5.66-3.26,7.86-4.38c1.09-.57,2-1,2.66-1.31Z"/><path d="M97.3,187.8l1.06,1.6c.69,1,1.69,2.45,2.81,4.2s2.44,3.81,3.81,6.05,2.8,4.61,4.23,7,2.81,4.82,4.09,7.1,2.42,4.43,3.41,6.26,1.79,3.4,2.36,4.47.86,1.72.86,1.72l-1.09-1.58c-.65-1-1.66-2.44-2.79-4.22s-2.47-3.8-3.81-6-2.8-4.62-4.24-7-2.81-4.79-4.08-7.08-2.43-4.42-3.44-6.25-1.77-3.4-2.35-4.47S97.3,187.8,97.3,187.8Z"/><path d="M103.64,187.25l1.24,1c.74.69,1.86,1.63,3.15,2.82s2.78,2.53,4.33,4,3.23,3.14,4.9,4.76,3.25,3.28,4.73,4.86,2.87,3.12,4.06,4.35,2.11,2.4,2.79,3.16l1,1.22s-.46-.36-1.24-1-1.87-1.61-3.14-2.79-2.79-2.53-4.38-4-3.21-3.13-4.85-4.77-3.26-3.28-4.75-4.86-2.86-3.09-4.05-4.36-2.11-2.4-2.79-3.16Z"/><path d="M113,180.36s.68.08,1.87.31a47.68,47.68,0,0,1,4.85,1.11c1,.27,2.08.59,3.2.95s2.33.78,3.53,1.22,2.45.93,3.68,1.53,2.51,1.12,3.74,1.75,2.45,1.31,3.61,2,2.31,1.42,3.38,2.15a27.4,27.4,0,0,1,3,2.18,32.37,32.37,0,0,1,2.6,2.11c.79.68,1.48,1.32,2.1,1.89s1.09,1.14,1.5,1.57l1.29,1.39-1.47-1.19c-.45-.38-1-.83-1.65-1.38s-1.46-1-2.24-1.67a32.26,32.26,0,0,0-2.73-1.89c-1-.67-2-1.32-3.07-2s-2.22-1.34-3.4-2-2.36-1.32-3.56-1.93c-2.43-1.27-4.91-2.37-7.24-3.39-1.18-.46-2.32-1-3.42-1.42s-2.12-.82-3.08-1.17c-2-.68-3.54-1.25-4.71-1.59Z"/><path d="M115.51,175.39l1.63.06c1.06.07,2.56.12,4.33.28s3.85.3,6.08.53,4.6.49,7,.8,4.71.59,6.93.93,4.26.69,6,.95,3.22.63,4.25.81l1.62.34-1.65-.07c-1.05-.06-2.52-.11-4.31-.27s-3.87-.29-6.1-.55-4.58-.51-6.93-.77-4.73-.62-6.94-.94-4.28-.69-6-1-3.21-.59-4.25-.77Z"/><path class="cls-15" d="M44.56,140.92a74.5,74.5,0,0,1,14.51-3.76,86.11,86.11,0,0,1,31.24.29c17.23,3.27,31.56,10.18,13.26,25.52-15.77,12.42-22.19,17-34.74,13.63-9.55-2.53-39-18.29-32.46-29.61C37.93,144.35,41,142.38,44.56,140.92Z"/><path class="cls-23" d="M85,175.73s.07-8,5.85-11.62,6.86-8.51-1-6.68-10,5.4-8.27,10S85,175.73,85,175.73Z"/><path class="cls-23" d="M60.35,173.33s-2-6.41-7.84-8.58-4.25-4.64.37-4,7.84,8,9,13.32Z"/><g class="cls-7"><path class="cls-15" d="M93.89,138.21c8.24,2.37,17.82,5.94,16.18,9.1-2.82,5.48-23.32,5.86-28.33,11.14a15.16,15.16,0,0,1-20.89,1.19c-7.05-5.77-9.86-3.22-20.61-6.8-3.44-1.14-4.48-2.92-4.34-4.85-4.41,11.24,23.64,26.14,32.93,28.61,12.55,3.33,19-1.21,34.74-13.63C120.58,148.71,109.39,141.74,93.89,138.21Z"/></g><path class="cls-16" d="M101.15,143.73c-.27.62-1.94.64-3.72,0s-3-1.57-2.75-2.21,1.91-.64,3.71,0S101.4,143.11,101.15,143.73Z"/><path class="cls-16" d="M43.7,143.57S66,136.66,89.33,141.7C97.2,143.63,79,131.27,43.7,143.57Z"/><path class="cls-20" d="M497.3,159s71-51.26,98.6-40.42,62.13,30.56,89.75,53.25,2-10.84-38.46-35.49-53.24-31.57-72-27.61S461.78,172.85,497.3,159Z"/><path class="cls-20" d="M261.24,135.92s32.82-3.13,68.74,27.34c19.54,18,3.93-8.59-18.74-21.08S246.38,130.45,261.24,135.92Z"/><g class="cls-4"><path class="cls-5" d="M816.52,608.37c-34.21-9.77-55.85-52.34-46.76-115.16s17-82.11,14.19-144.92-32.11-67.46-37.22-85.14-27-53.5-31.18-52.11,20,34,20.48,48.87-9.32,20-34.9,61.4-47.91,60-33.49,78.62,39.1,40.36,53.57,54.83,27.32,28,25.4,28.94-5.8-.65-5.8,6.44c0,33.12-15.73,91-21.28,90.31s-4.21-5.59,4.18-51.65,9.76-61.4-4.9-59.29c-18,2.54-51.79-23.33-105.49-64.37s-76-51-66.36-82.49,26.47-59.84,19.18-62.51-21.09,5.35-47.17,28.37-50.26,35.31-65.22,53.69-17.28,33-28.79,39.9-35.28-5.35-25.3,3.09-16.9,11.9-31.85-4.61c-23.4-29.92-21.09-89.77-21.87-72.87-5,36.8,11.11,75.93,11.11,75.93,9.23,16.88,15.37,29.56,6.92,23.42-13.42-10.36-14.59-5.75-8.45,6.89s13.83,20.72,7.29,18-10.73,0-4.59,3.07,9.19,6.5,3.45,9.2-10.75,5.35-19.34,36.95c-9.92,36.54-30,113.73-36.92,109.3s4.45-43.81,8.87-100.92S302,425.59,271,400s-50.7-47.75-75.81-77.31S208.93,239,208.93,239s-4.45,3-18.24,27.58S188,327.42,171.2,318.06c-22.14-12.8-50.42-35.26-47.59-57.13-4.73,10.18-3.63,35.63,0,35.63s3.28-.34,22.56,11.3c20.74,12.35,28.73,20,40,35.26,23.64,28,50.57,48.75,70.94,56.4,13.11,9.1,33.9,21.82,42.27,44.15s5.93,73.63.71,109.91c-2.4,16.6-4.2,39.78-9.08,42.57a12,12,0,0,1-10,.76c.08.09.14.2.24.3,10.81,12.89-9.29,24.87-18.14,27.88s-28.65-.2-22.05-18.28a43.55,43.55,0,0,1,11.71-17.56,34.45,34.45,0,0,0-5.14-5.1c.77,1.6.58,3.52-1.49,5.7-7,7.36-12.82,15.82-13.18,24.32s-11.87,8.67-12.08-5.1C220.75,600.69,226,592.3,230,587c-5-2-9.36-.34-12.75,3.27a11.19,11.19,0,0,1,5.66-1.6c6.73.46-6.89,12.69-4.34,23.6,1.93,8.19-1.42,13-6.8,10.32,4.91,8.9,16.68,10.63,16.4,6.69,1.39,1,12.2,4.54,14,.69,4.18,2.79,24.08,5.94,41.17,4.89s31.41-6.26,32.46-15.34-.71-13.62,2.08-24.77,20.25-69.8,29.67-110.26,23.12-38.95,22.78-42-.34-7.08-.34-7.08l4.73,1.34c.31-4.69-6.42-12.77-6.42-12.77a27,27,0,0,0,7.42,4c-1-7.06-8.08-14.45-8.08-14.45s3,.31,10.78,3.35c-.68-9.75-7.16-17-7.16-17a145.73,145.73,0,0,0,21.87,2.78l-6.5-4.62c5.59,2.78,17.7.46,17.7.46l-3.75-3.27h14l-.46-2.33h9.77l-3.27-3.72c20,1.4,26.52-16.76,29.31-27.92s9.77-21.38,18.62-27.43,17.21-8.86,36.28-22.8,44.67-36.75,49.78-35.84-14,40.49-18.6,63.74,44.21,54.9,66.08,69.33,86.21,58.22,102.08,69.2,16.29,28.95,14.1,65.44c-2.88,33.09-17.68,49.32-17.68,49.32s-6.26-7.09-7.12-6.94-.16.68.67,8.27c-7.77-5.93-24.8-3.3-24.8-3.3l-.06,0c7.48,7.67,13.5,12.25,11,18.37-3.13,7.66-6.94,12.53-25.72,8s-10.08-25-10.08-25-3.49,3.83-5.78,11.6-5.68,18.31-11,5.71c-2.75-8.68,1.68-19.18,5.07-25.43a9.22,9.22,0,0,0-6.14-1c.88.7,1,2-.27,4.28-5.21,9.38-5.21,15.64-3.13,23.28,1.07,4-1.38,5.3-4.48,4.25,4.65,5.26,12.28,7.55,13.9,6,2.45,3.83,12.21,4.89,11.49,1.75,3.86,3.14,32.47,8.71,47.82,4.54s25.11-11.16,35.95-50.61a336.21,336.21,0,0,0,15.8-90.36s9.76,5.05,9.13,2.21-9.44-11-9.44-11,3.78-.33,6.29-.65,3.78,0-3.15-2.83-6.61-1.56-16.09-13.55c-12.6-12.63-61.16-62.54-61.16-68.47,0-7.39,17-43.31,36.27-67S741,271.32,741,271.32s18.52,13,28.12,33.68c11.48,25.89,11.84,87.7,8.52,109.91S766.22,477.81,762.14,517s14.81,79.57,44.77,94c29.8,14.35,86.71-10.48,94.23-28.21C883.56,601.54,845.32,616.61,816.52,608.37Z"/></g><path class="cls-20" d="M769.18,253.53s51,62.39,27.38,171.93C787.45,461.2,840.67,338,769.18,253.53Z"/><path class="cls-20" d="M237.65,238.43s-35.44,59,23.52,105.47c45.85,35.2.85,10.81-27.29-15.45S210.43,266.57,237.65,238.43Z"/><path class="cls-20" d="M611.34,248.73s-47.84,46.11-26.53,109.34C593,381,532.13,306.85,611.34,248.73Z"/></g></g></svg>