<svg xmlns="http://www.w3.org/2000/svg" viewBox="0 0 864.25 1100.67"><defs><style>.cls-1{isolation:isolate;}.cls-2{fill:#dc7a1f;}.cls-3{opacity:0.5;}.cls-21,.cls-3,.cls-6{mix-blend-mode:multiply;}.cls-4,.cls-8{fill:#fba31d;}.cls-5{fill:#ce7b0d;}.cls-7{fill:#e5880c;}.cls-19,.cls-22,.cls-8{mix-blend-mode:screen;}.cls-9{fill:#a55d07;}.cls-10{fill:#eb8c3c;}.cls-11,.cls-22{fill:#d36d22;}.cls-12{fill:#fcedd8;}.cls-13,.cls-21{fill:#fadbbf;}.cls-14{fill:#fff;}.cls-15,.cls-19{fill:#eb383b;}.cls-16{fill:#e2ad6d;}.cls-17{fill:#bf7008;}.cls-18{fill:#d32932;}.cls-20{fill:#eabc96;}.cls-23{fill:#ce6719;}</style></defs><g class="cls-1"><g id="Layer_1" data-name="Layer 1"><path class="cls-2" d="M269.91,1016s-5.86-29.31-16.87-35.14-15-9.54-5.11-18,20.15-11,27.83-1.08,11.36,36.61,11.36,36.61S284.92,1009.4,269.91,1016Z"/><g class="cls-3"><path class="cls-2" d="M282.25,976c2.09,19-7.52,29.17-9.32,20.71-2.19-10.18-3.63-17.39-19.58-27.21-4.3-2.59-5.15-5.24-4.14-7.71-.43.32-.87.68-1.28,1-9.9,8.42-5.86,12.09,5.11,18S269.91,1016,269.91,1016c15-6.55,17.21-17.57,17.21-17.57A166.61,166.61,0,0,0,282.25,976Z"/></g><path class="cls-4" d="M332.18,914.14s-17.21,39.2-18,73.62c31.88-21.6,46.53-29.66,78.06-19.76,18.28,5.47,22,14.3,8.39,16.85s-39.18,6.58-53.47,24.91c30.78-9.55,71.42-12.81,82.42,0s4,27.07-23.45,22-55.68-5.87-80.57,5.51-32.26,16.49-46.89,16.09-32.6.76-48.73,13.57c-11.34,9.51-18.69,4.4-11.72-11.38s25.65-32.57,51.64-41.36c12.1-5.51,15-9.54,15.77-26.75s7.31-57.89,16.49-76.58C311.3,907.19,325.21,905.36,332.18,914.14Z"/><g class="cls-3"><path class="cls-5" d="M225,1044.4a14,14,0,0,1,4-.27,19.46,19.46,0,0,1,4.1.81c.69.31,1.47.54,2.17.94a15.18,15.18,0,0,1,2.1,1.34,15,15,0,0,1,1.84,1.62,11.33,11.33,0,0,1,1.45,1.93,11.09,11.09,0,0,1,1.06,1.92,8.71,8.71,0,0,1,.67,1.88,6.64,6.64,0,0,1,.41,1.57c.09.5.13.9.17,1.25.05.72.09,1.08.09,1.08s-.15-.31-.45-1c-.13-.31-.26-.67-.44-1.11a9.64,9.64,0,0,0-.72-1.44,12,12,0,0,0-.89-1.61,15,15,0,0,0-1.15-1.66,15.4,15.4,0,0,0-1.43-1.61,14.49,14.49,0,0,0-1.68-1.44,11.44,11.44,0,0,0-1.84-1.21c-.63-.4-1.3-.67-1.92-1s-1.28-.53-1.93-.71-1.21-.4-1.75-.54A30.6,30.6,0,0,0,225,1044.4Z"/><path class="cls-5" d="M242.83,1027.73a9.8,9.8,0,0,1,1.79-.27,14.84,14.84,0,0,1,2.08,0,19.23,19.23,0,0,1,2.71.19,23.33,23.33,0,0,1,3.18.71,18.32,18.32,0,0,1,3.38,1.3,19.93,19.93,0,0,1,3.39,2,34,34,0,0,1,3.09,2.55,35.46,35.46,0,0,1,2.65,3,36.47,36.47,0,0,1,2.1,3.26c.56,1.13,1.12,2.2,1.62,3.23s.71,2.11,1.07,3c.13.45.32.9.44,1.34l.28,1.26c.15.76.31,1.48.44,2,.23,1.12.32,1.8.32,1.8l-.67-1.71c-.2-.49-.45-1.16-.72-1.92s-.63-1.52-1.05-2.43-.83-1.83-1.33-2.86-1.11-1.92-1.74-3-1.44-2-2.1-3-1.71-1.88-2.52-2.83a34.05,34.05,0,0,0-2.87-2.42,24.47,24.47,0,0,0-3.08-2,27.4,27.4,0,0,0-3.1-1.44,22.75,22.75,0,0,0-3-.94,23.08,23.08,0,0,0-4.61-.81C243.47,1027.73,242.83,1027.73,242.83,1027.73Z"/><path class="cls-5" d="M271.19,1012.85s.72.14,2,.5c.61.22,1.37.49,2.22.85a21.19,21.19,0,0,1,2.8,1.3c1,.49,2,1.21,3.14,1.88a36.36,36.36,0,0,1,3.25,2.51c.53.49,1.07.94,1.61,1.48s1,1,1.53,1.61c1.07,1.08,1.88,2.33,2.84,3.5s1.61,2.6,2.4,3.85,1.27,2.69,1.88,4,.89,2.66,1.3,3.86.58,2.47.85,3.59a15.78,15.78,0,0,1,.54,3c.09.94.18,1.7.27,2.37.09,1.3.13,2,.13,2s-.15-.72-.49-2c-.14-.63-.34-1.39-.54-2.29s-.54-1.84-.85-2.91-.67-2.2-1.12-3.36-1-2.42-1.53-3.68-1.27-2.46-1.92-3.76-1.53-2.46-2.36-3.67-1.67-2.38-2.68-3.41c-.48-.53-1-1.07-1.42-1.61s-1-1-1.47-1.43c-1-1-2-1.8-3-2.65s-1.95-1.48-2.89-2.06a38.31,38.31,0,0,0-4.64-2.65C271.86,1013.12,271.19,1012.85,271.19,1012.85Z"/><path class="cls-5" d="M282.28,1005.5a23.07,23.07,0,0,1,2.35-.44c.76,0,1.7-.14,2.78-.14h1.7c.58.05,1.22.14,1.88.22a17.32,17.32,0,0,1,2,.32,17.79,17.79,0,0,1,2.15.54c.77.27,1.49.49,2.24.76s1.48.72,2.25,1c.35.18.74.4,1.11.58s.72.45,1.08.67l2.15,1.48c.62.63,1.3,1.21,2,1.8a14.5,14.5,0,0,1,1.83,1.92,25.63,25.63,0,0,1,3.13,4.26,27.63,27.63,0,0,1,2.43,4.48,45.26,45.26,0,0,1,1.76,4.43c.43,1.44.81,2.79,1.2,4.08a20,20,0,0,1,.71,3.45c.18,1.08.31,2,.45,2.74.2,1.48.31,2.37.31,2.37s-.25-.85-.67-2.33c-.18-.71-.45-1.57-.72-2.59s-.58-2.16-1-3.37-.92-2.51-1.41-3.89-1.34-2.74-2-4.22a32.91,32.91,0,0,0-2.46-4.21,24.93,24.93,0,0,0-3-4,10.78,10.78,0,0,0-1.73-1.84c-.62-.54-1.21-1.12-1.84-1.7a30.21,30.21,0,0,0-4-2.69c-.72-.36-1.36-.81-2.06-1.12s-1.39-.54-2.06-.85a15.31,15.31,0,0,0-2-.63,10.52,10.52,0,0,0-1.93-.49c-.63-.14-1.21-.23-1.79-.31s-1.13-.14-1.66-.23a20.9,20.9,0,0,0-2.69-.13C283.15,1005.42,282.28,1005.5,282.28,1005.5Z"/><path class="cls-5" d="M317.21,986.28a13.1,13.1,0,0,1,2,1c.6.41,1.37.85,2.17,1.48a26.23,26.23,0,0,1,2.64,2.2,40.28,40.28,0,0,1,2.78,3,33.87,33.87,0,0,1,2.69,3.68c.85,1.3,1.61,2.78,2.38,4.26.6,1.52,1.38,3,1.87,4.65a36.78,36.78,0,0,1,1.4,4.8,45.94,45.94,0,0,1,.89,4.75c.19,1.57.36,3.1.45,4.48s.05,2.82.09,4.08c0,.58,0,1.21,0,1.79s-.09,1.08-.13,1.57c-.09,1-.14,1.92-.2,2.64-.16,1.44-.23,2.25-.23,2.25s0-.81-.11-2.25-.05-3.54-.31-6c-.14-1.21-.26-2.56-.38-3.94s-.48-2.83-.72-4.35-.69-3.05-1-4.62a42.06,42.06,0,0,0-1.39-4.61,43.5,43.5,0,0,0-1.77-4.53c-.74-1.43-1.36-2.86-2.15-4.16s-1.55-2.56-2.4-3.68a32.72,32.72,0,0,0-2.46-3.09c-.85-.85-1.59-1.7-2.33-2.38s-1.41-1.21-2-1.7C317.92,986.73,317.21,986.28,317.21,986.28Z"/><path class="cls-5" d="M336.65,973.78a6.25,6.25,0,0,1,1.53.13,11.18,11.18,0,0,1,1.77.32,19.11,19.11,0,0,1,2.22.67,18.79,18.79,0,0,1,2.55,1.08,20.17,20.17,0,0,1,2.65,1.61,24.66,24.66,0,0,1,2.57,2.06c.87.77,1.57,1.7,2.35,2.51s1.37,1.88,2,2.82,1.1,2,1.54,2.92.76,2,1.13,2.87.51,1.83.71,2.63a11.21,11.21,0,0,1,.43,2.3c.08.67.18,1.25.22,1.74.13,1,.18,1.52.18,1.52s-.2-.53-.5-1.43c-.15-.49-.31-1-.53-1.71a20,20,0,0,0-.77-2.1c-.31-.76-.62-1.61-1-2.51s-.85-1.7-1.28-2.6-1.09-1.79-1.59-2.73-1.25-1.75-1.9-2.6-1.37-1.66-2.17-2.38a23.63,23.63,0,0,0-2.34-2.06,26.63,26.63,0,0,0-2.35-1.7c-.83-.49-1.55-.94-2.3-1.3a22.3,22.3,0,0,0-3.65-1.61C337.19,973.91,336.65,973.78,336.65,973.78Z"/><path class="cls-5" d="M369.59,964.06a10.06,10.06,0,0,1,1.35.13,16.76,16.76,0,0,1,5.8,1.93,25.07,25.07,0,0,1,2.35,1.43,21,21,0,0,1,2.24,1.93c.76.71,1.35,1.57,2,2.33a30.55,30.55,0,0,1,1.63,2.6c.43.89.88,1.79,1.24,2.68s.58,1.75.82,2.61.34,1.65.48,2.41a11.62,11.62,0,0,1,.22,2c0,.59.05,1.12.07,1.57,0,.85,0,1.35,0,1.35s-.14-.45-.36-1.31c-.09-.4-.23-.89-.38-1.52a19.22,19.22,0,0,0-.56-1.92c-.23-.68-.5-1.44-.74-2.24s-.67-1.53-1-2.38-.87-1.61-1.28-2.47-1.05-1.56-1.56-2.37-1.15-1.52-1.82-2.15c-.34-.36-.67-.67-1-1a12.26,12.26,0,0,0-1-.89c-.68-.63-1.4-1.08-2-1.62s-1.36-.84-2-1.16a24.43,24.43,0,0,0-3.2-1.52C370.06,964.19,369.59,964.06,369.59,964.06Z"/><path class="cls-5" d="M361.84,1005.73a10.13,10.13,0,0,1,2.82,2.64c.32.49.71,1,1,1.57a12.22,12.22,0,0,1,.94,1.88,18.25,18.25,0,0,1,.72,2.2,21,21,0,0,1,.47,2.29c.05.75.16,1.52.16,2.33a18.07,18.07,0,0,1-.09,2.23c-.1.72-.18,1.44-.27,2.07s-.31,1.25-.45,1.84a18.57,18.57,0,0,1-.94,2.59c-.26.63-.4,1-.4,1s0-.4,0-1.07.25-1.58.27-2.7c.05-.58.09-1.16.16-1.79s0-1.35,0-2,0-1.38,0-2.1-.16-1.43-.23-2.15a17.86,17.86,0,0,0-.36-2.11,15.17,15.17,0,0,0-.54-2.06,17.29,17.29,0,0,0-.63-1.84c-.22-.58-.49-1.12-.71-1.61A18.48,18.48,0,0,0,361.84,1005.73Z"/><path class="cls-5" d="M383.66,1002.14a9.94,9.94,0,0,1,1,.72,13.18,13.18,0,0,1,2.36,2.38,16.58,16.58,0,0,1,2.41,4.12,18.41,18.41,0,0,1,.91,2.56c.17.89.48,1.78.57,2.68a22.68,22.68,0,0,1,.3,2.78,20.12,20.12,0,0,1,0,2.69,28.6,28.6,0,0,1-.58,4.66,25.77,25.77,0,0,1-.88,3.23,9.69,9.69,0,0,1-.4,1.16s0-.45.08-1.25.17-1.89.19-3.23c0-.72,0-1.43.09-2.2s-.05-1.57-.05-2.37-.13-1.71-.16-2.6a23.78,23.78,0,0,0-.31-2.56c-.07-.89-.34-1.74-.49-2.59s-.43-1.61-.7-2.43-.53-1.52-.85-2.19-.67-1.3-.94-1.92-.62-1.08-.94-1.53-.61-.85-.86-1.17Z"/><path class="cls-5" d="M406.88,1001.34a10.85,10.85,0,0,1,1.07,1,19.24,19.24,0,0,1,2.33,2.95,24.51,24.51,0,0,1,1.29,2.24,18.6,18.6,0,0,1,1.08,2.6,20,20,0,0,1,.84,3c.26,1,.29,2.1.46,3.13s.05,2.11.05,3.19-.2,2.05-.31,3-.43,1.88-.63,2.78-.54,1.66-.79,2.38a11.81,11.81,0,0,1-.83,2c-.26.54-.51,1-.72,1.44-.4.8-.66,1.25-.66,1.25a12.37,12.37,0,0,1,.35-1.39c.12-.4.27-.94.41-1.57a18.21,18.21,0,0,0,.46-2c.16-.77.37-1.57.48-2.38s.22-1.79.38-2.73.11-1.88.15-2.91,0-2-.1-3a21.44,21.44,0,0,0-.39-2.91,28.73,28.73,0,0,0-.62-2.83c-.23-.94-.56-1.75-.81-2.6s-.6-1.57-1-2.23a24.25,24.25,0,0,0-1.72-3.23C407.19,1001.78,406.88,1001.34,406.88,1001.34Z"/><path class="cls-5" d="M265.41,999.37A19.65,19.65,0,0,1,267,995.7a16.87,16.87,0,0,1,1-1.71c.4-.54.79-1.17,1.3-1.75a13.81,13.81,0,0,1,1.59-1.75,16.14,16.14,0,0,1,1.86-1.65c.65-.5,1.39-.9,2.06-1.35a22.82,22.82,0,0,1,2.25-.94,13.67,13.67,0,0,1,2.19-.53,16,16,0,0,1,2-.1c.62.1,1.16.14,1.66.18s.89.32,1.25.4l1,.36h-1.1a11.36,11.36,0,0,0-1.23,0l-1.57.13a14.18,14.18,0,0,0-1.79.36,20.17,20.17,0,0,0-1.93.67c-.67.28-1.25.72-1.93,1a14.09,14.09,0,0,0-1.85,1.26,15,15,0,0,0-1.75,1.43c-.56.54-1.1,1-1.59,1.57-1,1-1.91,2.06-2.65,3C266.37,998.07,265.41,999.37,265.41,999.37Z"/><path class="cls-5" d="M255.31,981.94s.06-.49.24-1.35.54-2,1.08-3.36a25.76,25.76,0,0,1,2.19-4.48,24.71,24.71,0,0,1,1.61-2.37c.56-.81,1.31-1.48,2-2.25s1.47-1.34,2.28-1.92a19,19,0,0,1,2.49-1.48,14.42,14.42,0,0,1,2.53-.94,9.14,9.14,0,0,1,2.37-.45c.74,0,1.42-.09,2-.09s1.12.13,1.54.18c.86.13,1.3.22,1.3.22a12.12,12.12,0,0,1-1.32.14l-1.5.13c-.55.09-1.17.27-1.86.41a12.36,12.36,0,0,0-2.13.71,13.87,13.87,0,0,0-2.24,1.08,17.21,17.21,0,0,0-2.19,1.48c-.72.53-1.39,1.21-2.06,1.79s-1.3,1.3-1.86,2.06-1.14,1.43-1.64,2.15a40.69,40.69,0,0,0-2.6,4.08c-.67,1.25-1.3,2.28-1.63,3.05S255.31,981.94,255.31,981.94Z"/><path class="cls-5" d="M285.53,992.15s.42.22,1.21.54,1.86.71,3.18,1.17c.68.17,1.39.39,2.15.58a21.33,21.33,0,0,0,2.42.58c.85.18,1.75.22,2.64.36a17.31,17.31,0,0,0,2.69.08h1.37c.45,0,.87-.13,1.32-.17a15.3,15.3,0,0,0,2.58-.5,17.92,17.92,0,0,0,2.35-.71,15,15,0,0,0,2-.9c.6-.36,1.23-.58,1.7-.85s.92-.63,1.24-.81c.71-.44,1.11-.67,1.11-.67l-.89.94c-.29.27-.68.63-1.07,1A9.15,9.15,0,0,1,310,994a9.8,9.8,0,0,0-.95.68,11.86,11.86,0,0,1-1.07.53,13.07,13.07,0,0,1-2.44,1,11.3,11.3,0,0,1-2.76.71c-.49,0-1,.13-1.46.18l-1.45.05a21.94,21.94,0,0,1-2.94-.14,22.69,22.69,0,0,1-2.75-.54,26.08,26.08,0,0,1-4.66-1.75A20.69,20.69,0,0,1,285.53,992.15Z"/><path class="cls-5" d="M287.73,967l1.07.75a20,20,0,0,0,2.89,1.75,17.31,17.31,0,0,0,2,1c.71.36,1.52.63,2.3.94a14.46,14.46,0,0,0,2.56.72c.42.13.87.27,1.3.36l1.39.13a13.52,13.52,0,0,0,2.69.23c.89,0,1.78-.09,2.64-.14s1.66-.22,2.46-.31,1.51-.4,2.2-.53a9.94,9.94,0,0,0,1.83-.54,14.15,14.15,0,0,0,1.42-.5c.79-.26,1.27-.4,1.27-.4s-.4.27-1.12.72l-1.29.8c-.5.31-1.13.59-1.77.9a22,22,0,0,1-2.23.8c-.8.18-1.65.5-2.57.63a25.8,25.8,0,0,1-2.84.27c-1,0-2,0-2.92-.13l-1.48-.23-1.43-.4a17.54,17.54,0,0,1-2.67-.94,19.62,19.62,0,0,1-4.3-2.55,16.13,16.13,0,0,1-2.58-2.38A7.6,7.6,0,0,1,287.73,967Z"/><path class="cls-5" d="M295.66,927.94s.44.23,1.25.62,1.88.91,3.22,1.58c.7.22,1.42.58,2.2.89s1.62.59,2.51.9,1.77.49,2.7.76a24,24,0,0,0,2.81.62,27,27,0,0,0,2.85.32,18.13,18.13,0,0,0,2.75,0,15.27,15.27,0,0,0,2.6-.26,17.2,17.2,0,0,0,2.29-.45c.69-.27,1.35-.4,1.93-.58s1-.45,1.43-.63c.8-.32,1.28-.49,1.28-.49s-.41.31-1.12.8L323,933a18.48,18.48,0,0,1-1.89.94,14.08,14.08,0,0,1-2.33.81,16.7,16.7,0,0,1-2.73.53,16.49,16.49,0,0,1-3,.1,26.93,26.93,0,0,1-3.06-.27,28.4,28.4,0,0,1-5.74-1.71,18.58,18.58,0,0,1-2.5-1.16c-.79-.36-1.48-.85-2.13-1.17a33.22,33.22,0,0,1-3-2.19A10.8,10.8,0,0,1,295.66,927.94Z"/></g><g class="cls-6"><path class="cls-7" d="M393.56,979.25c-23.85.45-46.87,15.54-46.37,30.51,14.29-18.33,39.92-22.36,53.47-24.91,9.11-1.75,10.45-6.27,4.82-10.71C404.25,977,400.82,979.11,393.56,979.25Z"/><path class="cls-7" d="M433,1014.82c-.18,2.38-2.07,4.08-6.86,4.36-17.43.89-62.4-8.25-93.59,5.5s-58.27,19.27-76.15,20.17c-15.82.85-35.21,28.54-40.13,16.17-3,11.3,3.79,14.17,13.7,5.87,16.13-12.81,34.08-13.93,48.73-13.57s22-4.75,46.89-16.09,53.1-10.62,80.57-5.51C430,1036.2,438.42,1026,433,1014.82Z"/></g><g class="cls-3"><path class="cls-4" d="M429.61,1009.76c-11-12.81-51.64-9.55-82.42,0,14.29-18.33,39.92-22.36,53.47-24.91s9.89-11.38-8.39-16.85c-31.53-9.9-46.18-1.84-78.06,19.76.76-34.42,18-73.62,18-73.62-7-8.78-20.88-6.95-30-3.32-4.93,10.08-9.11,26.44-12,42.13h.09s7.21-33.12,19.94-31.42-.23,25.72-3.54,51.26c-3.58,27.56-19,37.64-21.11,17.62-.94,14.69-4.23,18.55-15.59,23.74a105.23,105.23,0,0,0-15.79,6.77c6.16-2.78,14.09-5.6,18.44-4,7.75,3,1,10-18.11,19.41-17.38,8.55-31.81,26.74-34.72,16.22-.55,1-1,2-1.46,3-7,15.78.38,20.89,11.72,11.38,16.13-12.81,34.08-13.93,48.73-13.57s22-4.75,46.89-16.09,53.1-10.62,80.57-5.51S440.62,1022.58,429.61,1009.76Z"/></g><path class="cls-8" d="M260.35,1020.78a109.85,109.85,0,0,0-36.7,29.58C219.79,1055.38,232.81,1027,260.35,1020.78Z"/><path class="cls-4" d="M528.84,940.75s12.24,41,31.69,75c16.31,28.22,14.11,28.68-1.35,39.74s-31.77,35.31-25.13,43.69c5.72,7.48,24.71-15.91,50.74-17.65s29.12-4,38.82-7.53,20.3,1.79,39.3,3.54,69.33.9,90.05-1.3,28.25-7.53,22.51-17.21-8.82-9.77-35.31-10.21-68.42-6.15-68.42-6.15,22.94-14.56,38-12.36,38,6.64,39.72-1.34-10.6-17.66-43.69-28.24-41.5,0-64,11.48c12.37-17.66,22.09-28.68,16.35-34.86s-21.19,4-39.29,19.4-28.26,20.34-28.26,20.34-16.78-57.4-20.74-81.68C561.4,933.67,540.45,926.24,528.84,940.75Z"/><g class="cls-3"><path class="cls-5" d="M547.13,1067.34a9,9,0,0,1,1.3-.23,15.86,15.86,0,0,1,3.49.1,15.46,15.46,0,0,1,2.33.53l1.23.41c.43.17.83.41,1.23.58a16.81,16.81,0,0,1,2.47,1.48,21.46,21.46,0,0,1,2.24,1.88,20.54,20.54,0,0,1,1.93,2.24,15.53,15.53,0,0,1,1.56,2.33c.46.81.9,1.53,1.24,2.29s.6,1.52.85,2.19a10.38,10.38,0,0,1,.6,1.88c.14.59.28,1.08.37,1.49.17.8.26,1.25.26,1.25s-.22-.4-.58-1.17-.85-1.84-1.57-3c-.36-.63-.71-1.26-1.1-2s-.91-1.35-1.37-2.07-1.07-1.39-1.61-2.15a16.61,16.61,0,0,0-1.84-2,22.85,22.85,0,0,0-2-1.8,25.37,25.37,0,0,0-2.17-1.43c-.38-.22-.74-.45-1.1-.63l-1.08-.54c-.71-.31-1.43-.53-2.08-.75s-1.28-.36-1.84-.5a13.23,13.23,0,0,0-1.45-.23Z"/><path class="cls-5" d="M564.51,1051.79a17.73,17.73,0,0,1,1.86.14,30.47,30.47,0,0,1,4.77.89,28.66,28.66,0,0,1,6.46,2.65,12.28,12.28,0,0,1,1.65,1,12.09,12.09,0,0,1,1.66,1.17,21.73,21.73,0,0,1,3,2.77c.44.54,1,1,1.34,1.57s.77,1.17,1.16,1.7l.56.85c.16.32.3.63.43.9.27.63.53,1.21.81,1.79a23.63,23.63,0,0,1,1.12,3.54,15.85,15.85,0,0,1,.53,3.23,13.48,13.48,0,0,1,.14,2.77c0,.82-.09,1.53-.09,2.16-.09,1.17-.13,1.84-.13,1.84l-.23-1.84c0-.63-.13-1.3-.22-2.11a17,17,0,0,0-.5-2.64,16.37,16.37,0,0,0-.76-3c-.2-.54-.4-1.07-.58-1.61a8.35,8.35,0,0,0-.7-1.66,20.16,20.16,0,0,0-1.81-3.23c-.36-.53-.72-1.07-1.1-1.57a14.7,14.7,0,0,0-1.27-1.43,20.85,20.85,0,0,0-2.79-2.69c-1-.76-2-1.48-3-2.15a26.24,26.24,0,0,0-3.07-1.7,25.7,25.7,0,0,0-2.91-1.3,39.15,39.15,0,0,0-4.53-1.57C565.18,1051.93,564.51,1051.79,564.51,1051.79Z"/><path class="cls-5" d="M564.47,1023s.44.09,1.21.18a27.62,27.62,0,0,0,3.12.22,41.24,41.24,0,0,0,4.36-.22c.76-.05,1.57-.23,2.42-.36a22.78,22.78,0,0,0,2.42-.54c.83-.23,1.61-.5,2.42-.76s1.52-.58,2.26-.9,1.41-.67,2.09-1,1.26-.67,1.81-1,1.1-.58,1.55-.9.82-.53,1.14-.72l1-.62-.81.89a26.28,26.28,0,0,1-2.35,2.2,19.54,19.54,0,0,1-1.71,1.3c-.64.36-1.34.81-2,1.21s-1.53.81-2.38,1.12-1.66.63-2.53.85-1.75.41-2.62.54-1.74.18-2.6.23-1.66,0-2.42,0a17.1,17.1,0,0,1-2.15-.31,22.93,22.93,0,0,1-3.09-.85A6.7,6.7,0,0,1,564.47,1023Z"/><path class="cls-5" d="M552.35,1001.2l1.45.14c.9.08,2.24.13,3.82.13s3.35-.05,5.31-.18c1-.13,1.94-.18,3-.36a22.76,22.76,0,0,0,3-.53c1-.19,2-.45,3-.72s1.93-.58,2.87-.85,1.78-.72,2.6-1a19,19,0,0,0,2.29-1c.71-.32,1.39-.59,2-.9l1.45-.8c.81-.46,1.3-.72,1.3-.72l-1.12,1c-.35.32-.78.68-1.27,1.08s-1.15.81-1.77,1.25A20.92,20.92,0,0,1,578,999c-.85.4-1.67.89-2.64,1.25a27.78,27.78,0,0,1-2.91,1.08c-1,.27-2.06.63-3.14.8s-2.1.36-3.18.5-2.08.13-3.09.22a40.12,40.12,0,0,1-5.47-.36,25.17,25.17,0,0,1-3.78-.84C552.84,1001.38,552.35,1001.2,552.35,1001.2Z"/><path class="cls-5" d="M541.53,976.92s.58.13,1.63.31,2.51.4,4.28.72,3.83.45,6,.58c1.1.09,2.24.13,3.41.13a29.44,29.44,0,0,0,3.51,0c1.19,0,2.33-.18,3.47-.32a31.78,31.78,0,0,0,3.32-.58c1.08-.31,2.11-.49,3-.85s1.83-.67,2.64-1,1.48-.8,2.15-1.12a15.7,15.7,0,0,0,1.53-1.07l1.38-.95s-.39.45-1.16,1.21a10.61,10.61,0,0,1-1.39,1.35c-.58.45-1.25.94-2,1.48a28.43,28.43,0,0,1-2.65,1.34,20.81,20.81,0,0,1-3.14,1.17c-1.12.31-2.28.54-3.44.76s-2.45.31-3.68.36a31.4,31.4,0,0,1-3.63,0,23.36,23.36,0,0,1-3.5-.31c-1.16-.1-2.24-.32-3.25-.5s-2-.45-2.86-.63a41.94,41.94,0,0,1-4.19-1.38A15,15,0,0,1,541.53,976.92Z"/><path class="cls-5" d="M532.7,953.53l1.74.62c1.08.4,2.69.81,4.62,1.31,1,.22,2,.49,3.14.67s2.28.4,3.49.58,2.51.22,3.77.31a36.05,36.05,0,0,0,3.89,0,27.29,27.29,0,0,0,3.86-.4l1.88-.27c.61-.18,1.21-.31,1.79-.45s1.17-.31,1.75-.49,1.08-.4,1.62-.58,1-.41,1.51-.59a12.05,12.05,0,0,0,1.4-.67c.85-.45,1.7-.81,2.39-1.21s1.28-.85,1.77-1.16c1-.63,1.55-1,1.55-1s-.47.45-1.37,1.25c-.43.41-1,.9-1.57,1.44s-1.43,1-2.28,1.57c-.45.27-.9.58-1.35.85s-1,.45-1.55.72-1.09.49-1.65.76-1.18.36-1.77.58-1.25.4-1.88.58-1.3.27-2,.36a25,25,0,0,1-4.06.45,32.16,32.16,0,0,1-4,0,35.75,35.75,0,0,1-3.9-.5,43.25,43.25,0,0,1-6.7-1.79A30.72,30.72,0,0,1,532.7,953.53Z"/><path class="cls-5" d="M572.27,1040.77s.44.09,1.16.18a27.16,27.16,0,0,0,3,.36c1.25.09,2.69.13,4.23.13.76,0,1.55-.09,2.36-.09a20.82,20.82,0,0,0,2.37-.35,14.58,14.58,0,0,0,2.38-.5,18.86,18.86,0,0,0,2.24-.72,13.48,13.48,0,0,0,2-.85,8.81,8.81,0,0,0,1.76-.9c.53-.31,1.05-.53,1.47-.84s.76-.54,1.07-.77l1-.67s-.27.36-.76.94c-.23.28-.54.63-.89,1s-.81.76-1.3,1.21c-.25.18-.5.4-.77.63a31.45,31.45,0,0,1-3,1.7,13.3,13.3,0,0,1-2.37.94,22.9,22.9,0,0,1-2.51.58,22.5,22.5,0,0,1-2.6.31c-.83,0-1.69,0-2.49,0a20.06,20.06,0,0,1-4.34-.71A16.54,16.54,0,0,1,572.27,1040.77Z"/><path class="cls-5" d="M592.58,1039.88a14.27,14.27,0,0,1,2,.57c.62.23,1.37.5,2.24.86s1.79.76,2.78,1.3,2.08,1.12,3.18,1.84,2.22,1.52,3.36,2.37a32.91,32.91,0,0,1,3.27,2.91c.54.59,1.06,1.12,1.57,1.66s1,1.21,1.48,1.79A30,30,0,0,1,615,1057a25.65,25.65,0,0,1,2,3.94,24.38,24.38,0,0,1,1.4,3.85,21.3,21.3,0,0,1,.85,3.58,22.69,22.69,0,0,1,.5,3c0,.94.08,1.74.13,2.37,0,1.35,0,2.11,0,2.11s-.13-.76-.4-2c-.14-.68-.27-1.44-.43-2.33s-.56-1.84-.81-3a20,20,0,0,0-1.11-3.36c-.25-.59-.48-1.21-.74-1.8-.14-.31-.23-.63-.36-.94l-.5-.9a32.39,32.39,0,0,0-2.06-3.71,31.14,31.14,0,0,0-2.46-3.54c-.47-.59-.9-1.17-1.39-1.75s-1-1-1.48-1.57c-.94-1.07-2.06-2-3-2.91s-2.07-1.79-3.1-2.51-2-1.48-2.95-2.06c-1.88-1.16-3.5-2.11-4.67-2.69S592.58,1039.88,592.58,1039.88Z"/><path class="cls-5" d="M625,1020.78a25.84,25.84,0,0,1,2.91.77c.93.31,2,.72,3.28,1.25l1.92.9c.7.31,1.37.72,2.11,1.12a44.89,44.89,0,0,1,4.48,3,39.41,39.41,0,0,1,4.5,3.94c.69.81,1.51,1.53,2.17,2.33s1.33,1.75,2,2.6a21.69,21.69,0,0,1,1.81,2.78l1.71,2.87c.85,2.11,1.85,4.07,2.55,6.19.31,1,.61,2,.9,3.13a18.59,18.59,0,0,1,.75,3c.32,2,.64,4.07.93,6,.06,1.88.11,3.67.2,5.33,0,.8,0,1.61,0,2.37s-.13,1.48-.18,2.11c-.08,1.34-.22,2.55-.31,3.5-.18,1.88-.27,3-.27,3s0-1.11-.07-3v-3.5c0-.63,0-1.34,0-2.11s-.13-1.52-.2-2.32c-.16-1.62-.32-3.41-.47-5.25-.36-1.84-.76-3.76-1.17-5.74s-1.16-3.94-1.74-6-1.66-3.94-2.51-5.91l-1.62-2.78a19.47,19.47,0,0,0-1.72-2.69c-.61-.85-1.23-1.66-1.86-2.51a25.51,25.51,0,0,0-2-2.28,51.53,51.53,0,0,0-4.19-4.08c-1.48-1.12-2.8-2.29-4.21-3.14s-2.64-1.61-3.81-2.29-2.2-1.11-3.09-1.52-1.57-.67-2-.85A4.73,4.73,0,0,0,625,1020.78Z"/><path class="cls-5" d="M609.05,1004.88a14.6,14.6,0,0,1,3.94.49,16.16,16.16,0,0,1,1.84.58c.68.22,1.3.54,2,.85s1.35.72,2,1.17a20.61,20.61,0,0,1,1.93,1.48,12.06,12.06,0,0,1,1.73,1.7,11.5,11.5,0,0,1,1.43,1.84,10.25,10.25,0,0,1,1.1,1.88,9.59,9.59,0,0,1,.78,1.75,14.7,14.7,0,0,1,.5,1.57c.09.45.17.89.24,1.21.11.67.18,1.07.18,1.07l-.51-.94c-.14-.31-.34-.71-.54-1.12s-.52-.85-.81-1.35a12.44,12.44,0,0,0-1-1.56c-.37-.49-.72-1.08-1.2-1.61a15.6,15.6,0,0,0-1.44-1.62,17.92,17.92,0,0,0-1.61-1.52,35.64,35.64,0,0,0-3.54-2.6c-.63-.31-1.21-.67-1.79-1s-1.12-.58-1.64-.8A32.18,32.18,0,0,0,609.05,1004.88Z"/><path class="cls-5" d="M624.38,991.35a6,6,0,0,1,1.3-.32c.44,0,1-.09,1.57-.13a7.79,7.79,0,0,1,2,0,12.16,12.16,0,0,1,2.4.31,15.77,15.77,0,0,1,2.63.81c.42.22.85.45,1.3.67s.84.54,1.27.81a19.45,19.45,0,0,1,2.31,2.06,22.6,22.6,0,0,1,1.7,2.55,15.67,15.67,0,0,1,1.17,2.69,26,26,0,0,1,.69,2.65c.12.84.2,1.65.27,2.37a9.33,9.33,0,0,1,.05,2c0,.62-.08,1.16-.08,1.56,0,.9-.1,1.35-.1,1.35s-.12-.45-.25-1.3-.23-2.06-.62-3.45c-.19-.72-.37-1.48-.54-2.24s-.59-1.57-.86-2.42a24.12,24.12,0,0,0-1.2-2.38,18.59,18.59,0,0,0-1.57-2.23,12.55,12.55,0,0,0-2-1.84c-.39-.28-.72-.59-1.08-.81s-.79-.4-1.17-.63a17,17,0,0,0-2.28-1c-.78-.23-1.52-.45-2.22-.59a13.54,13.54,0,0,0-1.9-.36c-.61,0-1.13-.13-1.53-.13C624.87,991.35,624.38,991.35,624.38,991.35Z"/><path class="cls-5" d="M642.3,979.87a3.93,3.93,0,0,1,.9-.31,8.49,8.49,0,0,1,2.44,0,8.11,8.11,0,0,1,1.61.41,10.2,10.2,0,0,1,1.68.85,8.76,8.76,0,0,1,1.55,1.25l.72.77.6.8a17,17,0,0,1,1,1.75,9.15,9.15,0,0,1,.76,1.79,16.74,16.74,0,0,1,.85,3.32c.09.45.09.94.16,1.3s0,.76.07,1.07v.9s-.14-.32-.36-.85c-.09-.27-.22-.58-.36-.94s-.27-.81-.49-1.25-.4-.9-.59-1.4a12.34,12.34,0,0,0-.71-1.52,13.73,13.73,0,0,0-.83-1.62,11.71,11.71,0,0,0-1-1.52l-.52-.76-.61-.63A7.64,7.64,0,0,0,648,982a12.52,12.52,0,0,0-1.35-.89,7,7,0,0,0-1.3-.63A9.94,9.94,0,0,0,642.3,979.87Z"/><path class="cls-5" d="M645,1010.17a12.91,12.91,0,0,1,2,.08c.63,0,1.39.14,2.28.23s1.89.27,2.94.54a16.79,16.79,0,0,0,1.66.44c.56.19,1.14.36,1.75.59a27.58,27.58,0,0,1,3.69,1.48c.63.31,1.21.62,1.84,1a11.73,11.73,0,0,1,1.86,1.08c.61.45,1.21.85,1.81,1.25s1.15,1,1.71,1.44a29.84,29.84,0,0,1,3.13,3.13l.72.81.63.9c.4.58.8,1.16,1.21,1.7a30.52,30.52,0,0,1,1.88,3.54,19.14,19.14,0,0,1,1.32,3.27,19.61,19.61,0,0,1,.88,2.87c.15.85.31,1.65.44,2.23.23,1.26.32,2,.32,2s-.22-.68-.67-1.88c-.21-.59-.45-1.31-.72-2.11a27.73,27.73,0,0,0-1.16-2.73,19.07,19.07,0,0,0-1.55-3c-.31-.54-.65-1.07-1-1.61a15.73,15.73,0,0,0-1.08-1.62,39,39,0,0,0-2.55-3.18,27.55,27.55,0,0,0-3-2.91c-.52-.44-1-.94-1.58-1.39L662,1017c-1.1-.81-2.35-1.43-3.47-2.11s-2.29-1.25-3.45-1.69l-1.64-.68c-.55-.18-1.05-.36-1.57-.58-1-.31-2-.58-2.8-.86s-1.57-.39-2.19-.53C645.69,1010.3,645,1010.17,645,1010.17Z"/><path class="cls-5" d="M685.59,996.32s.63.22,1.68.67a46.81,46.81,0,0,1,4.28,2.24,28,28,0,0,1,2.68,1.84,23,23,0,0,1,2.81,2.29c1,.8,1.81,1.78,2.75,2.73s1.73,2.06,2.44,3.22a23,23,0,0,1,2,3.5c.27.63.54,1.21.85,1.79s.36,1.25.56,1.88a17.66,17.66,0,0,1,.51,1.8c.1.58.19,1.21.27,1.74s.19,1.12.27,1.71v1.56c0,1,0,1.93-.11,2.74s-.24,1.48-.36,2.06c-.19,1.16-.33,1.79-.33,1.79s0-.67,0-1.84c0-.53,0-1.25,0-2s-.18-1.71-.27-2.69c0-.49-.09-1-.15-1.48l-.39-1.62c-.13-.49-.25-1.06-.38-1.6s-.38-1.08-.55-1.66-.43-1.17-.63-1.71-.59-1.12-.86-1.7a23.91,23.91,0,0,0-1.92-3.27,33.42,33.42,0,0,0-2.29-3.09c-.87-.9-1.61-1.93-2.51-2.74s-1.7-1.65-2.57-2.37-1.68-1.39-2.42-2c-1.57-1.21-2.89-2.15-3.88-2.77Z"/><path class="cls-5" d="M723.55,1006.94a7.25,7.25,0,0,1,1.11.54,12.73,12.73,0,0,1,2.69,2,13.87,13.87,0,0,1,1.52,1.61,18.25,18.25,0,0,1,2.51,4.62,26.4,26.4,0,0,1,.72,2.68c.07.95.25,1.88.23,2.78a16.62,16.62,0,0,1-.19,2.69,20.44,20.44,0,0,1-.45,2.47c-.22.75-.44,1.47-.66,2.1a10.1,10.1,0,0,1-.7,1.75c-.25.49-.47.94-.63,1.3l-.58,1.08s.07-.45.25-1.21a26,26,0,0,0,.67-3.14c.13-.67.22-1.39.38-2.11s.11-1.52.2-2.37,0-1.66,0-2.51a24.94,24.94,0,0,0-.27-2.51,20.28,20.28,0,0,0-.58-2.47,11.9,11.9,0,0,0-.9-2.28,17.37,17.37,0,0,0-1.07-2.11,17.13,17.13,0,0,0-1.21-1.7,20.53,20.53,0,0,0-2.13-2.38C723.9,1007.21,723.55,1006.94,723.55,1006.94Z"/><path class="cls-5" d="M677.64,1043.73a8.56,8.56,0,0,1,1.27,1,21.91,21.91,0,0,1,2.91,3.14,24.37,24.37,0,0,1,1.66,2.42c.47.94,1.06,1.88,1.46,2.91a20.15,20.15,0,0,1,1.14,3.31,22.8,22.8,0,0,1,.74,3.55,30.56,30.56,0,0,1,.2,3.58c0,1.21-.16,2.38-.27,3.49s-.45,2.2-.65,3.19a21.13,21.13,0,0,1-.92,2.72,9.27,9.27,0,0,1-.94,2.29c-.32.63-.58,1.21-.82,1.66-.47.94-.79,1.44-.79,1.44s.16-.59.45-1.57c.18-.49.36-1.08.58-1.79s.36-1.44.58-2.29.45-1.75.59-2.73.27-2,.4-3.1.07-2.19.09-3.27-.05-2.28-.25-3.4a24.9,24.9,0,0,0-.63-3.36c-.15-.54-.24-1.08-.42-1.57s-.36-1.08-.54-1.57a24.18,24.18,0,0,0-1.16-2.87c-.47-.85-.86-1.74-1.32-2.46a28.37,28.37,0,0,0-2.36-3.5C678,1044.13,677.64,1043.73,677.64,1043.73Z"/><path class="cls-5" d="M705.57,1046.37a8.63,8.63,0,0,1,1.21.85,18.42,18.42,0,0,1,2.82,2.69,15.81,15.81,0,0,1,1.62,2.11,23.73,23.73,0,0,1,1.48,2.55,20.67,20.67,0,0,1,1.23,2.91,24.33,24.33,0,0,1,.87,3.14c.21,1.07.32,2.2.45,3.23s0,2.15,0,3.18-.22,2-.31,2.91-.4,1.75-.58,2.55a14.6,14.6,0,0,1-.6,2.11c-.23.63-.43,1.16-.61,1.61l-.53,1.35s0-.54.19-1.44c.1-.44.2-1,.29-1.65s.18-1.35.27-2.15.2-1.62.25-2.51,0-1.84.07-2.83-.14-2-.18-3-.27-2-.5-3a17.61,17.61,0,0,0-.76-3c-.13-.49-.29-1-.44-1.43s-.39-.94-.54-1.39c-.36-.9-.83-1.7-1.21-2.51s-.83-1.53-1.3-2.15a27.2,27.2,0,0,0-2.24-3.1A9.78,9.78,0,0,0,705.57,1046.37Z"/><path class="cls-5" d="M731.47,1049a8.32,8.32,0,0,1,1.12.71,18.1,18.1,0,0,1,2.56,2.47,19.17,19.17,0,0,1,1.43,1.92,23.26,23.26,0,0,1,1.26,2.38,17.89,17.89,0,0,1,1,2.69c.27.94.45,1.92.63,2.91a26.59,26.59,0,0,1,.2,3c0,1,0,1.92-.15,2.87s-.32,1.79-.45,2.59-.46,1.57-.68,2.29a14,14,0,0,1-.69,1.88c-.25.54-.45,1-.6,1.39-.37.76-.59,1.17-.59,1.17s.07-.46.22-1.3a34.41,34.41,0,0,0,.68-3.41c.09-.67.23-1.43.35-2.24s.1-1.66.19-2.51,0-1.79,0-2.69-.14-1.83-.23-2.78-.27-1.79-.49-2.69-.46-1.74-.81-2.55a19.86,19.86,0,0,0-1-2.33c-.35-.67-.71-1.39-1.07-2a20.24,20.24,0,0,0-2-2.78C731.83,1049.37,731.47,1049,731.47,1049Z"/><path class="cls-5" d="M759.43,1049.28s.36.28.94.77a18.29,18.29,0,0,1,2.16,2.24,22.15,22.15,0,0,1,2.35,3.72,17.42,17.42,0,0,1,1,2.32,19.27,19.27,0,0,1,.72,2.56,16.48,16.48,0,0,1,.36,2.55,16.3,16.3,0,0,1,0,2.51,20.43,20.43,0,0,1-.23,2.33,12.92,12.92,0,0,1-.46,2.07,9.19,9.19,0,0,1-.52,1.65c-.23.49-.4,1-.54,1.26l-.49,1.07s0-.44.18-1.16c.05-.36.14-.81.2-1.35a13.36,13.36,0,0,0,.16-1.66,20.12,20.12,0,0,0,.15-2c0-.68,0-1.43,0-2.2s-.08-1.56-.2-2.37a21.69,21.69,0,0,0-.42-2.38,27.17,27.17,0,0,0-1.34-4.56,35.21,35.21,0,0,0-1.8-3.77,24.37,24.37,0,0,0-1.56-2.6C759.7,1049.64,759.43,1049.28,759.43,1049.28Z"/></g><g class="cls-6"><path class="cls-9" d="M641.72,1012.54a20.05,20.05,0,0,1-4,4,27.33,27.33,0,0,1-4.9,3.18c-.94.49-2,1-3,1.39a33.58,33.58,0,0,1-3.3,1l-3.14.81c-1.06.27-2.1.45-3.11.72-.51.09-1,.18-1.5.31s-.9.23-1.35.36c-.85.27-1.7.49-2.48.67-1.57.41-2.85.9-3.81,1.12l-1.51.5a2.85,2.85,0,0,0,.32-.28,11.38,11.38,0,0,1,.83-.8c.38-.31.87-.72,1.41-1.08a10.92,10.92,0,0,1,2-1.29c.73-.45,1.56-.9,2.46-1.35.44-.22.89-.45,1.38-.67s1-.32,1.44-.54c1-.27,2-.67,3-1,.52-.13,1.06-.31,1.57-.44l1.64-.5a28,28,0,0,0,3-.8c1-.36,2-.59,2.91-1s1.86-.67,2.69-1,1.68-.72,2.42-1c1.5-.72,2.76-1.26,3.63-1.65S641.72,1012.54,641.72,1012.54Z"/><path class="cls-9" d="M589.65,1014.87a26.84,26.84,0,0,1,2.29,3.14,45.35,45.35,0,0,1,3.62,7.44,42.68,42.68,0,0,1,2.25,7.92,23.12,23.12,0,0,1,.38,3.86,20.37,20.37,0,0,1-2.29-3.14,41.7,41.7,0,0,1-3.65-7.39,44.4,44.4,0,0,1-2.21-8A22.15,22.15,0,0,1,589.65,1014.87Z"/></g><g class="cls-6"><path class="cls-7" d="M736.61,1025.89c-25.08-6-52.91-7.79-64.87,16.8,0,0,22.94-14.56,38-12.36s38,6.64,39.72-1.34a7.28,7.28,0,0,0-.09-3.37C747.49,1027.15,743.66,1027.6,736.61,1025.89Z"/><path class="cls-7" d="M616.63,1021.86c11.85-2.68,19.6-6.09,25.31-9.9,12.24-17.52,21.82-28.45,16.13-34.59a5.83,5.83,0,0,0-2.64-1.58C659.19,981.26,640.44,1003.71,616.63,1021.86Z"/><path class="cls-7" d="M644.54,1063.49c-26.17-7.08-37.59,8.16-59.95,9.77s-41.41,22.89-47.93,19.09c-1.86-1.08-2.3-3.68-2-6.91-2.4,5.7-3,10.76-.6,13.76,5.72,7.48,24.71-15.91,50.74-17.65s29.12-4,38.82-7.53,20.3,1.79,39.3,3.54,69.33.9,90.05-1.3c18.52-2,26.46-6.45,23.86-14.29C760.37,1074.24,666.54,1069.45,644.54,1063.49Z"/></g><g class="cls-3"><path class="cls-4" d="M775.47,1059.05c-5.73-9.77-8.82-9.77-35.31-10.21s-68.42-6.15-68.42-6.15,22.94-14.56,38-12.36,38,6.64,39.72-1.34-10.6-17.66-43.69-28.24-41.5,0-64,11.48c12.37-17.66,22.09-28.68,16.35-34.86s-21.19,4-39.29,19.4-28.26,20.34-28.26,20.34-16.78-57.4-20.74-81.68c-8.38-1.76-29.33-9.19-40.94,5.32a440.85,440.85,0,0,0,18.4,48.62c-2.69-12.32-7.37-39.83,3.58-41.94,14.19-2.73,18,31.59,27.22,61,8.84,28,1.84,37.24-8.26,24.87,4.91,11.7.67,14.11-10.6,22.18a67.69,67.69,0,0,0-7.51,6.32c3.74-3.36,13-10.67,21.2-10.31,10.6.45-.88,11.92-11,18.51-9,5.87-26.52,17.88-25.31,11.52-3.9,7.3-5.38,14-2.46,17.65,5.72,7.48,24.71-15.91,50.74-17.65s29.12-4,38.82-7.53,20.3,1.79,39.3,3.54,69.33.9,90.05-1.3S781.21,1068.73,775.47,1059.05Z"/></g><path class="cls-8" d="M561.82,1057.26s-13.66,11.92-20.74,21.65S546,1063,561.82,1057.26Z"/><path class="cls-10" d="M857.81,615.17c17.54-61.7-6.29-92.53-6.29-92.53a118.36,118.36,0,0,1,11.2,9.82c.72-43.47-30.16-60.32-30.16-60.32s11.92,5.65,18.24,10.53c-10.51-56.81-76.65-79.85-76.65-79.85s-269.26-41.18-332.81-33.25-101.53,55.61-101.53,55.61c6.64,48.53,8.64,106.11,29.47,165.71-26.8-43.7-29.78-44.72-34.75-39.75s-13.91,44.09,3.25,66.18c-18.4-4.93-22.1-4.3-22.1-4.3s7.38,17.79,18.42,24.51c-30,1.21-41.67,12.23-42.3,16.54s22.68,27,61.3,27.55c-11.05,11.7-15.32,16.59-11.65,18.42s29.4-6.14,29.4-6.14-4.88,36.16,2.46,37.37,23.88-25.72,23.88-25.72-4.3,83-18.37,57.09c-6.47,45.39-23.79,54-31.34,54S328,794,328,760.49c-7.58,35.66-25.95,38.9-35.67,14-5.4,34.6-29.2,49.74-29.2,28.1-13,19.49-65.93,16.22-51.9-9.73-2.58,1.31-5.56,2.74-8.79,4.26-21.64,20.75-19.67,32.31-19.67,32.31s11.66-10,19.18-9.59c-17.12,26.21-2.11,57.49-2.11,57.49s12.94-14.56,25.43-24.15c-.42,10,15,44.58,23.75,44.58s27.67-30.55,27.67-30.55S291.51,878,295.1,882s-11.23,23-11.23,23,18.38-5.11,19.91-3.54-5.1,13.75-5.1,13.75,19.92-7.61,25-3S339,926.46,339,926.46s3.05-17.88,10.71-15.81c54.67,36.78,151.73,22,151.73,22s4.61,16.35,7.16,15.86,10.72-9.72,10.72-9.72,12.28,9.18,15.32,10.21,5.62-5.64,7.17-13.8c34.73,6.63,44.94,0,44.94,0l-6.85-12.1C830.63,858.35,847.31,733,842.37,652.36c14-28.72,6.32-52.6,6.32-52.6A25.7,25.7,0,0,1,857.81,615.17Z"/><path class="cls-11" d="M263.14,802.61c0,21.64,23.8,6.5,29.2-28.1,9.72,24.88,28.09,21.64,35.67-14,0,33.47,11.92,56.19,19.47,56.19s24.87-8.65,31.34-54c14.07,25.94,18.37-57.09,18.37-57.09s-16.53,27-23.88,25.72-2.46-37.37-2.46-37.37-25.73,8-29.4,6.14.6-6.72,11.65-18.42c-38.62-.58-61.92-23.25-61.3-27.55s12.26-15.33,42.3-16.54c-11-6.72-18.42-24.51-18.42-24.51s3.7-.63,22.1,4.3c-17.16-22.09-8.2-61.21-3.25-66.18s8-3.95,34.75,39.75c-20.83-59.6-22.83-117.18-29.47-165.71,0,0-9.07-63-9.63-94.15s4.46-52.87-17.23-62.33-42.84-6.09-51.19,9.46-5.58,64.57-5.58,64.57-11.12-49.56-13.35-64-40-6.67-51.18,2.78,5.56,64.53,5.56,64.53-19.44-61.75-39.48-69-56.75,6.72-72.9,30.65,19.49,83.44,19.49,83.44S79.86,356.08,63.14,331s-46.15,5.56-51.71,30,29.48,74.56,29.48,74.56S24.2,420,19.18,410s-8.33-5.55-16.12,20.58S.27,479,42,519.64,167.77,619,167.77,619s-26.66,1.66-27.92,3.36,8.34,23.3,23.33,34.15c-11.67,2.91-30.86,17.11-30.86,20.83S144,684.81,168.6,684c-17.09,15-28.75,52.92-29.17,57.49s21.26,9.19,37.51,5.42c-7.51,13-12.93,50.86-8.34,52.92S204,795.67,204,795.67c-.54.53-1.05,1-1.57,1.47,3.23-1.52,6.21-2.95,8.79-4.26C197.21,818.83,250.18,822.1,263.14,802.61Z"/><g class="cls-3"><path class="cls-10" d="M788.27,757.13c-7.06,35.31-44.14,81.19-40.6,37.06-56.53,58.25-183.6,123.58-286,70.62s-47.68-196-53-188.92-28.24,35.31-30,24.74,8.81-33.57,1.77-24.74S361,691.8,361,681.18s33.56-22.95-8.83-21.2-24.71-21.19,7.08-21.19c-17.65-7-21.19-15.87,5.28-8.78-24.71-24.74-21.19-54.76-7-38.86s35.31,33.57,21.19-1.78C347.41,494.77,348.89,439,358.92,406.5a146,146,0,0,0-19.11,18.68c6.64,48.53,8.64,106.11,29.47,165.71-26.8-43.7-29.78-44.72-34.75-39.75s-13.91,44.09,3.25,66.18c-18.4-4.93-22.1-4.3-22.1-4.3s7.38,17.79,18.42,24.51c-30,1.21-41.67,12.23-42.3,16.54s22.68,27,61.3,27.55c-11.05,11.7-15.32,16.59-11.65,18.42s29.4-6.14,29.4-6.14-4.88,36.16,2.46,37.37,23.88-25.72,23.88-25.72-4.3,83-18.37,57.09c-6.47,45.39-23.79,54-31.34,54S328,794,328,760.49c-7.58,35.66-25.95,38.9-35.67,14-5.4,34.6-29.2,49.74-29.2,28.1-13,19.49-65.93,16.22-51.9-9.73-2.58,1.31-5.56,2.74-8.79,4.26-21.64,20.75-19.67,32.31-19.67,32.31s11.66-10,19.18-9.59c-17.12,26.21-2.11,57.49-2.11,57.49s12.94-14.56,25.43-24.15c-.42,10,15,44.58,23.75,44.58s27.67-30.55,27.67-30.55S291.51,878,295.1,882s-11.23,23-11.23,23,18.38-5.11,19.91-3.54-5.1,13.75-5.1,13.75,19.92-7.61,25-3S339,926.46,339,926.46s3.05-17.88,10.71-15.81c54.67,36.78,151.73,22,151.73,22s4.61,16.35,7.16,15.86,10.72-9.72,10.72-9.72,12.28,9.18,15.32,10.21,5.62-5.64,7.17-13.8c34.73,6.63,44.94,0,44.94,0l-6.85-12.1C830.63,858.35,847.31,733,842.37,652.36,840,720.61,807.69,781.82,788.27,757.13Z"/></g><path class="cls-11" d="M792.39,502.3s25.29-8.83,37.08,25.85.58,80.08-5.28,73c-.61,15.32-15.33,55.92-24.16,57.67-12.95,83.56-61.21,108.88-63.54,108.3s-4.71-1.79,8.8-15.28c-41.78,36.47-79.06,42.25-89.18,42.25s-7.74-4.84,2.86-17.38c-14.94,8.2-70.91,32.35-87.8,33.3s-17.86-3.37,2-15.92c-16.92,8.21-64.2,24.11-72.86,10.63s17.79-53.24,17.79-53.24-25.73,6.72-30.18,4.49-1.13-14.53,13.42-45.85c-35.78,6.72-4.48-59.23,44.7-107.31,0,0-39.13,29.08-38,17.87C523.65,545.81,604.13,500,604.13,500s69.94-39.08,58.2-3.81C753.86,453.32,801.51,457.17,792.39,502.3Z"/><g class="cls-6"><path class="cls-11" d="M602.78,579.6s-2.87,3.4-7.22,8.33c-2.14,2.5-4.7,5.42-7.3,8.56-1.3,1.52-2.6,3.22-3.9,4.88a49.09,49.09,0,0,0-3.58,5.24c-1,1.7-2,3.76-1.68,4.89,0,.4.11.17.09.27a1.55,1.55,0,0,0,.2.22,2.09,2.09,0,0,0,.81.5,7.46,7.46,0,0,0,2.55.49,29.57,29.57,0,0,0,5.65-.23c1.83-.22,3.58-.49,5.19-.76,3.21-.58,5.9-1.12,7.8-1.53s3-.62,3-.62-1,.49-2.74,1.25a72.13,72.13,0,0,1-7.54,2.87,46.33,46.33,0,0,1-5.25,1.39,29.55,29.55,0,0,1-6.2.76,11.84,11.84,0,0,1-3.59-.53,6.45,6.45,0,0,1-2-1.13,4.3,4.3,0,0,1-.81-1,4,4,0,0,1-.49-1.21,7.53,7.53,0,0,1,.43-4.16,21.34,21.34,0,0,1,1.54-3.23,62.64,62.64,0,0,1,8.2-10.4c2.87-3,5.69-5.68,8.2-7.88A94.34,94.34,0,0,1,602.78,579.6Z"/><path class="cls-11" d="M563,640.8s-1.34,1.84-3.27,4.39c-1,1.35-2.08,2.83-3.09,4.44a16,16,0,0,0-1.3,2.47,3.67,3.67,0,0,0-.29,2s0,.13.11.23,0,0,.09.09l.07.08,0,0h0c-.06,0,.16.13-.15-.09h0c.43.27,1,.76,1.21.76a8.58,8.58,0,0,0,1,.41c.41.13.85.17,1.3.31a26.39,26.39,0,0,0,2.64.08l2.51-.12c1.59-.19,3-.41,3.91-.55a14.15,14.15,0,0,1,1.52-.22s-.45.36-1.28.89a20.93,20.93,0,0,1-3.65,1.8,15.77,15.77,0,0,1-5.88,1.17,8.55,8.55,0,0,1-3.71-.72,9.3,9.3,0,0,1-1.57-.9l-.18-.13,0,0-.07,0-.11-.09-.23-.22c-.15-.19-.29-.36-.42-.5a5.94,5.94,0,0,1-.59-1.25,6.39,6.39,0,0,1,.54-4.35,16.79,16.79,0,0,1,1.89-2.91,24.52,24.52,0,0,1,4.21-4A25.49,25.49,0,0,1,563,640.8Z"/><path class="cls-11" d="M576.39,689.15q-2.83,4.36-5.36,8.87c-.87,1.48-1.63,3.05-2.42,4.57s-1.5,3-2.17,4.62c-.36.76-.63,1.57-.94,2.33s-.68,1.57-.9,2.37l-.76,2.38-.58,2.46a17.51,17.51,0,0,0-.45,2.42,12.55,12.55,0,0,0-.27,2.42,15.87,15.87,0,0,0,0,2.38c.08.8.13,1.61.17,2.42l-.06-.27s-.11-.14-.05-.09,0,.05.16.05a1.57,1.57,0,0,0,.27,0,5.2,5.2,0,0,0,1.83-.14,25.76,25.76,0,0,0,4.26-1.16c2.85-1,5.67-2.24,8.48-3.49s5.6-2.69,8.33-4.17,5.51-3,8.18-4.62a60.63,60.63,0,0,1-7.29,6.05c-2.6,1.79-5.24,3.5-8,5.11a71.48,71.48,0,0,1-8.61,4.21,25.08,25.08,0,0,1-4.75,1.44,9.65,9.65,0,0,1-2.82.22,8.15,8.15,0,0,1-.85-.18,2.75,2.75,0,0,1-.94-.36,3.38,3.38,0,0,1-.94-.76,4.33,4.33,0,0,1-.61-1.08l0-.08,0-.18c-.09-.95-.17-1.84-.26-2.78a23.08,23.08,0,0,1,.11-2.78,14.46,14.46,0,0,1,.34-2.73,23.27,23.27,0,0,1,.53-2.69c.25-.9.49-1.75.76-2.6l.94-2.51c.32-.85.72-1.66,1.08-2.46s.74-1.62,1.16-2.43c.81-1.52,1.73-3.05,2.65-4.57s1.94-2.91,3-4.34,2.15-2.78,3.27-4.08A46.49,46.49,0,0,1,576.39,689.15Z"/><path class="cls-11" d="M684.11,715.19l-.72,2.86c-.4,1.84-1,4.49-1.48,7.58a20.29,20.29,0,0,0-.13,2.37,6.71,6.71,0,0,0,.26,2.2c.1.22.23.36.28.36a3.79,3.79,0,0,0,.58-.09c.36-.1.69-.23,1-.32s.87-.35,1.28-.54a53.72,53.72,0,0,0,5.31-2.82c1.8-1.07,3.57-2.19,5.34-3.36s3.52-2.33,5.2-3.59,3.38-2.41,4.93-3.62c3.16-2.42,6-4.8,8.37-7a57.69,57.69,0,0,0,5.42-5.46c.59-.72,1.08-1.26,1.38-1.71s.46-.58.46-.58-.09.22-.31.67a19.33,19.33,0,0,1-.94,2,40.51,40.51,0,0,1-4.55,6.45,67.23,67.23,0,0,1-7.86,8c-1.55,1.34-3.14,2.69-4.89,3.94s-3.47,2.6-5.29,3.81a65.78,65.78,0,0,1-11.38,6.1l-1.52.53a12.74,12.74,0,0,1-1.84.36,3.3,3.3,0,0,1-2.17-.49,3.63,3.63,0,0,1-1.32-1.88,11.89,11.89,0,0,1,.4-5.79,44.6,44.6,0,0,1,2.8-7.39C683.55,716.13,684.11,715.19,684.11,715.19Z"/><path class="cls-11" d="M765.3,628.26s-.09,4.3-.22,10.79v5.2a30.83,30.83,0,0,0,.49,5.47,3.42,3.42,0,0,0,.31.94h0c0-.09-.13-.09-.24-.18s-.16-.05-.25-.05h-.13a.59.59,0,0,0,.22,0c0-.09-.05,0,0-.09l.26-.13c.15-.1.35-.18.53-.32.36-.27.74-.53,1.12-.85a32.67,32.67,0,0,0,4.32-4.39,55.34,55.34,0,0,0,4-4.88c1.19-1.7,2.37-3.37,3.41-5a82.78,82.78,0,0,0,5.12-9.59c.63-1.48,1.22-2.82,1.66-4.08s.84-2.28,1.1-3.18c.58-1.84.85-2.86.85-2.86s0,.26,0,.75a14.64,14.64,0,0,1-.14,2.24,41.51,41.51,0,0,1-1.52,7.8,52.65,52.65,0,0,1-4.35,10.45,54,54,0,0,1-3.31,5.46c-1.26,1.79-2.6,3.54-4.06,5.24a40.08,40.08,0,0,1-4.86,4.7,12.23,12.23,0,0,1-1.43,1c-.27.13-.52.31-.81.45l-.47.22c-.16,0-.47.13-.7.22a1.45,1.45,0,0,1-.51.09h-.12c-.42.05-.17,0-.26,0h-.18a2.3,2.3,0,0,1-.58-.18,1.72,1.72,0,0,1-.92-.58,3.74,3.74,0,0,1-.45-.63,5.91,5.91,0,0,1-.6-2,25.33,25.33,0,0,1,0-6.14c.12-1.88.36-3.67.58-5.29A86.54,86.54,0,0,1,765.3,628.26Z"/></g><g class="cls-6"><path class="cls-11" d="M263.3,381.62l7.62,23.75c2.28,7.13,4.95,15.42,7.8,24.33,1.43,4.44,2.91,9,4.41,13.67s3.05,9.41,4.64,14.16,3.14,9.41,4.71,14.07,3.14,9.19,4.65,13.62,3.05,8.65,4.48,12.68,2.92,7.8,4.22,11.3,2.58,6.68,3.67,9.5,2.11,5.24,3,7.25c1.7,4,2.64,6.32,2.64,6.32s-1.21-2.15-3.25-6c-1-1.93-2.26-4.26-3.56-7s-2.84-5.87-4.34-9.28-3.14-7.17-4.78-11.11-3.31-8.21-5-12.6-3.38-8.87-4.95-13.52-3.32-9.37-4.84-14.12-3.09-9.5-4.53-14.17-2.82-9.36-4.14-13.83-2.51-8.88-3.65-13-2.15-8.07-3.1-11.7c-1.86-7.21-3.22-13.31-4.23-17.56S263.3,381.62,263.3,381.62Z"/><path class="cls-11" d="M205.64,551.14s3.63,3.72,8.8,9.5c1.27,1.48,2.69,3.05,4.14,4.7s3,3.45,4.55,5.34,3.21,3.76,4.79,5.68,3.3,4,5,6,3.23,4,4.83,6,3.17,4,4.67,5.83,3,3.77,4.35,5.47,2.68,3.4,3.89,4.93,2.25,2.91,3.25,4.16,1.86,2.29,2.55,3.19c1.37,1.79,2.18,2.82,2.18,2.82l-2.69-2.33c-1.66-1.52-4.17-3.68-6.82-6.5s-5.91-6.05-9.09-9.72c-1.57-1.84-3.27-3.67-4.91-5.65s-3.29-3.94-4.94-5.91-3.27-4-4.84-6.05-3.1-4-4.6-5.92c-3-3.85-5.62-7.52-7.86-10.66C208.35,555.58,205.64,551.14,205.64,551.14Z"/><path class="cls-11" d="M118.52,513.46,140,534.92l22.09,21.91c4.06,4,8.25,8.11,12.5,12.27s8.65,8.39,13,12.6,8.79,8.38,13.09,12.5,8.67,8.07,12.81,12,8.25,7.53,12.1,11,7.57,6.72,11,9.76,6.63,5.7,9.41,8.07,5.34,4.44,7.37,6.14c4.11,3.36,6.43,5.29,6.43,5.29l-6.85-4.75c-2.15-1.57-4.84-3.36-7.76-5.65s-6.29-4.74-9.9-7.57-7.35-6-11.38-9.28-8.2-7-12.48-10.75-8.64-7.71-13.06-11.78-8.81-8.21-13.17-12.42-8.74-8.47-12.95-12.72-8.38-8.42-12.33-12.5-7.77-8.12-11.33-11.92-6.91-7.44-10-10.81c-6.11-6.71-11.09-12.45-14.58-16.48S118.52,513.46,118.52,513.46Z"/><path class="cls-11" d="M228,449.87s1.84,2.1,4.2,5.42c1.18,1.66,2.52,3.63,3.87,5.78s2.73,4.44,4.08,6.81,2.57,4.75,3.7,7,2.12,4.44,2.93,6.33a64.06,64.06,0,0,1,2.42,6.35,67.55,67.55,0,0,1-4.19-5.37c-1.22-1.66-2.54-3.63-3.88-5.78s-2.73-4.44-4.07-6.81-2.56-4.75-3.7-7-2.13-4.43-2.94-6.31A65.44,65.44,0,0,1,228,449.87Z"/><path class="cls-11" d="M264.47,520.54s3,3.4,7.12,8.82c2.07,2.69,4.4,5.87,6.86,9.28,1.21,1.74,2.51,3.54,3.72,5.38s2.53,3.67,3.78,5.55,2.49,3.77,3.7,5.65,2.35,3.72,3.47,5.47c2.27,3.58,4.28,7,6,9.9,3.4,5.87,5.39,9.95,5.39,9.95s-3-3.41-7.1-8.79c-2.06-2.69-4.39-5.87-6.85-9.32-1.21-1.74-2.51-3.49-3.75-5.33s-2.5-3.72-3.78-5.6-2.46-3.76-3.68-5.6-2.37-3.72-3.49-5.52c-2.24-3.58-4.26-7-6-9.94C266.49,524.61,264.47,520.54,264.47,520.54Z"/><path class="cls-11" d="M211.51,673.56a94.83,94.83,0,0,1-8.1-7.57c-1.14-1.21-2.39-2.52-3.65-4s-2.55-3-3.83-4.66A49,49,0,0,1,189,646a13.51,13.51,0,0,1-.9-3.63,6.29,6.29,0,0,1,0-1.07,5.76,5.76,0,0,1,.15-1.12,3.89,3.89,0,0,1,.41-1.13l.26-.53,0,0,.09-.18h0l0-.09.14-.13.26-.36.48-.4a3.28,3.28,0,0,1,1-.68,6.75,6.75,0,0,1,1.88-.76,11,11,0,0,1,3.61-.26,27.18,27.18,0,0,1,6.13,1.21,48.27,48.27,0,0,1,5.09,1.92,63.76,63.76,0,0,1,7.19,3.72c1.66,1,2.58,1.66,2.58,1.66s-1.08-.36-2.89-1-4.42-1.48-7.55-2.42a42.69,42.69,0,0,0-10.67-2c-1.83,0-3.67.44-4.43,1.48-.68.71-.37,2.73.4,4.57a33.19,33.19,0,0,0,2.8,5.55c1.1,1.8,2.19,3.59,3.34,5.29C200.75,659,203,662,205,664.68,208.91,670,211.51,673.56,211.51,673.56Z"/><path class="cls-11" d="M255.06,671.18a29.73,29.73,0,0,0-3.94,1c-1.3.31-2.58.76-3.86,1.16s-2.51.94-3.72,1.52-2.46,1-3.63,1.71-2.37,1.21-3.49,2-2.29,1.39-3.32,2.15L229.88,683l-3,2.64c-1,.81-1.84,1.89-2.79,2.78a30.25,30.25,0,0,0-2.66,2.91l-2.49,3.09-2.19,3.32-1.11,1.66c-.33.54-.64,1.12-.95,1.7l-1.88,3.5a29,29,0,0,0-1.62,3.62l-1.57,3.64-.83-2.2,3.5,1.66a34.66,34.66,0,0,0,3.54,1.53l3.63,1.29c1.18.49,2.44.72,3.7,1.12a36.81,36.81,0,0,0,3.72.94l3.8.76c1.26.18,2.55.32,3.83.45l1.91.27,2,.09a35.12,35.12,0,0,0,3.85.13l3.9,0,3.9-.22c1.3-.14,2.58-.32,3.85-.45a64.07,64.07,0,0,0,7.76-1.4,72.71,72.71,0,0,0,7.54-2.19c-1.18.63-2.37,1.17-3.58,1.71s-2.49.94-3.72,1.38c-2.53.85-5.08,1.57-7.68,2.2-1.3.27-2.6.49-3.94.76l-4,.5c-1.32.13-2.67.22-4,.31s-2.66,0-4,0h-2l-2-.13c-1.35-.14-2.7-.18-4-.36l-4-.67c-1.35-.18-2.62-.58-3.95-.89a39,39,0,0,1-3.89-1L214.59,716c-1.29-.45-2.5-1-3.74-1.57l-3.7-1.7-1.47-.68.67-1.52,1.64-3.81c.58-1.25,1-2.55,1.72-3.76l2-3.63c.36-.58.67-1.25,1.06-1.79l1.18-1.75,2.39-3.36,2.71-3.18a39.42,39.42,0,0,1,2.92-3,38.84,38.84,0,0,1,3.09-2.77l3.27-2.56,3.45-2.24c1.17-.76,2.45-1.34,3.63-2s2.51-1.16,3.76-1.74a38.65,38.65,0,0,1,3.86-1.39c1.3-.45,2.65-.81,3.94-1.17s2.67-.62,4-.8A30.55,30.55,0,0,1,255.06,671.18Z"/><path class="cls-11" d="M284.5,705.33c-.76.62-1.48,1.3-2.18,1.92s-1.34,1.39-1.95,2.11a28,28,0,0,0-1.74,2.2c-.27.35-.49.8-.77,1.16a12.4,12.4,0,0,0-.71,1.16c-.21.41-.45.82-.63,1.21s-.35.86-.53,1.26a17.61,17.61,0,0,0-.84,2.51,22.73,22.73,0,0,0-.51,2.64c-.14.85-.09,1.79-.18,2.65L273,722.4c2,.18,3.92.41,5.89.58l2.94.09a28.63,28.63,0,0,0,2.93,0c1,0,2-.14,3-.14l2.92-.44c.48,0,.95-.23,1.42-.31s1-.23,1.44-.36a16.91,16.91,0,0,0,2.8-1.21,7.45,7.45,0,0,1-1.1,1.16l-1.25.94a13,13,0,0,1-1.37.77c-.47.22-.92.49-1.41.71l-3,1c-1,.22-2.07.41-3.12.63-.51.09-1,.23-1.54.27l-1.57.09-3.16.18c-2.09-.18-4.17-.31-6.25-.49l-1.66-.14.14-1.61a30.23,30.23,0,0,1,.27-3.14l.31-1.52a11.57,11.57,0,0,1,.45-1.57,23.19,23.19,0,0,1,1.2-2.87l.81-1.34a11.84,11.84,0,0,1,.88-1.3c.31-.41.62-.81,1-1.21s.67-.76,1.07-1.12a25.29,25.29,0,0,1,2.29-2A18.76,18.76,0,0,1,284.5,705.33Z"/><path class="cls-11" d="M230.34,750.05s-1.23,2.73-3.15,6.72c-1,2-2.11,4.3-3.3,6.76-.65,1.22-1.16,2.56-1.83,3.81s-1.23,2.6-1.86,3.95-1.26,2.59-1.81,3.94-1.22,2.55-1.69,3.81-1.12,2.46-1.54,3.67-.95,2.25-1.33,3.28-.73,1.92-1.07,2.78-.56,1.56-.79,2.19c-.42,1.21-.73,1.92-.73,1.92s0-.76,0-2.06c0-.63,0-1.43.18-2.37s.22-1.93.42-3,.47-2.32.77-3.58.69-2.55,1.13-3.9a74,74,0,0,1,3.23-8.2,82.35,82.35,0,0,1,4.18-7.7,66.23,66.23,0,0,1,4.27-6.37A45.93,45.93,0,0,1,230.34,750.05Z"/><path class="cls-11" d="M278.05,646s-2.72.45-6.66,1a65.67,65.67,0,0,0-6.52,1.26,6.77,6.77,0,0,0-1.5.53c-.16.09-.36.23-.36.23s.09,0,.11-.19.05,0,.05-.08l0,0v0s.05-.58,0-.31v0l.05.22c0,.14,0,.45,0,.45a.1.1,0,0,1,.09.09,5.16,5.16,0,0,1,.31.63,12.1,12.1,0,0,0,.9,1.52c.68,1.08,1.43,2.11,2.2,3.1s1.55,2,2.33,3,1.57,1.84,2.33,2.69,1.47,1.57,2.15,2.33c1.39,1.39,2.6,2.51,3.47,3.31l1.43,1.13a2.72,2.72,0,0,0-.46-.09c-.3-.14-.76-.22-1.33-.45a13.51,13.51,0,0,1-2-.94,20,20,0,0,1-2.44-1.44,38.61,38.61,0,0,1-5.45-4.43,34.59,34.59,0,0,1-2.71-2.91,31.66,31.66,0,0,1-2.5-3.32,15.63,15.63,0,0,1-1.1-1.93,7.38,7.38,0,0,1-.48-1.21c-.09-.31-.15-.58-.22-.85s0-.36,0-.58v-.27c0,.31,0-.36,0-.31V648l0-.18c0-.09.08-.23.13-.36a3.43,3.43,0,0,1,.72-.89,4.07,4.07,0,0,1,1.3-.77,11.39,11.39,0,0,1,2.15-.58,27.22,27.22,0,0,1,3.79-.31c1.18,0,2.3,0,3.31.08A40.14,40.14,0,0,1,278.05,646Z"/></g><g class="cls-3"><path class="cls-10" d="M434.79,416.71c-4.3,27,19.45,24.83,37.77,10.8,0,55,37.78,29.12,50.72,20.48-7.56,36.69,23.75,23.75,33.46,16.17,3.24,34.56,42,24.83,60.42,8.65,17.26,12.95,34.53-1.07,39.93-7.52,15.1,20.47,43.15,24.82,51.8,2.15,16.17,11.87,27-3.28,32.35-11.88,11.88,8.6,33.47,1.07,33.47-5.38,0,0,12.95,6.45,15.1-14,1.35-13,9.61-16.89,19.05-14.48a150.38,150.38,0,0,0-34.71-18.86s-269.26-41.18-332.81-33.25c-26.31,3.27-48.22,13.4-64.89,24.07,9.54-1.53,20.1-2.83,29.21-2.83C392.71,417.78,412.14,429.66,434.79,416.71Z"/></g><path class="cls-12" d="M424.38,369.12s-9.75,11.39-16.25,13.8S402.88,337.48,426,303.3C463.36,248.05,538.92,138.4,580.35,97s108.06-42.21,133.24,24.38c15.24,32-35.37,123.76,21.11,213.78,37.1,43.6,50.63,67.13,45.93,96,.58,17.6-4.71,14.11-12.37,5.86.58,16.45-4.12,18.24-10.6,14.12s-15.88-19.4-15.88-19.4-4.12,25.27-19.41,35.26a151.3,151.3,0,0,1-14.73-22.31S700,474,692.93,476.4s-28.27-10.62-34.72-24.74c-11.79,14.7-18.84,17.07-27.65,20.61-1.76-11.2-2.37-19.4-2.37-19.4s-17.08,24.69-55.32,25.86c-7.64-17.08-9.41-30.57-9.41-30.57s-13,14.08-22.38,14.08,1.79-34.1,1.79-34.1-29.44,24.1-48.26,23.52-11.2-44.72-11.2-44.72-20,17.66-30,18.24S451.05,401,451.05,401s-18.84,11.78-30.6,8.87S424.38,369.12,424.38,369.12Z"/><g class="cls-6"><path class="cls-13" d="M641.38,198.08c3.61,19.68,32.67,34.33-.54,69.1-38,39.7-41.51,72-23,104.14,13.27,23-4.39,21.19-21.19.9s-12.33,15-31.78,28.23-6.15-27.34-5.28-44.14-25.58,28.27-41.49,30.91-2.65-38.84,2.64-53-30,24.74-48.53,25.59S459.88,314,468.71,291c-22.9,22.85-31.57,5.6-21.91-18.24C439.09,284,432,294.38,426,303.3c-23.13,34.18-24.38,82.09-17.88,79.62s16.25-13.8,16.25-13.8-15.71,37.82-3.93,40.78,30.6-8.87,30.6-8.87-7.66,24.73,2.34,24.15,30-18.24,30-18.24-7.65,44.14,11.2,44.72,48.26-23.52,48.26-23.52-11.2,34.1-1.79,34.1,22.38-14.08,22.38-14.08,1.77,13.49,9.41,30.57c38.24-1.17,55.32-25.86,55.32-25.86s.61,8.2,2.37,19.4c8.81-3.54,15.86-5.91,27.65-20.61,6.45,14.12,27.65,27.07,34.72,24.74s14.71-31.77,14.71-31.77a151.3,151.3,0,0,0,14.73,22.31c15.29-10,19.41-35.26,19.41-35.26s9.41,15.28,15.88,19.4,11.18,2.33,10.6-14.12c7.66,8.25,13,11.74,12.37-5.86,4.7-28.86-8.83-52.39-45.93-96-56.48-90-5.87-181.83-21.11-213.78-1-2.6-2.06-5.07-3.16-7.44,1.1,5.38-5.39,8.33-15.79,24.15-10.89,16.49-28.25,23.26-33.07,17-4.35-5.77-6.77-5.77-6.77-5.77s13.52-29,2.89-33.84c-10.15-3.35-17.38,13.54-15,28-11.55-2.87-21.71,8.2-21.71,8.2s28-12.55,38.16,13C660.58,169,637.15,175,641.38,198.08Z"/></g><path d="M658.21,132.48c-1.68,7.84-5.67,13.58-8.9,12.82s-4.5-7.8-2.8-15.64,5.65-13.57,8.88-12.77S659.87,124.64,658.21,132.48Z"/><path class="cls-14" d="M657.49,127.56c-.45,3.09-2,5.42-3.45,5.15s-2.26-2.91-1.81-6,2-5.47,3.45-5.21S657.94,124.42,657.49,127.56Z"/><path class="cls-4" d="M667,219.19c27.35,20,39.43,12.37,49.15,9.41s17.34-10,21.76-7.62,16.69,3.05,23.59,4,21.22,8.6,21.51,1.7c-7.46-81.15-53.86-107.27-69.41-103.24-11,2.82-19,26.93-29.53,31.63s-29.44,13-35.89,32.67C642.61,202.16,664.39,217.44,667,219.19Z"/><path class="cls-15" d="M678.82,226.14s2.64,22.94-30.92,49.42-34,64-1.32,76.35,53.87-6.18,60-13.26c13.26,8.38,36.2-8.38,35.3-37.91s-29.12-43.28-28.68-70.66C704.41,232.72,692.49,234.52,678.82,226.14Z"/><path class="cls-16" d="M618.06,153a16.66,16.66,0,0,1,1.68-1,40.36,40.36,0,0,1,11.78-4,38.44,38.44,0,0,1,4.15-.46,28.9,28.9,0,0,1,4.35.23,19.93,19.93,0,0,1,4.25.94,19.07,19.07,0,0,1,3.9,1.66c.58.36,1.17.72,1.7,1.07s1,.81,1.51,1.21.87.85,1.32,1.26.76.85,1.12,1.25a16.58,16.58,0,0,1,1.72,2.38c.43.76.83,1.39,1.1,2,.54,1.12.81,1.74.81,1.74s-.41-.53-1.1-1.6c-.34-.5-.83-1.08-1.34-1.71a25.26,25.26,0,0,0-1.91-2.1c-.4-.36-.77-.77-1.19-1.12s-.87-.72-1.34-1.08-1-.62-1.5-1l-1.66-.94a25.46,25.46,0,0,0-3.63-1.39,26,26,0,0,0-4-.85,37.21,37.21,0,0,0-8,.05,46,46,0,0,0-7,1.34A56.91,56.91,0,0,0,618.06,153Z"/><g class="cls-6"><path class="cls-17" d="M672.14,180.75a24.61,24.61,0,0,0-2.91,2.64c-.4.45-.76.89-1.16,1.39s-.76,1-1.13,1.57-.66,1.2-1,1.74-.6,1.3-.87,1.93a20.66,20.66,0,0,0-.68,2.06,15,15,0,0,0-.53,2c-.19.67-.32,1.34-.45,2s-.23,1.26-.34,1.79c-.24,1.17-.29,2.15-.47,2.87s-.25,1.12-.25,1.12a10.15,10.15,0,0,1-.47-1c-.11-.36-.26-.76-.42-1.25a8.72,8.72,0,0,1-.41-1.62c-.11-.62-.22-1.3-.31-2s0-1.48,0-2.29a15.24,15.24,0,0,1,.36-2.42,14.21,14.21,0,0,1,.71-2.47,16.24,16.24,0,0,1,1.17-2.32,12.61,12.61,0,0,1,1.56-2,10.67,10.67,0,0,1,1.76-1.57,9.69,9.69,0,0,1,1.79-1.08,10,10,0,0,1,2.91-.93A10.22,10.22,0,0,1,672.14,180.75Z"/><path class="cls-17" d="M664.79,187.51s1,1.44,2.85,3.9c.92,1.21,2.09,2.64,3.47,4.3.72.76,1.46,1.62,2.29,2.51s1.66,1.75,2.6,2.69a63.58,63.58,0,0,0,6.32,5.42,40.51,40.51,0,0,0,7.88,4.57c.72.32,1.48.54,2.22.81l1.12.36c.38.08.79.17,1.17.22l2.31.45c.85.08,1.7.13,2.57.22a64.37,64.37,0,0,0,10.2,0c3.4-.18,6.85-.68,10.26-1.16a53.21,53.21,0,0,1,10.44-.9,11.67,11.67,0,0,1,2.73.44,5.32,5.32,0,0,1,1.34.46l.66.31.24.08.27.19c1.39.71,2.78,1.47,4.12,2.19s2.62,1.34,3.9,1.93,2.49,1.16,3.67,1.74c2.34,1.17,4.58,2.07,6.52,3s3.66,1.71,5.06,2.29c2.85,1.21,4.47,1.92,4.47,1.92s-1.71-.49-4.71-1.3c-1.47-.4-3.27-.94-5.28-1.61s-4.4-1.38-6.86-2.37-5.29-1.89-8-3.23c-1.39-.63-2.8-1.3-4.23-2l-.27-.09a1.21,1.21,0,0,0-.3-.14l-.44-.17a2.88,2.88,0,0,0-.94-.27,7.58,7.58,0,0,0-2.11-.27c-3,0-6.36.67-9.77,1.16s-7,1.08-10.57,1.35a73.21,73.21,0,0,1-10.78-.09c-.85-.09-1.72-.22-2.58-.31s-1.79-.36-2.68-.54c-.45-.14-.9-.22-1.33-.32l-1.25-.49a22.85,22.85,0,0,1-2.44-.94,40.24,40.24,0,0,1-8.27-5.38,44.83,44.83,0,0,1-3.33-3c-1-1.07-2-2-2.83-3.09a50.76,50.76,0,0,1-4.44-5.78c-1.25-1.75-2.24-3.36-3-4.7C665.51,189.08,664.79,187.51,664.79,187.51Z"/></g><g class="cls-6"><path class="cls-18" d="M681.26,242.54c5.22-9.1,7.82-4.76,12.6-2.6s10.41.44,13.86-2.16,6.1,13.45,19.09,26.45l.09.08c-7-10.44-13.89-20.65-13.67-34.23-8.82,2.64-20.74,4.44-34.41-3.94,0,0,1.39,12.28-11,29.3C672.86,252.31,678.06,248.05,681.26,242.54Z"/><path class="cls-18" d="M722.37,309.8c1.53-13.67-12.16-35.67-12.16-35.67,9.88,50.9-41.65,76.53-65.82,54.31-15.31-14.08-10.58-32.89-3.68-46.52-26.19,25.82-24.26,58.61,5.87,70,32.67,12.37,53.87-6.18,60-13.26,13.26,8.38,36.2-8.38,35.3-37.91a46.16,46.16,0,0,0-2-12.14C746.44,316,720.94,322.7,722.37,309.8Z"/></g><path class="cls-19" d="M727.75,280.13s8.65,11.39,5.43,25.45c-1.64,8.65,7-1.07,5.39-12.45S726.66,270.9,727.75,280.13Z"/><path class="cls-19" d="M701.77,283.49s-2.21,39.7-34.87,39.7c-12.81.9,13.67,14.16,29.13-4.83S705.3,275.11,701.77,283.49Z"/><path class="cls-8" d="M721.17,126.35s37,20.61,48.48,68.24C772.29,210.5,772.38,141.36,721.17,126.35Z"/><path class="cls-14" d="M619.27,154.22s23.52-8.88,37.89,8.83C653.2,152.38,640,143.2,619.27,154.22Z"/><g class="cls-6"><path class="cls-20" d="M769.45,381.45c11.11,27.64,5.69,44,2,41.08-4.39-3.54-15-23.83-15-23.83s9.72,42.39.89,37.1-22.07-30.92-22.07-30.92-7.06,50.32-13.24,46.78-23.84-29.13-23.84-29.13S700,474.61,685,463.13s-23.87-32.66-23.87-32.66-19.42,33.56-23,25.63-.85-27.38-.85-27.38-53,44.14-56.51,30.92-5.31-35.35-5.31-35.35-26.48,37.1-27.35,23,9.72-38,9.72-38-27.38,23-58.28,25.64c-8-19.41-3.53-45-3.53-45s-34.44,29.12-33.55,16.8a104.47,104.47,0,0,1,7.93-29.17s-42.36,29.17-43.24,16.81c-.89-17.7,9.73-40.6,9.73-40.6s-22.09,20.3-24.73,8.78a171.82,171.82,0,0,1-.41-29.84c-9,27-8.42,52.06-3.67,50.27,6.5-2.41,16.25-13.8,16.25-13.8s-15.71,37.82-3.93,40.78,30.6-8.87,30.6-8.87-7.66,24.73,2.34,24.15,30-18.24,30-18.24-7.65,44.14,11.2,44.72,48.26-23.52,48.26-23.52-11.2,34.1-1.79,34.1,22.38-14.08,22.38-14.08,1.77,13.49,9.41,30.57c38.24-1.17,55.32-25.86,55.32-25.86s.61,8.2,2.37,19.4c8.81-3.54,15.86-5.91,27.65-20.61,6.45,14.12,27.65,27.07,34.72,24.74s14.71-31.77,14.71-31.77a151.3,151.3,0,0,0,14.73,22.31c15.29-10,19.41-35.26,19.41-35.26s9.41,15.28,15.88,19.4,11.18,2.33,10.6-14.12c7.66,8.25,13,11.74,12.37-5.86C783.34,414.38,780,399.5,769.45,381.45Z"/></g><path class="cls-21" d="M700.87,104.75c.09-3.32.67-3.9,1.7-4.8-29.84-46.33-85.36-39.83-122.22-3-5.69,5.74-12.07,12.73-18.89,20.71C580.08,99.37,643.6,46,700.87,104.75Z"/><path class="cls-15" d="M558.73,120.29S536,110.08,543.41,88.21c5.11-11.6,15.77-7.88,15.77-7.88s-7.42-19,7.44-32.54C579.17,38.07,588.93,52,588.93,52S592.65,6.93,636.79.43c34.86-4.21,34.86,23.66,33,31.55,30.68-18.55,53.88-20.44,60.87-.9s-6.49,56.69-31.14,66C688.84,95.65,648.39,28.3,558.73,120.29Z"/><g class="cls-3"><path class="cls-4" d="M727.35,201.85c-16.76,1.75-35.85-2.78-45-13.26-19.43-30,16.78-22.05,19.43-38.85,2.5-16.54,9.29-23.85,16.44-26.71a14.61,14.61,0,0,0-4.57.36c-11,2.82-19,26.93-29.53,31.63s-29.44,13-35.89,32.67c-5.61,14.47,16.17,29.75,18.82,31.5a98,98,0,0,0,11.47,7.35c-11.25-12.59-4-16.44,2.1-12,7,5.06,12,6.45,24.09,7.62s24.15-6.63,25.7-2.33a3.32,3.32,0,0,1-.45,2.55c3.27-1.57,6-2.5,8-1.39,4.4,2.34,16.69,3.05,23.59,4,6.41.8,19.36,7.61,21.26,2.86C756.11,221.52,739.79,200.55,727.35,201.85Z"/></g><g class="cls-6"><path class="cls-18" d="M730.66,31.08c-2.55-7.16-7.34-11.43-13.86-13.08,8,7.12,12.34,19.62,3.05,38.18-20.62,37.1-47.1-20.08-106.23,12.9-43.42,24.15-47.81,36.52-59.8,48.3a34.62,34.62,0,0,0,4.91,2.91c89.66-92,130.11-24.64,140.79-23.2C724.17,87.77,737.62,50.62,730.66,31.08Z"/></g><g class="cls-6"><path class="cls-18" d="M589.11,61a76.45,76.45,0,0,1-.35-9.28c-1.17-1.52-8.45-10.4-18.11-6.36C578.16,46.58,585.26,53.31,589.11,61Z"/><path class="cls-18" d="M565.1,88.66A46.48,46.48,0,0,1,559,80.23a12.55,12.55,0,0,0-14.66,6.24C550.12,83.78,557.43,83,565.1,88.66Z"/></g><path class="cls-14" d="M715.45,21.85s-17.18-2.92-38.38,15.73C683.44,24.45,708.66,13.38,715.45,21.85Z"/><path class="cls-14" d="M636.79,5.36S602.58,13.69,595.56,54C591.6,31.67,611.79,6.21,636.79,5.36Z"/><path class="cls-14" d="M571.79,50.76s-15.3,12.77-4.61,33.78C559.72,76.7,556.49,57.16,571.79,50.76Z"/><path class="cls-14" d="M575.51,118S510.2,195.67,466.94,268C476.65,237.16,532.27,149.74,575.51,118Z"/><g class="cls-3"><path class="cls-11" d="M373.31,731.27c-7.34-1.21-2.46-37.37-2.46-37.37s-25.73,8-29.4,6.14.6-6.72,11.65-18.42c-38.62-.58-61.92-23.25-61.3-27.55s12.26-15.33,42.3-16.54c-11-6.72-18.42-24.51-18.42-24.51s3.7-.63,22.1,4.3c-17.16-22.09-8.2-61.21-3.25-66.18s8-3.95,34.75,39.75c-20.83-59.6-22.83-117.18-29.47-165.71,0,0-9.07-63-9.63-94.15s4.46-52.87-17.23-62.33-42.84-6.09-51.19,9.46-5.58,64.57-5.58,64.57-11.12-49.56-13.35-64-40-6.67-51.18,2.78,5.56,64.53,5.56,64.53-19.44-61.75-39.48-69-56.75,6.72-72.9,30.65,19.49,83.44,19.49,83.44S79.86,356.08,63.14,331s-46.15,5.56-51.71,30,29.48,74.56,29.48,74.56S24.2,420,19.18,410s-8.33-5.55-16.12,20.58S.27,479,42,519.64c0,0-30.38-53.68-25.83-77.52S34.32,437.55,73,479.58,10.49,392.11,29.8,356.93s34.06,21.6,97.66,84S75.24,328.53,112.7,300.12s55.65,36.34,90.87,102.21,1.12-36.35-7.95-99.92c-4.55-21.6,26.12-19.32,32.93-18.15S260.35,458,305.78,547.74c19.31,32.93-7.93,2.28-42-38.63S266,531.83,299,581.79s-39.61,28.14-84.53-21.15,5,24.55,26.59,54.08-22.76-15.86-78.95-57.89,34.68,50,74.43,82.9S280.8,692,305.78,693.1s3.16,29.75-13.76,29.08-10.08-6.37-3.27-17.7-12.49,7.93-47.72,9.09-20.43-19.31,4.58-34.1c15.88-9.09-20.49-11.33-43.18,19.32-14.76,20.43-12.5,28.4-44.29,37.5,5.69-29.53,14.78-50,29.53-59.06-21.17-.71-39.48-1-52.43-4.08-1.79,1.8-2.92,3.27-2.92,4.17,0,3.77,11.7,7.49,36.28,6.68-17.09,15-28.75,52.92-29.17,57.49s21.26,9.19,37.51,5.42c-7.51,13-12.93,50.86-8.34,52.92S204,795.67,204,795.67c-.54.53-1.05,1-1.57,1.47,3.23-1.52,6.21-2.95,8.79-4.26-14,26,38.94,29.22,51.9,9.73,0,21.64,23.8,6.5,29.2-28.1,9.72,24.88,28.09,21.64,35.67-14,0,33.47,11.92,56.19,19.47,56.19s24.87-8.65,31.34-54c14.07,25.94,18.37-57.09,18.37-57.09S380.66,732.53,373.31,731.27Z"/></g><g class="cls-3"><path class="cls-11" d="M373.31,731.27c-7.34-1.21-2.46-37.37-2.46-37.37s-25.73,8-29.4,6.14.6-6.72,11.65-18.42c-38.62-.58-61.92-23.25-61.3-27.55s12.26-15.33,42.3-16.54c-11-6.72-18.42-24.51-18.42-24.51s3.7-.63,22.1,4.3c-17.16-22.09-8.2-61.21-3.25-66.18s8-3.95,34.75,39.75c-20.83-59.6-22.83-117.18-29.47-165.71,0,0-9.07-63-9.63-94.15s4.46-52.87-17.23-62.33a61.92,61.92,0,0,0-19.62-5.1c2.1,51.39,10.48,182.68,42.3,258.41-20.8-20.79-27.72,38.76-13.85,73.4-22.18-26.31,6.9,31.86-37.42,20.79s0,16.67,16.63,20.79-32.45,15.42-22.48,29.85,57.12,21.41,57.12,21.41-9.7,13.85-4.17,26.35,24.94-5.55,24.94-5.55,8.31,48.48-4.15,66.49-20.79-37.41-20.79-37.41-13.85,65.1-41.58,8.33c5.55,48.49-16.63,55.39-16.63,16.63-11.06,61-71,42.43-49.36.44-12.79,5.06-38,23.49-56.9,26-.25,5.6.19,9.63,1.61,10.26,4.59,2.11,35.42-4.16,35.42-4.16-.54.53-1.05,1-1.57,1.47,3.23-1.52,6.21-2.95,8.79-4.26-14,26,38.94,29.22,51.9,9.73,0,21.64,23.8,6.5,29.2-28.1,9.72,24.88,28.09,21.64,35.67-14,0,33.47,11.92,56.19,19.47,56.19s24.87-8.65,31.34-54c14.07,25.94,18.37-57.09,18.37-57.09S380.66,732.53,373.31,731.27Z"/></g><path class="cls-22" d="M44.19,481.46s29.12,57.18,132.72,125.15C211.44,631.44,58.21,568.88,44.19,481.46Z"/><path class="cls-22" d="M58.21,400.54s62.58,94.95,117.63,147.82C213.59,587.21,93.81,499.79,58.21,400.54Z"/><path class="cls-22" d="M133.18,340.53s37.68,128.12,110.9,213.21C287.17,603.25,145,487,133.18,340.53Z"/><g class="cls-6"><path class="cls-23" d="M561.11,911.32c8.22,8.24,8.22,16.49-7.08,9.41s-25.88-3.54-25.88-3.54-16.49,20-17.68,11.78,24.74-21.19-2.33-15.33c-80.05,24.74-150.67-9.41-162.44-29.39-3.53,11.74-12.94,36.48-18.84,8.2-24.71,21.19-14.11,7.08-10.59-10.57-20,10.57-8.25-9.41-1.17-16.49C288,848.94,289.2,836,289.2,836c-23.55,20-40,28.27-40,28.27S230.34,843,239.78,823c-22.36,5.91-27.09-1.12-35.31-12.91-6.61,2.43-13.71,7-20.46,12.28-1.63,4.61-1.23,7.08-1.23,7.08s11.66-10,19.18-9.59c-17.12,26.21-2.11,57.49-2.11,57.49s12.94-14.56,25.43-24.15c-.42,10,15,44.58,23.75,44.58s27.67-30.55,27.67-30.55S291.51,878,295.1,882s-11.23,23-11.23,23,18.38-5.11,19.91-3.54-5.1,13.75-5.1,13.75,19.92-7.61,25-3S339,926.46,339,926.46s3.05-17.88,10.71-15.81c54.67,36.78,151.73,22,151.73,22s4.61,16.35,7.16,15.86,10.72-9.72,10.72-9.72,12.28,9.18,15.32,10.21,5.62-5.64,7.17-13.8c34.73,6.63,44.94,0,44.94,0l-6.85-12.1c129.16-33.33,196.2-82.76,230.19-133.89a5.23,5.23,0,0,0-.68-.26C740,893.66,552.87,903.07,561.11,911.32Z"/></g><g class="cls-3"><path class="cls-11" d="M783.32,658.1c-12.91,31.72-51.63,65.74-57.5,34.06-49.28,62.19-71.57,27-42.25-18.78-45.75,43.42-84.46,63.36-54-3.5-24.62,28.14-61,58.66-66.79,49.29s7-31.72,33.92-61.07c-29.33,14.12-62.19,14.12,16.45-55.12-19.94,10.58-52.81,12.91,10.57-43.46-24.64,14.11-70.44,44.63-66.9,12.91,2.44-21.92,34.68-56.78,54.26-76.14-4.25,2.15-7,3.68-7,3.68S523.65,545.81,508,620.68c-1.12,11.21,38-17.87,38-17.87-49.18,48.08-80.48,114-44.7,107.31-14.55,31.32-17.9,43.6-13.42,45.85s30.18-4.49,30.18-4.49-26.48,39.7-17.79,53.24,55.94-2.42,72.86-10.63c-19.81,12.55-18.82,16.9-2,15.92s72.86-25.1,87.8-33.3c-10.6,12.54-13,17.38-2.86,17.38s47.4-5.78,89.18-42.25c-13.51,13.49-11.17,14.7-8.8,15.28s47.86-23.3,62.33-101.22C790.1,671.59,783.32,667.69,783.32,658.1Z"/></g><path class="cls-22" d="M795.32,518.74s35.31,3.54,12.37,83C798.87,635.29,858.89,522.28,795.32,518.74Z"/></g></g></svg>