<svg xmlns="http://www.w3.org/2000/svg" viewBox="0 0 835.46 1024.84"><defs><style>.cls-1{isolation:isolate;}.cls-11,.cls-13,.cls-2,.cls-3,.cls-8{fill:#b5c5cd;}.cls-10,.cls-18,.cls-19,.cls-20,.cls-22,.cls-3,.cls-5,.cls-6,.cls-8{mix-blend-mode:multiply;}.cls-4,.cls-6,.cls-7{fill:#424c4f;}.cls-5{opacity:0.5;}.cls-19,.cls-7,.cls-8{opacity:0.6;}.cls-11,.cls-13,.cls-7{mix-blend-mode:screen;}.cls-10,.cls-9{fill:#ede7cd;}.cls-12{fill:#a9b8c0;}.cls-13,.cls-18{opacity:0.4;}.cls-14,.cls-18{fill:#6e7a7f;}.cls-15{fill:#909ea4;}.cls-16{fill:#fbbea9;}.cls-17{fill:#a5b4bb;}.cls-19,.cls-20{fill:#a8b7bf;}.cls-21{fill:#fff;}.cls-22{fill:#d1d3d4;}.cls-23{fill:#322a2e;}</style></defs><g class="cls-1"><g id="Layer_1" data-name="Layer 1"><path class="cls-2" d="M473.42,589.64S551,611.71,639,582.47s106.17-80.78,149.55-66.69c0,0-6.57-15.2-32-8.19s-80.77,54.58-134.39,60.29c-42.72,4.56-84.39-2.2-84.39-2.2Z"/><path class="cls-3" d="M783.33,509.89c-.62-.22-1.26-.42-1.88-.6-5.2-1.42-10.35-.92-15.57.16a99.84,99.84,0,0,0-29.71,11.35c-17,9.65-32.76,21.24-49.48,31.33a228.13,228.13,0,0,1-52.78,23.5c-8.75,2.6-17.75,4.14-26.68,1.5a120.16,120.16,0,0,1-18.38-7.69,367.11,367.11,0,0,1-51.12-3.76l-64.31,24S551,611.71,639,582.47s106.17-80.78,149.55-66.69A16.21,16.21,0,0,0,783.33,509.89Z"/><path class="cls-4" d="M830.23,507.51s-3.66,9-13.13,1.36-17.84-15.31-26.64-11a12.42,12.42,0,0,1,6.66-3.84s-15.75-6.15-24.7,11.65c-2.64,9,6.33,25.22,20.38,24.44-1.66-.56-3.74-4.39-3.74-4.39S819.06,538.34,830.23,507.51Z"/><g class="cls-5"><path class="cls-6" d="M784,517.94s-1.3,1.72,2.94,6.68c-3.12-1.8-10-7.32-10.14-15.67-.16-12,14.09-14,14.09-14a9.6,9.6,0,0,0-2.32,6.93c4.52-4.39,14.59-3.47,24.46,5.84,3.88,3.64,7.08,4.44,9.52,4.06a13.41,13.41,0,0,1-5.44-2.92c-9.49-7.68-17.84-15.31-26.64-11a12.42,12.42,0,0,1,6.66-3.84s-15.75-6.15-24.7,11.65c-2.64,9,6.33,25.22,20.38,24.44-1.66-.56-3.74-4.39-3.74-4.39s23.2,9.73,36.39-8.9l0,0C808.71,535.17,784,517.94,784,517.94Z"/></g><path class="cls-7" d="M788.62,505.11s10.94-6.71,24.66,6.42C810.13,505.15,797.42,495.46,788.62,505.11Z"/><path class="cls-2" d="M369,597.62S256.35,617,232.54,708.93s35.06,302.77,72,298.25,122.23-66.86,120.39-124.82-50.4-80-37.07-136.4C402.35,684.61,401.67,620.92,369,597.62Z"/><path class="cls-3" d="M264.6,882.14a20.2,20.2,0,0,0,15.17-12.47,40.92,40.92,0,0,0,2.55-10.79c0-.2,0-.4,0-.58a1,1,0,0,1,.08-.44,51,51,0,0,0,.14-6.31c-5.73,11.45-11.43,25.82-26.14,26.5a28.83,28.83,0,0,1-10.65-1.66C251.27,880.27,257.86,883.52,264.6,882.14Z"/><path class="cls-8" d="M232.54,708.93a164.58,164.58,0,0,0-4.07,23.28c17.26,11.31,35.89,19.32,57.13,20.76,14,1,30.44,1,42.87,8.45,14.22,8.56,14.84,26,16.14,40.81,1.64,18.58,8.38,34.93,17.55,51.1,5.49,9.69,11.95,18.84,17.28,28.63,7.82,14.31,15.47,37.67,4.32,52.34-5.66,7.42-13.51,10.71-22.62,8.59-6.28-1.47-14.11-2.39-16.57,5.42-1.7,5.36-1.06,11-.74,16.51a.92.92,0,0,1-1.48.8c-5.53-4.58-12.41-10.44-20-10.7-11.67-.41-13.87,11.1-12.81,20.27a.89.89,0,0,1-1,1c-9.11-1.88-17.7-12.33-27.44-7.72a11.24,11.24,0,0,0-6.09,8.2c10.13,19.78,20.48,31.59,29.51,30.49,36.92-4.53,122.23-66.86,120.39-124.82s-50.4-80-37.07-136.4c14.51-61.35,13.83-125-18.89-148.34C369,597.62,256.35,617,232.54,708.93Z"/><path class="cls-8" d="M424.91,882.36c-1.84-58-50.4-80-37.07-136.4,14.51-61.35,13.83-125-18.89-148.34,0,0-112.6,19.4-136.41,111.31-.18.76-.34,1.53-.54,2.29,4.12-3.81,9.44-5.59,16.49-3.77,8.71,2.27,16,8,23.68,12.53a121,121,0,0,0,29.16,11.77c13,3.55,26.36,4.39,39.39,7.61,6.59,1.64,14.78,3.94,19,9.79,5.44,7.58,5.12,18.89,5.32,27.78a132.11,132.11,0,0,0,5.83,37.21c4.28,13.65,10,26.78,15.93,39.79,8.79,19.28,25.12,37.73,20.42,60.39-3.72,18-15.53,32.33-25,47.76C406.54,939.12,425.79,910.24,424.91,882.36Z"/><path class="cls-9" d="M291.34,1024.15c11.05,4.87,32.49-17.47,26.39-28.46S290,975.35,284.1,983C278.41,990.36,280.27,1019.31,291.34,1024.15Z"/><path class="cls-10" d="M284.1,983a10.66,10.66,0,0,0-1.42,2.7,9.06,9.06,0,0,1,5.1-2.06c10.81-.94,20.7,8.05,23.36,18.09,2.12,8-3.2,16.88-10.33,20.38a14.06,14.06,0,0,1-11.41.9,9.13,9.13,0,0,0,1.94,1.14c11.05,4.87,32.49-17.47,26.39-28.46S290,975.35,284.1,983Z"/><path class="cls-9" d="M324.43,1007.9c9.69,4.26,28.46-15.33,23.12-24.94s-24.32-17.82-29.46-11.11C313.1,978.29,314.74,1003.64,324.43,1007.9Z"/><path class="cls-10" d="M326.69,969.59c8.21,2.5,15.52,12.37,14.78,20.41-.61,6.73-5.79,14.28-12.54,16.18a11.58,11.58,0,0,1-7.06-.06,9.09,9.09,0,0,0,2.56,1.78c9.69,4.26,28.46-15.33,23.12-24.94C344,976.51,334.24,970.71,326.69,969.59Z"/><path class="cls-9" d="M362.9,985.5c7.67,3.34,22.5-12.11,18.26-19.72s-24.66-11.81-28.73-6.5C348.51,964.38,355.26,982.12,362.9,985.5Z"/><path class="cls-10" d="M353.64,958.24a26.43,26.43,0,0,1,4.6,0c6.72.66,14.55,3.92,16.61,11.09,1.78,6.24-1,12.79-7.42,14.81a11.74,11.74,0,0,1-6.49.1,10.9,10.9,0,0,0,2,1.22c7.67,3.34,22.5-12.11,18.26-19.72C377.25,958.76,359.52,954.63,353.64,958.24Z"/><path class="cls-11" d="M249.67,889.52c1.7,11.31,3.46,22.78,7.23,33.63,3.7,10.65,8.28,20.7,12.35,31.16.12.32.76.81.6.16-2.49-9.62-7-18.47-9.75-28-3.5-12.17-6.93-24.24-9.69-36.61C250.31,889.44,249.55,888.7,249.67,889.52Z"/><path class="cls-11" d="M232.14,751.25c.48,8.87-.77,17.75-.28,26.64.56,9.83.92,19.64,2.14,29.4,2.34,18.5,5.38,36.63,10.47,54.53.2.72,1.68,2.2,1.4.62-2.91-16.81-6.35-33.47-9-50.38-1.66-10.83-2.12-21.72-3-32.63-.74-9.19.12-18.57-1.14-27.7C232.74,751.47,232.1,750.67,232.14,751.25Z"/><path class="cls-12" d="M336.24,285.17S174.21,341.33,53,325.28c0,0-27.82-6.38-41.49,8.81s-24,107.85,23.61,118,212.56,18.34,283.24-51.86S389.74,261.81,336.24,285.17Z"/><path class="cls-8" d="M336.24,285.17a938.45,938.45,0,0,1-135.53,33.67c13.13-.36,26.38-2,39.39-.14,5.69.8,13.09,2.22,16.6,7.38,2.9,4.28,2.42,9.65.84,14.35-3.43,10.15-9.85,19.48-16.28,27.95a105.57,105.57,0,0,1-23.9,23.46c-18.35,12.69-40.87,18.47-62.57,22.35-10.77,1.95-21.63,3.41-32.5,4.67-11.51,1.36-23.36,3.72-34.95,2-2.3-.32-6-.34-7.59-2.46s-1.92-5.95-2.44-8.63c-2.44-12.05-1-25-8.69-35.39a.88.88,0,0,1,.14-1.1c5.79-5.18,11.29-12.91,11.73-21,.54-10-7.88-12.73-16.55-12.05a.91.91,0,0,1-.78-1.36c2.14-4.26,2.24-9.13.28-12.47q-5.3-.51-10.49-1.2s-27.82-6.38-41.49,8.81-24,107.85,23.61,118,212.56,18.34,283.24-51.86S389.74,261.81,336.24,285.17Z"/><path class="cls-8" d="M336.24,285.17s-6.85,2.36-18.71,6a55.18,55.18,0,0,1-5.89,8c-6.94,7.83-16.21,12.91-23.36,20.52A314.05,314.05,0,0,0,262.86,350c-7.71,10.61-15.13,21.46-22,32.63-6.58,10.77-13,21.63-20.67,31.66-6.73,8.77-14.7,17.28-24.86,22-9.45,4.34-19.68,6.35-30,7.41-20.12,2.08-41.35,5.2-61.55,2.86-8.83-1-18.27-2.94-25.56-8.35C71.3,433.05,68.32,425.08,67,416.8c-1.58-9.65-1.42-19.42-2.62-29.09a98.1,98.1,0,0,0-10.77-34c-5.82-10.64-16.25-24.42-30-22.95-6.45.68-10.71,4-15.16,8.1C-3.46,363.05-8.9,442.74,35.07,452c47.66,10.11,212.56,18.34,283.24-51.86S389.74,261.81,336.24,285.17Z"/><path class="cls-8" d="M29.25,450.22a14,14,0,0,0,6.57-2.36c14.59-9.57,19.83-29.72,21.31-46.06,1.42-15.41,1-32.56-5-47.07-4.52-11.05-12.23-20-22.48-23.6a19.28,19.28,0,0,0-6.14-.34c-6.45.68-10.71,4-15.16,8.1C-2.9,361.93-8.34,435.29,29.25,450.22Z"/><path class="cls-8" d="M52.17,354.73c-4.52-11.05-12.23-20-22.48-23.6a19.28,19.28,0,0,0-6.14-.34,21.55,21.55,0,0,0-11.23,4.78,9.48,9.48,0,0,1,3.46-1.3,20.65,20.65,0,0,1,10.29.7,40.41,40.41,0,0,1,17.19,13.15c9.35,11.81,11.17,29.06,11,43.68-.18,16-1.74,33.72-10.77,47.41a64.19,64.19,0,0,1-4.9,6.61c12.51-10.19,17.17-28.76,18.55-44C58.55,386.39,58.09,369.24,52.17,354.73Z"/><path class="cls-9" d="M37.54,322.48c-9.31-4.06-20.06,2.36-23.94,7.5-.4,4.09,6.18,3.51,10,2.85a46.61,46.61,0,0,0,9.56-2.44C38.1,327.58,41.52,324.24,37.54,322.48Z"/><path class="cls-10" d="M38.16,322.82a.47.47,0,0,1,.16.18.91.91,0,0,1-.54,1.34c-4.37,1.3-8.45,1.16-12.35,4-2.61,1.93-4.89,4.23-8.15,4.81a.15.15,0,0,1-.1,0,23.39,23.39,0,0,0,6.41-.38,46.61,46.61,0,0,0,9.56-2.44C37.82,327.76,41.1,324.64,38.16,322.82Z"/><path class="cls-9" d="M44.34,345.22c7.23-.46,19.52-12.57,13.09-16.5-12.39-7.6-35.09,1.4-30.36,4.77C37.48,340.87,40.6,345.44,44.34,345.22Z"/><path class="cls-10" d="M57.43,328.72l0,0a4.13,4.13,0,0,1-.56,3.45c-2.72,4.68-10.83,9.2-16.33,7.64-4.06-1.16-11.45-5-9.71-10.23a4.4,4.4,0,0,1,.54-1.06c-3.94,1.69-6,3.73-4.26,5,10.41,7.38,13.53,11.95,17.27,11.73C51.57,344.76,63.86,332.65,57.43,328.72Z"/><path class="cls-9" d="M58,368c6.91,2.18,20.58-12.07,16-18.06-8.81-11.53-31.11-3.92-27.91.9C53.11,361.49,54.39,366.87,58,368Z"/><path class="cls-10" d="M74,349.94a12.3,12.3,0,0,0-1.82-2,5.1,5.1,0,0,1-.81,5.86c-3.84,4.69-12.73,7.65-17.67,2.95-3-2.89-5.4-7.39-3.8-10.83-3.13,1.42-4.87,3.3-3.81,4.9,7,10.65,8.33,16,11.91,17.16C64.88,370.18,78.55,355.93,74,349.94Z"/><path class="cls-13" d="M191.2,322.74c-19.47,3.6-39,6.08-58.72,7.73-9.69.8-19.32.54-29,.32-9.15-.22-18.45.46-27.54-1-.16,0-.48.43-.28.48,8.71,2.31,17.93,2,26.88,2.09,8.65.14,17.39.74,26,0,20.66-1.89,42-3.11,62.15-8.33C191.06,323.84,191.84,322.62,191.2,322.74Z"/><path class="cls-13" d="M7.11,351.58c.14-.6-.68.06-.76.36a117.72,117.72,0,0,0,.26,59.93c.16.54,1.22-.64,1.16-1.1C4.51,390.39,2.47,371.92,7.11,351.58Z"/><path class="cls-2" d="M545.1,386c-7.37-16.41-17.16-31.81-31.11-43.43-13.61-11.35-29.7-19.52-46.54-25-45.6-14.73-97-12.59-139.68,10.09a166.1,166.1,0,0,0-31.7,21.72c-8.19,7.21-15.13,15.61-21.82,24.2-6,7.73-11.95,16-18.45,23.74-26.91,51.34-60.49,102.46-62.26,162.27-2.22,76.86,46.4,143.24,119.46,163.64,52.78,14.73,119,25.68,170.93,2.54,56.92-25.38,88.67-81.21,80.18-143.26C550.16,480.35,548.54,424,545.1,386Z"/><path class="cls-8" d="M564.11,582.49c-14-102.14-15.57-158.45-19-196.54-7.37-16.41-17.16-31.81-31.11-43.43-13.61-11.35-29.7-19.52-46.54-25-45.6-14.73-97-12.59-139.68,10.09a166.1,166.1,0,0,0-31.7,21.72c-8.19,7.21-15.13,15.61-21.82,24.2-6,7.73-11.95,16-18.45,23.74-26.91,51.34-60.49,102.46-62.26,162.27-2.22,76.86,46.4,143.24,119.46,163.64,52.78,14.73,119,25.68,170.93,2.54C540.85,700.37,572.6,644.54,564.11,582.49Zm-84.95-50.76a9.34,9.34,0,0,1-5.94,7.59c-3.47,1.42-6.91,2.66-10.29,4.1-7.09,5.78-14.19,11.57-19.1,19.42-14.95,23.75-13.17,54.08-13,80.88.06,9.47,1.28,20.78-4.27,29.1-4.2,6.31-10.5,10.83-17.27,14.1-15,7.24-31.87,10.4-48.3,12.33-23.84,2.78-49.24,4.1-72.6-2.51-35.05-9.92-61.31-37.11-74-70.53-11.63-24.08-15.63-51.19-14.51-78.39.6-14.75,2-30.08,6.83-44.11,3.44-9.95,9.56-21.88,21.23-23.44,10-1.3,19.42,4.2,29.25,4.8,14.07.84,28.26-1.86,42.23-3.2,11.67-1.12,23.5-1.34,34.83,2.12s21.12,10,31.06,16.45c10.35,6.75,21,13.23,33.11,16.4s24.68,5.8,37.35,5.32c1.24,0,2.86-.08,4.57,0,8.27-1.56,16.55-2.74,25.1-1.7C470.84,521.1,480.26,524.74,479.16,531.73Z"/><path class="cls-8" d="M551.88,474.54c-6.3,3.47-12.77,6.65-19.31,9.61a163.3,163.3,0,0,1-33.73,11.35c-13,2.7-26.1,4.48-38.89,7.83,25.36,12.65,55.3,11.29,82,3.72a.89.89,0,0,1,1.12.64c3.53,10.09,3.17,21-8.18,25.16-7.21,2.66-15.11,2.88-22.7,3.14-10.11.3-20.14,1.18-29.65,4.89-18,7-31,21.61-37.87,39.47-8.47,22.14-9.73,47.38-6.35,70.68a282.21,282.21,0,0,0,9.1,39.27c2.14,7.2,3.76,16.13-.42,23-3.91,6.4-11,9.73-17.9,11.81a192.23,192.23,0,0,1-31.91,6.38,215.52,215.52,0,0,1-48.7.38c45,9.21,94.6,12.07,135.42-6.1,56.92-25.38,88.67-81.21,80.18-143.26C558.15,538.86,554.44,503.61,551.88,474.54Z"/><path class="cls-2" d="M298.69,321S185.28,443.86,227,472.46c23.76,16.29,84.59-19.13,143.06,16.37s185.56,27.61,190.2-10.26.86-136.8-39.57-174.73S298.69,321,298.69,321Z"/><path class="cls-8" d="M520.7,303.84c-40.44-37.91-222,17.14-222,17.14S185.28,443.86,227,472.46c23.76,16.29,84.59-19.13,143.06,16.37s185.56,27.61,190.2-10.26S561.13,341.77,520.7,303.84ZM482.81,466.92c-4.15,15.35-17.66,24-32.85,25.68-16.66,1.86-33.77-1.86-49.57-6.91-22.94-7.32-44.85-16.81-68.77-20.8-14.25-2.38-29.31-3.68-43.66-1.3-11.35,1.87-22.72,5.15-34.29,5.21-14.51.06-29.78-6.43-30.38-22.78-.54-14.87,7.38-29.58,14.81-41.93,4.46-7.43,9.43-14.5,14.47-21.5,6.81-13.19,15.44-25.52,26.34-35.31,4.81-4.32,12.23-11.81,19.42-8.35,7,3.36,10.51,11.43,16.19,16.38,19,16.49,45.52,23.09,70.06,24.76,13.05.88,25.94-1.95,39-1.15,45.88,2.91,49.35,43.5,53.85,55.79C481.06,444.56,485.69,456.31,482.81,466.92Z"/><path class="cls-8" d="M520.7,303.84c-40.44-37.91-222,17.14-222,17.14s-1.2,1.28-3.28,3.6c8,13.31,23.9,22.78,36.93,29.18a174.43,174.43,0,0,0,76.28,17.52c21.9,0,49.37-12.25,69.06,2.2,16.92,12.45,39.17,96.7,24.74,112.21-7.06,7.61-16.61,12.21-26.42,15.19A137.37,137.37,0,0,1,441,507a181,181,0,0,1-24.78-1c62,13.41,140.42,2.14,144-27.46C564.89,440.74,561.13,341.77,520.7,303.84Z"/><path class="cls-2" d="M449.52,583.51c-10.46,28.93-9.77,67.16-2.88,92.18a138.41,138.41,0,0,0,19.63,42.45c1.94,2.74,4.07,5.35,6.29,7.91a127.78,127.78,0,0,0,48.26,28.62c32.64,10.85,67.77,10.89,101.7,7.91,33.43-2.92,66.63-9.77,98.12-21.52,10.07-3.76,19.78-8.39,29.46-13,11.17-5.3,22.24-10.85,32.89-17.15,10.11-6,20.4-12.57,28.5-21.16,3.19-3.36,6.27-7.21,7.89-11.61,1.92-5.19.8-11-1.22-16-4.56-11.25-12.73-21-21.12-29.61a166.21,166.21,0,0,0-28.74-23.48c-13.69-8.8-29.69-16.91-46.24-20.71-10.23,1.58-20,5.32-29.74,9.36-15.9,6.55-31.57,14.1-48,19.32-10.51,3.36-49.14-55.87-122.78-69.12C480.74,540.56,460.19,554,449.52,583.51Z"/><path class="cls-3" d="M818.16,662.16c-4.56-11.25-12.73-21-21.12-29.61a166.21,166.21,0,0,0-28.74-23.48c-13.69-8.8-29.69-16.91-46.24-20.71-10.23,1.58-20,5.32-29.74,9.36-15.9,6.55-31.57,14.1-48,19.32-10.51,3.36-49.14-55.87-122.78-69.12-40.84-7.36-61.39,6.07-72.06,35.59-10.46,28.93-9.77,67.16-2.88,92.18a138.41,138.41,0,0,0,19.63,42.45c1.94,2.74,4.07,5.35,6.29,7.91a127.78,127.78,0,0,0,48.26,28.62c32.64,10.85,67.77,10.89,101.7,7.91,33.43-2.92,66.63-9.77,98.12-21.52,10.07-3.76,19.78-8.39,29.46-13,11.17-5.3,22.24-10.85,32.89-17.15,10.11-6,20.4-12.57,28.5-21.16,3.19-3.36,6.27-7.21,7.89-11.61C821.3,672.94,820.18,667.16,818.16,662.16Zm-25.54,10.68c-5,6.19-11.13,11.17-17.17,16.24-5.55,4.62-10.87,9.51-16.62,13.89a218.43,218.43,0,0,1-37.55,23.2,268.13,268.13,0,0,1-82.77,24.26c-45.73,5.84-96.2,4.26-136.27-21-19.19-12.09-36.27-28.66-45-49.92-9.12-22.06-10.26-46.22-8.62-69.78a.83.83,0,0,1,.34-.66,50.52,50.52,0,0,1,4.72-16.33,23,23,0,0,1,4.12-6.61,32.81,32.81,0,0,1,3.53-3.82c9.23-8.37,21.86-11.43,34.09-11.37a74.35,74.35,0,0,1,20.15,2.92c77,12.45,169.58,106.85,175,114.42,0-11.85-4.64-23.54-10.86-33.45-6.77-10.75,50.22-26.74,56-17,8,13.55,25,5.3,35.87.22a.92.92,0,0,1,1.34,1c-1.9,7.42-5.38,17.45-2.62,25.06,3.12,8.52,14.43,7.74,21.76,7.14C792.84,671.2,793,672.3,792.62,672.84Z"/><path class="cls-8" d="M580.31,580.87c22.33,13.31,43.61,29.3,63.61,45.9a191.94,191.94,0,0,1,27.28,27c-1.48-2.18-3-4.32-4.44-6.47-3.37-4.94-12.55-15.11-8.17-21.65,3.48-5.23,9.95-8,15.61-10.21,6.51-2.5,13.33-4.11,19.82-6.59,9.11-3.52,18.39-7.48,28.18-8.7,9.39-1.15,17.52,1,25.94,5.2,5.05,2.5,9.89,5.32,14.77,8.11,4.41,2.5,9.25,5.8,14.18,7.22a11.06,11.06,0,0,0,6.8-.22,166.51,166.51,0,0,0-15.59-11.41c-13.69-8.8-29.69-16.91-46.24-20.71-10.23,1.58-20,5.32-29.74,9.36-15.9,6.55-31.57,14.1-48,19.32-10.51,3.36-49.14-55.87-122.78-69.12-40.84-7.36-61.39,6.07-72.06,35.59a132,132,0,0,0-6.09,24.94c2.37-10.81,6.47-21.2,13.59-29.7C488.09,541.7,545.42,560.05,580.31,580.87Z"/><path class="cls-9" d="M835.09,674.61c3.39-10-17.75-27-26.88-20.82s-15.61,25.76-8.47,30.3C806.59,688.48,831.71,684.63,835.09,674.61Z"/><path class="cls-10" d="M824.58,656.83c3,4.65,3.39,10.15-.76,15.83-4,5.51-14.65,13.66-22.05,10-6.45-3.16-3.75-11.13-2.33-16.49.08-.3.22-.92.4-1.7-3.66,7.74-4.64,16.71-.1,19.59,6.85,4.39,32,.54,35.35-9.48C837,669.12,831.43,661.56,824.58,656.83Z"/><path class="cls-9" d="M781.79,623.66c2.66-7.9-14-21.31-21.24-16.45s-9.59,25.62-4,29.21C762,639.88,779.11,631.59,781.79,623.66Z"/><path class="cls-10" d="M779.19,615a15.55,15.55,0,0,1-4,11.23c-4.22,4.84-14,10.53-19.65,4.7a8,8,0,0,1-2-4.52c0,4.64.92,8.64,3.1,10,5.42,3.46,22.52-4.83,25.2-12.76C782.65,621.08,781.45,617.9,779.19,615Z"/><path class="cls-9" d="M817.64,652.55c3.38-10-17.78-27-26.88-20.84s-15.62,25.78-8.49,30.33C789.14,666.42,814.24,662.56,817.64,652.55Z"/><path class="cls-10" d="M812.9,639.8a13.22,13.22,0,0,1,1.62,6c0,7.17-7,12.13-13.09,14.43s-16.44,3.21-21.38-1a5.92,5.92,0,0,0,2.22,2.83c6.87,4.38,32,.52,35.37-9.49C818.9,648.74,816.68,644,812.9,639.8Z"/><path class="cls-11" d="M219.19,492.52c-10.05,20-14.38,41.51-15.28,63.91-.94,23.36,6.51,46.76,15.29,68.1.09.19.53-.24.45-.43-16-40.15-17.68-91.87,0-131.68C219.87,492,219.31,492.3,219.19,492.52Z"/><path class="cls-11" d="M265.88,369.68c-10.71,16-22.24,31.2-32,47.84-6.53,11-14,30.1-1.92,40.15.44.36,1.46-.92,1.08-1.34-13.31-14.55,1.4-35.33,9-48.62,7.51-13,16.76-25,24.3-38C266.62,369.24,266.08,369.36,265.88,369.68Z"/><path class="cls-11" d="M550.18,741.26c-23.78-6.56-44.9-17.17-62.51-34.85-19.06-19.09-31.49-46.72-33.29-73.58,0-.42-.7.26-.7.52,0,52.31,43.56,102.87,95.74,109.19C549.86,742.6,550.74,741.42,550.18,741.26Z"/><path class="cls-11" d="M645.9,44.87c0-.4-.66.22-.66.48.72,13.25,1.84,26.24.32,39.53-.12,1.07,1.68-.6,1.82-1.12C650.5,70.93,647.44,57.68,645.9,44.87Z"/><path class="cls-14" d="M464.11,95.69c1.9,1.9,3.44,4.11,5.69,5.67.86.6,2.54.06,3.34-.34a18.14,18.14,0,0,0,3.12-2C472.28,97.74,468.19,96.69,464.11,95.69Z"/><path class="cls-15" d="M456.36,93a29,29,0,0,0-1.1-4.5c-4.62-10.83-10.83-21-14.27-32.35C436.36,41,433.84,21.71,436.22,6c.26-1.78,1.18-3.9.6-5.64-.08-.28-.42-.31-.64-.32-4.6-.51-9.71,2.52-13.71,4.28-23.92,10.59-49.56,43-32.71,69.11,3.77,5.83,17.88,24.37,38.48,30.63,3.38,1,5.14-3,7.8-.7,2.88,2.54,4.19,6.15,6.95,8.71.78.7,2.51.42,3.37.14C454.44,109.57,461.07,100.48,456.36,93Z"/><path class="cls-16" d="M456.36,93a29,29,0,0,0-1.1-4.5c-4.62-10.83-10.83-21-14.27-32.35-4.19-13.65-6.63-30.78-5.31-45.56C420.83,18.71,409,31.34,404.32,48c-.34,1.25-.68,2.53-1,3.83a54.42,54.42,0,0,0,.14,21.58,33.25,33.25,0,0,0,9.86,17.73,40.88,40.88,0,0,0,3.19,2.58A93,93,0,0,1,427.3,98a38.08,38.08,0,0,1,8.74,5.38c.18.16.34.34.52.5,4.79,1.92,9.62,3.82,14.18,6.2C456.56,106.18,460.19,99.06,456.36,93Z"/><path class="cls-17" d="M436.2.06c-.46.54-.94,1.1-1.38,1.68-8.69,11.33-12.13,26.14-13.41,40.11-1.24,13.65-.94,28,5.12,40.55,4.85,10,15.24,19,21.59,29.13,7.24-3.31,12.61-11.59,8.24-18.56a29,29,0,0,0-1.1-4.5c-4.62-10.83-10.83-21-14.27-32.35C436.36,41,433.84,21.71,436.22,6c.26-1.78,1.18-3.9.6-5.64C436.74.11,436.42.07,436.2.06Z"/><path class="cls-18" d="M457.92,98.56h0v-.5a5.46,5.46,0,0,0,0-.58c0-.12,0-.23,0-.33s0-.26-.07-.4-.08-.44-.13-.66a1.69,1.69,0,0,0-.09-.34,1.15,1.15,0,0,0-.08-.28,6.24,6.24,0,0,0-.28-.76c0-.14-.08-.24-.12-.36a.5.5,0,0,1-.08-.14,8.23,8.23,0,0,0-.66-1.24,29,29,0,0,0-1.1-4.5c-4.62-10.83-10.83-21-14.27-32.35-.48-1.58-.94-3.22-1.38-4.88-.05-.2-.1-.38-.14-.58-.42-1.62-.81-3.27-1.17-4.93-.06-.24-.1-.48-.16-.72-.36-1.7-.68-3.4-1-5.12,0-.2-.08-.4-.12-.58-.28-1.82-.56-3.67-.78-5.49l0-.14a111.14,111.14,0,0,1-.58-23.12v0c.14-1.56.3-3.08.54-4.56.26-1.78,1.18-3.9.6-5.64a.33.33,0,0,0-.26-.24s0,0,0,0c-.36.33-.74.63-1.08.93-7.58,7.1-11.85,15.89-14.85,25.74a95.67,95.67,0,0,0-4.28,31.34,77.19,77.19,0,0,0,2.16,16.32c.8,3.1,2.92,6.8,2.8,10-.16,3.81-10.77,1.2-12.55.69A26.86,26.86,0,0,1,393,72.49c-6.75-11.75-6.87-24-3.93-36.11-5.84,11.87-7,25.15.68,37.07,3.77,5.83,17.88,24.37,38.48,30.63,3.38,1,5.14-3,7.8-.7,2.88,2.54,4.19,6.15,6.95,8.71.78.7,2.51.42,3.37.14.6-.2,1.18-.46,1.76-.7h0s0,0,.08,0a19.73,19.73,0,0,0,2.54-1.41h0c.4-.28.78-.55,1.16-.86.14-.1.26-.22.4-.34s.48-.4.72-.6.28-.28.42-.42l.6-.62a.53.53,0,0,0,.1-.12l.32-.34.5-.62a1.53,1.53,0,0,1,.16-.22,2.69,2.69,0,0,0,.22-.28c.16-.22.3-.44.44-.64s.1-.16.14-.24a2.43,2.43,0,0,0,.2-.28,3.48,3.48,0,0,1,.2-.38c.06-.12.14-.24.2-.38l.08-.14a2.83,2.83,0,0,0,.16-.36,3.19,3.19,0,0,0,.2-.46,4.81,4.81,0,0,0,.32-.84c.06-.16.13-.32.18-.48a2.42,2.42,0,0,1,.1-.36,2.09,2.09,0,0,1,.08-.34.85.85,0,0,0,0-.22,2.83,2.83,0,0,0,.08-.4c0-.1,0-.2.07-.3a3.57,3.57,0,0,1,0-.46c0-.18,0-.38.05-.58ZM433.6,81.94a.91.91,0,0,1-1.52.4c-5.73-5.76-6.65-15.23-7.55-22.92a90.6,90.6,0,0,1-.1-19.75,54.6,54.6,0,0,1,4.33-20c.36-.84,1.74-.4,1.7.46-.66,12.07-.46,24.28,1.7,36.21C433.68,64.59,436.36,73.7,433.6,81.94Z"/><path class="cls-2" d="M575.92,219c1.4-19.43,1.7-39,3.62-57.54,1.17-11.29,1.31-22.72-2.42-33.59-6.88-20-23.34-33.47-42.69-40.83a162.87,162.87,0,0,0-38.95-9.65c-26.35-2.82-53.31,3.54-74.49,19.73-11.95,9.11-21.48,21-31.09,32.43-17.81,21.16-37.47,41-60,57.15-13.54,9.73-27.59,17.43-39.16,29.72-9.9,10.51-16.21,27-14.81,41.5.52,5.46,2.34,12.55,5.77,16.83a1.62,1.62,0,0,0,1.06.6,7.88,7.88,0,0,0-1.32.18,8.91,8.91,0,0,0-2.61,1.32,30.11,30.11,0,0,0-7.18,5.89c-3,3.26-4,8.26-.26,11.47.88.76,9,4.26,17.81,8.28,3.47,9.91,12.89,27.72,37.71,39,21.28,9.65,50.28,20.3,81.57,21.14,29,.78,60.41-4.56,87.1-15.87,29.14-12.37,54-33.07,66.83-62.53C571.22,264,574.3,241.55,575.92,219Z"/><path class="cls-19" d="M512.53,158.12c4.46,1.24,9.29,3.55,12.45,7,2.94,3.24,4.24,7.15,6,11,5.28-12,5.38-31.63-12.21-31.27-11.92.26-29.71,7.43-30.79,21C494.64,160.11,503.64,155.6,512.53,158.12Z"/><path class="cls-19" d="M415.91,127.4c-7.07-3.12-15,2.44-20.3,7.35,10.85.26,18,10.18,20.62,20.39,2.08-4.1,4.3-8.25,5.22-12.73C422.55,137.07,421.61,129.9,415.91,127.4Z"/><path class="cls-19" d="M294.13,242.29a24.84,24.84,0,0,0-2.65,6.35c2.53-3.22,5.61-5.59,8.63-3.45,7.15,5.07,7,16.68,7.13,25.19a37.48,37.48,0,0,0,2.54-9.25c1.08-5.75,1.54-12.41-1.74-17.64C304.62,238.05,298,235.87,294.13,242.29Z"/><path class="cls-19" d="M395,298.76a12,12,0,0,1-5.91-4.16c1,3,2.39,5.8,4.83,7.26,6.14,3.65,13.39,0,15.65-6.18C404.84,298.08,400.49,300.3,395,298.76Z"/><path class="cls-19" d="M294.21,282a12.46,12.46,0,0,1-7-3.77c1.08,4.07,3.78,7.85,8.57,7.51,4-.26,6.88-2.66,8.83-5.85C301.33,281.41,297.91,282.47,294.21,282Z"/><path class="cls-19" d="M380.68,269.25c8.44-8,14.87-19.07,13.65-30-.64-5.64-3.28-12.09-8.57-14.85-6.3-3.32-13.43-2.1-19.87.14a86.17,86.17,0,0,0-15,6.82,134.43,134.43,0,0,0-14.77,10.89,63.62,63.62,0,0,0-13.57,17.94,18.24,18.24,0,0,0-.4,2.58.9.9,0,0,1-.8.84,17.14,17.14,0,0,0,.94,6.13c2.12,5.86,7.49,10,13.35,11.6,10.63,3,23,1.25,32.95-3.56A50.54,50.54,0,0,0,380.68,269.25Z"/><path class="cls-19" d="M419.63,254.56c-9.81-5.34-21.12,11.55-26,21.5,2.06-2.26,7.74-9.75,9.87-11.51,3.92-3.26,7.36-5,12-1.58,6.12,4.58,3.64,15.13,2.42,22.4a30.49,30.49,0,0,0,5.72-13.29C424.61,266.77,425.39,257.69,419.63,254.56Z"/><path class="cls-19" d="M404.32,155.1c-8.43,1.08-14.08,15.31-12.55,22.74a.77.77,0,0,1,0,.48h0c1.2-.06,1.18,1.74,0,1.82-.94.06-1.91.12-2.85.2a45.83,45.83,0,0,1,8,3.36,34.14,34.14,0,0,1,8.37,5.75,20.88,20.88,0,0,1,2.8,3.8,21.57,21.57,0,0,0-4.46-10,.94.94,0,0,1,0-1.3,33.23,33.23,0,0,0,7.74-14.17C412.56,162.87,411.52,154.16,404.32,155.1Z"/><path class="cls-19" d="M519.34,210.79a.92.92,0,0,1-.42-1.52c4.46-5.61,9.66-16.84,5.5-23.78-6-10-16.55-3.35-20.66,4.2a37.21,37.21,0,0,0-4.08,10.81c-.5,2.66.52,6.26-.7,8.73s-6.33,1.78-8.57,2.22l-.12,0c.38,0,.76,0,1.12.08,5,.36,10.09.48,15.07,1.14a97.41,97.41,0,0,1,24.87,6.62C528.1,215.47,524.3,212.13,519.34,210.79Z"/><path class="cls-19" d="M577.12,127.82c-6.88-20-23.34-33.47-42.69-40.83A166.94,166.94,0,0,0,502,78.24,70.75,70.75,0,0,1,527,97.74c14.25,17.51,18.6,39.07,17.06,61.28-.83,11.77-3,23.62-7.57,34.57a82.38,82.38,0,0,1-7.41,14.67c-1.06,1.59-2.24,3.11-4.26,3.35-6.49.7-12.79-.66-19.2-1.44a60.6,60.6,0,0,0-12.47-.7c-1.42.12-3.82.22-4.9,1.34a3.08,3.08,0,0,1-.56.42c6.72,2.4,14.25,3,20.52,6.52a19.27,19.27,0,0,1,10,15.76c1.26,15.75-8.13,32.32-16.86,44.83-8.55,12.23-20.86,23.82-37.09,21-.76-.12-1.48-.3-2.22-.48l-.14,0a2.08,2.08,0,0,0-.24-.1,27.23,27.23,0,0,1-17.4-14.05c-1.5,5.48-1,11.25,3.15,16.11a.93.93,0,0,1,0,1.28c-2.43,2.52-3.71,5.49-6.63,7.65a34.32,34.32,0,0,1-8.39,4.46,86.9,86.9,0,0,1-20.88,4.35,188.34,188.34,0,0,1-58.89-3.47,191,191,0,0,1-31.4-9.79c-10-4-19.94-8.42-30.37-11.22-5.46-1.49-14-1.77-18.19-6a5.94,5.94,0,0,1-1.86-4.32c-2.24,3.22-2.7,7.5.62,10.37.88.76,9,4.26,17.81,8.28,3.47,9.91,12.89,27.72,37.71,39,21.28,9.65,50.28,20.3,81.57,21.14,29,.78,60.41-4.56,87.1-15.87,29.14-12.37,54-33.07,66.83-62.53C571.22,264,574.3,241.55,575.92,219c1.4-19.43,1.7-39,3.62-57.54C580.71,150.12,580.85,138.69,577.12,127.82ZM439.28,338.59c-3.84,10.49-10.08,16.7-21.23,18.9-6.49,1.3-13.87,2.56-20.26,0a62.08,62.08,0,0,1-18-10.59c-.62-.54,9.38,2,9.48,2.16,16,5.34,37.13,0,48.48-11.41C438.38,337.09,439.61,337.69,439.28,338.59Z"/><path class="cls-19" d="M577.12,127.82c-6.68-19.44-22.38-32.65-41-40.13a79.17,79.17,0,0,1,19,24.54c.31.66-.21,1.64-1,1.34a26.7,26.7,0,0,0-6.12-1.06c-.18,16.11,6.2,38.31,23.58,43a.9.9,0,0,1,.66.88c.14,10.87,0,21.74-.82,32.59-3.68,50.54-19.56,101.92-57.91,137.05-16,14.63-35.17,25.1-55.57,32.23A196.37,196.37,0,0,0,495.6,346.7c29.14-12.37,54-33.07,66.83-62.53C571.22,264,574.3,241.55,575.92,219c1.4-19.43,1.7-39,3.62-57.54C580.71,150.12,580.85,138.69,577.12,127.82Z"/><path class="cls-20" d="M564.49,273.92c-5.44,14.65-13.79,28.44-25.26,39.15-12.51,11.73-27.58,20.34-43.21,27.2A216,216,0,0,1,472.3,349c-7,2.1-14.82,5.53-22.22,4.64a.92.92,0,0,1-.64-1.56,57.86,57.86,0,0,0,11-18.75,85.48,85.48,0,0,1-6.35,7.36c-9.19,9.43-22.1,16.18-34.95,19.1-15.35,3.48-29.71-2.12-43.7-7.93-9.77-4-19.23-8.7-27.48-15.19a75.11,75.11,0,0,0,15.57,14.07.91.91,0,0,1-.7,1.66c-23.34-3.46-45.09-14.49-62.33-30.46a74.23,74.23,0,0,0,26.4,19.49c21.28,9.65,50.28,20.3,81.57,21.14,29,.78,60.41-4.56,87.1-15.87,29.14-12.37,54-33.07,66.83-62.53,7-16.2,10.41-33.77,12.31-51.77C571.64,246.34,569.48,260.55,564.49,273.92Z"/><path class="cls-17" d="M562.19,133c1.28,5.47,4.52,11.83,11.53,11.27,4.72-.4,9.11-2.4,13.79-2.9,6.41-.68,13-1.24,19.26-2.88,16.33-4.37,29.14-15,37.35-28.63,9-15,9.62-30,8.16-46.71-.36-4.17-2.76-41.44-5.66-41.22-1,.08-2.06.2-3.08.38a74.1,74.1,0,0,0-42.66,22.8c-12,13.09-16.57,26.12-19.15,42.84-1.34,8.72-4.45,20.27-11,27.06a90.69,90.69,0,0,1-8.15,6.64A21.65,21.65,0,0,0,562.19,133Z"/><path class="cls-16" d="M598.74,129.78a58.79,58.79,0,0,0,15.79-8.35c5.59-4.08,10.87-8.28,14.26-14.47,5.86-10.69,5.92-23.18,5-35-1-13.35-1.76-26.88,1.7-40a84,84,0,0,1,2.68-8.57,74,74,0,0,0-37.31,21.72c-12,13.09-16.57,26.12-19.15,42.84-1.34,8.72-4.45,20.27-11,27.06a91.42,91.42,0,0,1-8,6.48c4.91,7,15.91,8.55,23.7,8.91A52.61,52.61,0,0,0,598.74,129.78Z"/><path class="cls-17" d="M584.47,121.13c9.77-9.4,10.91-30.8,14.93-43.35A90.66,90.66,0,0,1,619,44.23c7.88-8.63,18-17.31,27.72-22.24,0,0-.08,0-.1,0-1,.08-2.06.2-3.08.38a74.1,74.1,0,0,0-42.66,22.8c-12,13.09-16.57,26.12-19.15,42.84-1.34,8.72-4.45,20.27-11,27.06a90.69,90.69,0,0,1-8.15,6.64,21.89,21.89,0,0,0-.9,7.79C563.33,128.6,572.82,132.34,584.47,121.13Z"/><path class="cls-18" d="M633.73,110.79a100.29,100.29,0,0,1-21.5,9.8C607.69,122,603.1,123,598.44,124c-2.76.56-5.42,1.08-8.19.22a.93.93,0,0,1-.56-1.32c14-29.25,19.26-66.46,46.5-87.36,3.52-2.68,9.33-7.22,13.25-2.88-.82-6-1.74-10.45-2.72-10.63h0s-.08,0-.1,0c-1,.08-2.06.2-3.08.38-1.34.22-2.69.46-4,.74a1,1,0,0,1-.4,1c-12,8.53-26.26,13.46-34.71,26.19-6.78,10.2-9.56,21.77-11.74,33.66C590,98.54,586,122,568.22,125.32a.92.92,0,0,1-1.11-1.12c.87-3.89,3.75-6.75,5-10.45a4.67,4.67,0,0,1,.14-.5c-.5.62-1,1.22-1.54,1.78-.1.08-.24.22-.4.38s-.34.3-.54.46c0,0-.06.06-.1.1-1.2,1.06-3.19,2.74-5.35,4.38a1,1,0,0,0-.22.2c-.32.2-.6.44-.9.66a7.42,7.42,0,0,0-.64.46,20.75,20.75,0,0,0-.58,2.45l-.12.78a14.63,14.63,0,0,0-.18,1.86c0,.26-.06.5-.06.74,0,.66,0,1.32,0,2h0a21.19,21.19,0,0,0,.5,3.56c1.28,5.47,4.52,11.83,11.53,11.27,4.72-.4,9.11-2.4,13.79-2.9,6.41-.68,13-1.24,19.26-2.88,16.33-4.37,29.14-15,37.35-28.63a59.28,59.28,0,0,0,5.44-11.74A62.88,62.88,0,0,1,633.73,110.79Z"/><path class="cls-14" d="M410.62,271.68a.44.44,0,0,0-.38-.3c-1.7-2.09-7.54,4.92-8.21,5.86-2.24,3.14-5.26,7.15-6.06,11.19-.56,2.22-.3,4.12,2.36,3.72,4.17-.62,7.37-1.82,9.71-5.54S412.3,275.86,410.62,271.68Z"/><path class="cls-20" d="M395.59,274.24a76.09,76.09,0,0,1,10.93-9.17c4.1-2.66,9.35-1.84,10.77,3.3a22.09,22.09,0,0,1,.74,7.33c2-6.93,2.54-18.94-6.13-16.33-5,1.5-8.94,5.44-12.33,9.16a44,44,0,0,0-5.94,7.53C394.51,275.2,395.31,274.52,395.59,274.24Z"/><path class="cls-14" d="M297.17,254.68a.46.46,0,0,1,.48,0c2.6-.66,3.08,8.47,3,9.63-.1,3.86-.08,8.87-1.88,12.57-.86,2.12-2.2,3.5-4.1,1.56-3-3-4.81-5.88-4.45-10.27S293.31,257,297.17,254.68Z"/><path class="cls-20" d="M307.66,265.75a73.57,73.57,0,0,0-3.26-13.87c-1.67-4.62-6.37-7.11-10.59-3.84a21.07,21.07,0,0,0-5,5.44c2.56-6.76,9.35-16.69,14.69-9.41,3.09,4.19,3.91,9.73,4.37,14.74a43.06,43.06,0,0,1,.24,9.58C307.94,267.17,307.72,266.15,307.66,265.75Z"/><path class="cls-19" d="M473.88,302.78c-4.77,0-9.53.5-14.25-.58-4.31-1-8.81-2.32-12.11-5.38-1.18-1.1-2.51-2.22-3.63-3.47a17.26,17.26,0,0,0,6.37,7.55c-.12.3-.22.58-.34.88a.72.72,0,0,0-.14.2c-.32.64-.58,1.24-.82,1.84-3.16,5.73-9.37,9.15-15.08,12.19a73.64,73.64,0,0,1-20.94,7c-14.75,2.7-29.1,1.58-43.83-.52-27.1-3.84-52.69-13.95-79-21-.12,0-.38.26-.24.34,6.05,2.66,12.59,4,18.76,6.45,7.68,3,15.63,5.56,23.5,8.1,3.52,1.12,7.06,2.17,10.63,3.11,5.28,3.38,10.44,6.38,15.29,10.46s10.49,6.95,16.17,9.51c11.71,5.27,24.74,8.07,37.57,6.91a42.07,42.07,0,0,0,27.44-13.57c3.29-3.71,5.43-8.25,7.44-12.73,2.08-4.71,2-10.11,3.38-15a12.82,12.82,0,0,0,1.5-3.38c6.64,3.72,15.59,3.89,23,2.2a3.05,3.05,0,0,0,1.26-1.1C475.18,302.8,474.54,302.8,473.88,302.78Z"/><path class="cls-21" d="M446.86,313.33a49.58,49.58,0,0,1-6.95,15.89c-7.57,11.57-22.5,15.14-35.47,14.66-10.91-.4-21.88-3.85-31.73-8.39a79.64,79.64,0,0,1-15.55-9.69A39.44,39.44,0,0,0,349,321a257,257,0,0,0,33.63,5.58A96.64,96.64,0,0,0,427.08,321a69.27,69.27,0,0,0,16.67-9.27,33.26,33.26,0,0,0,4.11-3.68C447.54,309.71,447.3,311.43,446.86,313.33Z"/><path class="cls-22" d="M443.75,311.69A69.27,69.27,0,0,1,427.08,321a96.64,96.64,0,0,1-44.42,5.66,262.54,262.54,0,0,1-29.59-4.7c9.43,6.6,21.12,9.79,32.63,10.09a189.4,189.4,0,0,0,24.38-1.39c7.47-.8,14.45-3.72,21.88-4.82a.91.91,0,0,1,.88,1.52c-5.45,6.49-13.27,9.93-20.94,13.21,6.35-.72,12.55-3.8,18-6.74a.91.91,0,0,1,1.38.76c0,1.08-.06,2.12-.16,3.16a28.6,28.6,0,0,0,8.77-8.49,49.58,49.58,0,0,0,6.95-15.89c.44-1.9.68-3.62,1-5.32A33.26,33.26,0,0,1,443.75,311.69Z"/><path class="cls-19" d="M457.88,337.19c-2.74,4.26-5.6,8.27-9.68,11.39-.82.62-1.66,1.2-2.53,1.78a41.47,41.47,0,0,1-7.69,4.85A55.39,55.39,0,0,1,417.09,361a3,3,0,0,0-.42.06,73.9,73.9,0,0,1-35.19-3.9,98.47,98.47,0,0,1-17.58-8.55c-1.56-1-3.18-1.86-4.78-2.78,1.58,1.08,3.18,2.12,4.72,3.18a84.5,84.5,0,0,0,15.74,8.85,90,90,0,0,0,34.79,6.5c20-.42,39.71-13,46.3-31.94A46.66,46.66,0,0,1,457.88,337.19Z"/><path class="cls-23" d="M518.2,200.48c-2.35,7.26-7.37,12.13-11.21,10.89s-5.07-8.13-2.71-15.39,7.37-12.11,11.21-10.89S520.54,193.23,518.2,200.48Z"/><path class="cls-21" d="M512.79,192.71c-.6,1.88-2,3.08-3.2,2.7s-1.6-2.2-1-4.06,2-3.08,3.18-2.7S513.39,190.85,512.79,192.71Z"/><path class="cls-23" d="M407,171.57c-2.1,6.47-6.57,10.81-10,9.71s-4.5-7.26-2.4-13.71,6.54-10.81,10-9.71S409.1,165.11,407,171.57Z"/><path class="cls-21" d="M402.2,164.65c-.55,1.66-1.85,2.74-2.87,2.42s-1.44-2-.9-3.62,1.82-2.76,2.84-2.42S402.74,163,402.2,164.65Z"/><path class="cls-4" d="M494.68,157.54a35.14,35.14,0,0,1,9.52-2.12c4.81-.5,9.55-.42,13.85,2A26.29,26.29,0,0,1,528.76,169a9.75,9.75,0,0,0,2.12-3.56c1.09-4.26,1.17-7.17-1.28-10.89-2.54-3.92-9.58-5.54-13.83-5.36a34.56,34.56,0,0,0-21.66,8.64A5.72,5.72,0,0,1,494.68,157.54Z"/><path class="cls-4" d="M417.25,143.57c-.08.2.08-.06.48-.72a.67.67,0,0,0,.06-.12,1.7,1.7,0,0,0,.18-.28s0-.06,0-.08a5.13,5.13,0,0,0,.44-1l-.06.08a4.91,4.91,0,0,0,.16-.58c.12-3.5-.8-6.89-3.34-9.15-5-4.46-12.75-2.78-17.68,1.56a15.78,15.78,0,0,1,9.89,1.77c4.16,2.06,6.66,6,8.59,10.12A16.92,16.92,0,0,0,417.25,143.57Z"/><path class="cls-19" d="M402.74,194.83c-4.95.87-9,5.85-12.32,9.19a18.16,18.16,0,0,0-4.2,6.85c-3.3,3.8-5.36,8.32-1.4,12,3.14,2.92,9.31,1.64,12.55-.36a34.62,34.62,0,0,0,11.09-11C413,204.64,414.22,192.81,402.74,194.83Z"/><path class="cls-9" d="M378.25,182.68a45.66,45.66,0,0,0-.66,13.1c.59,6.3,1.21,13.57,4.05,19.33,1.6,3.24,4.26,6.51,8.36,5.63a22,22,0,0,0,9.71-4.91c6.13-6.16,9.81-14.77,5.11-18.85-5.13-4.47-16-12.07-24.06-17.72C379.62,179.5,378.7,180.48,378.25,182.68Z"/><path class="cls-10" d="M404.82,197c-5.13-4.47-16-12.07-24.06-17.72-1.14.24-2.06,1.22-2.51,3.42a45.66,45.66,0,0,0-.66,13.1c.59,6.3,1.21,13.57,4.05,19.33,1.6,3.24,4.26,6.51,8.36,5.63a22,22,0,0,0,9.71-4.91C405.84,209.67,409.52,201.06,404.82,197Zm-17.24,20c-4.54-1.92-5.7-9.13-6.42-13.31A97.19,97.19,0,0,1,380,193.27a21.06,21.06,0,0,1,.28-9.06.92.92,0,0,1,1.32-.55c3.9,2.21,6.08,6.37,8.36,10.05,2.41,3.93,6.91,8,7.43,12.73C397.83,210.71,393.05,219.25,387.58,216.93Z"/><path class="cls-9" d="M384,223.66c-8.61-11.33-23.34-16.1-34.63-24.06-13.61-9.61-25.14-21.54-28.94-38.29-3.86-17-10.43.86-12.61,8.14-9.55,31.91-11.63,99.08,32.46,107,10.13,1.8,21-1.1,29.93-6.77a45.63,45.63,0,0,0,11.67-10.5C390,248.62,392.41,234.69,384,223.66Z"/><path class="cls-10" d="M384,223.66c-8.61-11.33-23.34-16.1-34.63-24.06-13.61-9.61-25.14-21.54-28.94-38.29-3.86-17-10.43.86-12.61,8.14-9.55,31.91-11.63,99.08,32.46,107,10.13,1.8,21-1.1,29.93-6.77a45.63,45.63,0,0,0,11.67-10.5C390,248.62,392.41,234.69,384,223.66Zm-25.28,28.12c-.5,7.39-9,13-15.37,15-20.44,6.37-31.09-17.25-34.47-33.44-3.06-14.78-2.44-29.67-.84-44.52-.88-9.49,6.46-27.58,6.56-26.68.74,6.4.82,12.65,2.61,18.93a98.77,98.77,0,0,0,6.86,17.88,136,136,0,0,0,20.28,29.36C350.21,234.81,359.38,242,358.72,251.78Z"/><path class="cls-21" d="M323.23,252.88c-9.65-24.22-14-49.5-10.31-75.54.1-.7-.82.08-.88.44-4.5,24-3.64,54.89,10.29,76C322.59,254.18,323.37,253.24,323.23,252.88Z"/><path class="cls-21" d="M383.52,193.21c-.08-.36-.9.44-.84.8.32,2,.76,4.05,1.24,6.05.08.36.82-.4.8-.68C384.54,197.28,383.9,195.27,383.52,193.21Z"/><path class="cls-11" d="M298.73,213.37c-5.42,5.08-10.83,9.59-14,16.53-4.05,8.81-4.75,17.76-4.17,27.38,0,.55.83-.34.87-.64.54-8.48,1.2-16.71,4.2-24.76,2.7-7.26,8.19-12.49,13.33-18C299.25,213.53,299.27,212.85,298.73,213.37Z"/><path class="cls-11" d="M418,10.52c-20.14,8.35-34.75,29.59-27.83,51.71.14.48,1-.5,1-.83-1.91-21.71,7.9-39.27,26.7-50.22C418.07,11.06,418.49,10.34,418,10.52Z"/><path class="cls-11" d="M526.84,220c-2-2.1-6.06-2.76-8.75-3.5-3.78-1-7.34-.66-11.19-1.12-.34,0-1,.84-.58.94,3.17.72,6.41.7,9.55,1.66a67.4,67.4,0,0,1,9.61,3.71C526.12,222,527.34,220.51,526.84,220Z"/><path class="cls-11" d="M429.84,95.31C409,107.1,395.31,128.66,379.44,146c-.36.38-.4,1.14.2.58,17.51-16,30.06-37.69,50.14-50.76C429.92,95.69,430.16,95.15,429.84,95.31Z"/><path class="cls-11" d="M377.45,314.55c-19.89-1.18-38.87-8.22-57.74-14.95-5.87-1.78-11.79-3.42-17.82-4.74,5.17,1.76,10.39,3.32,15.46,5.4,7.34,3,14.21,6.45,21.77,8.89,14.31,4.62,33.33,8.92,48.58,6.88C384.24,315.61,380.8,315.05,377.45,314.55Z"/><path class="cls-2" d="M784.07,296.52C777,314.63,750,318.22,750,318.22c-64.71,14.93-126.88,49.46-180.88,87.39-10.35,7.28-22.62,13.53-35.63,11.61-13.83-2.07-27.09-13.92-34.13-25.65-14-23.17-12.81-55.1,2.7-77.38,13-18.69,34-31.84,52.34-44.75,37.62-26.51,77.71-43.44,121.14-58,15.78-5.31,31.61-9.77,48.06-12.25C769.48,192.29,791.18,278.4,784.07,296.52Z"/><path class="cls-8" d="M723.6,199.2c-16.45,2.48-32.28,6.94-48.06,12.25C632.11,226,592,242.93,554.4,269.44c-18.33,12.91-39.35,26.06-52.34,44.75-15.51,22.28-16.67,54.21-2.7,77.38,7,11.73,20.3,23.58,34.13,25.65,13,1.92,25.28-4.33,35.63-11.61,54-37.93,116.17-72.46,180.88-87.39,0,0,27-3.59,34.07-21.7S769.48,192.29,723.6,199.2ZM710.75,314c-2.5,3.74-1.68,6.61,1.72,9.19a.93.93,0,0,1,0,1.34c-3.46,2.74-7.62,3.76-11.85,4.82a110.2,110.2,0,0,0-18.39,6.87c-12.21,5.56-24.42,11.15-36.33,17.33-11.69,6.05-23.36,12.37-34.73,19-11,6.4-21.18,14.25-32,21.06-15.43,9.72-33.46,18.23-50.54,7.56-7-4.36-34.31-98.44,122.2-157.31,8.33-3.12,17.74-.64,25.58,3.79,8.15,4.56,16,13.89,15.84,23.6-.08,5.26-3.21,9.78-5.45,14.33-2.46,5-4.24,10.95-2.94,16.55,2.52,10.81,17.45,11,26,10.43A1,1,0,0,1,710.75,314Z"/><path class="cls-8" d="M784.07,296.52C778,312,757.49,316.85,751.61,318a28,28,0,0,1-4.79-6.54,1,1,0,0,0-1.5-.18c-3.74,3.1-9.77,7.43-15,6.08-6.65-1.7-5.47-10.06-4.41-15.15a1,1,0,0,0-1.4-1.06c-8.2,5.19-36.57,10.83-31.26-7.06,1.74-5.91,5.08-11.05,8.06-16.38,1.77-3.16,4.57-6.4,3.81-10.21-.56-2.72-2.43-4.82-3.91-7.1-2.38-3.61-3.66-8-4.86-12.13-1.66-5.83-.82-11.67-2.2-17.48-1.62-6.68-11.25-4.58-16.14-3.56a190.16,190.16,0,0,0-24.56,7.31c-7.62,2.66-15.31,4.94-23,7.44-27.37,8.95-52.75,22.08-77.59,36.47-12,7-24,13.91-35.33,21.86-3.54,2.46-7.18,5-10.7,7.71,13-15.48,31.32-27.1,47.55-38.53,37.62-26.51,77.71-43.44,121.14-58,15.78-5.31,31.61-9.77,48.06-12.25C769.48,192.29,791.18,278.4,784.07,296.52Z"/><path class="cls-3" d="M784.07,296.52a26,26,0,0,1-5.46,8.4c-4,1.77-8.91,2.17-13.15,1.85-10.83-.83-21.22-6.39-29.87-12.65-20.32-14.72-35.31-38.7-31.62-64.48,1.26-8.84,4.6-18.11,11.71-23.92s16.33-6.58,25-4.68C774.78,214.13,790.22,280.83,784.07,296.52Z"/><path class="cls-9" d="M754.49,306.1c1.88,7.35-23.92,17.32-28.33,10.77s6.63-23,11.49-19.43C748.38,305.4,753.51,302.3,754.49,306.1Z"/><path class="cls-10" d="M751.87,311.47a1,1,0,0,0-1.57.7,2.14,2.14,0,0,0,.06.5c-7.14,5.17-21.07,8.85-24.2,4.2a5,5,0,0,1-.48-1c3.87,1.87,10.79,1.08,14.46-.34s8.34-5.52,6.78-9.92S739,299,734.83,297.2a3,3,0,0,1,2.82.24c10.73,8,15.86,4.86,16.84,8.66C754.93,307.83,753.83,309.69,751.87,311.47Z"/><path class="cls-9" d="M769.82,308.15c3,4.28-11.91,13.55-16.37,10.41s-.72-13,3.32-11.83C765.7,309.21,768.24,305.93,769.82,308.15Z"/><path class="cls-10" d="M753.45,318.56a4.48,4.48,0,0,1-1.56-2,5.67,5.67,0,0,0,2.68,1.81,6.73,6.73,0,0,0,7-1.69,6.6,6.6,0,0,0-.12-9c5.25.5,7.13-1.24,8.39.54C772.86,312.43,757.91,321.7,753.45,318.56Z"/><path class="cls-9" d="M732.39,296.34c-2,10.89-37.25,15.75-39.07,4.38s17.87-34,22.1-26.18C724.74,291.67,733.43,290.69,732.39,296.34Z"/><path class="cls-10" d="M732.39,296.34c-2,10.87-37,15.73-39,4.48a8.54,8.54,0,0,0,4.16,2.66c6.65,2,13.61-.48,19.56-3.5,3.64-1.84,10.28-5.58,8.58-10.65-.94-2.8-4.34-4.54-6.22-6.6a24.4,24.4,0,0,1-5.29-9.45,3.07,3.07,0,0,1,1.27,1.26C724.74,291.67,733.43,290.69,732.39,296.34Z"/><path class="cls-11" d="M647.3,250.8q-7.11,3.63-14.23,7.33c-9.73,4.14-19.22,8.78-28,14.87L603,274.42c-1.48.86-3,1.72-4.44,2.6-10.19,6.09-19.42,13.17-28.76,20.48-1.6,1.24-3.21,2.5-4.79,3.78a201.62,201.62,0,0,1,32.89-26c16-10.31,32.37-19.46,50.58-25.12C648.1,250.36,647.7,250.6,647.3,250.8Z"/></g></g></svg>