<svg xmlns="http://www.w3.org/2000/svg" viewBox="0 0 867.68 822.67"><defs><style>.cls-1{isolation:isolate;}.cls-2,.cls-3{fill:#353434;}.cls-25,.cls-27,.cls-29,.cls-3{mix-blend-mode:screen;}.cls-4{fill:#dedede;}.cls-30,.cls-5{fill:none;}.cls-5{stroke:#53575e;stroke-miterlimit:10;stroke-width:0.13px;}.cls-6{fill:#f92905;}.cls-7{fill:#b21a02;}.cls-12,.cls-13,.cls-15,.cls-21,.cls-8{mix-blend-mode:multiply;}.cls-9{fill:#b01a02;}.cls-10{fill:#e12404;}.cls-11,.cls-12,.cls-27{fill:#53575e;}.cls-12,.cls-13{opacity:0.5;}.cls-14,.cls-25{fill:#ffe8d9;}.cls-15,.cls-16{fill:#eec7b2;}.cls-17,.cls-26,.cls-28{fill:#fff;}.cls-18{fill:#68d3d8;}.cls-19,.cls-21{fill:#00bfd1;}.cls-20{fill:#00798e;}.cls-22{fill:#da432f;}.cls-23{fill:#ecae82;}.cls-24{fill:#f78982;}.cls-24,.cls-26{opacity:0.8;}.cls-28{opacity:0.3;}</style></defs><g class="cls-1"><g id="Layer_1" data-name="Layer 1"><path class="cls-2" d="M36.39,561.72S45.17,593.89,56,622.6s11.41,36.75,4.85,38.13S44.9,665.32,38.65,669s-1.12-27-15.36-83.14c-5.45-22.15-4.29-33,2.54-35.23S36.39,561.72,36.39,561.72Z"/><path class="cls-2" d="M107.89,603.35s-26.21.48-54.81-23.89c-19-14.87-26-15.41-24.91-23.25s12.62-5.06,25.47.53A138,138,0,0,0,80,564.88S86.52,586.9,107.89,603.35Z"/><path class="cls-2" d="M8.3,697.68S27.69,669,52.1,661.9c9.21-3,13.14,3.57,13.14,8.47s-20.11,12.55-39.6,34.91c-8.29,10.53-10.87,10.67-17.1,5.28C4.22,706.79,5,703,8.3,697.68Z"/><path class="cls-2" d="M6.89,708.79A60.09,60.09,0,0,0,16,716c5.19,3.28,2.79,5.63,1,10.8s-4,22-.74,29.13C5.7,751-1.84,737.58.39,716.32,1.42,707.6,4.54,706.3,6.89,708.79Z"/><path class="cls-3" d="M32.67,554.31s10.75-.58,43.21,12.79c-2.57,4.55,3.82,14.65,8.4,20.33C65.77,580,24.7,558,32.67,554.31Z"/><path class="cls-4" d="M38,557.7s18.8,4.1,34.05,10.94C65.45,562,44.84,555.93,38,557.7Z"/><path class="cls-3" d="M48.37,628.37c-5.89-25.82-11-55.69-17.7-60.11s-1.47-11.43-7.75-11.43c-1.27,0-2.17,1-2.78,2.65-.77,5.81.23,14.45,3.15,26.4,3.29,13,5.5,24.56,7.1,34.66,6.43,15.27,5.69,31.45,8.78,37C42.81,664.17,54.28,654.21,48.37,628.37Z"/><path class="cls-4" d="M24.14,567.9s4.52,29.55,15.3,74.7C31.45,623.48,23.11,583.18,24.14,567.9Z"/><path class="cls-3" d="M25.56,693.14c14-14.45,37.16-25.47,25.42-26.23-11-.7-27.11,13-29.33,15a127.64,127.64,0,0,0-11.21,12.87C4.68,705.12,12.48,706.52,25.56,693.14Z"/><path class="cls-4" d="M9.39,699.9S24,680.44,41.33,670.64C32.59,671.16,14.74,688.48,9.39,699.9Z"/><path class="cls-3" d="M5.05,714.56C-.51,714.23.65,731,.65,731l-.19,0c1.28,9.65,5.06,16.8,10.25,21.31.79.34,1.67.69,2.57,1C2.13,733.35,10.64,714.83,5.05,714.56Z"/><path class="cls-4" d="M2.71,719.31s-.34,20.19,8.11,31.57C-.39,740,1.15,723.44,2.71,719.31Z"/><path class="cls-5" d="M640.75,549.14c-109.44,15-199.28,9.25-234.95,5.78,2.07,20.63,2.41,33.57,2.41,33.57,65.24,1.76,176.64,1.76,250-16.36C784.75,531.37,839.59,489.57,858.51,441,834,479.58,761.7,532.57,640.75,549.14Z"/><path class="cls-6" d="M778.73,103.83c-26.68-31.15-56.07-54.64-88.13-71.32C455.23-19.4,324.66,140.42,297,179.15c.13,0,.27-.06.42-.07,10.46-.74,12.32,54.37-3.62,108.5,82.27,62.8,105.57,203,112,267.34,35.67,3.47,125.51,9.21,235-5.78C761.7,532.57,834,479.58,858.51,441c5.86-15.08,8.28-30.76,8.28-47.31C871.31,261.68,824.28,156.92,778.73,103.83Z"/><path class="cls-7" d="M690.6,32.51c-89.09-46.37-199.06-40.21-330.75,0-214,80.43-235.25,236.78-235.25,236.78,34-11.35,63.8-14.93,90.14-12.47,15.41-21.13,57.07-75.07,82.22-77.65C324.66,140.42,455.23-19.4,690.6,32.51Z"/><path class="cls-2" d="M219.13,201.86c-17.29,8.8-35.79,7.21-41.23-3.53s4.11-26.63,21.41-35.42,35.8-7.21,41.27,3.54S236.46,193.05,219.13,201.86Z"/><path class="cls-2" d="M306.69,136A426.67,426.67,0,0,0,351,157c26.34,10.76,62.26,19.16,100.62-38.33S472,42,426.48,45.56,319.85,73.11,297.71,111.44C290.51,130,306.69,136,306.69,136Z"/><g class="cls-8"><path class="cls-9" d="M527.77.45c53,1.16,67.44,10.76,18.11,13-87.58,4-185.28,60.43-225.54,106.77s-87.67,97.66-137,90.63,29.23-88.63,29.23-88.63l-1.25,0c-76.6,72.56-86.72,147-86.72,147,34-11.35,63.8-14.93,90.14-12.47,15.41-21.13,57.07-75.07,82.22-77.65C324.66,140.42,455.23-19.4,690.6,32.51,642.5,7.45,588.24-2.24,527.77.45Z"/></g><path class="cls-2" d="M297.38,179.08c-25.1,2-67.15,56.48-82.64,77.72a151,151,0,0,1,79,30.78C309.7,233.45,307.84,178.34,297.38,179.08Z"/><g class="cls-8"><path class="cls-10" d="M820.31,168.12c36.64,97,16.51,192.64-68.51,234-121.8,59.2-200.86,5.1-272-90.43C425.66,239,373.41,208.3,396.23,150.54c38.3-97.08,114.3-113.95,171.1-126.91C409.16,37.22,319.39,147.8,297,179.15c.13,0,.27-.06.42-.07,10.46-.74,12.32,54.37-3.62,108.5,82.27,62.8,105.57,203,112,267.34,35.67,3.47,125.51,9.21,235-5.78C761.7,532.57,834,479.58,858.51,441c5.86-15.08,8.28-30.76,8.28-47.31C869.91,303,848.67,225.18,820.31,168.12Z"/></g><g class="cls-8"><path class="cls-9" d="M736,500.48C605.33,535,480.07,538.26,471.41,436.77c-18.37-123.11-84.23-156.58-136-212.71s59.4-138.24,59.4-138.24l-.51-.29c-52.64,35.68-85,76.46-97.29,93.62.13,0,.27-.06.42-.07,10.46-.74,12.32,54.37-3.62,108.5,82.27,62.8,105.57,203,112,267.34,35.67,3.47,125.51,9.21,235-5.78C761.7,532.57,834,479.58,858.51,441c1.26-3.2,2.29-6.48,3.26-9.74C837.5,457.36,798.66,483.92,736,500.48Z"/></g><path class="cls-11" d="M640.75,549.14c-109.44,15-199.28,9.25-234.95,5.78,2.07,20.63,2.41,33.57,2.41,33.57,65.24,1.76,176.64,1.76,250-16.36C784.75,531.37,839.59,489.57,858.51,441,834,479.58,761.7,532.57,640.75,549.14Z"/><path class="cls-2" d="M759,119c17.32,11.73,29.49,10.42,35.62,5.54a250,250,0,0,0-15.93-20.72,329.71,329.71,0,0,0-26.1-27.27C747.44,86.07,739.9,106.09,759,119Z"/><path class="cls-2" d="M790.67,247.13C760.85,284.4,777.47,351.6,828,363.67c19.86,4.72,31.75,2.52,38.83-1.9a488.22,488.22,0,0,0-19.69-125C831,229.52,808,225.45,790.67,247.13Z"/><path class="cls-12" d="M523.59,571.26c-7-4.4,121.64-3.52,200.4-34.14,26.68-10,14.16,4.42-12.31,16.1C800.76,518.34,842.53,482.1,858.51,441,834,479.58,761.7,532.57,640.75,549.14c-109.44,15-199.28,9.25-234.95,5.78,2.07,20.63,2.41,33.57,2.41,33.57,50.37,1.38,128.32,1.7,195-6.61v-.13S537.57,587.88,523.59,571.26Z"/><path class="cls-11" d="M88.89,406.68s-17-139.87,79-170.85,127.94-28,208.86,44.94,94.95,225.88,88,266.82c-11,34-68.93,57-105,62s-57.95,5-57.95-22S249.8,350.75,88.89,406.68Z"/><g class="cls-13"><path class="cls-11" d="M376.7,280.77c-61.06-55-94.25-70.23-148.06-61.08,105.61,4.53,188.46,107.08,202.13,192.07,14.46,90.19-68.83,111.54-111,46.82-52.06-79.79-120.8-116-172-112.64-45.92,3-37.26-54.84-35-66.86-33,52.39-23.85,127.6-23.85,127.6,160.91-55.93,212.86,154,212.86,180.92s22,27,57.95,22,94-28,105-62C471.65,506.65,457.64,353.75,376.7,280.77Z"/></g><path class="cls-2" d="M471.45,229.61c18.1,21.34,20.6,48.94,5.63,61.65s-41.86,5.79-59.93-15.53-20.64-48.9-5.61-61.65S453.39,208.31,471.45,229.61Z"/><path class="cls-2" d="M582.23,488.56c-14.51,15.62-37,18.32-50.3,6s-12.22-34.95,2.3-50.58,37-18.33,50.31-6S596.77,472.91,582.23,488.56Z"/><path class="cls-2" d="M590.73,242.13s-17.07,19.36-13.66,45,52.35,45.55,80.82,33.57,21.08-52.35-6.25-78.54S604.38,222.22,590.73,242.13Z"/><path class="cls-2" d="M573.66,115.22s26.18,26.75,80.26,7.38,16.5-70-37-59.18S566.24,110.67,573.66,115.22Z"/><path class="cls-2" d="M806.43,433.29c0,14.89-11.3,26.91-25.19,26.91S756,448.18,756,433.29s11.28-26.88,25.22-26.88S806.43,418.46,806.43,433.29Z"/><g class="cls-8"><path class="cls-11" d="M376.7,280.77c-9.38-8.43-18.12-16-26.36-22.59,107.34,91.76,120.05,266.12,82.76,304.9-40.6,42.23-108,25.21-121-33.29C288.52,393.34,151.24,361.66,118,373c-15,5.14-24.2.87-29.84-5.37a252.23,252.23,0,0,0,.75,39.05c160.91-55.93,212.86,154,212.86,180.92s22,27,57.95,22,94-28,105-62C471.65,506.65,457.64,353.75,376.7,280.77Z"/></g><path d="M58.33,476.75S39.2,463.91,30.87,458.22C52.15,467,59.55,466,59.55,466Z"/><polygon points="45.27 452.91 58.53 461.28 60.09 457.86 45.27 452.91"/><polygon points="55.14 446.83 61.23 454.82 63.11 452.54 55.14 446.83"/><path class="cls-14" d="M81.94,538.18S66,573.38,101.2,600.89,229,625.48,279.64,609.58s28.42-73.8,7.19-124S212.12,390.15,148.46,382c-46.29-6.27-83.41,34.24-78.12,88.25C76.62,510.22,81.94,538.18,81.94,538.18Z"/><path class="cls-15" d="M95.79,580.61s1.22-6,13.59,1.66c13,7.21,39.54,15,58.1,10.93-4.11-3.52-3.31-6.82-3.31-6.82s9.08,9.9,21,12.18c-2.23,3.71-12.55,0-12.55,0s-10.8,18.66-41.41,13.18c-27.38-4.89-23.7-16.49-23.7-16.49S95.16,588.87,95.79,580.61Z"/><g class="cls-8"><path class="cls-16" d="M99.23,550.37c16-3.69,28.57-26.4,22.17-68-5.54-36-30.46-50.85-49-44.46a97.4,97.4,0,0,0-2.07,32.27c6.28,40,11.6,68,11.6,68a42,42,0,0,0-2.32,7.44C84,548,91.45,552.13,99.23,550.37Z"/></g><path class="cls-15" d="M172.72,480.09c-12.58,20.59-18.67,52-10.3,75,8.68,23.7,32,31,48.9,25.55-5.52,7.78-5,20.31-5,20.31s7.71-42.24,59.76-39.5c-8.2-6.86-24.65-2.28-24.65-2.28s16.92-28.76,6.41-68.5C244.11,476.59,230.12,462,216,459c-16.89-3.6-33.25,5.43-42.29,19.54C173.32,479.05,173,479.58,172.72,480.09Z"/><polygon points="247.5 518.38 279.36 508.6 246.02 506.35 247.5 518.38"/><polygon points="246.02 502.83 257.29 499.08 245.49 498.57 246.02 502.83"/><polygon points="244.26 495.05 254.52 489.3 242.73 491.81 244.26 495.05"/><path class="cls-17" d="M179.78,477.2s-18,18.22-17.26,57.67c.24,12.58,5.65,28.42,16.56,35.43s27,10,39.06,4.83c13.6-5.89,22.76-20.16,25.89-34,3.21-14,5.56-29.46,1.53-43.48-2.14-7.31-6.17-15.9-11.3-21.64C224.36,465.05,202,456.71,179.78,477.2Z"/><g class="cls-8"><path class="cls-4" d="M245.56,497.7c-2.14-7.31-6.17-15.9-11.3-21.64-9.9-11-32.28-19.35-54.48,1.14,0,0-18,18.22-17.26,57.67.24,12.58,5.65,28.42,16.56,35.43s27,10,39.06,4.83c13.6-5.89,22.76-20.16,25.89-34C247.24,527.22,249.59,511.72,245.56,497.7Zm-37.89,70.88c-19.27-.6-34.18-22.61-33.36-49.09s17.1-47.49,36.36-46.9,34.2,22.59,33.36,49.09S226.9,569.17,207.67,568.58Z"/></g><path class="cls-17" d="M58.45,489.69s3.9,46.74,27.78,49S124.12,518.45,114,474,53.56,427.62,58.45,489.69Z"/><path class="cls-18" d="M70.72,501.32c.44,16.34,10.24,29.24,21.85,28.82s20.7-13.88,20.25-30.19S102.58,470.74,91,471.14,70.3,485,70.72,501.32Z"/><path class="cls-19" d="M70.72,501.32c.44,16.34,10.24,29.24,21.85,28.82s20.7-13.88,20.25-30.19S102.58,470.74,91,471.14,70.3,485,70.72,501.32Z"/><path class="cls-18" d="M75.72,502.28c.37,12.44,7.81,22.27,16.71,22s15.78-10.62,15.46-23.07-7.84-22.31-16.7-22S75.41,489.8,75.72,502.28Z"/><path class="cls-20" d="M83,502.8c.23,8.16,5.11,14.55,10.91,14.36s10.35-6.92,10.09-15-5.09-14.55-10.86-14.37S82.84,494.68,83,502.8Z"/><path class="cls-21" d="M112.4,495.25a40.23,40.23,0,0,1,.42,4.7c.45,16.31-8.63,29.84-20.25,30.19s-21.41-12.48-21.85-28.82a33.68,33.68,0,0,1,.16-4.4C83.75,505.35,102.28,506.77,112.4,495.25Z"/><path class="cls-17" d="M90.92,492.16c.79,6.46,5.16,11.18,9.8,10.61s7.73-6.38,6.91-12.84-5.14-11.23-9.75-10.59S90.12,485.68,90.92,492.16Z"/><path class="cls-17" d="M96.45,509.92c.29,2.41,1.91,4.16,3.6,3.93s2.89-2.33,2.6-4.79-1.93-4.13-3.65-3.9S96.14,507.54,96.45,509.92Z"/><path class="cls-18" d="M190.09,527.38c-1,19.14,9.46,35,23.3,35.37s25.82-14.71,26.83-33.83-9.45-34.94-23.28-35.38S191.09,508.29,190.09,527.38Z"/><path class="cls-19" d="M190.09,527.38c-1,19.14,9.46,35,23.3,35.37s25.82-14.71,26.83-33.83-9.45-34.94-23.28-35.38S191.09,508.29,190.09,527.38Z"/><path class="cls-18" d="M195.94,528.84c-.72,14.59,7.25,26.69,17.79,27S233.44,544.61,234.2,530s-7.19-26.67-17.77-27S196.68,514.29,195.94,528.84Z"/><path class="cls-20" d="M204.94,530.05c-.47,9.27,4.54,16.93,11.26,17.09s12.55-7.11,13-16.35-4.62-16.95-11.3-17.15S205.42,520.74,204.94,530.05Z"/><path class="cls-21" d="M240.13,523.4a53.14,53.14,0,0,1,.09,5.52c-1,19.12-13,34.28-26.83,33.83s-24.28-16.23-23.3-35.37c.11-1.78.34-3.49.59-5.16C205.18,533,227,536.14,240.13,523.4Z"/><path class="cls-17" d="M214.88,518.11c.31,7.66,5.11,13.55,10.62,13.18s9.81-6.88,9.44-14.55-5.07-13.54-10.64-13.14S214.55,510.46,214.88,518.11Z"/><path class="cls-17" d="M219.83,539.35c.11,2.86,1.9,5,3.94,4.9s3.63-2.54,3.5-5.41-1.88-5-3.93-4.84S219.7,536.54,219.83,539.35Z"/><path class="cls-2" d="M80.59,430.6s13.09-19.2,25.77,6.13c3,6.1,2.19-15.28-11.78-17.92S77.12,432.36,80.59,430.6Z"/><path class="cls-15" d="M80.59,434s13.09-19.2,25.77,6.12c3,6.1,2.19-15.28-11.78-17.89S77.12,435.79,80.59,434Z"/><path class="cls-15" d="M182.3,451.94s14-16.15,29.71.89c5.22,5.64.4-10.93-12.7-13.13S178.39,453.24,182.3,451.94Z"/><path class="cls-2" d="M182.3,448.5s14-16.14,29.71.86c5.22,5.7.4-10.9-12.7-13.08S178.39,449.81,182.3,448.5Z"/><g class="cls-8"><path class="cls-4" d="M114,474c-3.11-13.75-10.14-23.46-18.15-28.42,22.73,50.12,12.24,82.57-11.65,78.3-14.34-2.56-21.73-29.28-25.45-52.38a90.75,90.75,0,0,0-.29,18.19s3.9,46.74,27.78,49S124.12,518.45,114,474Z"/></g><path class="cls-2" d="M234.26,476.06c-9.9-11-32.28-19.35-54.48,1.14,0,0-15.09,15.31-17,48.21l.16,0s15.52-44.77,50.47-41.34c25.05,2.47,32.3,22.12,33.85,39.47C249.67,506.14,245.56,489.27,234.26,476.06Z"/><path class="cls-3" d="M181.93,489.64s26.4-25.28,53.13-1.22c6.22,6.83-2.66-22.85-29.11-20.46S172.14,498.81,181.93,489.64Z"/><path class="cls-2" d="M80.36,440c23.49,1.75,37.25,18.28,37.25,65.33,0,0-3.81-29.1-28.78-45.41-17.74-11.58-31-.58-31,16.47C55.92,448,70.24,439.25,80.36,440Z"/><path class="cls-3" d="M106,471.14s-16.31-28.45-36.8-19.34c-9.09,3.77,7.37-17.81,27-2.94C115.66,463.61,113.19,482.13,106,471.14Z"/><path class="cls-2" d="M201.07,572.56c-24.67-1.88-36.3-23.65-36.3-23.65h0c2.55,8.65,8.69,19.75,15.74,24.3a39,39,0,0,0,36.62,3c8.73-3.73,16.6-12.05,21.24-20.36C234,561,220.92,574.11,201.07,572.56Z"/><path class="cls-15" d="M205.9,600.34s0-.27.1-.85.27-1.36.54-2.39.68-2.25,1.13-3.7a37.68,37.68,0,0,1,1.86-4.64c.4-.85.79-1.72,1.21-2.6s1-1.75,1.56-2.65a20.1,20.1,0,0,1,1.73-2.78c.64-.9,1.26-1.88,2-2.78a47.44,47.44,0,0,1,4.83-5.24c.94-.82,1.77-1.72,2.75-2.48l3-2.17,1.52-1.09,1.63-.9c1.09-.58,2.17-1.15,3.24-1.75,2.2-1.09,4.52-1.72,6.65-2.55,2.24-.68,4.42-1,6.51-1.48a15.57,15.57,0,0,1,3.07-.4l2.84-.2a23.94,23.94,0,0,1,5-.12c1.45.11,2.75.19,3.81.25,2.14.16,3.36.23,3.36.23l-3.37.22c-1.05,0-2.35.1-3.8.11a42.94,42.94,0,0,0-4.91.57c-.87.14-1.8.29-2.77.38a18.62,18.62,0,0,0-2.94.58c-2,.6-4.05,1.09-6.22,1.72-2,.9-4.22,1.64-6.29,2.68-1,.55-2.08,1.16-3.12,1.71l-1.51.85-1.43,1.06L225,572c-.88.72-1.73,1.54-2.63,2.31a63.39,63.39,0,0,0-4.79,4.92c-.72.83-1.32,1.76-2,2.6s-1.35,1.69-1.87,2.54-1.09,1.7-1.62,2.52-.93,1.66-1.37,2.43c-.91,1.56-1.55,3.1-2.23,4.4s-1.14,2.52-1.46,3.55A24.29,24.29,0,0,0,205.9,600.34Z"/><path class="cls-2" d="M68.52,525.1a23.49,23.49,0,0,0,23.86,13.42c17.72-1.47,23.53-23.32,23.53-23.32s.35,28.18-22,30.22C78.21,546,71,530.5,68.52,525.1Z"/><path class="cls-4" d="M193.22,477.83s9.34-6.59,20.84-3.84S207.22,461.1,193.22,477.83Z"/><path class="cls-4" d="M103.28,461.47S97.57,451.64,86,449.29,97.62,440.47,103.28,461.47Z"/><path class="cls-22" d="M171.34,597.37c1.43-2.13,1-3.48-1.53-2.89,0,0-31.57,6.8-62-11.71-10.8-7.38-18.77-2.86,1.72,12.55C109.51,595.32,144.78,610.58,171.34,597.37Z"/><path class="cls-22" d="M109.51,595.32c-2.84,2,8,17.06,32.7,14.79,16.37-1.51,26.4-8.58,29.13-12.74C144.78,610.58,109.51,595.32,109.51,595.32Z"/><path class="cls-23" d="M164.41,587.91s.26.26.74.66,1.16.91,2,1.59c.35.32.87.62,1.35,1s.92.74,1.45,1.11,1.09.66,1.62,1a11.54,11.54,0,0,0,1.75,1c.55.34,1.12.71,1.69,1s1.22.58,1.76.87,1.15.53,1.66.78a6.76,6.76,0,0,0,1.54.61,33.78,33.78,0,0,1,3.26,1.4,24,24,0,0,1-3.6-.16,5.22,5.22,0,0,1-1.71-.22c-.6-.16-1.24-.36-1.89-.57a12.7,12.7,0,0,1-2-.69c-.59-.37-1.25-.7-1.93-1.06a19.2,19.2,0,0,1-1.8-1.17c-.56-.45-1.09-.92-1.63-1.35s-.9-1-1.37-1.4a10.1,10.1,0,0,1-1.09-1.33A12,12,0,0,1,164.41,587.91Z"/><g class="cls-8"><path class="cls-22" d="M169.81,594.48s-31.57,6.8-62-11.71c-6.86-4.69-12.58-4.57-10.59.11,1.93-.87,3.39.75,8.34,3.82,12.31,7.67,33.68,12.7,42.93,12.7,8.62,0-12.82,6.94-41.42-6,.79.59,1.56,1.22,2.46,1.88,0,0,35.27,15.26,61.83,2C172.77,595.24,172.34,593.89,169.81,594.48Z"/></g><g class="cls-8"><path class="cls-22" d="M109.51,595.32c-.84.57-.47,2.33,1.09,4.4a9.36,9.36,0,0,1,6.43.67c8.11,3.35,20.05,5.4,32.86,4.36s-15.27,8.37-33.37.14v.05c5.51,3.46,14.06,6.24,25.69,5.17,16.37-1.51,26.4-8.58,29.13-12.74C144.78,610.58,109.51,595.32,109.51,595.32Z"/></g><g class="cls-8"><path class="cls-16" d="M286.83,485.62C265.66,435.47,212.12,390.15,148.46,382A65.06,65.06,0,0,0,93.22,400.2c86.19-62.13,225.45,101.49,189,173.18-29.46,58-113.31,48-158.61,38.94,43,14.65,113.94,10.46,156-2.74C330.23,593.63,308.06,535.78,286.83,485.62Z"/></g><path class="cls-24" d="M263.12,569c4.82,8.46-2.19,21.54-15.64,29.22s-28.31,7-33.11-1.43,2.2-21.53,15.68-29.18S258.28,560.61,263.12,569Z"/><path class="cls-17" d="M228.64,579.38c-2.57,3.08-5.84,4.58-7.25,3.35s-.47-4.65,2.12-7.69,5.85-4.56,7.26-3.36S231.24,576.34,228.64,579.38Z"/><path class="cls-17" d="M237.19,569.49c-1.6.86-3.22,1-3.6.26s.49-2,2.12-2.92,3.21-1,3.61-.29S238.78,568.58,237.19,569.49Z"/><path class="cls-3" d="M81.94,538.18s13.74,8.14,26-5.9C107.18,541.47,92.14,548.69,81.94,538.18Z"/><path class="cls-3" d="M178.44,565.59s13.07,12.84,34.4,8.08C205.85,579.1,188.34,581.11,178.44,565.59Z"/><path class="cls-25" d="M139.49,395c.45,2.84-5.46,6.17-13.25,7.45s-14.48,0-15-2.87,5.52-6.2,13.32-7.44S139,392.15,139.49,395Z"/><path class="cls-25" d="M158.65,396.35c-.07,1.4-3.33,2.34-7.25,2.07s-7-1.62-6.93-3.08,3.38-2.37,7.3-2.11S158.77,394.89,158.65,396.35Z"/><path class="cls-26" d="M103.2,586.49s8.25,5.4,14.54,7.14-1.71,2.62-8.65-1.21C104.29,589.76,100.61,585.4,103.2,586.49Z"/><path class="cls-26" d="M124,596.31c-.13.4-.85.55-1.7.31s-1.35-.74-1.22-1.11.82-.55,1.64-.32S124.08,595.93,124,596.31Z"/><path class="cls-25" d="M82.47,553.49s-4.57,22,14.81,41C84.38,587.62,74.47,562.57,82.47,553.49Z"/><path class="cls-25" d="M108.8,580.1s23.48,11.55,52.16,11.55C148.73,596.18,118.64,588.5,108.8,580.1Z"/><path class="cls-25" d="M124.15,485.83s9,55.71-20.17,65.57C120.58,553,138,536.41,124.15,485.83Z"/><path class="cls-15" d="M113.51,418.68a3.13,3.13,0,1,1-3.07-2.54A2.84,2.84,0,0,1,113.51,418.68Z"/><path class="cls-15" d="M169.4,434.59a2.84,2.84,0,0,1-3,2.55,2.89,2.89,0,0,1-3.1-2.55c0-1.38,1.41-2.51,3.1-2.51A2.82,2.82,0,0,1,169.4,434.59Z"/><path class="cls-2" d="M108.79,418.54s-23.94-57.41-78.12-67.66c-15.74-1.72-16,9.51-23.74,8.25s-10-21.91,20.47-16.24c29.49,5.53,59.2,24,83.64,72.63C112.79,419.05,110.07,420.05,108.79,418.54Z"/><path class="cls-2" d="M167.53,435.63s39.58-68,76-70c16.48-.26,15.92,6,24.18,9.4s10.78-11.36.27-16.49-29.58-8.26-67.71,27.32c-18.54,16.79-36.71,45.79-35.88,48.38A2.13,2.13,0,0,0,167.53,435.63Z"/><path class="cls-3" d="M7.77,354.84s7.33-11.5,29.61-6.29S28,341.25,13.31,344C2.51,347.16,2.18,357.64,7.77,354.84Z"/><path class="cls-17" d="M6.21,349.53s8.32-16.7,54.07,7.77C48.32,347.82,11.5,334.92,6.21,349.53Z"/><path class="cls-3" d="M211.32,379.24s29.16-26.42,50.32-13.5c9.63,7.16,13.75,4.4,9.1-3.31S242.65,350.36,211.32,379.24Z"/><path class="cls-17" d="M210.59,379.07s26.23-23.63,46.39-22a19.6,19.6,0,0,1,15.41,9.61s-4-12.92-22-10.17S214.82,374.11,210.59,379.07Z"/><path class="cls-27" d="M146.23,258.18s112.26-72.78,220.08,67.36c37.72,49.4,9.86-41.33-73.66-83.54C240.53,215,176.75,224.94,146.23,258.18Z"/><path class="cls-27" d="M404.39,376.18c3.28,8.94,2.23,17.53-2.35,19.2s-11-4.19-14.23-13.11-2.24-17.48,2.34-19.17S401.09,367.3,404.39,376.18Z"/><path d="M297.38,179.08s.93-1.46,2.84-4.15,4.64-6.6,8.42-11.35,8.55-10.5,14.14-16.9,12.16-13.42,19.76-20.66c3.68-3.74,7.8-7.36,11.89-11.24l6.49-5.67c2.21-1.93,4.47-3.88,6.82-5.74l7.1-5.77c2.47-1.86,4.93-3.76,7.47-5.69,4.93-3.92,10.36-7.46,15.7-11.28A384.22,384.22,0,0,1,432.7,59.69a402.8,402.8,0,0,1,38-17.68c3.3-1.23,6.62-2.37,9.9-3.59s6.57-2.49,9.95-3.45,6.68-2,10-3l5-1.52,5-1.25,10-2.47c3.35-.89,6.74-1.36,10-2l9.93-1.84c3.26-.59,6.6-.89,9.85-1.35s6.5-.81,9.72-1.24,6.41-.48,9.54-.74c6.35-.39,12.52-.91,18.54-.8l8.89-.05c3,0,5.83-.08,8.64.15q8.49.52,16.36,1c5.24.45,10.22,1.14,15,1.69l6.89.89c2.26.24,4.4.76,6.49,1.12l11.73,2.2c1.82.32,3.55.65,5.19,1s3.21.79,4.7,1.14c5.91,1.44,10.55,2.7,13.71,3.49s4.82,1.26,4.82,1.26l-4.9-.9c-3.23-.58-8-1.39-13.91-2.57-1.47-.25-3.07-.59-4.69-.86s-3.43-.45-5.24-.67q-5.45-.74-11.75-1.54c-2.12-.22-4.27-.64-6.49-.75l-6.91-.49c-4.74-.31-9.69-.85-14.88-1.06s-10.59-.2-16.14-.29c-2.83-.12-5.66,0-8.57.09s-5.78.2-8.76.32c-6,.06-12,.74-18.23,1.31-3.07.33-6.25.49-9.35.94s-6.33.91-9.53,1.39-6.45.83-9.68,1.48-6.45,1.34-9.68,2c-6.54,1.21-13.07,3-19.64,4.67l-4.95,1.27-4.9,1.49c-3.24,1-6.51,2-9.82,3.06s-6.47,2.28-9.7,3.42-6.49,2.33-9.72,3.58a392,392,0,0,0-37.38,17.15c-12.08,6.21-23.54,13.13-34.44,20.09-5.36,3.66-10.74,7.12-15.72,10.83-2.57,1.81-5.06,3.61-7.54,5.4s-4.8,3.7-7.16,5.52c-4.74,3.55-9.11,7.36-13.51,10.86-4.23,3.67-8.39,7.1-12.2,10.63-1.9,1.74-3.82,3.45-5.66,5.13s-3.55,3.38-5.3,5c-3.47,3.2-6.57,6.47-9.62,9.41-5.9,6.06-11,11.44-15,16s-7.14,8.19-9.18,10.74S297.38,179.08,297.38,179.08Z"/><path class="cls-10" d="M210.61,153.13S288.1,38.64,500.91,9.71C439.61-1.85,266.12,49,210.61,153.13Z"/><path class="cls-28" d="M661.7,34.29s-89-24.26-156,45S597,287.28,746,279.2,793.4,63.15,661.7,34.29Z"/><path class="cls-17" d="M509.28,59.69s173-83.11,281.15,80.81C772.24,63.1,633.37-13.17,509.28,59.69Z"/><path class="cls-17" d="M808.23,164.86c2,6.62,1.47,12.62-1.09,13.38s-6.24-4-8.26-10.61S797.44,155,800,154.23,806.28,158.24,808.23,164.86Z"/><path class="cls-11" d="M291.41,183.37s-18.71,10.91-30.65,24.4c-4.16,4.16,26.51,12,30.65,2.6S301.25,179.73,291.41,183.37Z"/><path class="cls-2" d="M383.21,605.12S413.71,594,425.65,587c42.46-8.84,80.91-14.59,84.88-4s-71.6,29.63-101.24,30.5C389.83,613.94,383.21,605.12,383.21,605.12Z"/><path class="cls-2" d="M500.18,581.69s-13.88,21.58-30.41,52.61S439,687.21,445.62,723.94c.85,4.25,29.87-17.08,28.15-24.76S472.08,660.73,490,630.6s29.3-36.44,23.89-46.1S502.11,578.06,500.18,581.69Z"/><path class="cls-2" d="M447.19,722.61s22.05,14.26,35.18,28.16c11.35,13,12.62,20.34,18.57,18.86S523.8,755.57,511.85,742c-10.11-11.19-35.24-18-48.19-31A176.44,176.44,0,0,1,447.19,722.61Z"/><path class="cls-2" d="M507.66,762.74s-4.38,5.86,1.88,11.76,21,19.91,7.77,48.17c18.61-4.75,45.33-54.82-4.74-67A27,27,0,0,1,507.66,762.74Z"/><path class="cls-3" d="M499.54,577.63c-13-1.5-35.83,1.83-61.35,6.81-5.39,3.1-11.5,6.52-17.3,9.66C407.17,601.53,497.73,591.6,499.54,577.63Z"/><path class="cls-4" d="M440.19,588.1s37.64-7.15,55.13-8.74C488.42,576.71,455.55,582,440.19,588.1Z"/><path class="cls-3" d="M501.16,613.3c5.6-10.11,9.95-20,6.95-22.15-6.61-4.53-43.55,52.18-54.72,91.17-10.34,37.62,14.29,26.29,19.83,2.2A122.13,122.13,0,0,1,490,630.6C494.09,623.66,497.85,618,501.16,613.3Z"/><path class="cls-2" d="M453.39,682.32c11.17-39,48.11-95.7,54.72-91.17,3,2.14-1.35,12-6.95,22.15C512.25,597.39,518,592,513.89,584.5c-5.41-9.69-11.78-6.44-13.71-2.81,0,0-13.88,21.58-30.41,52.61S439,687.21,445.62,723.94c.85,4.25,29.87-17.08,28.15-24.76-.61-2.59-1-7.79-.55-14.66C467.68,708.61,443.05,719.94,453.39,682.32Z"/><path class="cls-4" d="M502.53,606.35s-32.39,41-31.91,76C463.55,674.22,476.23,633.7,502.53,606.35Z"/><path class="cls-3" d="M465,722c-.57,2.84,18.22,14.81,27.31,26.17s26.59,5.93,19.59-6.17c-4-4.39-10.3-8.17-17.32-11.84C472,720.73,465.49,719.18,465,722Z"/><path class="cls-4" d="M476.34,725.93s19.33,6.84,32.42,19.94C511,738.43,483.71,724.79,476.34,725.93Z"/><g class="cls-29"><path class="cls-2" d="M516.73,764.06c-7.47,4.83,23.61,15.13,4,57.3,12.44-6.38,26.08-29.51,18.29-47.1C533.16,766.79,524.8,759.2,516.73,764.06Z"/></g><path class="cls-4" d="M525,767.66s17.25,18,6,40.89C544.63,795.75,536.21,770.87,525,767.66Z"/><path class="cls-2" d="M548.64,562.25s-17.46,13.61-4.29,17.66,28.06,1.49,38-17.66,31.22-40.93,37.46-46.33,12.42-14.92,8.67-18.86-28.21,13.35-46.18,32.51S548.64,562.25,548.64,562.25Z"/><path class="cls-2" d="M639,657.05s-15.23-4.39-14.2-15.78,2.37-71-1-97.92-1.19-43.61,6-43.65,9.56,7.37,8.87,14.3c-2.41,23.55,1,70.18,8.07,89.11s11.38,29.07,9.58,30.9S639.93,645.08,639,657.05Z"/><path class="cls-2" d="M666.89,645.42S656.77,629.56,650,635c-7.66,6.17-18,16.13-10.54,25.14s21.89,28,30.81,38.11,15.82,18.39,25.18,12.84S707,697.64,698,684.65,666.89,645.42,666.89,645.42Z"/><path class="cls-2" d="M700.29,702.76s-3.4,6.51,5.1,10.94,26.35,22.37,18.6,44.81c15.32-11.58,21.06-35,3.76-49.51S701,699.53,700.29,702.76Z"/><path class="cls-3" d="M572.38,556.4c23.25-28.68,48.46-47.27,42.71-49.23-4.31-1.43-25.91,17-36.48,26.33-12.69,13.29-23.73,23.24-28,27a1.11,1.11,0,0,1-.19.23C539.89,572.31,549.14,585.1,572.38,556.4Z"/><path class="cls-3" d="M628.42,545.59c4.45,28.44,5.64,32.95,4.37,59.16s3.76,33,10.91,28.34c6.46-4.14,9.16-10.39,6.85-20.13-1.11-3-2.38-6.24-3.73-9.85-2.62-7.18-4.77-18.25-6.3-30.59-2-10.59-5.72-33.38-5.91-51.65C635.23,504.18,624,517.16,628.42,545.59Z"/><path class="cls-3" d="M651.8,642.36c-7.41,6.41,6.62,28.28,28.42,49,20.48,19.35,20.89.89,12.44-14-6.6-8.72-15.3-19.33-20.7-25.85C666.6,646.11,656.93,637.9,651.8,642.36Z"/><path class="cls-3" d="M727.75,709c-5.64-4.71-10.4-7.35-14.33-8.66-2.12.27-3.7,1.06-4.36,2.57-3.31,6.39,23.3,16.19,20.16,42,6-3.73,8.54-9.43,9.07-15.47C737.91,722.08,734.66,714.81,727.75,709Z"/><path class="cls-4" d="M602.09,516.5S570.63,544.72,553,565.09C556.81,555.89,588.67,522.87,602.09,516.5Z"/><path class="cls-4" d="M633.5,529.16s4.42,59.13,14.27,81.63C638.54,600.79,630.75,546,633.5,529.16Z"/><path class="cls-4" d="M659.18,647.26s19.9,18.56,34.55,39.56C690.24,675.3,664.49,649.13,659.18,647.26Z"/><path class="cls-4" d="M717,704.9s19.3,8.43,17.59,29.64C739.77,720.57,729.07,708.61,717,704.9Z"/><path class="cls-2" d="M671.17,547.63a51.41,51.41,0,0,0,6.21-3.81c7.13-5.42,12.72-13.71,17.92-20.87,5.7-7.94,10.75-16.23,16.23-24.33,15.43-22.8,27.6-41.58,32-41.2s13.22,5.51-2.22,26.5c-12.14,16.16-16.92,28.29-24.64,44.86s-10.3,31.6-37.88,33.08c-4,.23-12.91,1-15.45-3.31-1.64-2.74,1.86-6.86,3.87-8.37A31.76,31.76,0,0,1,671.17,547.63Z"/><path class="cls-2" d="M759.4,487.05s17,53.14,23.49,77.82c4.6,14.78,6.5,15.92,11.41,18.2s6.83,6.46,6.06,12.13-8.34,16.33-22,16-12.54-10.27-10.25-15.59-1.88-15.57-4.92-31.12-14.82-52.7-18.62-64.87-7.93-30.7,3.42-35.28S756.75,479.1,759.4,487.05Z"/><path class="cls-2" d="M795.07,618s21.25,18.61,28.85,26.19,6.81,7.2,7.18,14.4,8,8,15.57,1.16,12.15-14.05-2.29-27.32-44.76-39.85-52.73-34.14S792.78,616.43,795.07,618Z"/><path class="cls-2" d="M846.67,659.72s17.08,23.5,2.27,44.76c19-2.63,20.22-26.51,17.85-38.69C863.35,648.32,842.86,645.27,846.67,659.72Z"/><g class="cls-29"><path class="cls-2" d="M673.45,547c-14.64,10.34,14.23,4.72,29.3-13.79s35.78-60.32,31.49-60.72c-4-.43-14,13.38-15.38,15.26-2.32,3.44-4.78,7.11-7.33,10.85C706.05,506.72,701,515,695.3,523c-5.2,7.16-10.79,15.45-17.92,20.87a15.67,15.67,0,0,1-1.81,1.24A12,12,0,0,1,673.45,547Z"/></g><g class="cls-29"><path class="cls-2" d="M750.18,469.87c-4.3,1.74.76,28.56,10.31,58.64,9.48,29.69,18.56,54.26,15.53,62.9s3.89,12.9,7.77,6.44,3.44-7.32,10.79-6.44c2.67.31,4.43-.48,5.49-2a10,10,0,0,0-5.77-6.37c-4.91-2.28-6.81-3.42-11.41-18.2-2.71-10.48-7.36-26.08-11.81-40.57-1.49-2.21-11.23-17-14-33.75C754,472.51,754.47,468.14,750.18,469.87Z"/></g><g class="cls-29"><path class="cls-2" d="M798,602.19c-3.86,3,22.85,22,33.19,32.77s20.79,9.54,13.2-2.56c-6.81-6.3-17.21-15.54-27.1-22.93l-.3,0S801.88,599.17,798,602.19Z"/></g><g class="cls-29"><path class="cls-2" d="M866.79,665.79a21.86,21.86,0,0,0-3.46-8.28c-2.25-2.07-6-4.9-8.89-3.19-4.27,2.58,12.09,19.39,3.49,40.07a20.8,20.8,0,0,0,7.15-3.45C868.26,682.68,868.05,672.47,866.79,665.79Z"/></g><path class="cls-4" d="M724.1,482.12s-19.93,35.8-40.26,59.71C695.33,536.07,721.87,488.74,724.1,482.12Z"/><path class="cls-4" d="M756.35,494.49s20.39,56.62,26.54,75.62C772.28,550.23,759.46,506.88,756.35,494.49Z"/><path class="cls-4" d="M804.57,605.05s27,19.48,40.26,31C838.2,625.43,811.21,606.4,804.57,605.05Z"/><path class="cls-4" d="M860.31,657.71A40,40,0,0,1,863,689.07C868.26,683.8,869.16,666.1,860.31,657.71Z"/><path class="cls-30" d="M711.68,553.22c-5.12,2-10.44,4-15.89,6A150.43,150.43,0,0,0,711.68,553.22Z"/><path class="cls-2" d="M683.73,562.51c-5.17,1.15-8.57,2.76-10.58,4.69q11.8-4,22.64-8C691.93,560.47,687.89,561.57,683.73,562.51Z"/></g></g></svg>