<svg xmlns="http://www.w3.org/2000/svg" viewBox="0 0 937.46 786.5"><defs><style>.cls-1{isolation:isolate;}.cls-2{fill:#d69c7a;}.cls-18,.cls-19,.cls-22,.cls-3,.cls-6,.cls-9{mix-blend-mode:multiply;}.cls-4{opacity:0.3;}.cls-11,.cls-20,.cls-23,.cls-4,.cls-7{mix-blend-mode:screen;}.cls-5,.cls-6,.cls-7{fill:#d8a182;}.cls-11,.cls-7{opacity:0.6;}.cls-8{fill:#fff;}.cls-12,.cls-22,.cls-9{opacity:0.5;}.cls-10{fill:#ce885f;}.cls-13{fill:#ed8480;}.cls-14{fill:#eb566c;}.cls-15{fill:#c0595a;}.cls-16{fill:#e27f7f;}.cls-17,.cls-20{fill:#f79797;}.cls-18{fill:#d86666;}.cls-19{fill:#c6665c;opacity:0.8;}.cls-21,.cls-22,.cls-23{fill:#99898c;}</style></defs><g class="cls-1"><g id="Layer_1" data-name="Layer 1"><path class="cls-2" d="M398.07,559.18S260.64,445.88,248,451.36c0,0-10.48,128.92,81.36,271.52,0,0,24.72,10.68,38.22-14.22C364.14,686.14,362.55,594.18,398.07,559.18Z"/><g class="cls-3"><path class="cls-2" d="M398.07,559.18S260.64,445.88,248,451.36c0,0-5.59,68.81,27.2,161.48l.46-.08s-27.08-103.16,6.45-107,76.06,42.58,70.92,100.6c-5,56.19-12.42,126.87-42.15,85.64,5.66,10.2,11.79,20.54,18.48,30.93,0,0,24.72,10.68,38.22-14.22C364.14,686.14,362.55,594.18,398.07,559.18Z"/></g><g class="cls-4"><path class="cls-5" d="M270.33,545.8s-1.67,51,33.79,119.41c22.06,37.67,33.22-31.87,22.35-75.43S272.43,513.24,270.33,545.8Z"/></g><path class="cls-2" d="M762.74,492.41c-10.07-4.26-117.85,76.68-117.85,76.68s25.8,41.69,11.66,87.28c-3.89,13.41-1,18.37-1,18.37s12.37,14.13,32.5-1.42C688,673.32,777.05,571.9,762.74,492.41Z"/><g class="cls-3"><path class="cls-2" d="M762.74,492.41c-10.07-4.26-117.85,76.68-117.85,76.68a123,123,0,0,1,13.9,38.12c1.2-14,6.88-34.72,28.83-43.5,34.72-13.9,57.51-7,32.73,40.64s-64.21,76.17-61.48,42.89c-.62,3-1.37,6-2.32,9.13-3.89,13.41-1,18.37-1,18.37s12.37,14.13,32.5-1.42C688,673.32,777.05,571.9,762.74,492.41Z"/></g><path class="cls-5" d="M936.9,317.9c-5-86-41.22-132.18-113.7-196.84s-118.65-76-184.73-74.59-181.21,61.82-243,98.77c20.32,23.64,47,84,45.47,141.52S278,439.24,248.83,442.23a57.91,57.91,0,0,1-18.18,16.61,45.24,45.24,0,0,0,5-2.12c15.56-7.79,38.88,8.46,81.29,48.06C368.56,553.54,429.34,574,463.26,579c18.37,14.14,21.2,101.77,21.9,147.71,0,0,1.42,9.18,12.73,11.67s21.19-4.6,21.19-4.6c14.14-22.63,58.66-91.89,84.11-153.36,68.56-4.23,134.1-56.2,153.19-84.82C811.5,562.9,820.29,651,817.48,684c0,0,21.92,14.4,46.56-5.47a.82.82,0,0,0,.24-.1c1.55-8.25,9.18-27.5,25-72C912.74,536.05,941.87,403.87,936.9,317.9Z"/><path class="cls-5" d="M880.34,106.47c-22-15.85-52.81-16.5-65.14,10.33,7.9,9.88,11.38,14.19,11.38,14.19s16.52-39.36,45.5-16.81c-8.66,3.93-21.4,29.42-.52,39.89s33.4-19.68,17.05-39.41c9-3.67,14.19-.91,16.23-5.25S887.78,104,880.34,106.47ZM878,121s12.24,11.91,4.43,21.52S860.9,133.48,878,121Z"/><path class="cls-6" d="M820.19,114.87c1.92,2.81,5.2,10.07,9,2.76s9.83-12.07,22-14.27c9.31-1.69,29.26,8.7,24.52,12-15.93,11.59-13.57,26-9.56,35.15-13-11.83-1.93-32.77,5.85-36.3-29-22.55-45.5,16.81-45.5,16.81s-3.48-4.31-11.38-14.19a36.5,36.5,0,0,1,13-15.61C821.11,106.74,819.22,113.45,820.19,114.87Z"/><path class="cls-7" d="M881.2,153.91s4.68-1.69,8.35-10.28c5.53-13-2.7-29.53-20.23-40.54-6.6-3.4,7.41-2.35,19,13.52S893.67,155.62,881.2,153.91Z"/><path class="cls-6" d="M904.84,109.41c-.06.11-.12.19-.17.3a3.53,3.53,0,0,0-.76-.81c-2.85-2.49-14.32-1.74-18.94-.29-1.23.51-1.26,0-4.44-2.2C888.08,104.06,906.83,105.1,904.84,109.41Z"/><path class="cls-6" d="M878.23,145.24s-6.91,2-10.79-6.67S874,118.7,878,121c-3.77,2-9.13,9.48-8.07,15.18S873.57,145.34,878.23,145.24Z"/><path class="cls-8" d="M890,147.89s13.29-19.07-12-41.15C891.26,115.33,901.28,132.46,890,147.89Z"/><g class="cls-9"><path class="cls-5" d="M936.9,317.9c-5-85.7-41-131.89-113-196.2,43,43.16,81.85,97.46,91,183.05,10.59,99.65-25.44,256.55-59.37,252.32s-45.22-26.86-86.21-77.75c-79.17-87.63-42.41-171-66.44-168.2s-29.67,66.43-5.66,110.26,29.69,76.33-8.47,93.28-68.56,13.79-80.22-55.13-40.28-73.15-24.37-15.9c31.8,154.78-84.82,235-93.29,162.92s-78.45-114.14-94.36-135.34-19.07-15.91,5.3,27.54c32.87,48.79,9.58,48.68-49.78,9.46-73.15-61.47-43.51-77.3,46.61-137.73,93.28-65.73,63.6-147.33,40.27-190.81-21.18-39.47-3.88-54.46,27.28-73.58-26.7,13.66-51.32,27.55-70.71,39.15,20.32,23.64,47,84,45.47,141.52S278,439.24,248.83,442.23a57.91,57.91,0,0,1-18.18,16.61,45.24,45.24,0,0,0,5-2.12c15.56-7.79,38.88,8.46,81.29,48.06C368.56,553.54,429.34,574,463.26,579c18.37,14.14,21.2,101.77,21.9,147.71,0,0,1.42,9.18,12.73,11.67s21.19-4.6,21.19-4.6c14.14-22.63,58.66-91.89,84.11-153.36,68.56-4.23,134.1-56.2,153.19-84.82C811.5,562.9,820.29,651,817.48,684c0,0,21.92,14.4,46.56-5.47a.82.82,0,0,0,.24-.1c1.55-8.25,9.18-27.5,25-72C912.74,536.05,941.87,403.87,936.9,317.9Z"/></g><path class="cls-10" d="M931.83,415a1177.47,1177.47,0,0,1-34.64,147c-24,78.45-70.32,123.32-74,65s-46.66-121.15-83.11-159.09C689.65,413,695.63,350.61,698.63,340.15s-2-16.49-7-3.51c-14,51.4,20.47,111.81,43.93,138.28s-33.43,62.9-68.37,77.86-51.44,11.49-53.93-21.47-6.48-67.39-16-99.81-14-16-5.49,12.48c13.49,68.37,9.49,123.29-6,159.22S536.41,694.55,516.94,718s-25.46-6-29-53.89-4.47-63.4-24.44-97.35-55.91-75.37-65.4-87.36-7.48-2,11.48,24.47,33.45,44.93,16,51.91C415,560,390,552.3,372,545.56c35.2,20.24,69,30.17,91.27,33.41,18.37,14.14,21.2,101.77,21.9,147.71,0,0,1.42,9.18,12.73,11.67s21.19-4.6,21.19-4.6c14.14-22.63,58.66-91.89,84.11-153.36,68.56-4.23,134.1-56.2,153.19-84.82C811.5,562.9,820.29,651,817.48,684c0,0,21.92,14.4,46.56-5.47a.82.82,0,0,0,.24-.1c1.55-8.25,9.18-27.5,25-72C904.92,559.48,923.07,485.1,932,415.25,931.88,415.09,931.83,415,931.83,415Z"/><g class="cls-3"><path class="cls-10" d="M446.85,287.83c7.6-62.54-15.21-97.16-26.19-116.6-8.08-14.32-13.86-23.13-8.94-35.55q-8.62,5-16.28,9.56c20.32,23.64,47,84,45.47,141.52S278,439.24,248.83,442.23a57.91,57.91,0,0,1-18.18,16.61,45.24,45.24,0,0,0,5-2.12c4.64-2.33,10-2.49,16.26-.56,6-5.38,15.17-11.92,29.31-19.63C327.72,411.18,439.25,350.35,446.85,287.83Z"/></g><path class="cls-5" d="M248.83,442.23c29.13-3,190.59-97.91,192.08-155.47s-25.15-117.88-45.47-141.52c39.79-32.7,24.17-142.84,19.9-145S385.5,8.8,354.24,30.83,303.78,87,318,122.48c-46.19-28.41-98.05,2.14-122.92,27.73s-51.87,75.32-51.87,75.32c-16.18-.8-42.49,22.7-55.92,34s-19.09,20.51-53,27.55-35.33,48.78-33.93,94,59.37,46.64,106,45.25c29,13.42,48.75,18.37,75.61,13.42,20.8,19.54,34.86,23.88,48.67,19.09A57.91,57.91,0,0,0,248.83,442.23Z"/><g class="cls-11"><path class="cls-5" d="M183.69,219.53S235,208.21,297,230.86c29.81,12.53,63.57-2.84,52.25-47s-65.14-82.14-117.62-53.52C186.9,159,152.08,222.51,183.69,219.53Z"/></g><g class="cls-9"><path class="cls-5" d="M340.46,151.39s-34-49.16-8.66-86c30.34-44.07,62.85-43.34,62.85-43.34s27.46,39.73.73,83.8C374.43,137,340.46,151.39,340.46,151.39Z"/></g><g class="cls-9"><path class="cls-5" d="M395.44,145.24c39.79-32.7,24.17-142.84,19.9-145a6,6,0,0,0-3.5-.08c4.65,29.56,12.06,102.44-21.38,131.41-31.08,23.32-33.92,39.57-34.61,47.36s19.07-17.67,31.08-21.21,24.74,19.79,33.23,65-11.32,35.35-34.64,24-45.23-4.95-50.88-2.84c43.81,4.26,77.74,15.56,78.45,47.37S382.7,352.81,338.87,386s-81.27,52.29-73.49,36c5.64-15.56-20.5,21.92-31.1,21.2s11.31-59.36,24.74-57.94,39.57-4.26,42.39-12.74-47.34,10.6-70-31.09c-9.9-12.71-6.38,14.84,2.11,27.55s-4.95,39.6-34.62,55.13-47.36,9.91-60.79,3.53,10.6-4.92,19.8-10.6-24.74,2.14-19.8-24S141,318.89,92.93,290.62c-12-7.07,4.95-26.13,29-46.65s122.26-23.31,169.62-6.34c-31.11-14.86-103.37-21-128.11-18.85-9.18-.69,18.56-65.24,58.85-89.29a46.78,46.78,0,0,0,6.75-4.87,144.75,144.75,0,0,0-34,25.59c-24.87,25.57-51.87,75.32-51.87,75.32-16.18-.8-42.49,22.7-55.92,34s-19.09,20.51-53,27.55-35.33,48.78-33.93,94,59.37,46.64,106,45.25c29,13.42,48.75,18.37,75.61,13.42,20.8,19.54,34.86,23.88,48.67,19.09a57.91,57.91,0,0,0,18.18-16.61c29.13-3,190.59-97.91,192.08-155.47S415.76,168.88,395.44,145.24Z"/></g><path class="cls-5" d="M181.52,166.52s-43.8,6.61-51.23-42.14S110.47,23.6,113.76,22.77s42.14,24,70.22,39.65,43,33,47.93,61.15A519.32,519.32,0,0,0,181.52,166.52Z"/><g class="cls-9"><path class="cls-5" d="M195.86,69.73c13.95,10.69,21.3,26.51,11.5,31.27-10.55,5.12-28.21-12.85-42-25.22S133.22,50.7,126.85,41.86s0,6,4.6,13.07S118.74,119.24,158,142.21c24.36,9.56,9.18,23-8.14,9.56-11.85-9.21-19.39-33.79-23-48.41,1.2,7,2.38,14,3.44,21,7.43,48.75,51.23,42.14,51.23,42.14a519.32,519.32,0,0,1,50.39-43C227.71,99.75,216.33,83.66,195.86,69.73Z"/></g><g class="cls-11"><path class="cls-5" d="M127.56,33.08s63.6,31.4,71.39,45.51-2.13,15.56-26.16-1.39S117.56,30.78,127.56,33.08Z"/></g><g class="cls-12"><path class="cls-8" d="M133,37.36s37.14,20.51,56.36,38.18C197.77,82.85,169.66,49.17,133,37.36Z"/></g><path class="cls-10" d="M208.9,210.8c-.58,7-3.41,12.45-6.31,12.16s-4.79-6.29-4.2-13.31,3.4-12.45,6.3-12.15S209.47,203.76,208.9,210.8Z"/><path class="cls-8" d="M207.73,206.55c0,2.75-1.14,5-2.43,4.92s-2.31-2.3-2.25-5.06,1.12-5,2.41-4.92S207.76,203.79,207.73,206.55Z"/><path class="cls-10" d="M286.64,215.76c-.59,7-3.41,12.45-6.32,12.13s-4.78-6.27-4.21-13.28,3.42-12.48,6.32-12.16S287.22,208.72,286.64,215.76Z"/><path class="cls-8" d="M285.46,211.5c0,2.76-1.13,4.95-2.41,4.93s-2.31-2.33-2.28-5.09,1.14-5,2.44-4.9S285.51,208.74,285.46,211.5Z"/><g class="cls-9"><path class="cls-5" d="M188.94,186.66s17.9-20.83,30.48,1C215.55,168.26,200.55,159.05,188.94,186.66Z"/></g><g class="cls-9"><path class="cls-5" d="M262.75,184.08s17.91-20.83,30.5,1C289.38,165.69,274.37,156.48,262.75,184.08Z"/></g><path class="cls-10" d="M188.66,184s17.91-20.8,30.49,1C215.28,165.56,200.28,156.37,188.66,184Z"/><path class="cls-10" d="M262.49,181.38s17.91-20.8,30.49,1C289.11,163,274.1,153.8,262.49,181.38Z"/><path class="cls-10" d="M237.58,404.67c7.52-16.38,10.25-28,18.79-26,21.51,4.13,46.45-4.44,36.56-4.09-54,7.87-59.44-29-59.79-25.63s2.38,13.33,8.54,20.86,4.1,5.78-5.81,27.66c-9.24,24.28-44.52,37.85-64.15,43.69,3.32-.32,6.72-.8,10.26-1.44a122.9,122.9,0,0,0,15.79,12.82C218.23,453.59,230.21,420.76,237.58,404.67Z"/><g class="cls-12"><path class="cls-8" d="M173.85,224.19s73.86-13.52,121.23,12.5C273.5,223.15,238.52,211.47,173.85,224.19Z"/></g><path class="cls-13" d="M195.78,144.06s2.8-41-34.66-65.47C138,61.78,135.55,57.23,135.55,57.23s-7.35,53.23,17.86,74.94A67.28,67.28,0,0,0,195.78,144.06Z"/><g class="cls-9"><path class="cls-13" d="M161.12,78.59C138,61.78,135.55,57.23,135.55,57.23s-6.37,46.29,13.21,70.15c0,0-10.6-35.35-2.82-43.83s33.21,27.58,33.21,40.29,0,17.67-13.42,14.14a11.62,11.62,0,0,0-3.14-.43,67.36,67.36,0,0,0,33.19,6.51S198.58,103.09,161.12,78.59Z"/></g><path class="cls-13" d="M391.17,28.42S294.35,56,343.11,147.16C372.79,120.31,420.85,101.94,391.17,28.42Z"/><path class="cls-14" d="M232.77,408.63S213,432.36,186.72,438.46c6.81,8.22,13.38,12.45,21.85,7S228.78,420.15,232.77,408.63Z"/><g class="cls-9"><path class="cls-15" d="M186.72,438.46a47.08,47.08,0,0,0,4.84,5.11,11.61,11.61,0,0,1,4.95-1.31c12.48-.48,22-10.36,31.41-22.7a87.31,87.31,0,0,0,4.85-10.93S213,432.36,186.72,438.46Z"/></g><path class="cls-16" d="M118.37,334.45c-20.49-38.16-53-55.13-77-48.76-4.76,1.26-8.95,2.22-12.63,3C.21,299-1,338.49.34,381.08c1.29,40.83,48.65,46,92.16,45.52a34.79,34.79,0,0,1,4.67-.27C123.32,426.33,138.87,372.6,118.37,334.45Z"/><g class="cls-9"><path class="cls-16" d="M103.53,361.3c-4.94-23.32-14.83-43.83-41-65.73-6-5-8.62-8.57-9.24-11.16a39.84,39.84,0,0,0-12,1.28c-4.76,1.26-8.95,2.22-12.63,3C.21,299-1,338.49.34,381.08c1.29,40.83,48.65,46,92.16,45.52a34.79,34.79,0,0,1,4.67-.27c26.15,0,41.7-53.73,21.2-91.88a126.57,126.57,0,0,0-9.24-14.73C136.49,364.75,108.4,384.24,103.53,361.3Z"/></g><path class="cls-17" d="M99.75,374.1c-9-42.49-33-81-62.47-85a23.28,23.28,0,0,0-15.52,3A33.16,33.16,0,0,0,15,297.9c-4.84,5.51-8,12.64-10,18.77C-.35,334-.41,357.07.34,381.08s17.57,35.75,40.14,41.18C91.22,430.27,108.51,415.43,99.75,374.1Z"/><path class="cls-18" d="M11.16,341.59s6.59,8.79,3.46,24.82c-2.08,13.34-1.64,21.31,4.79,19.79C31.62,383.25,24.49,354.5,11.16,341.59Z"/><path class="cls-18" d="M52.63,343.39s7.5,8,6.11,24.31c-.66,13.47.64,21.36,6.86,19.14C77.43,382.64,67.28,354.79,52.63,343.39Z"/><g class="cls-9"><path class="cls-17" d="M99.75,374.1c-9-42.49-33-81-62.47-85a23.28,23.28,0,0,0-15.52,3A33.16,33.16,0,0,0,15,297.9a40.41,40.41,0,0,0-3.36,4.44c19-25.83,55.69,7.13,69.88,34.84,14.51,28.3-2.06,38-10.34,21.39s-29-29.67-22.78-18.64,6.91,25.55,0,30.36-15.88-.67-22.09-15.18C19,338.27,4.17,328.21,8.32,338.57c6.91,12.42,4.82,35.18-2.75,35.87C2,374.76.53,367,0,358.7,0,366,.12,373.48.34,381.08c.77,24.1,17.57,35.75,40.14,41.18C91.22,430.27,108.51,415.43,99.75,374.1Z"/></g><path class="cls-19" d="M2.79,389.63s29,50.38,93.87,20C82.17,423.44,24.88,440,2.79,389.63Z"/><path class="cls-20" d="M23.5,302S4.87,313,3.48,356.51C-2,331.66,6.93,302.66,23.5,302Z"/><g class="cls-9"><path class="cls-13" d="M345,115c-5.35-20.86,1.2-51.22,26.22-64.34s28,32.19,28,32.19v0c2.92-14.08,1.21-31.62-8-54.46,0,0-96.82,27.58-48.06,118.74,14.29-12.93,32.8-23.88,44.89-40C378.42,117.07,350.14,135,345,115Z"/></g><g class="cls-11"><path class="cls-5" d="M333.2,58.73s24.41-35.23,60.56-40.67c6.31-.91,16.26,20.78,16.7,42,.91,19.42,3.63-16.73-.44-44.28-2.72-13.12-8.12-9.5-19.42-3.61S335.91,36.59,333.2,58.73Z"/></g><g class="cls-11"><path class="cls-5" d="M186.58,406.52c28.45-3.72,36-32.85,30.74-58.29s11.66-37.11,13.79-27.57,11.64,29.69,55.12,39.22,80.56-49.83,66.78-83.75-70.12-45.51-143.27-48.67-100,37.64-100,37.64c-11.65,15.9,16.38,28,30.16,64S146.29,411.82,186.58,406.52Z"/></g><g class="cls-12"><path class="cls-8" d="M165.88,236.91s-59.07,9.42-32.31,62.54C115.55,279.32,113.93,241.14,165.88,236.91Z"/></g><g class="cls-12"><path class="cls-8" d="M262.9,123.36s-59.37,12.72-81.62,68.92C184.45,159.4,226.85,122.32,262.9,123.36Z"/></g><g class="cls-11"><path class="cls-5" d="M520.5,94.87S639.43,35.41,714.13,64.38s169.74,117.43,185,212S897.61,505,839.67,503.49s-115.86-125-112.82-199.7c1.52-30.5-85.37-19.81-53.36,89.93,19.84,61,19.84,96.07-9.13,100.64s-50.32-59.46-61-97.59-39.64-18.28-33.55,27.45,3,150.92-36.59,172.29-24.39-44.23-85.37-105.2c-47.25-47.28-65.56-93-27.44-117.4s70.12-71.65,56.42-132.64S451.91,133,520.5,94.87Z"/></g><g class="cls-12"><path class="cls-8" d="M581.28,85s137.11-65,253,83.4C824.4,133,718.39,17.12,581.28,85Z"/></g><g class="cls-12"><path class="cls-8" d="M855.49,194.5s38.17,50.9,42.41,118.74S919.11,245.4,855.49,194.5Z"/></g><g class="cls-12"><path class="cls-8" d="M429.9,454.66s50.33,40,71,105.84C511.21,588.88,497,489.52,429.9,454.66Z"/></g><g class="cls-4"><path class="cls-5" d="M665,603.23s0,29.69-2.59,42.62,27-2.38,34.86-38.07C708.27,557.68,663.67,572.22,665,603.23Z"/></g><path class="cls-21" d="M329.36,722.88s-11.29,6.48-17.13,24,5.1,22.41,11.3,19.12c9.64,5.46,33.72,6,45.38-6.16s8.75-37.89-1.33-51.14C354.08,733.56,329.36,722.88,329.36,722.88Z"/><g class="cls-9"><path class="cls-21" d="M367.58,708.66c-13.5,24.9-38.22,14.22-38.22,14.22a29.81,29.81,0,0,0-5.56,4.57c3.34,1.21,8.39,2.09,16.06,2.09,22.16,0,27.42-16.89,28.54,4.5S353,764.83,336.49,763.71s-11.65-13.9-7.13-27.42c-7.14,7.9-10.14,24.42-14.64,21.42s-1.5-13.15-1.5-13.15h-.16c-.28.75-.56,1.5-.83,2.28-5.84,17.48,5.1,22.41,11.3,19.12,9.64,5.46,33.72,6,45.38-6.16S377.66,721.91,367.58,708.66Z"/></g><path class="cls-21" d="M655.5,674.74s-21.56,21.55-20.5,37.45c1.06,8.49,10.59,8.49,12.72,6.73,18,7.06,43.46-.38,44.88-19.79s-4.6-25.81-4.6-25.81C667.87,688.87,655.5,674.74,655.5,674.74Z"/><path class="cls-22" d="M688,673.32c-20.13,15.55-32.5,1.42-32.5,1.42s-1,1-2.48,2.62c8.66,14.3,31,.75,31.27,13.82.27,13.76-11.66,23.85-23.59,23.05S650.89,703.63,653,693c-6.09,7.69-4.24,20.94-11.39,19.09-6-1.55-2.2-14.29-.75-18.5-3.56,6-6.27,12.69-5.88,18.58,1.06,8.49,10.59,8.49,12.72,6.73,18,7.06,43.46-.38,44.88-19.79S688,673.32,688,673.32Z"/><path class="cls-21" d="M497.89,738.35c-11.31-2.49-12.73-11.67-12.73-11.67-45.22,33.92-35.33,51.59-21.19,51.59-.71,4.23,2.82,9.91,24.73,7.76,28.27-3.53,33.92-34.61,30.38-52.28C519.08,733.75,509.2,740.81,497.89,738.35Z"/><path class="cls-21" d="M817.48,684c-7.63,4.42-20.09,20.88-25.31,34.94s11.65,13.25,11.65,13.25,9.24,8.83,37.75,3.21C871.3,728.93,864,687.46,864,681.08a16.24,16.24,0,0,1,.3-2.7.82.82,0,0,1-.24.1C839.4,698.35,817.48,684,817.48,684Z"/><g class="cls-9"><path class="cls-21" d="M519.08,733.75s-9.88,7.06-21.19,4.6-12.73-11.67-12.73-11.67c-.92.7-1.79,1.39-2.68,2.06,2.67,4.61,7.1,10.6,13.19,13.2,10.51,4.5,15.77-2.63,13.13,10.52s-9.74,26.27-25.89,26.27-10.89-18.77-3-34.54c-8.64,8.62-16.53,25.54-20.67,22.14-3.19-2.62.61-13.57,2.47-18.37-16.83,20-8.54,30.31,2.26,30.31-.71,4.23,2.82,9.91,24.73,7.76C517,782.5,522.62,751.42,519.08,733.75Z"/></g><path class="cls-22" d="M864,681.08a16.24,16.24,0,0,1,.3-2.7.82.82,0,0,1-.24.1C839.4,698.35,817.48,684,817.48,684a22.64,22.64,0,0,0-3.32,2.41c4.63,7.79,13.62,10.71,24.44,8.64,12.58-2.4,16.93-4.36,16.69,9s-16,31.22-33.61,28.06-15.5-16.68-8.73-29.51c-8.46,8.22-11.35,24-14,21.53-7-5.33,3.16-23.46,3.16-23.46l-.08-.05a87.82,87.82,0,0,0-9.83,18.37c-5.22,14.05,11.65,13.25,11.65,13.25s9.24,8.83,37.75,3.21C871.3,728.93,864,687.46,864,681.08Z"/><path class="cls-23" d="M324.77,732.49a45.75,45.75,0,0,0-9.11,19.06C314.58,758.78,309.49,741.08,324.77,732.49Z"/><path class="cls-23" d="M478.36,735.25a73.58,73.58,0,0,0-14.72,23.45C463.64,744.51,472.36,740.14,478.36,735.25Z"/><path class="cls-23" d="M650.17,686.68s-5.44,9.82-7.08,16.92-3.28-1.1,1.08-10.9S652.9,682.88,650.17,686.68Z"/><path class="cls-23" d="M809.55,698.27s-6.8,8.92-9.45,15.72-3.08-1.56,2.65-10.66S812.79,694.87,809.55,698.27Z"/></g></g></svg>