<svg xmlns="http://www.w3.org/2000/svg" viewBox="0 0 903.82 1060.67"><defs><style>.cls-1{isolation:isolate;}.cls-2{fill:#e00000;}.cls-3{fill:#820000;}.cls-39,.cls-4{fill:#fed600;}.cls-45,.cls-5{fill:#6caf23;}.cls-37,.cls-6{fill:#0087bb;}.cls-7{fill:#006b8c;}.cls-11,.cls-8{fill:#0bd0f4;}.cls-9{fill:#08aec4;}.cls-10,.cls-13,.cls-43{fill:#b80000;}.cls-10,.cls-12,.cls-17,.cls-22,.cls-23,.cls-27,.cls-36,.cls-37,.cls-40,.cls-45,.cls-50{opacity:0.5;}.cls-10,.cls-12,.cls-13,.cls-15,.cls-23,.cls-24,.cls-27,.cls-37,.cls-40,.cls-45,.cls-46,.cls-52{mix-blend-mode:multiply;}.cls-11,.cls-17,.cls-22,.cls-39,.cls-49,.cls-50,.cls-51{mix-blend-mode:screen;}.cls-14{fill:#fea300;}.cls-16{fill:#febd00;}.cls-17,.cls-28,.cls-36{fill:#fff;}.cls-18,.cls-49{fill:#bca99c;}.cls-19{fill:#8c7567;}.cls-20,.cls-22,.cls-23{fill:#fa5d51;}.cls-21,.cls-24{fill:#c62e26;}.cls-25,.cls-27{fill:#026d8e;}.cls-26{fill:#025163;}.cls-29{fill:#d8906e;}.cls-30{fill:#b8c9d3;}.cls-31{fill:#6bb9ee;}.cls-32{fill:#a1cfea;}.cls-33{fill:#5585be;}.cls-34{fill:#192101;}.cls-35{fill:#dedede;}.cls-38{fill:#4e7f0f;}.cls-40{fill:#8e0101;}.cls-41{fill:#feb900;}.cls-42,.cls-52{fill:#c24251;}.cls-44{fill:none;}.cls-46{opacity:0.7;}.cls-47{fill:#cdcdcc;}.cls-48{fill:#adadac;}</style></defs><g class="cls-1"><g id="Layer_1" data-name="Layer 1"><path class="cls-2" d="M624.11,134.54S615.33,76.32,667,37c0,0,1.76,15.72-.35,29.48C689.08,28.15,735.17-.82,782.2,1.36c1.53,20.57-16,48.24-37.79,67.29,17.51-12.31,31-14.15,31-14.15s.31,37.48-32.57,68.23c21.53-14.77,32.57-14.45,32.57-14.45S772.05,130.4,746.26,155c23.35-4,45.16,11.37,49.45,15.06-15.66-1.56-24.26,4-24.26,4s10.23,6.74,24.57,33c16.8,30.71,16.8,18.42,45.49,60.22s82.74,97.5,51.61,177c-4.08-20.49-24.57-45.09-24.57-45.09s29.48,34.43,2.19,86.11c0,0-3-23.41-16.94-38.58,12.28,43-.42,74.57-10.26,89.3,0,0-4.08-18-13.92-29.89,9,29.51-7,59.79-50.8,93.42,6.16-11.88,2.45-36.5,2.45-36.5s-.6,59-54.07,87.28C686,670,658.36,671.21,619,700.06c0,0,106.94-108.75,84.81-202.17S631.63,225.93,624.11,134.54Z"/><path class="cls-3" d="M619,701.31a1.26,1.26,0,0,1-.93-.42,1.2,1.2,0,0,1,.06-1.67c1.06-1.07,106.19-109.38,84.46-201-5.24-22.24-12.22-49.77-19.6-78.87-24.24-95.75-54.4-214.95-60.14-284.66-.08-.51-8.26-59.33,43.32-98.64a1.27,1.27,0,0,1,2,.85,143,143,0,0,1,.29,24.24C692.31,24.35,735.32,0,777.27,0c1.66,0,3.32,0,5,.1a1.26,1.26,0,0,1,1.18,1.16c1.27,16.85-10.54,40.39-29.5,60,12.31-6.71,20.93-8,21.34-8a1.29,1.29,0,0,1,1,.29,1.27,1.27,0,0,1,.43.92c0,.35,0,32.52-25.67,61.61,15.12-8.77,23.37-9,24.39-9a1.27,1.27,0,0,1,1,.42,1.35,1.35,0,0,1,.29,1c-.13.87-3.5,21.31-26.91,44.83,1.43-.14,2.92-.2,4.37-.2,19.47,0,37.23,11.56,42.41,16a1.18,1.18,0,0,1,.33,1.4,1.31,1.31,0,0,1-1.24.77,48.15,48.15,0,0,0-5.31-.29,40.22,40.22,0,0,0-16.59,3.24c3.44,2.93,12.16,11.65,23.41,32.19,8.55,15.67,12.76,20.12,18.58,26.25s12.84,13.5,26.81,33.89c3.7,5.34,7.79,10.92,12.1,16.82,29.87,40.75,67,91.42,39.67,161.3a1.27,1.27,0,0,1-1.27.77,1.22,1.22,0,0,1-1.1-1c-1.92-9.63-7.56-20.23-12.9-28.66,5.61,15.26,8.84,39.71-7.19,70a1.2,1.2,0,0,1-1.3.65,1.29,1.29,0,0,1-1-1.05c0-.22-2.59-19.1-13.07-33.59,11,45.55-6.15,76.26-11.87,84.82a1.2,1.2,0,0,1-1.27.53,1.22,1.22,0,0,1-1-.92c0-.17-3.07-13.3-10-24.32,5.28,28.3-12.06,57.32-52.77,88.52a1.22,1.22,0,0,1-1.84-1.52c3.12-6.07,3.58-15.73,3.35-23.47-3.39,19.1-14.83,55.57-53.32,75.91-15.19,7.27-28.47,12-41.27,16.55-21.58,7.69-42,14.95-66.7,33.13A1.45,1.45,0,0,1,619,701.31ZM666,39.34c-48.52,38.41-40.73,94.43-40.64,95C631.05,204,661.2,323,685.44,418.68c7.35,29.14,14.33,56.67,19.59,78.93,11.54,48.68-12.26,101.4-34.24,137a435.27,435.27,0,0,1-43.28,58c21-13.84,39.12-20.26,58.15-27.06,12.74-4.53,26-9.25,41-16.43,52.14-27.58,53.37-85.58,53.37-86.18a1.25,1.25,0,0,1,1.16-1.21,1.13,1.13,0,0,1,1.28,1c.15.9,2.94,20.18-.89,32.92,40.17-31.74,55.5-61,46.84-89.31A1.25,1.25,0,0,1,829,505a1.21,1.21,0,0,1,1.51.29c7.71,9.3,11.91,22.06,13.47,27.65,6.83-11.27,21.15-42,8.6-85.92a1.2,1.2,0,0,1,.58-1.42,1.24,1.24,0,0,1,1.49.25c10.85,11.8,15.18,28.25,16.63,35.54,22.69-46.43-.68-77.69-3.54-81.24h0a1.49,1.49,0,0,1-.27-1.3,1,1,0,0,1,.33-.53,1.15,1.15,0,0,1,1.64,0h0l.1.11a0,0,0,0,0,0,0,.18.18,0,0,0,.07.09h0c2,2.43,18.35,22.83,23.7,41.45,24.13-66.7-11.77-115.71-40.75-155.21-4.33-5.93-8.43-11.51-12.14-16.91-13.88-20.22-20.93-27.63-26.58-33.57-5.95-6.29-10.24-10.82-19-26.77-14-25.56-24.11-32.5-24.19-32.55a1.2,1.2,0,0,1-.54-1,1.24,1.24,0,0,1,.54-1c.29-.17,7.08-4.44,19.53-4.44h1.47c-7.19-5.05-21.83-13-37.66-13a46.34,46.34,0,0,0-7.67.64,1.26,1.26,0,0,1-1.3-.67,1.24,1.24,0,0,1,.25-1.44c21.38-20.35,27.2-39.1,28.52-44.44-3.68.47-13.92,2.82-30.34,14.09a1.23,1.23,0,0,1-1.64-.26,1.22,1.22,0,0,1,.08-1.66C770.43,95.24,773.77,63.21,774.14,56c-3.87.84-15.24,4-29,13.64a1.22,1.22,0,0,1-1.68-.23,1.24,1.24,0,0,1,.15-1.69c22.95-20,38.18-46.63,37.43-65.18C736.85,1,691,27.31,667.7,67.1a1.23,1.23,0,0,1-2.28-.81C667,55.86,666.33,44.13,666,39.34Z"/><path class="cls-4" d="M669.92,362.15c.16.17.27.4.43.56,23.7,28.81,56.06,41.32,91.53,49.55,14.67,3.41,27,7.95,38.61,17.87,2,1.66,17,16.17,18.36,12.71a48.87,48.87,0,0,0,3-22.46C819,390.33,802.61,364.1,796.27,335c-.25-1.1,1.51-4.88,3-3.52,9.43,8.42,16.74,18.79,25.88,27.5,6.65-32.53-11.9-65.6-20.72-96.09-.33-1.21,1.47-4.66,3.05-3.53,14,10.08,23,24.8,33.74,38.07a127.56,127.56,0,0,0-.16-30.82c-28.22-40.94-28.32-29-45-59.54-14.34-26.24-24.57-33-24.57-33s8.6-5.56,24.26-4c-4.29-3.69-26.1-19.06-49.45-15.06,25.79-24.59,29.17-46.71,29.17-46.71s-11-.32-32.57,14.45C775.74,92,775.43,54.5,775.43,54.5s-13.51,1.84-31,14.15C766.23,49.6,783.73,21.93,782.2,1.36c-47-2.18-93.12,26.79-115.57,65.13C668.74,52.73,667,37,667,37c-51.65,39.31-42.87,97.53-42.87,97.53C628.74,190.79,649.51,280,669.92,362.15Z"/><path class="cls-5" d="M669.92,362.15c.16.17.27.4.43.56a119,119,0,0,0,19.15,18.6c14.43,8.86,30.76,13.58,48.78,11.82-7.56-21.73-32.46-33.49-47.6-49.41-1.27-1.34,1.07-4,2.48-4.05,25.15-.46,47.4,16.79,67.85,29.9.87-34.47-23.78-64.43-33.19-96.58-.39-1.39,1.93-5,3.32-3.23,8.92,11.4,19.55,20.89,32.42,27.49,7.54-21-6.61-47-11.34-67.32-.31-1.35,1.31-4.4,3-3.51,19,9.83,35.76,22.62,57.67,24.11a123.7,123.7,0,0,0,1.25-17.69c-5.62-5.93-9.82-10.61-18.15-25.81-14.34-26.24-24.57-33-24.57-33s8.6-5.56,24.26-4c-4.29-3.69-26.1-19.06-49.45-15.06,25.79-24.59,29.17-46.71,29.17-46.71s-11-.32-32.57,14.45C775.74,92,775.43,54.5,775.43,54.5s-13.51,1.84-31,14.15C766.23,49.6,783.73,21.93,782.2,1.36c-47-2.18-93.12,26.79-115.57,65.13C668.74,52.73,667,37,667,37c-51.65,39.31-42.87,97.53-42.87,97.53C628.74,190.79,649.51,280,669.92,362.15Z"/><path class="cls-6" d="M652.14,266.34c1.64,47.52,36.49,12.28,55.11-51.21,16.26-43.48,49.32-51.06,88.09-45.39-5-4.15-26.31-18.64-49.08-14.75,25.79-24.59,29.17-46.71,29.17-46.71s-11-.32-32.57,14.45C775.74,92,775.43,54.5,775.43,54.5s-13.51,1.84-31,14.15C766.23,49.6,783.73,21.93,782.2,1.36c-47-2.18-93.12,26.79-115.57,65.13C668.74,52.73,667,37,667,37c-51.65,39.31-42.87,97.53-42.87,97.53.21,2.7.46,5.51.77,8.37,2.2,6,4.62,12.08,7.6,18.54C648.87,197.49,650.51,218.83,652.14,266.34Z"/><path class="cls-7" d="M662.36,289.57h0c-4.83,0-10.8-4-11.46-23.17-1.57-46.08-3-68-19.53-104.44-2.7-5.78-5.12-11.7-7.63-18.64-.35-3.14-.64-6-.85-8.67-.08-.51-8.26-59.33,43.32-98.64a1.27,1.27,0,0,1,2,.85,143,143,0,0,1,.29,24.24c24.76-38.19,70.12-63,113.75-61a1.26,1.26,0,0,1,1.18,1.16c1.27,16.85-10.54,40.39-29.5,60,12.31-6.71,20.93-8,21.34-8a1.29,1.29,0,0,1,1,.29,1.27,1.27,0,0,1,.43.92c0,.35,0,32.52-25.67,61.61,15.12-8.77,23.37-9,24.39-9a1.27,1.27,0,0,1,1,.42,1.35,1.35,0,0,1,.29,1c-.13.87-3.5,21.31-26.91,44.83,1.45-.14,2.92-.2,4.39-.2,21.67,0,39.55,13.73,41.76,15.51a1.2,1.2,0,0,1,.71,1.13,1.21,1.21,0,0,1-1.2,1.21h-.25a141.26,141.26,0,0,0-20.63-1.64c-33.3,0-54.3,14.71-66.11,46.24C696.25,257,676,289.57,662.36,289.57ZM666,39.34c-48.52,38.41-40.73,94.43-40.64,95,.22,2.82.49,5.61.78,8.45,2.45,6.57,4.83,12.4,7.5,18.15,16.76,36.87,18.17,59,19.79,105.35.43,13.41,3.64,20.79,9,20.79h0c10.81,0,30.62-27.62,43.73-72.32,12.06-32.26,34.43-47.9,68.43-47.9a138.89,138.89,0,0,1,16.18,1c-6.47-4.39-20.43-12.3-36.57-12.3a46.58,46.58,0,0,0-7.69.64,1.26,1.26,0,0,1-1.3-.67,1.24,1.24,0,0,1,.25-1.44c21.34-20.3,27.18-39.06,28.5-44.44-3.66.47-13.92,2.82-30.32,14.09a1.23,1.23,0,0,1-1.64-.26,1.22,1.22,0,0,1,.08-1.66C770.5,95.23,773.79,63.21,774.16,56c-3.89.84-15.26,4-29,13.64a1.22,1.22,0,0,1-1.68-.23,1.24,1.24,0,0,1,.15-1.69c22.95-20,38.18-46.63,37.43-65.18-1.26-.06-2.51-.06-3.75-.06-42.88,0-86.92,26-109.57,64.62a1.23,1.23,0,0,1-2.28-.81C667,55.86,666.33,44.13,666,39.34Z"/><path class="cls-8" d="M868.67,399.35a1.51,1.51,0,0,1-.12-.19Z"/><path class="cls-9" d="M868.73,400.57c-.14,0-.29,0-.41-.05a1.11,1.11,0,0,1-.58-.42h0s-.06-.05-.1-.1l0-.08h0a1.21,1.21,0,0,1,.21-1.72,1.49,1.49,0,0,1,2.22,1.15A1.26,1.26,0,0,1,868.73,400.57Z"/><path class="cls-7" d="M715.51,132.71c.21-.57.21-1.16-.12-1.25a.86.86,0,0,0,0-.22c-.06-.61-.93.31-.93.65v0A121.92,121.92,0,0,0,685,159.55c2.71-16.14,3.25-32.56,3.4-48.94.1-13.69-1.37-28-6.61-40.78-.09-.54-.37-.85-1-.19a170.73,170.73,0,0,0-19,21.67c.67-5.3,1.08-10.58,2.26-15.81,1-4.34,2.61-8.45,3.81-12.71.15-.51-.41-.23-.54,0-4,9.94-7.49,19.56-7,30.48-2.34,3.26-4.58,6.57-6.65,10-7.83,12.94-11.83,21.11-9.59,36.13.12.7,1-.34,1-.74,0-7.43-1.27-12.51,2-20.68,2.82-7.13,8.06-13.75,12.08-20.26,5.93-9.55,14.63-17.66,22-26.16,2.66,15,5.35,29.07,5,44.51-.31,15.76-2.18,31.17-3.57,46.8a85.63,85.63,0,0,0-13.77,32.14c-.15.76.64.22.76-.2,6.82-26.24,24-44.81,45-60.94,0,17.26.81,35-1.76,52.11-1.49,9.79-3.15,19.48-5.45,29.11-2.47,10.44-8.45,20.6-12.91,30.31-.74,1.59.89,1.79,1.62.52C715.25,211.72,719.37,171.37,715.51,132.71Z"/><path class="cls-7" d="M747.6,64.79c-4.93,5.47-11.45,9-17.5,13-.46.32-1.12,2-.08,1.5,6.67-3.1,13.55-8.08,17.94-14C748.29,64.93,748.12,64.2,747.6,64.79Z"/><path class="cls-9" d="M760.12,422.42c-.4-.18-.81-.31-1.22-.47-1.95-15.61-6.51-30.43-14.84-43.88-8.7-14.06-22.27-20.48-37.18-25.86-.23-.09-.52.39-.34.51,13.57,7.23,23.85,11.41,33.86,23.95,10.25,12.88,13.15,29,16.55,44.55-7.42-2.77-15.23-4.32-22.48-7.71a76.8,76.8,0,0,1-23.08-17c-.16-.18-.45.24-.33.39,11,15.81,28.18,22.75,46.47,27a3.48,3.48,0,0,0,.1.44c.13.6.58.29,1-.19a3.29,3.29,0,0,0,.54.14C759.81,424.45,760.82,422.75,760.12,422.42Z"/><path class="cls-9" d="M782.08,427.92c-.19-.53-.85.31-.77.65,6.05,25.64,4.25,58.9-14.17,79.36-1.43-20.7-10-41.14-24.51-55.94-.25-.22-.81.57-.6.82,14,15.76,21.38,35.84,23.72,56.64-.23.23-.39.48-.62.71-.64.65-1,2.83.33,1.72C787.5,493.39,790.82,453.48,782.08,427.92Z"/><path class="cls-8" d="M868.67,399.35a1.51,1.51,0,0,1-.12-.19Z"/><path class="cls-9" d="M868.73,400.57c-.14,0-.29,0-.41-.05a1.11,1.11,0,0,1-.58-.42h0s-.06-.05-.1-.1l0-.08h0a1.21,1.21,0,0,1,.21-1.72,1.49,1.49,0,0,1,2.22,1.15A1.26,1.26,0,0,1,868.73,400.57Z"/><path class="cls-10" d="M841.51,267.25a.29.29,0,0,1-.08-.13c23.57,42.75,25.4,92.21,25.4,92.21s-6.16-36.85-50.38-72.5c24.56,40.55,25.81,119.23,25.81,119.23s-2.34-17-33.77-61.52c16,25.14,25.88,76.63,20.24,136.48-1.24-13.53-13.53-31.94-47.94-76.2,9.84,27,8.6,65.12-13.65,103.11-.15-9.91.15-20.76-9.69-38s-9.85-22.12.08-46c9.9-62-44.73-139.52-66-173.94s-10.81-61.63,23-116c-18.13,12.33-44,44.18-47.48,72.65-25.09-54.69-13.12-83.21,14.08-135-28.09,23.54-37.45,58-37.45,58-7.17-29.28.12-58.25,8.91-79.53-35.39,38-28.41,84.46-28.41,84.46,7.52,91.39,57.62,269.94,79.74,363.35S619,700.06,619,700.06C658.36,671.21,686,670,727.2,650.3,780.67,622.05,781.27,563,781.27,563s3.71,24.62-2.45,36.5c43.84-33.63,59.81-63.91,50.8-93.42C839.46,518,843.54,536,843.54,536c9.84-14.73,22.54-46.3,10.26-89.3,13.92,15.17,16.94,38.58,16.94,38.58,26.21-49.62,0-83.35-2.07-85.92l-.12-.19a1.51,1.51,0,0,0,.12.19c1.51,1.83,20.51,25.22,24.45,44.9C924.25,364.75,870.18,309,841.51,267.25Z"/><path class="cls-11" d="M773.6,7.61c-9.4,30.58-30,59-54.56,79-2.28,1.87-3,8,1,5.11C746.88,72.4,768.26,39.6,775.16,7.21,775.47,5.66,773.85,6.79,773.6,7.61Z"/><path class="cls-11" d="M761.61,78.63a151.05,151.05,0,0,1-11.81,30.21c-4.95,9.47-12.7,16.12-19,24.49-1.09,1.43-.62,3.8,1.18,1.9,8-8.27,14.65-14.67,20.1-25,5.34-10.16,8.8-21,11.45-32.13C764,76.26,761.88,77.56,761.61,78.63Z"/><path class="cls-11" d="M775,164.81c-15.08-4-31.76-.85-43.86,9-.87.7-1.86,4.08.17,3,12.78-6.77,26.58-4.64,40.38-4.19C774.56,172.67,778.7,165.79,775,164.81Z"/><path class="cls-11" d="M839.73,264.17c-10.17-17.31-23.39-26.41-40.69-35.86-1.28-.7-3.19,2.41-2,3.28,31.12,22.63,50.9,54.68,59.33,92.46.61,2.79,4-1.61,3.82-3.27C858.35,301.11,849.67,281.08,839.73,264.17Z"/><path class="cls-11" d="M812.28,275.69c-.91-1.47-3.4,1.83-2.67,3.14,17.59,31.6,21.11,64,23.24,99.42.19,3,3.42-.35,3.48-2C838.16,341,830.45,306.13,812.28,275.69Z"/><path class="cls-11" d="M802.17,336.42c-.6-1.07-2.24,1.21-1.82,2.12,18.37,38.68,26.5,72.8,23.86,116-.14,2.93,3.36-.38,3.53-2C832.4,407.91,824.21,374.79,802.17,336.42Z"/><g class="cls-12"><path class="cls-13" d="M888.08,338.12c7.77,43.45-.54,60.13-.54,60.13s-9.67-13.53-34.78-34.77c15.46,30.92,14.48,86,14.48,86a101.42,101.42,0,0,0-24.11-32.85c9.63,18.38,4.8,90.82,4.8,90.82s-4.8-11.6-35.75-33.82c11.6,28-12.54,70.51-12.54,70.51l2.88-65.69s-11.6,51.21-54.09,81.18c14.5-49.27,2.88-80.19-22.23-116S703,388.58,703,388.58s27,26.1,51.19,29c-48.31-18.34-68.59-73.4-67.61-95.64,0-34.77-18.36-98.52-44.44-170-9.88-25.34-12.45-47.76-11.56-66.3-9.84,26.43-6.51,48.92-6.51,48.92,7.52,91.39,57.62,269.94,79.74,363.35S619,700.06,619,700.06C658.36,671.21,686,670,727.2,650.3,780.67,622.05,781.27,563,781.27,563s3.71,24.62-2.45,36.5c43.84-33.63,59.81-63.91,50.8-93.42C839.46,518,843.54,536,843.54,536c9.84-14.73,22.54-46.3,10.26-89.3,13.92,15.17,16.94,38.58,16.94,38.58,26.21-49.62,0-83.35-2.07-85.92l-.12-.19.12.19c1.51,1.83,20.51,25.22,24.45,44.9C909.34,402.88,902.44,368,888.08,338.12Z"/></g><path class="cls-4" d="M101.59,1014.73c-1.07,1.24-2.06,2.48-3,3.75C99.55,1017.25,100.58,1016,101.59,1014.73Z"/><path class="cls-14" d="M98.55,1019.73a1.22,1.22,0,0,1-1-2c1-1.3,2-2.56,3.09-3.8a1.2,1.2,0,0,1,1.7-.18,1.24,1.24,0,0,1,.19,1.73c-.64.84-1.31,1.66-2,2.47l-1,1.3A1.23,1.23,0,0,1,98.55,1019.73Z"/><path class="cls-4" d="M179,890.6c-19.07,38.11-53.67,59.6-63.5,54.7-3.94-2-4-6.71-2.67-11.72-31.25,30.91-64.25,51-83.79,65.8C-3.5,1024-5.34,1035,12.48,1050.39c23.74,19.58,57.23,3.55,86.07-31.91,1-1.27,2-2.51,3-3.75,12.65-14.93,47.23-54.86,68.42-86.79C171.26,920.81,174.2,909.32,179,890.6Z"/><path class="cls-14" d="M35.66,1060.05h0a36.69,36.69,0,0,1-23.95-8.73c-8.3-7.13-11.89-13-11.7-19.26.31-9,8.52-18.7,28.32-33.67,5-3.75,10.91-7.92,17.18-12.32,19.26-13.52,43.2-30.35,66.49-53.37a1.23,1.23,0,0,1,2.06,1.18q-2.16,8.21,2,10.31a6.28,6.28,0,0,0,2.87.58c12.88,0,42.28-21.34,59-54.74a1.26,1.26,0,0,1,1.55-.59,1.22,1.22,0,0,1,.75,1.46c-4.66,18.11-7.73,30.08-9,37.24a1.11,1.11,0,0,1-.19.47c-19.36,29.14-49.94,65.07-64.63,82.35l-3.89,4.56c-1,1.25-2,2.49-3,3.72C78.1,1045.56,55.43,1060.05,35.66,1060.05Zm75.27-122.87c-22.52,21.8-45.46,37.88-64,50.9-6.29,4.38-12.2,8.56-17.12,12.26-18.9,14.27-27.07,23.78-27.34,31.85-.18,5.34,3.17,10.67,10.8,17.24a34.5,34.5,0,0,0,22.39,8.15c19,0,41-14.12,61.93-39.85,1-1.28,2-2.54,3.07-3.78l3.88-4.6c14.63-17.2,45-52.89,64.29-81.89,1.08-5.93,3.32-14.94,6.59-27.73C157.86,929,131.3,947.21,119,947.21a9.11,9.11,0,0,1-4-.81C111.84,944.83,110.49,941.72,110.93,937.18Z"/><path class="cls-4" d="M268.52,928.26c-6.63.35-14.94-8.61-15.27-33.83-.27.56-.54,1.13-.83,1.66-.6,40.29-11.08,77.7-19.06,100.41a5.19,5.19,0,0,0,.34-.82s0,3.07-3.67,20.27c-7.36,25.19,30.12,35,47.94-22.13,9.3-34.32,12.34-82.53,13.28-116.86C284.24,905.62,273.82,928,268.52,928.26Z"/><path class="cls-14" d="M242.17,1037.17a13.78,13.78,0,0,1-11.35-5.4c-3.11-4.16-3.82-9.88-2-16.17,2.38-11.1,3.21-16.22,3.5-18.42a1.25,1.25,0,0,1-.12-1.07c8.32-23.81,18.37-60.48,19-100a1.07,1.07,0,0,1,.13-.53l.82-1.65a1.23,1.23,0,0,1,2.34.52c.34,25.76,8.77,32.63,13.68,32.63,4.12-.18,14.44-19.92,21.87-50.39a1.25,1.25,0,0,1,1.37-.92,1.19,1.19,0,0,1,1.06,1.24c-.93,34.46-4,82.77-13.32,117.17C269.27,1025.9,253.54,1037.17,242.17,1037.17Zm-7.23-41.43c0,.51-.25,4.35-3.71,20.5-1.62,5.57-1.08,10.55,1.56,14a11.29,11.29,0,0,0,9.38,4.42c10,0,25.15-10.79,34.62-41.25,8.32-30.68,11.62-72.69,12.88-105.81-6.28,21.77-15,41.56-21.09,41.87h-.41c-5.76,0-12.37-5.83-15-21.28C251.06,942.79,242.4,974.23,234.94,995.74Z"/><path class="cls-4" d="M173.49,939.74c-3.83-.67-5.07-2.56-3.48-11.8-21.19,31.93-55.77,71.86-68.42,86.79-10.44,16-16,35.66,1.84,42.39,35.66,11.7,55.33-22.71,75.6-66.37-.6,1.83-1.14,3.58-1.7,5.3,10.71-28.19,24-67,29.7-97.78C199.49,921.09,180,940.92,173.49,939.74Z"/><path class="cls-14" d="M116.93,1060.67a44.39,44.39,0,0,1-13.88-2.37c-6-2.25-9.79-6-11.47-11.12-3.66-11.29,4-25.6,9-33.12l4-4.71c14.67-17.22,45.19-53.07,64.46-82.09a1.3,1.3,0,0,1,1.49-.49,1.32,1.32,0,0,1,.75,1.37c-1.68,9.66.06,10,2.48,10.4a2.3,2.3,0,0,0,.38,0c6.19,0,24.44-18.4,31.75-40.67a1.24,1.24,0,0,1,2.39.6c-5.72,31.19-19.33,70.5-29.75,98a1.27,1.27,0,0,1-1.16.79h0C161.17,1031.36,144,1060.67,116.93,1060.67ZM168.15,932.9c-19.39,28.28-47.75,61.63-61.73,78.06l-3.89,4.56c-7.89,12.06-11,23.38-8.62,30.9,1.43,4.38,4.79,7.6,10,9.57a42.41,42.41,0,0,0,13.06,2.23c27.14,0,44.33-32.15,61-68a1.33,1.33,0,0,1,.49-.53c8.64-23.21,18.84-53.12,24.88-79.42C194.36,927.63,180.35,941,174.1,941a4.31,4.31,0,0,1-.83-.09C169.33,940.25,167.84,938.2,168.15,932.9Z"/><path class="cls-4" d="M219.59,935.47c-8.62,1.2-13.51-7.39-11.69-40-.24.92-.56,1.86-.87,2.76-5.65,30.79-19,69.59-29.7,97.78-10.3,32.47-12.74,46.54,4.76,50,27.95,3.43,48.48-42.93,51.27-49.58,8-22.71,18.46-60.12,19.06-100.41C243.89,912.83,227.92,934.24,219.59,935.47Z"/><path class="cls-14" d="M185,1047.48a23.4,23.4,0,0,1-3.08-.2c-5.82-1.15-9.64-3.46-11.75-7.08-4.52-7.6-1.66-20.43,6-44.52,10.42-27.44,24-66.62,29.64-97.65l.27-.81c.21-.67.44-1.36.62-2a1.28,1.28,0,0,1,1.41-.9,1.23,1.23,0,0,1,1,1.28c-1.16,20.42.29,32.48,4.43,36.84a6.25,6.25,0,0,0,5.82,1.82c7.52-1.06,23.06-21.33,31.93-38.68a1.16,1.16,0,0,1,1.38-.65,1.25,1.25,0,0,1,.94,1.2c-.58,39.89-10.71,76.83-19.13,100.82C231,1005.41,211.92,1047.48,185,1047.48ZM206.29,908c-6.42,29.29-18.42,63.68-27.8,88.47-7.23,22.82-10.19,35.69-6.18,42.46,1.79,3,5,4.89,10,5.89a18.33,18.33,0,0,0,2.69.18c25.86,0,45.12-44,47.22-49,7.95-22.69,17.48-57.21,18.81-94.8-8.62,15.38-22.79,34.24-31.29,35.44a8.68,8.68,0,0,1-8-2.55C208.09,930.23,206.33,921.82,206.29,908Z"/><g class="cls-15"><path class="cls-4" d="M115.53,945.3c-3.94-2-4-6.71-2.67-11.72a413.15,413.15,0,0,1-46,38.77c10.13-6.3,39.4-24,47.63-21.67,9.39,2.59-37.74,94.52-100,101.08C38,1069,70.46,1053,98.55,1018.48c1-1.27,2-2.51,3-3.75,12.65-14.93,47.23-54.86,68.42-86.79,1.25-7.13,4.19-18.62,9-37.34C160,928.71,125.36,950.2,115.53,945.3Z"/></g><g class="cls-15"><path class="cls-16" d="M67,1042.07c-4.63,4.65-9.35,9-14.17,13.18,15.2-5.82,31-18.73,45.71-36.77,1-1.27,2-2.51,3-3.75,12.65-14.93,47.23-54.86,68.42-86.79,1.14-6.51,3.73-16.74,7.81-32.72C146.26,948.34,111.13,997.77,67,1042.07Z"/></g><g class="cls-15"><path class="cls-4" d="M207,898.27c-7.54,22.82-27,42.65-33.54,41.47-3.83-.67-5.07-2.56-3.48-11.8-21.19,31.93-55.77,71.86-68.42,86.79-4.52,6.9-8.1,14.49-9.29,21.42,15.8-18.18,39.89-45.83,57.34-66,26.26-30.22,31.27,25.91-32.09,89.18,27-.51,44-31.09,61.48-68.6-.6,1.83-1.14,3.58-1.7,5.3C188,967.86,201.38,929.06,207,898.27Z"/></g><g class="cls-15"><path class="cls-16" d="M207,898.27a90.5,90.5,0,0,1-17.63,30.26c-9.34,36.66-21.08,72.26-41.27,105.28-4.52,7.42-9.4,14.4-14.46,21.2,18.24-9.69,31.66-34.82,45.36-64.26-.6,1.83-1.14,3.58-1.7,5.3C188,967.86,201.38,929.06,207,898.27Z"/></g><g class="cls-15"><path class="cls-4" d="M219.59,935.47c-8.62,1.2-13.51-7.39-11.69-40-.24.92-.56,1.86-.87,2.76-5.65,30.79-19,69.59-29.7,97.78-4.62,14.6-7.65,25.42-8,33.29,9.32-17,21.42-39.34,29.5-55.47,13.4-26.8,41.18-14,3.63,66.18,17.17-12.23,28.85-38.65,30.9-43.55,8-22.71,18.46-60.12,19.06-100.41C243.89,912.83,227.92,934.24,219.59,935.47Z"/></g><g class="cls-15"><path class="cls-16" d="M246,907.31c-.64,7.78-1.78,15.53-3.19,23.23-3.52,19.5-5.86,39.55-11.06,58.68a180.09,180.09,0,0,1-13.88,34.87,143,143,0,0,0,15.49-27.59c8-22.71,18.46-60.12,19.06-100.41C250.58,899.7,248.36,903.53,246,907.31Z"/></g><g class="cls-15"><path class="cls-4" d="M268.52,928.26c-6.63.35-14.94-8.61-15.27-33.83-.27.56-.54,1.13-.83,1.66-.6,40.29-11.08,77.7-19.06,100.41a5.19,5.19,0,0,0,.34-.82s0,3.07-3.67,20.27a19.66,19.66,0,0,0-.54,9.86c7.73-20,18.25-48,25.25-69.55,11.09-33.93,31.41,4.55,4.87,71.13,6.71-6.62,13.32-17.42,18.36-33.57,9.3-34.32,12.34-82.53,13.28-116.86C284.24,905.62,273.82,928,268.52,928.26Z"/></g><g class="cls-15"><path class="cls-4" d="M285,898.37c-.46,30.21-2.36,60.71-10.36,89.72a378.46,378.46,0,0,1-12.14,36.14c5.68-6.71,11.17-16.57,15.46-30.41,9.3-34.32,12.34-82.53,13.28-116.86C289.36,884.66,287.23,891.9,285,898.37Z"/></g><path class="cls-17" d="M85.77,963.4c-17.5,11-35.31,20.26-52,32.57-13,9.55-28.3,19.89-29.3,37.42-.18,3.26,3.62-.05,4-1.63,4.06-19.36,23.57-30.25,38.38-41.32,12.57-9.38,26.74-16.08,39.06-25.83C86.22,964.32,86.55,962.91,85.77,963.4Z"/><path class="cls-17" d="M153.57,969.56c-17.22,22.63-54.9,46.25-52.36,78.93.19,2.49,3.39-1.35,3.52-2.49,3.6-32.91,33.76-49.84,49.83-75.44C155.17,969.56,154.45,968.38,153.57,969.56Z"/><path class="cls-17" d="M205.31,968.81c-14,20.33-31.11,40.23-33.72,66.1-.23,2.29,2.51-.13,2.77-1.18a181.31,181.31,0,0,1,16.29-40.79c4.56-8.33,10.48-15.62,15.2-23.8C206.21,968.52,205.71,968.24,205.31,968.81Z"/><path class="cls-17" d="M254.64,964.51c.17-1-.87-.28-1,.29-4.75,19.52-22.85,38.44-19.52,59.56.35,2.12,3.32-1.16,3.11-2.62C234.52,1001.49,251.06,983.68,254.64,964.51Z"/><path class="cls-18" d="M562.19,923.47s24-12.61,45.5,10.14S619,991.69,582.79,964C582.79,964,583.1,945.88,562.19,923.47Z"/><path class="cls-19" d="M605.68,975.4c-6.67,0-14.61-3.51-23.66-10.4a1.22,1.22,0,0,1-.48-1c0-.17,0-18-20.24-39.7a1.3,1.3,0,0,1-.33-1,1.25,1.25,0,0,1,.66-.87,38.42,38.42,0,0,1,16.6-3.63c11.33,0,21.54,4.71,30.33,14,9.86,10.41,14.06,24.87,10,34.34C616.24,972.44,611.69,975.4,605.68,975.4Zm-21.69-12c8.3,6.23,15.76,9.51,21.69,9.51,5,0,8.7-2.33,10.58-6.77,3.19-7.38,1-20.66-9.48-31.7-8.33-8.78-17.92-13.21-28.55-13.21a37.82,37.82,0,0,0-14,2.67C582.23,943.78,583.86,960,584,963.41Z"/><g class="cls-12"><path class="cls-18" d="M616.51,947.32c-1,5.18-2.79,9.48-5.76,11.22-10.46,6.07-18.19-8.29-27.55-28.65-1.86-4.06-2.42-7.25-2.24-9.79a38.79,38.79,0,0,0-18.77,3.37c20.91,22.41,20.6,40.57,20.6,40.57C612.18,986.47,624.43,967.45,616.51,947.32Z"/></g><path class="cls-18" d="M494.72,864.11s-1.18,38.71,3.52,57.51c29.38-14.08,58.42-22.42,79.62,16.92,10.15,18.74,12,39.93-5.83,43.31s-26.12-14.43-44.87-21.2-29.81-2.75-52.84,6.46-38.41-1.24-27.66-15.68,22.12-27.35,20.9-45.17-7.08-49.17-7.08-49.17S482.25,843.42,494.72,864.11Z"/><path class="cls-19" d="M567.66,983.5c-8.82,0-15.45-5.09-22.43-10.48-5.49-4.21-11.15-8.56-18.5-11.21-18-6.5-28.78-2.83-51.94,6.43a45.62,45.62,0,0,1-16.65,3.58c-7.42,0-12.95-2.57-15.19-7.05-2-4-1-9,2.72-14.07l3.19-4.22c9.55-12.63,18.54-24.51,17.46-40.12-1.2-17.56-7-48.74-7-49a1.28,1.28,0,0,1,.56-1.27,33.53,33.53,0,0,1,16.09-4.59c8.37,0,15,4,19.83,12a1.35,1.35,0,0,1,.2.68c0,.37-1.07,36.82,3.13,55.74,11.89-5.64,25.63-11.19,38.64-11.19,17.13,0,30.6,9.56,41.2,29.25,7.67,14.12,9.82,27.59,5.8,36.08-2.3,4.87-6.52,7.91-12.47,9A23.55,23.55,0,0,1,567.66,983.5ZM509.72,956a51.66,51.66,0,0,1,17.86,3.46c7.68,2.77,13.77,7.44,19.14,11.55,7,5.39,13,10,20.94,10a20.58,20.58,0,0,0,4.15-.42c5.13-.94,8.72-3.54,10.69-7.68,3.64-7.64,1.45-20.59-5.72-33.85-10.13-18.79-22.91-28-39-28-13,0-27,5.86-39,11.61a1.24,1.24,0,0,1-1,0,1.21,1.21,0,0,1-.67-.8c-4.49-18-3.68-53.28-3.58-57.49-4.31-7-10.22-10.56-17.55-10.56a31,31,0,0,0-14.09,3.85c1,5.14,5.83,32.4,6.94,48.43,1.14,16.51-8.14,28.8-18,41.76l-3.19,4.23c-3.19,4.26-4.06,8.38-2.48,11.5,1.78,3.56,6.65,5.66,13,5.66A43.5,43.5,0,0,0,473.86,966C489.21,959.81,499.2,956,509.72,956Z"/><g class="cls-12"><path class="cls-18" d="M577.86,938.54A77.63,77.63,0,0,0,569.61,926a5.6,5.6,0,0,1,.35.55c22.6,33.63-2.73,46.31-20.92,24.27s-33.6-20.93-53.45-8.25-25.89,1.62-19.29-21,1.66-43.53,9.37-43.53c3.42,0,6.61,4.39,9.11,9.32-.35-12.73-.06-23.3-.06-23.3-12.47-20.69-34.24-7-34.24-7s5.84,31.34,7.08,49.17-10.13,30.73-20.9,45.17,4.62,24.9,27.66,15.68,34.09-13.22,52.84-6.46,27,24.58,44.87,21.2S588,957.28,577.86,938.54Z"/></g><path class="cls-18" d="M408.6,935.2S428.06,922.78,452,942c16.08,13.8,22.27,41.43,1.41,47.07-11.56,2.53-18-9-18-9S432.84,944.79,408.6,935.2Z"/><path class="cls-19" d="M450.14,990.61c-10.11,0-15.6-9.61-15.83-10a1.67,1.67,0,0,1-.16-.51c0-.34-2.76-34.57-26-43.77a1.2,1.2,0,0,1-.77-1,1.29,1.29,0,0,1,.58-1.16A32.72,32.72,0,0,1,424.51,930c9.64,0,19.15,3.69,28.28,11,10.82,9.31,17.07,24.58,14.59,35.58-1.58,6.92-6.28,11.67-13.64,13.64A15.79,15.79,0,0,1,450.14,990.61Zm-13.55-11c.83,1.36,5.68,8.54,13.55,8.54a14.58,14.58,0,0,0,3-.34C459.5,986.1,463.61,982,465,976c2.3-10.14-3.6-24.4-13.77-33.12-8.6-6.89-17.61-10.41-26.69-10.41a32.76,32.76,0,0,0-13,2.65C433.07,945.7,436.28,976,436.59,979.62Z"/><g class="cls-12"><path class="cls-18" d="M459,973.87c-12.64,0-12.64-16.68-20.7-28.76-3.4-5.11-3.89-9.11-3-12.21-15.67-4.71-26.69,2.3-26.69,2.3,24.24,9.59,26.79,44.81,26.79,44.81s6.46,11.56,18,9c10.57-2.88,14.17-11.4,13.08-20.89C464.85,971.5,462.51,973.87,459,973.87Z"/></g><path class="cls-18" d="M369.53,873.6s-7,27-9,44.24c-1.64,14.33,10.84,22.58,10.84,22.58s28.58-21.87,50.71-2.19,19.06,58.67,4.31,61.43-25.19-22.12-47.63-21.5-40,8.31-53.47-2.76c-6.46-5.53-8.91-5.84-17.5-.94s-19.66,7.08-22.75-8.27,10.15-30.72,23.06-29.52,20.57-.62,22.74-11.36a321.72,321.72,0,0,0,5.83-52.86S353,856.89,369.53,873.6Z"/><path class="cls-19" d="M424.08,1001.13c-6.42,0-12.1-4.58-18.09-9.39-7.23-5.77-15.39-12.38-26.43-12.38l-.77,0a172.18,172.18,0,0,0-18.6,1.75,134.33,134.33,0,0,1-16.1,1.41c-8.3,0-14.33-1.93-19.57-6.2-3.61-3.09-5.54-4.12-7.63-4.12s-4.35.93-8.51,3.31c-4.35,2.48-8.5,3.8-11.95,3.8-4.58,0-10.47-2.23-12.6-12.94a27.09,27.09,0,0,1,5.9-22.12c5-6,11.94-9.41,18.46-8.81,2.32.22,4.29.33,6.09.33,9.49,0,13.78-3,15.33-10.74a315.37,315.37,0,0,0,5.8-52.64,1.4,1.4,0,0,1,.4-.86c.29-.27,7.35-6.92,17.15-6.92,6.23,0,12.1,2.71,17.44,8.09a1.21,1.21,0,0,1,.33,1.16c-.08.27-7,27.17-9,44.1-1.32,11.51,7.13,19,9.62,20.91,3.1-2.19,15.29-10.12,29.29-10.12a32.61,32.61,0,0,1,22.25,8.52c15,13.38,18.91,35.93,14.89,50.35-2.07,7.47-6.13,12.28-11.16,13.22a13,13,0,0,1-2.55.26Zm-44.52-24.2c11.91,0,20.45,6.83,28,12.89,5.9,4.74,11,8.85,16.55,8.85h0a11.17,11.17,0,0,0,2.07-.2c4.1-.77,7.48-5,9.28-11.49,3.81-13.7.13-35.11-14.17-47.86a30.3,30.3,0,0,0-20.61-7.89c-15.1,0-28.42,10.06-28.57,10.19a1.25,1.25,0,0,1-1.41.05c-.54-.37-13.07-8.86-11.37-23.76,1.86-15.59,7.77-39.39,8.87-43.74-4.71-4.56-9.82-6.87-15.21-6.87-7.6,0-13.59,4.64-15.1,5.93A322,322,0,0,1,332,925.54c-1.77,8.91-7.09,12.71-17.74,12.71h0c-1.88,0-3.95-.1-6.32-.33-5.69-.56-11.87,2.47-16.34,7.91a24.73,24.73,0,0,0-5.39,20.1c1.45,7.27,4.89,11,10.2,11,3,0,6.75-1.21,10.73-3.47s6.94-3.62,9.73-3.62c3.11,0,5.72,1.71,9.2,4.67,4.74,3.88,10.32,5.64,18,5.64a127.75,127.75,0,0,0,15.81-1.41A169.82,169.82,0,0,1,378.73,977Z"/><g class="cls-12"><path class="cls-18" d="M422.07,938.23c25.81,27.64.68,54-9.09,37.95s-31.66-18.43-52.38-10.94-31.65-3.46-23-20.13,8.06-51.2,17.26-54.68c4.28-1.6,7.52.55,9.88,3.75,2.38-11.22,4.8-20.58,4.8-20.58-16.57-16.71-32.87-1.15-32.87-1.15a321.72,321.72,0,0,1-5.83,52.86c-2.17,10.74-9.84,12.61-22.74,11.36S282,950.82,285,966.19s14.15,13.2,22.75,8.27,11-4.59,17.5.94c13.51,11.07,31.06,3.38,53.47,2.76s32.88,24.29,47.63,21.5S444.22,957.9,422.07,938.23Z"/></g><path class="cls-19" d="M373.82,937.86c-4.31,2.68-8.06,5.13-13.11,6.28-3.57.84-8.54,1.47-12-.08-.23-.09-.54.43-.33.53,7.79,4.88,19.22-.68,25.56-5.5C374.3,938.78,374.63,937.38,373.82,937.86Z"/><path class="cls-19" d="M327.37,931.94a51.94,51.94,0,0,1-6.11,10.37c-2.32,3-5.71,4.93-8.82,7-.6.43-1.39,2.6-.08,1.92,8.07-4.2,12.36-11,15.76-19.28C328.45,931.21,327.64,931.38,327.37,931.94Z"/><path class="cls-20" d="M738.26,520c4.91-22.74-1.84-51-35-92.18-32.59-42.41-30.12-89.72-39.34-147.5S642,139.33,600.25,88.57,501,35.25,479.16,44.45a48.22,48.22,0,0,1,13.95-13s-22.83.62-45.66,22.49c4.12-10.77,16-20.35,16-20.35C343.64,81.7,334.83,204.93,353.79,265.21c26.83,71.35,18.25,94.61,17.65,96.08,7.33,8.28,13,21.49,15.52,41.87,33-21.56,67.86-3.19,81.82,51.36s14.59,98.27-11.43,122.38C459.9,551.53,446.58,537,446.58,537S469.39,594,390.15,642.22c1.26,33.62-39.34,56.45-97,82.42-17.11,22.21-37.41,33.62-36.79,73.55C265.83,783,274.09,776,274.09,776s-17.13,35.51-3.81,41.85a62.88,62.88,0,0,1,21.19,16.79s9.84,5.56,25.53,20c12.78,11.79,14.52,30.26,14.52,30.26s13.28-8.62,13.28-12.82c4.18,4.2,7.29,10.83,7.29,10.83l11.31-10.77s2.47,6.76,12.29,12.32c12.9-43,39.32-58.39,55.29-64.54,22.12,20.3,21.58,55.26,21.58,55.26s5.37-3.57,12.25-14.54c2.3,6.62,8.93,12.26,8.93,12.26s3.58-3.57,10.71-14c5.11,9.43,17.83,18,17.83,18s4.08-26.25,36.86-82.77,84.4-90.94,128.42-132.49c37.93-42.4,53-73.62,51.29-112.13,20.12-35.14-5.8-62.66-5.8-62.66S734,494.21,738.26,520Z"/><path class="cls-21" d="M331.52,886.15A1.08,1.08,0,0,1,331,886a1.19,1.19,0,0,1-.7-1c0-.19-1.87-18.19-14.15-29.48-15.33-14.15-25.17-19.76-25.26-19.82a1.07,1.07,0,0,1-.39-.34A62.63,62.63,0,0,0,269.76,819a9.42,9.42,0,0,1-4.84-5.64c-3-8.57,2.05-23.51,5.42-31.86a122.09,122.09,0,0,0-13,17.37,1.25,1.25,0,0,1-1.36.53,1.23,1.23,0,0,1-.91-1.18c-.5-31.79,12.26-46,25.79-61.09,3.73-4.18,7.6-8.46,11.25-13.22a1.21,1.21,0,0,1,.47-.37c61.88-27.89,97.47-50.13,96.31-81.26a1.12,1.12,0,0,1,.58-1.1c40.55-24.67,53.6-51.65,57.37-69.89,4.1-19.73-1.37-33.75-1.43-33.88a1.21,1.21,0,0,1,.47-1.49,1.27,1.27,0,0,1,1.58.19c.52.6,12.53,14.06,11.35,37.62,21.09-21.86,23.87-59.82,8.72-118.92-9.46-37.08-29.5-59.24-53.59-59.24-8.74,0-17.59,2.91-26.33,8.59a1.11,1.11,0,0,1-1.18.09,1.2,1.2,0,0,1-.71-1c-2.32-18.57-7.45-32.43-15.24-41.19a1.25,1.25,0,0,1-.23-1.28c.39-.95,9.15-23.92-17.63-95.18-8.85-28.13-12.76-74.69,2.75-121.19,12.12-36.24,40.63-85.1,107.65-112a1.21,1.21,0,0,1,1.49.51,1.19,1.19,0,0,1-.27,1.57,68.67,68.67,0,0,0-12.7,14.05C472.68,31,492.19,30.23,493.06,30.21a1.23,1.23,0,0,1,.67,2.28,49.65,49.65,0,0,0-11,9.37,75.12,75.12,0,0,1,21.35-2.8c13.39,0,59.94,3.52,97.12,48.76,41.23,50.15,54.09,130.69,63.46,189.51l.45,2.81c2.09,13.14,3.59,25.68,5,37.79,4.89,41.13,9.09,76.64,34.1,109.16,29.76,37,41,66.59,35.23,93.19a1.23,1.23,0,0,1-1.2,1h0a1.24,1.24,0,0,1-1.18-1c-2.88-17.24-13.45-26.08-19.7-29.85,6.36,9.25,18.17,32.19,2.77,59.44,1.54,37.75-13,69.41-51.66,112.64-11.62,11-24,21.64-35.9,31.93-33.58,28.94-68.3,58.84-92.34,100.35-32.23,55.6-36.68,82.06-36.73,82.35a1.2,1.2,0,0,1-1.88.81c-.52-.34-11.58-7.86-17.24-16.74-6.4,9.21-9.63,12.49-9.75,12.62a1.19,1.19,0,0,1-1.66.06,36.53,36.53,0,0,1-8.37-10.54c-6.34,9.53-11.13,12.76-11.33,12.93a1.31,1.31,0,0,1-1.27.06,1.27,1.27,0,0,1-.64-1.13c0-.31.25-34.07-20.63-53.79-25.84,10.21-44.46,32.12-53.86,63.43a1.24,1.24,0,0,1-.71.79,1.31,1.31,0,0,1-1.06-.05c-7.31-4.12-10.68-8.88-12.07-11.33l-10.07,9.61a1.29,1.29,0,0,1-1.08.31,1.08,1.08,0,0,1-.87-.69,48.34,48.34,0,0,0-5.72-9c-2.61,4.54-11.12,10.27-13.09,11.53A1.46,1.46,0,0,1,331.52,886.15ZM292.3,833.73c1.58.93,11,6.66,25.52,20,10.63,9.81,13.8,23.87,14.65,29.06,5.08-3.5,11.11-8.51,11.11-10.72a1.15,1.15,0,0,1,.74-1.12,1.19,1.19,0,0,1,1.33.25,41.78,41.78,0,0,1,6.79,9.67l10.09-9.61a1.34,1.34,0,0,1,1.12-.31,1.23,1.23,0,0,1,.89.76c0,.08,2.24,5.83,10.42,10.87C384.82,851,404,829,430.54,818.77a1.32,1.32,0,0,1,1.29.25c18.75,17.19,21.5,45.07,21.89,53.61a62.06,62.06,0,0,0,10-12.65,1.47,1.47,0,0,1,1.2-.56,1.25,1.25,0,0,1,1,.82c1.68,4.83,5.86,9.2,7.68,10.91a133.31,133.31,0,0,0,9.8-13,1.23,1.23,0,0,1,1.08-.55,1.34,1.34,0,0,1,1,.65c3.86,7.16,12.41,13.92,15.89,16.49,1.56-7,8.66-33,36.65-81.27,24.26-41.85,59.15-71.92,92.85-101,11.91-10.27,24.24-20.88,35.78-31.79C705,618,719.26,586.78,717.63,549.56a1.22,1.22,0,0,1,.18-.65c19.37-33.94-5.38-61-5.65-61.24a1.19,1.19,0,0,1-.13-1.49,1.16,1.16,0,0,1,1.43-.48,43.44,43.44,0,0,1,24.59,28c2.76-24.28-8.74-51.51-35.77-85-25.42-33.13-29.67-68.94-34.58-110.43-1.45-12.08-2.92-24.59-5-37.67l-.46-2.84c-9.32-58.53-22.1-138.68-62.91-188.34C562.8,45,517.2,41.51,504.08,41.51c-9.55,0-18.22,1.43-24.46,4.06a1.23,1.23,0,0,1-1.41-.36,1.25,1.25,0,0,1-.06-1.47,47.61,47.61,0,0,1,10.07-10.43c-7.83,1.47-23.93,6.24-39.9,21.54a1.27,1.27,0,0,1-1.54.13,1.23,1.23,0,0,1-.47-1.46c2.42-6.34,7.33-12.17,11.16-16.07-61.52,27-88.19,73.22-99.72,107.76-15.33,46-11.5,91.93-2.78,119.63,25,66.4,19.47,91.28,17.88,96.19,7.58,8.85,12.65,22.32,15.08,40.07,8.62-5.3,17.36-8,26-8,25.27,0,46.22,22.82,56,61.08,15.89,62.14,12.16,101.41-11.79,123.59a1.2,1.2,0,0,1-1.37.19,1.22,1.22,0,0,1-.68-1.22,55.75,55.75,0,0,0-6.47-33,71.33,71.33,0,0,1-.39,28c-3.85,18.66-17,46.11-57.88,71.13.7,35.44-45.68,59.4-97.49,82.77-3.69,4.73-7.48,9-11.19,13.1-13.13,14.63-24.53,27.36-25.15,55.26,8.52-12.76,15.41-18.68,15.72-18.94a1.19,1.19,0,0,1,1.56,0,1.21,1.21,0,0,1,.35,1.49c-.1.26-11.89,24.89-7.95,36a6.94,6.94,0,0,0,3.56,4.23A63.54,63.54,0,0,1,292.3,833.73Z"/><path class="cls-22" d="M639.05,431.85c36,32.76,36,88.48,13.09,131.08,11.48-50.76,3.28-85.21-21.29-113,11.47,42.62-6.57,73.74-6.57,73.74S629.19,477.72,603,440c0,0-39.35,42.61-27.89,73.75-13.09-44.25-18.91-58.87,2.34-84.65-20,7.07-43.81,34.8-43.81,34.8s8.37-26.43,32.21-38.66c-14.17-.65-39.32,16.09-39.32,16.09s12.91-22.54,41.27-25.11c-20-14.82-57.43-.79-66.44,13.95,1.64-26.2,20.49-41.79,20.49-41.79s-24.57,0-33.58,15.59c10.65-28.69-38.41-23.54-69.61-52.33-14.69-13.56-22.08-48-22.08-48A241.74,241.74,0,0,1,387,333.44c-1.93-14.41-2.9-28.8-18.25-69.15-49-153.66,74.89-218.94,74.89-218.94s-11.29,19.36-10.22,26c17.74-21.59,48.21-35.46,48.21-35.46S465,43.65,465.57,55.29c33.77-13.83,78-6.9,107.5,15.22,41.47,27.23,77,127.44,77,217.47s14,121.73,45.66,147.1,30.43,40.57,30.43,40.57S681.29,427.33,639.05,431.85Z"/><path class="cls-23" d="M411.88,311.85s11.45-18.23,22.5-25.45c-8.08,16.12-7.24,40.7-7.65,52.14,25,0,89.6-21.19,106-45.34,18.37-27.06,24.59-59.8-10.18-84.41S409.33,270.71,411.88,311.85Z"/><path class="cls-23" d="M359.82,171.56s5.2,62,43.07,46.5c19.37-12.06,13.36-37.47,13.36-37.47Z"/><path class="cls-23" d="M512.41,176.14s22.63,26.57,53.64,14.28,26.29-59.27,9.36-82.74c-9.84,11.8-9.86,7.44-29.06,7.95S501.6,135.3,512.41,176.14Z"/><path class="cls-24" d="M375.17,212.14a33.16,33.16,0,0,0,5.78,4.2,18,18,0,0,0,3,1.55,26,26,0,0,0,3.52,1.24,18.28,18.28,0,0,0,3.88.63,15.2,15.2,0,0,0,4-.18,22.35,22.35,0,0,0,3.88-1,38.69,38.69,0,0,0,3.54-1.71l3.19-2c.93-.79,1.8-1.53,2.61-2.2,1.64-1.32,2.82-2.69,3.73-3.54s1.45-1.38,1.45-1.38-.37.59-1.06,1.66a30.3,30.3,0,0,1-3.14,4.24l-2.47,2.6c-.93.84-2,1.66-3.15,2.49a26.91,26.91,0,0,1-3.83,2.07,27.85,27.85,0,0,1-4.37,1.29,19.94,19.94,0,0,1-4.56.08,21.2,21.2,0,0,1-4.33-.9,23.65,23.65,0,0,1-3.65-1.73,24.54,24.54,0,0,1-3-2A21.82,21.82,0,0,1,375.17,212.14Z"/><path class="cls-25" d="M218.37,842.86c-4.93,22.94,1.22,37.29,1.22,37.29s25-5.73,38.51-36c1.22,21.3,7.38,31.52,7.38,31.52s18.78-7.86,26.06-37.44c0-2.23-.07-3.52-.07-3.52a62.88,62.88,0,0,0-21.19-16.79C257,811.53,274.09,776,274.09,776s-8.26,7-17.77,22.17c-.35-22.46,5.92-35.89,14.52-47.32a2.58,2.58,0,0,1-.46.34c-23.34,23-39.19,34.16-55,43.71-6.71,11.73-16,24.18-24.69,35-5.8,14-12.74,35.1-12.51,56C198.29,874.82,210.16,860.47,218.37,842.86Z"/><path class="cls-26" d="M178.2,887.1a1.15,1.15,0,0,1-.6-.16,1.22,1.22,0,0,1-.63-1.05c-.24-21,6.72-42.31,12.58-56.46a1.1,1.1,0,0,1,.19-.31c10.62-13.12,18.87-24.82,24.61-34.81a1.37,1.37,0,0,1,.41-.42c16.39-10,32-21.17,54.76-43.55a2.21,2.21,0,0,0,.33-.25,1.35,1.35,0,0,1,1.74,0,1.16,1.16,0,0,1,.22,1.55C265,760.69,258.06,772.8,257.58,794c8.5-12.76,15.39-18.68,15.7-18.94a1.19,1.19,0,0,1,1.56,0,1.21,1.21,0,0,1,.35,1.49c-.1.26-11.89,24.89-7.95,36a6.94,6.94,0,0,0,3.56,4.23,63.9,63.9,0,0,1,21.67,17.16,1.18,1.18,0,0,1,.23.71l.08,3.51a1,1,0,0,1,0,.34c-7.34,29.85-26,38-26.79,38.28a1.24,1.24,0,0,1-1.53-.49c-.23-.4-5.45-9.27-7.21-27.52-13.88,26.94-36.34,32.34-37.35,32.59a1.26,1.26,0,0,1-1.41-.72c-.23-.52-4.87-11.71-2.63-30.08-8.79,15.72-20.7,27.4-37,36.42A1.47,1.47,0,0,1,178.2,887.1Zm13.55-56.58c-5.58,13.47-12.08,33.42-12.31,53.26,17.26-9.95,29.31-23.15,37.81-41.46a1.19,1.19,0,0,1,1.51-.61,1.22,1.22,0,0,1,.81,1.4c-4.06,18.89-.44,31.93.79,35.55,4.8-1.51,25.08-9.17,36.6-35.06a1.19,1.19,0,0,1,1.37-.71,1.17,1.17,0,0,1,1,1.13c1,17.08,5.2,27,6.67,30,3.92-2.11,18.23-11.38,24.32-36l-.06-2.93A62.4,62.4,0,0,0,269.76,819a9.42,9.42,0,0,1-4.84-5.64c-3-8.57,2.05-23.51,5.42-31.86a122.09,122.09,0,0,0-13,17.37,1.25,1.25,0,0,1-1.36.53,1.23,1.23,0,0,1-.91-1.18c-.27-17.9,3.7-29.93,8.76-39-19,17.81-32.94,27.73-47.54,36.6C210.54,805.8,202.29,817.47,191.75,830.52Z"/><path class="cls-27" d="M291.47,834.66a62.88,62.88,0,0,0-21.19-16.79C257,811.53,274.09,776,274.09,776s-8.26,7-17.77,22.17c-.35-22.46,5.92-35.89,14.52-47.32a2.58,2.58,0,0,1-.46.34c-21.27,20.94-36.31,32-50.75,41.1a3.83,3.83,0,0,1,1.35.56c4.72,3.51,3.52,10.59,1.14,17,7.1-7.74,15.1-14.48,23.45-21.08.8-.63,1.74-.75,2.17.29,5.18,12.29-.29,30.24-2.88,42.72-2.67,12.94-7.54,25.12-18.33,33.28-2.11,1.58-2.51-1-1.68-2.5,5.76-10.8,5.76-24.63,3.79-36.63-6.88,7.83-12.14,16.85-19.64,24.29a95.83,95.83,0,0,1-18.6,14.28c-3.63,2.18-7.38,4.09-11.15,5.87a104.49,104.49,0,0,0-1.05,15.44c20.09-11,32-25.4,40.17-43-4.93,22.94,1.22,37.29,1.22,37.29s25-5.73,38.51-36c1.22,21.3,7.38,31.52,7.38,31.52s18.78-7.86,26.06-37.44C291.52,836,291.47,834.66,291.47,834.66Z"/><path class="cls-25" d="M115.53,945.3c9.83,4.9,44.43-16.59,63.5-54.7-11.05,43-12.29,47.94-5.54,49.14s27.64-20.25,34.41-44.23c-1.82,32.57,3.07,41.16,11.69,40s25.38-24.1,33.66-41c.33,25.22,8.64,34.18,15.27,33.83,5.3-.23,15.72-22.64,22.73-51.3.49-18.21.37-32.52.29-38.78-7.28,29.58-26.06,37.44-26.06,37.44s-6.16-10.22-7.38-31.52c-13.51,30.32-38.51,36-38.51,36s-6.15-14.35-1.22-37.29c-8.21,17.61-20.08,32-40.17,43-.23-20.88,6.71-42,12.51-56-9.34,11.51-18,21.09-22.15,25.68-14.74,32-34.84,57.38-55.7,78C111.54,938.59,111.59,943.32,115.53,945.3Z"/><path class="cls-26" d="M119,947.21h0a9.11,9.11,0,0,1-4-.81c-4-2-5.06-6.4-3.29-13.13a1.13,1.13,0,0,1,.32-.57c24.29-24,42.45-49.43,55.47-77.64a1.71,1.71,0,0,1,.2-.33c3.77-4.12,12.56-13.85,22.07-25.61a1.22,1.22,0,0,1,1.59-.29,1.27,1.27,0,0,1,.52,1.52c-5.59,13.5-12.18,33.51-12.41,53.43,17.26-9.95,29.31-23.15,37.81-41.46a1.19,1.19,0,0,1,1.51-.61,1.22,1.22,0,0,1,.81,1.4c-4.06,18.89-.44,31.93.79,35.55,4.8-1.51,25.08-9.17,36.6-35.06a1.19,1.19,0,0,1,1.37-.71,1.17,1.17,0,0,1,1,1.13c1,17,5.2,26.94,6.67,30,3.94-2.11,18.3-11.44,24.39-36.1a1.16,1.16,0,0,1,1.3-.93,1.22,1.22,0,0,1,1.1,1.18c.08,5.48.21,20.16-.31,38.84-6.24,25.67-16.86,52.16-23.89,52.53h-.41c-6.78,0-14.71-8.06-16-30.32-8.68,16-23.79,36.24-32.43,37.47a8.68,8.68,0,0,1-8-2.55c-4-4.29-5.8-14-5.43-30.35-8.6,20.88-26.18,38.49-33.08,37.18a5.89,5.89,0,0,1-4.19-2.36c-2.34-3.7-.62-11.69,6.34-38.86C157.86,929,131.3,947.21,119,947.21Zm-5-13c-1.33,5.25-.61,8.59,2.11,10a6.28,6.28,0,0,0,2.87.58c12.88,0,42.28-21.34,59-54.74a1.26,1.26,0,0,1,1.55-.59,1.22,1.22,0,0,1,.75,1.46c-8.06,31.4-11.09,43.15-9,46.37.42.65,1.16,1,2.55,1.27a2.3,2.3,0,0,0,.38,0c6.52,0,26.18-20.52,32.6-43.36a1.25,1.25,0,0,1,2.45.38c-1.16,20.42.29,32.48,4.43,36.84a6.27,6.27,0,0,0,5.82,1.82c7.75-1.08,24.24-23,32.75-40.33a1.2,1.2,0,0,1,1.37-.66,1.19,1.19,0,0,1,1,1.18c.34,25.76,8.77,32.63,13.68,32.63,4.12-.18,14.44-19.92,21.87-50.39.34-12.34.38-23,.36-30.32-8.35,23.45-23.74,30.13-24.45,30.42a1.24,1.24,0,0,1-1.53-.49c-.23-.4-5.45-9.27-7.21-27.52-13.88,26.94-36.34,32.34-37.35,32.59a1.26,1.26,0,0,1-1.41-.72c-.23-.52-4.87-11.71-2.63-30.08-8.79,15.72-20.7,27.4-37,36.42a1.3,1.3,0,0,1-1.2,0,1.22,1.22,0,0,1-.63-1.05c-.2-17.69,4.69-35.56,9.74-49.23-7.46,8.94-13.94,16.11-17.09,19.59C156.52,884.6,138.31,910.11,114,934.22Z"/><path class="cls-19" d="M501.12,920.47a26.53,26.53,0,0,0-11,5.66c-.49.42-.66,1.81.23,1.16A54.51,54.51,0,0,1,501,921.34C501.23,921.25,501.62,920.38,501.12,920.47Z"/><path class="cls-28" d="M419.31,177.12s4.62,7.36,6.14,20.56c-9.82,17.54-49.76,32.28-62.67-25.81C382.75,158.06,408.85,154.38,419.31,177.12Z"/><path class="cls-29" d="M419.31,177.12a52.79,52.79,0,0,1,2.35,4.85,25.75,25.75,0,0,1,.87,2.56l.85,2.56a17.69,17.69,0,0,1,.72,2.63l.52,2.64,1,5.32s0,.08,0,.09a32.38,32.38,0,0,1-7.5,8.71,44.07,44.07,0,0,1-4.78,3.3c-1.74.76-3.4,1.89-5.31,2.36a21.86,21.86,0,0,1-5.65,1.46,23.78,23.78,0,0,1-5.84.41c-2,.1-3.92-.56-5.85-.85a59,59,0,0,1-5.55-2.09c-1.66-1.08-3.35-2.11-5-3.29l-4.29-4.07L372.29,199a36.87,36.87,0,0,1-3-5,31.17,31.17,0,0,1-2.47-5.27l-2.05-5.43c-.68-1.8-1-3.72-1.57-5.58l-1.48-5.61a1,1,0,0,1,.42-1.07,79.49,79.49,0,0,1,7.17-4.17,72.33,72.33,0,0,1,7.62-3.33,51,51,0,0,1,8-2.22,40.71,40.71,0,0,1,8.24-.84,27.28,27.28,0,0,1,4.12.21,29.36,29.36,0,0,1,4,.77,37.05,37.05,0,0,1,3.94,1.3c1.26.53,2.44,1.27,3.67,1.88,1.07.84,2.21,1.62,3.27,2.51.91,1,2,1.92,2.82,3s1.63,2.2,2.34,3.35Zm0,0-2-3.6c-.73-1.16-1.62-2.21-2.43-3.31s-1.9-1.93-2.84-2.93-2.19-1.6-3.27-2.42c-1.22-.59-2.4-1.3-3.67-1.8a27.83,27.83,0,0,0-3.87-1.18,24.25,24.25,0,0,0-4-.6,34.4,34.4,0,0,0-4.06-.09,39.32,39.32,0,0,0-8,1.19,47.77,47.77,0,0,0-7.68,2.48,63.68,63.68,0,0,0-7.29,3.54,74.62,74.62,0,0,0-6.84,4.35l.43-1.1,1.54,5.47c.54,1.8.91,3.69,1.61,5.44l2.1,5.23a30.28,30.28,0,0,0,2.44,5.06c1,1.6,1.59,3.4,2.76,4.85l3.33,4.49,4,3.89c1.49,1.1,3,2,4.56,3.14,1.69.69,3.35,1.53,5.09,2.11,1.8.31,3.56,1,5.43,1a23.22,23.22,0,0,0,5.53-.14,22.55,22.55,0,0,0,5.49-1.2c1.84-.39,3.46-1.41,5.22-2.07a43.61,43.61,0,0,0,4.77-3,30.56,30.56,0,0,0,7.68-8.29l0,.1-.91-5.31-.48-2.65a15.68,15.68,0,0,0-.68-2.59l-.79-2.59a20.55,20.55,0,0,0-.87-2.54A41.51,41.51,0,0,0,419.31,177.12Z"/><path class="cls-30" d="M384.14,187.54c2.3,13.86,12.26,23.85,22.33,22.32s16.35-13.92,14.07-27.76-12.27-23.81-22.34-22.32S381.86,173.71,384.14,187.54Z"/><path class="cls-31" d="M384.14,187.54c2.3,13.86,12.26,23.85,22.33,22.32s16.35-13.92,14.07-27.76-12.27-23.81-22.34-22.32S381.86,173.71,384.14,187.54Z"/><path class="cls-32" d="M388.61,187.83c1.74,10.56,9.37,18.17,17.05,17s12.47-10.6,10.69-21.19-9.34-18.17-17-17.05S386.85,177.26,388.61,187.83Z"/><g class="cls-15"><path class="cls-33" d="M390.79,186.48c1.39,8.37,7.41,14.36,13.46,13.45s9.84-8.38,8.48-16.72-7.4-14.37-13.47-13.47S389.38,178.14,390.79,186.48Z"/></g><g class="cls-15"><path class="cls-31" d="M419.6,178.16a34.75,34.75,0,0,1,.94,3.94c2.28,13.84-4,26.26-14.07,27.76s-20-8.46-22.33-22.32c-.19-1.29-.29-2.56-.37-3.8C396,189.6,412.19,189,419.6,178.16Z"/></g><path class="cls-28" d="M404,178.39c1.11,4.22,4.49,7,7.54,6.27s4.68-4.84,3.54-9.06-4.48-7-7.58-6.29S402.89,174.16,404,178.39Z"/><path class="cls-28" d="M409.68,191.24c.5,2,2.13,3.35,3.56,3s2.24-2.29,1.7-4.32-2.15-3.35-3.6-3S409.1,189.24,409.68,191.24Z"/><path class="cls-34" d="M422.69,185.4s-13.51-32.27-41.78-17.51c-19.68,11.06-25.51,1.54-28-3.36,11.35,7.34,13.82,4.28,22.73-8.94S413.56,137.58,422.69,185.4Z"/><g class="cls-15"><path class="cls-35" d="M362.78,171.87c12.91,58.09,52.85,43.35,62.67,25.81a67.24,67.24,0,0,0-1.64-9C391,222.25,362.78,171.87,362.78,171.87Z"/></g><path class="cls-28" d="M514.69,174.78s17.07,14.32,45.66,1.1,15.06-61.78,15.06-61.78S511.56,104.81,514.69,174.78Z"/><path class="cls-29" d="M514.69,174.78A34.11,34.11,0,0,0,528,180.19a36,36,0,0,0,7.17.73,43.4,43.4,0,0,0,7.19-.44,55.91,55.91,0,0,0,7-1.42,63.46,63.46,0,0,0,6.8-2.34l3.29-1.43a35,35,0,0,0,3.07-1.77c2.26-1.11,3.75-2.86,5.47-4.37a22.08,22.08,0,0,0,2.15-2.77,14.9,14.9,0,0,0,1.91-2.93l1.63-3.16,1.16-3.32a45.53,45.53,0,0,0,1.68-6.91,67.6,67.6,0,0,0,.73-7.12c.16-2.37.1-4.79,0-7.2s-.25-4.78-.58-7.15a111.57,111.57,0,0,0-2.53-14.16l1,.89A61.28,61.28,0,0,0,563,115.1c-2.07.05-4.08.41-6.15.66s-4,.88-6,1.31-3.89,1.26-5.84,1.88-3.71,1.75-5.55,2.6a53.84,53.84,0,0,0-5.16,3.3c-1.8,1-3.09,2.67-4.64,4a25.12,25.12,0,0,0-4,4.65l-1.89,2.43c-.55.85-1,1.8-1.47,2.7-.87,1.86-2,3.62-2.73,5.55l-1.91,5.9a30.12,30.12,0,0,0-1.38,6.06l-1,6.17C514.94,166.41,514.88,170.58,514.69,174.78Zm0,0c0-4.2-.1-8.4-.06-12.57l.79-6.26a28.53,28.53,0,0,1,1.12-6.2l1.76-6.08c.7-2,1.78-3.84,2.67-5.78a28.82,28.82,0,0,1,1.45-2.82l1.86-2.59a29.91,29.91,0,0,1,4.06-4.93c1.58-1.41,2.95-3.13,4.73-4.26s3.46-2.59,5.34-3.57,3.79-2,5.78-2.74,4-1.5,6-2,4.12-1.1,6.24-1.37a53.53,53.53,0,0,1,6.34-.77,66.42,66.42,0,0,1,12.76.13,1.2,1.2,0,0,1,1,.85,98.72,98.72,0,0,1,2.59,14.52c.31,2.45.44,4.9.52,7.36s.1,4.93-.08,7.39-.5,4.91-.81,7.37a48.65,48.65,0,0,1-1.83,7.22l-1.28,3.49-1.74,3.35a15.76,15.76,0,0,1-2.05,3.13,28.17,28.17,0,0,1-2.42,2.9c-1.93,1.67-3.77,3.56-6,4.54-1.14.59-2,1.24-3.29,1.8l-3.42,1.39c-2.28.92-4.68,1.54-7,2.23a59.06,59.06,0,0,1-7.27,1.26,41,41,0,0,1-7.35.14,37.39,37.39,0,0,1-7.25-1A35,35,0,0,1,514.69,174.78Z"/><path class="cls-30" d="M527.7,147.63c.48,16.86,10.73,30.33,22.93,30.2s21.74-14,21.26-30.76S561.16,116.72,549,116.89,527.25,130.84,527.7,147.63Z"/><path class="cls-31" d="M527.7,147.63c.48,16.86,10.73,30.33,22.93,30.2s21.74-14,21.26-30.76S561.16,116.72,549,116.89,527.25,130.84,527.7,147.63Z"/><path class="cls-32" d="M533,148.68c.33,12.85,8.16,23.17,17.5,23.06s16.53-10.62,16.14-23.49-8.18-23.09-17.49-23S532.61,135.87,533,148.68Z"/><g class="cls-15"><path class="cls-33" d="M535.82,147.45c.25,10.17,6.44,18.28,13.8,18.2s13.07-8.36,12.8-18.55-6.48-18.29-13.84-18.19S535.47,137.3,535.82,147.45Z"/></g><g class="cls-15"><path class="cls-31" d="M571.43,142.21a45.7,45.7,0,0,1,.46,4.86c.48,16.81-9,30.58-21.26,30.76s-22.45-13.34-22.93-30.2c0-1.54.08-3.08.21-4.55C541.42,152,560.83,153.9,571.43,142.21Z"/></g><path class="cls-28" d="M552.87,140c.64,5.22,4.21,9.13,7.94,8.69s6.31-5,5.69-10.18-4.22-9.11-8-8.68S552.17,134.76,552.87,140Z"/><path class="cls-28" d="M557.49,156.18c.29,2.45,2,4.34,3.77,4.11s3-2.36,2.7-4.87-2-4.32-3.8-4.11S557.12,153.7,557.49,156.18Z"/><path class="cls-34" d="M514.88,175.56s-1.56-55.31,40.85-55c18.44,0,33.81-8.91,30.12-39,0,0-6.9,25.92-32.77,22.21S496.75,118.33,514.88,175.56Z"/><g class="cls-15"><path class="cls-35" d="M575.41,114.1h0c-7.38,51.75-45.2,58-60.72,58.31,0,.8,0,1.55,0,2.37,0,0,17.07,14.32,45.66,1.1S575.41,114.1,575.41,114.1Z"/></g><path class="cls-36" d="M513.18,157.59s-1.43-45.73,37.45-51.48C529,102.83,506,117.18,513.18,157.59Z"/><path class="cls-14" d="M718.58,547.94C700,567.43,679.8,584,658,599.38a64.82,64.82,0,0,0,4.93-8c.56-1.14-.62-1.26-1.16-.39a72.87,72.87,0,0,1-9.43,12.36c-.39.24-.77.53-1.14.79a.87.87,0,0,0-.31.58,50,50,0,0,1-8.87,6.92c-3.52,2.07-10,7.7-14.83,8.72-9.78-25-27.28-43.57-50.19-57.31-11.73-7-23.66-13.65-35-21.32-18.5-12.5-19.16-30.17-14.46-50a57.91,57.91,0,0,0,2.88-9.05c.31-1.35-1.11-.65-1.43.15-1.84,4.9-3.74,9.8-5.82,14.62a45.72,45.72,0,0,1-6.48,10.32,61.23,61.23,0,0,1-4.77,5.83c-3.89-17.9-.53-32.84,6.39-49,.62-.76,1.22-1.52,1.84-2.26.45-.53.45-1.77-.25-1.36l.21-.49c.2-.48-.27-.5-.48-.18-.37.67-.74,1.31-1.12,2-6,6-10.79,13.79-15.24,20.94,0-18.18,2.75-43.84,21.91-52.41.38-.17.94-1.51.21-1.33-7.66,1.83-14,12.05-17.28,18.63-6.07,12.19-7.87,24.29-6.42,37.81.1,1,1.58-.5,1.58-1.1v-1.12c4.28-4.93,8.12-10.32,12.13-15.49-7.27,14.81-11.66,32.28-4.93,47.84.27.61,1-.1,1.37-.85,4.54-3,8-9.1,10.77-13.5a46.08,46.08,0,0,0,2.51-4.53c-2.9,9.74-4,20.35-.52,29.89,4.5,12.16,19.31,20,29.48,26.38,13.84,8.65,28.36,16,40.65,26.86,13.9,12.38,21.23,25.19,30,40.89-.15.32-.15.6.14.68.08,0,.15,0,.23,0,.14.25.31.52.45.78.38.65,1.1,0,1.5-.78,1.78-.39,3.48-1.64,5-2.46,4.85-2.6,9.61-5.48,14.25-8.48a41.89,41.89,0,0,0,9.28-8.45c10.92-6.06,20.82-13.69,30.33-21.7,11.69-9.81,23.64-19.7,33.5-31.43C720.32,548.32,719.89,546.56,718.58,547.94Z"/><path class="cls-14" d="M516.54,788.92c-14.07,11.56-26.56,18.86-44.75,21.56-14.73,2.18-31.88,3.46-45,11-.29.14-.58,1,0,.76,16.51-7,35.82-7.63,53.3-10.59,14.32-2.39,26.46-11.25,36.88-20.86C517.68,790.08,517.94,787.77,516.54,788.92Z"/><path class="cls-6" d="M208.94,721.7c-17.34,12.24-32.52,18.5-43.13,21.65-8.61,15.92-26.51,51.49-29,76.57C147.87,818.74,175.09,796.43,208.94,721.7Z"/><path class="cls-7" d="M136.83,821.16a1.33,1.33,0,0,1-.88-.36,1.3,1.3,0,0,1-.37-1c2.46-24.68,19.31-58.86,29.15-77a1.25,1.25,0,0,1,.73-.58c9.73-2.93,25.06-9,42.78-21.49a1.29,1.29,0,0,1,1.51.06,1.26,1.26,0,0,1,.33,1.46c-32,70.67-59.41,97.45-73.14,98.94Zm29.83-76.76c-7.8,14.46-25.38,49.21-28.42,74,11.21-2.86,36.35-25.13,67.76-93.17C189.84,736,175.9,741.58,166.66,744.4Z"/><path class="cls-6" d="M127,802.31c14.24-19.29,26.18-43.63,32.35-57.24a58,58,0,0,1-9.38,1.55s2-10.69,21.28-44.27c-25.7,29.15-44,40.78-55.64,45.27-12.22,19.15-21.39,63.75-23.23,84.58,1.17-.44,2.12-.87,3-1.23C103.44,826.62,115.25,818.21,127,802.31Z"/><path class="cls-7" d="M92.37,833.46a1.23,1.23,0,0,1-.74-.26,1.28,1.28,0,0,1-.48-1.1c1.68-19,10.53-65,23.41-85.13a1.2,1.2,0,0,1,.59-.48c10.76-4.19,29-15.33,55.18-45a1.26,1.26,0,0,1,1.63-.18,1.22,1.22,0,0,1,.35,1.6c-14.85,25.94-19.42,38.18-20.69,42.27a64.25,64.25,0,0,0,7.44-1.32,1.23,1.23,0,0,1,1.25.42,1.22,1.22,0,0,1,.14,1.27c-5.92,13.1-18,38-32.47,57.45-12,16.2-24,24.72-32,29-1,.41-1.95.84-3.13,1.31A1.52,1.52,0,0,1,92.37,833.46Zm24-84.83c-12.12,19.29-20.58,61.93-22.63,81.69.38-.17.75-.34,1.11-.48,7.67-4.14,19.4-12.42,31.1-28.27,13.51-18.26,25-41.35,31.2-54.77a48.59,48.59,0,0,1-7.2,1,1.21,1.21,0,0,1-1-.43,1.25,1.25,0,0,1-.29-1c.09-.41,1.86-9.22,16.16-35.25C142.53,734.93,126.42,744.69,116.42,748.63Z"/><path class="cls-6" d="M229.2,739.47a77.63,77.63,0,0,1-22.17,4c7.57-5.58,21.57-25.6,35.49-51.41a212.31,212.31,0,0,1-33.58,29.61c-33.85,74.73-61.07,97-72.11,98.22,2.47-25.08,20.37-60.65,29-76.57-2.38.74-4.56,1.31-6.47,1.72C153.17,758.68,141.23,783,127,802.31c-11.74,15.9-23.55,24.31-31.63,28.66a39.6,39.6,0,0,0,5-2.45s-24,48.56-16,75c31.34-15.39,59-84.2,59-84.2s17.21-9.85,33.18-33.8c-6.15,16.56-16,33.8-16,33.8s.06,0,7.91-3.54C183.83,806.08,209.56,784.22,229.2,739.47Z"/><path class="cls-7" d="M84.38,904.71a1.27,1.27,0,0,1-.48-.08,1.21,1.21,0,0,1-.7-.78c-6.92-22.88,9.24-61.09,14.5-72.57-.52.22-1.16.51-1.83.82a1.22,1.22,0,0,1-1.59-.6,1.25,1.25,0,0,1,.51-1.63c7.78-4.17,19.51-12.45,31.21-28.3,14.29-19.32,26.32-44,32.21-57a1.29,1.29,0,0,1,.85-.68c2-.45,4.18-1,6.4-1.7a1.25,1.25,0,0,1,1.32.4,1.23,1.23,0,0,1,.11,1.36c-7.68,14.2-25.58,49.39-28.65,74.45,11.42-2.93,37.35-26,69.58-97.19a1.48,1.48,0,0,1,.42-.51,214.65,214.65,0,0,0,33.39-29.45,1.23,1.23,0,0,1,1.62-.15,1.21,1.21,0,0,1,.35,1.59c-12.33,22.85-24.86,41.5-33.06,49.43a82.39,82.39,0,0,0,18.29-3.83,1.23,1.23,0,0,1,1.49,1.65c-20.14,45.94-47,67.89-61.16,76.88-7.49,3.36-8,3.58-8.07,3.6a1.21,1.21,0,0,1-1.41-.3,1.17,1.17,0,0,1-.16-1.41c.07-.14,6.43-11.29,12.07-24.18-12.86,16.48-24.92,24.24-27.22,25.62-2.51,6.14-28.93,69.49-59.45,84.46A1.18,1.18,0,0,1,84.38,904.71Zm17.19-76a1.08,1.08,0,0,1-.11.4c-.22.44-22.79,46.66-16.29,72.61,28.1-15.2,53.35-73.88,56.7-82a17,17,0,0,1-4.93,1.41,1.36,1.36,0,0,1-1-.36,1.3,1.3,0,0,1-.37-1c2.35-23.55,17.81-55.79,27.76-74.44l-3.11.79c-6,13.2-18,37.65-32.25,56.88C118.58,815.77,109.08,823.78,101.57,828.69Zm75-44.41a1.28,1.28,0,0,1,.56.13,1.19,1.19,0,0,1,.6,1.52,254.88,254.88,0,0,1-14.29,30.75c1.12-.48,2.61-1.14,4.6-2,13.52-8.59,39.21-29.57,58.95-73.24a73,73,0,0,1-19.92,3.3h0a1.26,1.26,0,0,1-1.19-.82,1.23,1.23,0,0,1,.46-1.38c6.71-5,18.62-21.73,30.62-42.87a213.63,213.63,0,0,1-27,22.9c-12,26.39-23.31,46.66-33.52,61.74Z"/><path class="cls-6" d="M270.38,751.21a2.58,2.58,0,0,0,.46-.34c6.67-8.87,14.77-16.51,22.27-26.23.95-.42,1.86-.85,2.8-1.26l-.52-.16a140,140,0,0,1-21.71,7s9.82-15.62,23.62-35.17c-20.72,21.91-46.39,37.46-68.1,44.37a200,200,0,0,1-28.55,47.25c-2.79,7.83-6.42,16.47-10.58,23.11C216.83,793.76,235,786,270.38,751.21Z"/><path class="cls-7" d="M190.07,811.08a1.22,1.22,0,0,1-.87-.37,1.17,1.17,0,0,1-.19-1.51,119.61,119.61,0,0,0,10.48-22.88,2.36,2.36,0,0,1,.23-.39,199.14,199.14,0,0,0,28.36-47,1.26,1.26,0,0,1,.75-.68c23.24-7.39,48.52-23.85,67.57-44a1.22,1.22,0,0,1,1.66-.1,1.2,1.2,0,0,1,.23,1.65c-10.38,14.73-18.58,27.31-21.92,32.55a150.64,150.64,0,0,0,18.54-6.24,1.4,1.4,0,0,1,.73-.1s.31.1.33.12a1.33,1.33,0,0,1,1,1.08,1.24,1.24,0,0,1-.57,1.28l-2.53,1.16c-3.69,4.73-7.48,9-11.19,13.1-3.89,4.34-7.54,8.43-10.9,12.88l-.53.45c-29.77,29.25-47.55,39.53-68.08,51.45-4,2.35-8.14,4.74-12.51,7.37A1.48,1.48,0,0,1,190.07,811.08Zm11.7-23.77a141,141,0,0,1-8.26,19.06c2.9-1.71,5.69-3.34,8.45-4.93,20.4-11.84,38-22.06,67.56-51.1a2.21,2.21,0,0,0,.33-.25c3.39-4.46,7.12-8.6,11-13,3-3.37,6.07-6.78,9.07-10.46a132.13,132.13,0,0,1-16,4.78,1.21,1.21,0,0,1-1.27-.47,1.17,1.17,0,0,1,0-1.34c.09-.15,6.53-10.4,16.2-24.53-17.69,16.06-38.9,28.92-58.75,35.35A202.16,202.16,0,0,1,201.77,787.31Z"/><path class="cls-6" d="M190.07,809.83c4.16-6.64,7.79-15.28,10.58-23.11-12,14.59-23.68,23.71-32.15,29,1-.42,1.95-.87,3.15-1.36-19.67,25.18-36.89,71.25-36.89,71.25s1.87,2.46,33.8-30.09c8.06-8.88,33-36.42,46.84-60.65C207.26,799.86,199.16,804.37,190.07,809.83Z"/><path class="cls-7" d="M135,887a1.7,1.7,0,0,1-1.17-.57,1.22,1.22,0,0,1-.16-1.16c.16-.45,16.06-42.69,34.57-68.28a1.12,1.12,0,0,1-.74-.62,1.18,1.18,0,0,1,.41-1.61c7.75-4.9,19.56-13.89,31.86-28.8a1.27,1.27,0,0,1,1.56-.27,1.2,1.2,0,0,1,.55,1.46,144.53,144.53,0,0,1-8.32,19.25c2.86-1.7,5.63-3.31,8.37-4.91,4.39-2.54,8.61-5,12.88-7.57a1.26,1.26,0,0,1,1.51.16,1.22,1.22,0,0,1,.19,1.5c-14,24.43-38.8,51.83-47,60.84C155.79,870.33,138.7,887,135,887Zm37.92-72.6a1.31,1.31,0,0,1-.25.79C156.07,836.35,141.08,872.9,137,883.3c3.33-2.31,11.5-9,30.68-28.61,7.63-8.39,30-33.15,44.17-56.21-2.88,1.71-5.78,3.4-8.74,5.13-4,2.31-8.1,4.7-12.43,7.3a1.24,1.24,0,0,1-1.49-.2,1.17,1.17,0,0,1-.19-1.51,104,104,0,0,0,8-16.39A139.12,139.12,0,0,1,172.87,814.37Z"/><path class="cls-37" d="M190.07,809.83c4.16-6.64,7.79-15.28,10.58-23.11-12,14.59-23.68,23.71-32.15,29,1-.42,1.95-.87,3.15-1.36a131.69,131.69,0,0,0-8,11.58,151.14,151.14,0,0,1,13.7-9.62c1.28-.78,1.84.55,1.72,1.63-2.32,15.93-16.51,29.46-25,42.4a227.56,227.56,0,0,1-19.24,25.29c.3.15,3.69.54,33.76-30.12,8.06-8.88,33-36.42,46.84-60.65C207.26,799.86,199.16,804.37,190.07,809.83Z"/><path class="cls-2" d="M468.78,454.52c-14-54.55-48.84-72.92-81.82-51.36-2.53-20.38-8.19-33.59-15.52-41.87a.48.48,0,0,1,0,.08c-15.35-10.77-58.4,2.56-105.92,41.08s-83.22,76.23-93.15,141.74c-.45,4.25-2.67,29,6.26,38.92,9.84,10.92,56.74-19.61,89.83-78.88-17.47,54.18-19.54,56.56-19.54,56.56s44.62,8.89,74.43-34.37c-9.82,27.25-8,34.52-5.09,35.26s31.26-1.81,56.37-22.92c-13.82,26.18-14.19,33.08-11.65,34.55s33.81,1,54.16-25.53c1.84,2.62,12.76-6.91,20.92-27.22-1.66,11.3,3.44,8.73,8.64,16.48.89,1,13.13,15.39,10.69,39.86C483.37,552.79,482.73,509.06,468.78,454.52Z"/><path class="cls-3" d="M184.43,586.55a8.57,8.57,0,0,1-6.73-2.6c-9.24-10.28-7.11-35-6.57-39.89,9.57-63.35,42.91-101.51,93.58-142.57,34.2-27.73,69.69-44.94,92.62-44.94,6,0,10.88,1.21,14.44,3.57a1.15,1.15,0,0,1,.56.34c7.87,8.85,13.11,22.53,15.6,40.64,8.62-5.3,17.36-8,26-8,25.27,0,46.22,22.82,56,61.08,15.89,62.14,12.16,101.41-11.79,123.59a1.2,1.2,0,0,1-1.37.19,1.22,1.22,0,0,1-.68-1.22c2.42-24.11-9.86-38.31-10.38-38.91a21.43,21.43,0,0,0-4.95-5.21c-2.14-1.71-3.63-3.1-4.15-5.9-6.94,14.69-15.1,22.7-18.64,22.7a3.54,3.54,0,0,1-.58-.07A67.81,67.81,0,0,1,366.78,575a11.45,11.45,0,0,1-4.46-.63c-3-1.7-3.87-6.77,8.52-31.08-21.44,16-44.42,19.72-51.19,19.72a6.43,6.43,0,0,1-1.72-.17,3.4,3.4,0,0,1-2.32-1.91c-2.05-3.86-.73-13.1,4-27.57-20.78,25.43-46.68,29.4-60.89,29.4a58.13,58.13,0,0,1-10.11-.76,1.15,1.15,0,0,1-.89-.82A1.17,1.17,0,0,1,248,560c0-.06,2.32-4,15.83-45.45-12,19.39-26.31,37-41.15,50.36C207.61,578.47,193.34,586.55,184.43,586.55ZM357.33,359c-22.39,0-57.26,17-91.07,44.41-50.21,40.66-83.24,78.45-92.7,141-.31,2.81-2.78,28.23,5.94,37.92a6.36,6.36,0,0,0,4.93,1.77c15.52,0,54-28.63,82.91-80.45a1.23,1.23,0,0,1,2.24,1c-12.56,39-17.22,51.32-18.88,55.23a60.12,60.12,0,0,0,8,.47c14.81,0,42.82-4.46,63.56-34.59a1.22,1.22,0,0,1,2.15,1.12c-8.82,24.49-7.6,31.19-6.67,32.94.34.59.62.69.73.72a9.18,9.18,0,0,0,1.14,0c7,0,32.09-4.17,54.13-22.72a1.24,1.24,0,0,1,1.57,0,1.27,1.27,0,0,1,.32,1.55c-15,28.38-13.06,32.36-12.1,32.88a10.19,10.19,0,0,0,3.21.29c11.06,0,33.87-5.35,49.34-25.47a1.23,1.23,0,0,1,1-.49h0a1.12,1.12,0,0,1,1,.55c2.12-.12,11.29-8.4,18.77-27a1.24,1.24,0,0,1,2.36.64c-1,6.72.4,7.8,3.09,10a24.31,24.31,0,0,1,5.35,5.64c.43.48,12.3,14.16,11.16,37.36,21.09-21.86,23.87-59.82,8.72-118.92-9.46-37.08-29.5-59.24-53.59-59.24-8.74,0-17.59,2.91-26.33,8.59a1.11,1.11,0,0,1-1.18.09,1.2,1.2,0,0,1-.71-1c-2.3-18.31-7.33-32.07-14.93-40.85,0,0-.09,0-.13-.09C367.5,360.12,363,359,357.33,359Z"/><path class="cls-9" d="M114.21,748.15l1.39-.53.12-.21C115.21,747.69,114.7,747.93,114.21,748.15Z"/><path class="cls-9" d="M114.21,748.15c-1.33.44-2.55.84-3.68,1.12A18.13,18.13,0,0,0,114.21,748.15Z"/><path class="cls-5" d="M309,662.9s6.15-9.52,13.53-27c-32,37.18-60.54,34.42-63,33.49s-.91-10.46,6.15-32c-28.59,32.26-59.91,36.88-67.62,32.88s-5.82-14.14,6.16-40.56c-8.91,11.67-27.29,25.35-51.18,38.34-4-7.65-10.26-34.95-10.26-34.95-46.73,65.13-36.9,116.13-36.9,116.13a11.9,11.9,0,0,0,4.65,0c1.13-.28,2.35-.68,3.68-1.12.49-.22,1-.46,1.51-.74l-.12.21c11.62-4.49,29.94-16.12,55.64-45.27C152,735.93,150,746.62,150,746.62s43.82-2.09,92.56-54.53C228.6,717.9,214.6,737.92,207,743.5c24-.2,61.84-18.35,90.27-48.4-13.8,19.55-23.62,35.17-23.62,35.17a140,140,0,0,0,21.71-7l.52.16c56.2-25.48,95.48-48.11,94.24-81.16C350.49,664.84,309,662.9,309,662.9Z"/><path class="cls-38" d="M108.12,750.7a10.15,10.15,0,0,1-2.54-.27,1.19,1.19,0,0,1-.89-1c-.1-.52-9.41-52.28,37.06-117.1a1.26,1.26,0,0,1,1.25-.47,1.17,1.17,0,0,1,1,.93c0,.25,5.77,24.83,9.63,33.53,23.45-12.87,41.06-26.13,49.65-37.4a1.25,1.25,0,0,1,1.62-.31,1.29,1.29,0,0,1,.48,1.59c-11.77,26-13.41,35.45-6.7,39a14.56,14.56,0,0,0,6.28,1.09c11.13,0,36.3-7.09,59.83-33.71a1.26,1.26,0,0,1,1.55-.24,1.23,1.23,0,0,1,.54,1.46c-8.82,26.82-7.25,30.06-6.85,30.43a17,17,0,0,0,3.93.35c6.78,0,30.95-2.43,57.66-33.52a1.22,1.22,0,0,1,1.59-.21,1.19,1.19,0,0,1,.48,1.51,213.63,213.63,0,0,1-12.5,25.37c9.24.16,44.5-1.21,78.37-20.57a1.28,1.28,0,0,1,1.23,0,1.31,1.31,0,0,1,.62,1c1.22,32.3-33.89,54.65-94.94,82.32a1.81,1.81,0,0,1-.77.08s-.11,0-.19-.05A137.94,137.94,0,0,1,274,731.45a1.21,1.21,0,0,1-1.27-.47,1.17,1.17,0,0,1,0-1.34c.09-.15,6.53-10.37,16.16-24.47-28.32,25.81-61.5,39.4-81.74,39.54h0a1.26,1.26,0,0,1-1.19-.82,1.23,1.23,0,0,1,.46-1.38c6.71-5,18.62-21.73,30.62-42.87-22.91,22.82-44.19,34.58-58.52,40.51-17,7.1-28,7.69-28.43,7.69a1.21,1.21,0,0,1-1-.43,1.25,1.25,0,0,1-.29-1c.09-.41,1.86-9.22,16.16-35.25-22.65,24.08-38.9,33.76-48.85,37.62a1.33,1.33,0,0,1-.45.08c-.31.14-.59.28-.9.39-1.45.5-2.7.92-3.87,1.22A16.59,16.59,0,0,1,108.12,750.7ZM107,748.17a11.82,11.82,0,0,0,3.33-.11c1-.26,2.23-.65,3.5-1.09a12.48,12.48,0,0,0,1.33-.66,1.35,1.35,0,0,1,.75-.13c10.83-4.35,28.86-15.67,54.45-44.66a1.26,1.26,0,0,1,1.63-.18,1.22,1.22,0,0,1,.35,1.6c-14.85,25.9-19.42,38.18-20.69,42.27,8.54-1.06,47.56-8.31,90-54a1.23,1.23,0,0,1,1.62-.15,1.21,1.21,0,0,1,.35,1.59c-12.33,22.85-24.86,41.5-33.06,49.43,22.37-1.75,57.77-18.16,85.86-47.86a1.22,1.22,0,0,1,1.66-.1,1.2,1.2,0,0,1,.23,1.65c-10.38,14.73-18.58,27.31-21.92,32.55a150.64,150.64,0,0,0,18.54-6.24,1.4,1.4,0,0,1,.73-.1l.16.05c58.53-26.54,92.73-48,93.12-77.78-33.35,18.44-67.55,19.91-77.37,19.91-1.68,0-2.61-.07-2.61-.07a1.28,1.28,0,0,1-1-.67,1.19,1.19,0,0,1,.08-1.21,185.27,185.27,0,0,0,10.4-19.94c-24.59,25.78-46,28.71-54.46,28.71a15.43,15.43,0,0,1-4.8-.52c-2.26-.84-4-3.88,3.68-28.17-21.5,22.35-44.33,30.4-57.88,30.4a16.92,16.92,0,0,1-7.41-1.35c-8.31-4.34-6.24-14.88,2.29-34.74-10,10.22-26,21.56-46.18,32.51a1.37,1.37,0,0,1-1,.09,1.27,1.27,0,0,1-.71-.62c-3.28-6.37-8-25.47-9.76-32.61C101.23,694.52,106,741.43,107,748.17Z"/><path class="cls-4" d="M438,520.56c-8.16,20.31-19.08,29.84-20.92,27.22-20.35,26.49-51.63,27-54.16,25.53s-2.17-8.37,11.65-34.55c-25.11,21.11-53.45,23.64-56.37,22.92s-4.73-8,5.09-35.26c-29.81,43.26-74.43,34.37-74.43,34.37s2.07-2.38,19.54-56.56c-33.09,59.27-80,89.8-89.83,78.88-8.93-9.93-6.71-34.67-6.26-38.92a3.39,3.39,0,0,0-.06.41c-42.39,47.31-29.49,88.51-29.49,88.51s6.3,27.3,10.26,34.95c23.89-13,42.27-26.67,51.18-38.34-12,26.42-13.82,36.56-6.16,40.56s39-.62,67.62-32.88c-7.06,21.49-8.62,31-6.15,32s31,3.69,63-33.49c-7.38,17.52-13.53,27-13.53,27s41.49,1.94,81.15-20.68C469.39,594,446.58,537,446.58,537a.28.28,0,0,0,.08.08C441.46,529.29,436.36,531.86,438,520.56Z"/><path class="cls-14" d="M204.92,672.73a16.92,16.92,0,0,1-7.41-1.35c-8.31-4.34-6.24-14.88,2.29-34.74-10,10.22-26,21.56-46.18,32.51a1.37,1.37,0,0,1-1,.09,1.27,1.27,0,0,1-.71-.62c-4-7.69-10.12-34.12-10.39-35.25-.1-.31-12.57-42.22,29.68-89.46a1.31,1.31,0,0,1,1.24-.72c.64.08,1.16.48,1.08,1.14-.31,2.86-2.78,28.28,5.94,38a6.36,6.36,0,0,0,4.93,1.77h0c15.52,0,54-28.66,82.91-80.45a1.23,1.23,0,0,1,2.24,1c-12.56,39-17.22,51.32-18.88,55.23a60.12,60.12,0,0,0,8,.47c14.81,0,42.82-4.46,63.56-34.59a1.22,1.22,0,0,1,2.15,1.12c-8.82,24.49-7.6,31.19-6.67,32.94.34.59.62.69.73.72a9.18,9.18,0,0,0,1.14,0c7,0,32.09-4.17,54.13-22.72a1.24,1.24,0,0,1,1.57,0,1.27,1.27,0,0,1,.32,1.55c-15,28.38-13.06,32.36-12.1,32.88a10.19,10.19,0,0,0,3.21.29c11.06,0,33.87-5.35,49.34-25.47a1.23,1.23,0,0,1,1-.49h0a1.12,1.12,0,0,1,1,.55c2.12-.12,11.29-8.4,18.77-27a1.24,1.24,0,0,1,2.36.64c-1,6.72.4,7.8,3.09,10a24.31,24.31,0,0,1,5.35,5.64.94.94,0,0,1,.2.59c1.95,5.64,18.34,60.45-57.11,106.32-34,19.39-69.22,20.92-79.22,20.92-1.68,0-2.61-.07-2.61-.07a1.28,1.28,0,0,1-1-.67,1.19,1.19,0,0,1,.08-1.21,185.27,185.27,0,0,0,10.4-19.94c-24.59,25.8-46,28.71-54.46,28.71a15.43,15.43,0,0,1-4.8-.52c-2.26-.84-4-3.88,3.68-28.17C241.3,664.68,218.47,672.73,204.92,672.73Zm-.7-44.24a1.27,1.27,0,0,1,.64.16,1.29,1.29,0,0,1,.48,1.59c-11.77,26-13.41,35.45-6.7,39a14.56,14.56,0,0,0,6.28,1.09c11.13,0,36.3-7.09,59.83-33.71a1.26,1.26,0,0,1,1.55-.24,1.23,1.23,0,0,1,.54,1.46c-8.82,26.82-7.25,30.06-6.85,30.43a17,17,0,0,0,3.93.35c6.78,0,30.95-2.43,57.66-33.52a1.22,1.22,0,0,1,1.59-.21,1.19,1.19,0,0,1,.48,1.51,213.63,213.63,0,0,1-12.5,25.37c9.24.16,44.5-1.21,78.37-20.57,76.41-46.44,56.71-101.65,55.94-103.69a21.27,21.27,0,0,0-4.66-4.81c-2.14-1.71-3.63-3.1-4.15-5.9-6.94,14.67-15.1,22.7-18.64,22.7a3.54,3.54,0,0,1-.58-.07A67.81,67.81,0,0,1,366.78,575a11.45,11.45,0,0,1-4.46-.63c-3-1.7-3.87-6.77,8.52-31.08-21.44,16-44.42,19.72-51.19,19.72a6.43,6.43,0,0,1-1.72-.17,3.4,3.4,0,0,1-2.32-1.91c-2.05-3.86-.73-13.1,4-27.57-20.78,25.43-46.68,29.4-60.89,29.4a58.13,58.13,0,0,1-10.11-.76,1.15,1.15,0,0,1-.89-.82A1.17,1.17,0,0,1,248,560c0-.06,2.32-4,15.83-45.45-12,19.39-26.31,37-41.15,50.36-15,13.55-29.29,21.62-38.2,21.63h0a8.57,8.57,0,0,1-6.73-2.6c-7.69-8.49-7.5-26.89-6.94-35.77-38.55,45.12-26.94,84.16-26.81,84.57s5.78,24.91,9.64,33.61c23.45-12.87,41.06-26.13,49.65-37.4A1.21,1.21,0,0,1,204.22,628.49Z"/><path class="cls-36" d="M379.52,157.11s19.62-14.12,35.3,11C410.63,149.53,391.29,140.88,379.52,157.11Z"/><path class="cls-4" d="M512.12,258.53c13.68-7.81,23.64-17.94,26.79-29.15,0-.08,0-.17,0-.24C532.24,214,520,209.22,501,190.3c-23.43-23.25-35.18-19.32-54.44-8.67s-40.15,11-48.36,53.26,14.69,82.35,14.69,82.35,4.25-43.1,41.68-50.67c-.1.08-.18.22-.31.31.4-.09.77-.23,1.12-.28C465.35,265.33,492.75,269.6,512.12,258.53Z"/><path class="cls-14" d="M412.89,318.48a1.34,1.34,0,0,1-1.08-.63c-.22-.42-23-41-14.83-83.21,6.82-34.9,22-41.68,38.14-48.87,3.59-1.6,7.27-3.24,10.84-5.22,8.2-4.54,16.22-8.6,24.46-8.6,9.57,0,19.25,5.39,31.43,17.49,6.79,6.75,12.7,11.66,17.88,16,9.24,7.71,15.93,13.26,20.28,23.24a1.33,1.33,0,0,1,.08.33,1.65,1.65,0,0,1,0,.7c-3.15,11.1-12.62,21.45-27.39,29.89-14.43,8.27-33.49,8.16-46.46,8l-4.44,0a49.55,49.55,0,0,0-6.25.27,1.14,1.14,0,0,0-.48.12,4.92,4.92,0,0,1-.58.14,1.44,1.44,0,0,1-.77-.09c-35.09,7.92-39.58,48.93-39.63,49.35a1.26,1.26,0,0,1-1,1.1C413.06,318.45,413,318.48,412.89,318.48Zm57.53-144.07c-7.66,0-15.37,3.92-23.26,8.29-3.65,2-7.4,3.68-11,5.3-15.52,6.93-30.19,13.45-36.71,47.12-6.69,34.43,7.74,67.87,12.84,78.24,2.11-10.81,10.79-41.67,42.08-48a1.73,1.73,0,0,1,.68,0l.21,0a52.34,52.34,0,0,1,6.58-.29c1.37,0,2.88,0,4.46,0,1.78,0,3.67.05,5.63.05,12.91,0,27.72-.93,39.59-7.71,13.84-7.89,23.08-17.86,26.12-28-4.14-9.34-10.56-14.7-19.45-22.1C512.93,203,507,198,500.11,191.19,488.44,179.6,479.29,174.41,470.42,174.41Z"/><path class="cls-39" d="M412.37,228.47c9.18-24.29,26.77-38.25,45.77-52.56a105.28,105.28,0,0,0-11.58,5.72c-19.25,10.65-40.15,11-48.36,53.26-6.36,32.72,6,64.17,11.81,76.65C403.14,284.14,402.2,255.4,412.37,228.47Z"/><path class="cls-4" d="M538.91,229.38c-2.65,9.41-10.15,18.07-20.61,25.23-11.81,39.63-86.47,77.31-86.47,77.31A379.3,379.3,0,0,0,500,307.76C529.34,294.08,548.73,261,538.91,229.38Z"/><path class="cls-14" d="M431.83,333.15a1.24,1.24,0,0,1-1.16-.81,1.27,1.27,0,0,1,.6-1.52c.74-.38,74.33-37.9,85.85-76.54a1.16,1.16,0,0,1,.49-.68c10.71-7.34,17.65-15.84,20.12-24.58a1.14,1.14,0,0,1,1.18-.89,1.23,1.23,0,0,1,1.18.87c9.49,30.57-7.54,64.92-39.53,79.89a387.22,387.22,0,0,1-68.44,24.24Zm87.52-77.75c-9.78,31.57-57.53,61.3-77.89,72.71a392.15,392.15,0,0,0,58.07-21.45c29.58-13.84,45.88-44.75,39.25-73.19C535.45,241.32,528.82,248.84,519.35,255.4Z"/><path class="cls-4" d="M476.43,266.36c-8.93.17-16.68-.29-21.05.24-.35,0-.72.19-1.12.28-21.94,21-22.43,65-22.43,65s9.94-5,23.12-13.32C455.09,294.86,469.1,275.05,476.43,266.36Z"/><path class="cls-14" d="M431.83,333.15a1.08,1.08,0,0,1-.65-.19,1.21,1.21,0,0,1-.58-1c0-1.84.75-44.84,22.81-65.92a.93.93,0,0,1,.6-.3c.15,0,.27-.1.42-.13a3.43,3.43,0,0,1,.81-.19,52.92,52.92,0,0,1,6.6-.29c1.37,0,2.88,0,4.48,0,3.07.05,6.48.08,10.09,0a1.52,1.52,0,0,1,1.14.7,1.28,1.28,0,0,1-.17,1.34c-6.34,7.47-21.09,27.52-21.21,51.43a1.28,1.28,0,0,1-.56,1C442.52,327.89,432.49,333,432.39,333A1.25,1.25,0,0,1,431.83,333.15ZM454.88,268c-18.43,17.87-21.31,53-21.75,61.85,3.4-1.79,11.15-6,20.59-11.92.38-22.49,13-41.47,20.1-50.29-2.65,0-5.18,0-7.52-.06l-4.46,0a49.71,49.71,0,0,0-6.27.27,1.14,1.14,0,0,0-.48.12A.58.58,0,0,0,454.88,268Z"/><path class="cls-2" d="M518.3,254.61c-2,1.35-4,2.68-6.18,3.92-10.87,6.2-24.28,7.59-35.69,7.83-7.33,8.69-21.34,28.5-21.48,52.24C477.92,304.19,510.78,279.8,518.3,254.61Z"/><path class="cls-40" d="M512.12,258.53c-10.87,6.2-24.28,7.59-35.69,7.83-.56.65-1.14,1.39-1.76,2.17,4.1-1.36,8.37-2,11.64-.39,5.06,2.51,6.19,8.17,3.65,13.2-5,9.86-15.08,17-23.37,23.92-3.81,3.24-7.65,6.43-11.5,9.61-.06,1.24-.12,2.48-.14,3.73,23-14.41,55.83-38.8,63.35-64C516.33,256,514.28,257.29,512.12,258.53Z"/><g class="cls-15"><path class="cls-41" d="M538.87,229.14C532.24,214,520,209.22,501,190.3c-23.43-23.25-35.18-19.32-54.44-8.67,28.25-15.25,41.74,1.2,54.79,21s5.33,45.37-49.74,43.44c-41.53-1.46-42.34,45.18-40.27,68.15.93,1.89,1.55,3,1.55,3s4.25-43.1,41.68-50.67c-.1.08-.18.22-.31.31.4-.09.77-.23,1.12-.28,10-1.27,37.37,3,56.74-8.07,13.68-7.81,23.64-17.94,26.79-29.15C538.89,229.3,538.89,229.21,538.87,229.14Z"/></g><path class="cls-28" d="M426,193s.06-.13,0-.08c-12.87,9.06-19.93,17.16-24.86,32.34-6.34,19.39-3.38,41.87,1.3,61.22.19.83,1.31-.48,1.22-1-2.54-14.5-4.86-28.68-4.22-43.54C400.36,221,409.76,205.47,426,193Z"/><g class="cls-15"><path class="cls-41" d="M455.38,266.6c-.35,0-.72.19-1.12.28a51.71,51.71,0,0,0-8.3,10.59c4.53-3.25,9.36-6.11,12.59-6.23,7.58-.35-7.27,19-10.13,34.16-2.11,11.32-7.93,15.77-16.28,20.75-.27,3.54-.31,5.77-.31,5.77s9.94-5,23.12-13.32c.14-23.74,14.15-43.55,21.48-52.24C467.5,266.53,459.75,266.07,455.38,266.6Z"/></g><g class="cls-15"><path class="cls-41" d="M538.91,229.38c-2.65,9.41-10.15,18.07-20.61,25.23-2,6.83-6,13.58-11,20.13a63.33,63.33,0,0,0,15.91-14.2c15-19,14,43-69.57,58.89-12.51,7.8-21.79,12.49-21.79,12.49A379.3,379.3,0,0,0,500,307.76C529.34,294.08,548.73,261,538.91,229.38Z"/></g><path class="cls-39" d="M465.35,314.28s27.82-18,49.16-43.86C521.86,261,512.85,300.34,465.35,314.28Z"/><path class="cls-24" d="M575.25,180.11l-2.1,2.08c-.68.64-1.49,1.44-2.42,2.34a25.61,25.61,0,0,1-3.61,2.6c-.66.44-1.38.89-2.13,1.4s-1.64.73-2.49,1.13a21.69,21.69,0,0,1-5.61,1.91l-3.06.69-3.26.15a37,37,0,0,1-6.54-.35,44.6,44.6,0,0,1-12.16-4,58.56,58.56,0,0,1-9.39-5.88,51.39,51.39,0,0,1-7.79-7.36s.85.64,2.3,1.8,3.67,2.65,6.3,4.43a72.63,72.63,0,0,0,9.49,5.07,58.56,58.56,0,0,0,5.63,2.12,49.42,49.42,0,0,0,6,1.4,31.67,31.67,0,0,0,6.11.45l3-.08,2.88-.51a23.66,23.66,0,0,0,5.38-1.46c.83-.31,1.7-.54,2.47-.87s1.43-.83,2.11-1.19a36.61,36.61,0,0,0,3.75-2.12c1-.75,2-1.46,2.69-2Z"/><g class="cls-15"><path class="cls-20" d="M738.26,520c3.85-17.91.44-39.31-17.44-67.72,6.88,15.19,12.76,31.09,12.76,41.16C716.45,467,690,472,690,472s52.13,52.13-10,99.26c12.12-23.56,5-43.58,5-43.58s-3.56,50-46.43,71.41c2.88-27.12-30-42.84-61.38-59.27s-50-54.27-25.73-95c-22.12,17.13-33.54,49.25-33.54,49.25s-.72-25.7,26.42-56.41a60.16,60.16,0,0,0-32.15,21.41s-.69-25.68,29.29-32.11c0,0-36.42-5-48.56,22.85,0,0-10.79-19.25,1.51-34,0,0-16-2.46-19.7,9.83,3.71-33.17-11-43-43-46.7s-34.39-19.67-36.87-38.09c-12.29,3.69-11,22.11-11,22.11s-2.47-29.5-14.77-50.38c-.23-.39-.52-.77-.75-1.16,8.39,35.66,3.58,48.7,3.15,49.81,7.33,8.28,13,21.49,15.52,41.87,33-21.56,67.86-3.19,81.82,51.36s14.59,98.27-11.43,122.38C459.9,551.53,446.58,537,446.58,537S469.39,594,390.15,642.22c1.26,33.62-39.34,56.45-97,82.42-17.11,22.21-37.41,33.62-36.79,73.55C265.83,783,274.09,776,274.09,776s-17.13,35.51-3.81,41.85a62.88,62.88,0,0,1,21.19,16.79s9.84,5.56,25.53,20c12.78,11.79,14.52,30.26,14.52,30.26s13.28-8.62,13.28-12.82c4.18,4.2,7.29,10.83,7.29,10.83l11.31-10.77s2.47,6.76,12.29,12.32c12.9-43,39.32-58.39,55.29-64.54,22.12,20.3,21.58,55.26,21.58,55.26s5.37-3.57,12.25-14.54c2.3,6.62,8.93,12.26,8.93,12.26s3.58-3.57,10.71-14c5.11,9.43,17.83,18,17.83,18s4.08-26.25,36.86-82.77,84.4-90.94,128.42-132.49c37.93-42.4,53-73.62,51.29-112.13,20.12-35.14-5.8-62.66-5.8-62.66S734,494.21,738.26,520Z"/></g><g class="cls-15"><path class="cls-42" d="M596.69,711.4c-36.42,23.66-86.51,98.35-96.54,147.53a30.72,30.72,0,0,1-10-20.94s-11.83,6.36-14.56,20c-7.29-10.95-6.36-24.63-6.36-24.63l-10.05,20.05s2.74-18.21-4.53-27.31c36.41-6.4,61.92-21.87,70.12-51-21.86,20-55.54,23.68-87.42,29.14s-62.84,37.35-62.84,62.85c-7.31-10-7.31-18.21-7.31-18.21L354.45,865.3c-4.58-12.74-5.47-20-5.47-20l-11.83,17.31S276.87,797.3,360.46,735c-26.23,3.31-36,11.5-36,11.5S349,718.64,390,697.34s67.18-67.19,67.18-96.69l11.46,36S503,584.27,488.28,502.33c-6.55-36.36-17.3-65-33.11-81.11,5.54,8.93,10.22,20,13.61,33.3,14,54.54,14.59,98.27-11.43,122.38C459.9,551.53,446.58,537,446.58,537S469.39,594,390.15,642.22c1.26,33.62-39.34,56.45-97,82.42-17.11,22.21-37.41,33.62-36.79,73.55C265.83,783,274.09,776,274.09,776s-17.13,35.51-3.81,41.85a62.88,62.88,0,0,1,21.19,16.79s9.84,5.56,25.53,20c12.78,11.79,14.52,30.26,14.52,30.26s13.28-8.62,13.28-12.82c4.18,4.2,7.29,10.83,7.29,10.83l11.31-10.77s2.47,6.76,12.29,12.32c12.9-43,39.32-58.39,55.29-64.54,22.12,20.3,21.58,55.26,21.58,55.26s5.37-3.57,12.25-14.54c2.3,6.62,8.93,12.26,8.93,12.26s3.58-3.57,10.71-14c5.11,9.43,17.83,18,17.83,18s4.08-26.25,36.86-82.77,84.4-90.94,128.42-132.49c21.44-24,35.57-44.37,43.5-64.55C688.83,629.52,647.36,682.42,596.69,711.4Z"/></g><path class="cls-28" d="M476.7,269.05c-11.58,11.16-17.63,25.75-18.27,41.8,0,1.08,1.24-.16,1.3-.76,1.68-15.8,6.86-28.42,17.11-40.63C477,269.27,477,268.76,476.7,269.05Z"/><path class="cls-17" d="M442,48.82a137.27,137.27,0,0,0-70.6,97.42c-1.87,10.53,8.92,2.84,10.56-2.85C393,105.09,411.75,75.94,442,50.08,442.37,49.77,442.81,48.36,442,48.82Z"/><path class="cls-17" d="M475.48,39.85c-17.14,6.84-36.17,21.86-42.1,39.88-1.7,5.07,4.12,3.55,5.76.57,8.1-14.78,21.71-26.72,35.65-36C475.75,43.63,477.88,38.89,475.48,39.85Z"/><g class="cls-15"><path class="cls-43" d="M468.78,454.52c-14-54.55-48.84-72.92-81.82-51.36-2.53-20.38-8.19-33.59-15.52-41.87a.48.48,0,0,1,0,.08c-3.15-2.2-7.46-3.35-12.7-3.54,14.37,18.67,20.69,50.73,15.27,74,20.88-24.58,45.47-3.67,30.72,47.94S338.33,529,338.33,529s11.07-35.65,8.58-66.36c-17.17,54.07-76.19,74.95-76.19,74.95a786.26,786.26,0,0,1,16-78.63c-29.48,56.52-92.17,113-93.39,78.63-1.89-52.32,33.89-98.19,51.17-117.26-36.81,33-63.72,68.52-72.14,123.91-.45,4.25-2.67,29,6.26,38.92,9.84,10.92,56.74-19.61,89.83-78.88-17.47,54.18-19.54,56.56-19.54,56.56s44.62,8.89,74.43-34.37c-9.82,27.25-8,34.52-5.09,35.26s31.26-1.81,56.37-22.92c-13.82,26.18-14.19,33.08-11.65,34.55s33.81,1,54.16-25.53c1.84,2.62,12.76-6.91,20.92-27.22-1.66,11.3,3.44,8.73,8.64,16.48.89,1,13.13,15.39,10.69,39.86C483.37,552.79,482.73,509.06,468.78,454.52Z"/></g><g class="cls-15"><path class="cls-4" d="M446.58,537a.28.28,0,0,0,.08.08c-5.2-7.75-10.3-5.18-8.64-16.48-8.16,20.31-19.08,29.84-20.92,27.22-20.35,26.49-51.63,27-54.16,25.53s-2.17-8.37,11.65-34.55c-25.11,21.11-53.45,23.64-56.37,22.92s-4.73-8,5.09-35.26c-29.81,43.26-74.43,34.37-74.43,34.37s2.07-2.38,19.54-56.56c-33.09,59.27-80,89.8-89.83,78.88-8.93-9.93-6.71-34.67-6.26-38.92a3.39,3.39,0,0,0-.06.41,132.94,132.94,0,0,0-22.4,33.56c6.42-4.9,12.57-3.8,16.37,11,7.4,29.51,30.73,19.66,62.69-14.74,0,27,44.25,17.18,75-8.63-2.46,25.81,9.84,24.61,34.43,8.63C317.43,631,301.44,642,276.87,655.53c1.24-24.56,8.62-47.92,8.62-47.92s-39.34,44.25-66.38,44.25c-17.19-3.67,6.13-51.61,6.13-51.61S187.15,638.35,165,644.5c-17.46,4.85-22.66-18.6-24.07-28.72-.23,10.79,1.83,17.33,1.83,17.33s6.3,27.3,10.26,34.95c23.89-13,42.27-26.67,51.18-38.34-12,26.42-13.82,36.56-6.16,40.56s39-.62,67.62-32.88c-7.06,21.49-8.62,31-6.15,32s31,3.69,63-33.49c-7.38,17.52-13.53,27-13.53,27s41.49,1.94,81.15-20.68C469.39,594,446.58,537,446.58,537Z"/></g><path class="cls-44" d="M241.94,692.72a3.13,3.13,0,0,1,.37-.23,2.19,2.19,0,0,0,.21-.4A8.48,8.48,0,0,1,241.94,692.72Z"/><path class="cls-45" d="M180.91,691.69c-30.17,21.36-64.77,42-64.77,42s-5.16-13.24-6.62-25a6.19,6.19,0,0,0-.88-2.45c-5.94,26.39-2.76,43-2.76,43a11.9,11.9,0,0,0,4.65,0c1.13-.28,2.35-.68,3.68-1.12.49-.22,1-.46,1.51-.74l-.12.21c11.62-4.49,29.94-16.12,55.64-45.27C152,735.93,150,746.62,150,746.62s43.46-2.09,92-53.9c-32,19.1-72.07,39.49-72.07,39.49S175,705.67,180.91,691.69Z"/><path class="cls-8" d="M230.22,731.45s0,0,0-.05C230.11,731.52,230.07,731.55,230.22,731.45Z"/><path class="cls-9" d="M230.15,732.76h0a1.24,1.24,0,0,1-1.18-.85,1.37,1.37,0,0,1,.48-1.43,1.3,1.3,0,0,1,1.72.13,1.2,1.2,0,0,1,0,1.67l-.33.28A1.81,1.81,0,0,1,230.15,732.76Z"/><path class="cls-45" d="M309,662.9s6.15-9.52,13.53-27c-32,37.18-60.54,34.42-63,33.49s-.91-10.46,6.15-32c-28.59,32.26-59.91,36.88-67.62,32.88s-5.82-14.14,6.16-40.56c-8.91,11.67-27.29,25.35-51.18,38.34-4-7.65-10.26-34.95-10.26-34.95-14.57,20.28-23.63,39.19-29.21,55.63,6-9.43,24.9-37.19,27.6-18.37,2.19,15.46,8.83,14.69,28.7,2.2,15.45-8.83,5.9,33.1,63.29,3,17.67-8.85-4.41,22.81,50.81-1.47-22,34.32-51.6,55.82-53.71,57.34,0,0,0,.05,0,.05s-.11.07,0-.05c2.28-1.66,12.41-25.69,13.92-40-.62.38-1.24.74-1.87,1.11-13.83,25.62-27.78,45.45-35.28,51,24-.2,61.84-18.35,90.27-48.4-13.8,19.55-23.62,35.17-23.62,35.17a140,140,0,0,0,21.71-7l.52.16c56.2-25.48,95.48-48.11,94.24-81.16C350.49,664.84,309,662.9,309,662.9Z"/><g class="cls-12"><path class="cls-6" d="M171.24,702.35c-25.7,29.15-44,40.78-55.64,45.27-4.1,6.44-7.87,15.79-11.12,26.14,4.67-6.12,17.65-21.76,30.64-26.66,10.52-3.07-11.76,56.6-41,71.55-.79,5.11-1.4,9.73-1.73,13.55,1.17-.44,2.12-.87,3-1.23,8.08-4.35,19.89-12.76,31.63-28.66,14.24-19.29,26.18-43.63,32.35-57.24a58,58,0,0,1-9.38,1.55S152,735.93,171.24,702.35Z"/></g><g class="cls-12"><path class="cls-6" d="M165.81,743.35c-3.7,6.86-9.1,17.31-14.27,29,8.64-11.87,18.81-23.89,24.88-24.55,11.14-1.23-13.84,45.47-39.41,70.6,0,.51-.13,1-.18,1.52,11-1.18,38.26-23.49,72.11-98.22C191.6,733.94,176.42,740.2,165.81,743.35Z"/></g><g class="cls-12"><path class="cls-6" d="M242.52,692.09a212.31,212.31,0,0,1-33.58,29.61c-33.85,74.73-61.07,97-72.11,98.22,2.47-25.08,20.37-60.65,29-76.57-2.38.74-4.56,1.31-6.47,1.72C153.17,758.68,141.23,783,127,802.31c-11.74,15.9-23.55,24.31-31.63,28.66a39.6,39.6,0,0,0,5-2.45s-1.64,3.32-3.9,8.65c6.17-6.8,13.11-12.68,21.55-15.86.85-.35,1.27.58,1.31,1.23,1.52,28.16-13.75,58.25-35.73,77.66.22,1.13.47,2.23.78,3.31,31.34-15.39,59-84.2,59-84.2s17.21-9.85,33.18-33.8c-.23.65-.5,1.3-.77,2,8-10.78,17-22.65,23-29.56,11.58-13.43,5.55,18.37-34.06,59.53l3.77-1.7c15.33-9.69,41.06-31.55,60.7-76.3a77.63,77.63,0,0,1-22.17,4C214.6,737.92,228.6,717.9,242.52,692.09Z"/></g><g class="cls-12"><path class="cls-6" d="M273.68,730.27s9.82-15.62,23.62-35.17c-20.72,21.91-46.39,37.46-68.1,44.37a200,200,0,0,1-28.55,47.25c-1.74,4.85-3.81,10-6.11,14.8,11.73-13.27,30.19-34.36,39.45-46.28,11.25-14.44,26.24-1.83.35,27.15,10.34-7.55,21.79-17.14,36-31.18a2.58,2.58,0,0,0,.46-.34c6.67-8.87,14.77-16.51,22.27-26.23.95-.42,1.86-.85,2.8-1.26l-.52-.16A140,140,0,0,1,273.68,730.27Z"/></g><g class="cls-46"><path class="cls-25" d="M291.54,838.18c-7.28,29.58-26.06,37.44-26.06,37.44s-6.16-10.22-7.38-31.52c-13.51,30.32-38.51,36-38.51,36s-6.15-14.35-1.22-37.29c-8.21,17.61-20.08,32-40.17,43-.23-20.88,6.71-42,12.51-56-9.34,11.51-18,21.09-22.15,25.68a248.17,248.17,0,0,1-21.28,37.14,120.32,120.32,0,0,0,14.66-12.22c11.62-12.18,13.73,29.27-37.68,64.56C138.81,940.73,163.84,921,179,890.6c-2.16,8.34-3.92,15.21-5.35,20.95,6.67-13,14.15-25.75,19-28,9-4.26,3.33,31.05-17.86,56.16,7.79-1.21,26.72-21.62,33.08-44.21-.93,16.27-.14,26.57,1.93,32.63,3.85-16.24,11-37.91,22.17-42.76,14-6.06,7.46,22.58-6.74,47.2,9-6.83,21.28-24.42,28-38.15.17,12.32,2.24,20.71,5.08,26.06,1.43-15.36,4.66-35.56,11.76-38.18,9.35-3.43,9.62,20.64-1,45.8,5.47-1.67,15.39-23.45,22.17-51.15C291.74,858.75,291.62,844.44,291.54,838.18Z"/></g><path class="cls-47" d="M568.62,978.69s6.75,7.56,7.29,21.62c11.45-9.39,11.45-27.34,8.33-34.38C576.92,975.56,568.62,978.69,568.62,978.69Z"/><path class="cls-48" d="M575.91,1001.55a1.32,1.32,0,0,1-.54-.12,1.26,1.26,0,0,1-.7-1.07c-.5-13.42-6.9-20.76-7-20.81a1.33,1.33,0,0,1-.27-1.14,1.3,1.3,0,0,1,.75-.85c.08,0,8.12-3.15,15.08-12.37a1.27,1.27,0,0,1,1.14-.48,1.29,1.29,0,0,1,1,.74c3.36,7.55,3.34,26-8.67,35.82A1.45,1.45,0,0,1,575.91,1001.55Zm-5.39-22.39A38.05,38.05,0,0,1,577,997.68c8.21-8.39,8.91-22,6.84-29.25A40.92,40.92,0,0,1,570.52,979.16Z"/><path class="cls-47" d="M416.91,994.41s7.36,12.41,4.91,21.22c10.71-5.24,13.34-17.64,10.53-25.53C428.59,995.35,416.91,994.41,416.91,994.41Z"/><path class="cls-48" d="M421.82,1016.89a1.33,1.33,0,0,1-.79-.29,1.21,1.21,0,0,1-.39-1.28c2.28-8.23-4.7-20.13-4.74-20.29a1.14,1.14,0,0,1,0-1.25,1.17,1.17,0,0,1,1.14-.58s.78.06,2,.06c2.88,0,9.84-.37,12.35-3.86a1.19,1.19,0,0,1,1.16-.53,1.25,1.25,0,0,1,1,.82c3.17,8.85-.18,21.7-11.12,27.08A1.25,1.25,0,0,1,421.82,1016.89ZM419,995.72c1.77,3.44,5,10.89,4.48,17.55a20.19,20.19,0,0,0,8.22-20.81C428.22,995.24,422.48,995.72,419,995.72Z"/><path class="cls-47" d="M445.89,986.16s5.39,12.12,6.13,19.2c6.47-7.53,6.78-21.51,6.78-21.51Z"/><path class="cls-48" d="M452,1006.59a2.67,2.67,0,0,1-.35-.05,1.24,1.24,0,0,1-.85-1c-.74-6.79-6-18.71-6.05-18.86a1.18,1.18,0,0,1,.05-1,1.14,1.14,0,0,1,.85-.64l12.9-2.31a1.27,1.27,0,0,1,1,.29,1.12,1.12,0,0,1,.43,1c0,.59-.37,14.51-7.06,22.29A1.27,1.27,0,0,1,452,1006.59Zm-4.39-19.5a99.39,99.39,0,0,1,5.14,15.17c3.48-5.73,4.46-13.65,4.7-16.92Z"/><path class="cls-47" d="M607.36,971.08a66.65,66.65,0,0,1,10.44,17.53c6.77-11.66,4-27-.6-33.8C616.57,965.55,612.58,970.48,607.36,971.08Z"/><path class="cls-48" d="M617.8,989.84h-.09a1.25,1.25,0,0,1-1.05-.78,66.89,66.89,0,0,0-10.22-17.17,1.12,1.12,0,0,1-.22-1.23,1.23,1.23,0,0,1,1-.79c5.1-.6,8.23-6,8.72-15.14a1.27,1.27,0,0,1,.91-1.1,1.29,1.29,0,0,1,1.35.48c4.56,6.71,8,22.53.66,35.11A1.26,1.26,0,0,1,617.8,989.84Zm-8.25-18a68,68,0,0,1,8.37,13.87c4.16-9.1,3-20,.08-26.81C616.64,967.58,612.76,970.74,609.55,971.84Z"/><path class="cls-47" d="M288.78,969.68s-4.16,13.3,0,26.91c3.11-9,12.06-22,12.06-22Z"/><path class="cls-48" d="M288.78,997.83h0a1.28,1.28,0,0,1-1.14-.88c-4.25-13.81-.19-27.08,0-27.65a1.25,1.25,0,0,1,1.66-.75l12,5a1.13,1.13,0,0,1,.71.79,1.09,1.09,0,0,1-.17,1c-.08.13-8.91,13-11.91,21.65A1.19,1.19,0,0,1,288.78,997.83Zm.83-26.47a51.19,51.19,0,0,0-.56,21.26A131.06,131.06,0,0,1,299,975.2Z"/><path class="cls-49" d="M506.72,919.57c-.75.47-1.56,3-.11,2.22,11.56-6.1,22.36-8.7,35.37-6.93,13.65,1.9,19.49,11.89,25.19,22.84,1.14,2.21,4.33-2.47,4-4C563.27,902.24,528.82,905.81,506.72,919.57Z"/><path class="cls-49" d="M612.06,941c-4.06-10.56-14.63-17.59-25.3-19.8-.76-.17-2,1.8-1.14,2.23,9.47,4.86,16.85,12.9,23.31,21.27C610.34,946.5,612.6,942.42,612.06,941Z"/><path class="cls-49" d="M440.59,937.1c-.35-.08-.83.76-.52,1,1.93,1.47,2.82,3.61,4.54,5.25a83.41,83.41,0,0,1,6.65,7.29c3.62,4.29,5.57,9.84,8.49,14.57.79,1.28,2.51-1.43,2.28-2.31C459.5,952.71,451.94,939.41,440.59,937.1Z"/><path class="cls-49" d="M428.12,949.91c-3.75-8.34-9.95-15.67-19.14-17.64-8.25-1.73-20.33,1.11-26.79,6.61-.21.16-.29.73.08.47,6.84-5,17.53-5.35,25.32-3.83,8,1.58,13.65,11.12,18,17.3C426.65,954.26,428.62,951.07,428.12,949.91Z"/><g class="cls-50"><path class="cls-28" d="M333.45,365c-34.7,15.12-68,29.5-96.44,55.38-24.71,22.55-34.08,55.05-39.57,87-.68,3.94,3.44,1.18,4-1.07,10.4-42.18,23.47-75.07,60.56-100.54C284.7,390.14,309.19,379,333.38,366,333.73,365.79,334.11,364.69,333.45,365Z"/><path class="cls-28" d="M294.52,446.82c-3.63,11.6-8.79,22.95-10.94,35s-3.4,24.13-5.24,36.14c-.54,3.56,3.85-.35,4.33-1.82,3.31-10.25,4.06-20.62,5.05-31.28,1.27-13.13,5.49-25.6,8.37-38.44C296.43,444.86,294.79,446,294.52,446.82Z"/><path class="cls-28" d="M152.58,610.91c-1.88-11.79,1.49-21.88,3.89-33.14.48-2.28-1.91-1-2.43.25-3.88,10-7.6,17.9-8,28.8-.47,11.35,2.54,23,5.12,33.9,1,4,6-2.28,5.63-4.79C155.71,627.53,153.9,619.27,152.58,610.91Z"/><path class="cls-28" d="M354.6,454.08c-.05-1.75-2,.23-2.08,1.15-1.8,22.91-3.35,44.73-12.51,66.09-1.45,3.35,1.95,3.83,3.4,1.1C354.78,501.25,355,477.53,354.6,454.08Z"/><path class="cls-28" d="M230.49,594.61c-3.9,7.36-7.46,12.65-9.58,21-2.69,10.59-2.61,21.34-1.28,32.12.41,3.22,4.83-1.86,4.68-4-.68-9.9-1.2-19.36.35-29.16,1.16-7.14,4.37-13,6.94-19.63C232.06,593.85,230.94,593.7,230.49,594.61Z"/><path class="cls-28" d="M293.44,595.32c-9.2,13.79-12.1,32-9.86,48.4.29,2.15,2.88-1.23,3-2.13.81-6.88.69-13.86,1.21-20.77.66-9,3.83-16.74,7.12-25C295.49,594.3,294.15,594.28,293.44,595.32Z"/><path class="cls-28" d="M131.52,669.78c-6.63,7.15-12.87,12.64-16.56,22.17-3.6,9.3-2.75,22.47-.12,31.84.92,3.26,4.74-1.83,4.47-3.77-1.39-10.6-3.82-23.39,1.5-33.36,3.13-5.92,7.86-10.55,11.48-16.06C132.83,669.78,132.29,669,131.52,669.78Z"/><path class="cls-28" d="M187.87,688.32C177.43,700.21,173,715.26,172.11,731c-.11,2.31,2.38.21,2.79-.73,2.9-6.74,3.61-14.17,5.1-21.3,1.55-7.5,5.9-13.08,9.34-19.7C190.05,687.87,188.78,687.27,187.87,688.32Z"/></g><g class="cls-51"><path class="cls-6" d="M116.27,759.81c-4.83,6.8-9.61,12.38-12.22,20.46a89,89,0,0,0-4,31.6c.14,3,3.37-.37,3.49-2a171.3,171.3,0,0,1,2.7-23.87c1.93-9.51,6.68-17.12,11.21-25.48C118.18,759.2,117.16,758.57,116.27,759.81Z"/><path class="cls-6" d="M158.87,763.34c-8.74,12-13.25,24.34-13.25,39.38,0,2.23,2.48,0,2.68-1.11,2.44-13.77,4-25.54,11.48-37.72C160.41,762.89,159.54,762.4,158.87,763.34Z"/><path class="cls-6" d="M195.64,762.38c-11.06,9.75-17.84,23.81-23.47,37.28-.79,1.86,1.08,2.11,1.88.62,7-12.94,13.14-25.2,21.94-37C196.26,762.89,196.34,761.75,195.64,762.38Z"/><path class="cls-6" d="M237.61,752.91c-12.06,15.18-23.51,30.63-38,43.68-.66.6-1.41,3.54.16,2.45,16.12-11.24,27.87-29.13,38.68-45.26C239,752.93,238.4,751.92,237.61,752.91Z"/><path class="cls-6" d="M104.25,829.72c-5.46,8.41-11,15.22-14.94,24.47-3.72,8.7-4,18.2-4.06,27.5,0,1.92,2.07-.28,2.2-1.24,1.35-9.94,2.09-19.4,6-28.86,3.1-7.57,8-14,11.94-21.19C106,829.19,105,828.58,104.25,829.72Z"/><path class="cls-6" d="M166.74,826.15c-7.32,8.49-13.17,17.35-16.31,28.19-.61,2,1.78.56,2.15-.6,3.23-9.83,8.58-18.77,14.49-27.22C167.34,826.15,167.07,825.76,166.74,826.15Z"/></g><g class="cls-51"><path class="cls-25" d="M214.78,804c-16.86,12.45-26,34.18-28.09,54.75-.27,2.82,3.19-.08,3.48-1.47a230.68,230.68,0,0,1,7.19-26.44c3.58-10.22,11.15-17.75,17.77-26C215.47,804.42,215.53,803.38,214.78,804Z"/><path class="cls-25" d="M150.29,892.51c-9.57,15-22.26,27.53-32.78,41.79-.71,1-.37,2.59.78,1.31,11.83-13.45,24-26.92,32.77-42.62C151.54,892.16,150.83,891.71,150.29,892.51Z"/><path class="cls-25" d="M184.29,892.51c-6.49,11-11.67,21.17-12.95,34-.17,1.71,1.84-.09,2.07-.86,1.41-5.24,2.32-10.53,3.86-15.72,1.8-6.05,5-11.58,7.91-17.15C185.66,891.92,184.7,891.8,184.29,892.51Z"/><path class="cls-25" d="M226.07,891.32c-7.89,10.35-12,22.69-13.57,35.58-.33,2.62,3.07.06,3.3-1.39,2-11.86,4.43-23,11.27-33.2C227.75,891.33,226.94,890.15,226.07,891.32Z"/><path class="cls-25" d="M231.13,818.13c-.15-.8-1.16.47-1.1,1a230.4,230.4,0,0,1,.06,39c-.12,1.42,1.6,0,1.74-.76C234.69,844.16,233.34,831.31,231.13,818.13Z"/><path class="cls-25" d="M267.34,887.36c-6.53,9.6-9.45,21.67-3.77,32.41.62,1.18,2.46-1.39,2-2.4-4.41-10.21-3.27-20.21,2-29.88C267.69,887.25,267.51,887.13,267.34,887.36Z"/></g><g class="cls-15"><path class="cls-52" d="M658,599.38c-18.54,19.76-31,22.49-31,22.49s-14-33.52-41.62-51.1-75.62-31.89-57.93-79.07c-13,21.92-15.62,21.87-15.62,21.87s-9.88-21.45,6.39-49c-13.86,17.64-16.62,21.33-16.62,21.33a75.74,75.74,0,0,1,6.42-37.81c-17.48,28.49-24.38,51.1,7.63,106.36-7.52-20.1-4.4-28.27-4.4-28.27s5.68,32.68,49,49.63,60.3,51.51,54,78.5c28.25-16.31,51.5-42.68,51.5-42.68s1.86,11.3-6.3,24.47c9.53-8.41,42.57-51.85,59.39-78.06.07-2.83.07-5.63-.08-8.54.48-.81.81-1.58,1.22-2.38C709.05,558.77,683.43,584.45,658,599.38Z"/></g><g class="cls-50"><path class="cls-20" d="M554.36,615c-.16-.54-.83.26-.8.56.43,7.5-4.54,15.64-8.48,22-3.5,5.66-9,9.79-14.5,13.39-2.8,1.86-5.94,11.61-.45,8.51,7.64-4.29,14.62-10.45,18.56-18.45C552.29,633.73,556.83,623.23,554.36,615Z"/><path class="cls-20" d="M545,662.69c-.19-1.07-1.47.47-1.55.91-1.35,6.46-8.62,10.36-13.47,14.13-1.31,1-2.57,5.84.25,4.27C536.88,678.28,546.39,671.53,545,662.69Z"/><path class="cls-20" d="M555.48,682c-3.08,8.26-9.18,14.07-15.66,19.75-.89.77-2.09,4.44.21,3.28,8.93-4.46,15.35-13.56,17.4-23.22C557.82,680,555.88,681,555.48,682Z"/><path class="cls-20" d="M579,658.79c-2.23,7.43-7.08,12.81-12.16,18.48-1.53,1.66-1.36,6.34,1.41,3.71a43.15,43.15,0,0,0,12.83-22.76C581.44,656.19,579.31,657.69,579,658.79Z"/><path class="cls-20" d="M589.91,675.64c-1.43,10.47-9.63,17.21-15.22,25.55-1.7,2.54-.85,7.25,2.67,4.26,9-7.47,16.34-20,15.51-31.9C592.71,671.44,590.06,674.71,589.91,675.64Z"/><path class="cls-20" d="M618.27,665.69c-3.73,8.59-9.34,14.82-15.95,21.27-1.32,1.28-3.56,7.35.33,5.42,10-5,15.81-16.87,19.12-27.07C622.81,662.11,619,663.92,618.27,665.69Z"/><path class="cls-20" d="M500.25,696.68c-5,10.63-15,15-24.3,21-1.26.83-4.08,6.81-.89,5.68,13.22-4.63,23.95-12.51,26.87-26.8C502.28,694.88,500.65,695.87,500.25,696.68Z"/><path class="cls-20" d="M502.9,728.47c-2.48,6.76-7.76,10.4-12.86,15.11-.72.68-3,5.63-.25,4.64,8.16-2.89,13.47-11.74,14.36-20.07C504.27,727.12,503.07,728,502.9,728.47Z"/><path class="cls-20" d="M526.38,750.87c-2.7,4.27-7.34,6.58-11.13,9.7a4.65,4.65,0,0,0-1.76,4c.31,1.5,1.8.94,2.63.28,4.77-3.63,9.45-7.86,11.89-13.46C528.72,749.74,527.14,749.66,526.38,750.87Z"/><path class="cls-20" d="M452.4,695.53c-2,6.31-11,7.83-16.35,10.35-1.8.86-4.6,7.46-1,6.47,8.51-2.31,18.6-8,20.16-17.59C455.69,691.93,452.87,694,452.4,695.53Z"/><path class="cls-20" d="M440.36,737.39c-.93,2-3.56,2.72-5.53,3.41a38.42,38.42,0,0,1-6.24,1.42c-2.67.48-5.24,7.59-1.67,6.77,6.69-1.53,14.52-4.26,16.09-11.89C443.55,734.54,441,736.06,440.36,737.39Z"/><path class="cls-20" d="M458.72,762.21c-2.37,3.38-6.11,5.26-9.68,7.16a4.41,4.41,0,0,0-2.13,3.43c-.06,1.13.87,1.88,1.9,1.18,4.42-3,8.81-6.06,11.5-10.76C461.37,761.39,459.9,760.51,458.72,762.21Z"/><path class="cls-20" d="M412,771.8a21.26,21.26,0,0,1-10.48,7.73,4.83,4.83,0,0,0-2.73,3.27c-.21.92,0,2.66,1.38,2.16a27.16,27.16,0,0,0,14-11.82C415.61,770.75,413.6,769.5,412,771.8Z"/><path class="cls-20" d="M368.87,800.08c-3,6.42-7.4,11.81-6.4,19.39.18,1.31,1.51,1.33,2.44.83a6,6,0,0,0,2.78-4.53c.35-3,.16-5.8,1-8.82.67-2.41,1.79-4.67,2.47-7.12C371.79,797.66,369.39,799,368.87,800.08Z"/><path class="cls-20" d="M381.24,764.52c-1,.84-2.41,1.13-3.42,2a18.66,18.66,0,0,0-3.63,4.37c-2.25,3.48-2.71,7.67-2.42,11.69.1,1.17,1.39,1.12,2.11.71a5.33,5.33,0,0,0,2.45-3.92,26.54,26.54,0,0,1,2.57-10c.37-.73,1.43-1.37,1.92-2.09A8,8,0,0,0,382,765C382.19,764.39,381.65,764.12,381.24,764.52Z"/><path class="cls-20" d="M495.47,660.33a33.49,33.49,0,0,1-6.26,8.89c-2.71,2.67-6.28,4.73-9.38,6.89-1.25.86-4.54,6.49-.91,5.84,10-1.8,16.17-12.6,19.37-21.36C499.42,657.49,496.5,658.34,495.47,660.33Z"/></g><g class="cls-12"><path class="cls-13" d="M468.78,454.52c-14-54.55-48.84-72.92-81.82-51.36-2.39-19.28-7.61-32.07-14.36-40.45,6.48,13.1,13.86,32.93,10.81,51.2,24.92-15.35,91.4-7.69,79.88,120.8-5.75-21.11-31.94-32.6-31.94-32.6s-10.88,57.5-58.17,71.56c45.37-10.22,56.87-22.37,56.87-22.37S402.24,647,317.43,661.69c33.19,8.63,49.16,0,49.16,0s-17.19,36.88-84.79,65.15c.31.34.62.62.93,1,3.59-1.13,7.94-2.59,12.66-4.58l.52.16c56.2-25.48,95.48-48.11,94.24-81.16C469.39,594,446.58,537,446.58,537a.28.28,0,0,0,.08.08c.89,1,13.13,15.39,10.69,39.86C483.37,552.79,482.73,509.06,468.78,454.52Z"/></g></g></g></svg>