<svg xmlns="http://www.w3.org/2000/svg" viewBox="0 0 859.46 548.94"><defs><style>.cls-1{isolation:isolate;}.cls-2,.cls-24,.cls-26,.cls-3{fill:#b5c5cd;}.cls-10,.cls-13,.cls-14,.cls-17,.cls-20,.cls-25,.cls-3,.cls-5,.cls-6,.cls-8,.cls-9{mix-blend-mode:multiply;}.cls-4,.cls-6,.cls-7{fill:#424c4f;}.cls-14,.cls-20,.cls-5{opacity:0.5;}.cls-17,.cls-26,.cls-7{opacity:0.6;}.cls-24,.cls-26,.cls-7{mix-blend-mode:screen;}.cls-10,.cls-14,.cls-15,.cls-8,.cls-9{fill:#6e7a7f;}.cls-8{opacity:0.3;}.cls-9{opacity:0.4;}.cls-10{opacity:0.2;}.cls-11{fill:#a9b8c0;}.cls-12{fill:#ff54ff;stroke:#86888a;stroke-miterlimit:10;opacity:0.7;}.cls-13,.cls-17{fill:#a8b7bf;}.cls-16{fill:#fff;}.cls-18{fill:#322a2e;}.cls-19,.cls-20,.cls-25{fill:#ede7cd;}.cls-21{fill:#a5b4bb;}.cls-22{fill:#fbbea9;}.cls-23{fill:#909ea4;}</style></defs><g class="cls-1"><g id="Layer_1" data-name="Layer 1"><path class="cls-2" d="M574.84,283.29a229,229,0,0,0,20.92,51.38,11.63,11.63,0,0,0,5.16,2c6.5.77,11.11-4.64,10.45-11-.42-4-2-7.58-3.77-11.14a238,238,0,0,1-16.26-26.61c-19.06-36.8-12-92.42-18.3-111.71s-18.81-17-18.81-17C581.64,181,556.29,214.51,574.84,283.29Z"/><path class="cls-3" d="M574.84,283.29a229,229,0,0,0,20.92,51.38,11.63,11.63,0,0,0,5.16,2c6.5.77,11.11-4.64,10.45-11-.42-4-2-7.59-3.78-11.14q-1.58-2.25-3.16-4.63a91.43,91.43,0,0,1-12.7-8.52c-5.48-4.6-8.31-11-10.35-17.73a176.15,176.15,0,0,1-7.32-43.81c-.6-15,.14-30-.87-45a77.5,77.5,0,0,0-5.3-23.85c-1.53-3.81-3.38-7.32-6.5-10-.39-.34-.78-.65-1.19-.95a12.51,12.51,0,0,0-6-.84C581.64,181,556.29,214.51,574.84,283.29Z"/><path class="cls-4" d="M541.86,128.91s-4.26,6.17,4.69,9,17.36,4.93,18.32,12.42a9.55,9.55,0,0,0-.36-5.91s10.61,7.5,3,20.78c-4.66,5.5-18.86,6.61-24.31-2.72,1.06.84,4.41.55,4.41.55S526.82,149.13,541.86,128.91Z"/><g class="cls-5"><path class="cls-6" d="M554.76,163s-.56,1.57-5.53.95c2.49,1.24,9,3.34,14.35-.14,7.76-5,3-15,3-15a7.43,7.43,0,0,1-3.44,4.43c.88-4.76-4-10.8-14.12-13.21-4-1-5.85-2.65-6.64-4.38a10.3,10.3,0,0,0,4.18,2.27c9,2.82,17.36,4.93,18.32,12.42a9.55,9.55,0,0,0-.36-5.91s10.61,7.5,3,20.78c-4.66,5.5-18.86,6.61-24.31-2.72,1.06.84,4.41.55,4.41.55s-16.07-10.75-9.73-27.1v0C533.24,154.43,554.76,163,554.76,163Z"/></g><path class="cls-7" d="M561,154.55s-.34-9.86-14.57-13.07C551.9,140.78,563.48,144.83,561,154.55Z"/><path class="cls-2" d="M343,254.2S416.73,136,425.88,37.06c0,0-.05-23.19,14.45-31.27s89.75.41,89.16,40-23.79,171.65-92.12,215S314.9,292.38,343,254.2Z"/><path class="cls-8" d="M440.33,5.79c-14.5,8.08-14.45,31.27-14.45,31.27a297,297,0,0,1-7,41.18c5-9.69,9.83-19.93,18.13-27.31,7-6.25,16.31-10.43,25.87-8.27,9.08,2.07,16.22,8.26,20.53,16.41s4.52,17.49,3.2,26.49a272.48,272.48,0,0,1-6.23,32c-4.86,17.81-12.4,35.9-22.86,51.22-9.81,14.33-22.94,25.31-40.37,28.57-14.77,2.77-31,1.25-45.63,5.07C355.89,233.59,343,254.2,343,254.2c-28.14,38.18,26,49.85,94.33,6.53s91.53-175.4,92.12-215S454.83-2.29,440.33,5.79Z"/><path class="cls-8" d="M440.33,5.79C428.81,12.21,426.47,28.15,426,34.44a16.66,16.66,0,0,0,.87,1.61c1.89,3.11,6.91,9.08,10.36,4.38,1.82-2.49,2.89-5.43,4.13-8.23a.76.76,0,0,1,1.29-.08c2.56,3.6,6.12,5.89,10.64,4.47,3.68-1.15,5.6-3.11,8.28-5.68,3-2.85,6-2.77,8.53.76,2.14,3,4.31,5.52,8,6.4a24.6,24.6,0,0,0,8.16.37c4.25-.4,8.64-1.34,12.83-.14,4.64,1.32,7,6.09,8.15,10.42a64.4,64.4,0,0,1,1.44,21.13,284.12,284.12,0,0,1-8.18,48.39c-5.71,22.27-15.11,42.69-25.53,63.07-5.31,10.41-10.05,21-15.13,31.54-4.27,8.84-9.05,17.44-13.76,26S436.4,256.28,431,264.64c2.11-1.25,4.23-2.55,6.38-3.91,68.33-43.31,91.53-175.4,92.12-215S454.83-2.29,440.33,5.79Z"/><path class="cls-2" d="M343.93,271.54s18.82-48.7,21.14-63.29,106.05-6.93,115.07,21.57S336.38,301.55,343.93,271.54Z"/><path class="cls-9" d="M480.14,229.82c-9-28.5-112.74-36.17-115.07-21.57s-21.14,63.29-21.14,63.29C336.38,301.55,489.15,258.32,480.14,229.82Zm-34-6.67c-4,1.89-8.34,2.86-12.52,4.19-9.62,3.07-19.65,6.08-28.91,10.14-8.06,3.53-28.69,14.75-31.58-.31a56.26,56.26,0,0,1-1.12-13,16.2,16.2,0,0,1,.1-7.77c2.27-8.2,10.51-10.36,18.13-10.76a133,133,0,0,1,34,2.13,68.3,68.3,0,0,1,15.41,4.84c2.58,1.22,8.67,3.48,9.26,6.83C449.21,221.29,447.64,222.44,446.15,223.15Z"/><path class="cls-2" d="M550.58,237.33c1.47-3.13,69.62-100.15,131.07-88.22S863.27,298.75,854,322.72s-58.56,62.72-80.13,56.5-74.07-91.29-95.88-96.67-29.68,110.3-70.68,96.82S502.71,339.88,550.58,237.33Z"/><path class="cls-8" d="M688.05,280.1c-2.87-3.41-6.38-8.6-10.74-10.27-5.18-2-9.92,2.48-13.21,6-6.64,7.05-11.29,15.51-16.69,23.48-2.87,4.24-8.43,14.4-14.87,12.93-3.26-.74-5.79-5-7.46-7.48-3-4.45-5.46-9.16-8.05-13.84-7.67-13.92-18.22-26.59-29.7-37.54-8.91-8.48-20.79-18.84-33.76-20.46-1.77,2.5-2.82,4.08-3,4.44-47.87,102.55,15.69,128.55,56.68,142s48.88-102.22,70.68-96.82c7.92,1.95,19.87,14.39,32.91,29.77A261.33,261.33,0,0,0,688.05,280.1Z"/><path class="cls-8" d="M825.43,267.59q1.7,3.29,3.42,6.59c2.9,5.47,7.39,12.71,5.54,19.16-.68,2.33-2.68,3.45-4.95,3.72-5.94.72-2.72,11.22-3,15.15a.73.73,0,0,1-.68.6c-14.24,1-.64,24.45-10.43,25.89-63.55,9.34-90.58-42.18-105.49-56.57a260.2,260.2,0,0,0-23.76-20.62c-4.5-3.36-9.26-7.15-15-8.07a20.35,20.35,0,0,0-14.75,3.35,63.85,63.85,0,0,0-7.83,6.35c-1.57,2.51-3.12,5-4.63,7.5-3.18,5.21-6.39,10.76-10.65,15.18-1.88,1.95-5.25,5.23-8.1,3.07-4.45-3.37-7.15-9.67-9.8-14.43-3.53-6.34-6.81-12-12-17.2A114,114,0,0,0,591,246.5c-3.74-2.8-7.74-4.69-11.62-7.17-5.87-3.77-7-8.78-4.46-15.14,6.24-16,18.22-30.55,30.13-42.61a177.77,177.77,0,0,1,24.63-21.07c-42.61,24-78,74.57-79,76.82-47.87,102.55,15.69,128.55,56.68,142s48.88-102.22,70.68-96.82,74.31,90.44,95.88,96.67,70.8-32.54,80.13-56.5C857.15,314.5,845.1,292.89,825.43,267.59Z"/><path class="cls-2" d="M452.32,446.31S530.77,530.84,662,504.06s160-42,164.84-48.92-12.7-109.55-66.72-97.52-82.77,37.53-110.53,30.61S585,355.54,585,355.54Z"/><path class="cls-8" d="M760.13,357.62c-54,12-82.77,37.53-110.53,30.61S585,355.54,585,355.54L452.32,446.31S530.77,530.84,662,504.06s160-42,164.84-48.92S814.15,345.59,760.13,357.62Zm0,97.25c-7,6.31-15.28,11.19-23.48,15.78a216.43,216.43,0,0,1-57.19,21.66,265.47,265.47,0,0,1-60.9,6.74c-4.89,0-38.71,1.05-27.91-11.41,6.69-7.68,15.94-13.42,23.84-19.79,2.1-1.68,4.16-3.4,6.16-5.17a101.69,101.69,0,0,0,10.53-15.28c7.54-13.1,16-25.54,31.61-29.1,5-1.12,10.11-1.12,15.15-1.57a107.29,107.29,0,0,0,18-2.83c10.95-2.95,20.36-8.68,30.07-14.32,6.82-4,13.65-7.53,21.41-9.25,5.06-1.11,11.73-1.47,15.81,2.39a13.56,13.56,0,0,1,4.2,7.72c.52,4-.88,7.76-1.21,11.74-.2,2.2-1.26,5-.56,7.2a38.6,38.6,0,0,0,2.21,4.58c1.49,3.15,3.54,6.58,3.85,10.14C772.44,442,765.59,449.93,760.12,454.87Z"/><path class="cls-10" d="M760.13,357.62c-54,12-82.77,37.53-110.53,30.61S585,355.54,585,355.54L452.32,446.31s31.05,33.44,86.73,51.58a122.32,122.32,0,0,0,61.14-27.73,153.26,153.26,0,0,0,29.49-33.9c6-9.29,10.1-21.46,22.05-24.11,8.62-1.92,17.7-1.51,26.42-3,10.9-1.86,22.39-4.58,32.33-9.58,11.61-5.86,22.14-13.72,34.51-18.11,10.63-3.78,23.74-4.87,29.72,6.8,3.79,7.36.14,14.3-1.55,21.67-1.1,4.79-1.49,11.64,3.89,14.1,3.37,1.54,7.16,1.63,10.72,2.48a.73.73,0,0,1,.51,1.05c-2,4.18-4.52,8.41-5.48,13-1.42,6.78,3.15,8.65,9.28,8.34a.75.75,0,0,1,.61,1.23c-5,5.64-12.78,13.31-4.5,20.13a15.09,15.09,0,0,0,3.53,2c24.27-8,32.7-13.57,35.13-17.06C831.7,448.22,814.15,345.59,760.13,357.62Z"/><path class="cls-11" d="M618.27,294.22c-24.51-65.67-111.7-80.8-188.9-51.14s-108.86,32.4-108.86,32.4l-95.64,93.83S259.8,515.47,433.24,507C630,497.47,660.68,407.88,618.27,294.22Z"/><path class="cls-8" d="M618.27,294.22c-13.44-36-45.74-56.83-84.9-63.39l2.18.62a108.71,108.71,0,0,1,26,12.25c16.33,10.17,38.31,20,42.49,39,40.79,185.45-238.6,184.74-237.4,172.17a187.23,187.23,0,0,1,4.14-22.9,225.87,225.87,0,0,0,5.35-32.48,231.8,231.8,0,0,0,.42-35.35c-.42-5.51-1-11.24-.26-16.71-6.9,15.7-10,32.8-13.51,49.58-4.05,19.5-9.42,39.08-19,56.7a84.88,84.88,0,0,1-27.1,30C346,499.36,384,509.44,433.24,507,630,497.47,660.68,407.88,618.27,294.22Z"/><path class="cls-8" d="M632.49,345.84c1,26.07-4,52.44-18,74.68-17.12,27.2-44.54,45.68-74.13,57.12a262.8,262.8,0,0,1-47.43,13.2c-21.94,4-44.3,7.34-66.63,7.68-23.8.37-47.73-2.44-71.3-5.49-12.78-1.67-26.75-3.11-38-9.52l-.29.22C346,499.36,384,509.44,433.24,507,599.05,499,646.92,434.07,632.49,345.84Z"/><path class="cls-9" d="M334.18,481.58c15.63-16.52,22.44-40.71,27.82-62.22,5.88-23.54,9.55-47.52,14.54-71.25,1.72-8.21,3.47-16.62,6.61-24.42,6.9-17.11,18.07-32.74,30.8-46a173.9,173.9,0,0,1,19.83-18.06c6.52-4.92,13.39-9.33,20.11-14a141.85,141.85,0,0,0,18.2-14.34,221.74,221.74,0,0,0-42.72,11.71c-77.2,29.65-108.86,32.4-108.86,32.4l-95.64,93.83s19.41,81.1,101,119A39.6,39.6,0,0,0,334.18,481.58Z"/><path class="cls-9" d="M325.37,486.51a110.34,110.34,0,0,0,1.54-48.21,166.12,166.12,0,0,0-10-33.62c-3.34-8.11-7.64-15.82-10.79-24-2-5.19-3-10.37-1.16-15.75,2.35-7.06,8.19-12.54,13.25-17.71,12.27-12.57,23.93-26.17,32.71-41.45,7-12.14,12.62-26,12.26-40.07-29.68,8.63-42.71,9.77-42.71,9.77l-95.64,93.83S244.14,449.82,325,487.88C325.12,487.42,325.26,487,325.37,486.51Z"/><path class="cls-12" d="M299.42,306a86.73,86.73,0,0,1-7.6-7.12c-.67-.76-1.89,1.71-1.84,2.21.71,7.4,3.44,14.42,4.39,21.78.22,1.74,2.84-1.28,2.72-2.46-.76-5.94-2.91-11.54-4.3-17.33,2,1.32,3.88,2.77,5.81,4.19C299,307.57,299.8,306.34,299.42,306Z"/><path class="cls-2" d="M133.81,132.13a78.89,78.89,0,0,0-18.52,18.08c-6.26,8.43-13.92,20.62-16.11,31A67.8,67.8,0,0,0,99.63,209c10.85,50.13,38.25,164.88,129.27,167.91S413.82,237.36,340.66,183.22c-28.8-21.32-60.15-41.62-93.92-54C210.38,115.9,165.93,109.9,133.81,132.13Z"/><path class="cls-9" d="M340.66,183.22c-28.8-21.32-60.15-41.62-93.92-54-36.36-13.32-80.81-19.32-112.93,2.91a78.89,78.89,0,0,0-18.52,18.08c-6.26,8.43-13.92,20.62-16.11,31A67.8,67.8,0,0,0,99.63,209c10.85,50.13,38.25,164.88,129.27,167.91S413.82,237.36,340.66,183.22Zm-179.51,118c-.72,4.48-1,9-2.57,13.3a.73.73,0,0,1-1,.33c-14.29-7.06-22.87-22.75-29.59-36.49a196,196,0,0,1-17.59-56c-2.82-17.79-4.25-35.7,2.14-52.94a68,68,0,0,1,31.49-36.58,1,1,0,0,1,.36-.09c30.32-19.49,73.52-17.38,103.82,2.42,10.22,6.67,23.3,18.44,18.62,32.22-2.78,8.17-9.39,13.84-16.25,18.67C241.7,192.39,232.47,198,224,205c-17.09,14-32.6,30.76-43.75,49.94a206.54,206.54,0,0,0-13.75,29.27C164.39,289.64,162.07,295.41,161.15,301.25Zm136,43.63c-5.05.53-10.11-1.11-12.89-5.59-2-3.16-4.77-8.31-2.73-12a.74.74,0,0,1,1.14-.22.15.15,0,0,1,.07.07.61.61,0,0,1,.81.27c3.46,5.72,12.19,8.32,17.94,4.39,4.14-2.84,6.31-7.45,9.3-11.36a.74.74,0,0,1,1.25.23C315.36,330.85,308.36,343.68,297.2,344.88Zm25.62-72c-6.17,5.4-14.31,7.83-21.57,11.39-10.06,4.95-16.85,13.6-25.3,20.69-7.87,6.59-16.36,9.53-26.25,8.69,5.1,2.87,11.11,4,15.79,7.54,6.42,4.87,4.05,13.28,7.45,19.77a.76.76,0,0,1-.19,1c-6.16,4.38-11.82,9-19,11.68a52.51,52.51,0,0,1-18.2,3.6c-32.2,0-56.2-30.74-56.44-61.49-.27-32.55,20.8-63.65,46.66-83.09,2.85-3.1,6.17-6.11,10-7.38,3.23-1.08,8.47-.48,9.56,3.55.93,3.48-.1,7.09.71,10.55a70.13,70.13,0,0,0,4.72,14.51c11.8,24.89,55.83,42.55,75.47,16.84a.75.75,0,0,1,1.26.24C329.72,258.91,329.37,267.14,322.82,272.87Z"/><path class="cls-9" d="M340.66,183.22c-22.89-16.95-47.39-33.23-73.43-45.41a80.94,80.94,0,0,1,9.21,10.41c3.83,5.25,7.4,11.66,6.83,18.4-.53,6.32-4.32,11.19-9,15,9.19-2.82,18.76-6.11,28.35-5.64,10.59.51,19.93,5.62,27.73,12.59,26.32,23.54,27.1,61.57,16.6,93-5,14.87-10.3,29.77-17.88,43.52C368.42,279.58,384.41,215.59,340.66,183.22Z"/><path class="cls-9" d="M193.19,349.92c-5.16-9.07-14.14-16.49-22.45-22.62a206.8,206.8,0,0,0-27.77-17c-3.18-1.66-6.36-3.32-9.65-4.74-.62-.27-1.47-.68-2.41-1.1,14.56,28.35,35.14,53.82,64.63,65.6C197.94,363.63,196.75,356.18,193.19,349.92Z"/><path class="cls-13" d="M187.81,260.41c.12-.22.27-.45.41-.67,6.25-12.36,14.1-24,24.05-33.83a154.35,154.35,0,0,1,44.63-30.58A162.75,162.75,0,0,1,283.83,186c5.57-1.41,11.34-1.63,17.07-2.05,3.63-.71,7.27-1.38,10.91-2l1.93-.37c.42-.57.72-1.35.14-1.4-9.15-.85-19.72.21-28.75,1.84a149.63,149.63,0,0,0-29.43,8.47c-17.85,7.21-34,19.18-47.16,32.93s-22.71,30.09-29.84,47.43a104.34,104.34,0,0,0-6.57,23.94A162.86,162.86,0,0,1,187.81,260.41Z"/><path class="cls-2" d="M244.72,368.48s-35.1-.78-52,25.19-13.43,21.43-10.54,3.77C185.51,377,193,362.07,189.24,352s-77.48-82.27-88.36-27.7-14.33,217.37,34,223.78,91.7-25.93,183.65-64.71C318.48,483.41,294.68,396.57,244.72,368.48Z"/><path class="cls-9" d="M244.72,368.48s-35.1-.78-52,25.19-13.43,21.43-10.54,3.77C185.51,377,193,362.07,189.24,352s-77.48-82.27-88.36-27.7c-1.39,7-2.65,15.64-3.7,25.53.12-.28.24-.56.37-.83,2.87-6.22,7.64-11.49,15.08-9.22s13.85,7.24,19.25,12.8c12.78,13.14,22.68,28.52,26.74,46.55A270,270,0,0,1,163,428.32c1.17,10.49,2.9,20.88,4.31,31.33,2.78,20.67,3.87,42.22-4.57,61.82-3.33,7.73-8.48,15.37-16.37,19a34.77,34.77,0,0,1-24.12,1.66,23.48,23.48,0,0,0,12.57,6c48.27,6.43,91.7-25.93,183.65-64.71C318.48,483.41,294.68,396.57,244.72,368.48ZM232.33,503.89C224,510,208.94,515,200.51,506.26c-5.66-5.87-7.86-15.44-9.48-23.15-.44-2.09-.82-4.18-1.19-6.27a110.78,110.78,0,0,1-5.45-22.06c-.59-4.61-1.45-12.37,3.14-15.46,5.43-3.64,13.54,1.1,18.35,3.74C224.47,453.28,259.9,483.76,232.33,503.89Z"/><path class="cls-9" d="M176.29,347c1.69,6.79.59,13-1.71,19.53A94.3,94.3,0,0,0,168.86,394c-.86,19.31,4.93,37.19,9,55.8,3.76,16.95,3,34.4,5.61,51.5,1.85-10.66,1.69-21.54.84-32.32-.75-9.58-1.58-19.24-3.14-28.71-.79-4.83-2.29-12.77,2.68-15.94,2.16-1.37,5.49-.89,7.85-.51a70.76,70.76,0,0,1,10.06,2.5,58.14,58.14,0,0,1,19.63,11.4c7,5.93,13.14,12.68,19.68,19.07s13.49,11.53,20.69,16.88c10.74,8,22.91,16.75,36.13,18.66,6.58-2.93,13.39-5.89,20.54-8.91,0,0-23.8-86.84-73.76-114.93,0,0-35.1-.78-52,25.19s-13.43,21.43-10.54,3.77C185.51,377,193,362.07,189.24,352c-1.42-3.79-12.79-16.42-27-27.74C168.55,331,174.13,338.4,176.29,347Z"/><path class="cls-2" d="M248.55,366.59s-41.17-2.43-55.64,20.11-19.47,31.86-9,30.49,36.14-.27,60,29.66,68.88,49.51,78.41,39.75S323.92,373.55,248.55,366.59Z"/><path class="cls-14" d="M248.55,366.59s-41.17-2.43-55.64,20.11-19.47,31.86-9,30.49,36.14-.27,60,29.66,68.88,49.51,78.41,39.75S323.92,373.55,248.55,366.59Zm22.95,88c-12.55-4.65-21.86-16-31.32-25-5.21-4.95-10.59-9.42-17.43-11.95-9.45-3.5-19.43-3.44-29.19-5.44-17-3.51.69-24.44,7.55-29.8,13.17-10.32,31.17-13.41,47.36-9.47,17.48,4.26,30.44,16.32,38.36,32.25C287.27,406,282.8,458.73,271.5,454.54Z"/><path class="cls-15" d="M333.69,266c-.43,15.07-29.42,19.15-38.76,27.23-4.07,3.54-6.81,8.79-10.35,12.81-5.49,6.23-15.93,10.3-24.08,8.29-.16,0-.47.42-.3.49,5.58,2.87,10.41,2.48,14.75.36,7.16,1.86,8.09,12.49,15,14.63,6.19,1.91,11.77-.8,15.77-5.58,4.2-5,4.66-12.94,5.47-19.06,1-7.24,3.41-12.52,7.71-18.41,1.73-2.37,3.94-4.33,5.47-6.81,5-3.19,8.81-7.43,9.3-13.95a1.07,1.07,0,0,0,.09-.43l0-.48C333.66,263.78,333.7,265.23,333.69,266Z"/><path class="cls-16" d="M312.64,292.73c-3.43,5.55-3.94,12.93-4.71,19.21-.91,7.58-4.72,14.88-12.84,15.46-4.63.32-7.89-3.44-10-7-1.22-2-4-5.77-6.87-7.24,8.19-5.8,14.72-17,21.75-21.66,6.19-4.13,15.93-6.57,23.37-10.94C320,284.73,315.51,288.09,312.64,292.73Z"/><path class="cls-15" d="M315.18,329.4c-3.37,10.13-8.83,16.51-19.93,16.6-6.67.05-13.5-4.47-17.13-10-.14-.23-.51.32-.44.51,3.83,10.87,14.4,14.42,24.83,11.1,8.19-2.6,12.33-10.88,13.7-18.72C316.36,328.07,315.29,329.06,315.18,329.4Z"/><path class="cls-17" d="M256.49,188.69a.75.75,0,0,1-1-.75c-.07-5.82-2.54-15.56-8.73-17.81-8.93-3.23-12.14,6.37-10.87,13.24a30.37,30.37,0,0,0,3,8.89c1,2,3.54,3.71,4,5.87s-3.08,4.37-4.27,5.8l-.06.07.75-.53c3.36-2.34,6.6-4.86,10.09-7a78.83,78.83,0,0,1,19.06-8.58C264.42,187.16,260.31,187,256.49,188.69Z"/><path class="cls-18" d="M250.49,182.78c2.23,5.78,1.57,11.41-1.5,12.61s-7.34-2.55-9.58-8.32-1.57-11.41,1.49-12.6S248.26,177,250.49,182.78Z"/><path class="cls-16" d="M243.1,180.64c.59,1.5.3,3-.64,3.35s-2.13-.55-2.71-2.05-.29-3,.63-3.34S242.53,179.16,243.1,180.64Z"/><path class="cls-17" d="M222.77,151.61c2.9-2.4,6.65-4.59,10.45-5.08,3.53-.46,6.72.45,10.11,1.07-5.61-9.08-18.69-18.16-26.54-6.21-5.31,8.1-8.69,23.3-.14,30.25C215.86,164.51,217,156.41,222.77,151.61Z"/><path class="cls-4" d="M214.17,163.31a28.62,28.62,0,0,1,3-7.35c1.87-3.45,4.11-6.6,7.73-8.35a21.45,21.45,0,0,1,12.62-1.87,7.65,7.65,0,0,0-1.41-3.06c-2.35-2.69-4.25-4.09-7.86-4.16-3.8-.09-8.14,3.86-10,6.79a28.12,28.12,0,0,0-4.18,18.48C214.12,163.63,214.14,163.47,214.17,163.31Z"/><path class="cls-17" d="M188.49,245.56a.74.74,0,0,1-1.26-.19c-2.74-5.14-9.4-12.66-15.94-11.8-9.41,1.22-7.85,11.24-3.57,16.74a30.52,30.52,0,0,0,6.73,6.55c1.83,1.23,4.84,1.65,6.28,3.34s-.73,5.29-1.13,7.12c0,0,0,.06,0,.09l.42-.83c1.91-3.61,3.63-7.34,5.74-10.85a79.93,79.93,0,0,1,13-16.37C194.83,240.56,191.12,242.29,188.49,245.56Z"/><path class="cls-18" d="M180.46,243.05c4.63,4.12,6.63,9.43,4.46,11.89s-7.7,1.13-12.34-3-6.64-9.42-4.46-11.88S175.82,239,180.46,243.05Z"/><path class="cls-16" d="M172.91,244.57c1.19,1.05,1.63,2.52,1,3.26s-2.16.49-3.36-.57-1.63-2.52-1-3.26S171.72,243.51,172.91,244.57Z"/><path class="cls-17" d="M150,216.52c1.47-3.46,3.8-7.13,6.94-9.32,2.92-2,6.19-2.68,9.48-3.68-9.16-5.49-25-7.55-26.43,6.67-1,9.64,3,24.69,13.78,26.93C149.81,231.15,147.1,223.44,150,216.52Z"/><path class="cls-4" d="M147.75,230.86A28.65,28.65,0,0,1,147,223c.09-3.92.63-7.74,3-11a21.39,21.39,0,0,1,10.34-7.46,7.68,7.68,0,0,0-2.66-2.07c-3.32-1.3-5.65-1.67-8.9-.07-3.41,1.66-5.44,7.17-5.72,10.61a28.25,28.25,0,0,0,4.78,18.33C147.84,231.18,147.79,231,147.75,230.86Z"/><path class="cls-19" d="M258.89,200.71s16.8-38,9.84-86.7S369,151.33,333.56,228.37,246.87,214.53,258.89,200.71Z"/><path class="cls-20" d="M268.73,114c7,48.67-9.84,86.7-9.84,86.7-12,13.82,39.28,104.7,74.67,27.66S261.78,65.34,268.73,114Zm35,116.43c-4,4.68-9.66,9.75-16.25,9.58s-12.19-4.35-15.79-9.69c-3.88-5.75-6.73-12.93-6.76-20-.07-9.11,3.95-16.87,7-25.22,4.75-13.05,5.67-26.88,4.95-40.68-.14-1.23-.29-2.44-.5-3.65-.82-5-2.24-9.86-2.85-14.9a23.62,23.62,0,0,1-.24-6.6,9.78,9.78,0,0,1-.36-2.06c-.11-2.5,2-5.19,4.76-4.5,4.35,1.09,8.75,4.58,12,7.55,8.19,7.51,14,17.32,18.08,27.59A126.78,126.78,0,0,1,316.62,184C318,200.73,314.9,217.38,303.73,230.44Z"/><path class="cls-20" d="M328.27,148.28c1,3.19,1.81,6.43,2.48,9.71,3.33,16.24,3.66,33.51-.8,49.58-4,14.35-11.91,30.4-25.18,38.28-8.42,5-17.66,6.07-25.91,3.14,15.71,14.49,37.16,17.58,54.7-20.62C346.32,200.59,340.54,171.65,328.27,148.28Z"/><path class="cls-13" d="M181.3,415.31c.17-.63-.74,0-.85.31-11,29.2,7,58.1,2.06,87.7-.11.67,1.12-.22,1.22-.57C192,473.55,173.48,444.61,181.3,415.31Z"/><path class="cls-21" d="M110,199.27c1.42,4.54,1.8,10.61-3.57,13.22-3.62,1.76-7.7,2.17-11.36,3.84-5,2.26-10.06,4.72-15.34,6.19A52.92,52.92,0,0,1,40,217.7C26.94,210.61,20,199.9,13.87,187,12.34,183.82-2,155.49.23,154.42c.8-.39,1.6-.74,2.42-1.06a62.8,62.8,0,0,1,41.08-1.72c14.45,4.38,23.41,12,32.49,23.06,4.77,5.82,12,12.93,19.76,15.06a72.06,72.06,0,0,0,8.83,1.35A18.6,18.6,0,0,1,110,199.27Z"/><path class="cls-22" d="M81.85,212.68a50.55,50.55,0,0,1-15.19.7C60.82,212.81,55.13,212,50,209c-8.9-5.29-14.34-14.4-18.78-23.47-5-10.2-10.32-20.45-18.51-28.51A70.76,70.76,0,0,0,7,151.84a62.72,62.72,0,0,1,36.7-.2c14.45,4.38,23.41,12,32.49,23.06,4.77,5.82,12,12.93,19.76,15.06a72.18,72.18,0,0,0,8.61,1.34c-.57,7.21-8,13.11-13.51,16.75A44.82,44.82,0,0,1,81.85,212.68Z"/><path class="cls-21" d="M88.54,200.17c-11.21-2.66-21.28-17.83-29.64-25.27a76.66,76.66,0,0,0-28.84-16.11c-9.49-2.91-20.63-4.91-29.88-4.32,0,0,0-.05.05-.05.8-.39,1.6-.74,2.42-1.06a62.8,62.8,0,0,1,41.08-1.72c14.45,4.38,23.41,12,32.49,23.06,4.77,5.82,12,12.93,19.76,15.06a72.06,72.06,0,0,0,8.83,1.35,18.68,18.68,0,0,1,4,5.33C107.24,196.51,101.91,203.36,88.54,200.17Z"/><path class="cls-9" d="M48,213.89a87.08,87.08,0,0,0,20-2.11c3.93-.94,7.72-2.19,11.54-3.5,2.28-.77,4.45-1.55,6.11-3.38a.77.77,0,0,0-.19-1.2c-22.88-15.36-42.78-40.34-71.74-43.87-3.73-.45-10-1.26-10.94,3.6-2-4.7-3.23-8.39-2.59-9h0s0-.05.05-.05c.8-.39,1.6-.74,2.42-1.06,1.07-.43,2.16-.82,3.25-1.18a.78.78,0,0,0,.71.55c12.44,1.08,25.05-1.49,36.73,4.18,9.37,4.55,16.4,11.82,23.13,19.57,8.29,9.53,21.36,25,35.77,19.75a.79.79,0,0,0,.34-1.31c-2.32-2.47-5.66-3.3-8.17-5.49l-.33-.3c.63.23,1.26.45,1.9.63a3.4,3.4,0,0,0,.46.1L97,190l.12,0c1.33.25,3.53.62,5.81.89a.74.74,0,0,0,.25,0l1,.11.66.06a18.06,18.06,0,0,1,1.48,1.55c.15.17.29.34.43.53.33.4.64.83.93,1.26l.37.53c.29.47.56,1,.81,1.46h0a17.59,17.59,0,0,1,1.18,2.83c1.42,4.54,1.8,10.61-3.57,13.22-3.62,1.76-7.7,2.17-11.36,3.84-5,2.26-10.06,4.72-15.34,6.19A52.92,52.92,0,0,1,40,217.7a50.5,50.5,0,0,1-9-6.25A53.74,53.74,0,0,0,48,213.89Z"/><path class="cls-23" d="M187.25,126.62c.76,0,2.24-.27,2.65-1.06,1.49-2.84,1.49-6.11,3.07-9,1.47-2.62,4.05.11,6.45-1.68,14.69-10.91,20.69-29.76,22-35.5,6-25.73-23.77-44.33-46-46-3.69-.28-8.65-1.24-12.19.5-.15.07-.43.19-.43.43.06,1.57,1.39,3,2.12,4.35,6.38,11.88,9.88,28.06,10.51,41.45.47,10-1.57,20-2.18,30a26,26,0,0,0,.41,3.92C172.12,121.44,180,126.83,187.25,126.62Z"/><path class="cls-22" d="M173.74,114.08a26,26,0,0,1-.41-3.92c.61-10,2.65-19.93,2.18-30-.56-12.12-3.51-26.53-8.79-38,14.22,2.27,27.26,9,35.81,21,.65.89,1.28,1.84,1.88,2.78a46.26,46.26,0,0,1,6.06,17.3,28.22,28.22,0,0,1-2.83,17c-.55,1-1.16,2-1.8,3a84.85,84.85,0,0,0-7.41,6.48,32.92,32.92,0,0,0-5.46,6.82c-.09.18-.17.37-.25.55-3.3,2.9-6.61,5.81-9.58,9C177.37,124.71,172.42,120.05,173.74,114.08Z"/><path class="cls-21" d="M163.3,34c.52.3,1,.61,1.58.94,10.2,6.6,17.18,17.46,22.22,28.29,4.89,10.54,8.74,22.13,7.48,33.91-1,9.42-6.75,19.53-8.94,29.47-6.74-.56-13.4-5.67-11.9-12.49a26,26,0,0,1-.41-3.92c.61-10,2.65-19.93,2.18-30-.63-13.39-4.13-29.57-10.51-41.45-.73-1.34-2.06-2.78-2.12-4.35C162.88,34.15,163.12,34.05,163.3,34Z"/><path class="cls-9" d="M174.16,119.2c.06.15.14.29.21.44s.11.24.17.35l.12.23a2,2,0,0,0,.18.29,1.11,1.11,0,0,0,.11.16l.15.25c.07.09.13.19.19.28s.18.22.27.33a6.69,6.69,0,0,0,.5.58c.09.11.19.21.29.31l.23.23a1.14,1.14,0,0,1,.11.11l.28.24.26.23.23.18.19.15.53.38a1.24,1.24,0,0,0,.27.17l.19.13c.19.12.37.24.58.36s.22.12.34.18a.24.24,0,0,1,.11.06l.66.32.46.21.75.3.43.15c.38.12.76.24,1.17.34h0a16.57,16.57,0,0,0,2.44.41h.06a14.51,14.51,0,0,0,1.61.05c.76,0,2.24-.27,2.65-1.06,1.49-2.84,1.49-6.11,3.07-9,1.47-2.62,4.05.11,6.45-1.68,14.69-10.91,20.69-29.76,22-35.5,2.76-11.77-2-22-10.07-29.88,5.82,8.87,9.24,18.69,7.19,30a22.91,22.91,0,0,1-8.94,14.62c-1.28.93-9,6.06-10.24,3-1-2.53-.39-6.11-.64-8.81a65.92,65.92,0,0,0-2.93-13.68,81,81,0,0,0-12.39-23.85c-5.22-7-11.15-12.85-19.25-16.36-.38-.16-.74-.28-1.12-.44l0,0a.32.32,0,0,0-.16.27c.06,1.57,1.39,3,2.12,4.35.6,1.12,1.17,2.28,1.72,3.49h0a94.64,94.64,0,0,1,6.15,18.65l0,.12q.53,2.31.93,4.62l.09.49q.39,2.19.69,4.38c0,.21.05.42.08.63.19,1.43.36,2.86.49,4.26,0,.18,0,.35,0,.51.13,1.47.23,2.9.3,4.3.47,10-1.57,20-2.18,30a26,26,0,0,0,.41,3.92,7.14,7.14,0,0,0-.18,1.19.49.49,0,0,0,0,.12c0,.11,0,.21,0,.33s0,.46,0,.69a2,2,0,0,1,0,.24c0,.11,0,.21,0,.32s0,.37.08.55a2.9,2.9,0,0,0,.07.34l.06.26c0,.16.09.32.15.48a3.73,3.73,0,0,0,.14.4h0A.93.93,0,0,0,174.16,119.2Zm8.46-41.36a131.12,131.12,0,0,0-9-29.48c-.28-.69.69-1.42,1.22-.86a47,47,0,0,1,9.2,14.79,77.55,77.55,0,0,1,5.56,15.85c1.49,6.41,3.45,14.24.52,20.5a.79.79,0,0,1-1.34.12C184.23,92.93,183.77,84.88,182.62,77.84Z"/><path class="cls-24" d="M180.84,37.15c18.5.91,36.26,13.71,37.07,33.41,0,.41-.95-.11-1-.37C212.2,52.26,199.33,41,181.15,37.62,181,37.59,180.42,37.12,180.84,37.15Z"/><path class="cls-19" d="M116.23,301.86c-8.47-1.46-19.44,17.64-13.34,24.19s22.26-9.72,25-16C130.57,304,124.7,303.33,116.23,301.86Z"/><path class="cls-20" d="M119.42,302.41c4.19,3.13,1.59,9.94-1.83,14-2.68,3.23-5.89,6.62-10.4,6.45a5.84,5.84,0,0,1-5-3.85,13.07,13.07,0,0,1-.52-2.2c-.94,3.63-.77,7.07,1.21,9.19,6.11,6.53,22.26-9.72,25-16C130.22,304.78,126.09,303.6,119.42,302.41Z"/><path class="cls-19" d="M135.31,307c-8.47-1.45-18.76,20-12.66,26.52s22.27-9.71,25-16C150.33,311.44,143.78,308.44,135.31,307Z"/><path class="cls-20" d="M141.22,308.4a4.44,4.44,0,0,1,.8,1.19c2,4.51-2.07,10.38-5,13.55s-7.52,7.47-12.24,6.34c-2.46-.59-3.41-3-3.55-5.45-.77,3.85-.49,7.41,1.44,9.47,6.11,6.53,22.27-9.71,25-16C149.66,313,146.49,310.14,141.22,308.4Z"/><path class="cls-19" d="M156.57,318c-6.44-2.87-19,12.09-15.45,18.53s19.69-3.21,23.15-7.67C167.62,324.6,163,320.89,156.57,318Z"/><path class="cls-20" d="M158.9,319.12c4.23,5.06-3.46,12.32-9.34,14.57-3.42,1.33-7.73,1-7.67-3.55a7.56,7.56,0,0,1,.28-2c-1.6,3.08-2.24,6.21-1,8.37,3.54,6.43,19.69-3.21,23.15-7.67C167.2,325.13,164,321.83,158.9,319.12Z"/><path class="cls-19" d="M449.34,32.28c8.57.53,25.1-22.9,18.33-28.75S443-.5,440.89,6C438.89,12.35,440.76,31.73,449.34,32.28Z"/><path class="cls-19" d="M477.72,32.15c7.9.5,23.08-18,16.84-23.36S471.81,1.91,469.92,8C468.07,13.78,469.8,31.66,477.72,32.15Z"/><path class="cls-19" d="M433.49,37.49c4.76-2.78,9.82-29.23,4.13-29.94s-13.05,10.3-11.8,14.53S428.72,40.27,433.49,37.49Z"/><path class="cls-20" d="M467.67,3.53c-3.56-3.07-10.21-4-16-3.29a12.85,12.85,0,0,1,2.8.54c4.95,1.55,6.83,5.09,6.37,10.16-.62,6.7-2.62,15.32-8.17,19.8a6.71,6.71,0,0,1-3.45,1.52l.14,0C457.91,32.81,474.44,9.38,467.67,3.53Z"/><path class="cls-20" d="M494.56,8.79c-3.15-2.72-8.92-4.45-14.1-4.7A16.13,16.13,0,0,1,486,7.9c3.9,4.07,2.57,10.94-.17,15.21-2,3-6.15,9.53-10.56,8.07-.22-.08-.45-.19-.68-.3a5.3,5.3,0,0,0,3.11,1.27C485.62,32.65,500.8,14.17,494.56,8.79Z"/><path class="cls-20" d="M437.62,7.55c-2.67-.31-5.69,1.93-8,4.84l.22-.18c3.79-2.89,6.08.62,6.79,4.38a36.35,36.35,0,0,1-.44,13.35c-.44,2.35-1,5-3,6.51a6.39,6.39,0,0,1-1.9,1.09,2,2,0,0,0,2.21,0C438.25,34.71,443.31,8.26,437.62,7.55Z"/><path class="cls-19" d="M800.19,464.09c4.3,7.44,33,8.25,34.1-.61s-10.3-22.84-16.9-20.94C811,444.36,795.92,456.64,800.19,464.09Z"/><path class="cls-25" d="M817.39,442.54c-6.36,1.82-21.47,14.1-17.2,21.55,1.82,3.14,8,5.09,14.55,5.64-1-.26-1.89-.54-2.81-.86-2.88-1-6.41-2-8.29-4.59-3.63-5,1.33-9.16,6.07-10.6,9.54-2.86,23.68-.08,23.82,11.69a4.16,4.16,0,0,0,.76-1.89C835.42,454.61,824,440.64,817.39,442.54Z"/><path class="cls-19" d="M798.67,442.05c4.29,7.44,27.68,6.59,28.81-2.26s-5-21.19-11.61-19.27C809.5,422.33,794.4,434.59,798.67,442.05Z"/><path class="cls-25" d="M815.87,420.52c-6.37,1.81-21.47,14.07-17.2,21.53,2.11,3.66,8.82,5.3,15.24,5-3.93-.47-7.95-1.76-10.24-4.56-4.14-5.06.59-11.43,5.6-13.61,7.65-3.32,14.57-.34,16.73,7.86a18.21,18.21,0,0,1-.19,6.28,5.6,5.6,0,0,0,1.67-3.22C828.61,430.91,822.47,418.6,815.87,420.52Z"/><path class="cls-19" d="M794.12,412.45c4.54,5.83,24.34,2.33,24.25-5.36s-6.79-17.43-12.18-15C801,394.38,789.58,406.62,794.12,412.45Z"/><path class="cls-25" d="M806.19,392.07c-5.2,2.31-16.61,14.55-12.07,20.38a6.62,6.62,0,0,0,3.13,2.08c-3.65-3.35-1.71-8.85,1.24-12.2,4.34-4.94,9.8-5.66,14.73-1,3.48,3.25,3,7.59,1,11.32,2.48-1.4,4.15-3.29,4.12-5.52C818.27,399.4,811.58,389.66,806.19,392.07Z"/><path class="cls-19" d="M835.41,307.57c-4.34,6,5.37,27.77,12.71,25.55s14-15.15,10.23-19.65C854.69,309.11,839.75,301.59,835.41,307.57Z"/><path class="cls-25" d="M835.35,315.2c.29-5.07,4.08-6,8.26-3.64,5.55,3.13,11.49,10.39,11.13,16.64,4-4.83,6.19-11.7,3.61-14.73-3.66-4.36-18.6-11.88-22.94-5.9-1.63,2.24-1.27,6.72.19,11.32A16.1,16.1,0,0,1,835.35,315.2Z"/><path class="cls-19" d="M821.43,326.05c-4.33,6,4.57,24,11.93,21.79s14.84-11.38,11-15.89C840.72,327.6,825.77,320.07,821.43,326.05Z"/><path class="cls-25" d="M844.38,332c-3.66-4.35-18.61-11.88-23-5.9-1.39,1.93-1.41,5.1-.56,8.44a10.26,10.26,0,0,1-.1-2.07c.3-5.27,6.09-5,9.89-3.43,4.66,1.87,9.74,5.93,10.76,11.14a8,8,0,0,1,.1,2.42C844.88,339,846.66,334.65,844.38,332Z"/><path class="cls-19" d="M807.68,345.86c-3.78,5.23,4,21,10.4,19s13-9.94,9.63-13.87S811.47,340.64,807.68,345.86Z"/><path class="cls-25" d="M807.57,351.07c1.4-4.71,7.62-4,11.15-2.79,4.8,1.6,8.62,5.92,7.18,11.23,2.48-2.95,3.64-6.33,1.81-8.5-3.2-3.8-16.24-10.37-20-5.15-1.23,1.7-1.23,4.51-.46,7.46A9.87,9.87,0,0,1,807.57,351.07Z"/><path class="cls-26" d="M108.29,492.55c-2.15-11.46-4.11-22.83-5.33-34.42-2.3-21.6-1.34-43.23-1.69-64.86,0-.39-.61.29-.62.53-1.22,23.34-3,46.07-.46,69.45,2.32,21.83,6.7,43.24,15.84,63.28.18.39.83-.52.75-.84C113.75,514.6,110.43,503.94,108.29,492.55Z"/><path class="cls-26" d="M423.78,82.72c-1.27,6.86-3.9,14.49-6.12,21.1-2.91,8.73-5.16,17.62-8.51,26.22-6.62,17-13.1,34.33-21.75,50.43-.58,1.08.42,1.09,1,.32,5.1-7.29,8.31-16,12.47-23.81,4.73-8.93,8.4-18.73,12.16-28.09s6.26-18.83,9.05-28.36a64.87,64.87,0,0,0,2.45-18.33C424.48,81.72,423.81,82.51,423.78,82.72Z"/><path class="cls-26" d="M424.54,212.64a85.79,85.79,0,0,0-24.26-3.23,117.69,117.69,0,0,0-12.73.62c-.06,0-10.54,2.14-9.93,3-.24-.34-.66.42-.71.6a3.54,3.54,0,0,1-.11.44c0,.12,0,.37.17.34,15.85-1.26,31.13-2.3,47-.75C424.35,213.72,425,212.77,424.54,212.64Z"/><path class="cls-26" d="M243.55,378.32c-9.33-4.13-22-3.9-31.1,1-7.81,4.19-17.53,10.49-19.08,20-.12.7.63.16.8-.09l.88-1.3c.12-.17.14-.59-.15-.33,6.76-6,11.84-11.52,20.72-14.58,7.53-2.6,18.88-3.24,26.71-2.63C242.93,380.39,244.25,378.63,243.55,378.32Z"/><path class="cls-26" d="M599.44,300.53a111.56,111.56,0,0,0-9.62-21.31c-7.3-12.45-18.2-23.16-29.78-31.57-12.33-8.94-28.64-11.37-43.41-12.71a135,135,0,0,0-42,2.87c-.2.05-.69.75-.35.8,5,.56,10.2,0,15.25-.25,7.4-.41,14.69.37,22.08.75,15.41.81,31.89,5.3,44.81,13.77,11.88,7.81,19.37,18.6,28.14,29.39,5.09,6.25,8.71,14.32,11.76,21.73,2.59,6.26,3.62,13.12,6.78,19.11.44.84,1.89-1.15,1.65-1.84C602.5,314.51,601.66,307.36,599.44,300.53Z"/><path class="cls-26" d="M713.58,168.36c-7.2-6.52-17.58-11.57-26.79-14.63-10.21-3.39-21-2.27-31.28.58-23,6.38-38.64,22.62-55.36,38.25-.23.22-.49,1.08.05.65,8-6.36,15-13.75,23.74-19.31,8.92-5.67,19.18-9.89,29.24-13.07,10.32-3.24,20-2.44,30.32-.76S703.72,164,713,169.23C713.28,169.41,713.85,168.59,713.58,168.36Z"/><path class="cls-26" d="M687.8,486.4c-10,2-20.08,3.65-30.17,4.87-4.87.59-9.73,0-14.6.43-5.86.47-11.7,1.13-17.58.75-.15,0-.49.41-.31.52,4,2.52,8.77,2.7,13.42,2.37,5.76-.39,11.48,0,17.22-.51a133.87,133.87,0,0,0,31.63-7.35C687.73,487.38,688.38,486.28,687.8,486.4Z"/><path class="cls-26" d="M123.21,157.36c.18-.51-.41-.19-.53.08-3,6.61-6.4,12.31-8.39,19.4-2.11,7.55-2.18,16-2.15,23.74.08,16.2,5.18,31.16,10.84,46.14.07.16.36-.23.34-.37a293.12,293.12,0,0,1-7-43.3,135.28,135.28,0,0,1,.64-25.05C117.68,170.56,120.87,164.29,123.21,157.36Z"/><path class="cls-26" d="M222,223.51c-24.74,17.65-40.34,50.28-36.23,80.56.11.74,1.06-.52,1.08-.9.9-16.45,3.73-30.59,10.9-45.49a118.7,118.7,0,0,1,24.3-33.36C222.33,224.05,222.69,223,222,223.51Z"/></g></g></svg>