<svg xmlns="http://www.w3.org/2000/svg" viewBox="0 0 937.46 925.15"><defs><style>.cls-1{isolation:isolate;}.cls-2,.cls-5,.cls-6{fill:#d36d22;}.cls-12,.cls-3,.cls-5{opacity:0.5;}.cls-12,.cls-17,.cls-27,.cls-3,.cls-4,.cls-5,.cls-8{mix-blend-mode:multiply;}.cls-13,.cls-25,.cls-28,.cls-6{mix-blend-mode:screen;}.cls-7{fill:#dc7a1f;}.cls-14,.cls-8{fill:#e5880c;}.cls-12,.cls-13,.cls-9{fill:#fba31d;}.cls-10{fill:#ce7b0d;}.cls-11{fill:#a55d07;}.cls-15,.cls-28{fill:#eb8c3c;}.cls-16{fill:#fcedd8;}.cls-17,.cls-18{fill:#fadbbf;}.cls-19,.cls-25{fill:#eb383b;}.cls-20,.cls-27{fill:#d32932;}.cls-21{fill:#fff;}.cls-22{fill:#bf7008;}.cls-23{fill:#e2ad6d;}.cls-24{fill:#ce6719;}.cls-26{fill:#eabc96;}.cls-29{fill:none;}</style></defs><g class="cls-1"><g id="Layer_1" data-name="Layer 1"><path class="cls-2" d="M550.27,364.83s17.4-96.75,66.54-136.81c43.08-31.74,223-77.86,268.33-108.11,4.85-2.78-3.68,33.07-41.57,57.32,32.43-7.86,72.36-5.47,75.44,5.11s-20.82,28-20.82,28,37.89,3.74,39.25,17.06S876,267.34,876,267.34s19.81,5.46,21.18,9.22-17.4,12.63-17.4,12.63S920,298.75,920,326.39c-.35,6.49-15.71,21.85-46.77,34.48,22.19,2.73,32.42,12.3,34.13,16.73s-30,28.33-62.14,34.13c0,0,19.47,8.53,21.18,14,1,4.1-19.8,12-19.8,12s31.4,19.46,30.72,37.22c-.69,6.13-42.67,29.35-75.79,21.83,23.2,13.66,23.55,16.39,22.88,18.45S805,528.82,777,522c20.47,27,14.87,48.75,14,51.1s-27.52-9.67-32.2-14.63c5.28,21.35,2.05,55.88-5.26,61.74-14.63-5.28-23.12-19.9-23.12-19.9s-6.73,50.92-34.23,55c-5.85.59-13.17-30.14-13.17-30.14s-9,28.67-27.5,35.12c-4.68,1.47-3.51-26-3.51-26s-19.31,48-38,52.09c-4.68.87-20.2-37.75-15.51-70.81S670.48,525.08,550.27,364.83Z"/><g class="cls-3"><path class="cls-2" d="M682.8,303.82c39.68-18.88,20.93-22.89,8.84-22.89,51.39-18.16,117.92-63.5,60.46-65,65.34-29.46,117.63-65.43,133-96,0,0,0,0,0,0,4.85-2.78-3.68,33.07-41.57,57.32,32.43-7.86,72.36-5.47,75.44,5.11s-20.82,28-20.82,28,37.89,3.74,39.25,17.06S876,267.34,876,267.34s19.81,5.46,21.18,9.22-17.4,12.63-17.4,12.63S920,298.75,920,326.39c-.35,6.49-15.71,21.85-46.77,34.48,22.19,2.73,32.42,12.3,34.13,16.73s-30,28.33-62.14,34.13c0,0,19.47,8.53,21.18,14,1,4.1-19.8,12-19.8,12s31.4,19.46,30.72,37.22c-.69,6.13-42.67,29.35-75.79,21.83,23.2,13.66,23.55,16.39,22.88,18.45S805,528.82,777,522c20.47,27,14.87,48.75,14,51.1s-27.52-9.67-32.2-14.63c5.28,21.35,2.05,55.88-5.26,61.74-14.63-5.28-23.12-19.9-23.12-19.9s-6.73,50.92-34.23,55c-5.85.59-13.17-30.14-13.17-30.14s-9,28.67-27.5,35.12c-4.68,1.47-3.51-26-3.51-26s-19.31,48-38,52.09c-4.68.87-20.2-37.75-15.51-70.81s72-90.46-48.2-250.71c0,0,17.4-96.75,66.54-136.81a123.23,123.23,0,0,1,17.33-10.22s-55.68,51.42-40.53,93.5C604.08,334.31,647.6,320.56,682.8,303.82Z"/></g><g class="cls-4"><path class="cls-2" d="M626.55,344.9s1.79-.47,5-1.12,7.68-1.59,13.18-2.34c2.76-.39,5.74-.75,8.92-1a61.3,61.3,0,0,1,10.16-.05,16,16,0,0,1,5.58,1.35,4.4,4.4,0,0,1,2.5,3l.09.67c0,.25,0,.63-.06,1a5,5,0,0,1-.14.84c-.07.28-.13.55-.22.8-1.35,3.87-3.78,6.81-6.2,9.68a85.7,85.7,0,0,1-8,7.87c-2.74,2.42-5.62,4.6-8.43,6.64a117.56,117.56,0,0,1-16.3,9.83c-2.48,1.23-4.81,2.28-6.92,3.11s-3.94,1.54-5.46,2.06-2.75.91-3.58,1.14l-1.26.36,1.21-.52c.79-.33,1.95-.85,3.41-1.52,2.93-1.32,7-3.42,11.78-6.16a156.42,156.42,0,0,0,15.53-10.43c2.72-2.06,5.42-4.35,8.09-6.7a88.72,88.72,0,0,0,7.63-7.64c2.33-2.68,4.62-5.62,5.71-8.61.07-.19.09-.38.14-.54a2.32,2.32,0,0,0,.09-.47c0-.14.06-.2.06-.39l-.08-.67c0-.15,0,.14,0,.12l0,0h0l0-.06a.61.61,0,0,0,0-.11c0-.09-.13-.16-.18-.25s-.2-.18-.31-.27a1.93,1.93,0,0,0-.42-.25,14.27,14.27,0,0,0-4.53-1.2,73.11,73.11,0,0,0-9.74-.34c-3.14.11-6.11.27-8.85.45-5.5.44-10.09.83-13.28,1.2Z"/><path class="cls-2" d="M697.21,338.39s1-.14,2.92-.31,4.54-.32,7.77-.29c1.61,0,3.36.08,5.21.26a28.48,28.48,0,0,1,5.9,1,8.35,8.35,0,0,1,3.22,1.62,3.91,3.91,0,0,1,.78.93c.09.19.2.41.29.63l.12.52a4.09,4.09,0,0,1,0,1.21,4.41,4.41,0,0,1-.2,1,16.52,16.52,0,0,1-3.61,5.93,37.14,37.14,0,0,1-4.86,4.48,43.75,43.75,0,0,1-5.28,3.53,47.5,47.5,0,0,1-10.22,4.35,41.81,41.81,0,0,1-7.66,1.52c-.94.12-1.69.14-2.19.18l-.76,0s1-.25,2.82-.79a70.22,70.22,0,0,0,7.21-2.57,66.21,66.21,0,0,0,9.43-5c1.65-1.05,3.23-2.28,4.83-3.52a39.17,39.17,0,0,0,4.42-4.22,14.29,14.29,0,0,0,3.07-4.73,2.18,2.18,0,0,0,.13-.52,2.06,2.06,0,0,0,0-.35l0-.19,0-.1V343c0,.06,0-.16,0,.13a.13.13,0,0,1,0-.09c-.07-.06-.09-.15-.21-.26a6.78,6.78,0,0,0-2.14-1.15,34.94,34.94,0,0,0-5.36-1.32c-1.77-.29-3.45-.54-5-.74-3.15-.4-5.8-.67-7.67-.85Z"/><path class="cls-2" d="M775.19,323.65a21.72,21.72,0,0,1,2.64,0,18.24,18.24,0,0,1,3,.29,9.28,9.28,0,0,1,4,1.44,4.16,4.16,0,0,1,1,1.05,5.75,5.75,0,0,1,.31.78l0,.11,0,.23v.31l0,.23c0,.2-.1.38-.16.55l-.14.34a7,7,0,0,1-.36.61,12.57,12.57,0,0,1-.78,1.09,26.42,26.42,0,0,1-3.78,3.77,47.46,47.46,0,0,1-4.52,3.38c-1.59,1.05-3.23,2.06-4.93,3s-3.43,1.77-5.18,2.55-3.49,1.45-5.21,2a55.93,55.93,0,0,1-9.57,2.42,37.88,37.88,0,0,1-3.93.49c-1.17.11-2.18.13-3,.13s-1.52,0-2,0-.67,0-.67,0l2.56-.54c.82-.18,1.79-.4,2.91-.69s2.37-.59,3.73-1,2.78-.88,4.3-1.41,3.1-1.15,4.71-1.82,3.25-1.43,4.93-2.19,3.33-1.64,5-2.55,3.25-1.82,4.78-2.8,3.08-2,4.45-3a36.06,36.06,0,0,0,3.74-3.17c1.1-1.32,1.68-1.6.72-2.49a8.91,8.91,0,0,0-3.11-1.66c-1.06-.36-2-.64-2.85-.83C776.13,323.81,775.19,323.65,775.19,323.65Z"/><path class="cls-2" d="M764.26,279.9a51.57,51.57,0,0,1,6.47-1.19c2.18-.26,4.39-.45,6.59-.51,1.11-.05,2.21-.05,3.31,0s2.21,0,3.33.1,2.2.11,3.3.29,2.21.26,3.31.42l3.29.65c1.1.2,2.17.56,3.25.85l1.63.45,1.57.58c1.05.41,2.13.76,3.14,1.26l3,1.5a32.46,32.46,0,0,1,2.89,1.77,19.82,19.82,0,0,1,2.75,2l2.6,2.21.11.09.07.12a3,3,0,0,1,.29,2.51,8.39,8.39,0,0,1-.74,1.47,16.57,16.57,0,0,1-1.76,2.15c-1.22,1.26-2.53,2.38-3.84,3.49A97.4,97.4,0,0,1,800.6,306c-2.82,1.84-5.73,3.58-8.69,5.19a92.86,92.86,0,0,1-9.11,4.37c2.87-1.77,5.67-3.62,8.42-5.49s5.47-3.85,8.13-5.86,5.28-4.06,7.77-6.23a42.6,42.6,0,0,0,3.47-3.36,14.74,14.74,0,0,0,1.43-1.79l.23-.4.15-.38c0-.18,0-.13.1.09l.2.24-2.42-2a18.53,18.53,0,0,0-2.56-1.82,30,30,0,0,0-2.68-1.68l-2.82-1.45c-1-.47-2-.8-2.92-1.21l-1.49-.62-1.51-.47c-1-.3-2-.68-3.06-.92l-3.12-.74c-1-.23-2.12-.4-3.18-.61s-2.12-.31-3.18-.45-2.15-.27-3.22-.37-2.15-.21-3.23-.23c-2.17-.13-4.34-.22-6.51-.16S766.43,279.72,764.26,279.9Z"/><path class="cls-2" d="M818,333.64a23,23,0,0,1,5,.18,22.15,22.15,0,0,1,2.4.45,21.12,21.12,0,0,1,2.66.76,13.62,13.62,0,0,1,2.8,1.32,6.91,6.91,0,0,1,2.59,2.55l.14.23,0,.06h0l.05.17h0l0,.1,0,.17a.65.65,0,0,1,.07.27,3.15,3.15,0,0,1,0,1.44,4.05,4.05,0,0,1-1.13,1.92,9.39,9.39,0,0,1-2.78,1.79,21.61,21.61,0,0,1-5,1.5,23.84,23.84,0,0,1-5,.4s1.84-.87,4.49-2.06a44.41,44.41,0,0,0,4.32-2.21,6.93,6.93,0,0,0,1.86-1.44,1.21,1.21,0,0,0,.35-.58c0-.06,0-.09,0,0s0,0,0-.09l-.06-.17v-.09h0c0,.05-.06-.17,0,.12h0l0,0-.07-.08a4.57,4.57,0,0,0-1.52-1.53,17.33,17.33,0,0,0-2.22-1.32c-.78-.38-1.57-.74-2.31-1.07s-1.5-.63-2.17-.9C819.86,334.42,818,333.64,818,333.64Z"/><path class="cls-2" d="M787.55,372.16s1.27.22,3.43.76a71.24,71.24,0,0,1,8.84,2.89,53.24,53.24,0,0,1,5.69,2.57c1,.49,2,1.08,3,1.66s2,1.3,3,2a29.72,29.72,0,0,1,2.94,2.38c.47.46.94.89,1.41,1.34s.87,1,1.29,1.52l.63.79.54.87.54.89.27.43.13.22h0c.05.13-.07-.23.13.29v.06l0,.12c0,.17.07.26.11.49a3.73,3.73,0,0,1,0,1,2.53,2.53,0,0,1-.16.75,3.35,3.35,0,0,1-.27.67,5.08,5.08,0,0,1-.67,1,5.39,5.39,0,0,1-.76.87,26.2,26.2,0,0,1-6.74,4.37,64.53,64.53,0,0,1-6.95,2.82,81,81,0,0,1-12.76,3.31,52.08,52.08,0,0,1-9.27.9,21.31,21.31,0,0,1-2.6-.16l-.92-.13a28.42,28.42,0,0,0,3.47-.3,78.77,78.77,0,0,0,8.92-2c3.65-1,7.84-2.39,12.24-4.12,2.18-.85,4.39-1.86,6.57-2.95a25,25,0,0,0,5.91-3.88,5.58,5.58,0,0,0,.53-.58,4.48,4.48,0,0,0,.36-.52.66.66,0,0,0,.09-.24s.09-.18,0-.14,0,0,.06,0a3.6,3.6,0,0,0-.1-.43l-.75-1.27-.46-.74-.54-.67a29.11,29.11,0,0,0-4.93-4.93,64.36,64.36,0,0,0-5.53-3.81c-1.84-1.08-3.61-2.1-5.29-2.95-3.37-1.73-6.27-3-8.32-3.9S787.55,372.16,787.55,372.16Z"/><path class="cls-2" d="M709.56,409.73s.69,1,1.81,2.71,2.68,4.28,4.32,7.5c.8,1.59,1.66,3.34,2.42,5.27a23.08,23.08,0,0,1,1.75,6.49,7.18,7.18,0,0,1,0,2,5.1,5.1,0,0,1-.36,1.13l-.15.31c-.05.09.13-.16-.14.22l0,0,0,0-.07.09c-.13.11-.11.17-.36.36a3.06,3.06,0,0,1-.71.51,4,4,0,0,1-.59.25,3.74,3.74,0,0,1-1.07.27,10.43,10.43,0,0,1-2,.11,34.4,34.4,0,0,1-7.31-1.12c-2.33-.58-4.62-1.32-6.86-2.08s-4.37-1.62-6.42-2.49a103.6,103.6,0,0,1-11-5.37,68,68,0,0,1-7.28-4.66c-.85-.61-1.47-1.14-1.9-1.5s-.65-.56-.65-.56,1,.62,2.87,1.56,4.5,2.2,7.73,3.59,7.05,2.95,11.17,4.47c2.06.77,4.23,1.48,6.4,2.2s4.41,1.37,6.67,1.93a32.84,32.84,0,0,0,6.63,1.12,8,8,0,0,0,1.48-.05,2.36,2.36,0,0,0,.58-.13s.21,0,.21-.05v.05s.06,0,.11-.07l.15-.14.07-.09,0,0,0,0c-.27.38-.07.11-.12.2l0-.11a3,3,0,0,0,.18-.45,6.09,6.09,0,0,0,.08-1.33A25.76,25.76,0,0,0,716,426c-.6-1.89-1.25-3.68-1.86-5.31-1.3-3.29-2.44-6-3.27-7.91S709.56,409.73,709.56,409.73Z"/><path class="cls-2" d="M734.46,446.21s.82,0,2.24,0a36.09,36.09,0,0,1,5.84.79,31.14,31.14,0,0,1,8,2.91,20.83,20.83,0,0,1,4,2.84,17.08,17.08,0,0,1,3.29,4.05,15.19,15.19,0,0,1,1.66,5l.09.64a1.55,1.55,0,0,1,0,.38l0,.29c0,.12,0,.16,0,.34l-.06.5a3.76,3.76,0,0,1-.25.91,4.79,4.79,0,0,1-2.15,2.26,12.3,12.3,0,0,1-4.61,1.26,29.1,29.1,0,0,1-4,.13,41.32,41.32,0,0,1-5.86-.65c-1.39-.27-2.16-.47-2.16-.47l2.2-.15c1.39-.07,3.4-.2,5.75-.49,1.17-.14,2.42-.32,3.7-.59a12.7,12.7,0,0,0,3.61-1.32,2.1,2.1,0,0,0,.89-1,.68.68,0,0,0,0-.2.56.56,0,0,1,0-.07s0-.18,0-.25l0-.29,0-.22-.07-.52a12,12,0,0,0-1.43-4,14.51,14.51,0,0,0-2.64-3.4,22.17,22.17,0,0,0-3.38-2.67,40.76,40.76,0,0,0-7.1-3.54c-2.2-.85-4.1-1.47-5.45-1.86S734.46,446.21,734.46,446.21Z"/><path class="cls-2" d="M706.76,486a36.08,36.08,0,0,1,4.11,6.57c.28.58.57,1.18.83,1.77s.52,1.2.74,1.83a38.14,38.14,0,0,1,1.19,3.76c.18.63.31,1.28.43,1.93a16.45,16.45,0,0,1,.29,2,15,15,0,0,1,.18,2l0,2-.22,2a11.6,11.6,0,0,1-.38,2,10.5,10.5,0,0,1-.56,2c-.23.65-.5,1.28-.76,1.93l0,.06,0,0a2.32,2.32,0,0,1-1,.91,3.37,3.37,0,0,1-.61.18,1.69,1.69,0,0,1-.49,0,2,2,0,0,1-.49,0l-.32-.07a3.12,3.12,0,0,1-.6-.24,9.72,9.72,0,0,1-1.79-1.06,25.25,25.25,0,0,1-2.81-2.41,70.88,70.88,0,0,1-4.9-5.24c-1.56-1.8-3-3.68-4.45-5.56s-2.78-3.85-4-5.87c1.76,1.6,3.42,3.27,5.12,4.91l5,4.93c1.7,1.61,3.36,3.26,5.11,4.76.87.74,1.74,1.48,2.62,2.09a6.53,6.53,0,0,0,1.27.72.35.35,0,0,0,.21.09l.09,0h0s0,0-.06,0a.26.26,0,0,0-.21.06c-.11.07-.28.14-.31.3l-.06.09c.2-.56.42-1.1.64-1.62a9.68,9.68,0,0,0,.5-1.7,8.68,8.68,0,0,0,.36-1.74l.24-1.79.05-1.8a14.08,14.08,0,0,0-.05-1.83,16,16,0,0,0-.16-1.82c-.11-.6-.13-1.23-.26-1.83l-.34-1.84c-.11-.6-.29-1.21-.42-1.83s-.32-1.21-.48-1.8-.35-1.21-.56-1.81A67.68,67.68,0,0,0,706.76,486Z"/><path class="cls-2" d="M691.64,509.72a93.17,93.17,0,0,1,.8,10.07c0,1.5.1,3.14,0,4.9s-.07,3.57-.27,5.51c-.11.95-.24,1.95-.44,3a8.87,8.87,0,0,1-1.19,3.29,3.59,3.59,0,0,1-.47.5l0,.08s-.47.32-.26.18h0l-.07.07-.17.07a3.09,3.09,0,0,1-.92.24h-.41l-.31,0a5.6,5.6,0,0,1-1.88-.65,16.6,16.6,0,0,1-2.75-1.82,46.68,46.68,0,0,1-4.44-4.32,50.83,50.83,0,0,1-3.72-4.65,48.88,48.88,0,0,1-5.28-9.05,27.47,27.47,0,0,1-2.2-7.08,15.2,15.2,0,0,1-.19-2.06v-.73s.06.24.19.71a15.45,15.45,0,0,0,.59,1.93,35,35,0,0,0,3.16,6.44,67.79,67.79,0,0,0,5.86,8.23c1.14,1.45,2.42,2.86,3.72,4.27a44.56,44.56,0,0,0,4.21,3.94,17.17,17.17,0,0,0,2.22,1.57,3,3,0,0,0,.93.36l0,0,0,0h-.08a.24.24,0,0,0-.14,0s-.15.13,0,.06l.15-.09.11,0h0c.23-.14-.28.18-.22.15h0s0,0,0-.06a8.62,8.62,0,0,0,.82-2.18q.32-1.34.54-2.7c.56-3.63.85-7.13,1.14-10.12C691.22,513.74,691.64,509.72,691.64,509.72Z"/><path class="cls-2" d="M660.4,552a67.19,67.19,0,0,1-4.07,7.39c-.68,1.07-1.43,2.23-2.27,3.4s-1.76,2.42-2.79,3.65c-.5.61-1,1.23-1.59,1.84a21.74,21.74,0,0,1-1.77,1.83,17,17,0,0,1-4.46,3.18l-.71.29h0l-.18,0-.08,0-.14,0-.31.08a3.41,3.41,0,0,1-2.27-.44,3.31,3.31,0,0,1-.87-.74,6.43,6.43,0,0,1-.51-.83,7.22,7.22,0,0,1-.45-1.55,16.69,16.69,0,0,1,.18-5.24,44.6,44.6,0,0,1,2.37-8.44A37.75,37.75,0,0,1,643,551c.36-.65.68-1.12.9-1.47l.36-.49a19.45,19.45,0,0,0-.7,2.19c-.42,1.41-.94,3.42-1.47,5.84a77.6,77.6,0,0,0-1.39,8.29,18.16,18.16,0,0,0,0,4.37c.11.64.4,1.16.47,1.11s.09,0,.13,0l.31-.07.16,0h.09c.13,0-.16,0-.11,0h0l.45-.21a13.82,13.82,0,0,0,3.65-2.53c1.16-1,2.3-2.15,3.35-3.27s2.07-2.24,3-3.29,1.83-2.12,2.64-3.06Z"/><path class="cls-2" d="M627.64,391.3a25.85,25.85,0,0,1,5.47-.6c.82,0,1.72,0,2.68.09a17.12,17.12,0,0,1,3,.43,9,9,0,0,1,3.4,1.45l.43.45.22.24.09.11h0l.13.26h0l0,0,.09.18a2.42,2.42,0,0,1,.15.62,2.27,2.27,0,0,1-.15,1.08,4.44,4.44,0,0,1-1.46,1.88,17.12,17.12,0,0,1-3,1.88c-1,.5-2,.88-2.93,1.28a47,47,0,0,1-5.35,1.68,35.47,35.47,0,0,1-5.38,1s1.88-1.16,4.77-2.62l4.86-2.5c.88-.45,1.77-.94,2.65-1.43a18.39,18.39,0,0,0,2.44-1.6,4.09,4.09,0,0,0,.56-.58s0,0,0,.29c0,.07.12.27.1.21l-.07-.18,0-.05v0l.12.22h0l0,0-.06,0a.65.65,0,0,0-.09-.15,7.78,7.78,0,0,0-2.24-1.1,25.85,25.85,0,0,0-2.65-.79l-2.5-.58C629.81,391.79,627.64,391.28,627.64,391.3Z"/></g><path class="cls-2" d="M809.14,408.28l-.84.11Z"/><path class="cls-5" d="M809.14,408.28c3.85-.38,19.92-1.08,26.33,12.67,7.34,15.68-69,20.91-30.32,21.95s58.56,27.2,26.15,33.47-86.81-20.93-64.84,6.29,6.27,42.86-24.06,21.95c2.09,73.2-27.18,71.12-36.59,28.22-6.27,61.71-43.93,81.59-33.47,58.57s12.54-85.74,2.08-60.64c-9.41,24-34.49,37.63-23,5.22,12.56-49.15-15.69-107.71-3.13-119.22s23-20.91-6.07-24.09c20.08-11.55,37.44-48.08,15.12-27.08s-47.75,24-70.76-12.62c-30.33-47.07,1-88.9,1-88.9l-.29-.56c-26.83,44.58-37.05,101.32-37.05,101.32,120.21,160.25,52.88,217.64,48.2,250.71S609.3,687.22,614,686.35c18.72-4.1,38-52.09,38-52.09s-1.17,27.52,3.51,26C674,653.86,683,625.19,683,625.19s7.32,30.73,13.17,30.14c27.5-4.09,34.23-55,34.23-55s8.49,14.62,23.12,19.9c7.31-5.86,10.54-40.39,5.26-61.74,4.68,5,31.34,17,32.2,14.63S797.47,549,777,522c28,6.81,46.76-4.79,47.45-6.83s.32-4.79-22.88-18.45c33.12,7.52,75.1-15.7,75.79-21.83.68-17.76-30.72-37.22-30.72-37.22s20.81-7.86,19.8-12c-1.71-5.46-21.18-14-21.18-14,32.1-5.8,63.84-29.7,62.14-34.13a11.06,11.06,0,0,0-2-3.09C884.17,398.36,817.37,407.27,809.14,408.28Z"/><path class="cls-6" d="M691.24,205.26S815,153.07,842.75,145.5,701.34,217.89,691.24,205.26Z"/><path class="cls-6" d="M666,221s-33.27,15.1-45.36,44.36-20.15-4.05,3-27.23S693.14,208.85,666,221Z"/><path class="cls-2" d="M351.49,775.29s5.67,74.06,44.21,67.27c12.09,19.64,43.84,32.89,45-8.31,11.73,20.4,32.52,40.06,33.65-11.35,14.73,13.61,29.1,6.81,29.85-4.91,17.39,23.81,23.82,18.52,24.2-13.23,0,0,31.36,25,42.69,21.94,6.82-3,4.55-17,4.55-17s9.07,7.18,15.49,4.54,4.16-30.61,4.16-30.61,3.77,6.41,7.55,6,21.56-41.57-52.91-106.59c0,0-38.17,41.58-54.8,76.35C489.43,768.48,351.49,775.29,351.49,775.29Z"/><g class="cls-3"><path class="cls-2" d="M598.47,765.39c-5.67,5.09-18.72-18.16-18.72-18.16s13,36.28,6.81,43.65-18.71-14.16-18.71-14.16,2.83,28.33-7.94,32.3-39.11-27.19-39.11-27.19,5.67,17.56-1.69,20.4-22.68-28.35-7.37-50.45,36.85-10.21,36.85-10.21-9.64-25.51-4-32.32,15.3,8.51,15.3,8.51-6.23-22.1,6.25-19.27l.22.06c-4.91-5-10.38-10.18-16.48-15.49,0,0-38.17,41.58-54.8,76.35-5.67,9.07-143.61,15.88-143.61,15.88s1.67,21.79,9.35,40.65c-.57-5.16-2.53-28.76,8.05-31.29,11.91-2.82,17,27.77,17,27.77s5.09-26.65,19.84-28.91,26.64,27.77,26.64,27.77,0-24.36,10.2-23.23,21,27.21,20.41,48.75-26.07-13.59-26.07-13.59-1.13,25.49-16.45,24.36-30.61-23.24-30.61-23.24.52,22.57-21.19,6c6.43,8.71,15.18,14.26,27,12.18,12.09,19.64,43.84,32.89,45-8.31,11.73,20.4,32.52,40.06,33.65-11.35,14.73,13.61,29.1,6.81,29.85-4.91,17.39,23.81,23.82,18.52,24.2-13.23,0,0,31.36,25,42.69,21.94,6.82-3,4.55-17,4.55-17s9.07,7.18,15.49,4.54,4.16-30.61,4.16-30.61,3.77,6.41,7.55,6c2.67-.29,12.29-20.83-8.38-55.72C596.41,739.62,603.37,761,598.47,765.39Z"/></g><path class="cls-7" d="M538.18,880c-8.69-5.85-14-.38-20.61,4s-25,12.85-30.07,19.66a31.08,31.08,0,0,1-3.46,3.73c7-4.23,11.41-5.23,22-4.34,29.48,1.52,50.64-10.19,50.64-10.19l1.91,2.15-1-1.55S546.87,885.85,538.18,880Z"/><path class="cls-8" d="M538.18,880c-8.69-5.85-14-.38-20.61,4s-25,12.85-30.07,19.66a31.08,31.08,0,0,1-3.46,3.73c7-4.23,11.41-5.23,22-4.34,29.48,1.52,50.64-10.19,50.64-10.19l1.91,2.15-1-1.55S546.87,885.85,538.18,880Z"/><path class="cls-9" d="M642.89,870.51c-17.76-28.71-26.83-32.86-38.94-19.64-9.45-35.54-30.61-30.61-40.44-16.26-20.79-20.4-40.83-7.17-51.4,9.83-17.39-38.18-18.52-76.72-18.52-76.72l-26.84,7.93c2.27,16.64,23.43,73.7,24.57,77.48s-.76,4.54-12.09,15.5c-23.05,20.78-23.43,42-22.3,46.88s8.68,4.15,20.41-3.8c2.58-1.73,4.72-3.18,6.7-4.35a31.08,31.08,0,0,0,3.46-3.73c5.11-6.81,23.45-15.32,30.07-19.66s11.92-9.82,20.61-4,19.48,13.43,19.48,13.43l1,1.55c6.06,6.78,24.91,27.32,30.59,27.32,9.46-.38,7.94-17.76,7.94-17.76s14.37,14,17.39,12.09-1.12-26.08-1.12-26.08,26.81,18.14,38.14,22.68S660.65,899.24,642.89,870.51Z"/><g class="cls-3"><path class="cls-10" d="M473.43,800.22s.17-.39.53-1.06a29.81,29.81,0,0,1,1.65-2.69c.37-.53.81-1.11,1.27-1.69a20.81,20.81,0,0,1,1.57-1.75,24.54,24.54,0,0,1,3.95-3.36c.72-.5,1.53-.88,2.28-1.34s1.61-.68,2.41-.94a14.23,14.23,0,0,1,2.37-.48,12.28,12.28,0,0,1,2.16-.08l1.79.24c.52.11,1,.29,1.33.4.73.25,1.12.41,1.12.41s-.44,0-1.19-.12c-.37,0-.82-.13-1.32-.15a15.22,15.22,0,0,1-1.73.09,18.81,18.81,0,0,0-2,.33,17.48,17.48,0,0,0-2.13.63c-.72.27-1.43.67-2.18,1s-1.44.79-2.11,1.3a22.4,22.4,0,0,0-2,1.46c-.64.51-1.26,1-1.84,1.57-1.18,1.07-2.21,2.12-3.1,3s-1.61,1.73-2.08,2.31Z"/><path class="cls-10" d="M480.49,821.13a7,7,0,0,1,.29-1.08,27.48,27.48,0,0,1,1.05-2.79c.26-.56.56-1.17.89-1.79s.72-1.26,1.18-1.89a16.86,16.86,0,0,1,1.44-1.92c.5-.65,1.13-1.21,1.7-1.82s1.3-1.07,2-1.57a15.55,15.55,0,0,1,2.11-1.22,11.2,11.2,0,0,1,2.16-.77,8.92,8.92,0,0,1,2-.36c.64,0,1.21,0,1.71,0s.95.13,1.3.2l1.1.18s-.4,0-1.11.09c-.36,0-.79,0-1.27.09s-1,.23-1.57.32a14.06,14.06,0,0,0-1.8.6,16.11,16.11,0,0,0-1.9.89,17.57,17.57,0,0,0-1.88,1.21c-.6.49-1.2,1-1.78,1.5s-1.14,1.06-1.63,1.66c-.26.29-.52.58-.76.87s-.48.57-.71.86c-.93,1.18-1.71,2.32-2.37,3.33s-1.22,1.86-1.55,2.47Z"/><path class="cls-10" d="M484.51,835.24s.12-.38.38-1a27.07,27.07,0,0,1,1.23-2.62c.28-.52.6-1.1,1-1.68s.76-1.19,1.22-1.79a27.8,27.8,0,0,1,3.07-3.56c.57-.58,1.22-1.06,1.81-1.59s1.29-.92,1.93-1.34,1.32-.72,1.95-1,1.27-.49,1.87-.65l1.62-.31a12.69,12.69,0,0,1,1.27-.07c.71,0,1.1,0,1.1,0s-.39.11-1.06.27c-.34.11-.74.15-1.18.33a15.11,15.11,0,0,1-1.47.57c-.51.26-1,.58-1.64.87s-1.12.74-1.74,1.1-1.13.89-1.73,1.36-1.15,1-1.68,1.54-1.11,1.06-1.6,1.62-1,1.1-1.48,1.68c-.95,1.1-1.78,2.17-2.5,3.11s-1.31,1.7-1.7,2.29S484.51,835.24,484.51,835.24Z"/><path class="cls-10" d="M491,851.59a6.73,6.73,0,0,1,.31-1,22.31,22.31,0,0,1,1.12-2.51c.3-.51.58-1.07,1-1.61a19.24,19.24,0,0,1,1.2-1.7,22.59,22.59,0,0,1,3.19-3.23,20.58,20.58,0,0,1,1.93-1.32,13.56,13.56,0,0,1,2-1,8.83,8.83,0,0,1,2-.64,8.17,8.17,0,0,1,1.85-.32c.59,0,1.12-.06,1.6-.06s.85.11,1.2.13l1,.14s-.37.08-1,.17c-.32,0-.72.07-1.16.12s-.94.26-1.48.35a15.28,15.28,0,0,0-1.67.54,12.51,12.51,0,0,0-1.78.78,16.65,16.65,0,0,0-1.82,1,17.47,17.47,0,0,0-1.75,1.25c-.55.45-1.11.92-1.64,1.41s-1,1-1.48,1.5-.91,1-1.33,1.5-.75,1-1.12,1.39c-.66.9-1.24,1.65-1.59,2.21S491,851.59,491,851.59Z"/><path class="cls-10" d="M459.57,898.23a8.23,8.23,0,0,1,1.07-.23,19.55,19.55,0,0,1,2.89-.36c.61,0,1.27,0,2,0a17,17,0,0,1,2.18.22,19,19,0,0,1,2.3.52,19.25,19.25,0,0,1,2.3.85,13.23,13.23,0,0,1,2.14,1.23,9.88,9.88,0,0,1,1.83,1.54l.79.83c.22.31.43.61.62.9s.4.58.57.85.27.6.41.87a12.29,12.29,0,0,1,.61,1.55c.12.47.21.89.29,1.25.15.67.21,1.07.21,1.07s-.19-.36-.49-1c-.15-.32-.31-.69-.53-1.12s-.55-.83-.84-1.34c-.16-.23-.31-.5-.5-.74s-.4-.49-.62-.72-.42-.51-.64-.76l-.8-.69c-.26-.21-.5-.48-.8-.68a9.26,9.26,0,0,1-.92-.62,14.84,14.84,0,0,0-2-1.08,19.78,19.78,0,0,0-2.1-.81c-.71-.22-1.42-.47-2.12-.62s-1.39-.29-2-.4-1.3-.18-1.86-.27c-1.17-.11-2.15-.21-2.83-.21Z"/><path class="cls-10" d="M469.66,879.86a11.18,11.18,0,0,1,1.47-.4,29.46,29.46,0,0,1,4-.56,26.47,26.47,0,0,1,2.7,0c.48,0,1,0,1.48.06s1,.1,1.55.2a27.22,27.22,0,0,1,3.2.61,33.17,33.17,0,0,1,3.19,1.17,18.11,18.11,0,0,1,2.94,1.67,16.65,16.65,0,0,1,1.37.95c.39.38.8.74,1.18,1.12a12.39,12.39,0,0,1,2,2.3c.28.4.59.76.82,1.14l.62,1.17a16.29,16.29,0,0,1,1,2.08c.21.65.4,1.21.54,1.68.28.92.43,1.45.43,1.45s-.27-.49-.7-1.34c-.22-.43-.47-1-.78-1.56s-.78-1.17-1.2-1.86c-.23-.32-.46-.68-.7-1s-.58-.67-.9-1a14.82,14.82,0,0,0-2-2c-.37-.33-.77-.65-1.15-1s-.87-.56-1.3-.85a15.79,15.79,0,0,0-2.77-1.51,30.73,30.73,0,0,0-3-1.14c-1-.22-2-.6-3-.72l-1.45-.28-1.42-.16c-.93-.14-1.81-.14-2.62-.21-1.62-.06-3-.08-4,0S469.66,879.86,469.66,879.86Z"/><path class="cls-10" d="M524.83,852.37a19,19,0,0,1,.74-2,34.13,34.13,0,0,1,2.63-5c.63-1,1.37-2,2.2-3.06a28.66,28.66,0,0,1,2.89-3.11,26.33,26.33,0,0,1,3.57-2.81,26.79,26.79,0,0,1,4.17-2.21,23.64,23.64,0,0,1,4.55-1.32,22.08,22.08,0,0,1,4.54-.4,24.92,24.92,0,0,1,4.23.38c.67.08,1.3.26,1.91.38s1.22.27,1.78.47a22.36,22.36,0,0,1,3,1.07c.87.34,1.63.67,2.24,1l1.88,1-2-.7a48.78,48.78,0,0,0-5.32-1.5c-.54-.15-1.15-.22-1.74-.33a14.19,14.19,0,0,0-1.88-.25,33.67,33.67,0,0,0-4.07-.15,25,25,0,0,0-4.27.51,22,22,0,0,0-4.26,1.28,27.12,27.12,0,0,0-7.42,4.61,35.54,35.54,0,0,0-5.29,5.67,47.24,47.24,0,0,0-3.06,4.61C525.17,851.69,524.83,852.37,524.83,852.37Z"/><path class="cls-10" d="M533.89,871s.39-.69,1.13-1.86a52.44,52.44,0,0,1,3.32-4.66,57.43,57.43,0,0,1,5.47-6,45.06,45.06,0,0,1,3.5-3,42.18,42.18,0,0,1,4-2.69,30.57,30.57,0,0,1,4.33-2.06,21.55,21.55,0,0,1,4.5-1.23,19.19,19.19,0,0,1,4.38-.17,11.61,11.61,0,0,1,2,.28,10.32,10.32,0,0,1,1.84.45,15.55,15.55,0,0,1,3,1.21c.85.49,1.58.9,2.16,1.3,1.1.81,1.73,1.3,1.73,1.3l-1.88-1c-.62-.32-1.37-.67-2.23-1.05a29.31,29.31,0,0,0-3-.9,13.73,13.73,0,0,0-1.76-.31,14.84,14.84,0,0,0-1.91-.12,20.71,20.71,0,0,0-4.09.36,27,27,0,0,0-4.21,1.28,29.81,29.81,0,0,0-4.09,2,49.9,49.9,0,0,0-7.33,5.36A74.84,74.84,0,0,0,539,865c-1.58,1.75-2.88,3.21-3.74,4.3Z"/><path class="cls-10" d="M550.27,888.42s.18-.65.59-1.75a36.57,36.57,0,0,1,2-4.41,34.48,34.48,0,0,1,4-5.68,28.13,28.13,0,0,1,2.8-2.76,22,22,0,0,1,3.36-2.35,22.49,22.49,0,0,1,3.75-1.68,18.85,18.85,0,0,1,3.9-.78,17,17,0,0,1,3.72.06,26.46,26.46,0,0,1,3.24.58,20.27,20.27,0,0,1,2.61.9c.74.32,1.41.58,1.93.87,1,.54,1.61.88,1.61.88l-1.72-.61c-.54-.22-1.23-.38-2-.62s-1.68-.34-2.63-.59a22.88,22.88,0,0,0-3.13-.31,19.61,19.61,0,0,0-3.47.18,20.41,20.41,0,0,0-3.6.85,17.47,17.47,0,0,0-3.47,1.59,25.56,25.56,0,0,0-5.92,4.7,39.66,39.66,0,0,0-4.21,5.22c-1.09,1.65-2,3-2.51,4.08S550.27,888.42,550.27,888.42Z"/><path class="cls-10" d="M486.54,861.71a9.38,9.38,0,0,1,1.7,0c.54,0,1.19.07,1.94.12a22.24,22.24,0,0,1,2.53.4l1.44.33,1.49.43a27.94,27.94,0,0,1,3.19,1.21c.52.27,1.06.54,1.59.83l.81.44.78.54,1.55,1c.49.39.95.83,1.43,1.24a24.06,24.06,0,0,1,2.6,2.75,9.12,9.12,0,0,1,1.07,1.5c.33.54.65,1.05,1,1.54a29.28,29.28,0,0,1,1.44,3.09l.31.72c.08.25.14.5.22.74.14.51.28,1,.4,1.43a12.06,12.06,0,0,1,.57,2.47c.09.76.17,1.41.25,1.93.12,1.09.17,1.7.17,1.7s-.17-.57-.47-1.62l-.5-1.88a19.38,19.38,0,0,0-.84-2.35c-.15-.43-.32-.87-.5-1.34a7.23,7.23,0,0,0-.26-.68c-.11-.22-.24-.46-.35-.69-.52-.89-1-1.9-1.58-2.84s-1.25-1.91-2-2.78a21.4,21.4,0,0,0-2.47-2.57c-.45-.39-.88-.81-1.33-1.19l-1.45-1c-.94-.72-2-1.21-3-1.82-1-.44-2-1-3-1.34-.48-.18-.95-.38-1.41-.56l-1.35-.42c-.86-.3-1.69-.47-2.41-.68s-1.37-.31-1.88-.38C487.15,861.77,486.54,861.71,486.54,861.71Z"/><path class="cls-10" d="M569.69,906.56a22.86,22.86,0,0,1,2.2-4.32,22.31,22.31,0,0,1,7.69-7.5,14.83,14.83,0,0,1,2.79-1.13,11.76,11.76,0,0,1,2.9-.46,13.08,13.08,0,0,1,1.4,0c.44.07.87.15,1.31.2s.82.22,1.22.31.74.29,1.09.41a11.44,11.44,0,0,1,1.79.93c.48.34.94.59,1.28.86.67.53,1,.85,1,.85l-1.17-.59a14.75,14.75,0,0,0-1.38-.62c-.54-.2-1.15-.41-1.82-.61a18.32,18.32,0,0,0-2.2-.42l-1.2-.07c-.4,0-.83,0-1.24.05a13.36,13.36,0,0,0-5,1.59,16.81,16.81,0,0,0-2.33,1.49c-.73.56-1.44,1.12-2.07,1.69a40.24,40.24,0,0,0-3.33,3.51c-.9,1.1-1.65,2-2.14,2.73S569.69,906.56,569.69,906.56Z"/><path class="cls-10" d="M595.64,899.24a9.58,9.58,0,0,1,2-2.51,11.86,11.86,0,0,1,1.23-1,12.42,12.42,0,0,1,1.5-1,12.73,12.73,0,0,1,1.76-.74,11.81,11.81,0,0,1,1.93-.47,14.76,14.76,0,0,1,2-.12,16.34,16.34,0,0,1,1.89.19c.62.11,1.18.33,1.72.47a8.89,8.89,0,0,1,1.45.64,9.17,9.17,0,0,1,2,1.23c.46.32.71.52.71.52s-.31-.09-.83-.27l-.94-.33c-.36-.14-.78-.21-1.21-.34a12.8,12.8,0,0,0-1.45-.36l-1.61-.24c-.56,0-1.13-.07-1.71-.07a15,15,0,0,0-1.76.18,8.12,8.12,0,0,0-1.73.38c-.56.13-1.08.36-1.63.54s-1,.44-1.46.69-.9.49-1.28.74c-.78.51-1.43,1-1.85,1.3S595.64,899.24,595.64,899.24Z"/><path class="cls-10" d="M586.81,876.31a17,17,0,0,1,3.12-2.72,19,19,0,0,1,3.72-2.08,20,20,0,0,1,2.29-.83,21.44,21.44,0,0,1,2.46-.53l1.27-.16c.41,0,.85,0,1.24,0a13.73,13.73,0,0,1,2.44.18,11.49,11.49,0,0,1,2.24.51c.33.11.69.2,1,.32s.61.27.9.4a13.39,13.39,0,0,1,1.52.78c.41.27.79.52,1.08.74.6.4.92.65.92.65s-.39-.14-1.06-.42c-.33-.1-.72-.29-1.18-.47s-1-.27-1.59-.47a11,11,0,0,0-1.86-.43,17.81,17.81,0,0,0-4.37-.32c-.4,0-.78,0-1.16,0l-1.17.18a19.07,19.07,0,0,0-2.3.44c-.74.21-1.5.39-2.18.65s-1.39.48-2,.79-1.23.54-1.77.8a25.3,25.3,0,0,0-2.58,1.41Z"/><path class="cls-10" d="M577.5,856.91a8.2,8.2,0,0,1,.71-1,22.86,22.86,0,0,1,2.18-2.62,17,17,0,0,1,1.68-1.55,15.23,15.23,0,0,1,2-1.54,18.47,18.47,0,0,1,2.4-1.36,20.7,20.7,0,0,1,2.7-1,15.22,15.22,0,0,1,2.89-.4h1.43c.49.06.92.15,1.37.22a7.38,7.38,0,0,1,1.31.31l1.19.48a9.57,9.57,0,0,1,1.1.47c.33.22.63.44.94.64a8.55,8.55,0,0,1,1.55,1.15l1,1c.58.58.91.94.91.94s-.42-.25-1.07-.7l-1.21-.81a10.58,10.58,0,0,0-1.65-.85l-.95-.47a9.94,9.94,0,0,0-1.05-.35,10.84,10.84,0,0,0-2.33-.52l-1.23-.15c-.44,0-.85.06-1.28.08a12.48,12.48,0,0,0-2.57.39,17.16,17.16,0,0,0-2.5.87,20.08,20.08,0,0,0-2.32,1.16,32.63,32.63,0,0,0-3.83,2.6c-.53.43-1,.81-1.46,1.17s-.79.69-1.09,1C577.83,856.58,577.5,856.91,577.5,856.91Z"/><path class="cls-10" d="M569.18,843.57a22.42,22.42,0,0,1,3.32-4.46,24.17,24.17,0,0,1,2-1.84c.38-.31.76-.64,1.17-.94l1.31-.85a9.7,9.7,0,0,1,1.41-.8,15.94,15.94,0,0,1,1.51-.7,16.14,16.14,0,0,1,3.3-.92,16.66,16.66,0,0,1,1.71-.22h1.72c.26,0,.56,0,.84,0l.81.16c.56.09,1.08.2,1.62.31a20.13,20.13,0,0,1,2.87,1.06,14.25,14.25,0,0,1,2.39,1.36,9.36,9.36,0,0,1,1.84,1.32c.51.47.94.85,1.32,1.17.72.65,1.1,1,1.1,1s-.47-.27-1.28-.79c-.4-.26-.88-.58-1.46-.94a15.16,15.16,0,0,0-1.95-1c-.37-.16-.76-.36-1.14-.54a6,6,0,0,0-1.25-.51c-.88-.25-1.77-.63-2.75-.81l-1.5-.22-.75-.11h-.77c-.51,0-1,0-1.57,0a10.26,10.26,0,0,0-1.54.24,16.13,16.13,0,0,0-3,.77,27,27,0,0,0-2.77,1.29,23.57,23.57,0,0,0-2.47,1.53c-.77.51-1.43,1.1-2.08,1.59s-1.18,1-1.67,1.48-.9.87-1.21,1.21C569.54,843.14,569.18,843.57,569.18,843.57Z"/><path class="cls-10" d="M608,861.21a6.22,6.22,0,0,1,.52-1,17.14,17.14,0,0,1,1.81-2.5,14.23,14.23,0,0,1,1.44-1.5c.51-.52,1.16-1,1.77-1.48a23.05,23.05,0,0,1,2.17-1.3l1.16-.54a12.88,12.88,0,0,1,1.23-.45,16.14,16.14,0,0,1,5-.85,19,19,0,0,1,2.33.14,11.05,11.05,0,0,1,2.05.44,7.92,7.92,0,0,1,1.66.5l1.23.53,1.06.47s-.43-.06-1.15-.2l-1.29-.26a11.15,11.15,0,0,0-1.68-.19,13.31,13.31,0,0,0-1.95-.15c-.72,0-1.44,0-2.19,0s-1.53.14-2.31.34a12.53,12.53,0,0,0-2.29.62c-.38.12-.76.23-1.14.38l-1.08.5c-.73.31-1.4.74-2.05,1.08s-1.28.8-1.82,1.25-1.07.83-1.54,1.23a24.65,24.65,0,0,0-2.18,2.06C608.25,860.88,608,861.21,608,861.21Z"/><path class="cls-10" d="M613.27,884.9a14.4,14.4,0,0,1,.31-1.58,31.07,31.07,0,0,1,1.28-4,30.26,30.26,0,0,1,2.77-5.31,24.78,24.78,0,0,1,2.11-2.68,19.92,19.92,0,0,1,2.6-2.42,17.29,17.29,0,0,1,3-1.88,15.74,15.74,0,0,1,3.25-1.15,14.48,14.48,0,0,1,3.18-.42,21.31,21.31,0,0,1,2.86.15,23.06,23.06,0,0,1,2.35.48c.68.22,1.28.35,1.75.55l1.46.59s-.56-.09-1.55-.3a17.31,17.31,0,0,0-1.77-.27c-.69-.11-1.47-.11-2.32-.19a23.12,23.12,0,0,0-2.69.13,16.07,16.07,0,0,0-2.94.58c-.49.13-1,.32-1.48.49s-1,.41-1.45.67a16,16,0,0,0-2.76,1.77,29.34,29.34,0,0,0-7.61,9.57c-.8,1.5-1.41,2.8-1.79,3.73S613.27,884.9,613.27,884.9Z"/><path class="cls-10" d="M624.11,897.49a11.39,11.39,0,0,1,.35-1.41,15.52,15.52,0,0,1,.56-1.57,19.62,19.62,0,0,1,.88-2,20.8,20.8,0,0,1,1.32-2.22A25.12,25.12,0,0,1,629,888c.38-.36.73-.72,1.11-1.06l.56-.57.63-.48c.43-.31.85-.64,1.28-1l1.43-.8a18.56,18.56,0,0,1,3-1.24,29.36,29.36,0,0,1,3-.69c1-.13,2-.09,2.91-.14a15.61,15.61,0,0,1,2.56.23,9.62,9.62,0,0,1,2.13.4c.62.2,1.14.34,1.59.47l1.38.43s-.53,0-1.45-.14l-1.61-.2a15.41,15.41,0,0,0-2.11-.09c-.78,0-1.59-.07-2.46,0s-1.79.19-2.73.33-1.86.41-2.8.74a19.43,19.43,0,0,0-2.72,1.21l-1.31.71c-.39.29-.81.59-1.21.86a27.61,27.61,0,0,0-2.22,1.86c-.61.73-1.3,1.34-1.82,2.06a24.5,24.5,0,0,0-1.49,2,25.09,25.09,0,0,0-1.89,3.2C624.31,897,624.11,897.49,624.11,897.49Z"/><path class="cls-10" d="M639,906.82a11.26,11.26,0,0,1,1.13-3.29,14.29,14.29,0,0,1,2-3,13.75,13.75,0,0,1,1.5-1.45,11.63,11.63,0,0,1,1.77-1.23,10.28,10.28,0,0,1,2-.88,8.75,8.75,0,0,1,2-.49,10.63,10.63,0,0,1,1.92-.13,8.5,8.5,0,0,1,1.72.17,8.92,8.92,0,0,1,1.4.27l1.05.36.89.34-1,0c-.29,0-.65,0-1.07-.08s-.86,0-1.37,0a12.63,12.63,0,0,0-1.59.11,15.76,15.76,0,0,0-1.73.31,12.78,12.78,0,0,0-1.79.56,9.71,9.71,0,0,0-1.72.83,9.47,9.47,0,0,0-1.61,1.05c-.5.4-1,.79-1.42,1.21s-.87.85-1.23,1.3-.71.85-1,1.23A25.9,25.9,0,0,0,639,906.82Z"/><path class="cls-10" d="M513.75,848.36a10.63,10.63,0,0,1,1.43.51c.42.2,1,.43,1.55.77a17.24,17.24,0,0,1,1.91,1.2,23.42,23.42,0,0,1,2.08,1.71l1.06,1c.35.38.67.78,1,1.16a31,31,0,0,1,1.91,2.62c.54,1,1.09,1.93,1.59,2.93s.9,2,1.19,3.1a30,30,0,0,1,.85,3.11c.17,1,.35,2,.52,2.93s.13,1.84.18,2.67c0,.4,0,.82.07,1.18s0,.74-.05,1.08c0,.65,0,1.23-.08,1.72-.05,1-.1,1.5-.1,1.5s-.09-.54-.2-1.5c0-.47-.11-1.05-.18-1.7s-.17-1.39-.32-2.19-.27-1.66-.45-2.56-.45-1.85-.69-2.82-.63-1.93-.92-2.95-.81-2-1.2-2.92-.95-1.9-1.46-2.82a30.58,30.58,0,0,0-1.71-2.55l-.88-1.16c-.32-.38-.63-.72-.93-1-.62-.69-1.25-1.31-1.83-1.85s-1.15-1-1.68-1.41a15.89,15.89,0,0,0-1.39-1C514.24,848.61,513.75,848.36,513.75,848.36Z"/><path class="cls-10" d="M519,884.64s.39.26,1.09.67a28.7,28.7,0,0,0,3,1.52c.63.27,1.31.58,2,.85s1.52.56,2.33.81,1.67.45,2.52.73,1.77.39,2.65.56,1.79.34,2.68.43,1.77.23,2.62.29l2.47.16,2.23,0c1.39.07,2.54,0,3.35,0h1.3L546,891a29.44,29.44,0,0,1-3.35.56c-.7.07-1.46.18-2.27.23l-2.54,0c-.88,0-1.79-.09-2.72-.17s-1.86-.25-2.8-.37a32.63,32.63,0,0,1-5.33-1.54,19.39,19.39,0,0,1-2.34-1c-.74-.33-1.39-.76-2-1.1a25.57,25.57,0,0,1-2.73-2A9.85,9.85,0,0,1,519,884.64Z"/><path class="cls-10" d="M501.65,895.21s.36.2,1,.47a11.77,11.77,0,0,0,1.14.51c.45.18,1,.38,1.51.61s1.17.4,1.8.64,1.3.47,2,.65,1.44.38,2.17.61a20,20,0,0,0,2.3.49l2.27.51,2.25.27,2.11.3c.67.13,1.31.09,1.9.15,1.19.05,2.18.16,2.88.22s1.1.12,1.1.12l-1.09.18c-.69.07-1.69.24-2.9.35a13.35,13.35,0,0,1-2,.12c-.69,0-1.42,0-2.18-.12s-1.54-.08-2.34-.15l-2.37-.47c-.79-.2-1.61-.29-2.37-.56s-1.49-.52-2.21-.78a14.6,14.6,0,0,1-2-.86c-.61-.31-1.21-.56-1.73-.89s-1-.63-1.41-.88-.74-.56-1-.76A8.57,8.57,0,0,1,501.65,895.21Z"/></g><g class="cls-4"><path class="cls-11" d="M563.64,834.48s.19.26.54.71.89,1.1,1.52,1.95c1.28,1.72,3,4.21,5.06,7.28,1,1.5,2.07,3.2,3.15,5s2.27,3.67,3.37,5.67,2.24,4.08,3.36,6.22l1.68,3.21c.53,1.09,1.07,2.19,1.59,3.29l3.05,6.63c1.07,2.15,1.85,4.41,2.71,6.54s1.61,4.2,2.35,6.17l1.05,2.87c.29,1,.56,1.86.83,2.74,2.12,7,3.25,11.77,3.25,11.77s-2.11-4.43-4.87-11.17c-.35-.83-.71-1.72-1.09-2.62s-.83-1.81-1.26-2.75c-.89-1.89-1.82-3.88-2.71-6s-1.86-4.21-2.92-6.36-2.07-4.33-3.11-6.52c-.5-1.1-1-2.2-1.53-3.29s-1.08-2.15-1.63-3.21c-1.09-2.12-2.09-4.25-3.1-6.27s-2-4-3-5.86-1.81-3.61-2.67-5.22C565.89,838.82,563.64,834.48,563.64,834.48Z"/><path class="cls-11" d="M604,850.37a47.11,47.11,0,0,1,3,6c.4.94.81,1.94,1.19,3s.85,2.22,1.21,3.42.78,2.44,1.12,3.72.71,2.55,1,3.85.56,2.64.83,3.92.43,2.58.61,3.83.33,2.46.45,3.6a29,29,0,0,1,.24,3.23c.15,4-.05,6.72,0,6.72s-.85-2.6-1.69-6.47c-.38-2-1.05-4.17-1.58-6.59s-1.17-5-1.77-7.54c-.23-1.3-.56-2.56-.88-3.83s-.56-2.53-.83-3.72c-.6-2.4-1.07-4.68-1.5-6.63s-.76-3.58-1-4.72S604,850.37,604,850.37Z"/></g><path class="cls-8" d="M608,861.21c6,25.44,7.06,46.62,4,47.61s-7.07-6.05-16.14-30.23-28.72-37.8-28.72-37.8,29.23,68.54,21.16,69.55-19.65-20.17-31.46-33.76-25-13.62-43.12-1.51-31.24,25.19-45.85,32.23c-6.75,3.27-9.1-1.1-9.65-6.75-2,7.26-1.84,12.75-1.32,15,1.13,4.89,8.68,4.15,20.41-3.8,2.58-1.73,4.72-3.18,6.7-4.35a31.08,31.08,0,0,0,3.46-3.73c5.11-6.81,23.45-15.32,30.07-19.66s11.92-9.82,20.61-4,19.48,13.43,19.48,13.43l1,1.55c6.06,6.78,24.91,27.32,30.59,27.32,9.46-.38,7.94-17.76,7.94-17.76s14.37,14,17.39,12.09-1.12-26.08-1.12-26.08,26.81,18.14,38.14,22.68c4.83,1.92,7.18-.31,6.94-5.69C647.33,909,622.85,882.58,608,861.21Z"/><path class="cls-12" d="M651.76,886.56c-1.82,1.59-4.37,2-8,.34-9.12-4.32-16.17-13.71-22-21.63-3-4-10.32-15.3-7.72-21.34-3.13.69-6.22,2.86-9.52,6.35,3.18,10.49,6.81,20.92,4.7,32a.78.78,0,0,1-1.27.35c-7.39-8.42-10.55-14.15-18.1-26.24-4.32-6.88-12.89-15.16-12.11-24.2a8.15,8.15,0,0,1,7.48-7.86c-8.13-2.29-16.52,2.66-21.72,10.25-.51-.49-1-1-1.54-1.43a54.52,54.52,0,0,1,7.93,11,.69.69,0,0,1,1,.27,40,40,0,0,1,3.42,7.9.83.83,0,0,1,.09.16.77.77,0,0,1,.1.38c1.3,4,2.35,8.15,3.95,12,1.85,4.52,4.81,10.06,4.25,15.1-.43,3.76-3.42,6.49-7.26,4.9-4.91-2.06-8.67-6.63-11.94-10.66-3.57-4.41-6.75-9.09-10.16-13.61-3.06-4.08-7-7.49-10.14-11.52s-7.12-9.27-7.1-14.55c0-5,4.3-7.59,8.93-8.1a18.7,18.7,0,0,1,10.12,1.69c-17.66-10.21-33.85,1.64-43,16.33-3,5.46-13.9,7-18.34-3.83-9.66-23-13.69-44.31-5.23-46.71,4.68-1.34,8.75,7.34,11.45,15.34a216.76,216.76,0,0,1-6.4-41.52l-26.84,7.93c2.27,16.64,23.43,73.7,24.57,77.48,1,3.25-.3,4.28-7.84,11.44,4.42-3.49,9.17-6.42,12-5.77,6.42,1.52,2.39,12.82-8.24,22.1-8.76,7.63-25.85,19.18-26.66,13-4.45,10.49-4.3,18.77-3.65,21.61,1.13,4.89,8.68,4.15,20.41-3.8,2.58-1.73,4.72-3.18,6.7-4.35a31.08,31.08,0,0,0,3.46-3.73c5.11-6.81,23.45-15.32,30.07-19.66s11.92-9.82,20.61-4,19.48,13.43,19.48,13.43l1,1.55c6.06,6.78,24.91,27.32,30.59,27.32,9.46-.38,7.94-17.76,7.94-17.76s14.37,14,17.39,12.09-1.12-26.08-1.12-26.08,26.81,18.14,38.14,22.68C660.63,916.84,661,905.79,651.76,886.56Z"/><path class="cls-13" d="M552.55,830.2s10.48,4.46,24.89,40.28C574.72,854.9,564.64,831.21,552.55,830.2Z"/><path class="cls-13" d="M586.14,827.91s9.93,5.62,20.19,42.84C605.39,855,598.06,830.29,586.14,827.91Z"/><path class="cls-13" d="M618,846s10.07,2.66,27.76,33.21C641.23,865.51,629,845.38,618,846Z"/><path class="cls-9" d="M248.14,783.06s6.11,45.55-9.08,67.56c-8.4-8.39-25.19-11.35-36.08-1.59-17.69-10-39.24-11.11-50.36,11.35-10.89-1.36-34.72,15.88-43.34,42-3.86,13.84,5.23,12.7,12.26,8.62s11.79-4.77,11.79-4.77-.9,15,6.13,15.67c4.31.67,15.42-16.57,28.35-20.66-2.71,10-4.75,22.25.68,23.82s18.16-12.69,32.22-23.35,30.41-22.24,44.25-14.52,24.51,18.14,34.25,26.54,15.19,10.44,16.57,5-.46-28.14-16.57-44.24c-12.93-14.07-11.8-18.59-8.4-28.58s14.31-46.06,14.52-59.22Z"/><g class="cls-3"><path class="cls-10" d="M248.76,797.3s.52.2,1.46.52,2.24.76,3.83,1.27c.8.21,1.65.5,2.58.74s1.89.52,2.88.76,2.07.43,3.13.66,2.15.37,3.23.55,2.19.27,3.26.34,2.14.16,3.17.11,2,0,3-.13,1.83-.14,2.64-.31l2.22-.43a15.22,15.22,0,0,0,1.68-.49c.93-.29,1.47-.43,1.47-.43s-.48.27-1.37.7a14.59,14.59,0,0,1-1.61.76c-.65.24-1.39.49-2.2.74a28.09,28.09,0,0,1-5.75.91,27.9,27.9,0,0,1-3.3,0c-1.11-.05-2.25-.18-3.38-.28s-2.24-.35-3.33-.62-2.13-.5-3.15-.81-2-.63-2.9-1-1.76-.7-2.52-1c-1.57-.69-2.8-1.36-3.67-1.81S248.76,797.3,248.76,797.3Z"/><path class="cls-10" d="M249.2,814s.42.29,1.17.71a33.73,33.73,0,0,0,3.13,1.7c.65.3,1.36.65,2.14,1s1.59.63,2.44,1,1.73.57,2.63.86,1.85.54,2.8.69l1.4.29,1.42.18a21.84,21.84,0,0,0,2.78.22,18.71,18.71,0,0,0,2.6,0l1.21,0,1.13-.16c.7-.11,1.38-.15,2-.25l1.52-.35c.84-.2,1.32-.29,1.32-.29s-.43.22-1.23.56l-1.47.62c-.57.22-1.23.38-2,.58-.37.09-.75.18-1.14.29s-.82.1-1.24.18a16,16,0,0,1-2.72.21,17.82,17.82,0,0,1-2.91-.1c-.51,0-1-.1-1.5-.15l-1.49-.29a28.31,28.31,0,0,1-2.91-.78c-1-.29-1.84-.68-2.72-1a32.2,32.2,0,0,1-4.51-2.45A23.08,23.08,0,0,1,249.2,814Z"/><path class="cls-10" d="M245.84,832.93s.36.32,1,.81c.34.24.75.53,1.25.82s1.07.56,1.69.9,1.31.61,2.06.87,1.56.5,2.38.77,1.72.42,2.61.58,1.81.33,2.75.36,1.84.18,2.76.17,1.82.07,2.69,0,1.72-.06,2.53-.13,1.56-.16,2.27-.23c1.41-.11,2.58-.35,3.39-.44s1.32-.16,1.32-.16l-1.24.43c-.39.15-.87.31-1.42.49a14.64,14.64,0,0,1-1.9.53l-2.28.5c-.82.15-1.68.24-2.58.35s-1.84.1-2.79.14a28.14,28.14,0,0,1-2.9-.13c-1,0-1.93-.29-2.88-.43a25,25,0,0,1-2.71-.74,20.73,20.73,0,0,1-4.5-2.17,14.76,14.76,0,0,1-1.58-1.21,10.68,10.68,0,0,1-1.11-1A7.16,7.16,0,0,1,245.84,832.93Z"/><path class="cls-10" d="M241.42,846.35s.33.35.94.89A23.2,23.2,0,0,0,245,849.3c.56.42,1.22.78,1.88,1.19a22.64,22.64,0,0,0,2.2,1.12,19.06,19.06,0,0,0,2.44,1,20.32,20.32,0,0,0,2.6.71c.87.23,1.78.27,2.66.43l2.63.13,2.46-.13c.8,0,1.52-.2,2.21-.27a14.7,14.7,0,0,0,1.87-.33c.55-.12,1-.23,1.45-.3l1.26-.28s-.41.2-1.18.53c-.37.18-.83.38-1.37.59a8.44,8.44,0,0,1-1.84.62,18,18,0,0,1-2.25.56c-.81.11-1.69.25-2.58.34s-1.83,0-2.77,0-1.93-.2-2.88-.41a19.39,19.39,0,0,1-2.75-.82,16.52,16.52,0,0,1-2.56-1.13,17.53,17.53,0,0,1-2.2-1.38,17.89,17.89,0,0,1-1.81-1.44,18.5,18.5,0,0,1-2.33-2.55A5.84,5.84,0,0,1,241.42,846.35Z"/><path class="cls-10" d="M228.27,844.06a19.44,19.44,0,0,1,1.64,1.16c.53.36,1.11.9,1.79,1.46a26.85,26.85,0,0,1,2.17,2.06,32.17,32.17,0,0,1,2.37,2.66c.84,1,1.57,2.07,2.38,3.19.37.58.71,1.21,1.08,1.81a14.1,14.1,0,0,1,1,1.92,32.2,32.2,0,0,1,1.7,4.06c.22.73.5,1.41.69,2.12s.31,1.44.47,2.15a25.27,25.27,0,0,1,.55,4.24,23.3,23.3,0,0,1,0,4,22.66,22.66,0,0,1-.44,3.55,21,21,0,0,1-.62,2.92c-.28.85-.53,1.59-.72,2.19-.43,1.21-.65,1.9-.65,1.9s.12-.73.36-2c.12-.63.29-1.38.46-2.24s.17-1.86.32-2.93a17.59,17.59,0,0,0,.18-3.47,29.9,29.9,0,0,0-.2-3.83,30.77,30.77,0,0,0-.66-4.07c-.16-.66-.31-1.35-.47-2.06s-.46-1.33-.68-2a29.53,29.53,0,0,0-1.6-3.94c-.57-1.28-1.28-2.48-1.92-3.65s-1.38-2.26-2.12-3.24-1.44-1.93-2.11-2.76-1.37-1.55-1.94-2.22-1.13-1.21-1.6-1.63C228.82,844.55,228.27,844.06,228.27,844.06Z"/><path class="cls-10" d="M248.68,889.41a14.52,14.52,0,0,1-.35-1.71,31.05,31.05,0,0,1,.2-11.3,22.81,22.81,0,0,1,1.1-3.61,19.65,19.65,0,0,1,1.8-3.5,18,18,0,0,1,2.54-3.06,16.91,16.91,0,0,1,3.1-2.26,9,9,0,0,1,1.65-.81,10.25,10.25,0,0,1,1.61-.62,22.86,22.86,0,0,1,3.08-.75,15.29,15.29,0,0,1,2.64-.24c.79,0,1.47-.07,2,0l1.77.13-1.75.18c-.57,0-1.23.16-2,.27s-1.6.35-2.52.55a18.9,18.9,0,0,0-2.88.94,11.52,11.52,0,0,0-1.48.68,16,16,0,0,0-1.48.85,17.54,17.54,0,0,0-2.76,2.17,17.82,17.82,0,0,0-2.3,2.82,22.8,22.8,0,0,0-2.87,6.63,34.06,34.06,0,0,0-1.06,6.34c-.13,1.9-.19,3.49-.15,4.59S248.68,889.41,248.68,889.41Z"/><path class="cls-10" d="M261.54,897.93a8.43,8.43,0,0,1,0-1.4,25,25,0,0,1,.42-3.65,23.85,23.85,0,0,1,.59-2.4,19,19,0,0,1,.93-2.6,24.34,24.34,0,0,1,1.3-2.68,27.65,27.65,0,0,1,1.77-2.54,18.29,18.29,0,0,1,2.19-2.21c.38-.32.76-.65,1.17-1s.86-.52,1.28-.77a8.14,8.14,0,0,1,1.25-.69c.44-.16.87-.32,1.28-.49s.83-.32,1.21-.43l1.2-.24a14.35,14.35,0,0,1,2.07-.3c.61,0,1.15,0,1.6,0,.88,0,1.38,0,1.38,0s-.5.12-1.36.27c-.42.07-.95.16-1.54.29a19.07,19.07,0,0,0-1.93.58l-1.09.34c-.36.16-.71.36-1.1.54a11.78,11.78,0,0,0-2.28,1.27l-1.14.75c-.34.31-.69.64-1.05.94a14.44,14.44,0,0,0-2,2.08A24.74,24.74,0,0,0,266,886c-.44.85-1,1.61-1.35,2.46s-.77,1.63-1.07,2.42-.55,1.56-.82,2.26c-.42,1.43-.79,2.62-1,3.49S261.54,897.93,261.54,897.93Z"/><path class="cls-10" d="M271.18,906.62a8.15,8.15,0,0,1,.3-1.11c.25-.68.6-1.66,1.14-2.8a23.92,23.92,0,0,1,2.23-3.65c.45-.65,1-1.26,1.53-1.89s1.17-1.21,1.82-1.78a19.72,19.72,0,0,1,2-1.53,14.28,14.28,0,0,1,2.13-1.21c.37-.16.72-.35,1.07-.51l1.07-.34a8.8,8.8,0,0,1,2-.49,15.64,15.64,0,0,1,1.71-.23h1.33l1.13,0s-.4.11-1.11.27l-1.26.24c-.47.16-1,.34-1.58.52a12.41,12.41,0,0,0-1.8.71c-.31.14-.63.29-1,.43s-.62.36-.93.54a16.7,16.7,0,0,0-1.93,1.25,15.31,15.31,0,0,0-1.86,1.46c-.62.51-1.17,1.09-1.74,1.63s-1.09,1.12-1.56,1.72-1,1.13-1.35,1.69-.81,1.09-1.17,1.6c-.69,1-1.26,1.84-1.63,2.47S271.18,906.62,271.18,906.62Z"/><path class="cls-10" d="M197.47,853.13s.77,0,2.12.13a36.83,36.83,0,0,1,5.52.94,37.48,37.48,0,0,1,7.48,2.74,30.15,30.15,0,0,1,3.88,2.35A26,26,0,0,1,220,862.4a24.24,24.24,0,0,1,2.89,3.74,21.17,21.17,0,0,1,1.92,4.14,11.29,11.29,0,0,1,.63,2.08,13.56,13.56,0,0,1,.39,2,27.26,27.26,0,0,1,.32,3.76,25.8,25.8,0,0,1-.15,3.18c-.12.94-.19,1.75-.34,2.42-.26,1.32-.43,2.08-.43,2.08s.06-.78.14-2.12c.07-.67.05-1.48.06-2.42s-.1-2-.12-3.09a27.38,27.38,0,0,0-.56-3.61,12.7,12.7,0,0,0-.51-1.92c-.1-.32-.19-.65-.29-1s-.25-.65-.39-1a22.86,22.86,0,0,0-1.92-3.83,22.05,22.05,0,0,0-2.73-3.47,25.1,25.1,0,0,0-3.31-3,36.34,36.34,0,0,0-3.65-2.35,40.93,40.93,0,0,0-7.09-3.11c-2.17-.69-4-1.19-5.33-1.48S197.47,853.13,197.47,853.13Z"/><path class="cls-10" d="M182.35,871.27a15.25,15.25,0,0,1,1.72-.25c.55-.07,1.23,0,2-.11a19.12,19.12,0,0,1,2.61.15,23.75,23.75,0,0,1,3.06.56,11.54,11.54,0,0,1,1.63.48,11.38,11.38,0,0,1,1.68.64c.55.29,1.1.56,1.66.83a12.22,12.22,0,0,1,1.6,1,18.6,18.6,0,0,1,3,2.53,16.46,16.46,0,0,1,1.24,1.5c.37.54.81,1,1.14,1.57a36.23,36.23,0,0,1,1.7,3.34c.4,1.14.77,2.24,1.12,3.29l.57,3c.09.47.19.92.24,1.34s0,.85.05,1.25c0,.77.06,1.44.09,2,0,1.1,0,1.74,0,1.74l-.34-1.7c-.09-.56-.21-1.21-.35-2-.06-.38-.13-.78-.2-1.19s-.25-.84-.37-1.29c-.24-.9-.51-1.88-.79-2.91s-.86-2-1.28-3.07-1.16-2-1.72-3.09a33.5,33.5,0,0,0-2.24-2.83,17.84,17.84,0,0,0-2.72-2.37,15.92,15.92,0,0,0-1.45-1c-.52-.27-1-.54-1.53-.83a11.71,11.71,0,0,0-1.54-.69c-.51-.2-1-.45-1.51-.6a22.47,22.47,0,0,0-2.89-.75c-.9-.22-1.77-.29-2.51-.44s-1.43-.16-2-.16C183,871.25,182.35,871.27,182.35,871.27Z"/><path class="cls-10" d="M171.77,892.45a23.36,23.36,0,0,1,5-.56,24.42,24.42,0,0,1,5.19.4,17.44,17.44,0,0,1,5.72,2,11.89,11.89,0,0,1,2.48,1.93A10.45,10.45,0,0,1,192,898.7a10.89,10.89,0,0,1,1,2.71,14.1,14.1,0,0,1,.27,2.48A15.67,15.67,0,0,1,193,906c-.11.62-.17,1.14-.3,1.58-.22.86-.36,1.32-.36,1.32s0-.51.08-1.38a15.2,15.2,0,0,0,0-1.55c0-.6-.09-1.29-.13-2a18.38,18.38,0,0,0-.5-2.28,10.93,10.93,0,0,0-1-2.31,10.66,10.66,0,0,0-1.67-2.08,10.5,10.5,0,0,0-2.24-1.68,16.42,16.42,0,0,0-2.57-1.23c-.88-.29-1.77-.61-2.66-.81a38.85,38.85,0,0,0-4.94-.83c-1.48-.15-2.72-.24-3.6-.25S171.77,892.45,171.77,892.45Z"/><path class="cls-10" d="M133.6,905.86a6.7,6.7,0,0,1,.81-.65,22.79,22.79,0,0,1,2.35-1.47c.52-.23,1.07-.52,1.7-.76a16.42,16.42,0,0,1,2-.65,14.62,14.62,0,0,1,4.58-.48,11.45,11.45,0,0,1,2.33.38l1.12.32c.34.18.68.34,1,.51a7.09,7.09,0,0,1,1.8,1.15c.26.22.54.38.76.6s.42.49.61.69a9.49,9.49,0,0,1,1,1.22c.24.42.45.76.61,1.07.34.58.5.9.5.9s-.28-.25-.74-.74l-.8-.85c-.3-.34-.74-.59-1.16-1l-.64-.53c-.24-.18-.52-.3-.77-.47a8.55,8.55,0,0,0-1.71-.86l-.93-.38c-.34-.07-.67-.15-1-.24a11.74,11.74,0,0,0-2.07-.3,16.65,16.65,0,0,0-2.12,0,19.3,19.3,0,0,0-2.06.27,26.88,26.88,0,0,0-3.65.93c-.51.18-1,.3-1.43.48s-.81.29-1.11.42Z"/><path class="cls-10" d="M137,886.2s.54-.27,1.53-.67a26.62,26.62,0,0,1,4.21-1.28,25.22,25.22,0,0,1,6.24-.62,18.24,18.24,0,0,1,7.11,1.65,16.56,16.56,0,0,1,3.17,2l.7.6.64.66a12.44,12.44,0,0,1,1.16,1.36,15.75,15.75,0,0,1,1.73,2.87,20.77,20.77,0,0,1,1.11,2.77,17.18,17.18,0,0,1,.64,2.42c.13.72.27,1.35.32,1.88.12,1,.17,1.64.17,1.64s-.18-.56-.46-1.59a34.15,34.15,0,0,0-1.46-4,20.86,20.86,0,0,0-1.28-2.54,18.58,18.58,0,0,0-1.82-2.57,15.27,15.27,0,0,0-2.37-2.31,13.64,13.64,0,0,0-2.9-1.79,15.63,15.63,0,0,0-3.22-1.14,21.52,21.52,0,0,0-3.31-.54,28.38,28.38,0,0,0-6,.11c-1.77.23-3.25.49-4.27.72S137,886.2,137,886.2Z"/><path class="cls-10" d="M152.31,861.08a11.77,11.77,0,0,1,1.48.25,26.28,26.28,0,0,1,3.79,1.2,23.8,23.8,0,0,1,2.44,1.08c.85.42,1.72.94,2.6,1.48a30.06,30.06,0,0,1,2.59,1.9c.42.34.84.71,1.26,1l1.2,1.17a30.24,30.24,0,0,1,2.17,2.51,8.47,8.47,0,0,1,.94,1.34l.84,1.34a22.33,22.33,0,0,1,1.37,2.65,15.35,15.35,0,0,1,1,2.5,13.74,13.74,0,0,1,.64,2.15c.13.67.24,1.23.33,1.72.17.92.25,1.48.25,1.48s-.21-.53-.54-1.41c-.16-.45-.35-1-.58-1.61s-.59-1.28-.91-2a22.68,22.68,0,0,0-1.16-2.31c-.48-.78-.89-1.66-1.49-2.46s-1.11-1.69-1.8-2.47a24.6,24.6,0,0,0-2.11-2.35l-1.11-1.16c-.4-.32-.79-.67-1.19-1-.77-.72-1.63-1.3-2.41-1.91s-1.61-1.14-2.4-1.59-1.53-.94-2.26-1.31a36.35,36.35,0,0,0-3.51-1.68C152.82,861.26,152.31,861.08,152.31,861.08Z"/><path class="cls-10" d="M162.13,848a10.11,10.11,0,0,1,1.39-.17c.44,0,1,0,1.62,0a14,14,0,0,1,2.09.2,19.63,19.63,0,0,1,2.44.5,23.22,23.22,0,0,1,2.64,1l1.34.65,1.28.79a22.06,22.06,0,0,1,2.48,1.9c.73.72,1.46,1.5,2.13,2.26s1.2,1.64,1.71,2.46.89,1.68,1.3,2.47.61,1.61.87,2.33a10,10,0,0,1,.59,2c.14.61.24,1.14.34,1.57.18.87.27,1.38.27,1.38s-.21-.47-.55-1.29l-.58-1.46a16,16,0,0,0-.87-1.88c-.34-.65-.68-1.39-1.08-2.13l-1.41-2.26c-.52-.76-1.16-1.46-1.71-2.24s-1.32-1.41-2-2.08a21.58,21.58,0,0,0-2.26-1.81c-.41-.25-.8-.52-1.19-.79l-1.23-.67c-.79-.45-1.62-.74-2.4-1.1s-1.54-.56-2.27-.73a21.15,21.15,0,0,0-3.53-.72C162.63,848.05,162.13,848,162.13,848Z"/><path class="cls-10" d="M110.35,899.06a11.09,11.09,0,0,1,3.05-.39,12.56,12.56,0,0,1,3.17.38,10.92,10.92,0,0,1,3.44,1.42,9.26,9.26,0,0,1,1.5,1.23c.22.22.44.45.65.69s.35.52.5.76a6.49,6.49,0,0,1,.79,1.55,5.5,5.5,0,0,1,.41,1.48,7.07,7.07,0,0,1,.17,1.27c0,.38,0,.7,0,1,0,.55,0,.85,0,.85l-.24-.81c-.07-.25-.15-.56-.26-.9a7,7,0,0,0-.42-1.12,5.6,5.6,0,0,0-.62-1.25,7.23,7.23,0,0,0-.82-1.27c-.17-.19-.33-.41-.5-.61l-.59-.56a8.15,8.15,0,0,0-1.31-1,16,16,0,0,0-1.46-.82c-.51-.19-1-.47-1.53-.61a25.85,25.85,0,0,0-2.89-.78C111.57,899.19,110.35,899.06,110.35,899.06Z"/><path class="cls-10" d="M123.4,877.89a9,9,0,0,1,.94.07,12.35,12.35,0,0,1,2.43.61,9.27,9.27,0,0,1,1.56.67,12.69,12.69,0,0,1,1.64,1,12.91,12.91,0,0,1,1.59,1.3,13.25,13.25,0,0,1,1.41,1.59,13,13,0,0,1,1.13,1.81c.35.61.53,1.3.8,1.89s.3,1.27.44,1.87a8.26,8.26,0,0,1,.17,1.68,6.67,6.67,0,0,1,0,1.41c0,.41-.07.79-.1,1.08-.08.6-.13.94-.13.94l-.17-.94c-.05-.29-.11-.63-.18-1.05a8.39,8.39,0,0,0-.29-1.34c-.14-.47-.2-1-.4-1.53s-.38-1.09-.6-1.65-.51-1.12-.83-1.66a10.17,10.17,0,0,0-1.06-1.61,11.28,11.28,0,0,0-1.24-1.46,14.59,14.59,0,0,0-1.35-1.26c-.49-.37-.93-.75-1.41-1a11.47,11.47,0,0,0-1.35-.85,21,21,0,0,0-2.16-1.12C123.71,878,123.4,877.89,123.4,877.89Z"/></g><g class="cls-4"><path class="cls-11" d="M168.18,901.14a77.84,77.84,0,0,1,2.83-9.67c.51-1.42,1.07-3,1.73-4.57s1.33-3.3,2.18-5,1.61-3.51,2.58-5.24,1.93-3.53,3-5.26,2.2-3.4,3.3-5.08,2.39-3.16,3.54-4.68,2.5-2.8,3.67-4.1,2.49-2.33,3.62-3.34,2.35-1.78,3.34-2.52a16.1,16.1,0,0,1,2.75-1.62c1.56-.85,2.46-1.29,2.46-1.29s-.78.67-2.13,1.77a20.85,20.85,0,0,0-2.35,2.07c-.86.84-1.86,1.78-2.88,2.85s-2,2.31-3.13,3.58l-3.25,4.23c-1,1.53-2.16,3.07-3.23,4.69s-2.16,3.26-3.13,5-2.07,3.38-3,5.1-1.9,3.38-2.77,5-1.7,3.25-2.5,4.75-1.51,3-2.2,4.3Z"/><path class="cls-11" d="M133.41,906.82a22.64,22.64,0,0,1-.25-2.26c0-.71-.09-1.59-.06-2.61s0-2.13.15-3.37.27-2.55.46-4,.46-2.89.89-4.37a46.44,46.44,0,0,1,1.31-4.61c.47-1.56,1.1-3.09,1.71-4.65s1.41-3,2.08-4.46,1.63-2.8,2.39-4.14,1.71-2.53,2.51-3.7a35.26,35.26,0,0,1,2.49-3.11c.82-.94,1.5-1.82,2.24-2.51s1.36-1.3,1.88-1.81c1-1,1.66-1.5,1.66-1.5s-.43.71-1.2,1.9c-.39.58-.88,1.3-1.43,2.13s-1.09,1.79-1.75,2.82-1.35,2.1-2,3.31-1.4,2.47-2.1,3.79l-2.07,4.12c-.63,1.43-1.36,2.86-1.92,4.36s-1.26,2.91-1.74,4.41c-.28.74-.54,1.46-.8,2.18s-.47,1.47-.7,2.17c-.48,1.43-.84,2.82-1.25,4.14s-.71,2.6-1,3.76C133.84,903.54,133.41,906.82,133.41,906.82Z"/></g><g class="cls-3"><path class="cls-9" d="M296,910.9c-.34-.15-.7-.29-1-.47-5.82-2.95-8.3-9.25-11.51-14.53-3.77-6.2-9.61-10.68-13.72-16.64-2.15-3.11-5.81-9-2.63-12.72a6.76,6.76,0,0,1,4.23-2.22c-4.13-7-2.9-11.35-.48-18.45,3.41-10,14.31-46.06,14.52-59.22l-37.19-3.59a178.53,178.53,0,0,1,.69,34.06c1.06-5.78,4.36-18.58,12.67-18.27,10.69.4,7.13,34.1,0,50.76s-17.13,8-22.44,1c-8.4-8.39-25.19-11.35-36.08-1.59-7-4-14.73-6.54-22.11-6.76,1.38,1.7,2.55,4.1,1.48,6-3.69,6.57-7.46,9.63-11.7,13.86-5.55,5.54-9.25,12.32-14.41,18.12-3.52,3.94-11.22,14.85-16.78,15.18-5.1.3-.33-12.58.91-15.8,2.78-7.24,7.18-12.59,10.88-19.35-3.07,0-6.93,1.27-11.09,3.56,2.45,2.5-.41,7.68-2.54,10.21-3.11,3.71-6,7.46-8.88,11.33-2.64,3.52-5.76,7.72-9.64,10-3.08,1.77-5.22,1-6.65-.85a63.92,63.92,0,0,0-3.17,7.82c-3.86,13.84,5.23,12.7,12.26,8.62s11.79-4.77,11.79-4.77-.9,15,6.13,15.67c4.31.67,15.42-16.57,28.35-20.66-2.71,10-4.75,22.25.68,23.82s18.16-12.69,32.22-23.35,30.41-22.24,44.25-14.52,24.51,18.14,34.25,26.54,15.19,10.44,16.57,5A26.25,26.25,0,0,0,296,910.9Zm-79.7-46c-12.5,9.52-32.92,35.65-38.9,31.58s6-25,13.89-34.57c0,0,15.5-18.23,25.57-17.14S228.78,855.37,216.25,864.88Z"/></g><path class="cls-13" d="M207,851.31s-17.46,15.37-25.75,32.39S180.38,864.17,207,851.31Z"/><path class="cls-13" d="M171.83,845s-17.44,15.37-25.75,32.39S145.24,857.83,171.83,845Z"/><path class="cls-13" d="M140.45,865.67S127.7,875,121,886,121.67,872.72,140.45,865.67Z"/><g class="cls-4"><path class="cls-14" d="M253.3,879.58c-29-30.08-76.56,41.89-83.42,36.18s8.38-43,27.59-62.63c-25,5.55-48.92,60.35-57.29,58.46s-6.11-16.77.75-35.82c-11.42,15.61-22.85,36.57-29.32,30.86a6.79,6.79,0,0,1-2-5.24c-.11.33-.23.64-.34,1-3.86,13.84,5.23,12.7,12.26,8.62s11.79-4.77,11.79-4.77-.9,15,6.13,15.67c4.31.67,15.42-16.57,28.35-20.66-2.71,10-4.75,22.25.68,23.82s18.16-12.69,32.22-23.35,30.41-22.24,44.25-14.52,24.51,18.14,34.25,26.54,15.19,10.44,16.57,5a18.65,18.65,0,0,0,.34-4.41C290.28,919.68,276.81,904,253.3,879.58Z"/></g><path class="cls-2" d="M217.94,326.28s-24.69,13.59-86.18,43.84S52.65,419,49.12,435.62s-2,71.57,35.28,118.93c-23.18-6-42.83-1.5-44.35,2.53s28.73,22.17,28.73,22.17-42.33,2-66,38.8c-6.06,10.59-3,13.61,17.63,16.14s43.84,3,57.44-2.53a110.62,110.62,0,0,1-21.66,9.57s19.15,11.58,52.41-3.52c0,0-10.59,16.12-3.53,30.23,12.1,1.52,29.72-11.08,33.25-16.12l.51,7,15.63-12.11s-119.69-145.87,33.76-263C219.2,361.05,251.45,308.9,217.94,326.28Z"/><g class="cls-3"><path class="cls-2" d="M217.94,326.28s-24.69,13.59-86.18,43.84c-5.63,2.77-10.88,5.44-15.8,8l.81.22s50.62-28,63.87-22.59-42.84,49.06-74.76,95.79c-25.71,39-37.38,30.37-31.94,3.88S95,419.63,83.29,422,53.7,464,73.16,503c7,14,13.24-5.46,17.92-8.57s-7,29.58,2.34,59.18,28.81,63.1,10.89,74.77-17.91,7.79-8.56-3.11-11.68-1.57-49.83-.79S-3.14,621.34,21.77,598c.71-.66,1.36-1.31,2-2a81.2,81.2,0,0,0-21,22c-6.06,10.59-3,13.61,17.63,16.14s43.84,3,57.44-2.53a110.62,110.62,0,0,1-21.66,9.57s19.15,11.58,52.41-3.52c0,0-10.59,16.12-3.53,30.23,12.1,1.52,29.72-11.08,33.25-16.12l.51,7,15.63-12.11s-119.69-145.87,33.76-263C219.2,361.05,251.45,308.9,217.94,326.28Z"/></g><path class="cls-15" d="M213.41,359S45.1,456.8,116.66,597.9c40.3,77.61,81.86,104.7,84.47,118.64s17,57.1,43.15,73.24c4.36,2.62,6.54-7,6.54-7s1.74,10.46,9.15,11.76,13.08-7.84,13.08-7.84-.87,3.92,2.19,3.92,7.84-4.36,7.84-4.36-.87,5.22,2.61,6.11,26.16-12.22,32.26-17c18.31,2.62,64.78,5.42,105.09-3.65,25.69,12.61,44.86,18.14,42.83,5.54,12.61,7.07,13.11,2.53,13.11-3.52,10.59,10.59,12.44,8,14,2.67s12.66-32.9,39.12-66.54,72.57-86.56,94.49-144-3-100.54-20.4-127-50.66-90.71-50.66-90.71Z"/><g class="cls-3"><path class="cls-15" d="M191.53,390.52c-5.51,24.74,16.48,15.58,33,6.41-7.32,38.47,17.4,38.47,42.12,25.65,2.75,47.61,26.56,46.7,50.37,22.89,26.55,39.37,35.71,6.41,45.79-7.34,17.39,41.22,43,11,55.86-5.49,36.63,53.11,70.52,19.24,65.94-18.3,32,44.86,30.22-10.09,30.22-10.09,24.71,28.39,37.54-12.81,37.54-27.46,10.59,8.63,19.65,13.53,27.14,16.17-12.76-23.26-23.9-44.76-23.9-44.76L213.41,359s-18,10.46-39.69,29.45C185,382.66,193.68,380.85,191.53,390.52Z"/></g><path class="cls-16" d="M198.75,342s13.1-36.95,30.4-56.63,43.5-51.26,67.35-90.6S344.19,100,391.27,96.44s63.17,31.61,84,75.7a1442.68,1442.68,0,0,0,87.63,158.55c24.43,43.51,22.05,50.67,8.94,44.11s-26.23-22-26.23-22,1.19,44.1-13.12,50.05-25-14.3-25-14.3,3,16.68-2.39,19.66-34-21.44-34-21.44,5.37,47.08-14.31,55.43c-9.54,3.56-34-32.79-34-32.79s-18.49,32.79-40.53,33.39c-8.35,0-7.75-30.41-7.75-30.41s-24.34,29.78-31.68,34-9-25.34-9-25.34-18.71,27-37.23,26.24c-5.67-.76-17.38-28.35-12.1-43.45-20,15.86-36.28,17.38-41.95,15.86-6.43-11.35-2.25-33.64,3.78-43.08-30.23,11.71-44.6,7.56-44.6,7.56s1.52-35.15,18.53-50.27C214.28,335,198.75,342,198.75,342Z"/><path class="cls-17" d="M330.48,160.7s12.39-5.89,19.59-2c-3.3-11.4-.9-20.71,4.2-20.71s7.19,14.11,5.39,20.38c11.4-5.67,32.68-16.17,60.58-1.17-4.21-11.71-2.4-22.51,3.29-23.11s9.59,12,8.09,19.5c8.1-.6,16.71,5.34,16.71,5.34s-35.59-5.63-31.7,15c-22.19-10.48-45-8.68-61.77,1.52C361.46,169.19,351.69,158.78,330.48,160.7Z"/><g class="cls-4"><path class="cls-18" d="M562.93,330.69a1450,1450,0,0,1-78.34-139.27c5.42,12.81,16.92,40.9,26.38,69.85,12.85,39.3,7.57,47.63-23.42,18.9,11.33,68,1.5,48.37-23.44,7.55s-22.68-63.49-6.05-74.06,12.1-22.7-2.84-19.59-26.63,2.21-36.46-9.9-39.3-17.38-59.72-1.52-30.24,3.8-43.09,13.63-10.58,25.69,18.9,41.55-6.05,56.71-23.42,77.11-55.2,40.82-60.47,29.49,31-65.78,23.42-59.72-35.52,41.57-34,16.62c1.05-17.73,20.43-51.42,31.56-69.48-16,22.27-31.36,40.51-42.79,53.54-17.3,19.68-30.4,56.63-30.4,56.63s15.53-7,21.59-8.18c-17,15.12-18.53,50.27-18.53,50.27s14.37,4.15,44.6-7.56c-6,9.44-10.21,31.73-3.78,43.08,5.67,1.52,21.92,0,41.95-15.86-5.28,15.1,6.43,42.69,12.1,43.45C315.2,448,333.91,421,333.91,421s1.67,29.53,9,25.34,31.68-34,31.68-34-.6,30.41,7.75,30.41c22-.6,40.53-33.39,40.53-33.39s24.43,36.35,34,32.79c19.68-8.35,14.31-55.43,14.31-55.43s28.6,24.43,34,21.44,2.39-19.66,2.39-19.66,10.73,20.26,25,14.3,13.12-50.05,13.12-50.05,13.12,15.48,26.23,22S587.36,374.2,562.93,330.69Z"/></g><path class="cls-19" d="M365.61,250.86s2.56,20.67-21.79,49.71c-17.71,21.11-32.69,44.94-10.22,61.27,21.79,11.24,38.13,3.08,43.58-5.43,2.38,9.19,16.35,20.09,35.07,12.93s40.17-29.61,41.19-48S439.51,293.06,432,285.25c-8.85-9.2-14.64-23.84-5.46-54.48C426.54,230.77,396.25,287,365.61,250.86Z"/><g class="cls-4"><path class="cls-20" d="M360.77,275.26c7.37-10.32,7.86-9.35,17.68-1s26.53,0,34.39-12.29c7.05-11,6.59-7.41,9.27.92-.76-8.2.38-18.61,4.43-32.14,0,0-30.29,56.18-60.93,20.09,0,0,1.24,10.18-6.41,26.28A18.59,18.59,0,0,0,360.77,275.26Z"/><path class="cls-20" d="M435.63,288.75c.4.58.83,1.14,1.29,1.74,19.16,24.07,4.91,44.7-5.89,53.54s-32.44,19.17-46.19,6.38-.49-37.82-.49-37.82a31.84,31.84,0,0,0-13.27,23.09c-1.46,15.72-19.16,29-34.87,12.29s4.42-43.24,4.42-43.24l-.36.18c-16,20-27.62,41.7-6.67,56.93,21.79,11.24,38.13,3.08,43.58-5.43,2.38,9.19,16.35,20.09,35.07,12.93s40.17-29.61,41.19-48C454.32,305.59,443.48,296.07,435.63,288.75Z"/></g><path d="M357.84,150.18c0,5.33-1.89,9.6-4.11,9.52s-4-4.48-3.91-9.81,1.89-9.61,4.1-9.54S357.89,144.81,357.84,150.18Z"/><path class="cls-21" d="M356.72,147c.11,2.07-.58,3.81-1.56,3.85s-1.88-1.63-2-3.71.57-3.83,1.56-3.87S356.6,144.94,356.72,147Z"/><path d="M429.2,145.34c.68,5.29-.56,9.77-2.76,10s-4.54-3.89-5.23-9.18.55-9.79,2.75-10S428.51,140,429.2,145.34Z"/><path class="cls-21" d="M427.65,142.37c.41,2.06,0,3.87-1,4s-2.07-1.33-2.48-3.39.05-3.85,1-4S427.24,140.33,427.65,142.37Z"/><path class="cls-9" d="M336.51,188.69s-14.6-6.15-23.67,11c-5.18,10.37.33,21.07,16.53,25,6.49,1,28.21,17.18,37.93,31.13s32.75,20.1,43.44,1.29,31.45-41.82,45.39-49.93,17.18-18.81,4.55-26.56-26.6,3.56-33.41,2.58-16.85-32.11-40.84-29.5c-12.31,2.6-23.66,7.78-40.84,28.85C341,188.05,340.07,189,336.51,188.69Z"/><g class="cls-4"><path class="cls-22" d="M329.37,224.68a21.42,21.42,0,0,1,4.14-.76,26.9,26.9,0,0,1,4.21,0,34.71,34.71,0,0,1,4.19.63,20.83,20.83,0,0,1,2.06.55,19.71,19.71,0,0,1,2,.63c.66.27,1.35.49,2,.78l1.94.92a41.06,41.06,0,0,1,3.68,2.15c1.15.83,2.38,1.57,3.44,2.51l1.65,1.37,1.58,1.34,6.35,5.44c1.07.88,2.09,1.86,3.22,2.65l3.28,2.5,3.26,2.51,3.46,2.28c1.14.74,2.27,1.51,3.48,2.22l3.56,2.15-1.91.34c4.79-6.07,9.32-12.36,14.39-18.36,1.27-1.5,2.6-3,3.94-4.41l2.07-2.13,2.18-2a57.71,57.71,0,0,1,4.68-3.71,43.48,43.48,0,0,1,5.12-3.12,23,23,0,0,1,2.69-1.3l1.36-.62,1.42-.51c1.88-.7,3.7-1.26,5.54-1.87l5.47-1.9c1.81-.67,3.6-1.37,5.38-2.12s3.5-1.57,5.19-2.49a30.66,30.66,0,0,0,4.8-3.09,18.25,18.25,0,0,0,3.9-4.14,13.76,13.76,0,0,0,2.07-5.34,13.8,13.8,0,0,1-1.63,5.61,18.49,18.49,0,0,1-3.75,4.56,31.18,31.18,0,0,1-4.73,3.54,55.4,55.4,0,0,1-5.17,2.85c-1.76.85-3.55,1.67-5.36,2.43s-3.61,1.46-5.45,2.15-3.68,1.32-5.41,2l-1.33.52-1.26.63c-.85.42-1.7.82-2.51,1.31a43.59,43.59,0,0,0-4.75,3.05c-1.52,1.12-3,2.35-4.38,3.61l-2.05,2-2,2.06c-1.27,1.41-2.55,2.84-3.77,4.32-2.47,2.95-4.82,6-7.18,9.09s-4.76,6.14-7.18,9.2l-.82,1-1.09-.69-3.58-2.2c-1.19-.71-2.35-1.56-3.52-2.35l-3.47-2.41-3.33-2.63-3.3-2.64c-1.13-.85-2.1-1.85-3.14-2.78l-6.15-5.66-3.07-2.8a39.21,39.21,0,0,0-3.18-2.6c-1.11-.78-2.25-1.54-3.43-2.23l-1.79-1c-.6-.32-1.24-.58-1.86-.87a15.19,15.19,0,0,0-1.91-.76c-.65-.23-1.29-.48-2-.65a28.41,28.41,0,0,0-8.14-1.17A20,20,0,0,0,329.37,224.68Z"/><path class="cls-22" d="M453.74,189.41s.32.87.64,2c.16.51.34,1.12.55,1.77.08.33.21.62.29.94s.2.62.33.9a14.91,14.91,0,0,0,.76,1.72,6.68,6.68,0,0,0,.41.8,7.6,7.6,0,0,0,.44.74c.16.21.27.47.42.67s.24.38.35.52c.2.31.32.52.32.52a2.57,2.57,0,0,1-.63,0,5.44,5.44,0,0,1-2.51-.86,4.34,4.34,0,0,1-.94-.78,6.12,6.12,0,0,1-1.44-2.26,7.08,7.08,0,0,1-.45-2.57,6.7,6.7,0,0,1,.37-2.18A5.08,5.08,0,0,1,453.74,189.41Z"/></g><g class="cls-4"><path class="cls-23" d="M416.45,163.46a10.34,10.34,0,0,1,1.08-1.12c.35-.32.79-.74,1.32-1.17s1.15-.92,1.87-1.38a24.27,24.27,0,0,1,5.17-2.62c.51-.18,1-.34,1.54-.54s1.08-.27,1.61-.41a28.62,28.62,0,0,1,3.35-.6c1.13-.15,2.29-.11,3.41-.16s2.21.16,3.28.25,2.05.4,3,.6a17.49,17.49,0,0,1,2.62.79,13.27,13.27,0,0,1,2.15.81c.61.29,1.15.56,1.59.76.88.44,1.37.71,1.37.71l-1.48-.44c-.46-.12-1-.3-1.67-.5a22.17,22.17,0,0,0-2.21-.51,25,25,0,0,0-2.58-.52l-2.95-.38c-1,0-2.08-.09-3.13-.11s-2.16.05-3.24.2a25.87,25.87,0,0,0-3.19.52c-.52.13-1,.22-1.55.35s-1,.29-1.48.45c-1,.27-1.89.67-2.78,1s-1.68.71-2.4,1.12a31.82,31.82,0,0,0-3.45,2C416.9,163.12,416.45,163.46,416.45,163.46Z"/><path class="cls-23" d="M326,162.59a22.58,22.58,0,0,1,4.44-1.89,29,29,0,0,1,4.88-1.09,28,28,0,0,1,2.82-.23c.95,0,1.94,0,2.92.11a18.65,18.65,0,0,1,2.9.47l1.4.32c.46.15.9.33,1.33.49s.86.31,1.27.47l1.15.61c.37.2.73.4,1.09.58s.62.45.93.67c.59.45,1.13.85,1.58,1.23l1.08,1.1c.57.6.89,1,.89,1s-.41-.27-1.09-.76c-.35-.22-.75-.52-1.22-.85s-1.1-.6-1.7-.94a13.79,13.79,0,0,0-2-1l-1.14-.48L346.3,162c-.41-.12-.83-.29-1.27-.38s-.87-.18-1.32-.27A19.51,19.51,0,0,0,341,161c-.93-.13-1.88-.11-2.79-.15s-1.83,0-2.71.11-1.72.13-2.52.23-1.56.24-2.26.35c-1.4.27-2.58.49-3.37.72S326,162.59,326,162.59Z"/></g><g class="cls-4"><path class="cls-24" d="M176.91,415.93a16.44,16.44,0,0,1,.05,2c0,.56,0,1.18,0,1.72,0,.12,0,.25,0,.38a1.88,1.88,0,0,1,.06.29c.08.14.11.21.12.19s0,0,.06,0a.14.14,0,0,0,.15.09,1,1,0,0,1,.26.11l.4,0a4.28,4.28,0,0,0,.85.11,6,6,0,0,1,.85.07,9.12,9.12,0,0,1,2,.25s-.14.18-.38.45a8.47,8.47,0,0,1-1.17,1c-.26.14-.57.32-.89.47a3.59,3.59,0,0,1-1.16.36c-.22,0-.43.07-.67.09a7.53,7.53,0,0,1-.8-.09,1.83,1.83,0,0,1-.88-.29,2.48,2.48,0,0,1-.83-.61,3.18,3.18,0,0,1-.8-1.79,5.34,5.34,0,0,1,0-.8c0-.23.08-.47.13-.69a5.22,5.22,0,0,1,1-2A5.14,5.14,0,0,1,176.91,415.93Z"/><path class="cls-24" d="M221.24,439.52s.36,1.38.71,3.35c.19,1,.38,2.08.62,3.25a16.67,16.67,0,0,0,.43,1.66,2.49,2.49,0,0,0,.54,1s-.06,0-.07,0l.47,0a.39.39,0,0,1,.21,0,7.92,7.92,0,0,0,1.52-.39c1.07-.38,2.1-.85,3-1.23,1.79-.83,3.13-1.34,3.13-1.34a12.91,12.91,0,0,1-2.14,2.77,13.33,13.33,0,0,1-2.89,2.22,7.89,7.89,0,0,1-2.13.87l-.77.1a4.49,4.49,0,0,1-.52,0,3,3,0,0,1-1.88-.76,4.94,4.94,0,0,1-1.31-2.45,9.88,9.88,0,0,1-.27-2.15,16.18,16.18,0,0,1,.31-3.58A13.93,13.93,0,0,1,221.24,439.52Z"/><path class="cls-24" d="M176.11,462.35s.18,2.09.22,5.15c0,1.53,0,3.32,0,5.2,0,.94,0,1.9.08,2.85a20.78,20.78,0,0,0,.28,2.75,3.85,3.85,0,0,0,.22.71l-.07-.08h0l-.05,0-.26-.09v0h0l.37.11s.13,0,.17,0h0a.08.08,0,0,1,.08,0,11.49,11.49,0,0,0,2.41-.54c.86-.31,1.72-.6,2.51-.92l2.28-.89c2.83-1.16,4.8-1.84,4.8-1.84a27.35,27.35,0,0,1-4,3.36c-.63.45-1.34.92-2.12,1.39a20,20,0,0,1-2.53,1.36c-.47.19-.93.43-1.46.59a7,7,0,0,1-1.78.43,4,4,0,0,1-.69,0,2.92,2.92,0,0,1-.55-.05l-.37-.09v0h0c-.52-.18-.16-.05-.28-.11l-.11-.07-.23-.14a1.74,1.74,0,0,1-.34-.31,4.55,4.55,0,0,1-1-2.11,23.13,23.13,0,0,1-.06-6.37,43.4,43.4,0,0,1,.89-5.24A35,35,0,0,1,176.11,462.35Z"/><path class="cls-24" d="M312.69,461.33a13.94,13.94,0,0,1,1.17,2.12c.3.61.59,1.35.88,2.11l.43,1.09c.08.16.16.27.2.36s0,0-.07-.07a.9.9,0,0,0-.4-.26l0,0-.44,0h.05l.07,0h.1l-.11,0a.43.43,0,0,0-.22.06c-.12,0-.08,0,0,0l.07-.06a4.78,4.78,0,0,0,.43-.27l1-.74c.65-.49,1.29-1,1.88-1.34a12,12,0,0,1,2.13-1.13,9.18,9.18,0,0,1-.83,2.29,11.71,11.71,0,0,1-1.29,2.08,8.41,8.41,0,0,1-.95,1.06,7.52,7.52,0,0,1-.64.55l-.2.12a1.72,1.72,0,0,1-.34.2q-.27.1-.54.18l-.27,0-.07,0h-.14l-.4,0v0l-.06,0-.08,0a3.51,3.51,0,0,1-.7-.42,3.68,3.68,0,0,1-.46-.63,3.81,3.81,0,0,1-.33-.87,8.62,8.62,0,0,1-.3-1.44,10.53,10.53,0,0,1,0-2.46A8.24,8.24,0,0,1,312.69,461.33Z"/><path class="cls-24" d="M261.78,491.82s.31,1.66.67,4c.1.6.21,1.23.31,1.9s.28,1.36.42,2a11.54,11.54,0,0,0,.64,2,2.38,2.38,0,0,0,.83,1.13l.08.06,0,0h0c-.36-.09-.1,0-.18-.05l0,0,.08,0,.59.12c.21-.07.25,0,.62-.07a9.43,9.43,0,0,0,1.88-.56c.62-.29,1.24-.58,1.84-.89l1.68-.92,3.55-2A15.64,15.64,0,0,1,272.4,502a13.54,13.54,0,0,1-1.48,1.43,14.58,14.58,0,0,1-1.9,1.39,8.94,8.94,0,0,1-2.52,1.06,5.74,5.74,0,0,1-1.78.13l-.6-.11h-.06l0,0-.19,0,0,0,0,0-.23-.09-.45-.25a4.87,4.87,0,0,1-2-2.66,10.26,10.26,0,0,1-.54-2.58,18.67,18.67,0,0,1,.15-4.38A17.06,17.06,0,0,1,261.78,491.82Z"/><path class="cls-24" d="M219.7,519.54s.43,1.26.91,3.05c.25.89.52,1.91.88,2.89.1.23.19.47.29.7l.32.6a1.55,1.55,0,0,0,.53.54.11.11,0,0,1,.08,0v0h0s-.35,0-.18,0h0l0,0h.06l.24,0c.41,0,.34-.09.43-.07a3.87,3.87,0,0,0,1-.69,15.31,15.31,0,0,0,1.87-2.18c1.12-1.54,1.84-2.59,1.84-2.59a9.4,9.4,0,0,1-.25,3.29,8.29,8.29,0,0,1-1.44,3.24,5.43,5.43,0,0,1-1.77,1.59,5,5,0,0,1-1.33.39l-.24,0h-.06l-.2,0h-.06l-.21,0c-.27,0-.57-.09-.85-.16a4.15,4.15,0,0,1-2.09-2,8.59,8.59,0,0,1-.63-2.06,11.92,11.92,0,0,1,0-3.43A11.24,11.24,0,0,1,219.7,519.54Z"/><path class="cls-24" d="M135.81,526.84a24,24,0,0,1,.88,2.89c.22.85.43,1.84.65,2.87.11.51.21,1,.34,1.54a9.51,9.51,0,0,0,.4,1.4,1.18,1.18,0,0,0,.17.35.62.62,0,0,0-.17-.11l-.11,0-.32,0,0,0,.21,0H138a.19.19,0,0,0-.09,0s-.1,0-.14,0-.05,0,0,0l.07,0a1.87,1.87,0,0,0,.45-.29,9.54,9.54,0,0,0,1-.91c.34-.36.65-.68.93-1,1.18-1.26,2.1-2.13,2.1-2.13a10.09,10.09,0,0,1-.59,3,12.42,12.42,0,0,1-.57,1.39,8.9,8.9,0,0,1-1,1.52,4.15,4.15,0,0,1-.83.77l-.28.18a1.31,1.31,0,0,1-.4.2c-.18.06-.38.11-.56.15l-.29,0h-.38c-.56-.09-.16,0-.3,0l0,0-.08,0a1.15,1.15,0,0,1-.31-.11,2.35,2.35,0,0,1-.82-.65,3.88,3.88,0,0,1-.67-1.17,10.88,10.88,0,0,1-.59-3.76,17.83,17.83,0,0,1,.26-3.09A12.59,12.59,0,0,1,135.81,526.84Z"/><path class="cls-24" d="M349.47,503.42s.1.5.29,1.41.42,2.18.78,3.66a21.17,21.17,0,0,0,1.6,4.67,2.7,2.7,0,0,0,1.32,1.32,1.23,1.23,0,0,0,.34,0h.12c.06,0-.4.06-.2,0v0h.08l.37-.09c.64-.09.66-.31.95-.4a11.18,11.18,0,0,0,2-1.71c.64-.69,1.3-1.4,1.88-2.12,1.18-1.44,2.24-2.89,3.16-4.14,1.82-2.49,3.13-4.17,3.13-4.17a26,26,0,0,1-1.61,5,32.18,32.18,0,0,1-2.51,4.83,19.74,19.74,0,0,1-1.9,2.54,12.42,12.42,0,0,1-2.62,2.33,6.1,6.1,0,0,1-1.93.74l-.38.08,0,0-.27,0-.16,0h-.28a3.91,3.91,0,0,1-1.17-.27,4.18,4.18,0,0,1-1.78-1.33,7.24,7.24,0,0,1-.93-1.58,12.29,12.29,0,0,1-.77-3,17.47,17.47,0,0,1-.15-2.63A19.74,19.74,0,0,1,349.47,503.42Z"/><path class="cls-24" d="M310.66,566.66s.57,1.28,1.19,3.13c.34.9.7,2,1.1,3,.22.54.43,1.07.67,1.56.14.21.25.48.38.66l.2.29.19.18c.05.08.11.13.14.13s.08.09.1.07,0,0,.05,0H315l.24,0,.09,0,.24,0c.21-.09.43-.13.66-.24a13.23,13.23,0,0,0,2.51-1.6c1.47-1.2,2.53-2.14,2.53-2.14a9,9,0,0,1-1.21,3.24,8.22,8.22,0,0,1-1,1.42,7.9,7.9,0,0,1-1.51,1.4,7.1,7.1,0,0,1-1,.56,3.3,3.3,0,0,1-.67.23l-.36.11-.24,0-.24,0h-.12l0,0h-.18l-.11,0a4.56,4.56,0,0,1-.9-.14,3.38,3.38,0,0,1-.76-.38,2.1,2.1,0,0,1-.62-.49l-.48-.52-.34-.54a7.72,7.72,0,0,1-.51-1,10.76,10.76,0,0,1-.57-2,15.26,15.26,0,0,1-.25-3.5A13.28,13.28,0,0,1,310.66,566.66Z"/><path class="cls-24" d="M413.05,502.13a24.42,24.42,0,0,1,1.64,2c.47.58,1,1.28,1.46,1.91a4.43,4.43,0,0,0,.69.67s0,0,0,0-.08-.05-.13-.05a.06.06,0,0,0-.08,0h-.05l-.34,0h0l.17-.06c.07,0,.15,0,.05,0a.34.34,0,0,0-.24.09,6.47,6.47,0,0,0,.66-.84c.25-.37.49-.75.74-1.1.47-.74.95-1.46,1.41-2.07a17,17,0,0,1,1.69-2,10.44,10.44,0,0,1-.08,2.66A12.6,12.6,0,0,1,420,506a9.86,9.86,0,0,1-.63,1.44,6.34,6.34,0,0,1-1.13,1.54,3.64,3.64,0,0,1-.86.54,1.75,1.75,0,0,1-.29.11l-.19,0A2.26,2.26,0,0,1,415,509a4.78,4.78,0,0,1-1.12-1.56,9.45,9.45,0,0,1-.8-2.67A8.6,8.6,0,0,1,413.05,502.13Z"/><path class="cls-24" d="M448.75,455.25a27.13,27.13,0,0,1,1.55,2.87c.39.85.86,1.84,1.36,2.91.24.5.5,1,.75,1.48.14.21.28.43.4.58s.26.2,0,.09a.55.55,0,0,0-.27,0l-.36,0h0l0,0h.05l.11,0c.29,0,0-.07-.09,0s0,0,.05-.05a2.88,2.88,0,0,0,.19-.24,13.42,13.42,0,0,0,.83-1.37c.56-1,1.07-2,1.5-2.8a27.76,27.76,0,0,1,1.66-2.82,13.81,13.81,0,0,1,0,3.33,14.91,14.91,0,0,1-.71,3.36,8.2,8.2,0,0,1-.84,1.91,3,3,0,0,1-.37.53,2.81,2.81,0,0,1-.59.61,2.94,2.94,0,0,1-.92.47l-.12,0h-.09c.07,0-.7.09-.38.06a2.37,2.37,0,0,1-.74-.15,2.92,2.92,0,0,1-1.4-1.13,7.87,7.87,0,0,1-.61-1,13.29,13.29,0,0,1-.66-1.92,16.8,16.8,0,0,1-.52-3.38A14.1,14.1,0,0,1,448.75,455.25Z"/><path class="cls-24" d="M477.6,466.05s.95,1.28,2.19,3.2c.64.94,1.36,2,2.15,3.09a8.71,8.71,0,0,0,1.25,1.35,1.38,1.38,0,0,0,.44.26s.05,0-.1,0l.15,0h-.11l-.11.05v0a4,4,0,0,0,.91-1.15c.31-.56.65-1.16.93-1.79.59-1.27,1.13-2.48,1.6-3.47.93-2.1,1.7-3.51,1.7-3.51a17.16,17.16,0,0,1,0,3.94,20.81,20.81,0,0,1-.77,4,14.27,14.27,0,0,1-.87,2.26,5.55,5.55,0,0,1-1.91,2.33,3.15,3.15,0,0,1-1.13.4,3.32,3.32,0,0,1-1.22-.15,3.8,3.8,0,0,1-1.45-.94,8.82,8.82,0,0,1-1.52-2.09,12.4,12.4,0,0,1-.9-2c-.26-.63-.43-1.27-.6-1.83A16.63,16.63,0,0,1,477.6,466.05Z"/><path class="cls-24" d="M445.21,561.37a20.51,20.51,0,0,1,1.34,2c.35.58.72,1.27,1.1,1.95a17.33,17.33,0,0,0,1.19,1.92,2.65,2.65,0,0,0,.52.56,1.34,1.34,0,0,0,.3.22,1.38,1.38,0,0,0,.66-.11,4.57,4.57,0,0,0,.84-.4c.55-.31,1-.65,1.4-.87l.59-.36s0,.27-.1.71a4.32,4.32,0,0,1-.2.76,5.14,5.14,0,0,1-.43.95,3.86,3.86,0,0,1-.79,1.05,3.39,3.39,0,0,1-1.55.91,3.11,3.11,0,0,1-2.2-.33,4.12,4.12,0,0,1-1.45-1.26,8.12,8.12,0,0,1-1.27-2.79,9.4,9.4,0,0,1-.29-2.47A7.64,7.64,0,0,1,445.21,561.37Z"/><path class="cls-24" d="M525,532.64l3.4,2.44c.5.36,1,.7,1.61,1a6.64,6.64,0,0,0,1.66.73,1.5,1.5,0,0,0,.29,0c.08,0,.06-.05.09,0s0-.09-.12,0c.05-.07.2-.2.11-.16s-.06.09,0,0a6.46,6.46,0,0,0,.33-1.9c.12-1.52.14-3.16.18-4.68s0-3,.09-4.23c.08-2.51.32-4.24.32-4.24a24.23,24.23,0,0,1,1.41,4,32.06,32.06,0,0,1,.83,4.27,23.09,23.09,0,0,1,.19,5.11,8.7,8.7,0,0,1-.71,2.93,5,5,0,0,1-.34.52,1.88,1.88,0,0,1-.29.33,3.46,3.46,0,0,1-1.14.65,4.7,4.7,0,0,1-1.11.07,5.3,5.3,0,0,1-.87-.2,6.66,6.66,0,0,1-2.24-1.48,13.88,13.88,0,0,1-1.46-1.57A15.35,15.35,0,0,1,525,532.64Z"/><path class="cls-24" d="M516.64,431a19.62,19.62,0,0,1,2.28.7c.63.2,1.38.51,2,.63a1.11,1.11,0,0,0,.27,0s0,0-.15,0a.4.4,0,0,0-.2.07l0,0-.22.16h0l0,0,0-.07a1.13,1.13,0,0,0-.29.47.33.33,0,0,0-.05.12s0,0,0,0a1.67,1.67,0,0,0-.1-.42c-.19-.7-.48-1.53-.72-2.31s-.44-1.55-.58-2.24a12.88,12.88,0,0,1-.31-2.39,9.19,9.19,0,0,1,1.85,1.58,13.63,13.63,0,0,1,1.48,1.91,11.07,11.07,0,0,1,1.2,2.66,5,5,0,0,1,.17.9,3.71,3.71,0,0,1,0,.65,1.58,1.58,0,0,1-.1.43,1.9,1.9,0,0,1-.45.76l-.08.08-.24.19-.13.08-.51.18a2.79,2.79,0,0,1-.81,0,3.09,3.09,0,0,1-1-.31,6.15,6.15,0,0,1-2-1.74A7.09,7.09,0,0,1,516.64,431Z"/><path class="cls-24" d="M542.34,442.69s1.66.83,3.91,2.22c1.14.67,2.46,1.52,3.84,2.29a9,9,0,0,0,1.95.89c.11,0,.21,0,0,0a.53.53,0,0,0-.18,0,.61.61,0,0,0-.14.07l-.07,0-.25.23h0l.1-.13a1.08,1.08,0,0,0-.21.29c-.07.23,0,0,0-.09s0-.31,0-.51a23.54,23.54,0,0,0-.47-2.4c-.2-.81-.4-1.64-.59-2.42-.4-1.59-.77-3.09-1-4.41-.57-2.62-.77-4.45-.77-4.45a27.46,27.46,0,0,1,2.4,3.85,37.32,37.32,0,0,1,1.94,4.2c.31.79.63,1.6.9,2.47a21.12,21.12,0,0,1,.62,2.78,5.69,5.69,0,0,1,0,.83,3.2,3.2,0,0,1-.17,1.23,3.41,3.41,0,0,1-.32.6l-.12.13h0l-.24.22,0,0-.13.07a2,2,0,0,1-.3.14,1.51,1.51,0,0,1-.51.11,2.68,2.68,0,0,1-1.25-.14,10,10,0,0,1-2.57-1.48,26.32,26.32,0,0,1-3.47-3.18A25.7,25.7,0,0,1,542.34,442.69Z"/><path class="cls-24" d="M581.65,487.28s.37.33,1,.89l2.61,2.36L587,492a13.9,13.9,0,0,0,1.91,1.38c.28.18.66.25.52.2s-.39.12-.44.14,0-.05,0-.05l-.06.05a.54.54,0,0,0-.09.15.75.75,0,0,0,0-.15,14.44,14.44,0,0,0,0-2.47c-.16-1.83-.37-3.73-.55-5.52s-.37-3.47-.47-4.91a48.3,48.3,0,0,1-.18-4.9,35.06,35.06,0,0,1,1.89,4.56,44.35,44.35,0,0,1,1.38,4.82,36.74,36.74,0,0,1,.93,5.75,11.34,11.34,0,0,1-.14,3.29,4,4,0,0,1-.16.55,5.06,5.06,0,0,1-.24.46,1.09,1.09,0,0,1-.2.29l-.07.07,0,0-.22.19a3.59,3.59,0,0,1-.44.28,2.45,2.45,0,0,1-.91.18,3.6,3.6,0,0,1-2-.76,11,11,0,0,1-2.05-2,20.35,20.35,0,0,1-1.44-2A23,23,0,0,1,581.65,487.28Z"/><path class="cls-24" d="M577.5,530s.37.45,1,1.26l2.55,3.36c.54.67,1.11,1.39,1.71,2.17a19.9,19.9,0,0,0,2,2.1,4.66,4.66,0,0,0,.46.31c.13.07.19,0,0,0h-.1l-.06,0-.22.09h0c.06,0,.16-.09.16-.11a.31.31,0,0,0-.19.11c-.07.07,0,0,0,0a2.46,2.46,0,0,0,.19-.45,17.5,17.5,0,0,0,.66-3.05c.31-2.19.51-4.46.68-6.6s.23-4.13.29-5.87c.13-3.43,0-5.8,0-5.8a15.65,15.65,0,0,1,.65,1.52,24.55,24.55,0,0,1,1.1,4.16,41.12,41.12,0,0,1,.63,6,38.1,38.1,0,0,1-.34,7,16.11,16.11,0,0,1-.93,3.69,4.68,4.68,0,0,1-.58,1.05,2.79,2.79,0,0,1-.26.32,2.74,2.74,0,0,1-.5.4,2.28,2.28,0,0,1-.21.11l-.28.12-.15,0a1.65,1.65,0,0,1-.31,0,2.86,2.86,0,0,1-1.62-.47,7,7,0,0,1-.83-.69,13.1,13.1,0,0,1-2-2.77,27.6,27.6,0,0,1-1.34-2.54A32.55,32.55,0,0,1,577.5,530Z"/></g><g class="cls-3"><path class="cls-15" d="M368.06,721.77C206.23,728,101.73,550.7,101.73,550.7l-.89.13a162.1,162.1,0,0,0,15.82,47.07c40.3,77.61,81.86,104.7,84.47,118.64s17,57.1,43.15,73.24c4.36,2.62,6.54-7,6.54-7s1.74,10.46,9.15,11.76,13.08-7.84,13.08-7.84-.87,3.92,2.19,3.92,7.84-4.36,7.84-4.36-.87,5.22,2.61,6.11,26.16-12.22,32.26-17c18.31,2.62,64.78,5.42,105.09-3.65,25.69,12.61,44.86,18.14,42.83,5.54,12.61,7.07,13.11,2.53,13.11-3.52,10.59,10.59,12.44,8,14,2.67s12.66-32.9,39.12-66.54,72.57-86.56,94.49-144a125.66,125.66,0,0,0,8.4-38.58C620.07,610.32,512.33,716.27,368.06,721.77Z"/></g><g class="cls-4"><path class="cls-24" d="M501,743.32c-9.72,19.92-15.56,30.13-24.3,12.63-.49,4.86-2.44,18-17,12.63,1.45,13.63-34,2-47.64-12.63s-2.91,11.17-16.06,11.68c-82.14,5.82-131.25-21.89-118.12-11.19s23.33,12.14,15.07,18-14.1,3.9-14.1-4.37c-9.23,11.18-21.39,9.72-25.29-6.33-5.34,14.1-9.71,16.54-23.33-2.42-20.41-32.09,12.65-29.65-3.39-38.41-28.81-16.23-52.52-40.5-68.3-59.43,23.18,29.72,40.93,44.12,42.62,53.08,2.62,14,17,57.1,43.15,73.24,4.36,2.62,6.54-7,6.54-7s1.74,10.46,9.15,11.76,13.08-7.84,13.08-7.84-.87,3.92,2.19,3.92,7.84-4.36,7.84-4.36-.87,5.22,2.61,6.11,26.16-12.22,32.26-17c18.31,2.62,64.78,5.42,105.09-3.65,25.69,12.61,44.86,18.14,42.83,5.54,12.61,7.07,13.11,2.53,13.11-3.52,10.59,10.59,12.44,8,14,2.67s12.66-32.9,39.12-66.54c9.42-12,21.31-26.39,33.73-42.56l-1.2,1.1C536.48,695.68,510.71,723.39,501,743.32Z"/></g><path class="cls-6" d="M73.33,584s-41.46,6.29-53.4,30.14C12.4,627.3,16.17,582.07,73.33,584Z"/><g class="cls-3"><path class="cls-9" d="M460.68,180.61c-12.66-7.81-26.6,3.56-33.41,2.58-5-.72-11.87-18-24.84-25.84,9,9.13,16.38,22.88,19.09,33.76,7.83-5.73,25-6.78,26.59,1s-3.13,15.63-23.45,18.25-29.73,17.2-39.64,37c-20.34-19.82-33.89-35.47-45.89-32.85s-22.41-2.1-21.38-13.55,20.87-15.14,28.18-5.22c.59-10.32,5.56-19.19,11.47-26.22a137.39,137.39,0,0,0-11.81,12.95c-4.55,5.51-5.52,6.49-9.08,6.15,0,0-14.6-6.15-23.67,11-5.18,10.37.33,21.07,16.53,25,4.05.61,14,7.17,23.33,15.38,2.14-4.43,19,10.39,26.71,16.6,9.15,7.41,9.15,7,17.44-7.41,13.07-20.92,32.25-28.33,31.82-23.11s-13.08,16.14-17.44,27a69.71,69.71,0,0,1-4.85,9.66,25.33,25.33,0,0,0,4.36-5.74c10.71-18.8,31.45-41.82,45.39-49.93S473.31,188.36,460.68,180.61Z"/></g><path class="cls-13" d="M388.75,156.23s-30.21,6.62-37.24,39.72C348.21,188.51,356.48,159.14,388.75,156.23Z"/><path class="cls-13" d="M338.69,194.31s-14.89-2.91-16.13,10.33C321.32,209.19,315.54,186.45,338.69,194.31Z"/><path class="cls-25" d="M349.21,314.2s-9.82,11.33-6,26.43S322.75,326.28,349.21,314.2Z"/><path class="cls-25" d="M398.35,314.94s-9.82,11.34-6.05,26.45S371.89,327,398.35,314.94Z"/><g class="cls-4"><path class="cls-26" d="M562.93,330.69q-9.58-15.09-18.22-29.41c7.45,16.39,23.3,53.43,10.86,46.92-15.87-8.33-15.87-18.9-15.87-18.9s-3,59-12.84,55.93-25.72-32.49-25.72-32.49-.76,22.67-3.77,39.3c-13.61-1.52-34-23.44-34-23.44,3.77,24.2-10.59,55.94-10.59,55.94s-7.56-8.31-28.72-40.81c-9.08,24.95-37.8,40.06-37.8,40.06s-6-7.56-3-38.56c-10.59,19.66-39.3,41.59-39.3,41.59s-2.27-8.33,2.26-34c-13.61,21.92-46.1,33.24-46.1,33.24s-6.82-15.1-1.52-43.83C278.92,398.85,251,401.87,251,401.87s-3.79-15.13,15.1-46.11c-21.16,16.62-49.88,13.6-49.88,13.6s1.5-15.86,21.16-47.61c-22.12,7.91-27.08,1-25.64-9.33A274.56,274.56,0,0,0,198.75,342s15.53-7,21.59-8.18c-17,15.12-18.53,50.27-18.53,50.27s14.37,4.15,44.6-7.56c-6,9.44-10.21,31.73-3.78,43.08,5.67,1.52,21.92,0,41.95-15.86-5.28,15.1,6.43,42.69,12.1,43.45C315.2,448,333.91,421,333.91,421s1.67,29.53,9,25.34,31.68-34,31.68-34-.6,30.41,7.75,30.41c22-.6,40.53-33.39,40.53-33.39s24.43,36.35,34,32.79c19.68-8.35,14.31-55.43,14.31-55.43s28.6,24.43,34,21.44,2.39-19.66,2.39-19.66,10.73,20.26,25,14.3,13.12-50.05,13.12-50.05,13.12,15.48,26.23,22S587.36,374.2,562.93,330.69Z"/></g><path class="cls-17" d="M371.84,111.26c22.76-13.64,64.48-14.42,89.52,33.39a38.82,38.82,0,0,0,3,4.9c-16.68-32.82-34.44-56-73.11-53.11a62.83,62.83,0,0,0-30,10.5C367.06,104.66,371.58,105,371.84,111.26Z"/><path class="cls-19" d="M373.61,106.29s3.24-7.61-14.1-26S337.27,13,366,2.17s44.47,21.7,43.92,36.34c19-27.65,49.89-12.47,37.41,33.06,12.48-6,19.52,10.32,8.14,26.59,11.4-2.17,12.47,26.56-2.17,32C443.55,111.17,406.14,80.81,373.61,106.29Z"/><path class="cls-27" d="M431.48,98.56c-13.17-15.62-17-20.82-34.65-17.7s-47.54-22.12-39.3-54.06C363.11,5.19,380,3.24,389.63,3.18c-6.45-3.47-14.35-4.5-23.62-1-28.74,10.86-23.85,59.65-6.5,78.1s14.1,26,14.1,26c32.53-25.48,69.94,4.88,79.7,23.85a13.51,13.51,0,0,0,3.16-1.7C448.23,121.07,439.36,107.9,431.48,98.56Z"/><g class="cls-4"><path class="cls-20" d="M458.48,73.18c-2.46-2.92-6.4-3.86-11.14-1.61.2-.7.35-1.39.53-2.09a69.8,69.8,0,0,1-4.62,9.34C449.21,74.12,454.7,72.28,458.48,73.18Z"/><path class="cls-20" d="M434.35,25c-7.61-1.52-16.61,2.55-24,12.87A32.9,32.9,0,0,1,409,47.6C415.92,35,425.62,27.05,434.35,25Z"/></g><path class="cls-21" d="M387.93,10.36s16.29,6.43,15.87,33C404.22,54.08,414.94,15.94,387.93,10.36Z"/><path class="cls-21" d="M439.7,32s11.23,11.73.59,33.93C436.5,75.15,460.28,47.16,439.7,32Z"/><path class="cls-21" d="M456.08,75s5.22,8-3.42,19.75C449.45,99.66,466.34,86.07,456.08,75Z"/><path class="cls-28" d="M163.22,420.41S100,486.69,136.11,571C110,551,98,468.62,163.22,420.41Z"/><path class="cls-29" d="M500,809.24c1,3.88,2.09,7.93,3.37,12.07C503,819.9,501.83,814.72,500,809.24Z"/><path class="cls-9" d="M503.48,821.69a2.78,2.78,0,0,1-.12-.38,2.47,2.47,0,0,1,.07.38Z"/><path class="cls-28" d="M141,587.29s5.56,14.28,7.92,7.94S137.79,577,141,587.29Z"/><path class="cls-21" d="M326,164.38s15-6.29,28.4,4.56C352.89,164.82,340.54,156.36,326,164.38Z"/><path class="cls-21" d="M421.43,164.6a27.36,27.36,0,0,1,28.41-2.39C445.27,157,431,152.46,421.43,164.6Z"/><path class="cls-21" d="M330.48,146.19s-26.71,51.68-63.75,108.56C248.63,284.91,309.8,169.44,330.48,146.19Z"/><path class="cls-6" d="M121.8,384s-52.71,22.9-61.74,63.82C52.43,484.54,31.63,411,121.8,384Z"/></g></g></svg>