<svg xmlns="http://www.w3.org/2000/svg" viewBox="0 0 883.76 1168.67"><defs><style>.cls-1{isolation:isolate;}.cls-2{fill:#e26b00;}.cls-3{fill:#9b3e11;}.cls-4,.cls-6{fill:#ffb600;}.cls-5{fill:#b87e22;}.cls-12,.cls-13,.cls-14,.cls-17,.cls-18,.cls-19,.cls-20,.cls-6,.cls-7,.cls-8{mix-blend-mode:multiply;}.cls-7{opacity:0.3;}.cls-8,.cls-9{fill:#ff9d00;}.cls-10{fill:#fff;}.cls-11{fill:#b8babc;}.cls-12,.cls-13{fill:#d7c7a5;}.cls-12,.cls-17{opacity:0.4;}.cls-13,.cls-22{opacity:0.5;}.cls-14{fill:#f4efe9;}.cls-15,.cls-17{fill:#ce3000;}.cls-16{fill:#ff8e89;}.cls-18,.cls-19{fill:#e18d00;}.cls-18{opacity:0.8;}.cls-21{fill:#a1a09e;}.cls-22{fill:#934f2a;mix-blend-mode:screen;}</style></defs><g class="cls-1"><g id="Layer_1" data-name="Layer 1"><path class="cls-2" d="M149.85,1144.71a2,2,0,0,0,.55,1.13,2,2,0,0,0,2.47,2.11c14-4.07,26.6-16.21,41.31-6.7,6.64,4.29,12.3,9.88,18.81,14.34,2.55,1.74,22.49,15.69,24.71,7.84,0,0,0-.07.07-.07,2.58-3.67,3.34-8.38,6.18-11.86a20.55,20.55,0,0,1,12.68-7.36c7.85-1.41,15.32-.89,23.21-.39a.31.31,0,0,0,.31-.24,5,5,0,0,1,.52.07,1,1,0,0,0,.15-2c-14.06-1.83-27.89-20.52-29.29-34.09-1.33-13,3.52-25.72,2.32-38.67-1.87-19.73-16.47-32-36-31.77-23.37.29-35.13,18.94-46.84,36.34-8,11.88-18.34,24-23,37.76C144,1123.12,147.65,1132.82,149.85,1144.71Z"/><path class="cls-3" d="M234.11,1166.73c-5.41,0-14.64-5.54-21.43-10.22l-.22-.13c-3.06-2.12-6-4.49-8.77-6.77a109.53,109.53,0,0,0-10-7.58,19.9,19.9,0,0,0-11-3.42c-6.05,0-11.84,2.7-18,5.53a79.72,79.72,0,0,1-11.59,4.71,2.91,2.91,0,0,1-.82.12h0a3,3,0,0,1-2.8-2.76,3.12,3.12,0,0,1-.59-1.35c-.41-2.28-.89-4.48-1.35-6.64-1.94-9-3.76-17.45-.45-27.33,3.56-10.63,10.44-20.2,17.09-29.47,2.06-2.85,4.08-5.71,6-8.51l1.11-1.64c11.5-17.11,23.39-34.81,46.51-35.11h.55c20.26,0,34.56,12.82,36.45,32.61.6,6.53-.3,13-1.19,19.33s-1.79,12.86-1.14,19.33c1.34,13.19,15,31.49,28.47,33.25a1.92,1.92,0,0,1-.19,3.83l-.23,0a1.45,1.45,0,0,1-.67.2l-.92-.07c-3.84-.24-7.47-.46-11.13-.46a61,61,0,0,0-11,.9,19.62,19.62,0,0,0-12.12,7,24,24,0,0,0-3.22,6.05,29.23,29.23,0,0,1-2.92,5.77v0C238.08,1165.25,236.92,1166.73,234.11,1166.73Zm-51.42-30a21.39,21.39,0,0,1,12,3.7,108.63,108.63,0,0,1,10.21,7.7c2.76,2.26,5.64,4.61,8.62,6.66l.22.15c9.29,6.38,16.52,9.91,20.38,9.91,2,0,2.48-.94,2.69-1.72a1,1,0,0,1,.28-.44,26.87,26.87,0,0,0,2.65-5.31,25.06,25.06,0,0,1,3.51-6.51,21.43,21.43,0,0,1,13.23-7.7,62.66,62.66,0,0,1,11.32-.92c3.72,0,7.38.24,11.25.48l.52,0a1.36,1.36,0,0,1,1-.17c-14.34-2-28.51-20.87-29.95-35-.67-6.68.24-13.34,1.14-19.76.87-6.2,1.76-12.6,1.18-18.91-1.79-18.8-15.37-30.92-34.59-30.92h-.54c-22.13.26-33.74,17.56-45,34.27l-1.11,1.65c-1.91,2.83-3.95,5.68-6,8.56-6.57,9.16-13.35,18.63-16.85,29-3.13,9.38-1.43,17.23.53,26.33.46,2.18.94,4.4,1.36,6.7a1.05,1.05,0,0,0,.31.64,1,1,0,0,1,.26.65c0,.61.41,1.28,1,1.28h0a1.65,1.65,0,0,0,.3,0,80.36,80.36,0,0,0,11.34-4.59C170,1139.66,176.23,1136.77,182.69,1136.77Z"/><path class="cls-2" d="M513.86,1078.43c10.54,16.72,18.53,36.81,21.51,56.33.39,2.53,2.45,19.68,7.79,20.37a2.15,2.15,0,0,0,2.19.61c3.92-1.35,6.41-4.68,9.08-7.66a65.6,65.6,0,0,1,14.06-11.36c22.48-14.12,41.65-11.08,66.19-3.74,3.08.93,8.17,3.5,11.24,1,3.47-2.88,2-7.21,1.54-11.15,2.85-6.77,4.17-14.69,9.19-20.35,6.14-7,15.48-4.39,23.71-5.7.23.09.45.13.69.2a1.64,1.64,0,0,0,2.16-1.4c.51-8.22-16.07-12.18-21.79-14.16a102.55,102.55,0,0,0-31.22-5.88c-12.24-.24-24.48,1.39-36.71.93a104.84,104.84,0,0,1-36.31-7.53,55.85,55.85,0,0,0-23-4.6c-9.06.13-22,1.17-20.35,11.46A2.38,2.38,0,0,0,513.86,1078.43Z"/><path class="cls-3" d="M544.72,1156.77a3.1,3.1,0,0,1-2-.77c-3.68-.82-6.37-7.53-8.18-20.5l-.09-.61c-2.86-18.78-10.47-38.65-21.4-56a3.29,3.29,0,0,1-.15-3.33,8.6,8.6,0,0,1,1.81-7c3.75-4.45,12.39-5.14,19.5-5.28H535a56.86,56.86,0,0,1,22.57,4.69,103.11,103.11,0,0,0,36,7.47c6.44.26,13-.11,19.34-.44,5.69-.3,11.57-.63,17.37-.5a103.08,103.08,0,0,1,31.5,6c.73.26,1.65.52,2.68.84,7.56,2.4,20.22,6.36,19.72,14.26a2.61,2.61,0,0,1-3.33,2.24l-.52-.15a56.1,56.1,0,0,1-7.2.43c-6,.11-11.63.24-15.74,4.92-3.37,3.81-5.06,8.84-6.69,13.69-.7,2.07-1.4,4.18-2.23,6.18.07.57.16,1.11.24,1.66.55,3.41,1.17,7.31-2.14,10.05a6,6,0,0,1-4,1.31,20.84,20.84,0,0,1-6.41-1.48l-1.74-.61c-10.67-3.18-22.07-6.14-33.1-6.14-11.44,0-21.71,3.09-32.32,9.77a63.5,63.5,0,0,0-13.87,11.21l-1,1.16c-2.35,2.72-4.8,5.5-8.42,6.74A3.37,3.37,0,0,1,544.72,1156.77ZM535,1065.24l-.75,0c-6.69.08-14.81.71-18.1,4.6a6.83,6.83,0,0,0-1.32,5.77,1,1,0,0,1-.16.67,1.51,1.51,0,0,0,0,1.66c11.06,17.5,18.74,37.63,21.66,56.65l.08.63c2.33,16.61,5.6,18.81,6.9,19a.94.94,0,0,1,.57.28,1.2,1.2,0,0,0,1.2.35c3.16-1.07,5.34-3.57,7.64-6.18l1-1.22A64.69,64.69,0,0,1,568,1135.94c10.93-6.88,21.51-10.08,33.31-10.08,11.26,0,22.83,3,33.65,6.25.55.15,1.16.37,1.82.61,3,1,6.68,2.07,8.55.52,2.49-2.09,2-5.11,1.5-8.36-.11-.65-.22-1.31-.29-1.94a.83.83,0,0,1,.06-.47c.85-2,1.58-4.21,2.29-6.29,1.69-5,3.44-10.23,7.05-14.35,4.64-5.29,11-5.42,17.11-5.55a48.79,48.79,0,0,0,7.17-.43.73.73,0,0,1,.46,0l.4.11a.84.84,0,0,0,.24.06.66.66,0,0,0,.95-.54c.4-6.44-11.85-10.3-18.42-12.36-1.06-.33-2-.61-2.74-.87a101.45,101.45,0,0,0-30.92-5.84c-5.74-.12-11.59.2-17.25.48-6.37.35-13,.7-19.49.44a104.4,104.4,0,0,1-36.62-7.6A54.9,54.9,0,0,0,535,1065.24Z"/><path class="cls-4" d="M474.6,1089.93c4.72,5.09,8.46,9.6,16.11,5.55,2.9-1.5,12.36-9.64,15.32-7a35.53,35.53,0,0,1,4.17,4.94,1.84,1.84,0,0,0,.56,1.55c9.43,9.88,18.36,20.7,20.62,34.65,1,6.14,1.28,11.86,3.33,17.76,1.67,4.72,8.6,21.52,14.94,11.78a8.68,8.68,0,0,0,2.93-7.45c-.38-6.38-.87-13-1.56-19.3-1.15-10.71-6.48-20.7-10.65-30.91a53.91,53.91,0,0,1-1.46-5.49c5.63-2.35,17.69,5.86,21.81,8.65,6.5,4.39,11.87,9.18,19.48,11.53,16.08,5,33.7,6.1,49.46,11.73,4.23,4.88,13.78,7.77,19.35,8.8,6,1.08,11.74-1.35,9.45-7.67a.59.59,0,0,0-.22-.8c-.06-.07-.14-.11-.2-.17a2.88,2.88,0,0,0-.13-.31.92.92,0,0,0-1-.54c-4.63-3.51-7.75-8.6-12.5-12-6-4.25-13.06-6.84-19.45-10.45-8.75-4.94-17.41-10.25-26.28-15.07,19.17,3.36,40.71-6.22,59.35.47,8.72,3.11,27.16,18.58,29.87.56a.68.68,0,0,0-.39-.68c-.12-3-3.07-5.31-5.47-7a137,137,0,0,1-16.55-13.86,1.44,1.44,0,0,0-1.82-.26c-6.66-3.72-14.22-2.74-22.14-2.63a305.57,305.57,0,0,1-31.45-.82,194.26,194.26,0,0,1-34.81-5.84c-10.15-2.81-22.37-5.72-26.54-16.56a.87.87,0,0,0-.75-.61c-1.9-10.32,1.88-23.12,3.69-32.52,3.57-18.35,6.91-36.72,10.75-55a1.83,1.83,0,0,0,0-1,1,1,0,0,0-.18-1.48c-8.34-6.12-20.84-7.34-30.57-4.62-5.92,1.61-14,6.73-11.32,13.65a2.07,2.07,0,0,0-.18,1c.93,14.39,1.29,29.19,1.58,43.64.21,10.9.84,21.7.75,32.56-1.06,2.57-2.18,4.94-4.51,6.72-4.37,3.31-9.85,4.12-14.26,7.14a1.16,1.16,0,0,0-.32.35c-5.61,2.85-11.57,6.68-14.82,12-4.59,7.52-5.22,15.51-12.86,21.08a1.25,1.25,0,0,0-.56,1A1.87,1.87,0,0,0,474.6,1089.93Z"/><path class="cls-5" d="M545.48,1164.06c-6.19,0-10.81-11.19-12.53-16a66,66,0,0,1-2.75-13.32c-.21-1.57-.41-3.15-.67-4.77-2.25-14-11.58-24.72-20.12-33.67a3.69,3.69,0,0,1-1.06-2.19l-.29-.37a25.58,25.58,0,0,0-3.28-3.81.08.08,0,0,0-.07,0c-2.56,0-7.09,3.15-9.81,5a35,35,0,0,1-3.33,2.18,13.55,13.55,0,0,1-6.31,1.76h0c-4.88,0-8.1-3.46-11.51-7.13l-.52-.57a3.38,3.38,0,0,1-.94-2.72,3.91,3.91,0,0,1,1.11-2.35,3.09,3.09,0,0,1,1.16-1.59c4.63-3.35,6.41-7.62,8.48-12.54a58.41,58.41,0,0,1,3.9-8c2.82-4.66,7.66-8.65,15.19-12.52a3.09,3.09,0,0,1,.43-.37,35.45,35.45,0,0,1,7.12-3.53,29,29,0,0,0,7.11-3.61c1.84-1.39,2.79-3.28,3.78-5.59,0-6.75-.18-13.56-.4-20.18-.15-4-.28-8-.36-12-.25-13.27-.62-28.68-1.55-43.57a3.24,3.24,0,0,1,.06-1,8.94,8.94,0,0,1,.59-6.85c2.28-4.53,8-7.49,12.18-8.64a41,41,0,0,1,10.85-1.44c8.17,0,15.74,2.26,21.33,6.36a2.93,2.93,0,0,1,1,3.26,4,4,0,0,1-.09,1.18c-2.63,12.53-5.08,25.37-7.45,37.8-1.09,5.7-2.18,11.43-3.28,17.15-.36,1.81-.78,3.77-1.23,5.82-1.78,8.13-3.77,17.32-2.61,25.11a2.82,2.82,0,0,1,.82,1.17c3.62,9.45,14.39,12.41,23.88,15l1.41.42c9.91,2.74,20.86,4.55,34.45,5.76,6.64.59,14,.87,23.12.87,2.73,0,5.45,0,8.17,0,1.26,0,2.52-.06,3.76-.11,1.63,0,3.24-.11,4.83-.11,4.23,0,9.11.33,13.73,2.66a3.38,3.38,0,0,1,2.93,1,134.82,134.82,0,0,0,16.35,13.69c2.62,1.8,5.62,4.28,6.17,7.61a2.5,2.5,0,0,1,.46,1.79c-1.28,8.45-5.91,10.21-9.57,10.21-5,0-10.87-3.18-16.08-6a55.17,55.17,0,0,0-6.69-3.26,44.12,44.12,0,0,0-15.1-2.33,155.2,155.2,0,0,0-17,1.32,136.65,136.65,0,0,1-18.17,1.38c2.71,1.54,5.39,3.13,8,4.68,3.55,2.06,7.11,4.15,10.69,6.18,2.37,1.34,4.94,2.59,7.41,3.76a85.59,85.59,0,0,1,12.2,6.79,43.68,43.68,0,0,1,6.83,6.44,44.68,44.68,0,0,0,5.28,5.21,2.78,2.78,0,0,1,2,1.45,2.49,2.49,0,0,1,.85,2.1,7.11,7.11,0,0,1-.7,6.52c-1.91,2.73-6.28,3.94-11,3.07-6.55-1.17-15.62-4.24-20.08-9-8.26-2.89-17.23-4.61-25.93-6.27a210.92,210.92,0,0,1-23-5.28c-6.17-1.92-10.81-5.25-15.73-8.78-1.38-1-2.79-2-4.26-3-3.2-2.18-12.89-8.75-18.43-8.75h-.09c.34,1.35.72,2.57,1,3.51.84,2,1.78,4.15,2.71,6.31,3.5,8,7.08,16.23,8,24.94.61,5.72,1.13,12.06,1.56,19.39a10.41,10.41,0,0,1-3.34,8.75C549.46,1162.84,547.58,1164.06,545.48,1164.06Zm-41.05-77.92a4.11,4.11,0,0,1,2.86,1,29.82,29.82,0,0,1,3.74,4.31l.65.87a1.8,1.8,0,0,1,.37,1.37c9,9.38,18.74,20.61,21.16,35.68.26,1.63.48,3.26.69,4.85a63.27,63.27,0,0,0,2.57,12.58c2.32,6.55,6.27,13.51,9,13.51,1,0,2-1.17,2.6-2.15a1.78,1.78,0,0,1,.29-.32,6.83,6.83,0,0,0,2.35-6c-.44-7.27-.94-13.56-1.55-19.22-.88-8.12-4.36-16.11-7.73-23.83-.94-2.18-1.9-4.38-2.79-6.55-.5-1.57-1.12-3.68-1.57-5.83a1.92,1.92,0,0,1,1.11-2.12,8.55,8.55,0,0,1,3-.54c5.93,0,14.07,5,20.5,9.36,1.52,1,3,2.07,4.36,3.09,4.66,3.33,9.07,6.51,14.65,8.23a209.7,209.7,0,0,0,22.63,5.18c9,1.71,18.26,3.5,26.92,6.59a1.85,1.85,0,0,1,.77.52c3.95,4.55,13.34,7.3,18.27,8.19,3.23.56,6.26-.07,7.31-1.57.61-.85.62-2.07.06-3.64a1.94,1.94,0,0,1-.11-.43,1.15,1.15,0,0,1-.14-.2,1.66,1.66,0,0,1-.71-.34,47.69,47.69,0,0,1-6.21-6,39.65,39.65,0,0,0-6.25-5.94,79,79,0,0,0-11.65-6.44c-2.54-1.24-5.14-2.49-7.63-3.9-3.59-2-7.16-4.11-10.74-6.23-5-3-10.3-6-15.51-8.83a1.87,1.87,0,0,1-.86-2.24A1.83,1.83,0,0,1,599,1088c7.34,1.28,16.93.43,25.86-.63a150.1,150.1,0,0,1,17.44-1.38,47.8,47.8,0,0,1,16.36,2.55,57.83,57.83,0,0,1,7.2,3.53c4.81,2.59,10.28,5.52,14.31,5.52,2.17,0,4.75-.76,5.77-6.37a1.73,1.73,0,0,1-.31-.94c-.1-2.09-2.53-4-4.65-5.53a136.71,136.71,0,0,1-16.78-14,1.17,1.17,0,0,1-1.45,0c-5.56-3.1-11.47-2.66-17.35-2.49-1.28,0-2.57.09-3.86.11-2.73,0-5.45,0-8.2,0-9.26,0-16.7-.29-23.46-.91a191.89,191.89,0,0,1-35.12-5.89l-1.39-.37c-9.71-2.68-21.77-6-26.21-16.89a1.84,1.84,0,0,1-1-1.35c-1.61-8.73.55-18.68,2.48-27.49.44-2,.85-3.94,1.2-5.72,1.11-5.73,2.22-11.43,3.29-17.13,2.37-12.45,4.82-25.29,7.47-37.92a2,2,0,0,1-.05-1c-4.87-3.38-11.46-5.25-18.58-5.25a37.11,37.11,0,0,0-9.84,1.31c-3.74,1-8.24,3.5-9.86,6.75a5.23,5.23,0,0,0-.22,4.46,1.85,1.85,0,0,1,0,1.37c.92,15.1,1.28,30.56,1.55,43.85.07,4,.2,8,.34,12,.23,6.75.46,13.76.41,20.68a2.49,2.49,0,0,1-.14.72c-1.18,2.79-2.45,5.44-5.12,7.46a31.92,31.92,0,0,1-8,4.1,34,34,0,0,0-6.35,3.09c-.18.34-.2.3-.54.48-7,3.56-11.6,7.27-14.08,11.31a57.55,57.55,0,0,0-3.62,7.48c-2.07,4.94-4.22,10-9.53,14a1.88,1.88,0,0,1-.78,1.2l.32.59c3.07,3.33,5.51,6,8.77,6h0a10.09,10.09,0,0,0,4.57-1.35c.69-.35,1.72-1.09,3-1.93C497.32,1088.75,501.34,1086.14,504.43,1086.14Z"/><path class="cls-6" d="M598.65,1089.79c7.52,4.08,14.86,8.49,22.22,12.76-6.34-3.09-12.63-6.31-19-9.25-10.38-4.72-20.06-10.38-29.87-16.17-8-4.72-16.53-8.71-23.84-14.42,13.55,3.57,26.1,10,39.28,14.74a52.84,52.84,0,0,0,18.8,3.55c7.2-.13,14.34-1.3,21.51-1.91,8-.66,16.73-1.37,24.67.52,7,1.63,13.71,4.77,20,8.12,2.9,1.5,7.92,5.2,11.27,2.59a4.67,4.67,0,0,0,2-4.09,6.47,6.47,0,0,1,1.83,3.91.68.68,0,0,1,.39.68c-2.71,18-21.15,2.55-29.87-.56C639.36,1083.57,617.82,1093.15,598.65,1089.79Z"/><path class="cls-6" d="M476.44,1090.41c3.69.76,7.42-1.2,10.41-3.16a79.16,79.16,0,0,0,11.11-9c1.61-1.53,3.15-3.22,4.87-4.68s4.78-4.07,7.35-2.42a11,11,0,0,1,2.46,2.24,142.18,142.18,0,0,0,10.16,22.9c3.16,5.94,7.54,12.19,9.31,18.72,2.27,8.25,3.45,16.74,5.83,25,1.47,5.07,3.84,15.72,10.29,16.85a5.88,5.88,0,0,0,3.59-.48,10.19,10.19,0,0,1-2.17,2.9c-6.34,9.74-13.27-7.06-14.94-11.78-2.05-5.9-2.35-11.62-3.33-17.76-2.26-14-11.19-24.77-20.62-34.65a1.84,1.84,0,0,1-.56-1.55,35.53,35.53,0,0,0-4.17-4.94c-3-2.69-12.42,5.45-15.32,7-7.65,4-11.39-.46-16.11-5.55a1.47,1.47,0,0,1-.41-.72A4.44,4.44,0,0,0,476.44,1090.41Z"/><path class="cls-6" d="M538.91,1096.06a53.91,53.91,0,0,0,1.46,5.49c3.2,7.77,7,15.41,9.17,23.33-4.42-12-10.39-23.44-15-35.5a109,109,0,0,1-3.85-11.12c-.39-1.5-1.87-6.31,1.87-5.22a33,33,0,0,1,7.09,3c9.09,5.18,17.43,11.54,26.59,16.69,18.77,10.56,38.45,19,59.46,23.92a39.42,39.42,0,0,1,15.46,7.08c2.63,2,5.44,4.26,8.77,4.87,2.8.52,5.69.31,7.31-1.28a.89.89,0,0,1,.65.52,2.88,2.88,0,0,1,.13.31c.06.06.14.1.2.17a.59.59,0,0,1,.22.8c2.29,6.32-3.41,8.75-9.45,7.67-5.57-1-15.12-3.92-19.35-8.8-15.76-5.63-33.38-6.75-49.46-11.73-7.61-2.35-13-7.14-19.48-11.53C556.6,1101.92,544.54,1093.71,538.91,1096.06Z"/><path class="cls-4" d="M141.21,1137.55c2.56,4.72,11,15.76,15.22,6.2a1.27,1.27,0,0,0,.11-.69,10,10,0,0,0,1-3.88,27.88,27.88,0,0,0,.06-5.7c1.51-7.77,2.88-15.47,7.11-22.59,4.87-8.25,11-15.5,16.49-23.33,6.07-8.67,11.86-24.83,21.78-30.88,10.86,7.88,1.86,34.33-.52,44.81-2.26,9.79-4.15,20.08-3.13,30.16.46,4.35.4,9.4,2.26,13.36a1.28,1.28,0,0,0,.2,1.4,59.51,59.51,0,0,0,16.36,14.47c4.16,2.48,9.78,6.31,14.89,5.9,4.8-.39,6.09-4.35,5.48-8.71-1-6.94-3.45-10.08-8.46-14-4.38-8.31-7.51-16.06-4.77-25.68,2.18-7.55,5.44-14.63,8.54-21.85a147.82,147.82,0,0,0,5.2-14.32c-.09,18.69-1.62,39,12.29,53.67,6.93,7.31,17.63,7.4,26.95,8.07,4.33.28,8.62.44,11.23-1.76a.58.58,0,0,0,.87-.15,11.35,11.35,0,0,0,1.18-3.14,12.51,12.51,0,0,0,.41-2.17.67.67,0,0,0-.38-.64c-.64-3.33-3.75-5.85-7.55-8.07-9.8-5.77-18.44-13.89-22.82-24-2.78-29.21,10.06-58.12,9.31-87.57a36.33,36.33,0,0,0,1.8-19.28c-1.21-7.79-3.51-15.17-5.91-22.66-2.07-6.4-5.64-12.89-7.53-19.44a1,1,0,0,0,.56-.41c11.91-18.56,31.45-27.36,52.63-29.69.87.51,2.11-.6,1.71-1.67a51,51,0,0,0-27.57-28.41c-4.22-1.78-18.24-8.72-22.41-3.46a.58.58,0,0,0-.83.12c-6.9,8.81-13.54,17.08-22,24.41-6.87,6-13.62,12-19.49,18.92-5.76,4.68.92,12.14,5.56,17.6,1.72,6.47,4,12.85,5.2,19.4,1,5.42,2.6,12.4.79,17.8-3.38,10-14.37-1.13-19.77-3.85a1,1,0,0,0-1.1.06c-2.09-.47-4.44.42-6.81,2.22a70.22,70.22,0,0,1-9.88,6.9c-2.6,1.33-5.3,2.27-7.56,4.14a1.45,1.45,0,0,0,.49,2.46c-.23,2,1.6,4,3.56,5.22a42.07,42.07,0,0,0,6,2.92,3.29,3.29,0,0,0,.39.17c-2.66,16.35-14.72,29-25.56,41.4-12.56,14.45-23.67,30.05-30.75,48C136.77,1112.61,134.15,1124.68,141.21,1137.55Z"/><path class="cls-5" d="M232.27,1168.67c-4.88,0-9.78-3-13.71-5.37l-1.35-.81a61.85,61.85,0,0,1-16.86-14.93,3.12,3.12,0,0,1-.72-2.39c-1.34-3.23-1.62-6.86-1.88-10.38-.08-1-.15-2-.26-2.94-1.06-10.41.9-20.94,3.18-30.8.32-1.48.8-3.29,1.33-5.31,2.75-10.56,7.78-29.85.86-36.75-5.85,4.2-10.31,12.39-14.26,19.68a112.8,112.8,0,0,1-5.87,10c-1.9,2.7-3.89,5.36-5.85,8a167.16,167.16,0,0,0-10.55,15.22c-3.91,6.59-5.29,13.66-6.73,21.17l-.11.55a30,30,0,0,1-.09,5.79,12.2,12.2,0,0,1-1,4.15,3.45,3.45,0,0,1-.26,1c-1.8,4-4.33,4.9-6.13,4.9h0c-6.41,0-12.2-10.49-12.44-11-7.24-13.23-4.95-25.49.72-39.79,6.31-16,16.19-31.41,31.08-48.52l2.5-2.85c9.63-11,19.57-22.29,22.36-36.2a37.22,37.22,0,0,1-5.25-2.63c-2-1.22-4.11-3.31-4.44-5.77a3.22,3.22,0,0,1-.92-1.65,3.27,3.27,0,0,1,1.09-3.29,27.48,27.48,0,0,1,5.73-3.33c.72-.33,1.44-.65,2.15-1a59.26,59.26,0,0,0,8.34-5.75l1.28-1c2.7-2.07,5.3-3,7.69-2.67a2.92,2.92,0,0,1,2.24.21,48.49,48.49,0,0,1,4.45,2.85c3.14,2.16,7,4.88,9.69,4.88,1,0,2.12-.32,3-2.83,1.45-4.35.4-10.05-.53-15.1l-.32-1.79a116.18,116.18,0,0,0-3.23-12.45c-.63-2.13-1.26-4.22-1.82-6.35l-.2-.22c-3.66-4.31-8.22-9.64-7.75-14.6a7.33,7.33,0,0,1,2.88-5.14c5.52-6.59,12.1-12.45,19.45-18.85,8.24-7.14,14.74-15.17,21.79-24.18a2.43,2.43,0,0,1,1.61-.94,8.53,8.53,0,0,1,5.73-1.8c5.49,0,12.73,3.18,16.59,4.87l1.49.66a52.59,52.59,0,0,1,28.59,29.44,3.21,3.21,0,0,1-3.68,4.25c-16,1.85-37.72,8.38-50.83,28.79a97.66,97.66,0,0,0,3.59,9.17c1.29,3,2.6,6.07,3.58,9.11,2.56,7.95,4.75,15.13,6,22.92a38.26,38.26,0,0,1-1.76,19.92c.31,13.8-2.33,27.62-4.88,41-2.89,15-5.86,30.59-4.47,45.8,4.93,11.15,14.63,18.61,21.94,22.9,3.31,1.94,7.18,4.66,8.3,8.71a2.4,2.4,0,0,1,.56,1.78,13.5,13.5,0,0,1-.49,2.5A12.87,12.87,0,0,1,292,1143a2.36,2.36,0,0,1-2.08,1.24c-2.42,1.61-5.52,1.81-7.74,1.81-1.31,0-2.67-.09-4-.18l-2.31-.15c-8.9-.59-19-1.26-25.85-8.47-11.65-12.25-12.91-27.94-12.91-43.66-.48,1.24-1,2.51-1.55,3.77l-1.33,3.07a158.1,158.1,0,0,0-7.1,18.54c-2.6,9.12.56,16.54,4.43,23.94,5,4,7.79,7.42,8.85,14.91.46,3.38-.1,6.16-1.65,8.1a7.73,7.73,0,0,1-5.53,2.74C232.89,1168.67,232.57,1168.67,232.27,1168.67Zm-28.87-23.24a56.79,56.79,0,0,0,15.72,13.84l1.38.85c3.73,2.26,8.37,5.07,12.4,4.81a4,4,0,0,0,2.92-1.35c.88-1.09,1.18-3,.87-5.27-.92-6.44-3.14-9.12-7.77-12.71a1.73,1.73,0,0,1-.5-.61c-4.14-7.88-7.92-16.47-4.9-27a158,158,0,0,1,7.27-19l1.32-3.05a143,143,0,0,0,5.15-14.17,1.86,1.86,0,0,1,3.64.57l0,4.87c-.2,17-.4,34.67,11.82,47.54,5.85,6.16,14.77,6.74,23.39,7.31l2.34.15c1.27.09,2.55.15,3.77.15,3,0,4.9-.46,6.1-1.48a2.17,2.17,0,0,1,.83-.39,7.71,7.71,0,0,0,.61-1.85,8.94,8.94,0,0,0,.31-1.37,1.74,1.74,0,0,1-.29-.7c-.43-2.26-2.48-4.37-6.66-6.81-7.84-4.61-18.31-12.69-23.6-24.92a1.78,1.78,0,0,1-.13-.54c-1.51-15.85,1.53-31.78,4.49-47.16,2.53-13.27,5.16-27,4.81-40.54a2,2,0,0,1,.13-.72,34.26,34.26,0,0,0,1.69-18.33c-1.17-7.53-3.35-14.58-5.85-22.38-.93-2.87-2.15-5.74-3.46-8.79a93.37,93.37,0,0,1-4.07-10.68,1.86,1.86,0,0,1,.19-1.46,1.9,1.9,0,0,1,.74-.72c11.08-17.11,29.65-27.57,53.69-30.29a48.79,48.79,0,0,0-26.22-26.51L284,896c-3.63-1.59-10.39-4.57-15.09-4.57-1.74,0-2.94.41-3.59,1.24a2,2,0,0,1-1.26.7h0c-7,8.92-13.51,16.89-21.81,24.07-7.24,6.29-13.69,12.06-19.28,18.7a4.13,4.13,0,0,0-1.78,2.85c-.31,3.37,3.84,8.24,6.89,11.81l.46.55a1.91,1.91,0,0,1,.37.74c.58,2.2,1.25,4.42,1.91,6.64a113.81,113.81,0,0,1,3.31,12.86l.33,1.76c1,5.23,2.17,11.69.39,17-1.5,4.42-4.35,5.35-6.49,5.35-3.8,0-8.06-2.93-11.81-5.53-1.38-1-2.69-1.87-3.72-2.43a1.77,1.77,0,0,1-1,0c-1.42-.3-3.24.35-5.25,1.89l-1.27,1a61.89,61.89,0,0,1-8.9,6.1c-.76.39-1.52.74-2.28,1.09a26.52,26.52,0,0,0-4.44,2.43,1.92,1.92,0,0,1,.65,1.64c-.11.95,1,2.39,2.65,3.39a38.73,38.73,0,0,0,5.76,2.81,2.42,2.42,0,0,1,1.51,2.2c-2.52,15.62-13.18,27.75-23.48,39.48l-2.5,2.83c-14.59,16.79-24.27,31.85-30.43,47.46-5.27,13.34-7.45,24.68-.91,36.63,2,3.76,6.39,9,9.17,9,1,0,1.93-.89,2.73-2.65a1,1,0,0,1,.18-.87,8.29,8.29,0,0,0,.77-3.11,25.86,25.86,0,0,0,.06-5.32,1.74,1.74,0,0,1,0-.56l.18-.83c1.45-7.48,2.94-15.21,7.18-22.35a170.09,170.09,0,0,1,10.78-15.56c1.95-2.61,3.9-5.22,5.78-7.88a108.19,108.19,0,0,0,5.64-9.62c4.43-8.16,9.46-17.38,16.72-21.82a1.88,1.88,0,0,1,2.07.09c10.35,7.53,4.8,28.8,1.5,41.51-.53,2-1,3.77-1.32,5.23-2.2,9.53-4.09,19.72-3.08,29.55.09,1,.18,2,.26,3,.26,3.42.53,6.94,1.81,9.73A1.72,1.72,0,0,1,203.4,1145.43Z"/><path class="cls-6" d="M259.45,954.69a1,1,0,0,1-.56.41,68.91,68.91,0,0,0,2.39,6.71c-1-1.61-2-3.2-3.16-4.72-6.81-9.1-11.31-11.65-22.07-10.49,3.16-6,10.18-9.67,15.8-12.87,5.41-3.09,11.24-5.9,15.9-10.12a.91.91,0,0,0,0-1.26c-10.19-11-23.82-3.81-33.9,3.57-3.86,2.83-11.29,7.51-11.51,13s6.42,8.08,9.28,11.75c3.39,4.42,2.58,11,3.8,16.24,1.9,8,5.93,17.61,4.07,26s-8.51,4.59-14,.34c3.21,1.18,6.07.81,7.54-3.5,1.81-5.4.18-12.38-.79-17.8-1.15-6.55-3.48-12.93-5.2-19.4-4.64-5.46-11.32-12.92-5.56-17.6,5.87-7,12.62-12.93,19.49-18.92,8.49-7.33,15.13-15.6,22-24.41a.58.58,0,0,1,.83-.12c4.17-5.26,18.19,1.68,22.41,3.46a51,51,0,0,1,27.57,28.41c.4,1.07-.84,2.18-1.71,1.67C290.9,927.33,271.36,936.13,259.45,954.69Z"/><path class="cls-6" d="M228,1110.47c2.09-12.69,8.12-25.09,12.77-36.84a317,317,0,0,0,14.84-47.2c-.67,15.76-5,31-7.3,46.52-2,13.54-3.85,29.23,4.2,41.22a59.6,59.6,0,0,0,13.55,14.3c4.33,3.33,8.89,7.21,14.37,8.3,4.1.84,7.07-1.4,9-4.64a8.5,8.5,0,0,1,2.19,4,.67.67,0,0,1,.38.64,12.51,12.51,0,0,1-.41,2.17,11.35,11.35,0,0,1-1.18,3.14.58.58,0,0,1-.87.15c-2.61,2.2-6.9,2-11.23,1.76-9.32-.67-20-.76-26.95-8.07-13.91-14.65-12.38-35-12.29-53.67a147.82,147.82,0,0,1-5.2,14.32C231.85,1101.22,229.81,1105.82,228,1110.47Z"/><path class="cls-6" d="M137.45,1115a51.19,51.19,0,0,0,3.18,14c1.25,2.83,5.1,9.88,9.67,4.31,4.69-5.77,1.13-13.29,3.53-20.13,6.55-18.83,21.52-35.13,35.55-53.57,10.32-13.52,30.31-23.73,42.6-33.39-4.39,17.13-5.89,33.36-12,50.37-2.81,7.82-5,15.78-7.31,23.77a117.61,117.61,0,0,0-4.32,19.39c-1.38,12.74,2,25,13.67,31.87,3.12,1.82,9.82,6,12.52,1.35a6.67,6.67,0,0,0,.67-3.86,18.78,18.78,0,0,1,3.35,9c.61,4.36-.68,8.32-5.48,8.71-5.11.41-10.73-3.42-14.89-5.9a59.51,59.51,0,0,1-16.36-14.47,1.28,1.28,0,0,1-.2-1.4c-1.86-4-1.8-9-2.26-13.36-1-10.08.87-20.37,3.13-30.16,2.38-10.48,11.38-36.93.52-44.81-9.92,6-15.71,22.21-21.78,30.88-5.51,7.83-11.62,15.08-16.49,23.33-4.23,7.12-5.6,14.82-7.11,22.59a27.88,27.88,0,0,1-.06,5.7,10,10,0,0,1-1,3.88,1.27,1.27,0,0,1-.11.69c-4.26,9.56-12.66-1.48-15.22-6.2A34,34,0,0,1,137.45,1115Z"/><g class="cls-7"><path class="cls-8" d="M663.46,1081c2-3.57,5.16-4.92,9.1-4.89a.33.33,0,0,1,.09.63,11.35,11.35,0,0,0-6.66,5.57c-1.25,2.61-.26,5.27-.45,8a.93.93,0,0,1-1.64.49C661.45,1088.27,661.89,1083.81,663.46,1081Z"/><path class="cls-8" d="M653.37,1068c.54.15.35.87-.08,1-3.91,1.09-7.11,2.22-9.55,5.68-2.16,3-1.3,7.38-.28,10.71.15.46-.46.74-.81.5C632.7,1079.39,643.66,1065.3,653.37,1068Z"/><path class="cls-8" d="M616.78,1075.54c2.41-4.5,9.09-6.88,13.91-6.38a.52.52,0,0,1,0,1c-3.74.89-7.21,2.35-9.75,5.33a7.09,7.09,0,0,0-2,5.16c.15,2.13,1.84,3.7,2.44,5.65a.79.79,0,0,1-1,1.05C615.28,1085.94,614.65,1079.61,616.78,1075.54Z"/><path class="cls-8" d="M604.34,1066.8c.57.11.72,1,0,1.06-9.16,1-12.76,10.77-9.48,18.69.39,1-1,1.92-1.58,1C587.55,1079.24,592.82,1064.54,604.34,1066.8Z"/><path class="cls-8" d="M635.33,1119.35c2.79-2.65,7.77-2.54,11.1-1.22.77.33.58,1.64-.32,1.51-2.87-.37-6-.57-8.47,1.24s-1.6,5.31-1.09,7.83c.14.65-.7,1-1.13.53C632.75,1126.3,632.34,1122.25,635.33,1119.35Z"/><path class="cls-8" d="M613.76,1107.43c1.33-1.13,3.25-1.09,4.88-.92a49.24,49.24,0,0,1,5.67.92c.28,0,.31.43.11.58-2,1.55-4.75.59-7.09.7-4.8.26-4.62,7.66-3.57,10.86a.43.43,0,0,1-.72.46A8.7,8.7,0,0,1,613.76,1107.43Z"/><path class="cls-8" d="M587.11,1097.57c6.44-3.49,14.67-2.18,20.73,1.52.58.33.07,1.2-.53,1a25.91,25.91,0,0,0-16.44-.17c-6.38,2.15-6.16,7.68-5.28,13.32a.62.62,0,0,1-1.1.47C580.61,1108.52,581,1100.87,587.11,1097.57Z"/><path class="cls-8" d="M570.06,1084.81c7.19-2.94,16.3.26,22.21,4.68.41.33.06,1-.42.83A32.66,32.66,0,0,0,575,1087.4c-10,.87-9.72,9.82-8.63,17.57a.77.77,0,0,1-1.45.48C561.33,1097.87,561.14,1088.4,570.06,1084.81Z"/><path class="cls-8" d="M552,1076c6.74-2.83,13.78-1.35,20,1.81-1.06-2.35-2.09-5-1.52-7.47s1.69-4.82,3.88-6.06c3.93-2.22,9.28-.72,13.53-.24.39,0,.39.57,0,.66-3.25.89-6.57.26-9.83,1.23-5.38,1.62-4.53,8.2-4.41,12.75a51,51,0,0,1,6.38,4.27c.17.15,0,.41-.16.34-6.7-2.83-12.81-5.37-20.24-5-8.33.41-14.35,5.22-12.32,14.12.06.42-.58.74-.83.35C541.94,1085.62,544.33,1079.3,552,1076Z"/><path class="cls-8" d="M557.81,1060.45a12,12,0,0,1,11.58-.18c.37.2.1.74-.26.74a19.7,19.7,0,0,0-8.58,1.27c-3.34,1.47-2.48,4.15-2.49,7.14a.61.61,0,0,1-1,.46C553.4,1067.45,554.37,1062.51,557.81,1060.45Z"/><path class="cls-8" d="M500.06,1055.27c4.51-2.4,8.75-3.18,13.29-.46,3.84,2.26,6.43,6.75,7.4,11.08.93-.4,1.86-.74,2.77-1,13.92-4.3,24-3.39,34.88,6.18.11.13,0,.3-.14.19-16.28-9.94-46-6.91-50.56,14.47a.65.65,0,0,1-1.24-.1c-1-8.93,5.46-15.67,13.18-19.23-2.08-3.38-4.07-6.86-7.86-8.56s-7.49-.5-11.5-1.19A.71.71,0,0,1,500.06,1055.27Z"/><path class="cls-8" d="M526.89,1080c7.91.09,10,6.79,9.6,13.49a.71.71,0,0,1-1.41.07c-.83-5.16-2-8.71-7.57-9.21a20.79,20.79,0,0,0-8,.87c-2.89,1-3.32,4.53-4.28,7-.19.47-1.08.52-1.12-.09C513.51,1083.57,519,1079.89,526.89,1080Z"/><path class="cls-8" d="M529.62,1095.06c5.33-.67,9.79,3.62,10.58,8.78a.61.61,0,0,1-1.07.47c-2.53-3-3.34-6.29-8-5.74-4.21.52-5.12,2.61-5.89,6.33a.9.9,0,0,1-1.69.31C520.55,1100,524.33,1095.72,529.62,1095.06Z"/><path class="cls-8" d="M537.17,1113.52c5.38-.26,8.16,3.48,9.75,8.12a.34.34,0,1,1-.62.28c-1.41-2.87-3.34-5.09-6.71-5.33-2.92-.2-7,.91-7.69,4.09a.52.52,0,0,1-1,.15C528.81,1116.26,533,1113.74,537.17,1113.52Z"/><path class="cls-8" d="M535.64,1133.48c1.33-1.78,3.37-2,5.45-2,4.94-.15,8.55,2.64,7.43,7.79-.12.57-.88.31-.92-.19-.13-4.24-3.39-4.81-7-4.57-3.08.22-3,2.09-4.09,4.48a.49.49,0,0,1-.88,0C535,1137.39,534.54,1135,535.64,1133.48Z"/><path class="cls-8" d="M484,1076.33c2.85-3.92,8-3.29,11.7-.81,3.3,2.2,4.27,6.92,5.17,10.47a.52.52,0,0,1-.92.41c-1.54-2-2.28-4.53-3.89-6.51-1.1-1.37-3.1-2.09-4.67-2.69-2.37-.92-4.37-.55-6.74.17C484.1,1077.54,483.67,1076.76,484,1076.33Z"/><path class="cls-8" d="M479.29,1083.92c4.71-5.64,12.1,1.18,12.44,6.7,0,.81-1.11,1.33-1.44.46-1.69-4.2-5.4-7.68-10.14-6.12C479.57,1085.14,478.78,1084.51,479.29,1083.92Z"/><path class="cls-8" d="M524.05,1040.75c0-.35.49-.55.6-.2,1.73,4.45,1.7,6.92,7.31,7.4a36.67,36.67,0,0,0,9.3-.15c3.23-.54,3.33-2.87,4-5.5a.45.45,0,0,1,.87.17c-.26,2.46.74,4.68-1.13,6.55-2.56,2.57-7.76,2.31-11,2.26-3,0-7-.26-9.1-2.78C523.44,1046.69,524.29,1042.84,524.05,1040.75Z"/><path class="cls-8" d="M524.4,1029.26c.25-.94,1.5-.61,1.72.15.81,2.9,1.57,4.11,4.6,4.55a34.86,34.86,0,0,0,6.62,0c1.76,0,4.78.09,6.1-1.39s1.63-4.08,2.37-5.92a.86.86,0,0,1,1.66.34c-.19,2.73-.92,5.73-2.79,7.82s-5.62,2.26-8.32,2.57C530.67,1038.07,522.36,1037.18,524.4,1029.26Z"/><path class="cls-8" d="M525.44,1006.62c2.11,2.9,3.46,4.94,7.29,5.47a26.44,26.44,0,0,0,6.41-.07,26,26,0,0,0,6.89-1.67c2.46-1,2.69-3.29,3.82-5.29A.62.62,0,0,1,551,1005c4.79,9.69-24.71,18.72-26.65,2.13C524.26,1006.54,525.05,1006.08,525.44,1006.62Z"/><path class="cls-8" d="M522.66,976.78c.1-.63,1-1.11,1.44-.45,3.45,5,8.23,5.33,13.89,5.13,6.63-.21,12.87.42,16.48-6.22.37-.7,1.52-.24,1.42.5-1.14,8.68-9.36,9.6-16.65,9.9C533.45,985.88,521.37,985.64,522.66,976.78Z"/><path class="cls-8" d="M266.38,1127.32c4.74-3.31,10.08-1.39,15,.69a.56.56,0,0,1-.22,1.07c-4.37-.13-7.69-1.61-12,.61-3.75,1.94-5.67,5.07-7.4,8.71a.63.63,0,0,1-1.2-.09C259.91,1133.87,262.89,1129.73,266.38,1127.32Z"/><path class="cls-8" d="M252.52,1110.76c5.14-3.51,9.8-.24,13.18,3.87.3.37-.21,1-.57.63-4.24-3.57-8-4.35-12.56-.63-3.22,2.61-4.44,6.4-4.83,10.42a.38.38,0,0,1-.75-.06C247.5,1119.13,247.22,1114.35,252.52,1110.76Z"/><path class="cls-8" d="M252.46,1087.12c5.26.15,6.29,4.5,5.66,8.94a.44.44,0,0,1-.86,0c-.57-3.14-1.53-5.73-5-5.85-4.7-.18-8.9,2.93-11,7a.28.28,0,0,1-.53-.17C242,1091.45,246.32,1086.94,252.46,1087.12Z"/><path class="cls-8" d="M254.17,1067.08c5.15.09,7.24,5.33,5.08,9.57-.21.39-.86.46-.95-.09-.57-3.52-.27-6.2-4.72-6-4.66.22-8.93,1.33-11.51,5.51a.5.5,0,0,1-.91-.33C242,1069.51,248.48,1067,254.17,1067.08Z"/><path class="cls-8" d="M208.54,1060.23c5.31-8.23,16.78-6.9,24.88-4.18,9.42,3.18,10.72,10.25,5.94,18.25a.41.41,0,0,1-.75-.26c.34-2.46,1.06-4.83,1.36-7.28.61-4.85-5.94-6.88-9.31-8.06-5.86-2.08-16.58-3.15-20.9,2.4A.75.75,0,0,1,208.54,1060.23Z"/><path class="cls-8" d="M209.74,1078.26c3.74-4.76,13.87-1.91,18.63-.35,7.15,2.38,6.29,7.95,4.86,13.85a.37.37,0,0,1-.71-.16c.53-5.46-.94-9.29-6.37-11.1s-10.39-3-16.05-1.7A.36.36,0,0,1,209.74,1078.26Z"/><path class="cls-8" d="M204.5,1103.81c2-6.68,12.64-5.83,17.74-4.52,7.07,1.85,4.57,7.31,2.71,12.34-.28.69-1.43.47-1.32-.26.29-1.81.69-3.6,1-5.4.39-2.35-1.68-2.88-3.52-3.42a24.87,24.87,0,0,0-7.49-.72c-3.26,0-5,1.35-7.54,3.09A1,1,0,0,1,204.5,1103.81Z"/><path class="cls-8" d="M202.14,1126.9c3.88-7.46,22.34-11.75,20.44,1a.47.47,0,0,1-.89.15,32.23,32.23,0,0,0-1.76-4.13c-1-1.44-3.61-1.14-5-1a17.28,17.28,0,0,0-11.34,5C203,1128.49,201.73,1127.71,202.14,1126.9Z"/><path class="cls-8" d="M216.88,1140.14c4.2-2.11,7.68.48,11,2.94.39.3.08,1-.43.82-3.09-1.43-6-2.5-9.36-1.13a10.53,10.53,0,0,0-6.57,7.64c-.13.44-.79.26-.77-.17C211,1145.78,212.88,1142.18,216.88,1140.14Z"/><path class="cls-8" d="M181,1045.21c2.86-4.13,8.37-1.37,11.07,1.44,4.44,4.61,2.82,11.53.29,16.58a.4.4,0,0,1-.74-.28c2.19-8-.88-17-10.21-16.89A.56.56,0,0,1,181,1045.21Z"/><path class="cls-8" d="M174,1064.32c7.53,3.91,7.67,11.29,5.93,18.68-.12.53-.85.27-.85-.19,0-5.55-.24-11.1-5.24-14.58a15.13,15.13,0,0,0-6.05-2.26c-2.24-.34-3.5.77-5.32,1.71a.7.7,0,0,1-1-.51C160.88,1060.77,170.8,1062.64,174,1064.32Z"/><path class="cls-8" d="M148.22,1091c2.14-6.11,9.22-7.4,14.49-4.65s5.27,9.9,4.89,15c0,.44-.73.5-.79.05-.36-3.81-1.16-7.62-3.64-10.65-4-4.89-9.95-1.41-14.17,1C148.56,1092,148.08,1091.43,148.22,1091Z"/><path class="cls-8" d="M150.74,1107.9c5.17,2.31,8.27,9.39,7.57,14.74-.08.61-1,.69-1.07.06a15.52,15.52,0,0,0-5.15-10c-3.07-2.55-7.64-3.18-10.39.11a.51.51,0,0,1-.9-.2C140.29,1107,146.68,1106.1,150.74,1107.9Z"/><path class="cls-8" d="M246.89,1040.49c4.44-.55,8.47-3,12.92-3.64,3.08-.48,8.86,1.59,8.14,5.49a1.31,1.31,0,0,1-1.68,1.09c-1.49-.35-2-1.37-3.19-2.24-1.56-1.07-4-1.07-5.82-1.07-3.49-.07-6.84.93-10.34.78C246.67,1040.9,246.65,1040.49,246.89,1040.49Z"/><path class="cls-8" d="M201.93,1023.82c6.35-3.92,13.52-2.14,19.34,1.78,3.44,2.33,6.1,5.83,8.68,9,2.91,3.55,4.13,6.31,8.93,8.42,2.2,1,4.45,1.29,6.62,2.4.33.17.28.74-.15.67-6.35-.85-11.47-2.78-16-7.4-3.39-3.4-6.51-6.9-10.25-9.92-4.85-3.92-11.1-3.85-17-4.1C201.58,1024.64,201.58,1024,201.93,1023.82Z"/><path class="cls-8" d="M192,1032.89c3.55-5.37,11.39-.76,14.94,2.14,4.09,3.32,9.2,10,8,15.58-.07.33-.63.43-.65,0-.51-9.79-12.8-17.35-21.75-16.85A.57.57,0,0,1,192,1032.89Z"/><path class="cls-8" d="M203.84,994.24c7.49-2.2,13.93,3,19,8.07s11.21,20.83,19,21.16c7.4.28,24.56-4.2,27.5,5.77.05.17-.23.28-.32.15-6.55-10.12-22.5,2.24-31.35-1.87-4.62-2.2-6.87-5.66-9.24-10.1-5.83-10.84-13.78-17.24-24.59-22.55C203.48,994.74,203.53,994.37,203.84,994.24Z"/><path class="cls-8" d="M237.34,994.06c7.77-3.22,17.19-6.61,25.31-2.11,7,3.9,9,11.34,7.46,18.92a.35.35,0,0,1-.69-.09c.09-17.54-18.61-18-31.89-16.11C237.19,994.72,237,994.19,237.34,994.06Z"/><path class="cls-8" d="M236.65,971c9.18-9.77,30.26-2.8,30.14,11.06,0,.31-.51.44-.61.13-2.22-6.05-5.6-9.07-11.93-10.36-5.22-1-11.58-1-16.59.76A1,1,0,0,1,236.65,971Z"/><path class="cls-8" d="M234.63,942.05c7.18-6.51,23.67-4.36,27.27,5.46a1.74,1.74,0,0,1-2.58,2.13c-3-2-5.46-4.7-8.6-6.59-5-3.07-10.57-2.77-15.75-.44A.33.33,0,0,1,234.63,942.05Z"/><path class="cls-8" d="M236.61,924.68c6.6-5.33,15.67-5.25,23-1.48,5.74,3,14.33,10.45,10,17.34a1.52,1.52,0,0,1-2.74-.63c-1-6.37-5.33-10.7-10.7-14.08-6.29-4-12.67-3.07-19.28-.56A.35.35,0,0,1,236.61,924.68Z"/></g><path class="cls-9" d="M626,1069.49c5.71-.57,11.43-1.24,17.2-1.37,4.8-.11,9.74-.8,14.47.3,5.29,1.16,9.25,4.68,13.24,8.12s8.69,6,12.52,9.51c.12.11,0,.26-.17.2-4-2.55-8.25-4.53-12.22-7.16-4.27-2.79-8.16-6.23-13.08-7.8-10.4-3.28-21.37-.73-31.95-1.43C625.75,1069.84,625.72,1069.51,626,1069.49Z"/><path class="cls-9" d="M551.56,1051c6.79,7.77,19.47,9.77,29,12.06a178.61,178.61,0,0,0,36.18,5.08c.26,0,.29.44,0,.44a128.55,128.55,0,0,1-37.18-2.69c-6.43-1.48-12.7-4.16-18.75-6.73-3.84-1.65-7.79-4.05-9.87-7.79C550.78,1051,551.32,1050.72,551.56,1051Z"/><path class="cls-9" d="M597.88,1092.67c10.6,4.38,20.17,10.93,30.68,15.56,9.76,4.31,18.8,8.27,24.8,17.54a.21.21,0,0,1-.33.26c-7.11-8-16.34-10.77-25.61-15.58-10.17-5.31-19.36-12.49-29.58-17.65A.07.07,0,0,1,597.88,1092.67Z"/><path class="cls-9" d="M547.56,1060.71c5.81,7.24,15,12.57,22.91,17.31s16.2,9.12,24.22,13.84c.24.18,0,.57-.2.46-16.63-7.55-38-14.32-47.41-31.31C546.92,1060.73,547.38,1060.47,547.56,1060.71Z"/><path class="cls-9" d="M530.16,1078.43a261.52,261.52,0,0,0,15.93,40,33.66,33.66,0,0,1,3.23,15.49c0,6.73.32,13.39.58,20.11,0,.44-.63.44-.72,0a172.54,172.54,0,0,1-2.22-18.72,49.4,49.4,0,0,0-4.82-18.41,129.55,129.55,0,0,1-12.31-38.46A.17.17,0,0,1,530.16,1078.43Z"/><path class="cls-9" d="M486.51,1072.34a66.53,66.53,0,0,1,4.65-9.19c4.19-6.32,13.6-9.15,20.58-11,.19-.06.29.27.11.33-7.35,3-14.92,6.2-19.32,13.15-1.95,3-3.13,6.62-4.68,9.89s-4,5.79-6.17,8.58a.26.26,0,0,1-.45-.25C482.38,1079.78,484.77,1076.19,486.51,1072.34Z"/><path class="cls-9" d="M542.71,1020.2c.75-6.9,1.88-13.75,3.08-20.59,1.07-6,1.74-12.47,3.9-18.17a.54.54,0,0,1,1,.09c.79,5.46-.56,11.4-1.51,16.76q-1.74,9.47-3.18,19c-.91,6-1.62,12-2.44,17.92s-1.24,11.83.41,17.8c.07.22-.24.26-.32.11C538.37,1043.58,541.61,1030.41,542.71,1020.2Z"/><path class="cls-9" d="M238.61,925.16a49.27,49.27,0,0,1,21.52-6.36c.26,0,.26.41,0,.46-6.57,1.15-12.45,4.2-18.32,7.22-6.19,3.23-12.18,7.43-16.39,13.11-.42.52-1.14.06-1-.57C225.86,932.41,233.14,928.2,238.61,925.16Z"/><path class="cls-9" d="M261.11,969.93c-2.92-7.36-6.55-15.85-12.61-21.35a29.35,29.35,0,0,1,4.93,3.24c8.75,6.85,12.27,20.35,15.82,32.49,2.59,8.86,5.57,17,1.6,26.08a28.32,28.32,0,0,1-1.8,2.81C270.44,998.42,266.65,983.86,261.11,969.93Z"/><path class="cls-9" d="M190.91,998.24c4.63-1.35,13.48-10,19-11.58,5.3-1.54,8.51,5.12,21.67,10.1.36.13-10.72-3.57-11-3.7-5.16-2-8.94-4-14.37-1.41-5,2.37-13.52,10.1-17.63,8.05C188.15,999.51,190.46,998.33,190.91,998.24Z"/><path class="cls-9" d="M162.84,1065.28c12.91-16.54,27.88-22,37.08-41,3.75-7.7,3.59-6.92.88.29-6.9,18.52-20.14,24.42-32.82,39.07a129.22,129.22,0,0,0-17.42,26.8,125.33,125.33,0,0,0-5.5,13.15c-2.17,5.89-2.5,12.16-2.82,18.36a.29.29,0,0,1-.57,0C138.64,1101.9,150.94,1080.5,162.84,1065.28Z"/><path class="cls-9" d="M221.89,1107.25c2.27-9.47,7.27-18.76,10.55-27.9,3.66-10.25,8.23-23.08,12.28-33.18,2-5,5.89-23.44,1.78-2.42-3.45,17.52-13.12,42-18.91,58.87-2.71,7.92-4.9,15.1-3.72,23.48s2,11.67,9.18,23.35c.3.48.62,3.38.25,2.79-6.56-10.32-9-14-11.41-20.63C219.14,1124,220,1115,221.89,1107.25Z"/><path class="cls-9" d="M256.93,1091.34c.53-10.77,3.09-21.76,5-32.37,2.33-13.26,4.82-21.75,6.54-35.13.05-.31,1.08-10.54,1.18-6.55.56,22.48-6.77,46.36-9.47,68.65-1,8.06-.61,16,3.13,23.29a46.59,46.59,0,0,0,9.86,12.39c3.81,3.5,7.23,7.07,11.69,9.81.19.11,0,.48-.21.39-4.28-2-7.72-5-11.47-7.81-4-3-7.8-6.07-10.68-10.25C257.85,1107.1,256.54,1099.29,256.93,1091.34Z"/><path class="cls-10" d="M819.67,663.51a.63.63,0,0,0-.48-.43c-10.68-40.27-37.13-76.13-67.3-104.15-3.72-3.44-7.58-6.79-11.42-10.14-31.37-83.9-64.4-245-64.75-261.5,17.48-14.06,21.11-16.44,38.7-30.26,11.91-9.36,21.37-19.67,28.72-32.23,23.26-36.76,33.28-78,21-121.19-11.22-39.32-44.09-84.42-87.52-90-.07,0-.12,0-.17,0a14.84,14.84,0,0,0-4.16-1.81.41.41,0,0,0-.37.72,21.7,21.7,0,0,1,4.33,4.39C665.09,9.11,650.54,5.08,637.37,3.74A23.42,23.42,0,0,0,623.2,2.43c-.47.13-.65.87-.1,1,6.38,1.87,11.86,3.24,17.58,6.89.11.07.2.14.31.2-9.1-3.07-18.5-6.42-28.08-7.18C593.09,1.8,570,5.69,553.38,17.25a31.72,31.72,0,0,0-7.85,4.31.47.47,0,0,0,.37.83c3.36-.74,6.59-2,10-2.55l1.44-.24c-8.83,4.51-16.72,10.77-24.22,17.79-12.11,11.36-24.3,22.87-34.59,36-22.22,28.25-34.24,60.27-25,96.14,9.78,38.06,30.13,72.06,49.42,105.91,9.75,17.17,14.86,32.73,22.59,61.91,1,3.81,4.87,33,9.69,70.18,2,57.24,4.06,124.08,1.62,128.28A64.7,64.7,0,0,1,544,551.9c-1.45,1.31-3,2.57-4.46,3.81-21.07-14.78-47.43-26.44-71.73-34.3s-50.38-12.3-75.11-3.59c-13.95,4.94-27.21,11.73-40.66,17.89-13.83,6.31-27.57,12.93-40.94,20.15C298.43,562.74,286,570,273,576.3c-9.38-4.64-15.68-13.21-26.59-15-12.12-2-24.88-1.17-37.13-.82-9.36.28-18.71.67-28,1.37-5.35-1.07-10.13-5.66-15.25-7.27-9.56-3-19.36-4.44-29.29-5.47-21.68-2.17-42.9-1.56-64.62-1-.25-.2-.46-.41-.71-.61-.92-.72-2,.56-1.34,1.43l.27.31a1.26,1.26,0,0,0,.87,1.78,3.88,3.88,0,0,0,.69.18c5.38,6.92,11.29,13.38,16.57,20.35,1.72,2.26,3.46,4.57,5.33,6.77a80.57,80.57,0,0,0-19.88,2.33c-8.09,2-14.94,7.07-23.06,9l-2.84.66c-4.89-1-9.35-3.09-12.69-7.55-5.4-7.19,7-14.15,10.66-9.28,2.11,2.74,4,6.34,1.7,8.86a30.44,30.44,0,0,1-5.93.94c-.8.06-.63,1.13,0,1.26,6.44,1.24,12.8,2.05,16-4.9,2.92-6.33,4.88-13.78-1.24-18.89a124.81,124.81,0,0,0-13.34-9.71c-2.83-1.78-6.7-4.13-10.25-3.28-6.59,1.59-13.34,7.29-18.87,14.45C6.79,571.62,1.67,583.57,1.87,592c.24,9,11.13,17,17.62,21.74,1.05.74,2.12,1.52,3.21,2.31a60.47,60.47,0,0,0-5.9,1.5s0,0,0-.07c-.4-.35-1,0-1.15.42l-.42.11a.61.61,0,0,0,.19,1.15h.7c7.14,11.77,14.67,22.74,26.75,29.88-2.27.22-4.44.5-6.45.81a.8.8,0,0,0,.07,1.57h.11c9.57,19.21,26.86,33.9,44.71,45.18,2.34,1.46,4.69,2.94,7.09,4.39,9.91,17.68,20.86,34.57,31.75,51.7,12.86,20.17,24.58,40.61,41.21,58,28.51,29.86,58.27,58.81,93.46,80.63a4,4,0,0,1-.23.41,35.1,35.1,0,0,1-6,7.73.83.83,0,0,0,.67,1.43c.34-.08.68-.15,1-.24,2.11.33,4.27.68,6.41,1-2.57,1.63-5.34,3.63-8.2,4.52-.51.16-.36.87,0,1a9.13,9.13,0,0,0,1.37.39.46.46,0,0,0,.24.43c7.47,4.09,15.76,6.38,23.46,10,2.35,1.09,5,2.53,7.66,3.6a13,13,0,0,1-4.32,4,.87.87,0,0,0,.28,1.65,3.62,3.62,0,0,0,.93,0,.82.82,0,0,0,.8.57c4.84,0,9.83.42,14.87.81a22,22,0,0,1-3.58,3.57,1,1,0,0,0,.83,1.78c.47-.09.9-.22,1.36-.35,13.64-.85,27.21,0,40.79,1.33,5.37,3.2,10.84,6.35,16.14,9.64,10.29,6.36,20.55,12.86,31.25,18.52a149.37,149.37,0,0,0,56.51,17.16c27.46,2.39,55.52-4.16,81.2-15.42.4,4.1.29,8.17-1.7,12.3a.51.51,0,0,0,.8.57,18.46,18.46,0,0,0,1.5-1.81c3.89-.56,7.46-2.85,10.4-5.37a38.16,38.16,0,0,0,6.18-6.47c9.43,2.83,19,5,28.94,5.14a1,1,0,0,0,.89-.42.69.69,0,0,0,.78-.63,58.16,58.16,0,0,0,0-7.81c2.9,1.44,5.85,2.74,8.73,4.29v.08a.67.67,0,0,0,1.06.4.56.56,0,0,0,.5-.9c-.06,0-.1-.11-.16-.15.59-4.57.57-9.21.72-13.8,5.35-4.11,10.14-9.38,15.5-13.45a116.82,116.82,0,0,1,10.65-7.25c29.76-7.29,57.77-21.24,82.66-38.78C711.32,872.84,736,853,757,829.64c21.34-23.63,37.62-50.82,51.41-79.44,7.84-16.24,14.3-34,15.76-51.89a.25.25,0,0,0,0-.15V698A79.56,79.56,0,0,0,819.67,663.51Z"/><path class="cls-11" d="M448.49,982.75c-3.91,0-7.79-.18-11.58-.5a152.32,152.32,0,0,1-57.23-17.37c-9.42-5-18.63-10.71-27.53-16.22l-3.82-2.39c-3.69-2.29-7.46-4.51-11.24-6.73l-4.52-2.67c-8.61-.81-18.76-1.59-29.15-1.59-3.68,0-7.3.09-10.7.3-.45.13-.91.24-1.39.33a3.89,3.89,0,0,1-.49,0,2.88,2.88,0,0,1-2.73-2,2.72,2.72,0,0,1,1-3.13c.22-.18.43-.33.64-.53-3.6-.26-7-.5-10.45-.5h-.37a2.94,2.94,0,0,1-1.66-.52l-.31,0a2.77,2.77,0,0,1-2.39-2.29,2.72,2.72,0,0,1,1.48-2.87,9.35,9.35,0,0,0,2.13-1.63c-1-.48-2-1-3-1.44-.83-.42-1.64-.83-2.42-1.2-3.2-1.5-6.59-2.8-9.88-4.07a115.11,115.11,0,0,1-13.7-6,1.75,1.75,0,0,1-.59-.46,6.21,6.21,0,0,1-.83-.28,2.57,2.57,0,0,1-1.51-2.42,2.32,2.32,0,0,1,1.63-2.13,17.41,17.41,0,0,0,3.55-1.66l-1.09-.17-.76.17a2.69,2.69,0,0,1-2.29-4.61,30.63,30.63,0,0,0,5-6.18c-35-22-65-51.4-92.29-79.93-14.05-14.74-24.81-31.91-35.22-48.5-2-3.26-4.11-6.57-6.2-9.83l-3.83-6c-9.35-14.67-19-29.84-27.71-45.31-2.29-1.4-4.51-2.79-6.7-4.16-21.86-13.8-36.61-28.65-45.1-45.34a2.61,2.61,0,0,1,.91-4.85c.47-.07,1-.16,1.44-.2C27.59,640.59,21,630.71,15,621.05a2.5,2.5,0,0,1-2-2,2.42,2.42,0,0,1,1.5-2.72,2.59,2.59,0,0,1,2.44-.7c.45-.16.89-.26,1.33-.4C11.51,610.23.26,602,0,592.08c-.22-8.66,4.71-20.83,12.54-31,6.32-8.17,13.38-13.54,19.92-15.13,4.09-1,8.83,1.79,11.69,3.55a119.23,119.23,0,0,1,13.53,9.86c8.28,6.92,3.36,17.58,1.74,21.09-2.1,4.57-5.69,6.81-11,6.81a34.88,34.88,0,0,1-5.72-.61A22.15,22.15,0,0,0,48,588.4l2.45-.54a60.88,60.88,0,0,0,11.36-4.42,62.25,62.25,0,0,1,11.66-4.57,79.29,79.29,0,0,1,16.48-2.31c-.87-1.11-1.72-2.22-2.56-3.33l-.41-.52c-2.85-3.79-6-7.47-9-11.06-2.43-2.89-4.87-5.79-7.2-8.77a.32.32,0,0,1-.13,0,3.2,3.2,0,0,1-2-1.63,3.29,3.29,0,0,1-.33-1.51,2.92,2.92,0,0,1,0-2.67,2.83,2.83,0,0,1,4.24-1,2.68,2.68,0,0,1,.23.17c9.72-.26,19.77-.54,29.6-.54a334,334,0,0,1,34.54,1.55c8.24.84,19.06,2.24,29.64,5.52a35.63,35.63,0,0,1,7.2,3.6c2.62,1.54,5.09,3,7.63,3.56,8.35-.58,17.2-1,27.86-1.35l5.18-.17c4.47-.13,9-.3,13.5-.3a114,114,0,0,1,18.81,1.33c7.23,1.21,12.52,5.15,17.63,9a66.74,66.74,0,0,0,8.67,5.79c9-4.44,17.89-9.36,26.5-14.1,3.56-2,7.12-3.94,10.69-5.86,11.86-6.44,24.92-12.86,41.05-20.24,3.35-1.52,6.7-3.11,10.05-4.68,9.93-4.7,20.21-9.53,30.78-13.25a89.39,89.39,0,0,1,29.75-4.9c13.79,0,29,2.76,46.55,8.45,27,8.75,52.15,20.7,71,33.75,1.13-.93,2.23-1.89,3.32-2.87a61.9,61.9,0,0,0,12.47-15.65c2.38-5.51-.6-90.85-1.87-127.28-4.1-31.58-8.58-65.82-9.63-69.76-7.55-28.53-12.58-44.2-22.39-61.48l-4.13-7.2C499.34,237.9,480.86,205.6,471.7,170c-8.42-32.76.1-65.64,25.36-97.77C507.68,58.67,520.52,46.64,531.83,36a133.48,133.48,0,0,1,14.28-11.8,1.83,1.83,0,0,1-.32,0,2.33,2.33,0,0,1-1.38-4.18,33,33,0,0,1,8.09-4.48c13.29-9.17,32.17-14.41,51.86-14.41,2.93,0,5.85.11,8.7.35a64.68,64.68,0,0,1,7.86,1.13,2.43,2.43,0,0,1,1.82-2c4.62-1.18,9.72-.74,15.07,1.26a92.47,92.47,0,0,1,32.33,9.16A2.39,2.39,0,0,1,672.69,10a16.51,16.51,0,0,1,4.25,1.77c43,5.79,77.22,50.27,88.94,91.37,11.65,40.8,4.52,82.09-21.16,122.68-7.11,12.17-16.65,22.88-29.14,32.71-7.1,5.58-11.94,9.28-16.31,12.65-6.27,4.83-11.69,9-21.63,17C679,308.57,711.22,465,742.06,547.7l1,.85c3.41,3,6.81,5.94,10.13,9,24.08,22.35,55.31,58.59,67.65,104.34a2.79,2.79,0,0,1,.58.85,82,82,0,0,1,4.67,35.37,1.6,1.6,0,0,1,0,.33h0c-1.29,15.8-6.51,33-15.94,52.54-15.93,33.06-32.37,58.43-51.71,79.87-18.72,20.75-41.48,40.3-71.62,61.54-26.82,18.89-54.75,32-83,39-3.62,2.22-7.06,4.57-10.24,7-2.64,2-5.21,4.4-7.72,6.7-2.27,2.11-4.62,4.27-7.07,6.23l0,2c-.08,3.42-.17,6.93-.57,10.41a2.28,2.28,0,0,1,0,2,2.53,2.53,0,0,1-1.76,1.32,2.55,2.55,0,0,1-3-1c-1.63-.84-3.28-1.63-4.93-2.43a2.49,2.49,0,0,1-.33-.16c0,1.55,0,3.23-.1,4.95a2.57,2.57,0,0,1-1.78,2.19,2.81,2.81,0,0,1-1.71.57c-8.53-.18-17.52-1.72-28.28-4.86a45,45,0,0,1-5.66,5.71c-3.69,3.15-7.15,5-10.6,5.7-.37.48-.78.94-1.2,1.39a2.86,2.86,0,0,1-1.64.68,2.45,2.45,0,0,1-2-1.13,2.23,2.23,0,0,1-.15-2.2,18.3,18.3,0,0,0,1.7-8.77C493.1,977.68,470.2,982.75,448.49,982.75ZM303.42,931.53c10.71,0,21.13.83,29.9,1.66a1.61,1.61,0,0,1,.78.26l4.9,2.87c3.79,2.25,7.58,4.48,11.3,6.79l3.81,2.35c8.86,5.51,18,11.19,27.33,16.13a147.54,147.54,0,0,0,55.78,16.93c25,2.18,52.32-3,80.29-15.28a1.89,1.89,0,0,1,1.7.11,1.87,1.87,0,0,1,.92,1.42,27.35,27.35,0,0,1-.41,9.18,21,21,0,0,0,8.34-4.72,34.9,34.9,0,0,0,5.84-6.12,1.9,1.9,0,0,1,2.09-.71c10.84,3.26,19.78,4.87,28.12,5l.16-.1a62,62,0,0,0-.08-6.79,1.85,1.85,0,0,1,.83-1.66,1.9,1.9,0,0,1,1.86-.11c1,.52,2.07,1,3.1,1.51,1.51.71,3,1.43,4.53,2.22.3-3,.36-6.19.46-9.23l.07-3a1.85,1.85,0,0,1,.73-1.42c2.58-2,5.08-4.31,7.51-6.55s5.21-4.81,8-6.92a129.4,129.4,0,0,1,10.81-7.36,4,4,0,0,1,.52-.19c27.92-6.86,55.51-19.81,82-38.5,29.92-21.08,52.48-40.48,71-61,19.12-21.16,35.36-46.25,51.13-79,9.24-19.13,14.32-35.88,15.57-51.23a1.5,1.5,0,0,1,0-.24,78.75,78.75,0,0,0-4.28-33.36,2,2,0,0,1-.69-1c-12-45.2-42.94-81.09-66.77-103.23-3.29-3-6.66-6-10-8.94l-1.34-1.15a1.92,1.92,0,0,1-.52-.77c-31.5-84.25-64.53-245.83-64.86-262.13a1.87,1.87,0,0,1,.69-1.48c10.45-8.4,16-12.67,22.43-17.63,4.37-3.35,9.19-7.08,16.29-12.62,12.27-9.67,21.25-19.74,28.25-31.71,25.14-39.7,32.1-80,20.77-119.73s-44-82.53-84.76-88.56a1.26,1.26,0,0,0,.13.17,1.86,1.86,0,0,1-2.53,2.68c-9.64-6.75-23.11-11.32-38-12.84a1.29,1.29,0,0,1-.47-.11A25.66,25.66,0,0,0,631.28,4,46.4,46.4,0,0,1,641.7,8.81a1.92,1.92,0,0,1,1,2.41,1.85,1.85,0,0,1-2.3,1.11l-1.72-.58c-8.44-2.86-17.15-5.8-25.9-6.51-2.77-.22-5.59-.33-8.41-.33-18.46,0-36.12,4.75-48.73,13.08l1.42-.24A1.89,1.89,0,0,1,559.11,19a1.87,1.87,0,0,1-.93,2.24c-7.63,3.87-15.18,9.42-23.8,17.48C523.16,49.27,510.44,61.2,500,74.51c-24.83,31.61-32.88,62.53-24.64,94.55,9,35.13,27.36,67.21,45.11,98.22l4.13,7.23c10,17.63,15.1,33.5,22.75,62.36,1,3.76,4.47,29.73,9.75,70.41,3.16,90.71,3.54,125.75,1.39,129.45a66.23,66.23,0,0,1-13.22,16.56c-1.45,1.31-3,2.62-4.52,3.86a1.82,1.82,0,0,1-2.25.08c-18.74-13.14-44-25.24-71.23-34-17.18-5.57-32-8.26-45.4-8.26a85.9,85.9,0,0,0-28.52,4.65c-10.37,3.66-20.57,8.47-30.43,13.13-3.36,1.56-6.71,3.15-10.08,4.7-16.06,7.33-29,13.71-40.83,20.11-3.56,1.92-7.1,3.89-10.65,5.85-8.93,4.92-18.16,10-27.5,14.61a2,2,0,0,1-1.66,0,66.49,66.49,0,0,1-10.05-6.58c-5-3.72-9.67-7.22-16-8.29a112.49,112.49,0,0,0-18.2-1.26c-4.46,0-8.94.15-13.38.3l-5.19.16c-10.72.32-19.6.76-28,1.39a1.7,1.7,0,0,1-.5-.05c-3.24-.65-6.2-2.39-9-4.09a31.21,31.21,0,0,0-6.4-3.22c-10.25-3.2-20.85-4.57-28.92-5.4a334.87,334.87,0,0,0-34.15-1.52c-9.67,0-19.56.28-29.15.55a.45.45,0,0,1,.11.13c2.44,3.11,5,6.13,7.51,9.16,3,3.61,6.17,7.33,9.07,11.19l.4.52c1.56,2.07,3.18,4.18,4.88,6.18a1.85,1.85,0,0,1-1.42,3.07h0a79.14,79.14,0,0,0-19.43,2.26,61.14,61.14,0,0,0-11,4.33,63.27,63.27,0,0,1-12.09,4.68l-2.85.63a1.66,1.66,0,0,1-.8,0c-6-1.22-10.56-3.92-13.81-8.27a7.46,7.46,0,0,1-.9-8.12A11.14,11.14,0,0,1,42.31,570a6.24,6.24,0,0,1,5.13,2.35c4.39,5.7,3.38,9.19,1.7,11.14a7.17,7.17,0,0,0,6.9-4.63c3.7-8,3.46-13.15-.74-16.67a120.81,120.81,0,0,0-13.12-9.56c-2.48-1.54-6.12-3.72-8.82-3-5.72,1.37-12.07,6.26-17.85,13.77-7.25,9.36-12,20.88-11.77,28.62.22,8.12,11,16,16.84,20.27l3.19,2.3a1.91,1.91,0,0,1,.75,1.9,1.86,1.86,0,0,1-1.45,1.45c-1.61.33-3.24.72-4.84,1.2,6.48,10.62,13.85,21.44,25.56,28.36a1.89,1.89,0,0,1,.87,2A1.83,1.83,0,0,1,43,650.93c-1.5.13-3,.33-4.37.5,8.18,16,22.47,30.28,43.64,43.64,2.31,1.46,4.66,2.92,7.07,4.38a2.08,2.08,0,0,1,.65.67c8.73,15.54,18.45,30.8,27.86,45.58l3.83,6q3.14,4.92,6.2,9.85c10.8,17.2,21,33.43,34.77,47.89,27.51,28.79,57.83,58.46,93.11,80.32a1.86,1.86,0,0,1,.71,2.37c0,.05-.17.33-.19.39a44,44,0,0,1-4.64,6.49l5.27.83a1.86,1.86,0,0,1,.71,3.42l-1.39.88a48.7,48.7,0,0,1-4.5,2.7,112.84,112.84,0,0,0,12.49,5.36c3.33,1.28,6.79,2.61,10.11,4.18l2.51,1.21c1.61.81,3.29,1.66,5,2.36A1.87,1.87,0,0,1,283,921.2a1.92,1.92,0,0,1-.3,1.63,19.07,19.07,0,0,1-3,3.2c3.92,0,8,.37,11.92.67l2.26.18a1.85,1.85,0,0,1,1.6,1.13,1.91,1.91,0,0,1-.31,1.94c-.57.63-1.09,1.26-1.65,1.84C296.71,931.62,300,931.53,303.42,931.53ZM42.31,573.73a7.39,7.39,0,0,0-6.07,3.68,3.72,3.72,0,0,0,.55,4.22,16.61,16.61,0,0,0,2.6,2.81,2.87,2.87,0,0,1-.07-.78,2.39,2.39,0,0,1,2.25-2.24l1-.09a26.65,26.65,0,0,0,4-.59c.92-1.61-.59-4.18-2.07-6.11A2.6,2.6,0,0,0,42.31,573.73Z"/><path class="cls-12" d="M819.67,663.51a.63.63,0,0,0-.48-.43c-10.68-40.27-37.13-76.13-67.3-104.15-3.72-3.44-7.58-6.79-11.42-10.14-31.37-83.9-64.4-245-64.75-261.5,17.48-14.06,21.11-16.44,38.7-30.26,11.91-9.36,21.37-19.67,28.72-32.23,23.26-36.76,33.28-78,21-121.19-.32-1.11-.65-2.24-1-3.37a37.18,37.18,0,0,1-4.73,9.75,22.33,22.33,0,0,1-12.71,8.71c-9.3,2.2-16.8-3.57-26.07-3.57-25.26,0-43.2,13.34-61.17,29.29a1.89,1.89,0,0,1-2.93-.39,129.9,129.9,0,0,0-12.72-16.65c1.72,6.38,3.28,12.73,3.15,19.44a1.88,1.88,0,0,1-3.18,1.33c-12.72-13.46-26-31.45-45.17-35.57-10.41-2.24-28.27-1.5-38.88,5.25,8.07.54,16.14.06,24.17,1.17,9.37,1.29,17.22,5,25,10.19,9.44,6.31,23.41,17.82,14.17,30.19-5.19,6.94-14.46,12.7-14.68,22.24-.29,13,4.88,24.86,11.87,35.56,5.61,8.6,11.54,17.61,19.06,24.66,4.4,4.14,10.56,8.68,12.79,14.54,9.55,24.75-62.84,13.91-73.47,11-19-5.29-38.85-15-53-29.1-10.72-10.64-17.38-23.37-23.36-36.76a144.44,144.44,0,0,0,9.51,30.17c.79,1.8-1.37,3.91-2.93,2.26-18.68-19.83-29.62-45.45-34.8-72a128.57,128.57,0,0,1-2.29-25.09,95.22,95.22,0,0,0,2.75,32.69c9.78,38.06,30.13,72.06,49.42,105.91,9.75,17.17,14.86,32.73,22.59,61.91.67,2.62,2.7,17,5.43,37.64-.74-18.37-1.64-36.74-2-55.07a1.87,1.87,0,0,1,3.17-1.32c10.65,10.66,15.14,24.78,17.92,39.26a303.24,303.24,0,0,1,3.2-31.91c.31-1.89,3.14-1.67,3.6,0,4.22,15.3,8.07,30.73,13.72,45.58,1.5-12.63,5.78-24.29,11.77-35.79.94-1.8,3.28-.71,3.47,1,4.81,40.75,26.08,76.16,43.29,112.57C666,485,677.49,522.06,688.71,559.93a1.87,1.87,0,0,1-3.11,1.81c-8.77-9-19.86-15-31.62-19.17,28.43,25,55.8,55.45,72.89,89.06,7.8,15.34,9.08,30.58,8.15,47.55-.12,2.2-.26,4.42-.41,6.62,1.49-4.53,2.58-9.08,3.54-12.82a277.81,277.81,0,0,0,6.57-36.13c.22-2,3.09-2.68,3.65-.48,5.55,21.38,12.58,43.27,12.82,65.56a103.23,103.23,0,0,1-15.85,56.63c-17.53,28.07-43.3,46.27-68.34,67-6.83,5.63-39.73,37.74-49.31,25.72-6.17-7.77-7-20.06-8.23-29.51-.39-2.85-.7-5.75-1-8.66-23,31.64-59,55.41-95.13,62.39A1.88,1.88,0,0,1,521.9,872c12.44-8.13,21.83-20.27,28.66-33.75-28.45,25.1-60.78,45.87-96.46,59.1-37.41,13.87-75.74,18.29-115.4,18.5-18.22.09-64.57,1.77-58.53-28.07,3.36-16.59,13.6-31.42,22.86-45.24,10.77-16.13,23.52-30.58,35-46.1-26.64,13.1-50.58,32.15-70.23,54.24a1.81,1.81,0,0,1-2.26.3c-16.74-11.64-33.3-23.39-48-37.36a226.35,226.35,0,0,0,31.66,38.17c1.6,1.53-.43,3.83-2.25,2.92-29.63-14.82-59.73-29.67-86.08-50-5.25-4-10.19-8.34-15-12.78a185.86,185.86,0,0,0,15.5,18.74c28.51,29.86,58.27,58.81,93.46,80.63a4,4,0,0,1-.23.41,35.1,35.1,0,0,1-6,7.73.83.83,0,0,0,.67,1.43c.34-.08.68-.15,1-.24,2.11.33,4.27.68,6.41,1-2.57,1.63-5.34,3.63-8.2,4.52-.51.16-.36.87,0,1a9.13,9.13,0,0,0,1.37.39.46.46,0,0,0,.24.43c7.47,4.09,15.76,6.38,23.46,10,2.35,1.09,5,2.53,7.66,3.6a13,13,0,0,1-4.32,4,.87.87,0,0,0,.28,1.65,3.62,3.62,0,0,0,.93,0,.82.82,0,0,0,.8.57c4.84,0,9.83.42,14.87.81a22,22,0,0,1-3.58,3.57,1,1,0,0,0,.83,1.78c.47-.09.9-.22,1.36-.35,13.64-.85,27.21,0,40.79,1.33,5.37,3.2,10.84,6.35,16.14,9.64,10.29,6.36,20.55,12.86,31.25,18.52a149.37,149.37,0,0,0,56.51,17.16c27.46,2.39,55.52-4.16,81.2-15.42.4,4.1.29,8.17-1.7,12.3a.51.51,0,0,0,.8.57,18.46,18.46,0,0,0,1.5-1.81c3.89-.56,7.46-2.85,10.4-5.37a38.16,38.16,0,0,0,6.18-6.47c9.43,2.83,19,5,28.94,5.14a1,1,0,0,0,.89-.42.69.69,0,0,0,.78-.63,58.16,58.16,0,0,0,0-7.81c2.9,1.44,5.85,2.74,8.73,4.29v.08a.67.67,0,0,0,1.06.4.56.56,0,0,0,.5-.9c-.06,0-.1-.11-.16-.15.59-4.57.57-9.21.72-13.8,5.35-4.11,10.14-9.38,15.5-13.45a116.82,116.82,0,0,1,10.65-7.25c29.76-7.29,57.77-21.24,82.66-38.78C711.32,872.84,736,853,757,829.64c21.34-23.63,37.62-50.82,51.41-79.44,7.84-16.24,14.3-34,15.76-51.89a.25.25,0,0,0,0-.15V698A79.56,79.56,0,0,0,819.67,663.51Z"/><path class="cls-12" d="M1.87,592c-.2-8.47,4.92-20.42,12.16-29.82,5.53-7.16,12.28-12.86,18.87-14.45,3.55-.85,7.42,1.5,10.25,3.28a124.81,124.81,0,0,1,13.34,9.71c6.12,5.11,4.16,12.56,1.24,18.89-3.17,7-9.53,6.14-16,4.9-.67-.13-.84-1.2,0-1.26a30.44,30.44,0,0,0,5.93-.94c2.32-2.52.41-6.12-1.7-8.86-3.71-4.87-16.06,2.09-10.66,9.28,3.34,4.46,7.8,6.57,12.69,7.55l2.84-.66a45.2,45.2,0,0,0,6.79-2.3c1.37,6.31,6.32,11.81,10.23,16.76,6,7.64,11.66,16.12,19.13,22.46,11.66,9.83,27.16,11.79,42.22,13.58,2.31,10.47,7.14,20.11,12.67,29.36,6.46,10.77,13,21.55,20.86,31.41,8.76,11,18.42,21.54,29.44,30.36,2.33,1.87,4.69,3.72,7.1,5.46-19.23-3.48-38-9.34-56.61-15.3-28.61-9.18-59.54-19.87-82.43-39.79a207.23,207.23,0,0,0,24.31,13,359.53,359.53,0,0,0,40.07,14.9c13.4,4.2,13.47,2.81,27.31,5.84,18.74,4.09,9.16-7.08,8.78-7.62-7.26-10.42-8.65-10.73-19.14-18.13-10-7-21-12.36-32.19-17.17C97,667.19,84.67,662.1,71.73,658.53c-11.86-3.22-23.9-5.64-35.94-8a.66.66,0,0,1,.61-.61c2-.31,4.18-.59,6.45-.81-11.17-6.61-18.41-16.47-25.1-27.2,35.5,30.45,77.47,36.28,93.16,42.57,6.64,2.61,22.2,5.46,18.38-1.22s-6.5-13.93-6.66-21.35a.85.85,0,0,0-.64-.83c-12.69-3.31-25.73-4.85-37.12-11.77a.82.82,0,0,0-1.17.28c-10-5.25-22.13-6.88-33.19-8.49S28.16,618.31,17,618.83c-.41-.35-.82-.7-1.21-1.07a.71.71,0,0,1,1.06-.17,60.47,60.47,0,0,1,5.9-1.5c-1.09-.79-2.16-1.57-3.21-2.31C13,609,2.11,601,1.87,592Z"/><path class="cls-12" d="M152.36,796.69c16.46,14.56,31.72,30.34,48.5,44.58,7.9,6.72,16.12,13.08,23.77,20.08,6,5.47,12.23,11.27,19.72,14.58,12.51,5.55,21.33-9.22,28.1-18.89-3.63,14.55-9.34,28.38-18.24,40.61-.41.54.15,1.32.76,1.32,5.55,0,11.1-.3,16.63.11a102.91,102.91,0,0,0-15.3,5.86.88.88,0,0,0,.21,1.61c13.35,2.81,26.56,6.35,40.16,7.88A70.58,70.58,0,0,0,285,921.94c-.52.39-.63,1.48.21,1.59,6.28.93,12.57.73,18.89.67-2.4,1.41-4.82,2.74-6.54,5.07-.5.72.29,1.39,1,1.24a.58.58,0,0,0,.37.09c31.46,0,62.83-2.74,94.26-3-16.34,2.63-32.63,5.44-49.16,6.46a.88.88,0,0,0-.24,1.72c20,7.12,37,20.63,56.71,28.49a122.88,122.88,0,0,0,59.44,8c21.05-2.39,39.72-10.05,58.77-18.91,16.23-7.56,28.65-20.53,43.74-29.69-7.14,8.18-14.1,16.56-21.76,24.27-.28.3-.61.59-.91.87a.57.57,0,0,0-.25.24c-3.31,3.07-7.16,5.68-10.11,9-2,2.22-1.59,5-.59,7.51a.89.89,0,0,0,1.47.41,80.16,80.16,0,0,0,10.19-15.14c6.5,4.94,13.57,9,20.36,13.51.69.48,1.43-.28,1.3-1-1-5-.71-10-.59-15.06a84.17,84.17,0,0,0,11.42,11.23.86.86,0,0,0,1.48-.61c.41-6.7-1-12,4-17.48,4-4.37,9-7.72,13.92-11a61.93,61.93,0,0,1,16.76-8.28c6-1.78,12.18-2.95,18.26-4.39a201.25,201.25,0,0,0,34.73-12,234.42,234.42,0,0,1-59,23.81,116.82,116.82,0,0,0-10.65,7.25c-5.36,4.07-10.15,9.34-15.5,13.45-.15,4.59-.13,9.23-.72,13.8.06,0,.1.11.16.15a.56.56,0,0,1-.5.9.67.67,0,0,1-1.06-.4v-.08c-2.88-1.55-5.83-2.85-8.73-4.29a58.16,58.16,0,0,1,0,7.81.69.69,0,0,1-.78.63,1,1,0,0,1-.89.42c-9.92-.18-19.51-2.31-28.94-5.14a38.16,38.16,0,0,1-6.18,6.47c-2.94,2.52-6.51,4.81-10.4,5.37a18.46,18.46,0,0,1-1.5,1.81.51.51,0,0,1-.8-.57c2-4.13,2.1-8.2,1.7-12.3-25.68,11.26-53.74,17.81-81.2,15.42a149.37,149.37,0,0,1-56.51-17.16c-10.7-5.66-21-12.16-31.25-18.52-5.3-3.29-10.77-6.44-16.14-9.64-13.58-1.28-27.15-2.18-40.79-1.33-.46.13-.89.26-1.36.35a1,1,0,0,1-.83-1.78,22,22,0,0,0,3.58-3.57c-5-.39-10-.85-14.87-.81a.82.82,0,0,1-.8-.57,3.62,3.62,0,0,1-.93,0,.87.87,0,0,1-.28-1.65,13,13,0,0,0,4.32-4c-2.69-1.07-5.31-2.51-7.66-3.6-7.7-3.63-16-5.92-23.46-10a.46.46,0,0,1-.24-.43,9.13,9.13,0,0,1-1.37-.39c-.39-.18-.54-.89,0-1,2.86-.89,5.63-2.89,8.2-4.52-2.14-.31-4.3-.66-6.41-1-.3.09-.64.16-1,.24a.83.83,0,0,1-.67-1.43,35.1,35.1,0,0,0,6-7.73,4,4,0,0,0,.23-.41c-35.19-21.82-65-50.77-93.46-80.63a187.09,187.09,0,0,1-17.81-21.9C146.52,791.6,149.54,794.19,152.36,796.69Z"/><path class="cls-13" d="M110.78,588.75c-7.48-3.07-11.49-6.55-14.06-8.34,6.6,2.68,19.54,9.08,26.54,10.47-14,.55-27.83,2.29-41.3,7a1,1,0,0,0-.44,1.68c8.15,7.46,19.39,14.67,30.61,16,7.18.81,14.45,1.35,21.72,1.81a57.08,57.08,0,0,0-18.32,4.81,1,1,0,0,0-.19,1.57c6.8,8.22,17.24,11,27.55,11.66,13.3.83,26.69-.15,40,.33,16.87.59,34.62,1.24,50.84,6.13,8.86,2.72,17.39,6.25,26,9.65-11.83-2.83-23.74-5.4-35.83-6.66-19.5-2.05-39.12-.13-58.66.45a1,1,0,0,0-1,1.27c7.92,21.22,12,44.24,25,63.18,11.46,16.67,26,30.62,39.75,45.36-22.76-12.19-50.33-28.6-66-49.52-8.9-11.88-14-21-21.51-33.8s-10.55-20.22-12.6-29a1.38,1.38,0,0,0-.75-1c-9.28-2.94-19.41-1.52-28.55-4.83-7.92-2.85-14.34-8.33-21.57-12.45a49.15,49.15,0,0,0,6.62-1c.8-.2,1.06-1.48.25-1.83-12.09-5.2-22.55-13.19-33.56-20.24,19.39-4.75,34.28-9.71,54.14-11.86C106.39,589.53,111.78,589.17,110.78,588.75Z"/><path class="cls-13" d="M408.26,553.47c9.55-6.33,22.21-10.43,32.78-4.35,10.79,6.18,18.69,16.67,30.25,21.61,1.78,1.85,3.57,3.72,5.35,5.62-13.19-5.49-26.81-10.12-41-11.78-7.82-.89-15.74-.48-23.51-1.5a34.85,34.85,0,0,1-7.75-1.7c-2.37-.91-2.61-.78-1.3-2.79A18,18,0,0,1,408.26,553.47Z"/><path class="cls-13" d="M384,543.63c-2.68,3.64-5.64,7.42-9.5,9.71-5.19,3.11-10.93,3.26-16.77,2.5C362.31,544.85,373.31,543.72,384,543.63Z"/><path class="cls-13" d="M344.23,582.77c2.64.73,6.59,3,5.26,6.55-.76,2-3.46,2.3-5.31,2.37-5.31.11-10.4-1.13-15.52-2.13C332.67,584.92,337.74,580.91,344.23,582.77Z"/><path class="cls-13" d="M310,616.22c-7.16,4.61-15.18,10.38-23.33,11.27-2.69.31-12.41,1.57-9.27-3.92,1.41-2.54,3.45-5.2,6.13-6.55a28.07,28.07,0,0,1,10.4-2C299.26,615.11,304.6,615.78,310,616.22Z"/><path class="cls-12" d="M71.37,547.53c.25.2.46.41.71.61,12.36-.35,24.55-.7,36.76-.53-7.07.22-14.43.55-21,3.38-.78.32-.57,1.33,0,1.74,7.59,5.53,14.43,12,22.3,17.11-2.8-.31-5.57-.83-8.37-1.39-1-.22-1.87,1.34-.76,1.82,6.2,2.77,11.16,8.06,17.6,10.23,8.91,3,18.7,1.79,27.87,3.51.88.15,1.82-1,1-1.7-4.78-3.86-7.92-9.08-11.77-13.78,13.86-5.14,28.6-5.46,43.27-5.31-8.75,1.13-17.5,2.35-25.87,5.23a1,1,0,0,0,0,1.91c4.62,2,9.56,2.37,14.51,3-5,0-10-.2-14.95.83a1,1,0,0,0-.24,1.82c11.32,5.92,24.37,5.21,36.78,7-6.19.61-12.43.61-18.55,1.76-1.08.2-.8,1.61,0,1.92,11.26,4.59,22.75,13.93,35.38,13.82,10-.05,19.39-3.49,28.85-6.36a48.31,48.31,0,0,0-8.88,5.81,1,1,0,0,0,0,1.42c5.91,7.16,13.19,13,20.5,18.65-10.39-5.79-20.47-13.08-32.18-14.84-10.68-1.61-24.2,0-33.37,6a1,1,0,0,0,0,1.74c11.31,8.14,21.65,16.37,35.52,19.63a187.83,187.83,0,0,0,24.87,3.68c-1.66,0-3.31.13-5,.28a1,1,0,0,0-.51,1.87c5.16,3.07,10.88,4.94,16.34,7.29-15.61-3.43-30.81-9.23-47-8.7a1,1,0,0,0-.85,1.5c4.92,8.92,11,18.72,20.08,23.94,10,5.77,22.1,9,33.25,11.69,12.23,3,24.48,5,37.08,5,13,0,26-.74,38.94.5,6.57,3,14.18,3.54,21.31,4.44s14.08,1.69,21.11,2.43c-6.72.31-13.45.51-20.08,1.88a1,1,0,0,0-.46,1.67c11.85,10,25,19.16,39.64,24.36,7.21,2.57,15,4.48,22.69,4.07,8.57-.44,17-3.18,25.16-5.6,17.43-5.11,34.75-10.38,50.41-19.76,2.92-1.74,5.86-3.42,8.85-5,.2.2.4.42.61.61,0,0,0,0,.05,0-3.84,3.22-6.59,7.42-10.32,10.71a59.46,59.46,0,0,1-13.3,9c-9.62,4.66-19.72,8.88-29.73,12.65-10.53,3.94-21.7,7.33-33.1,7.18a43.34,43.34,0,0,1-16.23-3c-4.29-1.74-8.48-3.84-13-5a.92.92,0,0,0-1.06.4,17.29,17.29,0,0,0-1.9,0c-3.44-.08-6.81.37-10.31.44-5.08.13-10.18.06-15.27.06-10.48,0-20.93-.21-31.41-.5-20.32-.61-41.76,0-61.3-6.37a95.05,95.05,0,0,1-47.86-34,263,263,0,0,1-28.47-48.1.88.88,0,0,0-.44-1.09c-5.43-3.11-9.66-7.38-14-11.8a79.23,79.23,0,0,1-7.77-8.72c4-.5,7.8-2,11.87-2.22a1,1,0,0,0,.53-1.85c-6.79-4.73-13.89-11.56-22.08-13.69-8-2.09-16.45-1.87-24.58-3.25a178.22,178.22,0,0,1-25.43-5.87,73.06,73.06,0,0,1-15.54-7.1c-1.35-1.65-2.64-3.33-3.89-5-5.28-7-11.19-13.43-16.57-20.35a3.88,3.88,0,0,1-.69-.18,1.26,1.26,0,0,1-.87-1.78L70,549C69.4,548.09,70.45,546.81,71.37,547.53Z"/><path class="cls-12" d="M515,542.39l-2.55-2.74a221.11,221.11,0,0,1,27.12,16.06c1.51-1.24,3-2.5,4.46-3.81a64.7,64.7,0,0,0,12.84-16.1,23.61,23.61,0,0,0,2.44-5.75c3.05,10.88,6.18,21.72,12.26,31.32a34.86,34.86,0,0,1-12.47-12.17.88.88,0,0,0-1.62.46c.26,13.54,6.53,25.77,13.08,37.37-8.31-6.07-16.62-13.32-19.26-23.55a.88.88,0,0,0-1.7.46c7.73,37.06,42.2,60.13,52.08,96-12-8.73-20.2-21.83-33.23-29.41-.72-.41-1.69.44-1.18,1.2,14.92,22.11,37.41,39.74,43.19,66.73a102.85,102.85,0,0,0-34.09-25.77c-.87-.41-1.83.65-1.06,1.39,13.81,13.06,25.12,27.58,28.4,46.56-16-11.93-33.92-18-54.14-17.33a.9.9,0,0,0-.75,1.33c3.86,8,11.57,13.1,18,19-18.89,1-37.33-5.29-55.67-8.88a.89.89,0,0,0-.84,1.48c6,7.4,14.74,12,20.67,19.44-14.93-1.15-30-6.36-44.21.67-8.17,4-15.61,9.62-23.59,14.09-8.37,4.63-17.12,8.92-26.43,11.29-39.43,10.08-135.33,8.09-160.71,5-42.83-5.31-84.9-27.46-111.92-61.59C154,692.42,144.77,679,138,664.14c-2.43-5.31-4.26-10.75-6.39-16.17-1-2.59-2.21-6.55-5.23-7.35a.77.77,0,0,0-.8.17c-14.22-2.55-29.79-2.87-40.63-13.67-6.84-6.83-13.77-15.78-17.73-25.25,7.76,9.93,17,19.92,27.69,26.14,11.52,6.66,24.88,6.66,37.87,7.73,4,1,8,1.83,12.06,2.46a134.2,134.2,0,0,0,26.24,1.7c5.95-.22,12.44-.66,17.88-3.42a.85.85,0,0,0,.4-1c-3.69-9.66-10-17.89-15.39-26.62,1.86-.85,3.69-1.91,5.75-2.13.68-.09,1.29-1,.64-1.5-8.4-7-16.24-14.45-24.21-21.85,12.26,6.16,22.6,16.06,36.26,19.32,3.27.76,6.56,1.4,9.85,2-7.93.11-16.29,1.42-22.27,6.69a.91.91,0,0,0,0,1.26c18.52,21.26,48.29,24,70.57,39.41-15.28-7.2-30.77-15.95-48-15.45a.89.89,0,0,0-.84,1.11c19.25,54.61,88.1,63,137.87,58.63a.9.9,0,0,0,.63-1.52c-13.52-12.75-24.26-28-37-41.48-2.31-2.44-5.49-4.9-7.13-7.88-2.09-3.81,1.47-6.79,4.26-9,4.95-3.94,11.7-6.14,18.13-6.73-5,3.84-10.19,7.45-13.87,12.57a.91.91,0,0,0,.31,1.21c17.16,13.24,35.89,23.14,55.35,32.5,16.88,8.12,35.16,5.63,53.25,6.59-11.32,1.81-22.83,3-33.73,6.73a.9.9,0,0,0-.21,1.61c34,19.06,67.95-8.06,99.94-18.37a.9.9,0,0,0,.63-1.07c-2.27-5.7-7.27-9.55-10.93-14.36,9.27-4.31,19.45-3.14,29.4-3.85.68,0,1.26-1,.61-1.51-5.12-4.18-10.73-7.74-15.61-12.16,16.66-5.71,34.19,2.63,51.24-.44a.87.87,0,0,0,.2-1.59c-11.91-6.72-24.69-11.66-37-17.65,4.92-2.05,10.19-3.16,15-5.42.76-.37.41-1.37-.22-1.61-5.92-2.28-12.26-1.94-18.41-3.13,11.56-8.67,30.86-8.23,38.26-21.94a.88.88,0,0,0-.75-1.31,74.23,74.23,0,0,1-15.14-1.22c6.49-3.42,13.83-5.37,19.27-10.46a.89.89,0,0,0-.62-1.51H510.24c3.73-3.85,8-6.66,12.15-10.14,2-1.68,3.35-3.83,2.52-6.51C523.19,551.12,518.89,546.59,515,542.39Z"/><path class="cls-14" d="M619.78,122.29c9.36,7.16,13.86,20.54,13.77,32.34-1.45-3.83-2.55-7.84-4.65-11.38a44.06,44.06,0,0,0-8.11-9.86c-6.74-6.14-14.06-11.91-22.55-15.39a55,55,0,0,0-26-4.18c-6,.57-11.51,2.25-17.17,3.85,6.3-2.45,12.38-5.48,18.75-7.76a42,42,0,0,1,13.82-3c2.81,0,5.56.48,8.32,0a.8.8,0,0,0,.49-1.28c2-8.33,2.79-17.67,8.11-24.72,11.63-15.41,21.54.15,21.18,12.93-.26,9.59-5.18,18.23-6.43,27.66A.91.91,0,0,0,619.78,122.29Z"/><path class="cls-14" d="M596.16,79.61a50.94,50.94,0,0,1,13.92-20.46c5.75-5,16.65-12.58,23.59-5.12,5.38,5.79,6.82,14.87,7.21,22.49.35,6.55.1,13.47-2.08,19.76-.27-1.37-.6-2.74-1-4.09-.94-6.55-3.19-13-7-17.72C620.71,62,606.93,73.49,596.16,79.61Z"/><path class="cls-15" d="M748.85,227.65c14.14,31.84,26.84,53.8,30.71,63.82s17.32,41.2,3.45,42.65S728.19,312,693,255.53s-47.71-76.43-47.71-76.43l44.6-6.84Z"/><path class="cls-16" d="M689.91,172.26l26.24,24.66c3.45,8.64,10.07,16.37,14,24.88,5.49,12,12.23,23.72,17.2,35.95,5.19,12.67,9.39,26.08,9.67,39.57a86.56,86.56,0,0,1-3.19,24.9c-17.89-12.12-40.3-33.82-60.76-66.69C657.86,199,645.31,179.1,645.31,179.1Z"/><path class="cls-17" d="M689.91,172.26l58.94,55.39c14.14,31.84,26.84,53.8,30.71,63.82s17.32,41.2,3.45,42.65a17.54,17.54,0,0,1-2.2,0,11.14,11.14,0,0,0,2.06-5.94c.81-8.91-1.9-18.22-4.7-26.76a86.92,86.92,0,0,0-4.92-12.38c-.93-1.83-6.82-9.92-10.07-5.85-1.48,1.85-1,4.44-.79,6.55a65.76,65.76,0,0,1-.08,12.47,197.55,197.55,0,0,1-3.66,23.14c-1.34-.85-2.76-1.77-4.2-2.73a105.27,105.27,0,0,0,2.09-26.18c-.59-9.64-4.44-18.11-8-27.16-3.32-8.34-6.84-22.85-16.29-27.8-17.19-9,1.69,16.85,4.09,30.24l1.65,6.74C734.37,266,726,252.29,723.53,244c-2.11-6.92-6.69-12.32-12-14.78-3.35-1.52-9.38-2.72-9.64,2.83-.36,8,2.08,12.17,5.54,19.55,4.6,9.83,18.89,36.62,37.12,53.34,6.44,5.9-16.8-8.77-13.25-1.33A253.37,253.37,0,0,1,693,255.53C657.86,199,645.31,179.1,645.31,179.1Z"/><path class="cls-4" d="M873.52,266.81c-11-13.19-24.84-24.77-36.89-37.26s-22.45-25.67-34.18-38.18C792.84,181.12,783.19,171,774.92,160c-.17-.41-.36-.81-.53-1.22-3.5-8.53,5.35-35.72-12-32.32-8.66,1.7-13.68,10.51-22.13,12.88-10.17,2.88-19.85-2.54-29.6-4.54-6.06-1.25-12.28-.24-16.93,3.52-6,4.83-9.74,11-14.21,16.74-2.29,3-4.7,6.37-8.18,8.46-4.49,2.75-21.79-2.67-26.91-2.28-11.09.89-18.6,17-15.27,26.14,3.14,8.75,8.12,16.26,13.87,23.26,11.87,14.44,25.19,27.62,36.7,42.38s21,31.19,33.38,45.4a305.21,305.21,0,0,0,31.22,31.17c9.22,7.88,19.71,17.15,32.14,21.24,10.34,3.42,20.34,3.9,20-5.81-.33-11.21-6.14-27.81-12.12-41.74-2-5.36-4.34-10.6-6.51-15.74-.16-.41-.91-.22-.83.2,1.36,7.18,15.92,36.47,6.57,42-4.42,2.66-12-3-15.23-5.16-19.81-13.16-36.94-30.57-50.16-48.7a232.55,232.55,0,0,1-18.58-30.1c-3.15-6.06-5.41-12.37-8.2-18.55-3-6.57-7.08-12.6-10.43-19a.37.37,0,0,1-.08-.15c9.71,4,20.65,5.87,29.8,11.29,20.41,12.06,33.25,30.39,47.3,47.36,13.37,16.17,31.66,25.71,53.47,32.24,20.84,6.24,44,9.72,64.75,1.54a2.07,2.07,0,0,0,1.94-1C885.07,288.4,881.84,276.82,873.52,266.81Z"/><path class="cls-5" d="M787.84,355a40,40,0,0,1-12-2.3c-12.34-4.07-22.67-12.95-31.77-20.77l-1-.85a306.49,306.49,0,0,1-31.41-31.34c-7.26-8.36-13.62-17.54-19.74-26.42-4.37-6.36-8.92-12.91-13.72-19.09-6.35-8.14-13.41-16-20.24-23.53-5.47-6.07-11.12-12.36-16.41-18.8-6.82-8.27-11.33-15.84-14.2-23.79-2-5.46-.58-13.3,3.43-19.54,3.52-5.47,8.29-8.69,13.45-9.1,2.2-.15,5.89.52,10.26,1.33s9.25,1.72,12.71,1.72a6.4,6.4,0,0,0,3.14-.5c2.89-1.75,5-4.58,7.12-7.3L678,154c1-1.35,2-2.7,3-4,3.32-4.51,6.74-9.16,11.51-13S704.12,131.58,711,133c2.91.61,5.83,1.5,8.65,2.37,5,1.52,9.68,3,14.49,3a20.4,20.4,0,0,0,5.59-.74c3.67-1,6.69-3.44,9.88-6,3.64-2.92,7.41-5.94,12.39-6.92,4.28-.85,7.57,0,9.84,2.29,4,4.15,3.79,12.06,3.58,19.69-.14,4.49-.27,9.1.69,11.45l.43,1c7.52,10,16.41,19.48,25,28.64l2.25,2.4c5.47,5.81,10.74,11.88,15.84,17.76,5.88,6.77,12,13.75,18.33,20.37,4.5,4.66,9.34,9.29,14,13.78,7.88,7.51,16,15.28,23,23.59,9.76,11.78,11.47,24.14,4.8,34.87a3.94,3.94,0,0,1-3.14,1.93,75,75,0,0,1-27.24,4.79c-11.45,0-24-2.11-38.42-6.42a139.08,139.08,0,0,1-31-13.08l1.22,2.85c1.68,3.92,3.41,8,5,12.08,5.37,12.54,11.87,30.14,12.25,42.36a9.45,9.45,0,0,1-2.38,7.15C794.19,354,791.44,355,787.84,355ZM645,163.12l-.44,0c-3.91.31-7.78,3-10.61,7.4-3.38,5.23-4.63,11.91-3.06,16.24,2.73,7.55,7,14.78,13.57,22.72,5.23,6.36,10.86,12.6,16.31,18.65,6.87,7.62,14,15.5,20.4,23.75,4.87,6.24,9.44,12.86,13.85,19.26,6.07,8.79,12.35,17.89,19.49,26.08a300.71,300.71,0,0,0,31,30.94l1,.87c8.85,7.6,18.87,16.22,30.53,20.05,8,2.65,14,2.83,16.27.46a6,6,0,0,0,1.31-4.47c-.19-6.46-2.4-15.73-6.35-26.81.81,5.92.1,10.86-3.72,13.13a7.13,7.13,0,0,1-3.65.93c-4.48,0-9.62-3.48-12.69-5.57l-.87-.59c-18.78-12.47-36.3-29.47-50.64-49.14A233.34,233.34,0,0,1,698,246.7c-2-3.84-3.65-7.82-5.24-11.65-1-2.35-2-4.68-3-7-1.74-3.81-3.92-7.56-6-11.17-1.5-2.55-3-5.14-4.37-7.77a1.42,1.42,0,0,1-.17-.35,1.83,1.83,0,0,1,.42-2,1.76,1.76,0,0,1,2-.39c3.64,1.5,7.56,2.74,11.35,3.92,6.33,2,12.86,4,18.71,7.48,17.54,10.36,29.65,25.38,41.36,39.9q3.19,3.94,6.41,7.88c11.94,14.43,28.65,24.48,52.6,31.64,14,4.22,26.26,6.27,37.34,6.27a71.09,71.09,0,0,0,26.18-4.66,1.65,1.65,0,0,1,.74-.13c7.66-12,1.91-23.31-4.21-30.69-6.79-8.16-14.86-15.86-22.65-23.28-4.72-4.51-9.6-9.17-14.16-13.89-6.44-6.68-12.55-13.71-18.46-20.52-5.08-5.84-10.31-11.89-15.73-17.66l-2.26-2.39c-8.7-9.29-17.72-18.87-25.4-29.12a2.22,2.22,0,0,1-.21-.37l-.56-1.26c-1.25-3.07-1.12-7.88-1-13,.2-6.55.42-14-2.51-17-1.37-1.42-3.5-1.79-6.45-1.22-4.08.8-7.35,3.42-10.79,6.18s-6.79,5.44-11.19,6.68a24.23,24.23,0,0,1-6.6.87c-5.37,0-10.57-1.59-15.59-3.13-2.86-.87-5.56-1.72-8.3-2.27-5.79-1.2-11.43,0-15.37,3.16-4.4,3.55-7.53,7.81-10.85,12.34-1,1.37-2,2.74-3.07,4.09l-.52.68c-2.18,2.87-4.65,6.13-8.16,8.25a9.88,9.88,0,0,1-5.06,1c-3.79,0-8.9-.94-13.39-1.79A65.36,65.36,0,0,0,645,163.12Zm40,48.49c.65,1.16,1.32,2.29,2,3.42,2.14,3.7,4.36,7.51,6.17,11.49,1.09,2.35,2.07,4.72,3,7.09,1.58,3.77,3.21,7.66,5.13,11.37a229,229,0,0,0,18.43,29.86c14.08,19.33,31.28,36,49.69,48.25l.91.61c2.54,1.72,7.25,4.92,10.59,4.92a3.37,3.37,0,0,0,1.74-.41c5.66-3.38-.91-21.31-4.45-30.95a74.78,74.78,0,0,1-3-9.15,2.41,2.41,0,0,1,.47-1.78,2.36,2.36,0,0,1,1-.7,86.33,86.33,0,0,1-20.07-17.69c-2.17-2.61-4.31-5.27-6.46-7.93-11.47-14.25-23.37-29-40.35-39-5.47-3.22-11.79-5.2-17.91-7.14C689.58,213.16,687.26,212.42,685,211.61Z"/><path class="cls-6" d="M802.35,288.31c-20.92-10.95-35.46-27.75-51.11-44.94-8.51-9.36-17.15-20.46-27.74-27.51-8.51-5.64-17.77-9.38-27-13.67-14.07-6.58-26.45-14.65-18.61-31.56,5.05-10.93,16.93-29.69,31.54-27.08,9.4,1.68,18.64,11.12,28.51,7.23,8.11-3.22,13.6-10.65,22.27-12.84,5.76-1.46,9.9,2.52,13.35,7.57.29-10.21.24-21.24-11.22-19-8.66,1.7-13.68,10.51-22.13,12.88-10.17,2.88-19.85-2.54-29.6-4.54-6.06-1.25-12.28-.24-16.93,3.52-6,4.83-9.74,11-14.21,16.74-2.29,3-4.7,6.37-8.18,8.46-4.49,2.75-21.79-2.67-26.91-2.28-11.09.89-18.6,17-15.27,26.14a73.17,73.17,0,0,0,10.55,19c-1.32-3.49-2.09-7.08-1.2-10.23,3.46-11.95,31.75,18.41,34.36,21.76,4.1,5.25,6.41,12.91,8.87,19a189.35,189.35,0,0,0,14.53,28.43c10.44,16.87,22.24,32.69,34.22,48.49q4.24,5.58,8.62,11.1c1.74,1.57,3.46,3.16,5.22,4.68,9.22,7.88,19.71,17.15,32.14,21.24,10.34,3.42,20.34,3.9,20-5.81-.33-11.21-6.14-27.81-12.12-41.74-2-5.36-4.34-10.6-6.51-15.74-.16-.41-.91-.22-.83.2,1.36,7.18,15.92,36.47,6.57,42-4.42,2.66-12-3-15.23-5.16-19.81-13.16-36.94-30.57-50.16-48.7a232.55,232.55,0,0,1-18.58-30.1c-3.15-6.06-5.41-12.37-8.2-18.55-3-6.57-7.08-12.6-10.43-19a.37.37,0,0,1-.08-.15c9.71,4,20.65,5.87,29.8,11.29,20.41,12.06,33.25,30.39,47.3,47.36,13.37,16.17,31.66,25.71,53.47,32.24,19.81,5.94,41.78,9.36,61.67,2.65C849.07,305,821.92,298.56,802.35,288.31Z"/><path class="cls-18" d="M712.4,164.1a13.89,13.89,0,0,1,4.74.32,85.15,85.15,0,0,1,8.55,3.92c1.57,1,3,2,4.48,2.92a.86.86,0,0,0,.73.13c6.44,4.14,12.1,9.21,15.67,15,1.67,2.72,3.76,6.07,3.88,9.2s-4.08,2-5.93.48a52.53,52.53,0,0,1-4.68-4.77,28,28,0,0,0-12.42-7.46c-4.42-1.41-11.36-1.87-14.75-5C710.44,176.81,706.78,164.71,712.4,164.1Z"/><path class="cls-18" d="M788,183.67c1,1.45.21,2.63-2.2,3.5a11,11,0,0,1-2.17-1.74c-.7-.72-1.58-1.66-2.26-2.39a38.78,38.78,0,0,1-5.59-7.58c-4.25-7.86-4.94-16.28-4.47-24.7,1,2.74,2,5.42,3.07,8.05.17.41.36.81.53,1.22q4.11,5.41,8.58,10.62C783.86,175.37,786.26,179.14,788,183.67Z"/><path class="cls-19" d="M792.68,350.49c1.9-3.37,1.81-7.31,1.11-10.93-1.19-5.87-2.84-11.7-3.79-17.6-.17-1-1.87-.7-1.91.2-.14,3.76-1.4,10.61-7.63,10.09s-12.25-4.09-16.89-7.35a157.36,157.36,0,0,1-22.42-19.72c-7.2-7.45-14-15.17-20.54-23-3.49-4.18-6.93-8.42-10-12.84a.66.66,0,0,0,0-.63c-3.43-7.16-7.4-14.13-11.06-21.18-3.91-7.53-7.17-15.26-10.88-22.83a73,73,0,0,0-13.15-19.24c-5.79-5.92-13.39-10.6-15.7-18.39a1,1,0,0,0-.94-.61c-3.26-.07-9.75-.3-10.94-3.46a21.5,21.5,0,0,0,8.57,1.74c6.67-.09,10.65-3.66,13.81-8a24.21,24.21,0,0,1-1.06,2.85c-.15.33-.33.68-.47,1a32.68,32.68,0,0,1-6.36,6.13.72.72,0,0,0-.24.78,26.25,26.25,0,0,0,10.69,13c5.87,3.63,12.78,5.44,19.44,7.77,16.32,5.68,29.89,13,41.2,24.68,11.84,12.19,21.22,25.94,33,38.13a184.81,184.81,0,0,0,17.9,16.35c1,.8,2.05,1.59,3.11,2.35-11.51-5.75-21.48-13.13-29.62-23-14-17-26.89-35.3-47.3-47.36-9.15-5.42-20.09-7.27-29.8-11.29a.37.37,0,0,0,.08.15c3.35,6.42,7.41,12.45,10.43,19,2.79,6.18,5.05,12.49,8.2,18.55a232.55,232.55,0,0,0,18.58,30.1c13.22,18.13,30.35,35.54,50.16,48.7,3.19,2.12,10.81,7.82,15.23,5.16,9.35-5.55-5.21-34.84-6.57-42-.08-.42.67-.61.83-.2,2.17,5.14,4.5,10.38,6.51,15.74,6,13.93,11.79,30.53,12.12,41.74.15,4.75-2.17,7.05-5.79,7.77A9.76,9.76,0,0,0,792.68,350.49Z"/><path class="cls-20" d="M784.26,181.57c.31,1.29-1.58,1.64-2.48.72a17.93,17.93,0,0,1-2.12-2.74,41.6,41.6,0,0,1-2.84-5.24c-1.78-4-7.52-14.28-3.77-18.94.46,1.15.89,2.31,1.34,3.44.17.41.36.81.53,1.22q2.51,3.3,5.15,6.51C777.92,170.15,783.7,179.05,784.26,181.57Z"/><path class="cls-20" d="M719.18,167.88a.82.82,0,0,0,.85-.13c11,5.34,22.2,14.5,25.33,21,1.36,2.85-2.22,2.48-2.76,1.61a20.07,20.07,0,0,0-3.6-3.83c-2.89-2.11-6-3.2-9.41-4.51s-9.26-2.5-12-5a5.17,5.17,0,0,1-1.57-4.88C716.14,171,716.16,167,719.18,167.88Z"/><path class="cls-10" d="M754.23,142.18c4.66,2.2,10.55,6.94,12.19,14.15s2,13.36,11.22,26.75,10.56,7.31,19.37,17.47,47.53,50.5,60.55,65.73-10.17-7.24-17.23-13.42c-8.27-7.23-52.2-47.52-61.08-56.79-16.4-17.06-31-43.86-31.43-48.53S749.59,140,754.23,142.18Z"/><path class="cls-21" d="M559.89,115.61c15.4-3.77,29.52-7.1,44.63-.07,13,6,25.33,20.68,29,34.41.13.57-.73.78-1,.29-6-13-18.84-25.25-32-31.17s-26.92-2.35-40.68-2.59C559.39,116.48,559.42,115.72,559.89,115.61Z"/><path class="cls-21" d="M604.55,69.77a16.57,16.57,0,0,0,3-2.57c6.77-3.68,13.42-9.4,20.93-3.11,6,5,7.25,12.28,10.35,19,0,0,0,0,0,.07a21,21,0,0,0,.95,2.07.38.38,0,0,0,.73-.22c-1.33-9.8.35-32.54-12.52-35.61-10.76-2.57-20,12.34-24.12,19.72C603.64,69.64,604.12,70.07,604.55,69.77Z"/><path d="M613.84,122.31a71.47,71.47,0,0,0-13.22-7.73,29,29,0,0,1,.7-7c2.54-12.49,11.76-24.92,16-24s5.68,11.67,3.14,24.16C619.05,114.82,616.52,119.63,613.84,122.31Z"/><path class="cls-10" d="M615.08,90.58c-2.89,6.51-4.71,8.53-6.87,7.88s1.15-7,4-10.08S617.31,85.57,615.08,90.58Z"/><path class="cls-10" d="M576.72,115c9.33-.65,25.24.37,31.36,8.88,16.08,22.35-38.72,24.44-46.43,7C556.94,120.37,568.3,115.61,576.72,115Z"/><path class="cls-10" d="M615.08,140.75c.21-3.25,2.35-5.36,7-2.83,5.62,3,9.39,15.9-1.1,12.79C617.1,149.56,614.81,144.45,615.08,140.75Z"/><path class="cls-10" d="M692.91,21.43c29.69,14.91,48.45,43.86,57.51,75.11.09.26-.39.42-.51.13-12.8-29.82-32-54.37-57.27-74.74C692.4,21.76,692.6,21.3,692.91,21.43Z"/><path class="cls-10" d="M656.94,12.25c16.6,4,29.77,18.28,37.93,32.69.32.54-.55,1-.91.56a136.3,136.3,0,0,0-38-31.45C654.88,13.42,655.89,12,656.94,12.25Z"/><path class="cls-10" d="M570.24,10.68c29.34-10.86,66.07-6.29,87.21,18.65.17.24-.15.63-.38.42C634.35,9.57,599.23,5.59,570.7,12.11,569.86,12.29,569.44,11,570.24,10.68Z"/><path class="cls-10" d="M524.94,51.29C546.13,30,577,12.57,608,19.41c.5.13.48.85-.07.8-31.51-1.78-57.72,13.65-79.48,35.33C517.86,66,509,78.21,501.2,90.88c-9.07,14.8-14.7,29.8-19.62,46.36-.19.72-1.2.44-1.19-.26C482.2,103.46,501.89,74.41,524.94,51.29Z"/><path class="cls-10" d="M720.2,548.44c54,43.36,116.7,116.75,72.34,187.83-.43.72-1.36.07-1.19-.63,2.15-9.51,4.78-18.89,5.72-28.66.9-9.56.12-19.42-.84-29-1.72-16.72-7.61-32.61-15.21-47.47-15.8-30.86-39.93-54.78-61.39-81.53C719.36,548.68,719.83,548.14,720.2,548.44Z"/><path class="cls-22" d="M571.83,567.92c6.61,11,17.26,19.37,25.52,29.1a239.71,239.71,0,0,1,21.13,30.08c11.33,18.48,22.32,42.75,18.66,64.9-.12.66-1.19.83-1.26.07-1.67-25.25-12-45.66-26.06-66.23-13-19-28.71-36.67-38.63-57.61C571,567.81,571.6,567.57,571.83,567.92Z"/><path class="cls-22" d="M568.26,529.38a.61.61,0,0,1,1.2,0c4.22,19.42,16.23,34.11,24.61,51.65.3.59-.47,1.31-1,.85C578,568.73,566.75,550,568.26,529.38Z"/><path class="cls-22" d="M640.52,644.29c4.27,9.39,7.28,17.57,7.78,28s-2,21.53-4.94,31.34a.75.75,0,0,1-1.44-.32c.93-18.87,2.39-40.2-2.44-58.68C639.31,644,640.27,643.73,640.52,644.29Z"/><path class="cls-10" d="M315.22,639.68c8.65-6,18.21-10.71,27.86-14.89,10.56-4.57,20.79-9.2,32.33-10.64,22.53-2.81,43.51,13.36,61.66,24.51.73.41.11,1.61-.65,1.3-18.87-7.35-41.49-16.58-62-14-20.12,2.5-38.56,11.18-57.83,16.78C315,643.18,313.82,640.64,315.22,639.68Z"/><path class="cls-10" d="M313.17,562.63c30.61-20.06,65.48-38,102.05-43.29s75.66,9.51,104.54,31.78a.9.9,0,0,1-.83,1.57c-33.53-11.78-65.35-27.84-102-23.44C380.8,533.6,347.52,551.14,314,564,313.21,564.33,312.35,563.18,313.17,562.63Z"/><path class="cls-10" d="M166.31,567.64c7.92-1.92,16.14-2,24.17-3.09,10.05-1.44,20.16-2.11,30.27-2.68,15.8-.85,28.58,2.81,41.36,12.3a1.18,1.18,0,0,1-1.07,2.06c-6.48-2-12.3-5.33-19.07-6.33-8-1.15-16.23-.57-24.28-.67-9-.18-18-.59-27-.74-8.13-.16-16.15,1.43-24.22,1.83C164.82,570.38,164.9,568,166.31,567.64Z"/><path class="cls-10" d="M91.26,549.88c10.62-1.92,22.78-.7,33.49.37,11.35,1.15,21.93,3.87,32.76,7.2a.57.57,0,0,1-.22,1.11c-10.9-1.43-22-2.35-32.93-3.46s-22.36-1-33-3A1.11,1.11,0,0,1,91.26,549.88Z"/><path class="cls-10" d="M31.6,591.71c-2.8-2.11-5.74-6.38-5.75-10,0-4,3-7.36,5.33-10.38,0,0,0,0,.06-.05A21.35,21.35,0,0,0,30,576.45a6,6,0,0,0-.08,2.07,10.5,10.5,0,0,0,2,5.85c3.23,4.4,7.85,6.58,12.85,8.49a3.57,3.57,0,0,0,3.59-.35A270.77,270.77,0,0,1,73.54,582.2c6.48-2.16,13.39-2.33,20.21-2.66,2.78,2,5.68,3.79,8.65,5.47-12.79-.52-25.84,2.11-37.91,5.66a313.71,313.71,0,0,0-33.38,11.62c-1,.43-2.08.85-3.21,1.28a100.94,100.94,0,0,1,13.24-7.16A31.14,31.14,0,0,1,31.6,591.71Z"/><path class="cls-10" d="M26.92,621.75c12.08,1.39,24.36,4.28,36.26,6.9,15.84,3.48,30.95,9.53,46.9,12.55a.4.4,0,0,1-.07.79c-28.68-2.75-55.71-11.8-83.31-19.22A.53.53,0,0,1,26.92,621.75Z"/><path class="cls-10" d="M66.77,660.75c15.24,3,30.3,9.64,44.05,16.74,12.39,6.4,23,15.8,35.23,22.52.51.31.06,1.15-.47.94-12.52-5.57-24-13.06-36.28-19.24-14.07-7.1-29.23-11.88-43-19.61A.75.75,0,0,1,66.77,660.75Z"/><path class="cls-10" d="M40.2,630.08c8.93,2,17.73,5,26.54,7.6a.12.12,0,0,1-.06.22c-9-1.53-18.32-3.36-26.75-7.06A.4.4,0,0,1,40.2,630.08Z"/><path class="cls-10" d="M53.21,659.35A288.7,288.7,0,0,0,78.72,673c8.74,4.2,16.74,9.64,25.77,13.38,0,0,0,.09,0,.07-10-3.68-19.38-8.64-29-13-8.1-3.68-15.91-7.66-22.82-13.3A.49.49,0,0,1,53.21,659.35Z"/></g></g></svg>