<svg xmlns="http://www.w3.org/2000/svg" viewBox="0 0 925.46 508.72"><defs><style>.cls-1{isolation:isolate;}.cls-2{fill:#21211f;}.cls-3,.cls-4{fill:#3c3c3b;}.cls-4{opacity:0.4;}.cls-22,.cls-23,.cls-24,.cls-4,.cls-7,.cls-8{mix-blend-mode:multiply;}.cls-5{fill:#5c5b5b;}.cls-25,.cls-6{fill:#a2623b;}.cls-22,.cls-23,.cls-7{fill:#be6837;}.cls-25,.cls-7,.cls-9{opacity:0.5;}.cls-24,.cls-8{fill:#83502e;}.cls-23,.cls-8{opacity:0.6;}.cls-9{fill:#d2d2d2;}.cls-10{fill:#764829;}.cls-11{fill:#3b1b0f;}.cls-12{fill:#150100;}.cls-13{fill:#3f1b0c;}.cls-14{fill:#fff;}.cls-15{fill:#713b30;}.cls-15,.cls-25{mix-blend-mode:screen;}.cls-16{fill:#5e301c;}.cls-17{fill:#694023;}.cls-18{fill:#575756;}.cls-19{fill:#2b1701;}.cls-20{fill:#b4b4b4;}.cls-21{fill:#4f3017;}.cls-22{opacity:0.2;}.cls-24{opacity:0.3;}</style></defs><g class="cls-1"><g id="Layer_1" data-name="Layer 1"><path class="cls-2" d="M693.1,364.76c-.75-14.94-22.44-15.44-33.07-14.63-10.36.78-20.45,3.48-30.87,4.24-7.76.55-15.88,1-23.63,2.35a56.26,56.26,0,0,0-6.82-.65c-8-.18-16,1.06-23.94,2.2-10.86,1.52-20,4.07-29,10.61-5.74,4.13-3.44,8.42,3.31,8.31,7.15-.13,14.36-2.72,21.46-3.57,3-.4,6.28-.44,9.51-.69-15.75,6.14-30.61,14.68-40.57,28.68-1.79,2.51-3.34,6.21-1.56,9.07,2,3.12,9.11-1.71,10.83-2.89,12.63-8.81,25.77-20.65,41.12-24.66A110.24,110.24,0,0,0,570,394.67c-6,4.46-11.06,9.65-16.25,15-3.58,3.67-9.34,10.57-9,16.21.75,10.95,13.84-.26,17.56-3.28,7.4-6,13.82-13,21.49-18.72.59-.44,1.21-.82,1.79-1.26-2.82,2.15-5.6,4.41-8.24,6.82a66.14,66.14,0,0,0-12.7,15.42c-1.13,1.89-6.71,9.54-4,12.17,6,5.83,23.12-10.84,27.23-14.05,4.77-3.72,9.65-7.46,14.48-11.28q-2.31,2.5-4.5,5.19c-4.21,5.16-10.78,12.3-11.17,19.32-.5,8.87,20.59-8.82,21.8-9.81q4.62-3.69,9.31-7.32l0,.07a43.8,43.8,0,0,1,8.44-6,45.27,45.27,0,0,1,16.7-6.43c9-1.48,16.5-3,24.57-7.42C679.65,392.55,693.88,380.07,693.1,364.76Z"/><path class="cls-3" d="M689.7,371.54c-2.79,13.49-16.43,23.58-29.87,28.68-3.51,1.94-7.49,2.45-11.51,3.17a1.8,1.8,0,0,0-.32.06l-2,.42c-9.34,2.13-17,5.83-25.13,10.44a35.76,35.76,0,0,1-3.3,2.5c-5,3.24-9.44,7.16-14,10.88a90,90,0,0,1-8.89,6.59,5.23,5.23,0,0,1-5.28,1.1c-.15-1.1.66-2.7,1.06-3.63,2.62-5.87,7.08-11.35,11.28-16.22,3.87-4.46,8-8.69,12.12-12.86a93.41,93.41,0,0,0,6.45-8.39c-8.05,6.51-16.21,12.89-24.19,19.5-5,4.16-10.2,8.17-15.41,12.1-.11.11-.25.18-.36.28-3.79,4.08-8.11,8-12.93,9.67-2.92,1-5.08-1.2-3.94-4.15a39.74,39.74,0,0,1,6-10c5.32-7.67,11.92-14,19.61-20.05,2.73-2.15,5.57-4.19,8.44-6.21,2.65-2.33,5.44-4.55,8.28-6.71-10.37,4.4-19.76,11.69-28.24,18.79-5.43,4.56-10.34,9.74-15.75,14.33a55.88,55.88,0,0,1-7.2,5.28,18.84,18.84,0,0,1-2.32,1.28c-8.64,4.5-4.33-6.18-3.27-8.35,6.3-12.72,20-22.8,31.71-30.18a86,86,0,0,1,9.29-5,60.6,60.6,0,0,1,8.86-5.72c-.55.23-1.11.43-1.65.67a43,43,0,0,0-7.69,1.75c-6.09,1.69-11.23,4.61-16.54,8-6,3.79-11.84,7.82-17.54,12.14a120,120,0,0,1-10,7.18c-3.8,2.24-7.63,1.69-6.4-3,.62-2.35,3.35-5.18,4.87-7.13,10.84-13.52,27.56-20.92,43.46-26.55,1.71-.62,3.43-1.2,5.16-1.77s3.4-1.35,5.15-2c7.67-2.57,15.58-4,23.48-5.48-.24,0-.51,0-.75,0a80.28,80.28,0,0,0-12.57,1.26c-7.94,1.36-15.84,4.13-23.44,7-3.13.18-6.25.1-9.38.58-4.87.78-9.8,1-14.68,1.8-4.43.73-10.26,2.43-14.58.35-3-1.42,7.74-7.25,8.14-7.46,9.75-5.45,21.28-6.08,32.19-7.78,5.4-.82,10.79-1.09,16.21-1.44-.23.06-.5.06-.75.13,0,0-.08.11,0,.07,3.09-.38,7.11.28,10.26.22l.31,0c.81,0,1.62,0,2.41,0,3.14-.11,6.27-.24,9.4-.42a237.19,237.19,0,0,0,25.75-3C662.74,352,694.25,349.56,689.7,371.54Z"/><path class="cls-4" d="M545.67,374c4.32,2.08,10.15.38,14.58-.35.37-.07.74-.11,1.1-.16a17.35,17.35,0,0,1,1.41-10.64,42.65,42.65,0,0,0-9,3.69C553.41,366.77,542.71,372.6,545.67,374Z"/><path class="cls-4" d="M562.36,373.36c4.18-.54,8.41-.82,12.57-1.49,3.13-.48,6.25-.4,9.38-.58,7.6-2.87,15.5-5.64,23.44-7A80.28,80.28,0,0,1,620.32,363c.24,0,.51,0,.75,0-7.9,1.51-15.81,2.91-23.48,5.48-1.75.6-3.44,1.28-5.15,2s-3.45,1.15-5.16,1.77a155.74,155.74,0,0,0-20.7,8.73,33,33,0,0,0,9,7,55.59,55.59,0,0,1,13.9-6.34,43,43,0,0,1,7.69-1.75c.54-.24,1.1-.44,1.65-.67a60.6,60.6,0,0,0-8.86,5.72,86,86,0,0,0-9.29,5c-.11.06-.25.17-.38.24a76.35,76.35,0,0,0,15.18,4,73.55,73.55,0,0,1,10.27-5.4c-2.49,1.86-4.88,3.83-7.25,5.84,1.56.22,3.07.4,4.55.58a144.71,144.71,0,0,0,15.16.84c.69-.57,1.39-1.12,2.07-1.7-.38.58-.78,1.15-1.17,1.7a143.84,143.84,0,0,0,26.66-2.63,149.4,149.4,0,0,0,41-14.05,27.67,27.67,0,0,0,2.94-7.76c4.55-22-27-19.54-40.12-17.24a237.19,237.19,0,0,1-25.75,3c-3.13.18-6.26.31-9.4.42-.79,0-1.6,0-2.41,0l-.31,0c-3.15.06-7.17-.6-10.26-.22-.07,0,0-.05,0-.05.28-.09.55-.09.78-.15-5.42.35-10.81.62-16.21,1.44-7.33,1.15-14.91,1.81-22.09,3.78A16.55,16.55,0,0,0,562.36,373.36Z"/><path class="cls-5" d="M597.63,382.6c-4.77,2.61-9.9,4.47-14.53,7.31A162.07,162.07,0,0,0,568.6,400c-8.36,6.36-19.35,15.09-21.32,26-.15.83.85.52,1.13.06C555,415.3,563,407,573,399.33c7.9-6.05,16.69-10.68,24.66-16.58C597.79,382.69,597.73,382.55,597.63,382.6Z"/><path class="cls-5" d="M609.57,388c-9.22,6.59-18,13.41-26.78,20.66-7.57,6.25-15,13.78-18.07,23.2-.19.58.67.42.85.05,2.83-5.66,7.55-9.45,11.54-14.19,3.55-4.19,7.89-7.73,12.07-11.26,7-5.93,14-11.9,20.48-18.39C609.72,388,609.63,388,609.57,388Z"/><path class="cls-5" d="M592.09,372.25c-11.36,3.41-21.08,6.82-31.09,13.43-7.5,5-14.54,11.61-19,19.44-.39.66.56.73.91.33,2.66-3,5.88-5.26,8.92-7.81,3.62-3.08,6.79-6.49,10.67-9.3a139.85,139.85,0,0,1,29.63-15.91C592.17,372.38,592.22,372.21,592.09,372.25Z"/><path class="cls-5" d="M597.8,359.75c-15.28-.82-37.7.93-49.08,12.56-.06,0,0,.07,0,.05,15.14-8.26,32.48-7.95,48.91-11.57C598.17,360.68,598.53,359.79,597.8,359.75Z"/><path class="cls-5" d="M624.22,392.55c-4.9,8.46-12.84,15.82-19.65,22.78-5.46,5.58-11.3,10.66-14.1,18.15-.22.58.68.49.89.17,10.9-13.22,27.88-24.06,32.9-41.1C624.28,392.52,624.22,392.53,624.22,392.55Z"/><path class="cls-2" d="M408.11,424.06c-2.65-13.7-22.71-11.33-32.43-9.2-9.46,2-18.42,5.88-27.9,7.92-7.11,1.54-14.57,3-21.52,5.25a53.2,53.2,0,0,0-6.39.29c-7.43.88-14.63,3.08-21.8,5.16-9.81,2.83-17.94,6.36-25.4,13.56-4.75,4.57-2.09,8.24,4.13,7.25,6.58-1,12.91-4.37,19.33-6.1,2.74-.73,5.75-1.22,8.7-1.86-13.73,7.69-26.33,17.53-33.69,31.74-1.34,2.56-2.28,6.16-.25,8.59,2.2,2.62,8.17-2.77,9.59-4.07,10.52-9.78,21.11-22.43,34.74-28.15a106.21,106.21,0,0,0-16.86,13.23c-4.95,4.92-8.93,10.35-13,15.94-2.84,3.89-7.24,11-6.16,16.13,2.11,10,12.73-2,15.77-5.3,6-6.51,11.06-13.8,17.38-20.06.49-.5,1-.95,1.5-1.39-2.33,2.35-4.6,4.77-6.73,7.34a62.72,62.72,0,0,0-9.7,15.9c-.8,1.87-4.95,9.69-2.12,11.73,6.33,4.59,19.94-13,23.29-16.49,3.93-4.05,7.95-8.15,11.91-12.3-1.21,1.76-2.39,3.53-3.49,5.35-3.21,5.33-8.33,12.78-7.79,19.27.68,8.27,17.87-10.81,18.86-11.85q3.78-4,7.63-8s0,.08,0,.09a41.21,41.21,0,0,1,7-6.65,42.43,42.43,0,0,1,14.56-8.13c8.11-2.51,14.83-4.86,21.71-10C399.32,451.43,410.82,438.06,408.11,424.06Z"/><path class="cls-3" d="M405.84,430.75c-.79,12.81-12.06,23.91-23.8,30.36-3,2.28-6.61,3.22-10.23,4.41a1.69,1.69,0,0,0-.27.11c-.6.2-1.23.42-1.83.65-8.34,3.17-14.91,7.6-21.83,12.92-.87.93-1.76,1.88-2.73,2.74a165,165,0,0,0-11.52,11.84,79.85,79.85,0,0,1-7.36,7.24,4.84,4.84,0,0,1-4.73,1.73c-.26-1,.27-2.57.51-3.48,1.66-5.8,5.06-11.43,8.31-16.46,3-4.64,6.21-9.07,9.51-13.45a96.49,96.49,0,0,0,4.86-8.56c-6.6,7-13.3,14-19.81,21.14-4.09,4.5-8.34,8.87-12.64,13.17-.09.09-.19.2-.3.29-3,4.27-6.42,8.5-10.65,10.61-2.58,1.28-4.86-.42-4.16-3.3a34.81,34.81,0,0,1,4.19-10c3.92-7.8,9.18-14.49,15.48-21.05,2.24-2.35,4.59-4.63,7-6.84,2.16-2.53,4.43-4.93,6.76-7.29-9,5.42-16.7,13.35-23.6,21-4.41,4.9-8.27,10.31-12.66,15.25a55.59,55.59,0,0,1-5.94,5.85c-.65.51-1.32,1-2,1.47-7.36,5.25-4.79-5.15-4.08-7.32,4.15-12.54,15.49-23.62,25.32-32a85.43,85.43,0,0,1,7.93-5.81,60.63,60.63,0,0,1,7.42-6.41c-.48.29-1,.54-1.44.83a43.42,43.42,0,0,0-6.88,2.61c-5.39,2.35-9.73,5.7-14.21,9.49-5.07,4.32-9.9,8.81-14.6,13.51a102.31,102.31,0,0,1-8.31,7.94c-3.19,2.56-6.8,2.56-6.28-1.89.27-2.24,2.41-5.23,3.6-7.22C283,461,297.51,452,311.45,444.74c1.5-.78,3-1.56,4.53-2.29s3-1.7,4.51-2.46c6.73-3.39,13.85-5.71,20.94-8.13-.23,0-.49.05-.71.09a74.54,74.54,0,0,0-11.42,2.77c-7.15,2.31-14.09,5.87-20.74,9.53A78.55,78.55,0,0,0,300,446c-4.41,1.35-8.91,2.17-13.31,3.55-4,1.24-9.15,3.59-13.4,2.23-2.92-.92,6.18-7.68,6.53-8,8.3-6.27,18.84-8.34,28.69-11.31,4.86-1.5,9.82-2.45,14.78-3.48-.22.09-.46.16-.67.23-.05,0-.06.09,0,.07,2.79-.76,6.59-.69,9.48-1.14a1.26,1.26,0,0,0,.28,0,17.89,17.89,0,0,0,2.23-.38c2.88-.48,5.76-1,8.62-1.59a221.46,221.46,0,0,0,23.36-6.1C378.44,416.22,407.2,409.86,405.84,430.75Z"/><path class="cls-4" d="M322.61,429.27c.21-.07.45-.14.67-.23-.8.16-1.58.32-2.38.5a11,11,0,0,0-.63,8.73,87.56,87.56,0,0,1,9-3.55A74.54,74.54,0,0,1,340.72,432c.22,0,.48-.05.71-.09-6.94,2.37-13.89,4.67-20.49,7.91a13.15,13.15,0,0,0,1.4,2.09c4.4,5.36,11.07,8.48,17.59,10.41,9.42,2.82,19.64,3,29.34,1.69,11.08-1.49,24.06-5.35,33.5-12.64a26.27,26.27,0,0,0,3.07-10.57c1.36-20.89-27.4-14.53-39.26-10.66a221.46,221.46,0,0,1-23.36,6.1c-2.86.58-5.74,1.11-8.62,1.59a17.89,17.89,0,0,1-2.23.38,1.26,1.26,0,0,1-.28,0c-2.89.45-6.69.38-9.48,1.14C322.55,429.36,322.56,429.31,322.61,429.27Z"/><path class="cls-5" d="M322.33,453c-4.05,3-8.54,5.42-12.44,8.62a152.62,152.62,0,0,0-12.08,11.23c-6.87,7-15.87,16.45-16.27,26.8,0,.77.86.39,1-.07,4.66-10.84,11-19.55,19.25-27.94,6.51-6.63,14-12,20.6-18.53C322.5,453,322.43,452.89,322.33,453Z"/><path class="cls-5" d="M334.07,456.37c-7.64,7.31-14.89,14.72-22,22.56-6.15,6.76-12.08,14.67-13.65,23.75-.1.6.67.31.8,0,1.87-5.6,5.74-9.71,8.8-14.6,2.72-4.35,6.26-8.14,9.68-12,5.7-6.34,11.35-12.77,16.48-19.62C334.2,456.37,334.12,456.33,334.07,456.37Z"/><path class="cls-5" d="M315.88,444.14c-10,4.61-18.56,9-26.93,16.42-6.29,5.6-11.89,12.63-15,20.43-.28.66.61.62.89.18,2.05-3.12,4.73-5.61,7.21-8.4,2.94-3.3,5.4-6.83,8.63-9.93a128.81,128.81,0,0,1,25.27-18.55C316,444.22,316,444.09,315.88,444.14Z"/><path class="cls-5" d="M319.53,431.86c-14.22,1.22-34.68,5.74-43.68,18,0,0,0,.07.06.05,12.88-9.6,28.92-11.57,43.62-17C320,432.66,320.19,431.79,319.53,431.86Z"/><path class="cls-5" d="M348.18,458.65c-3.42,8.45-9.79,16.29-15.17,23.62-4.31,5.85-9,11.29-10.65,18.55-.13.6.68.38.86.07,8.32-13.65,22.58-25.86,25-42.24C348.22,458.61,348.18,458.63,348.18,458.65Z"/><path class="cls-2" d="M154.87,426.23c-2.15-2.41-13.12-8.93-11.74-12.32,0,0,0,0,0,0a6.15,6.15,0,0,0-1,3.17c-4.57-1.67-10.43,0-15,1-7.32,1.57-14.56,2.94-21.71,4.94-8.42,1.39-16.82,2.61-25.12,4.89-9.87,2.73-19.67,7.47-28.46,12.64-6.37,3.76-13.7,9.21-16.19,16.5-1.42,4.21,2.82,4.19,5.84,3.28-2.05,3.24-5.94,10.71-2.09,12.81,4.8,2.59,10.9-2.83,14.92-6.47-1.85,3.22-2.57,6.47-.92,9.2,3.54,5.83,20.51-11.79,22.59-13.63,9.14-8.09,19.78-14,31-18.7q-2.85,2-5.54,4.25A68.79,68.79,0,0,0,86.66,466c-1.19,2.08-4.16,7.16-1.12,8.79,3.66,2,8.58-6.2,10.15-8,7.39-8.51,16-14.82,25.74-20.45,9.38-5.43,18.5-6,29-7.38,3-.38,7.18-1.88,7-5.71A10,10,0,0,0,154.87,426.23Z"/><path class="cls-3" d="M146.39,439c-6.44.73-12.81,1.13-18.91,3.5s-11.71,5.94-17,9.5a74.6,74.6,0,0,0-13.67,11.9c-1.93,2.11-3.7,4.46-5.66,6.59a5.55,5.55,0,0,1-1.45,2.12c-1,.82-3.68,2.09-4.33.14-1.19-3.5,1.81-7,4.54-9.66a73.44,73.44,0,0,1,24.45-23.32c.91-.51,2-1,3-1.46a4.11,4.11,0,0,0,1-1.55c-2.84,1.68-5.73,3.25-8.57,4.87-.2.11-.37.23-.56.34-18.71,5.67-31.49,19.21-46.61,30.71l-.53.27a16.3,16.3,0,0,1-3.58,2c-2.11.79-4.23.24-4.53-2.24-.54-4.39,3.73-7.6,6.56-10.2a.23.23,0,0,1,.11-.07,76,76,0,0,1,6.93-6.86,104.71,104.71,0,0,1,14.85-10.28c5.11-3.13,10.33-6,15.45-9.09,1.86-1.13,5.62-2.6,6.68-4.9,0-.07-.08-.07-.13,0-1.37,2.35-6.67,4-9,5.23-3,1.51-6,3-9,4.49A113.16,113.16,0,0,0,68.63,452c-3.1,2.31-9.43,7.41-13.2,12.85-1.41,1-2.8,2-4.2,3a6.52,6.52,0,0,1-.6.73,11.68,11.68,0,0,1-5.37,3.26c-2.87.82-6.18-.15-5.73-3.63a12.42,12.42,0,0,1,1.65-4.37,8.09,8.09,0,0,1,.93-1.48c.08-.11.14-.16.21-.27s.2-.31.36-.49c3.32-5.94,9.89-10.54,15.38-14.29,10.29-7,21.85-11.64,33.45-15.93,0,0,.06-.12,0-.09-17.25,5.11-37.27,12-48.63,27a2.23,2.23,0,0,1-1.68,1.38c-1.89.19-4-.56-4.05-2.75a4.6,4.6,0,0,1,.54-2.18l-.07-.08a18.31,18.31,0,0,1,3.87-5.1c3.66-4,8.5-6.85,13.15-9.46a157.28,157.28,0,0,1,17.83-8.38c9-3.63,18.28-5.34,27.6-7.11,0,0,0,.06.07.06.29-.09.6-.15.91-.26,4.36-.82,8.73-1.68,13.07-2.79h0c2.42-.42,4.83-.8,7.26-1.09,8.15-1,16-4.12,23.64.25,0,0,0,0,.06,0,1.69,1.39,3.44,2.65,5.1,4.09a16.26,16.26,0,0,1,4.24,5C159.86,438.06,149.58,438.66,146.39,439Z"/><path class="cls-4" d="M90.8,431.51l.71-.2c.06,0,0,.06,0,.09l-.55.22a30.35,30.35,0,0,0,9.37,2.75c1.79-.85,3.48-1.85,4.15-3,0-.05.17-.05.13,0a8,8,0,0,1-3.51,3.15,71.36,71.36,0,0,0,12.86.64A114,114,0,0,0,152.39,427a15.23,15.23,0,0,0-2.21-2.11c-1.66-1.44-3.41-2.7-5.1-4.09,0,0,0,0-.06,0-7.6-4.37-15.49-1.29-23.64-.25-2.43.29-4.84.67-7.26,1.09h0c-4.34,1.11-8.71,2-13.07,2.79-.31.11-.62.17-.91.26,0,0-.07,0-.07-.06-4.46.84-8.92,1.71-13.36,2.73A8.67,8.67,0,0,0,90.8,431.51Z"/><path class="cls-6" d="M911.94,351.37c-11.5-24.24-34.94-40.93-57-54.53-29.89-18.38-64.19-29.06-92.54-50.15-12.32-9.15-24.33-17.8-34-29.94-7.07-8.89-15.29-17.37-22-26.68a22.63,22.63,0,0,0-2.14-3.15c-1.4-2.1-2.76-4.23-4-6.42-.05-.09-.15,0-.13.07.63,1.43,1.29,2.87,2,4.29a6.18,6.18,0,0,0-2.18-1.11,1.16,1.16,0,0,0-1.31.62c-5.64,10.18,3.81,29,7.22,38.78,6.09,17.58,8.74,36,15.35,53.41,1,5.54,1.93,11.1,3.24,16.58.36,1.55,2.41.29,2.48-.82.22-2.5.36-5,.51-7.54,1.07,6.47,1.35,13.39,2.48,19.51a120.65,120.65,0,0,0,5,19.69c.24.73.82.71,1.37.38,1.56,11.35,4.59,22.38,11.06,32.2.89,1.33,2.4,1.13,3.62.29a78.66,78.66,0,0,0,16.62,27.28A109.44,109.44,0,0,0,777.87,402c1.42,2,4.43-.73,3.64-2.66-.25-.59-.47-1.21-.73-1.81a80,80,0,0,0,6.89,11.76c5.67,7.89,13.23,15.54,22.64,18.49a76.16,76.16,0,0,0,7.72,6.13c1.53,1,3.87-1.11,3.1-2.77-.11-.26-.29-.51-.44-.8,9.08,7.67,19.9,12.06,32.17,14.19a72.9,72.9,0,0,0,46.7-7.65c8-4.43,13.33-12.89,17.57-21.14a1.43,1.43,0,0,0,1.21-.51C931.24,397.73,920.05,368.42,911.94,351.37Z"/><path class="cls-7" d="M911.94,351.37c-11.5-24.24-34.94-40.93-57-54.53-29.89-18.38-64.19-29.06-92.54-50.15-12.32-9.15-24.33-17.8-34-29.94-7.07-8.89-15.29-17.37-22-26.68a22.63,22.63,0,0,0-2.14-3.15c-1.4-2.1-2.76-4.23-4-6.42-.05-.09-.15,0-.13.07.63,1.43,1.29,2.87,2,4.29a6.18,6.18,0,0,0-2.18-1.11,1.16,1.16,0,0,0-1.31.62c-5.64,10.18,3.81,29,7.22,38.78,6.09,17.58,8.74,36,15.35,53.41,1,5.54,1.93,11.1,3.24,16.58.36,1.55,2.41.29,2.48-.82.22-2.5.36-5,.51-7.54,1.07,6.47,1.35,13.39,2.48,19.51a120.65,120.65,0,0,0,5,19.69c.24.73.82.71,1.37.38,1.56,11.35,4.59,22.38,11.06,32.2.89,1.33,2.4,1.13,3.62.29a78.66,78.66,0,0,0,16.62,27.28A109.44,109.44,0,0,0,777.87,402c1.42,2,4.43-.73,3.64-2.66-.25-.59-.47-1.21-.73-1.81a80,80,0,0,0,6.89,11.76c5.67,7.89,13.23,15.54,22.64,18.49a76.16,76.16,0,0,0,7.72,6.13c1.53,1,3.87-1.11,3.1-2.77-.11-.26-.29-.51-.44-.8,9.08,7.67,19.9,12.06,32.17,14.19a72.9,72.9,0,0,0,46.7-7.65c8-4.43,13.33-12.89,17.57-21.14a1.43,1.43,0,0,0,1.21-.51C931.24,397.73,920.05,368.42,911.94,351.37Zm-57,21.1a142,142,0,0,0-15.13-15.69,23.64,23.64,0,0,1,.62,5.36c0,.69-1.05,1.49-1.64.92-1.86-1.72-3.51-3.71-5.32-5.53,4.3,6.14,7.4,13.52,7.33,20.77,0,.53-.91,1.48-1.5,1-4.79-3.68-8.4-8.49-12.06-13.21a103.62,103.62,0,0,1,7.91,24c.11.6-.84,1.71-1.48,1.22-7-5.21-12.41-12-18.09-18.53,0,3.31.36,6.63.43,10,0,.57-1.16,1.61-1.64.93-5.37-7.63-7.54-16.51-8.16-25.66-.77,3.41-1.35,6.87-2.22,10.28-.15.53-1.42,1.46-1.72.58-3.39-10.66-2.4-21.7-2.8-32.65-2.26,8.27-3,16.84-4.52,25.31-.07.47-1.24,1.39-1.6.73-4.49-7.78-6-16.48-7.55-25.15-.46,4.23-.29,8.53-1,12.77-.1.66-1.31,1.34-1.71.57a80.37,80.37,0,0,1-4.35-11.1,38.49,38.49,0,0,1-2.21,12.39c-.14.46-1.46,1.55-1.69.61-2.1-8.48-3.28-17.12-6.36-25.26.11,1.4.18,2.8.22,4.19,0,.6-1.17,1.6-1.65.93a48.45,48.45,0,0,1-7.74-17.59c0,1.17,0,2.34,0,3.5,0,.57-1.16,1.68-1.64.95-6.63-10.32-9.44-22.2-9.31-34.24-.33,2.44-.53,4.9-.67,7.4-.08.71-1.28,1.64-1.75.76-4.52-8.36-4.63-17.93-4.56-27.26a42.71,42.71,0,0,0-1.6,7.71c-.08.58-1.53,1.75-1.73.78-1.52-8.13-1.92-16.4-2.67-24.62a.71.71,0,0,1,.17-.45,31.33,31.33,0,0,1-.51-4.42c0-.56,1.22-1.65,1.62-.94a84.72,84.72,0,0,0,4.72,7.78A41.51,41.51,0,0,0,739.6,245c-.26-.7.84-1.55,1.47-1.26,8.55,4.19,14.26,12.1,19.34,20.27-1.46-2.57-2.95-5.11-4.3-7.75-.35-.71.91-1.49,1.49-1.22,7.57,3.42,13.23,9.37,18.52,15.6-.93-1.77-1.86-3.56-2.74-5.36-.29-.64.92-1.64,1.5-1.22,7.58,5.41,13.63,12.43,19.35,19.74-.14-3.21-.2-6.46-.2-9.7,0-.66,1.59-1.69,1.73-.76,1.35,7.74,5.65,14.74,10.83,20.64-1.24-3.95-3-7.8-4.27-11.81-.22-.71,1-1.74,1.63-1.11,6.68,7.44,14.76,13.32,22.43,19.7-1.19-2-2.33-4.1-3.39-6.18-.36-.69.89-1.53,1.46-1.25,14.5,6.88,22.79,23.18,27.3,37.85.18.67-.84,1.58-1.48,1.24a33.63,33.63,0,0,1-5.34-3.83,59.13,59.13,0,0,1,8.31,19.86c.15.79-1,1.68-1.62,1.11a90.86,90.86,0,0,1-6.8-6.36c5.8,8.5,10.19,17.9,11.79,28.18C856.7,372,855.57,373.2,855,372.47Z"/><path class="cls-7" d="M911.94,351.37c-11.5-24.24-34.94-40.93-57-54.53-1.83-1.11-3.65-2.22-5.51-3.28,5.18,4.54,10.39,9.08,14.14,15,.26.44-.4,1-.83.84-5.58-2.62-10.9-5.88-16.66-7.93,12.06,5.76,23.53,13.93,27.12,27.49.11.43-.61,1-1,.65a26.75,26.75,0,0,0-10.35-6.1,81.39,81.39,0,0,0,19.63,17.67c.49.31-.22,1-.66.93a83.65,83.65,0,0,1-14.42-3.48c8,8.22,14.42,18.1,16.33,29.18.08.42-.63,1.11-1,.69a81.73,81.73,0,0,0-9.42-10.83,86.87,86.87,0,0,1,4.86,8c4.08,8,5.4,16.2,3.28,24.92-.11.34-.8.81-1,.32-1.86-4.61-3.72-9.2-5.94-13.59,1.86,9.66,1.4,19.72-3.81,28.05-.13.18-.82.69-1,.19-1.61-6.7-2.15-16-7.68-20.88,2.25,11.52,5.44,23.24.79,34.62-.11.31-.77.86-1,.35a64.67,64.67,0,0,0-13.81-19.5c1.68,3.3,3.37,6.6,5.17,9.82.26.41-.36,1-.81.81-4.62-2.5-9.3-4.91-13.8-7.64,4.17,5,8.29,10.1,11.3,15.93.18.38-.44.85-.77.76-10.24-2.6-19.9-6.78-28-13.54a72.25,72.25,0,0,1,4.55,12.78c.09.38-.47,1-.87.73a48.69,48.69,0,0,1-15.35-19.56c.7,3.83,1.44,7.68,2.15,11.5.08.4-.62,1.11-.94.68A127.61,127.61,0,0,1,794.25,387c.71,3.39,1.33,6.78,1.73,10.19.07.38-.69.95-1,.56a98.39,98.39,0,0,1-13.54-25.93c.3,5.07.93,10.15,1,15.24,0,.42-.77,1-1,.47-3.54-7.63-7-15.42-9.08-23.56,0,4.5.15,9,.53,13.5,0,.46-.76,1-1,.48-6.6-12.34-9.33-25.81-11.5-39.49a70.64,70.64,0,0,0-1.58,15.36c0,.4-.81,1-1,.45-2.95-7.72-2.91-15.92-3.27-24.07-1,3.41-1.85,6.87-3,10.21-.15.36-1,.89-1,.23-1.11-10.09-1.64-20.23-2.19-30.36-1.95,4.67-2.38,9.73-2.44,14.82,0,.38-.84,1-1,.43-4.14-13.77-5.48-28-6.1-42.36a62.73,62.73,0,0,0-2.43,13.75c0,.35-.95,1-1,.44-1.33-8.56-2.08-17.24-4.3-25.6.66,8.35-.49,16.91-2.11,25.24.29,2.51.58,5,1,7.3a120.65,120.65,0,0,0,5,19.69c.24.73.82.71,1.37.38,1.56,11.35,4.59,22.38,11.06,32.2.89,1.33,2.4,1.13,3.62.29a78.66,78.66,0,0,0,16.62,27.28A109.44,109.44,0,0,0,777.87,402c1.42,2,4.43-.73,3.64-2.66-.25-.59-.47-1.21-.73-1.81a80,80,0,0,0,6.89,11.76c5.67,7.89,13.23,15.54,22.64,18.49a76.16,76.16,0,0,0,7.72,6.13c1.53,1,3.87-1.11,3.1-2.77-.11-.26-.29-.51-.44-.8,9.08,7.67,19.9,12.06,32.17,14.19a72.9,72.9,0,0,0,46.7-7.65c8-4.43,13.33-12.89,17.57-21.14a1.43,1.43,0,0,0,1.21-.51C931.24,397.73,920.05,368.42,911.94,351.37Z"/><path class="cls-6" d="M117.55,28.17c.9-8.34-1-18.71-9.51-22.58C96.87.53,85.41,7.05,77,14.38c-7.23,6.34-10.51,16.56-4.79,24.73C76.88,45.72,87.66,52,95.78,47.45c.5-.29,1-.87.75-1.49a2.75,2.75,0,0,0-.28-.44c1.92,0,3.74-.45,4.87-2a1,1,0,0,0,0-1.17.22.22,0,0,0-.1-.09c7.42-1.15,15.41-5.72,16.77-13.38C117.84,28.5,117.73,28.28,117.55,28.17Z"/><path class="cls-8" d="M113.73,29.81c.7-6.58-.73-14.72-7.29-17.76-8.57-4-17.37,1.12-23.81,6.9C77.09,24,74.58,32,79,38.43,82.52,43.61,90.8,48.6,97,45c.39-.22.78-.69.57-1.16a2.42,2.42,0,0,0-.21-.39,4.15,4.15,0,0,0,3.73-1.55.75.75,0,0,0,0-.91.11.11,0,0,1-.06-.07c5.66-.89,11.81-4.52,12.86-10.51C114,30.07,113.88,29.9,113.73,29.81Z"/><path class="cls-6" d="M727.54,242.7c-2.74-17.73-4.63-35.74-9.87-52.94-4.83-15.84-10.66-32.16-20.45-45.63s-21.05-23.84-33.92-34.59c-25.82-21.56-58.46-32-91.14-37-35.09-5.34-70.67-11.41-106.32-8.2-8.48.76-17.19,2.89-26,5.25-16.49-.44-33.26.63-49.77.65-35.06,0-73.37-.62-105.92-15.2C267.78,47.69,251.05,41,234.52,34c-13.76-5.85-26.5-11.61-41.36-14-8.42-1.37-16.65-3.21-25.16-3.9-8.85-.69-17.11,1.62-25.88,2a62.74,62.74,0,0,0-13.58,2.17,60.32,60.32,0,0,0-9.4,2.32C81.26,35.44,53,57.39,32.6,92c-7.41,12.61-17.38,26.77-16.06,42,.63,7.53,6.12,15.51,9.53,21.92,3.67,6.91,7.52,14.73,12.41,20.83,13.49,16.88,34,27.16,54.43,26.72,1.74.47,3.46.91,5.14,1.31a94.12,94.12,0,0,0,14.63,2.19c.3,1.24.6,2.44.84,3.75,2,10.88,1.26,21.54-.9,32.29-1.9,9.53-4.07,18.92-5.53,28.52-1.66,10.92-9.22,19-13.32,28.9-7.33,17.72-17,34.21-22.72,52.64-4.06,13.12-3.68,28.24-1.17,41.65,5.3,28.45,33.49,42.24,60.35,34,9.55-2.94,18-8.46,25.33-15.44,8.35-13.63,17.09-27.06,27.41-39.25,3.69-4.36,7.61-9.22,11.9-13.47.15-.2.28-.38.44-.56,1.34-1.53,9.16-7.66,9.16-8.62a1.5,1.5,0,0,1,1.87-1.32c.55.2,1.1.44,1.64.66a1.09,1.09,0,0,1,.85,0c14.63,6,30.18,8.5,45.46,12.2.7,0,1.44.12,2.15.12.55.3,1.11.57,1.66.84,3.26.84,6.51,1.73,9.73,2.77,12.72,4.12,21.93,8.17,27.52,21,3.49,8,6.79,16.25,10.46,24.31,16,25,43.18,44.15,73.39,32.62,17.6-6.69,27.68-21.78,33-39,22,0,44.21-2,65.17-6.76,14.56-3.28,28.36-9.26,41.71-15.78,7.9-3.89,15.95-7.37,24-10.92A140.34,140.34,0,0,0,600,385.14c27.66.38,59.4-5.14,83.32-19.61,26.46-16,41.32-43.18,46.16-73.21C732.14,275.89,730.05,259,727.54,242.7Z"/><path class="cls-7" d="M24.41,139.5c4.63,2.64,10.91,3.81,14,8.55C42,153.57,43.8,160,46.59,165.92a35.37,35.37,0,0,0,12.82,14.49c-4.93-10-10.33-19.53-10.57-31,0-.55.6-1,1.1-1.1,10.13-1.27,26.59-11,23.27-23.45-1.91-7.11-8.15-11.63-14.77-14.18-10.61-4-30.28-6-38.34,4.1a46.44,46.44,0,0,0-3.42,12.3A16,16,0,0,0,24.41,139.5Z"/><path class="cls-7" d="M142.46,88.24c-.49.16-1-.08-.83-.66,1.76-6.3,3.56-16.11-2-21.21-5.8-5.32-13.28-2.72-17.48,2.81a5.89,5.89,0,0,1,5.18-.48c.33.13.28.64.12.88-6.37,9.44-6.17,18-2.15,28.32a.71.71,0,0,1,0,.45,7,7,0,0,1-.6,6.12,28.29,28.29,0,0,0-3.3,16.84c3.82-17.51,20.76-34.11,38.74-32A24.84,24.84,0,0,0,142.46,88.24Z"/><path class="cls-9" d="M122.43,156a22.82,22.82,0,0,0,1.83,1.53c.68.5,1.88-.41,1.66-1.22a20.92,20.92,0,0,0-5.34-8.56c.62-.06,1.6-.93,1.13-1.59-.33-.43-.71-.93-1.15-1.4.62-.35,1.13-1.26.67-1.84a19.88,19.88,0,0,0-4-3.52c.73-.18,1.46-1.11.84-1.69a21.09,21.09,0,0,0-3.57-2.43c.69-.22,1.33-1,.74-1.58a35.8,35.8,0,0,0-3.92-3.19c.5-.26.87-1,.45-1.4a25.89,25.89,0,0,0-4.07-3.1.82.82,0,0,0,0-.91,23.84,23.84,0,0,0-5.8-4.94.53.53,0,0,0,.21-.31A21.65,21.65,0,0,0,90,117.14c-1.4.13-.58-1.77.32-2l.27-.07h0c1-.22,1.9-.42,2.86-.62-4.6-1.11-9.22-.58-14,.16-1.15.19-.81-1.2-.24-1.65.83-.66,1.68-1.28,2.54-1.9-3.28.82-6.2,2.62-9.2,4.28-.61.35-1.6.18-1.32-.69a27.5,27.5,0,0,1,1.35-3.39c-2.74,3.23-5,5.43-9.29.71-9.25-10.22-31-9.71-40.8-.84a1.55,1.55,0,0,1-.94.35c-3.39,7.14-5.69,14.67-5,22.45.63,7.53,6.12,15.51,9.53,21.92,3.67,6.91,7.52,14.73,12.41,20.83,13.49,16.88,34,27.16,54.43,26.72,1.74.47,3.46.91,5.14,1.31,1.47.35,3,.62,4.52.91A20,20,0,0,0,111,201.3a30.88,30.88,0,0,0,8.25-11.92.77.77,0,0,0,.88.09c3-1.71,2.58-6.58,1.72-10.37a1.75,1.75,0,0,0,.28-.49c.43,1.15.85,2.31,1.25,3.52.26.78,1.41-.06,1.54-.53a15.11,15.11,0,0,0-.07-7.07,7.2,7.2,0,0,0-.07-1.55.94.94,0,0,0,.1-.28,18.45,18.45,0,0,0-2-11.41c.45.39.92.79,1.39,1.15.72.59,2-.58,1.55-1.36A44.43,44.43,0,0,0,122.43,156Z"/><path class="cls-10" d="M104.62,174.8c2.16-5.18,2.28-10,2.28-15.31-2.28,14.62-9.38,27.21-26.6,27.7-6.53.2-12.27-2.53-17.11-6.49,0-.09,0-.16-.11-.23a.43.43,0,0,0-.38-.17,51.08,51.08,0,0,1-8.11-8.89c-9-12.39-10.4-25.37-14-39.6-.05-.15-.21,0-.2.11,2,18.64,6.44,38.21,21,49.79-1,2.22-1,4.48-3.62,5.94-4,2.22-8.68-.93-11.78-3.3-.12-.09-.31.13-.21.22,3.43,4.28,7.42,7.51,13,5a9.92,9.92,0,0,0,4.83-6.25A43.1,43.1,0,0,0,72.32,188C85.31,193.13,98.13,185.79,104.62,174.8Z"/><path class="cls-11" d="M42.66,107.08c-10.42.31-27,5.14-23.88,18.79a.57.57,0,0,1,0,.16,20.36,20.36,0,0,0,4.65,8.51,28,28,0,0,0,21.37,8.91c4.35-.11,14-1.47,17.08-5.23,5.16-6.25,8-13.39,5.93-19.49C62.93,110.54,52.52,106.77,42.66,107.08Z"/><path class="cls-12" d="M68.13,120.22c-.91,12-13.68,18.79-27.09,18.3-7-.26-16.28-2.06-20.49-8.35A12.73,12.73,0,0,1,19.39,128a20.5,20.5,0,0,0,4,6.54,28,28,0,0,0,21.37,8.91c4.35-.11,14-1.47,17.08-5.23C66.6,132.5,69.37,126,68.13,120.22Z"/><path class="cls-13" d="M125.61,83.81c-.18,7.34,2.27,13.32,5.49,13.39s6-5.77,6.13-13.12S135,70.76,131.75,70.69,125.8,76.48,125.61,83.81Z"/><path class="cls-14" d="M132.39,78.41c.13,2.23,1,4,2,3.92s1.65-1.93,1.55-4.12-1.05-4-2-3.91S132.26,76.19,132.39,78.41Z"/><path class="cls-10" d="M223.66,106.92c-.09-.08-.24.09-.15.16,3.21,2.73,11.91,11.54,12.5,17.62-2.66-2.11-5.06-4.61-7.84-6.59-.45-.31-1.31.36-1,.89,1.7,2.49,3.76,4.57,5.12,7.36,3.09,6.34,1.83,14.53-.28,21a37,37,0,0,0-4.5-11.48c-.15-.28-.52.09-.44.33,2,5.55,3.48,11.15,2.34,16.78a28.1,28.1,0,0,0-5-7.49c-.67-.77-2,.6-1.85,1.35,2.43,11.64-2,18.69-9.76,25.88a11.94,11.94,0,0,0,.09-7.33c0-.06-.14,0-.13.09,1.08,5.85-4,12.14-8,15.71a46.49,46.49,0,0,1-9.5,5.9A39.78,39.78,0,0,0,201,176.18c.09-.25-.25-.25-.34-.07-6.7,12.21-19.3,17.66-31.82,22.11-.85.31-9.74,4-7.42,2.27A37.51,37.51,0,0,0,167,195c.31-.25.38-.34.25-.25.91-1.06,1.8-2.09,2.68-3.06.19-.26.12-.79-.28-.57-3.59,2-.09.5-5.44,4.43-6,4.43-12.95,5.83-20.08,7.4-.73.16-1.69,1.86-.47,1.9a28.28,28.28,0,0,0,16.6-4.78c-1.31,1.08-2.47,2-3,2.59-.38.42-.35,1.18.35,1.09,13.5-1.64,25.57-4.52,34.09-12.72,7.09-1.69,13-6.25,17.66-11.75a17.09,17.09,0,0,0,2.38-3.94,34.8,34.8,0,0,0,12-13.45,17.62,17.62,0,0,0,1.54-10.15c1,2.13,1.7,4.29,2.64,6.78.57,1.5,2.5-.16,2.83-.93a18.28,18.28,0,0,0,1.45-8.76,1.48,1.48,0,0,0,1.32-.82c2.9-6.31,4.07-14.38,1.24-21-.3-.7-.63-1.37-1-2A26.78,26.78,0,0,0,236,127.8c.6.57,1.69-.2,1.84-.86C239.81,119.38,229.07,110.54,223.66,106.92Z"/><path class="cls-10" d="M138.35,206c-4.23.42-9.49,1.11-14.48.76a59.14,59.14,0,0,1-9.78-.23c-2.22.2-4.44.36-6.68.42a19.35,19.35,0,0,0,2.76.43,1.17,1.17,0,0,0,.63-.27,58.49,58.49,0,0,0,5.55,2.66c1,.44,2.4-1,2-2,6.32,1.71,13.54,1,19.78-.06C139,207.53,139.56,205.89,138.35,206Z"/><path class="cls-10" d="M139.27,284.43c-.06-.35-.31-.38-.56-.29-2.92-9.26-5.9-17.88-5.64-28.07,0-.27-.38-.12-.41.1a57.61,57.61,0,0,0,.41,17.8c-4.66-11.7-3.9-25.06-2.17-37.34,0-.13-.18-.09-.2,0-1.9,7.45-4.07,15.16-3.62,22.92.41,7.18,1.29,17.75,6.69,23.08a1.12,1.12,0,0,0,1.39.12c.67,2.32,1.43,4.63,2.29,7,.5,1.38,2.79-.33,2.51-1.46A22.62,22.62,0,0,1,139.27,284.43Z"/><path class="cls-10" d="M171.89,326.42c-5.83-6.27-11.68-12.25-16-19.7-2.83-4.9-3.65-10.75-6.15-15.78-.61-1.26-2.27.16-2.37,1.05a31.59,31.59,0,0,0,0,5.67,108.5,108.5,0,0,1-7.69-28.55c-.13-.86-1.28-.08-1.27.54.61,15,2.42,28.12,11.79,40.4h0c.06.09.12.19.19.28.89,1.13,2.86-1,2.35-2.1a33.67,33.67,0,0,1-2.69-9.64c1.66,4.36,3.14,8.8,5.57,12.92,3.74,6.38,9.57,11.37,15.23,16C171.44,328,172.38,327,171.89,326.42Z"/><path class="cls-10" d="M208.59,347.52c-10.8-5.28-22.61-14.16-29.79-24-.59-.84-2,.35-1.57,1.13,1,1.61,2.61,3.74,4.09,5.91a85.76,85.76,0,0,1-19.24-24.44c-.14-.29-.5.09-.44.31,4.14,13,11.14,23.14,22.76,30.83,1.18.77,2.88-.84,2.33-2.07a.65.65,0,0,0-.11-.22c1.88,1.67,3.8,3.28,5.72,4.88,4.46,3.74,9.65,8.2,15.71,8.84C208.55,348.72,209.19,347.83,208.59,347.52Z"/><path class="cls-10" d="M385.83,257.19a2.61,2.61,0,0,0,1.34-2.21,42.89,42.89,0,0,0-6.65-15.47c-3-10.5-11.2-20.46-20.11-26.19-.14-.09-.42.15-.27.28,6.62,5.06,10.33,11.33,13.83,18a36.82,36.82,0,0,0-7.75-5.91c-.18-.09-.5.27-.33.42,6.62,5.45,13.11,14.85,16.3,23.82a67.93,67.93,0,0,0-9.44-7.55c-1-.63-2.72,1.08-1.73,1.86,10.78,8.66,16.25,19.76,21.27,32.31.32.8,1.64-.2,1.49-.87A61.56,61.56,0,0,0,385.83,257.19Z"/><path class="cls-10" d="M413.2,382.93c1.39-9-.09-17.6-3-25.8,1.66-9.74.75-18.1-1.89-27.82a53.62,53.62,0,0,0-2.72-7.77,49.54,49.54,0,0,1,3.65,5.33c.84,1.44,2.83.1,3.2-1.05,1.59-5-1.33-11.56-5.62-17.1a37.52,37.52,0,0,0-7-17.78c1.58.74,3.67-1.75,2.5-3.19A95.64,95.64,0,0,0,385.62,271c-.08-.08-.21.09-.16.16,2.92,3.61,5.5,7.42,8.08,11.21q-1.94-1.06-3.91-2.19c-1-.62-2.86,1.62-1.79,2.37,8,5.7,13,13.69,16,22.72-3.27-3.39-6.88-6.05-9.84-7-.21-.07-.46.27-.24.38,6,3.25,11.64,12.83,14.08,21.07a49.59,49.59,0,0,0-7.05-6.71c-.71-.49-2,.6-1.53,1.39,7.34,11.26,9.54,25.48,9.46,38.94a130.69,130.69,0,0,0-6.46-13.12c-.07-.11-.23.06-.19.15a148.92,148.92,0,0,1,6.68,23.34,85.79,85.79,0,0,1,1.19,11.1,81.43,81.43,0,0,0-6-10.55c-.06-.11-.22,0-.18.12,6.28,13.2,10.29,28.58,7,43.14-.18.77.84.42,1.07.07C416.51,400.46,415.91,391.46,413.2,382.93Z"/><path class="cls-10" d="M251.93,325.22c-.07-.22-.36,0-.34.14a41.36,41.36,0,0,0,5.85,19.54c-10.08-10.59-21.47-24.55-21.26-39.68,0-1.34-1.66-.78-1.93.13a30.92,30.92,0,0,0-.79,10.3c-4-9.28-6.71-19.92-4.64-29.34.08-.35-.45-.2-.51,0a39,39,0,0,0-1.35,16.3,185.51,185.51,0,0,1-7.81-22.54c0-.19-.28,0-.25.1,1.51,9.59,2.38,20.69,8.15,28.91a.89.89,0,0,0,1.11.34,69.31,69.31,0,0,0,6.36,16.5c.9,1.65,3.35-.39,3.09-1.77s-.56-3.06-.78-4.58c4.76,11.65,11,21.58,21.12,29.4.57.44,1.35,0,1.72-.6,9.12,13.35,23.87,23.8,33,36.9.37.49,1.14-.2.93-.68C283.9,361.44,257.63,351.15,251.93,325.22Z"/><path class="cls-10" d="M543.93,369.94a29.4,29.4,0,0,0-2.86-1.15,27.43,27.43,0,0,1-3.27-1.92,38.32,38.32,0,0,1-5.38-4.55c-.25-.26-.66.27-.47.53a49.24,49.24,0,0,0,4.64,5.39A44.6,44.6,0,0,1,520.15,353c-1.55-3.32-3-6.67-4.67-9.95-.39-.77-1.56.18-1.42.84a47.9,47.9,0,0,0,8.41,17.84c.34.62.68,1.26,1,1.87-3.35-6-12.64-13.23-16.9-21-5-9.19-7.42-18.95-9.69-29.07-.1-.45-.7,0-.67.31a105.74,105.74,0,0,0,4,23.06c-11.15-14.2-17.56-28.43-18-48.55,0-1.26-1.83-.31-2,.42a43.29,43.29,0,0,0-1.45,11.15,83.6,83.6,0,0,1-3.61-27.68c0-.27-.31-.11-.33.05a63.88,63.88,0,0,0-1.21,18.85c-2.69-7.2-5.09-14.25-6-22.22-1.12-10,1.87-17.69,3.42-27.11.25-1.39-1.44-.73-1.87-.13a28.69,28.69,0,0,0-3.13,5.37A79.33,79.33,0,0,1,474,222.65c.17-.33-.21-.4-.38-.16a63.17,63.17,0,0,0-7.35,14.2,81.57,81.57,0,0,1,2.35-12.19,130.73,130.73,0,0,1,4.92-13.93c.11-.22-.18-.2-.28-.07-5.16,8.42-11.1,21.38-9.43,31.53.08.41.34.56.64.49a67.35,67.35,0,0,0-2.06,16.38c0,1.91,2.45,1.2,2.82-.2.21-.78.41-1.68.59-2.63-.36,3.1-.5,6.24-.6,9.41-.41,12.81,3.34,23.93,9.88,34.7a62.2,62.2,0,0,0,4,11.9c.68,1.53,2.25.58,3.07-.66.15.51.28,1,.44,1.44a76.18,76.18,0,0,0,20.55,31.71c.6,1.38,1.27,2.75,2,4.14,3.43,6.52,12.17,18.16,20.47,17.85a1.57,1.57,0,0,0,1-.47,17.88,17.88,0,0,0,9.83,4.52,1.4,1.4,0,0,0,1.33-1.29c1.5,1.38,3.43,3.13,5.54,2.49C544,371.6,544.82,370.52,543.93,369.94Z"/><path class="cls-10" d="M732.31,269.69a128.6,128.6,0,0,0-2-13.62c1.42-8.12.11-17.82-2.77-26.73.91.26,2.07-1.15,1.93-2A93.9,93.9,0,0,0,723,205a2.32,2.32,0,0,0,1.05-2c-2.88-15.51-12-33.46-24.89-43.06-.29-.24-.8.31-.52.58,9.68,8.6,16.45,22.29,20.24,35.26-.73-.89-1.49-1.78-2.34-2.73a19.4,19.4,0,0,0-4.33-4.25.26.26,0,0,0-.07.15,24.1,24.1,0,0,0-1.85-1.66c-.9-.76-2.54,1-1.67,1.8a37,37,0,0,1,9,10.81c3.89,6.6,6.22,14.54,7.9,22.27-.84-1.15-1.66-2.39-2.48-3.63a55,55,0,0,0-5-8.12l0-.06h0a1.31,1.31,0,0,0-.17-.24c-.74-1-2.65.88-2.07,1.86,1.62,2.9,3.39,6,5.26,9a82.26,82.26,0,0,1,6.34,25.68,29.41,29.41,0,0,0-4.62-7.81c-.26-.27-.7.24-.57.51,3,7,4.19,14.69,4.69,22.49a209.52,209.52,0,0,1,1.4,27.94,1.62,1.62,0,0,0,1-.42c.11-.11.22-.26.33-.36a135.23,135.23,0,0,0,2.8-17.94C732.42,270.6,732.36,270.13,732.31,269.69Z"/><path class="cls-10" d="M114,250.5c-.42.69-.92,1.37-1.39,2,1.23-4.57,2-9.06,3-13.83,0-.2-.21-.11-.26,0-2.13,6.21-3.77,12.43-6.28,18.57-.6,1.47,1.21,1.24,1.86.49-.11.23-.25.51-.36.76-2,4.83-3.75,9.52-4.42,14.69a31.69,31.69,0,0,0-3.08,7.58c-.11.6.13.86.49.93a82.65,82.65,0,0,0-6.84,9.79c-.33.56,0,.84.38.82-1.72,2.26-3.06,4.86-4.58,7.27-.92,1.46.75,2.09,1.77,1.11a1.72,1.72,0,0,0,.27-.27c-3,4.24-5.7,8.64-7.1,14a.8.8,0,0,0,0,.4c-3,3.68-5,8-7.52,12-.73,1.17.16,2.26,1.25,1.9a91,91,0,0,0-5.34,8.07c-.68,1.13.06,1.91.94,1.82a61.22,61.22,0,0,0-6.06,15.47c-.3.61-.62,1.15-.88,1.74-2,4.19-5.46,11.69-3.11,16.2a.78.78,0,0,0,.45.4c-1.35,4.3-1.82,8.71-.46,12.57.29.84,1.43-.16,1.5-.69a32,32,0,0,1,.73-4.1,33.08,33.08,0,0,0,.63,14.94c0,.22,0,.46,0,.66,0,2.6.43,7.47,2.45,9.48a1.2,1.2,0,0,0,1.42.1c.3,3,1,5.8,3.75,7.44a.87.87,0,0,0,.81,0,18.77,18.77,0,0,0,3.5,4c.42.38,1.29-.38,1-.86-6.27-8.89-6.89-17.13-7.11-27.77,0-1.13-1.61-.06-1.74.58-.5,2.37-.83,4.61-1.08,6.87a44.93,44.93,0,0,1,1.68-16.14c.07-.2-.2-.22-.28-.08a42.22,42.22,0,0,0-3.42,8.86c-.46-6.47,0-12.79,2.69-19.14.22-.49-.49-.49-.7-.14-2.29,3.88-4.7,9.57-4.2,13.36-1.06-7.77,3-17.19,6.27-24,.06-.13-.13-.09-.18,0-.81,1.17-1.65,2.46-2.47,3.85a48.47,48.47,0,0,1,2.15-7.84c1.17-2.9,2.12-6.94,4.14-9.33a3.56,3.56,0,0,0,1-2.42c.07-.35-.36-.15-.44,0-.55,1.24-2.73,3.48-4.08,5,2.62-6.87,6.15-13.61,11.23-18.42.66-.62.59-2-.58-1.82a7.46,7.46,0,0,0-1.55.45,79.17,79.17,0,0,1,6.9-9.15c.11-.14,0-.38-.17-.21A67.41,67.41,0,0,0,83.32,326c2-3.39,3.79-6.84,6-10.12,2.62-4,6.34-7,8.55-11.24.11-.22-.14-.38-.29-.18-2.28,3-5.24,5.34-7.89,8,3.26-8,8.1-14.2,13.58-21,.85-1.08-.2-2.08-1.18-1.1-1.26,1.26-2.54,2.48-3.84,3.7.61-1,1.22-2,1.89-2.93,2.2-3.21,5.47-6.45,6.81-10.15.06-.17-.17-.17-.23-.06-1.75,2.86-4.47,5.6-6.89,8.28,2.62-3.54,5.42-7,7.86-10.63,1.39-2.06,3.75-4.3,4-6.89.09-.71-.62-.71-1.08-.43a10,10,0,0,0-2,1.51c1.46-3.59,2.46-7.24,4.85-10.39.09-.11,0-.24-.16-.14a17.27,17.27,0,0,0-3.82,4.2c1.81-5.28,4-10.31,5.84-15.67C115.74,249.75,114.42,249.81,114,250.5Z"/><path class="cls-15" d="M45.82,113.13c.27-.91.49-1.8.73-2.68a32.92,32.92,0,0,0-5.43-.25c-5.27.14-12.1,1.45-17.17,4.48-.57.73-1.12,1.48-1.64,2.28C28.55,113,37.25,112.13,45.82,113.13Z"/><path class="cls-15" d="M49.49,111c-.24.85-.44,1.71-.67,2.53a64.12,64.12,0,0,1,13.9,4A27.54,27.54,0,0,0,49.49,111Z"/><path class="cls-16" d="M778.23,398.47c-2.91-5.24-6.67-9.67-9.15-15.18a131.2,131.2,0,0,1-5.5-16.11c-.4-1.31-2.33.39-2.22,1.32a38.21,38.21,0,0,0,1.25,6.25c-2.64-5.63-3.91-11.72-6-17.75-.12-.31-.65.09-.58.34a58.55,58.55,0,0,1,1,7.49q-1.82-3.87-3.67-7.76A34.92,34.92,0,0,1,750,344.46c-.11-1.7.11-3.77-.91-5.21-.17-.2-.48.07-.38.27,1,2.72-.28,7.07-.1,10a26,26,0,0,0,1.14,6.25c-4.54-8-8-15.52-8.06-25.2,0-1.31-2.1-.22-2.17.73-.11,1.31-.16,2.6-.27,3.92-1.19-6.05-.91-12.54-.84-18.46,0-1.28-1.13-1-1.8-.35.23-6.07-.17-12.3-2.06-16.93-.08-.2-.37,0-.33.18,1.78,8.46-.11,21.54-1.53,30-.29,1.73,2.13.93,2.48-.2,1-3,1.93-6,2.69-9.1-.18.73-1.67,5.8-1.67,8A37.74,37.74,0,0,0,739,343.53c.38.89,1.49.35,2-.35a4.51,4.51,0,0,1,.1.53c1.39,5.92,5,11.12,8.75,15.77.26.32.73.14,1-.21.26.61.46,1.19.73,1.77,1.68,3.79,3.21,12.21,8.06,13.18l.09,0a38.68,38.68,0,0,0,5.56,9.64c.32.42.87.28,1.29-.11a57.94,57.94,0,0,0,10.08,16.08C777.32,400.44,778.63,399.15,778.23,398.47Z"/><path class="cls-16" d="M921.32,375.15c.66-5.74-2.8-11.43-7.25-16.15-2-5.61-4.3-11-8.16-15.69a49,49,0,0,0-5.18-5.28,2.57,2.57,0,0,0,.89-1.86c-.16-4.47-4.86-7.53-8.22-9.7-1.53-1-2.95-2-4.37-2.88a1.12,1.12,0,0,0,0-.65c-5.6-11.16-16.93-18.44-29.11-20.76.33-.35.51-.86.19-1.15a60.69,60.69,0,0,0-14.22-9.4.94.94,0,0,0-.07-1.22c-4.32-4.37-11.23-7-16.77-9.59-8.42-3.95-18.44-3.5-26.66-7.43-.09-.06-.29.18-.16.24,5.19,3.73,12.17,5.21,18.15,7.47,5.26,2,10.33,4.51,15.38,7l-1.71-.34a7.12,7.12,0,0,0-1.5-.21,30.75,30.75,0,0,0-3.17-.36c-.38,0-.8.71-.27.78,10.8,1.79,19.92,8.19,29,13.87a41.12,41.12,0,0,0-6.36-.51c-.35,0-.69.58-.25.67,11.75,2.36,20.39,9.72,29.13,17.06A35.54,35.54,0,0,0,877,318c-.25,0-.69.42-.34.6a53.38,53.38,0,0,1,12.3,8.59c1.42,1.42,3.39,2.82,5.17,4.35-1.64-.85-3.28-1.69-5-2.44-1-.45-2.79,1.5-1.73,2.28,4.28,3.13,8.76,5.61,12.42,9.53A78.37,78.37,0,0,1,910,355.1c-2.14-1.84-4.23-3.44-6.09-4.74-.22-.14-.57.22-.37.42a53,53,0,0,1,9.22,11.74,52.26,52.26,0,0,1,2.56,5.28,25.14,25.14,0,0,0-4.82-3.39c-.19-.09-.5.28-.32.46,3.79,3.1,7,8.84,9.18,13.23,2.83,5.58,2.08,11.57,3.94,17.33.23.75,1.36,0,1.46-.49C926.46,388.58,924.89,381.27,921.32,375.15Z"/><path class="cls-16" d="M840.77,439.39c-7.83-2.83-14.1-5.6-18.58-12.36a38.85,38.85,0,0,0-4.12-7.36c-.4-.55-1.2.42-1,.89a40.5,40.5,0,0,0,1.69,4.08,2.89,2.89,0,0,1,.11.35,31.76,31.76,0,0,0,1.41,3.3c-2.39-2.88-4.63-6.58-6.11-8.62a57.11,57.11,0,0,1-8-15.78c-.07-.17-.35,0-.31.2,1.39,6.87,4.36,12.66,8.18,18.55,2.41,3.63,5,8.64,8.84,10.84.49.27,1.08-.18,1.3-.73a25.23,25.23,0,0,0,16,8C840.7,440.81,841.5,439.66,840.77,439.39Z"/><path class="cls-16" d="M821.42,433.41a56.31,56.31,0,0,1-14.28-11.32c-.55-.6-1.06-1.18-1.57-1.78-.84-1.26-1.75-2.48-2.59-3.68-.2-.31-.69.07-.64.38a20.1,20.1,0,0,0,3.08,6.45c-4-2-9.69-13.63-10.49-15.4,0-.16-.28.05-.22.18,1,3.23,6.3,18.88,12,17.48a.55.55,0,0,0,.28-.13c3.7,4.48,8.87,8.24,13.41,9.49C821.26,435.34,822.39,433.94,821.42,433.41Z"/><path class="cls-16" d="M830.75,403.61c-6.36-5.7-12.64-11.26-17.53-18.35-3.68-5.37-4.54-11.08-6.49-17-.25-.75-1.31,0-1.45.47a22.77,22.77,0,0,0-.9,7c-2.31-4.72-4-10.53-3.19-14.81,0-.22-.27-.11-.33,0-2.33,6.38.52,16.95,4.49,22.27.76,1,2.22-.49,2.37-1.46,3.75,9.79,13.15,18.16,21.57,23.49C830.13,405.74,831.57,404.36,830.75,403.61Z"/><path class="cls-16" d="M896.57,388.76c.77.38,1.52-.69,1.5-1.35-.24-5.7-5.83-12.59-10-16.2-.07,0-.18.06-.14.11,2.75,3.87,6.69,9.33,7.89,14.43-2.06-1.58-3.81-3.71-5.85-5.32-.8-.62-2.19.84-1.44,1.59,6.27,6.3,8.22,16.07,6.58,24.64-.2,1,1.24.49,1.49-.11,2.26-5.78,1.22-12.85-1.6-18.79A13.34,13.34,0,0,0,896.57,388.76Z"/><path class="cls-16" d="M890.78,399.68c-.2-.31-.69.11-.55.4,2.59,5.39,2.68,10.44,3.32,16.24.11.8,1.15.2,1.31-.26C896.61,410.68,893.7,404.12,890.78,399.68Z"/><path class="cls-17" d="M746.52,293.38a43.37,43.37,0,0,1-3.5-11.23c-.51-3-.8-6.26-1.93-9.14-.07-.13-.27.05-.25.18.82,4,.69,8.38,1.38,12.5.51,2.9.88,6.65,3.21,8.67C745.94,294.8,746.76,293.94,746.52,293.38Z"/><path class="cls-17" d="M754.25,307.27A81.85,81.85,0,0,1,750,294.56c-.89-4-1.15-8.29-2.48-12.15-.13-.37-.67.11-.64.38.84,8.57-.44,18.95,5.8,25.92C753.34,309.47,754.56,308,754.25,307.27Z"/><path class="cls-17" d="M145.14,296.66c-2.62-5.69-5.59-10.92-6.84-17.15-1.07-5.27-.6-10.57-1-15.89,0-.15-.26,0-.26.11-.42,6.52-1.3,12.43-.49,19,.59,4.86,2.56,12.92,7.25,15.32C144.55,298.41,145.42,297.3,145.14,296.66Z"/><path class="cls-17" d="M226.7,204.47a3.77,3.77,0,0,0,1.16.2,1.89,1.89,0,0,0,1.64-1.22c.93-2.65-1.84-4.69-3.35-6.55-2.12-2.6-5.37-6.39-9-6.43-.2,0-.43.35-.15.4,2.45.51,4.15,3.1,5.57,4.94a38.06,38.06,0,0,1,4.25,5.65,57.65,57.65,0,0,1-5.56-3.52h0l-.17-.12c-.79-.48-2.15,1.22-1.34,1.76.38.26.69.55,1,.84s.66.55,1,.88c4.15,4.13,5.93,11,7.14,16.36.14.69,1.12.13,1.13-.38A26.33,26.33,0,0,0,226.7,204.47Z"/><path class="cls-17" d="M222.13,210.13c-.11-.07-.32.13-.21.24,1.84,1.75,2.83,4.32,3.79,6.63,1.21,2.9,1.37,5.95,2.29,8.88.21.69,1.08-.18,1.15-.53C230.13,220.38,226.27,212.92,222.13,210.13Z"/><path class="cls-17" d="M220.11,78.52a28.33,28.33,0,0,0-7.45-4.77c-.42-.2-1,.6-.51.84a28.5,28.5,0,0,1,10.57,10.26c.38.58,1.21-.18,1.16-.69C223.61,81.69,221.82,80.13,220.11,78.52Z"/><path class="cls-17" d="M214.05,79c-.16-.07-.36.2-.19.33,7,4.3,10.18,11,13.11,18.31.29.75,1.5-.18,1.35-.78C226.28,88.6,222,82.39,214.05,79Z"/><path class="cls-17" d="M220.77,92.19c-.31-.27-.88.33-.59.64a54.11,54.11,0,0,1,7.63,9c.33.51,1.08-.14.86-.6C227,97.51,223.79,94.8,220.77,92.19Z"/><path class="cls-17" d="M163.94,16.18a16.14,16.14,0,0,0-9.23.42.53.53,0,0,0-.06-.36c-.67-1.22-2.85-.71-4.24-.26a.53.53,0,0,0-.29-.69c-2.82-1.17-6.18,0-9.07,1.18-6.54-.65-14.08,3.94-18,8.71-.27.33,0,.81.37.51a33.32,33.32,0,0,1,9.45-4.93,10.15,10.15,0,0,0-2,2c-.33.42.08.8.5.64v0a48.39,48.39,0,0,1,8.16-3.88c1.82-.55,3.69-.95,5.56-1.37a30.75,30.75,0,0,0-4.54,2.71c-.21.17-.11.48.16.31C143.3,19.68,146,19,148.8,18a9.83,9.83,0,0,1,3.94-.73v0q-1.12.4-2.19.87c-.12.06-.17.31,0,.24a32.45,32.45,0,0,1,12.86-1.13C163.88,17.29,164.54,16.33,163.94,16.18Z"/><path class="cls-17" d="M340.79,441.46c-13.74-5.24-21.53-15-27.45-28.13-.15-.31-.65.09-.58.32a62.59,62.59,0,0,0,3.95,10.61,30.45,30.45,0,0,1-6.15-10.57c-1.42-4.52-1.25-9.35-2.81-13.63-.35-.93-1.65,0-1.81.58a13.82,13.82,0,0,0-.43,2.94c-1.48-5.49-2.14-11.14-3.84-16.71-.07-.24-.47.07-.44.27.79,4.54,1,8.87,1.58,13.14-3.41-7.31-5.92-15.22-5.3-23.33.07-.82-1-.44-1.17.09a38.23,38.23,0,0,0-1.45,5.09,76.89,76.89,0,0,1-3-12.67c-.06-.45-.71-.07-.73.24-.35,6.58,1.15,12.83,2.76,19.17.46,1.77,2.65.16,2.65-1.15.13.59.23,1.15.35,1.7a34.65,34.65,0,0,0,5.15,13c.27.37.72.26,1,0a35.85,35.85,0,0,0,4.27,12.83c.33.57,1,.51,1.52.19a28.19,28.19,0,0,0,9.36,13.3.74.74,0,0,0,.85,0c4.68,7.6,11.52,13.63,21.06,14.12C340.71,442.83,341.54,441.74,340.79,441.46Z"/><path class="cls-17" d="M410.63,401.12a32.86,32.86,0,0,0-7.5-19.27c-.16-.16-.5.19-.41.37,3.64,5.57,5.46,12.68,5.79,19.66a7.81,7.81,0,0,0-2.58-4.17c-.1-.07-.23.09-.15.16,1.67,2,1.87,7.53,1.72,10.1a28.36,28.36,0,0,1-1.57,8.84.6.6,0,0,0,.86.78c2.74-1.35,2.72-4.81,2.63-7.54C412.11,408.44,410.78,403.61,410.63,401.12Z"/><path class="cls-17" d="M485.33,62.85c-7.32-.91-14.62,0-21.81,1.57a41.28,41.28,0,0,0-5.77,1.86c.35-.71.29-1.46-.66-1.61-3.07-.42-6.55.59-9.89,2.19a44.56,44.56,0,0,0-11.94,1.75c-.6.18-1.24.42-1.91.68.63-.81.79-2.28-.53-2-8.62,2.24-16.18,4.53-25.31,3.69,0,0-.06.06,0,.08,6.85,2.4,13.13,1.89,19.64.23a15.89,15.89,0,0,0-1.23,1.39c-.52.65-.37,1.75.68,1.35,5.84-2.23,10.88-4.07,16.64-5A67.27,67.27,0,0,0,437,73.42c-.12.09-.12.38.08.27,3.9-1.87,9.74-5.1,14.82-6-1.55,1-3,2.14-4.48,3.31-.31.24-.53,1.15.15,1,4.5-1.11,8.55-3.9,13-5.32,7.8-2.43,16.39-2.79,24.47-2.87C485.43,63.74,485.93,62.93,485.33,62.85Z"/><path class="cls-18" d="M33,153a1,1,0,0,1-.46-.36c-.34-.39-1.23.51-.65.85a1.55,1.55,0,0,0,.76.24C33,153.81,33.45,153.22,33,153Z"/><path class="cls-18" d="M35.14,161.09c-.38,0-.75.77-.27.77S35.61,161.09,35.14,161.09Z"/><path class="cls-18" d="M37.58,156.23c-.27,0-.53.55-.19.55S37.94,156.23,37.58,156.23Z"/><path class="cls-18" d="M30.92,148.65c-.74,0-1.45,1.42-.53,1.42C31.12,150.07,31.82,148.65,30.92,148.65Z"/><path class="cls-18" d="M39,151.84c-.63,0-1.24,1.24-.46,1.24S39.73,151.84,39,151.84Z"/><path class="cls-18" d="M41.13,161.51c-.6,0-1.18,1.17-.44,1.17S41.86,161.51,41.13,161.51Z"/><path class="cls-18" d="M43,168.51c-.72,0-1.43,1.46-.52,1.46C43.25,170,43.94,168.51,43,168.51Z"/><path class="cls-18" d="M28.77,153.82c-.83,0-1.63,1.64-.58,1.64C29,155.46,29.82,153.82,28.77,153.82Z"/><path class="cls-18" d="M75,143.45c-.63,0-1.23,1.24-.46,1.24S75.78,143.45,75,143.45Z"/><path class="cls-18" d="M69.43,154.26c-.69,0-1.36,1.37-.49,1.37C69.63,155.63,70.29,154.26,69.43,154.26Z"/><path class="cls-18" d="M67.87,161.09c-.69,0-1.37,1.39-.5,1.39C68.07,162.48,68.75,161.09,67.87,161.09Z"/><path class="cls-18" d="M67.6,166.27c-.81,0-1.59,1.59-.57,1.59C67.83,167.86,68.6,166.27,67.6,166.27Z"/><path class="cls-18" d="M60.56,152.62a2.26,2.26,0,0,0-.65-.44c-.44-.23-.88.39-1,.73a2.41,2.41,0,0,0,0,.66C58.94,155.23,61.54,153.66,60.56,152.62Z"/><path class="cls-18" d="M59.32,147c-.21,0-.41.42-.16.42S59.57,147,59.32,147Z"/><path class="cls-18" d="M65.5,145.37l-.24-.15c-1-.58-1.74,2-.33,1.41a1.59,1.59,0,0,1,.29-.15C65.63,146.32,66,145.62,65.5,145.37Z"/><path class="cls-18" d="M70,147.59c-.51,0-1,1-.37,1S70.64,147.59,70,147.59Z"/><path class="cls-18" d="M78,152.71c-.37,0-.74.75-.27.75S78.49,152.71,78,152.71Z"/><path class="cls-18" d="M85,158.36c-.92,0-1.83,1.86-.66,1.86C85.31,160.22,86.22,158.36,85,158.36Z"/><path class="cls-18" d="M84.74,168.93c-.94,0-1.84,1.86-.69,1.86C85,170.79,85.9,168.93,84.74,168.93Z"/><path class="cls-18" d="M78.29,168.78c-.74-.5-2.05.57-1.55,1.35l.11.26c-.2,1.51,2.39.65,2.06-.68A1.43,1.43,0,0,0,78.29,168.78Z"/><path class="cls-18" d="M78.1,159c-.63,0-1.24,1.24-.45,1.24C78.29,160.22,78.89,159,78.1,159Z"/><path class="cls-18" d="M93.8,145.46c-1.11,0-2.17,2.2-.79,2.2C94.12,147.66,95.2,145.46,93.8,145.46Z"/><path class="cls-18" d="M84.15,132.1c0,.17,0,.09-.1-.18-.34-.88-1.64,0-1.79.62s-.29,1.24.32,1.64C84,135.09,85.35,132.36,84.15,132.1Z"/><path class="cls-18" d="M77.32,130.46a.06.06,0,0,0,0,0c-.16-.47-.78.13-.83.39-.07.42,0,.62.4.76C77.75,131.86,78.19,130.3,77.32,130.46Z"/><path class="cls-18" d="M65.5,137.73c-.5.13-.76.39-.69.91,0,.35.38.17.56-.07C65.88,138.53,66.09,137.59,65.5,137.73Z"/><path class="cls-19" d="M43.09,168.55c.12-.15-.12-.22-.22-.07-13.5,20-15.47,40.27-11.58,63.74.06.4.64,0,.59-.25C28.35,208.68,29.82,188.65,43.09,168.55Z"/><path class="cls-19" d="M40.28,161.4c-22.66,12.58-27.48,36.51-27,60.67,0,.38.61.07.61-.18.67-24,4.55-46.67,26.45-60.36C40.38,161.48,40.35,161.37,40.28,161.4Z"/><path class="cls-19" d="M38.88,156.59C19.31,162.79,8.1,182.13,5.8,201.66c0,.15.19.07.2,0,2.65-20.08,13.83-36.77,32.88-44.39C39.17,157.12,39.3,156.43,38.88,156.59Z"/><path class="cls-19" d="M35.07,151c-11.26,4-22.85,7.67-34.93,5.59-.11,0-.22.2-.07.22,12,2.32,23.93-1,35.08-5.17C35.51,151.49,35.54,150.84,35.07,151Z"/><path class="cls-19" d="M33.07,156.05c-8.84,2.67-15.42,9-22.06,15.09-.1.1,0,.21.13.12,6.74-6,13.28-11.66,21.93-14.76C33.28,156.43,33.35,156,33.07,156.05Z"/><path class="cls-19" d="M75.76,162.46c-.06-.05-.16.06-.11.11,16.8,17.2,23.27,39.71,25.26,63.24,0,.34.55,0,.54-.24C100.44,201.92,92.9,179.19,75.76,162.46Z"/><path class="cls-19" d="M75.51,155.23s-.08.05,0,.05c24.25,1.51,38.09,24.44,47,44.28.12.28.58-.1.49-.36C115.14,178.61,99.85,156,75.51,155.23Z"/><path class="cls-19" d="M131.35,174c-14.68-18-31.49-27.94-55-26.63,0,0-.07.08,0,.06,23.37-1,40,9.51,54.75,26.84C131.2,174.38,131.45,174.11,131.35,174Z"/><path class="cls-19" d="M103.13,127.05c-12.32,8-26.8,15.44-41.5,17.15-.07,0-.11.17,0,.15,14.83-1.5,29.45-8.64,41.76-16.82C103.7,127.33,103.52,126.82,103.13,127.05Z"/><path class="cls-19" d="M63.59,155.15c-.1-.1-.31.11-.21.2,15.72,16.55,19.46,41.14,19.23,63.09,0,.22.27.11.27,0C83.43,196.21,79.63,171.72,63.59,155.15Z"/><path class="cls-20" d="M77.41,189.1a34,34,0,0,1-14.53-6.61c-.51,2.68-1.85,5.36-4,6.71,0,0,0,.07,0,.1.32.83.94,1.53,1.34,2.36.16.31.34.58.51.89,2,5.16,5.54,9.71,11.42,10.49,5.69.79,9-4.7,7.35-9.54A16.33,16.33,0,0,0,77.41,189.1Z"/><path class="cls-14" d="M66.92,185.17c-.39-.18-.79-.31-1.12-.49a7.15,7.15,0,0,0-2.29-.93c2.1,5.52,5.53,9.95,8.7,14.81-3.11-1.33-5.15-5-6.83-8a37.12,37.12,0,0,1-2.17-6.79,2.11,2.11,0,0,0-.68.23,10.37,10.37,0,0,1-2.4,4.2,3.68,3.68,0,0,0,0,1.47s0,.07,0,.09c.4.88.87,1.81,1.37,2.7a.73.73,0,0,0,.05.38c2.15,4.83,5.92,10.9,12.18,9.13,2.72-.8,4.61-2.42,5.12-5.28s-1.5-5.74-3.38-7.95A32.63,32.63,0,0,1,66.92,185.17Z"/><path class="cls-21" d="M122.6,112.64c4.61-10,13.6-19.54,24-24.26l-1.46.26c-3.87.8-7.61,3.08-10.74,5.43-7.8,5.81-11.14,11.81-13.56,21C121.45,114.26,122,113.46,122.6,112.64Z"/><path class="cls-22" d="M186.21,54a67.08,67.08,0,0,1-3.06-14.83.79.79,0,0,1,0,.2C181.74,44.72,181.93,50,186.21,54Z"/><path class="cls-22" d="M147.46,288.35c-.12.58-1.4,1.4-1.7.58a33.19,33.19,0,0,1-1-3.46c-.14,2.51-.22,5-.23,7.54a1.17,1.17,0,0,1-.44.75c1.22,3,2.56,6,4,8.88a62.94,62.94,0,0,1,.28-15c.1-.75,1.61-1.78,1.75-.58,1.53,11.9,5.88,24.34,14.69,32.82-1.46-4.72-2.47-9.59-3.64-14.4-.2-.82,1.31-1.93,1.71-1,3.53,8.56,8.57,16.89,15.88,22.7-1.72-3.8-3.37-7.65-4.82-11.59-.23-.58.74-1.49,1.34-1.31a46,46,0,0,1-8.4-15.34c.32,2.73.71,5.46,1.25,8.16.14.67-1.05,1.86-1.61,1.13a44.49,44.49,0,0,1-7.31-13.85c.35,3.74.87,7.49,1.41,11.23.09.65-1,1.85-1.62,1.13a43.89,43.89,0,0,1-8.38-32.22A115.77,115.77,0,0,0,147.46,288.35Z"/><path class="cls-22" d="M479.68,286.27c-.19.55-1.3,1.44-1.7.59s-.64-1.57-.9-2.37a49,49,0,0,0,5,15.45,43.86,43.86,0,0,1,1.77-10.28c.18-.64,1.67-1.49,1.72-.38a90.9,90.9,0,0,0,12.95,42.41c-1-6-2.18-12-1.18-18.17.08-.55,1.44-1.81,1.73-.77,3.19,11.52,6.43,22.76,13.07,32.6a77.59,77.59,0,0,1-1.44-7.65c-.41.27-.9.31-1.14-.15a72.68,72.68,0,0,1-8.64-38.78c-1.12,3.32-2.17,6.69-3.19,10-.19.64-1.6,1.48-1.71.39-.31-3.52-.56-7-.58-10.54a99.55,99.55,0,0,0-1.62,17.28c0,.69-1.32,1.66-1.72.78-5.72-13-5.71-27-3-40.62a58.83,58.83,0,0,1-3.82,7c-.28.38-1.66,1.26-1.64.18a41.81,41.81,0,0,1,2.17-11.84A129.3,129.3,0,0,0,479.68,286.27Z"/><path class="cls-22" d="M471.34,244.79c-.68,1.35-1.28,2.72-1.83,4.09-2.23,12-.31,24.54,3.75,36.17a58.68,58.68,0,0,1,2.56-10.5,41.27,41.27,0,0,1,2.62-12.19,69,69,0,0,0-4.95,11.54c-.21.64-1.59,1.46-1.73.38-1.77-14,.91-27.9,9.21-38.87-2.88,2.88-5.44,6.11-8.28,9C472.41,244.72,471.66,245,471.34,244.79Z"/><path class="cls-22" d="M471.34,241.75c.6-1.07,1.25-2.17,1.94-3.24a49.82,49.82,0,0,1,4.36-8.31,26.59,26.59,0,0,0-6.2,7.4c.58-.48,1.61-.37,1.21.64C472.15,239.42,471.71,240.59,471.34,241.75Z"/><path class="cls-22" d="M345,199.15c.4.38.81.74,1.22,1.09a100.13,100.13,0,0,1-3.89-18.68,67.48,67.48,0,0,0,1.47,17.73A1,1,0,0,1,345,199.15Z"/><path class="cls-22" d="M128,285.12a1.26,1.26,0,0,1-.36.73c2.06,3.72,4.46,7.31,6.91,10.88A111.8,111.8,0,0,1,128.61,279,50.53,50.53,0,0,0,128,285.12Z"/><path class="cls-22" d="M121.3,266.9a39.19,39.19,0,0,0,1.35,7.44,42.38,42.38,0,0,1-.56-9.66C121.85,265.41,121.58,266.15,121.3,266.9Z"/><path class="cls-5" d="M91.79,432.79c-11,3.5-21.47,7.18-31.15,13.61-7.51,5-19.15,13.82-20,23.47,0,.1.11,0,.11,0,1.75-5.52,7.3-9.91,11.45-13.74A86.28,86.28,0,0,1,63,447.62c3.93-2.6,8.13-4.57,12-7.23,5-3.41,11.23-4.78,16.77-7.09C92,433.21,92.13,432.68,91.79,432.79Z"/><path class="cls-5" d="M86.17,428.69c-10.93,2.35-20.91,6.72-30.7,11.94-6.82,3.62-13.82,8.78-16.13,16.45,0,.06,0,.06.06,0,5.42-7.55,12.83-12,20.81-16.47a144,144,0,0,1,26-11.5C86.37,429.05,86.46,428.61,86.17,428.69Z"/><path class="cls-5" d="M104.69,436C93.77,441.19,83,446.35,73.21,453.55c-6.1,4.48-17.37,11.79-17.56,20.26,0,.09.11,0,.13,0,1.32-5.7,7.92-10.26,12.17-13.7,3.58-2.9,7.33-5.56,11.17-8.09,8.31-5.51,17.26-10.23,25.73-15.51C105.11,436.31,105.07,435.78,104.69,436Z"/><path class="cls-5" d="M119.32,439.35c-13.29,6.2-29.64,17.79-32.7,33.15,0,.12.13,0,.15,0,6.82-14.58,20.72-22.67,32.8-32.29C119.94,439.9,120,439,119.32,439.35Z"/><path class="cls-7" d="M727.54,242.7c-2.74-17.73-4.63-35.74-9.87-52.94-4.83-15.84-10.66-32.16-20.45-45.63s-21.05-23.84-33.92-34.59c-25.82-21.56-58.46-32-91.14-37-35.09-5.34-70.67-11.41-106.32-8.2-8.48.76-17.19,2.89-26,5.25-16.49-.44-33.26.63-49.77.65-35.06,0-73.37-.62-105.92-15.2C267.78,47.69,251.05,41,234.52,34c-13.76-5.85-26.5-11.61-41.36-14-8.42-1.37-16.65-3.21-25.16-3.9-8.85-.69-17.11,1.62-25.88,2a62.74,62.74,0,0,0-13.58,2.17,60.32,60.32,0,0,0-9.4,2.32C98.68,29.49,81,39.11,65.91,51.92a73.68,73.68,0,0,1,9.5-6c1-.53,1.46.58.63,1.16a37.1,37.1,0,0,0-8.7,9.28,129.91,129.91,0,0,1,37.22-21.45c1.11-.42,1,1.07.2,1.42a30.8,30.8,0,0,0-6.43,4.32A105.59,105.59,0,0,1,117,33c.76-.24,1.15.53.61,1.06A132,132,0,0,0,102.94,51a70.69,70.69,0,0,1,14.32-10.77,52.55,52.55,0,0,1,16.59-11,.6.6,0,0,1,.75.89c-1.89,3.12-3.75,6.18-5.43,9.4a102.39,102.39,0,0,1,11.59-8.69c.81-.47,1.43.29.83,1A47.71,47.71,0,0,0,132.11,49c4.38-7.45,10.81-13.34,16.88-19.66.58-.58,1.87-.69,1.38.44a58.54,58.54,0,0,0-3,8.78,37.44,37.44,0,0,1,2.72-3.95c.3-.37,1.56-.9,1.49,0v.09c4.36-5,9.85-10.12,16.47-9.24.61.05.47.8.18,1.13-2.65,3.15-5.95,5.94-7.63,9.71,4.93-4.5,9.94-9.29,17-9.33.73,0,.73.64.37,1.13-1.59,2.24-3.11,4.46-4.47,6.78a24.69,24.69,0,0,1,8.77-6.38c.49-.2-2.58,10.7-2.9,15.85a21.76,21.76,0,0,1,2.12-5.06c.34-.6,1.9-1.13,1.59,0-1.42,5.48-1.2,10.87,3.3,14.83.65.56-.66,1.53-1.2,1.47a34.13,34.13,0,0,0-3.43-.31c2.2,1.72,4.67,3.07,6.51,5.25.48.55-.45,1.41-1,1.43a24.1,24.1,0,0,0-5.83,1c3.46,0,6.84.76,9.46,3.22.58.53-.54,1.37-1,1.45-2.91.41-5.81.8-8.65,1.49A28.48,28.48,0,0,1,197,81.6c.45.7-.67,1.75-1.38,1.39a30.06,30.06,0,0,0-6.2-2.53c4.6,3.28,8.48,7.81,9.21,13.5.08.73-1.09,1.4-1.65.93-2-1.7-4-3.19-6.42-3.72,6.09,9.46,13.3,18,10.28,30-.11.46-1,1.22-1.47.84-2.5-1.93-4.34-4.52-6.59-6.63,2.21,3.81,4,7.72,4,12.35,0,.57-.92,1.44-1.51,1a32.12,32.12,0,0,1-4.34-3.73c4,9.49,5.08,20.83.47,30.16-.26.51-1.28,1.09-1.62.36-2.07-4.61-3.56-9.44-5.63-14,1.2,6.49.78,13.07-2.79,19,0,.31,0,.6,0,.89,0,.86-1.77,1.68-1.76.62v-.95a.68.68,0,0,1,0-.32A50.07,50.07,0,0,0,178,150.38a39.27,39.27,0,0,1-4,15.36c-.26.53-1.59,1.15-1.64.17-.19-3.07-.35-6.09-.76-9.1-1,7.8-4.49,15.11-11.29,19.61-.41.26-1.07.22-1.11-.38-.09-3.66.53-7.27.64-10.9-3.25,8.42-10.35,14.51-17.95,19.54-.43.31-1.33.12-1.05-.55a86.87,86.87,0,0,0,2.89-8.84C135,187.54,119,192.17,105.28,197.18c-1.18.45-.84-1-.2-1.42a36.36,36.36,0,0,0,5.78-4.51,47.71,47.71,0,0,1-18.58,6c-1.15.13-.46-1.4.26-1.57,15.6-4,25.24-24.69,13.83-36.9a30.92,30.92,0,0,1-12.72,23.91c-9.44,6.87-18.47,3.5-27.78-.46-1-.23-2-.47-3-.76a1,1,0,0,1-.17.26c-.1.12-.2.23-.31.34l.17.37c.32.67-.89,1.53-1.48,1.22a.38.38,0,0,1-.11-.08A10.75,10.75,0,0,1,54,187,28.36,28.36,0,0,1,48,186.5c12.72,10.95,28.84,17.27,44.95,16.93,1.74.47,3.46.91,5.14,1.31a94.12,94.12,0,0,0,14.63,2.19c.3,1.24.6,2.44.84,3.75,2,10.88,1.26,21.54-.9,32.29-1.9,9.53-4.07,18.92-5.53,28.52-1.66,10.92-9.22,19-13.32,28.9-7.33,17.72-17,34.21-22.72,52.64-4.06,13.12-3.68,28.24-1.17,41.65,5.3,28.45,33.49,42.24,60.35,34,9.55-2.94,18-8.46,25.33-15.44,8.35-13.63,17.09-27.06,27.41-39.25,3.69-4.36,7.61-9.22,11.9-13.47.15-.2.28-.38.44-.56,1.34-1.53,9.16-7.66,9.16-8.62a1.5,1.5,0,0,1,1.87-1.32c.55.2,1.1.44,1.64.66a1.09,1.09,0,0,1,.85,0c14.63,6,30.18,8.5,45.46,12.2.7,0,1.44.12,2.15.12.55.3,1.11.57,1.66.84,3.26.84,6.51,1.73,9.73,2.77,12.72,4.12,21.93,8.17,27.52,21,3.49,8,6.79,16.25,10.46,24.31,16,25,43.18,44.15,73.39,32.62,17.6-6.69,27.68-21.78,33-39,22,0,44.21-2,65.17-6.76,14.56-3.28,28.36-9.26,41.71-15.78,7.9-3.89,15.95-7.37,24-10.92A140.34,140.34,0,0,0,600,385.14c27.66.38,59.4-5.14,83.32-19.61,26.46-16,41.32-43.18,46.16-73.21C732.14,275.89,730.05,259,727.54,242.7ZM144.63,333.23c-2.8-6.05-5.47-14.57-11.14-18.89,6.93,12,13.84,24,12.12,38.41-.07.59-1.47,1.79-1.73.79a57.73,57.73,0,0,0-6.59-15.17c2.49,11.3,4.81,23.57-.82,33.75-.29.55-1.53,1.17-1.64.19A73,73,0,0,0,133.42,362c-.81,13.16-1.5,29.05-13.84,36.05-.42.25-1.35.12-1-.57,1-2.53,2.28-4.92,3.41-7.36-7.89,11.19-17.81,22.38-32.1,23.27-.89.07-.67-.93-.19-1.31,3.14-2.59,6.2-5.07,8.44-8.42-4.47,1.31-8.78,3.21-13.53,3-.51,0-.44-.62-.31-.95,1-2.42,2.28-4.74,3.51-7.09a71.4,71.4,0,0,0-6.83,4.9c-.37.31-1.32.55-1.31-.2a68,68,0,0,1,1.86-14.39c-1.21,1.89-2.37,3.84-3.61,5.76-.27.42-1.65,1.23-1.63.18a55.3,55.3,0,0,1,3.91-18,50.61,50.61,0,0,0-5.65,9.37c-.23.46-1.78,1.17-1.63.18,1.43-10.24,3.7-20.28,9.63-28.5-2.28,2.21-4.34,4.68-6.46,7.11-.39.49-1.74.84-1.46-.22,2.59-9.59,8-17.35,13.83-25.13a31.44,31.44,0,0,0-7.3,6.78c-.36.47-1.81.76-1.46-.24,3.83-10.86,10.75-20,19.38-27.43a33.83,33.83,0,0,0-8.52,5.33c-.55.43-1.79.23-1.19-.66,3.14-4.74,7-8.8,10.83-13a47.36,47.36,0,0,0-5.7,4c-.6.49-1.66.31-1.18-.62,4.28-8.58,11.49-14.78,17.65-21.9a31.29,31.29,0,0,0-9.14,6.19c-.62.59-1.62.28-1.19-.62,2.58-5.63,6.84-9.95,11.22-14.19A43.27,43.27,0,0,1,115,269c.25-.61,1.59-1.52,1.72-.39.36,2.86.66,5.73,1.08,8.59a40.89,40.89,0,0,1,1.71-12.72c.2-.59,1.72-1.48,1.72-.39,0,16.39,11.1,28.67,19.42,41.72.47.76-.94,2-1.53,1.29a26.82,26.82,0,0,0-8.27-6.69c6.64,10.17,14.67,19.08,15.54,32C146.41,333.2,145,334.09,144.63,333.23Zm66.2-63.31c-3.67-3.37-7.45-6.61-10.76-10.27,4.71,8.18,7.82,17.64,6.75,27,0,.52-1.14,1.68-1.63.93-2.49-3.77-4.47-7.8-7.08-11.42,3.32,9.91,8.2,20.17,5.69,30.6-.14.56-1.1,1.27-1.61.7a46.84,46.84,0,0,1-6.58-9.6c2.7,9,4.06,18.35,2.18,27.66-.11.57-.94,1.15-1.47.86-7.25-3.79-12.66-10.71-16.74-18.11,1.1,3.48,2.26,6.94,3.19,10.49.16.62-.86,1.7-1.48,1.22-7-5.22-11.69-12.81-14.42-21,.32,2.73.71,5.46,1.25,8.16.14.67-1.05,1.86-1.61,1.13a44.49,44.49,0,0,1-7.31-13.85c.35,3.74.87,7.49,1.41,11.23.09.65-1,1.85-1.62,1.13a43.89,43.89,0,0,1-8.38-32.22,115.77,115.77,0,0,0-3.15,13.83c-.12.58-1.4,1.4-1.7.58a33.19,33.19,0,0,1-1-3.46c-.14,2.51-.22,5-.23,7.54,0,.57-1.23,1.68-1.66.95-5.64-9.73-8.4-23.25-6.21-35-.74,1.86-1.36,3.78-1.94,5.73-.14.43-1.55,1.49-1.7.56a34.63,34.63,0,0,1,.53-12.32A46.66,46.66,0,0,0,131,263.37c-.1.72-1.6,1.73-1.76.58-1.47-11.52.65-22,4.5-32.4a37.92,37.92,0,0,0-7,8.93c-.26.49-1.64,1.2-1.64.18.05-9.57,6.36-16.78,13.2-22.8-3,.2-5.67,1.86-8.36,3.26-.58.29-1.45,0-1-.78,5.53-8.58,15.94-9.11,24.74-5.83a11.42,11.42,0,0,0-5.45-4.19c-.88-.37.36-1.52.86-1.57,4.58-.53,8.38,2,11.36,5.34a26.22,26.22,0,0,1,7.5-8.42c.44-.33,1.56-.49,1.28.42a35.28,35.28,0,0,0-1.43,10c4.63-7.93,11.32-13.4,19.92-17.32,1-.47,1.34.48.63,1.19a32.3,32.3,0,0,0-5.26,6.5c8-2.53,18.46-3.64,21.82,4.89.24.58-.7,1.45-1.29,1.27-3.17-1-6.42-2.09-9.68-1.77,9.1,4.52,13.53,12.76,17,22.27.26.73-1,1.73-1.62,1.11-2.24-2.34-4.46-5.61-7-8.34,4.39,8.53,6.45,17.91,9.38,27.15.21.73-1,1.73-1.62,1.13a64.27,64.27,0,0,1-6.24-7.6,130.06,130.06,0,0,0,8.6,22.24C212.8,269.52,211.4,270.45,210.83,269.92Zm307.8,68.93a47,47,0,0,1-8.17-16c.21,4.64.5,9.27.81,13.94,0,.75-1.3,1.58-1.74.76a72.68,72.68,0,0,1-8.64-38.78c-1.12,3.32-2.17,6.69-3.19,10-.19.64-1.6,1.48-1.71.39-.31-3.52-.56-7-.58-10.54a99.55,99.55,0,0,0-1.62,17.28c0,.69-1.32,1.66-1.72.78-5.72-13-5.71-27-3-40.62a58.83,58.83,0,0,1-3.82,7c-.28.38-1.66,1.26-1.64.18a41.81,41.81,0,0,1,2.17-11.84,129.3,129.3,0,0,0-6.08,14.81c-.19.55-1.3,1.44-1.7.59-3.43-7.64-2.48-16.57.46-24.5a69,69,0,0,0-4.95,11.54c-.21.64-1.59,1.46-1.73.38-1.77-14,.91-27.9,9.21-38.87-2.88,2.88-5.44,6.11-8.28,9-.39.4-1.77.86-1.46-.22a51.65,51.65,0,0,1,6.41-14,26.16,26.16,0,0,0-7.06,9c-.31.64-1.95,1.08-1.61,0,2.91-9.44,7-18.24,13.44-25.53a42.28,42.28,0,0,0-9.16,8.87c-.35.49-1.86.75-1.45-.22a81.11,81.11,0,0,1,12.67-21.83l-1.81,1.39c-.55.42-1.19.27-1.29-.15a38.67,38.67,0,0,0-7.73,5.78c-.61.58-1.62.27-1.19-.62A37.44,37.44,0,0,1,477.3,199a78.46,78.46,0,0,0-23.06,25.55c-.36.62-1.78,1.11-1.6,0,2.43-15.09,11.17-27.69,21.26-38.75a63.82,63.82,0,0,0-16,10.43c-.56.49-1.77.23-1.19-.62a76.06,76.06,0,0,1,14.25-15.95c-.52.26-1,.53-1.5.78a153.63,153.63,0,0,1-12.7,9.9c-9.5,6.72-20.05,13.28-31.5,15.87-21.84,4.92-46.88-2-60.67-19.79,1.58,6.93,3.94,13.67,4.17,20.83,0,.62-1.15,1.6-1.65,1-5.66-7.51-8.93-16.24-11.67-25.15-1.47,6.45-1.09,13.1-1.88,19.7-.1.65-1.3,1.69-1.74.76-4.35-9-6.7-18.64-8.78-28.35-2,11.64-.19,23.58,3.72,34.71.24.68-.86,1.63-1.47,1.24-5.16-3.13-9.79-7.07-14.82-10.36,5.69,6.23,11.51,12.4,14.59,20.39.25.63-.89,1.71-1.46,1.23-8.88-7-17.76-17.16-29.19-19.66,11.86,5.69,24.74,12.81,26.19,27.08,0,.55-1,1.44-1.51,1-3.79-2.84-7.71-5.78-12.12-7.52a42.51,42.51,0,0,1,14.15,22.06c.2.75-1,1.73-1.61,1.13a71.13,71.13,0,0,0-20.66-14,.66.66,0,0,1-.44,0c-.72-.2-1.44-.42-2.16-.65,6.58,4.86,11.43,12,15.77,18.93.44.67-.52,1.55-1.21,1.44-2.22-.35-4.48-.68-6.71-1a80,80,0,0,1,11.87,12.47c.54.76-.7,1.62-1.39,1.42a19,19,0,0,0-10.54-.95,54,54,0,0,1,30,22.09c.44.67-.73,1.78-1.4,1.38a52.45,52.45,0,0,0-10.08-5.1c10,6.82,19.44,14.53,23.38,26.41.27.76-1,1.65-1.61,1.11a55.4,55.4,0,0,0-9.62-6.93c8.17,9.64,15.61,20.23,18,32.86.13.66-1.15,1.91-1.62,1.13a45.21,45.21,0,0,0-7-8.8c6.76,11.44,12.18,23.54,14.26,37,.1.71-1,1.78-1.62,1.13-2.46-2.47-4.94-4.91-7.49-7.28,3.85,7.51,8.78,14.44,13,21.78.38.66-.71,1.88-1.39,1.39a94,94,0,0,1-10.46-9c5.8,15.42,9.7,34-1.83,45.74-.38.4-1.4.88-1.49,0-.31-3-.5-6-.89-8.92-1.1,7.55-4.45,14.86-10.77,19.25-.45.33-1.52.51-1.28-.4,1.85-7.15.35-14-1.5-20.83-.87,7-3.34,13.56-8.3,18.8-.34.37-1.47.9-1.49,0a56.42,56.42,0,0,0-2.24-14.2,98.77,98.77,0,0,1-1.11,14.36c-.08.49-1.24,1.41-1.62.75-3.36-5.92-6.45-11.94-8-18.43,0,2.85.08,5.65.11,8.46,0,.6-1.18,1.64-1.65,1-6.83-10.1-9.16-21.32-9.6-33.21a27.42,27.42,0,0,0-1.71,10.87c0,.71-1.33,1.64-1.74.76a61.29,61.29,0,0,1-5.32-21.52c-.22,3.13-.27,6.29-.27,9.49,0,.59-1.16,1.63-1.64.93-8.37-12-17.23-27.48-20.26-43.11-.25,2.6-.46,5.19-.64,7.81,0,.53-1.18,1.68-1.64.93-3.07-5.06-5-10.66-6.83-16.29a89.47,89.47,0,0,0,2.25,15.16c.16.73-1,1.81-1.62,1.13-8.49-9.66-16.15-22.78-17.83-36.13-.25,2-.5,4.08-.83,6.1-.08.47-1.27,1.4-1.62.75a35.53,35.53,0,0,1-3.72-11.74,61.14,61.14,0,0,0,.29,6.86c.06.58-1.25,1.64-1.64.92a67.29,67.29,0,0,1-8.16-35.44,56.63,56.63,0,0,0-3.76,12.76c-.1.54-1.4,1.4-1.69.54-4.32-12.37-5.52-26.51-1.56-39.18a40.23,40.23,0,0,0-7.44,15.53c-.17.62-1.72,1.46-1.72.38,0-9.11.19-18.15,2.86-26.84a42.9,42.9,0,0,0-4.05,8.07c-.23.51-1.71,1.15-1.63.16a53.87,53.87,0,0,1,6.7-22.56,27.08,27.08,0,0,0-5,10.37c-.15.64-1.79,1.44-1.71.37.74-11.05,5.27-20.89,9.55-30.91a51.72,51.72,0,0,1,4.16-9.16,28.32,28.32,0,0,0-5.88,7.19c-.36.64-1.83,1.19-1.61,0a28.56,28.56,0,0,1,12.8-18.46c-2.38.79-5.11,1.93-5.54,2.13s-1.48,0-1-.78c2.32-3.53,5.61-5.74,9.07-7.94a18.28,18.28,0,0,0-10,.38c-1.15.31-1-1-.2-1.44,8-4.12,16.08-6.87,24.56-3.61-.85-7.67-4.94-14.43-8.77-21-.4-.72.67-1.84,1.39-1.41,5.36,3.14,9.54,7.58,13.77,12-1.61-9.25-5.08-18-9.05-26.55-.3-.64.9-1.6,1.47-1.24a40.41,40.41,0,0,1,11.37,10.61c-1.83-9.26-4-18.46-9.94-26.12-.52-.67.72-1.73,1.4-1.38a40.25,40.25,0,0,1,9.55,7.14c-2.21-8.93-6.52-18-14.75-22.56-.83-.44.39-1.71,1.07-1.55,4,1,8,2.15,12,2.9a36.72,36.72,0,0,0-11.94-9.77c-.93-.49.46-1.6,1.06-1.58,4.95.31,9.92.47,14.85.91a97.59,97.59,0,0,0-14.78-6.67c-1-.33.5-1.57,1.06-1.57,5.22.09,10.42.77,15.61.27a20.87,20.87,0,0,0-10.86-4.83c-1.1-.16.05-1.56.67-1.62a144,144,0,0,1,24-.22,30,30,0,0,0-10.62-4.37c-1.11-.2.07-1.51.68-1.62,11.21-1.73,21.37,2.44,32,5-1.43-2.13-2.94-4.23-4.31-6.4-.42-.67.52-1.6,1.21-1.46,5.89,1.15,10.89,4.43,15.51,8.17,6.24-3,12.77-5.67,19.78-5.91.85,0,.71.93.2,1.31-2.51,1.86-4.9,3.83-7.35,5.74A95.9,95.9,0,0,1,372,80.47c1.19,0,.43,1.33-.24,1.57a39.73,39.73,0,0,0-6,2.79c8.38-1.75,16.84-3,25.19-4.85,1.19-.29.89,1,.2,1.41-1.51,1-2.91,2-4.35,3.09,7.35-1.36,14.51-3.6,21.84-5.12.57-.12.77.51.52.93a24.22,24.22,0,0,1-5.33,5.81c10.75-4.81,21.76-9.42,33.55-10.69.92-.11.63,1,.17,1.31-1.77,1.49-3.49,3-5.23,4.57,12.38-3.88,24.59-8.49,37.73-8.71,1,0,.6,1.19,0,1.5a66,66,0,0,0-6,3.17c18.22-6.43,40.1-9.73,58.63-4.67,1.11.3-.06,1.52-.67,1.62a35.21,35.21,0,0,0-5.44,1.56c8.82-.46,17.65-.66,26.41.78.86.13.23,1.25-.24,1.47a71.6,71.6,0,0,1-7.25,2.83c1.84.18,3.69.4,5.51.62a38.44,38.44,0,0,1,10-3.41,15.78,15.78,0,0,0-1.9,2,15.07,15.07,0,0,0-2.92,9.24c0,.24.3.2.41.11a13.11,13.11,0,0,0,2.83-2.88q1.36-2.64,4.81-2.38a7.34,7.34,0,0,0,.89,2.62c1.78,3.92,4.7,8.11,8.53,10.19.21.11.45-.08.58-.2,1.09-1,1.07-2.5.63-4.09,8.85,10,16.17,23.66,17,36.78,0,.82,1.22.14,1.27-.42.43-4.83,2.09-9.31,1.74-14,4.52,8.61,5,19.52,5,28.91,0,.73.85.42,1-.07,1.46-4.07,3.43-8.64,4.49-13.07a79.67,79.67,0,0,0,5.16,17.93c2.26,5.6,6.61,10.23,9.45,15.51-1.52-1.31-2.88-2.88-4.48-4-2.61-1.91-5.19-3.81-7.84-5.65-.59-.43-1.54.57-1,1.1a52.34,52.34,0,0,1,9.11,11.73c1.42,2.63,3.71,6.12,4.54,9.42-3.27-4-7.86-7.32-12.89-8.27-.47-.09-1.26.86-.74,1.2a40.84,40.84,0,0,1,13.07,14.56c2,3.59,4.93,8.49,6.07,12.92a24.42,24.42,0,0,0-11.5-7.23c-.53-.16-1.41.69-.87,1.15a57.76,57.76,0,0,1,17.52,29.65c-1.7-1.21-3-3.27-4.93-4.2-3.21-1.51-6-3.17-9.43-4.11-.6-.15-1.51.69-1,1.25,6,5.64,11.7,10,15.75,17.44,3.24,5.91,6.51,13.32,7.48,20.23-2-1.46-4-3.11-6-4.55a58.67,58.67,0,0,0-8.79-4.78c-.8-.38-2.07,1.11-1.31,1.73,6,4.85,9.94,10.9,14.1,17.1-4.76-2.56-10.07-6.11-14.9-5.12-.9.18-2,1.56-1.17,2.4,2,2,3.61,4.25,5.42,6.4a.52.52,0,0,0,.53.14,54.8,54.8,0,0,1,4.48,14.6c.66,4-.05,8.31-.22,12.36-.08,1.89-.16,4.79-1,6.83a13.67,13.67,0,0,1,.12-2.73c.09-1.35-.77-3.45-1.12-4.78a51.79,51.79,0,0,0-4-9.8c-.52-1.06-2.17.25-2,1.15a70.25,70.25,0,0,1,2.21,19.09c-.08,4.4-.75,11.85-3.37,16.37a13.44,13.44,0,0,0,.35-3.14,34,34,0,0,0-1.63-8.56c-1.88-6.12-4.29-12-8.65-16.73-.85-.95-2.14.84-1.89,1.68.92,2.95,2.06,5.34,2.4,8.47a109.27,109.27,0,0,1,.34,11.3,48.47,48.47,0,0,1-5.72,21.72c-2.26,4.25-1-.75-1.1-2.15a60.61,60.61,0,0,0-1.49-9.58c-1.08-5.22-2.77-10.28-6.06-14.51-.67-.84-2.13.62-1.94,1.42,1.56,6.52,1,12.78.18,19.41-.51,4.06-2,8.18-3,12.17-.43,1.61-.76,3.06-1.22,4.61-.3-4.84-5.29-28.44-9.54-26.84a1.07,1.07,0,0,0-.59.77c-1.1,8.32,2.08,18-.31,26.33-1.49-1.72-2.92-5.18-4.29-6.49-3-2.82-7.66-4.3-11.18-6.45-.69-.42-1.45.76-1.22,1.31,1,2.81,3.51,5.29,5.08,7.87-8.74-3.44-16.24-9.87-22.86-16.43-.62-.59-1.73.58-1.39,1.24,1.57,3.22,3.88,5.92,5.64,9,1.63,2.93,3.1,6,4.46,9.11-6.53-4.05-12.81-10.72-17.16-16.53-.54-.73-1.65.58-1.39,1.24,2.54,6.56,3.75,13.23,7,19.33a62.7,62.7,0,0,1-6.28-6.14c-3.77-4.19-5.08-9-8-13.45-.24-.36-.81,0-.76.4-.15-.4-.29-.74-.42-1.11.33,3.59.77,7.22,1.13,10.83C520.33,338.56,519.13,339.47,518.63,338.85Z"/><path class="cls-7" d="M727.54,242.7c-2.74-17.73-4.63-35.74-9.87-52.94-4.83-15.84-10.66-32.16-20.45-45.63s-21.05-23.84-33.92-34.59c-25.82-21.56-58.46-32-91.14-37q-7-1.07-14.06-2.15c9.55,6.32,17.25,14.94,23.37,25a41.63,41.63,0,0,0-6.17-14.27c-.3-.42.39-1,.81-.8C583.17,83,588,89.15,591.9,95.45a81.29,81.29,0,0,0-3.71-9.36c-.17-.4.52-.93.87-.73,9.6,5.52,19.36,10.8,26.08,19.73a30.81,30.81,0,0,0-3.79-8.2c-.25-.42.41-1.11.83-.82,9.65,6.45,14.64,17.7,19.64,27.87.4-5.74-1.43-11.61-3.05-17-.12-.35.5-1,.87-.73,9.55,7,12,20,14.82,30.94.88-5.08.39-10.37,2.34-15.23.1-.24.83-.9,1-.33,2.5,8.71,3.91,17.69,7.49,26.06.17-5.25.91-10.43,3.39-15.13.14-.27,1-.73,1-.11-.44,14.55,5.77,28.9,12.37,41.59.22.4-.62,1-.95.66a81.22,81.22,0,0,0-10.72-10.34c3.94,5.83,7.8,11.74,9.42,18.68.09.4-.47.93-.87.73-2.83-1.55-5.19-3.79-7.82-5.63,4.39,5.78,7.35,12.39,10.39,19,.16.38-.53,1-.87.73a109.57,109.57,0,0,0-10.3-6.47c4.45,5.46,8.84,11.21,10.6,18.15.11.42-.58,1-.95.65a63.59,63.59,0,0,0-11.06-8c8.73,13.23,13.11,28.25,13.72,44.12,0,.44-.79,1-1,.44a35.38,35.38,0,0,0-9.36-12.12c3.9,7,6.81,14.83,6.42,23,0,.36-.62.89-.95.54-2.48-2.51-4.81-5.17-7.4-7.56.57,1.83,1.15,3.67,1.68,5.49,10.46,9.77,15.71,26,11.17,39.38-.12.35-1,.89-1,.24-.09-3.89-1.21-7.71-4.12-10.34-.64,9.08-2,18.75-9.2,25.11-.22.21-.73.3-.75-.14-.55-6.22-1.51-12.52-4.64-18-.11,8.35,1.6,16.62,1.16,25,0,.4-.79,1-1,.44-3.15-6.93-5.13-14.49-9.47-20.8,1.27,12.27,3.73,24.4,4.84,36.67,0,.42-.65.89-1,.56-4.74-4.88-7.59-10.95-11-16.76,1.36,10.75-1.1,23.41-10.43,29.74-.29.18-.74.07-.64-.35a32,32,0,0,0-.8-20.83c-1.22,11.63-9.35,20-15.15,29.89-.19.33-1.15.65-.94,0a42.18,42.18,0,0,0,1.13-17.89c-1.4,7.39-5.34,14.52-9.84,20.26-.15.2-.78.53-.87.09-1.11-5.17-1.61-10.9-5.11-15.12-3.46,7.25-1.77,16-1.2,23.69,0,.32-.55.85-.88.61-5.87-4.39-10.33-10.29-15.82-15.07a85,85,0,0,1,7.68,20c.09.45-.57,1-.95.67a192,192,0,0,0-15.13-12.34,114.67,114.67,0,0,1,8.14,10.45c.3.43-.41,1-.83.83-11.73-5.06-24.78-9.58-33.3-19.44a95.11,95.11,0,0,0,9.32,15.78c.31.42-.41,1.08-.82.84-7.79-4.37-15.83-8.42-22.56-14.31,6.46,9.41,15.83,16.68,26,21.8a139.92,139.92,0,0,0,46,8.57c27.66.38,59.4-5.14,83.32-19.61,26.46-16,41.32-43.18,46.16-73.21C732.14,275.89,730.05,259,727.54,242.7Z"/><path class="cls-7" d="M112.68,206.93c.3,1.24.6,2.44.84,3.75a72,72,0,0,1,1.12,14.58c1.06-1.31,2.13-2.53,3.18-3.63.39-.4,1.81-.84,1.46.24-1,3.17-1.87,6.4-2.69,9.64,3.1-5,6.21-10.17,10.52-14.16,6.07-5.61,13.64-8.6,21.6-10.42,9.35-2.14,18.8-2.33,28-5.43A149,149,0,0,0,203.12,189c.65-.38,1.33,0,1,.79-1.52,3.21-3.93,5.7-6.11,8.44,3.82-1.24,6.73-4.32,9.81-6.84.31-.25,1.1-.55,1.28,0,1,3.31-.12,6.49-1.81,9.35,1-.69,2-1.37,3-2,0,0,0,0,0,0a1.66,1.66,0,0,1,.32-.13l0,0a.53.53,0,0,1,.61.2c4.27,7.56,4.09,15.49,4.44,23.82a32.25,32.25,0,0,0,1.8-11.23c0-.65,1.5-1.73,1.72-.8a84.51,84.51,0,0,1,2.43,20,39.89,39.89,0,0,0,2.23-14.74c0-.68,1.46-1.7,1.73-.77a71.25,71.25,0,0,1,1.63,7.56c2.23-9.56,1.65-20.7-4.38-28.61-.5-.65.73-1.8,1.39-1.38a22.85,22.85,0,0,1,4.64,4,32.39,32.39,0,0,0-3.48-9.17c-.21-.4.32-1,.63-1.13,7.68-4.61,14.6-9.91,20.31-16.78a46.53,46.53,0,0,0-7.33,1.67c-1,.29-1-.76-.42-1.27,4.94-4.41,9.13-9.39,11.7-15.46-2.44,1.52-4.78,3.21-7.31,4.63-.76.4-1.5-.31-.83-1a25.76,25.76,0,0,0,7.21-16c-.59.8-1.18,1.6-1.83,2.35-.4.47-1.78.84-1.47-.2a66.21,66.21,0,0,0,3-24.27,42.72,42.72,0,0,1-4.42,9.62c-.35.56-2,1.17-1.6,0,2.51-8.27,2-16.84.9-25.29-.89,3.77-1.49,7.6-3,11.2-.24.61-1.57,1.54-1.73.41-1-8-.41-18.14-5.67-24.81a122.69,122.69,0,0,0-.45,12.58c0,.8-1.68,1.69-1.75.6C230.49,92.61,225.1,83.66,217.6,75c-.5-.57.44-1.46,1-1.48a17.42,17.42,0,0,1,6.45,1.22c-1.71-2.13-4.13-3.53-6.57-4.9-.72-.38.15-1.37.64-1.51C227.32,65.86,235,65,241.6,59c5.79-5.28,8.86-11.46,8.13-18.62L234.52,34c-13.76-5.85-26.5-11.61-41.36-14-2.13-.35-4.23-.71-6.33-1.1-4.49,14.2-1.62,30,4.71,43.3.13-1.2.23-2.44.4-3.64.07-.6,1.35-1.75,1.72-.78a112.9,112.9,0,0,0,5.22,12.46c-.37-1.44-.69-2.9-.91-4.34-.11-.65,1.05-1.89,1.6-1.15,7.35,9.75,14.05,20,17.75,31.71.24.75-1,1.73-1.61,1.13s-1.43-1.4-2.16-2.08a58.11,58.11,0,0,1,9,20.11c.19.78-1,1.69-1.62,1.14-2.36-2.09-4.54-4.35-6.8-6.5,4.68,6.8,7.93,14.83,8.46,22.83,0,.69-1.1,1.5-1.66.93-2.55-2.48-4.64-5.39-6.94-8.11,3.92,7.56,5.28,16.13,4.83,24.84,0,.66-1.39,1.71-1.73.78a57.68,57.68,0,0,0-6-12.28c2.16,10.13-1.91,20.8-5.49,30.49-.19.55-1.74,1.51-1.71.38a56,56,0,0,0-1.8-14.07c-1.39,9.28-5.23,17.72-13.05,23.68-.3.23-1.43.58-1.3-.22.63-4,1.52-8,2-12a49.83,49.83,0,0,1-15.69,17.49c-.4.28-1.65.49-1.3-.42a76.54,76.54,0,0,0,3.45-10.31c-7.22,9.57-16.49,17.15-26.79,23.27-.63.38-1.38,0-1-.78a67.53,67.53,0,0,0,5.42-11.56c-8.17,6-17.07,10.41-26.45,14.31-1,.44-.92-.79-.42-1.28,2.11-2,4.43-3.75,6.49-5.75-12.32,6.28-24.89,10.89-38.29,11.62,1,.28,1.9.51,2.83.73A94.12,94.12,0,0,0,112.68,206.93Z"/><path class="cls-7" d="M252.17,324a93.11,93.11,0,0,0,2.72,18c.17.76-1,1.73-1.63,1.13-9.19-8.2-15.3-20.74-17-33.28-.28,2.26-.5,4.52-.56,6.8,0,.64-1.44,1.73-1.72.78-2.89-10-4.31-20.21-3.31-30.51a86.6,86.6,0,0,0-3.62,9.64c-.16.52-1.43,1.5-1.7.59-2.45-8.18-3.18-16.62-3.39-25.08-.09,8.95.72,17.92,1,26.94,0,.71-1.32,1.62-1.72.76-.06-.11-.11-.23-.17-.34,1.85,7.25,3.57,14.54,4.87,21.92.12.65-1.05,1.86-1.61,1.13-3.16-4.17-5.74-8.86-9.28-12.7,4.22,8.34,8.82,16.65,9.8,26,.06.62-.94,1.39-1.51,1.06-4-2.24-6.79-5.87-10.22-8.75,3.75,5.78,8.58,10.92,10.57,17.66.22.73-.81,1.51-1.48,1.22-6.33-2.66-11.79-6.82-16.89-11.34.83,1.17,1.68,2.37,2.51,3.56.44.65-.54,1.62-1.21,1.46-11.29-2.7-20.91-10.59-28.39-19.48,1.21,2.82,2.48,5.61,3.77,8.41.3.66-.89,1.63-1.48,1.24-6.69-4.3-11.73-10.53-15.56-17.44a82.75,82.75,0,0,0,2.76,9.08c.23.6-.89,1.67-1.47,1.22-9.2-7.22-14.3-18.13-16.75-29.43a73.58,73.58,0,0,0,.94,12.79c.1.66-1.17,2-1.6,1.13a111.33,111.33,0,0,1-8.9-20.14,55.55,55.55,0,0,1-3.88-16.22c-.37-2.36-.67-4.77-.86-7.17a1.17,1.17,0,0,1,.79-1,45.06,45.06,0,0,1,.61-4.72c-.74,1.86-1.36,3.78-1.94,5.73-.14.43-1.55,1.49-1.7.56a34.63,34.63,0,0,1,.53-12.32A46.66,46.66,0,0,0,131,263.37c-.1.72-1.6,1.73-1.76.58-1.47-11.52.65-22,4.5-32.4a39.68,39.68,0,0,0-5.37,6.3,63.47,63.47,0,0,0-7,24.35,63,63,0,0,1,2.31-6h0a1.38,1.38,0,0,1,.08-.2c.31-.65,1.94-1.07,1.61,0-2.57,8.14-1.76,17.53,1.25,25.62.29-2.22.7-4.45,1.19-6.67.1-.51,1.49-1.48,1.69-.58,2.06,8.74,4.56,17.51,8.74,25.47-.42-2.4-1.07-4.79-1.42-7.21v0h0s0-.09,0-.16c-.09-.72,1.39-1.64,1.73-.79,4.24,11.37,11.49,21.34,15.93,32.53-.54-2.5-1.21-5-1.86-7.51-.18-.72,1-1.75,1.61-1.13,8.51,8.71,8.39,21.38,9.32,32.82,2.64-5.15,1.85-12,1.82-17.62,0-.71,1.27-1.62,1.72-.76,5.49,10.64.93,22.43-1.78,33.31,2.62-2.62,4.46-5.83,6.57-8.89.25-.39,1.7-1.28,1.63-.19-.9,12.82-11.47,22.35-19.8,31-.28.29-1.61.93-1.49,0,.51-4.32,1-8.64,1.36-13a80.42,80.42,0,0,1-9.64,17.1c-.28.42-1.56.85-1.49,0,.36-4.14,1.09-8.24,1.22-12.35-6.58,19.24-16.45,39.39-38.12,44.59a30,30,0,0,1-23.73-3.85c11.9,12.07,30.51,16.48,48.51,10.94,9.55-2.94,18-8.46,25.33-15.44,8.35-13.63,17.09-27.06,27.41-39.25,3.69-4.36,7.61-9.22,11.9-13.47.15-.2.28-.38.44-.56,1.34-1.53,9.16-7.66,9.16-8.62a1.5,1.5,0,0,1,1.87-1.32c.55.2,1.1.44,1.64.66a1.09,1.09,0,0,1,.85,0c14.63,6,30.18,8.5,45.46,12.2.7,0,1.44.12,2.15.12.55.3,1.11.57,1.66.84,3.26.84,6.51,1.73,9.73,2.77,6.62,2.15,12.29,4.27,17,7.62C274.66,357.13,259.17,343,252.17,324Z"/><path class="cls-7" d="M552.55,371.65c-10.83-7-19.32-16.49-27.55-26.22,1.77,5.06,4,10,6,15,.26.66-.87,1.62-1.47,1.24-8.85-5.52-13.5-14.54-17-24a92.54,92.54,0,0,0,2.67,11.88c.2.69-1.07,1.81-1.61,1.11-7.72-9.51-11.56-20.55-14.88-32.05.13,5.76,1.57,11.46,2.23,17.22.07.6-1.21,1.6-1.64,1-8.25-12.89-13.44-26.45-15.07-41.44a59.48,59.48,0,0,0-.56,7.82c0,.54-1.23,1.67-1.65.94-3.35-6.07-6.29-13.34-6.84-20.57a38,38,0,0,0-.52,5.36c0,.67-1.37,1.69-1.74.78-4.14-10.52-6.57-21.81-6-32.93-2.5,10.08-2.28,20.67.18,31.6.15.66-1.07,1.84-1.62,1.09-1.2-1.62-2.37-3.28-3.55-4.94,2.12,5.89,5.18,11.54,5.2,17.92,0,.6-.89,1.38-1.5,1.06a63.72,63.72,0,0,1-17.05-13.85c1.71,5.15,3.83,10.18,4.63,15.59.11.75-.93,1.77-1.62,1.15-4.87-4.48-9.67-8.62-12.61-14.48-2.52,9.43-7.4,20.62-16.7,24.36a.58.58,0,0,1-.83-.68c1.43-5.37,3.32-10.53,3.4-16.07a50.48,50.48,0,0,0-7.34,15.16c-.12.48-1.51,1.48-1.7.55-2.57-12.61-2-25.18-.69-37.87A67.8,67.8,0,0,0,409.25,291c-.18.59-1.81,1.48-1.72.39a69.41,69.41,0,0,0-.91-21,29,29,0,0,1-2.72,8.07c-.4.76-1.84.87-1.6,0v0c-2.43-13.51-6.67-26.54-14.75-37.6a65.93,65.93,0,0,1,2.2,13.89c0,.69-1.37,1.67-1.72.8-4.51-11.41-10.14-22.21-18.51-31.25-5.95-6.47-12.61-12.12-19.24-17.82a252,252,0,0,0,11.28,25.16c.33.66-.9,1.59-1.48,1.24a98.19,98.19,0,0,0-9.71-5.38,92.09,92.09,0,0,1,17.87,22.78c.38.66-.68,1.85-1.4,1.39a61.67,61.67,0,0,0-14.3-7.29c11.19,7,21.41,16.13,27,28.23.36.73-.88,1.44-1.47,1.24-5.45-1.92-10.63-4.47-15.91-6.75,11.11,8.35,20.46,18.9,24.52,32.53.24.77-.81,1.48-1.47,1.26s-1.07-.42-1.58-.64a19.17,19.17,0,0,1,1.93,3.16c.3.61-.75,1.42-1.31,1.27a63.9,63.9,0,0,1-9-3.24c10.58,12.88,22.24,27.57,21.56,45,0,.55-.91,1.5-1.51,1.08a104.64,104.64,0,0,1-8.48-7.23c1,1.53,1.83,3.08,2.66,4.66,2.69,5.1,5.84,11.61,3.92,17.48-.16.45-.93,1.22-1.48.85-1.44-1-2.87-2.09-4.28-3.17a24.82,24.82,0,0,1,4.66,11.14c.08.62-.93,1.35-1.49,1a46.45,46.45,0,0,1-4.48-2.85c7,12.7,11,26.52,10.86,41.24,0,.59-1.15,1.62-1.65.93-2.12-2.91-4.06-6-6.09-8.95,3.18,15.51-3.42,34.88-17.85,42a42.57,42.57,0,0,1-10,3.38,50.38,50.38,0,0,0,17.52-3.42c17.6-6.69,27.68-21.78,33-39,22,0,44.21-2,65.17-6.76,14.56-3.28,28.36-9.26,41.71-15.78,7.9-3.89,15.95-7.37,24-10.92a141.48,141.48,0,0,0,42.31,12.08C573.84,381.82,562.54,378.06,552.55,371.65Z"/><path class="cls-6" d="M243.46,8.42c-12.2-13.16-35.16-9.31-46.68.73-12.35,10.71-12.82,27.2-7.56,41.38a10.92,10.92,0,0,1,.33,1.37c.23,1.15,1.7.18,1.79-.58s.09-1.66.12-2.63c.76,3.41,2.25,6.89,4.88,7.71a1.61,1.61,0,0,0,1.87-1.09,9,9,0,0,0,.47-1.92,27.61,27.61,0,0,0,7.74,9.86c3.63,2.77,9,1.77,13.33.49,10-.91,19.66-6.81,25.53-14.85C254.82,35.81,254.23,20,243.46,8.42Z"/><path class="cls-23" d="M243.46,8.42c-12.2-13.16-35.16-9.31-46.68.73-12.35,10.71-12.82,27.2-7.56,41.38a10.92,10.92,0,0,1,.33,1.37c.23,1.15,1.7.18,1.79-.58s.09-1.66.12-2.63c.76,3.41,2.25,6.89,4.88,7.71a1.61,1.61,0,0,0,1.87-1.09,9,9,0,0,0,.47-1.92,27.61,27.61,0,0,0,7.74,9.86c3.63,2.77,9,1.77,13.33.49,10-.91,19.66-6.81,25.53-14.85C254.82,35.81,254.23,20,243.46,8.42Z"/><path class="cls-8" d="M243.19,22.8a24.07,24.07,0,0,0-10.52-12.47c-7.52-4.12-17.33-4.77-24.37.49C202.62,15.07,199.54,22.27,198,29a43.47,43.47,0,0,0-1.1,11.72c0,.55.74.07.85-.16,1.26-2.74,1.92-6.2,3-8.75a15.74,15.74,0,0,0-1.05,6.14c0,.38.51.07.59-.09,1.59-4,.65-1.46.69,1.24a41.13,41.13,0,0,0,1.86,10.46c.08.29.47.11.53-.09a8.56,8.56,0,0,0,.55-3.43c0,.42,1.09-5.1,1.07-3.39,0,2.72-.29,5.45-.11,8.15,0,.38.51.07.58-.09.58-1.62,1-3.25,1.55-4.87-.13.37,1.4-5.59,1.4-3.61a38.44,38.44,0,0,1-2.26,11.52c-.08.24.09.4.31.31,2.9-1.46,5.17-5.83,7-8.47a5.11,5.11,0,0,0,.43-.68c0,.2-.1.33-.15.57-.88,3.53-3.52,6.06-5.48,9-.31.46.17.8.59.53a40.34,40.34,0,0,0,7.23-6.12c3.82-4.07,0,.91-.62,2-1.06,1.88-2.78,3.34-3.87,5.25-.15.24-.09.73.32.6,3.25-.91,6.22-3.79,8.73-5.89.88-.71,1.78-1.34,2.63-2-.78,1.18-1.64,2.28-2.36,3.55-.17.3-.09.7.32.64,2.8-.42,5.35-2.24,7.79-3.59a24.9,24.9,0,0,0-3.75,4c-.19.28-.1.75.31.66C232,52.28,237,46,241,41.09,245.29,35.74,245.49,28.87,243.19,22.8Z"/><path class="cls-24" d="M244.45,27.75c-.51,6.38-3,12.25-9.21,15.06a.58.58,0,0,1-.83-.68,32,32,0,0,0,2-9,33.07,33.07,0,0,1-5.19,7.14c-.45.44-1.5.44-1.28-.4a44.65,44.65,0,0,0,1.31-8.18,44.2,44.2,0,0,1-4,6.89c-.28.38-1.58.87-1.5,0a69.77,69.77,0,0,0,.55-11.15,29.87,29.87,0,0,1-7.34,7c-.5.33-1.23.09-1.06-.56.56-2.21,1.53-4.21,2.2-6.38a53.49,53.49,0,0,1-9.64,5.17c-.76.31-1.1-.58-.6-1.11a26.7,26.7,0,0,0,5.57-8.18c-2.65,1.69-5,3.83-7.52,5.65-.42.29-1.63.49-1.27-.42a29.24,29.24,0,0,1,4.28-7.45,22.68,22.68,0,0,0-5.64,4.12c-.6.54-1.63.25-1.19-.62,3.29-6.8,10.17-14.84,18.05-17.54a20.13,20.13,0,0,0-13.82,3.7C202.62,15.07,199.54,22.27,198,29a43.47,43.47,0,0,0-1.1,11.72c0,.55.74.07.85-.16,1.26-2.74,1.92-6.2,3-8.75a15.74,15.74,0,0,0-1.05,6.14c0,.38.51.07.59-.09,1.59-4,.65-1.46.69,1.24a41.13,41.13,0,0,0,1.86,10.46c.08.29.47.11.53-.09a8.56,8.56,0,0,0,.55-3.43c0,.42,1.09-5.1,1.07-3.39,0,2.72-.29,5.45-.11,8.15,0,.38.51.07.58-.09.58-1.62,1-3.25,1.55-4.87-.13.37,1.4-5.59,1.4-3.61a38.44,38.44,0,0,1-2.26,11.52c-.08.24.09.4.31.31,2.9-1.46,5.17-5.83,7-8.47a5.11,5.11,0,0,0,.43-.68c0,.2-.1.33-.15.57-.88,3.53-3.52,6.06-5.48,9-.31.46.17.8.59.53a40.34,40.34,0,0,0,7.23-6.12c3.82-4.07,0,.91-.62,2-1.06,1.88-2.78,3.34-3.87,5.25-.15.24-.09.73.32.6,3.25-.91,6.22-3.79,8.73-5.89.88-.71,1.78-1.34,2.63-2-.78,1.18-1.64,2.28-2.36,3.55-.17.3-.09.7.32.64,2.8-.42,5.35-2.24,7.79-3.59a24.9,24.9,0,0,0-3.75,4c-.19.28-.1.75.31.66C232,52.28,237,46,241,41.09A17.15,17.15,0,0,0,244.45,27.75Z"/><path class="cls-25" d="M176.58,309c-3.5-6.67-6.91-15.22-6.58-22.84,0-.12-.17-.07-.18,0-2.87,8.8-.4,17.06,5.51,23.93C175.84,310.69,176.89,309.58,176.58,309Z"/><path class="cls-25" d="M189.86,314.72c-2.32-3.34-5.06-6.4-7.05-10-2.15-3.84-3-8.09-4.39-12.19-.08-.27-.5,0-.54.16a21.51,21.51,0,0,0-.61,6,23.5,23.5,0,0,1-3.9-10.7c0-.15-.17,0-.18,0-1.29,5.63-.54,14.9,5.59,17.53a20.83,20.83,0,0,0,9.77,10.53C189.18,316.49,190.29,315.34,189.86,314.72Z"/><path class="cls-25" d="M157.64,292.56c-.51-3.9-1.9-7.47-2.65-11.34a34.6,34.6,0,0,1,.18-13.64c0-.15-.15-.1-.2,0-4.2,7.67-4.74,19.06.24,26.42C156,295.22,157.79,293.71,157.64,292.56Z"/><path class="cls-25" d="M147.31,280.71c-2.68-5.52-4.48-10.49-3.94-16.71,0-.18-.24-.11-.27,0-2,6.31-2.61,13.3,2.22,18.44C146.17,283.39,147.76,281.64,147.31,280.71Z"/><path class="cls-25" d="M140.45,238c.09-.07.1-.24,0-.19a17.79,17.79,0,0,0-6.68,6.82c-1.44,2.52-2.57,6.93-1,9.57a.67.67,0,0,0,.39.34c-.12,2.37.41,4.8,2.11,6.16.94.73,2.11-.58,2.06-1.53-.21-3.22-.7-6.27-.34-9.51.29-2.59,1.92-4.57,2.91-6.85.07-.18-.15-.22-.25-.09a60,60,0,0,0-4,4.83C136.23,244,137.38,240.55,140.45,238Z"/><path class="cls-25" d="M195.64,287c-1.09-1.3-2.91-1.61-4.72-1.81a26,26,0,0,0-4.23-5.86c-2.89-3.32-3.54-7.09-4.45-11.19,0,.07.08,0,.09,0s0-.15,0-.18-.12-.06-.15,0c-2.66,4.08-1.84,10.42.95,15a9.52,9.52,0,0,1-4.2-4.15c0-.07-.14,0-.13.05.43,3.78,3.22,7.29,6.28,9.37s7.55,3.63,10.31.49A1.26,1.26,0,0,0,195.64,287Z"/><path class="cls-25" d="M97.05,340.3c-2.66.46-4.33,2.68-5.88,4.72a16.9,16.9,0,0,0-3.62,8.55c-3.2,3.72-5.44,8.71-3.86,12.5.39,1,1.8.18,2.12-.42,1.29-2.47,1.79-5.17,2.64-7.83a26.42,26.42,0,0,1,5.13-8.62c.11-.11.07-.37-.15-.26a15,15,0,0,0-3.19,2c1.31-4,3.47-8.2,6.84-10.35C97.2,340.52,97.23,340.27,97.05,340.3Z"/><path class="cls-25" d="M107.74,319.49c-2.51.73-4.37,3.56-5.63,5.69a14.81,14.81,0,0,0-1.57,10.57c.26,1.07,1.46.13,1.62-.53.55-2.53.46-5.16,1.12-7.69s2.35-6.34,4.49-7.84C107.84,319.66,107.89,319.46,107.74,319.49Z"/><path class="cls-25" d="M115.46,293.6c-5.26,1.13-10.29,7.51-10.23,13a.87.87,0,0,1-.12.14c-2.07,2.94-4.76,7.24-2.13,10.56.81,1,2.27-.52,2.58-1.19,1.49-3.26,2.12-6.61,3.85-9.77a25,25,0,0,1,3.52-4.7,2.47,2.47,0,0,0,.7-1.22c0-.09-.08-.06-.12,0-.94,1-2.75,1.15-3.88,1.95,1.37-3.15,2.89-6.19,5.92-8.25C115.74,294,115.83,293.53,115.46,293.6Z"/><path class="cls-25" d="M91.69,372.51c-2.62,2.82-4.7,5-6,8.63-.34-3.33-.75-6.68.68-9.87,0-.08-.06-.08-.1-.06-3,3.57-4.15,9.72-2.16,14a.54.54,0,0,0,.59.37c-.24,2.49.14,5,1.89,6.85.63.66,1.5-.53,1.49-1.11,0-3.74-.75-7.07.18-10.84.73-2.94,2.27-5.24,3.61-7.89C92,372.47,91.79,372.38,91.69,372.51Z"/><path class="cls-25" d="M260.57,287.89c.06-.2-.15-.2-.24-.1a10.77,10.77,0,0,0-2.24,3.2c-1.17-6.61-2.32-13.21,0-19.81.07-.2-.16-.18-.23-.07-4.58,6.71-7.47,18.17-1.44,24.78a.53.53,0,0,0,.29.19c-.52,4.35.37,9.07,2.27,12.08.64,1,2.16-.07,2.19-1C261.36,300.87,258.4,294,260.57,287.89Z"/><path class="cls-25" d="M259.44,235c-7.17,4.33-9.93,14.08-9.63,22.1A19.36,19.36,0,0,0,248,270.65c.41,1.74,2.61.3,2.76-.89.94-8,2.17-14.78,7.1-21.43.18-.24-.1-.45-.32-.29a29.49,29.49,0,0,0-4.92,4.81c1-6.43,2.12-12.68,7-17.7C259.65,235.06,259.55,234.94,259.44,235Z"/><path class="cls-25" d="M248.6,224.6c-2.77.55-5.32,3.9-6.88,6.07-2.26,3.16-4.77,7.27-3.86,11.3l.07.22c-2.15,3.46-3.22,8-1.29,11.66.59,1.13,2.24.06,2.5-.82,1.16-4.23,1.35-8.38,3.12-12.46,1.1-2.52,3.2-4.67,4.19-7.15.08-.16-.12-.18-.21-.09-.65.75-1.7,1.19-2.43,1.9l-.54.58c1.16-4,2.44-8.09,5.43-10.93C248.8,224.77,248.79,224.57,248.6,224.6Z"/><path class="cls-25" d="M294.51,327.09A51.77,51.77,0,0,1,292,319a.93.93,0,0,0-.05-.6c0-.06-.07-.17-.11-.24a40.93,40.93,0,0,1-.19-13.92c0-.13-.14,0-.19,0a28.56,28.56,0,0,0-2.27,9.22c-2.12-3.65-4-7.15-4.18-11.92,0-.27-.39-.06-.43.07-1.56,6.4-.58,13.85,5,18a29.78,29.78,0,0,0,3.19,8.77C293.36,329.3,294.84,328,294.51,327.09Z"/><path class="cls-25" d="M303.58,357.74c-1.46-3.95-1.62-8.07-2-12.22,0-.06-.08,0-.1,0a58.93,58.93,0,0,0-.66,10c-1.8-3.32-3.36-6.83-3-10.39,0-.11-.1,0-.11,0-1.51,4.79,0,13.05,4.08,16.37a20,20,0,0,0,3.12,6.21c.58.77,1.8-.55,1.67-1.2C306,363.47,304.68,360.68,303.58,357.74Z"/><path class="cls-25" d="M320.05,364.69c0-.11-.09-.15-.17-.08a22,22,0,0,0-3.5,6.75c0-.35-.07-.71-.1-1.08a70.22,70.22,0,0,1,.38-7.67c0-.13-.15-.07-.18,0-1.79,5.06-3.37,10.69-1.23,16a15.66,15.66,0,0,0,.83,5.12c.27.77,1.39-.09,1.4-.62,0-3-.42-5.94,0-9A52.48,52.48,0,0,1,320.05,364.69Z"/><path class="cls-25" d="M333.89,402.28c-1.58-7.23-6.52-13.72-5.54-21.46,0-.2-.21-.1-.27,0a22.86,22.86,0,0,0-1.67,9.71,19.79,19.79,0,0,1-2.59-9.35c0-.15-.19-.06-.22.06-1.25,5.59.82,10.56,3.79,15.16a17.22,17.22,0,0,0,4.39,7.41C332.62,404.62,334.1,403.19,333.89,402.28Z"/><path class="cls-25" d="M350.44,392.81c0-.08-.13,0-.13.09.18,3.17-.88,6.08-1.74,9a27.7,27.7,0,0,0-4.46-8.44c-.1-.13-.32.11-.26.24,3.32,7.34,2.35,13.94,2.86,21.68.06,1.1,1.44.17,1.65-.33a16.73,16.73,0,0,0,1.25-7.67C352.58,403.72,352,396.87,350.44,392.81Z"/><path class="cls-25" d="M362.42,396.63c-.14-.23-.49.11-.42.33.81,2.57.42,5.82-.46,8.75a22.12,22.12,0,0,0-5-11.35s0,0,0,0c3.15,7.38,3.38,16.82,1.43,24.54-.26,1.08.75,1.19,1.41.59,2.63-2.37,2.71-6.89,2.5-10.39C364.37,405.93,364.12,399.82,362.42,396.63Z"/><path class="cls-25" d="M501.73,223.09c.1-.25-.21-.2-.31-.05-4.72,6.59-8.49,11.22-10,19.44-1.48,7.87-1.29,15.89,2,23.22-.09,4.12.66,8.31,3.48,11.35.76.8,2-.49,2.11-1.24.62-5.59-.46-11.3-.48-16.91a43.43,43.43,0,0,1,1.42-11,5.82,5.82,0,0,0,.28-3.12c-.05-.14-.26,0-.26.11-.25,2.45-2.42,4.67-3.47,6.84-.29.62-.55,1.26-.8,1.89a81.57,81.57,0,0,1-.49-10.15C495.45,235.79,499,230,501.73,223.09Z"/><path class="cls-25" d="M496.27,291c-.17-2.64,0-5.26-.15-7.89,0-.29-.38,0-.4.13-.77,4.9-4,13,.24,17.26.68.67,1.68-.53,1.62-1.21C497.33,296.5,496.5,293.82,496.27,291Z"/><path class="cls-25" d="M524.83,305.3c-2.28-2.92-4.91-5.49-7.25-8.31-.76-5.71-3.75-11-4.45-16.89-.78-6.71,1.31-12.27,1.71-18.74,0-.16-.24-.11-.27.06-.7,2.86-2.43,5.3-3.11,8.23a52.53,52.53,0,0,0-1.31,11.43c0,1.33.1,2.57.21,3.77-1.56-3.75-2.56-7.8-1.59-11,0-.11-.09-.11-.12,0-2.68,4.52-.47,10.64,1,15.25a32.62,32.62,0,0,0,13.88,18C524.36,307.5,525.36,306,524.83,305.3Z"/><path class="cls-25" d="M522.08,321.81c-.55-2.17-2.27-3.67-3.41-5.52-1.53-2.43-3.74-7-3.28-9.88.07-.46-.51-.22-.61,0a10.78,10.78,0,0,0-.66,3.73,12.21,12.21,0,0,1-.85-1.31,34.51,34.51,0,0,1-3.62-10.37c0-.27-.4,0-.41.13-.45,5.08.1,15.32,5.72,17.86,1,3.4,2.91,6.34,5.76,6.76A1.36,1.36,0,0,0,522.08,321.81Z"/><path class="cls-25" d="M555,310.55a28.55,28.55,0,0,1-3.74-10c-.61-3.1-1.17-6.25-1.73-9.37-.33-1.84,0-3.28-.78-4.85-.15-.29-.62.08-.56.33.24,1.13-.33,4-.3,5.29,0,1.6.08,3.2.16,4.84a61.91,61.91,0,0,1-3.24-7,51.78,51.78,0,0,1-2.92-14.77c-.06-.66-.95-.17-1.06.2-2.21,8.29-3,27.51,8.06,30.1a23.63,23.63,0,0,0,7.45,12.83c.71.68,1.9-.49,1.75-1.24C557.64,314.41,556.42,312.66,555,310.55Z"/><path class="cls-25" d="M501,175.84l-.36-.33c-.21-.2-.66.2-.5.46s-6.17,8.29-6.77,9.43c-1.85,3.58-4.21,8.46-3.69,12.58.14,1.13,1.68.33,1.87-.38A86.19,86.19,0,0,1,501,176.24.35.35,0,0,0,501,175.84Z"/><path class="cls-25" d="M497.62,190.42c-5.4,4.21-8.61,13.17-9.21,19.73-.13,1.61,1.81.77,2.18-.14,1.24-3,2.09-6.09,3.09-9.15s2.27-7.31,4.42-9.81C498.46,190.63,498.13,190,497.62,190.42Z"/><path class="cls-25" d="M778.83,324.52c-.71-3.53-1.18-7.14-1.56-10.71-.06-.49-.75-.07-.77.25-.27,2.81-.64,6.05-.67,9.3a49,49,0,0,1-3.43-7.69c-1.49-4.58-1.35-9.21-2.62-13.74,0-.06-.1,0-.08.05,1.39,9-.65,19.59,6.42,26.7a16,16,0,0,0,3.31,8c.72.82,1.94-.62,1.86-1.37C780.89,331.63,779.58,328.13,778.83,324.52Z"/><path class="cls-25" d="M797.37,346.45a86.61,86.61,0,0,1-2.57-12.62c-.24-2.49,1.18-6.74-.09-9.09-.11-.18-.37,0-.35.2.2,1.26-.84,4-1.08,4.87a35.62,35.62,0,0,0-1.2,6.47,19.34,19.34,0,0,0,2.73,11.62C795.56,349.2,797.62,347.59,797.37,346.45Z"/><path class="cls-25" d="M817.39,365.78c-1.44-3.59-3.18-7-4.7-10.6s-4.06-8.93-3.15-12.73c.11-.45-.51-.25-.66-.05-4.61,7.14,1,20.14,6.53,25.17C816.36,368.42,817.78,366.77,817.39,365.78Z"/><path class="cls-25" d="M824.08,377.37c-1-3.28-2.57-6.43-3.71-9.69a55.31,55.31,0,0,1-2.74-13.23c0-.26-.36,0-.38.12a37.23,37.23,0,0,0,5.59,23.73C823.32,379,824.3,378,824.08,377.37Z"/><path class="cls-25" d="M759.37,289.3c-3.3-6.89-9.6-14-7.89-22.29,0-.2-.24-.11-.25,0-2.61,7.31.54,18.79,6.48,23.74C758.5,291.43,759.79,290.12,759.37,289.3Z"/><path class="cls-25" d="M757,294.87a19.44,19.44,0,0,1-4.16-8.83c-.07-.39-.62-.06-.65.2a22.27,22.27,0,0,0,1,8.31c.83,2.73,2,6.26,4.39,8,.82.6,2-.33,2-1.19C759.79,298.66,758.55,296.93,757,294.87Z"/><path class="cls-25" d="M151.47,93c-2.66,1-5.63.89-8.34,2.1-3.23,1.42-6,2.66-8.65,5-4.4,3.91-8.36,9.78-8.33,15.81,0,2.19,3,.7,3.55-.25,2.87-4.63,5.23-9.61,8.91-13.69,1.95-2.15,4.27-3.59,6.52-5.32,2-1.55,4.46-2,6.41-3.52C151.6,93.14,151.6,93,151.47,93Z"/><path class="cls-25" d="M96.29,6.49C93.71,7.07,91.43,7,88.81,8a31.25,31.25,0,0,0-8.44,4.63,21,21,0,0,0-7.49,15.29c0,1.2,1.35.6,1.65-.13,2.28-5.34,4.68-10.83,9.52-14.34,2.12-1.55,4.51-2.85,6.75-4.18,1.75-1,4-1.27,5.54-2.53C96.42,6.71,96.5,6.41,96.29,6.49Z"/><path class="cls-25" d="M69.76,53.79c-17,9-29.11,24.53-36,42.37-.36,1,.83,1.19,1.34.55,5.41-6.4,9.62-14.14,14-21.28A70.05,70.05,0,0,1,69.87,54.1C70,54,70,53.67,69.76,53.79Z"/><path class="cls-25" d="M240.59,11.06c-.08-.05-.22.09-.14.16,5.24,6.58,5.16,16.17,4.1,24.1-.8,5.92-3.77,11-7.68,15.32A29,29,0,0,0,239.23,45c.06-.2-.2-.15-.25,0a28.55,28.55,0,0,1-8.75,10.66c-3.85,2.86-8.68,3.24-12.59,5.85-.44.27-1,1.66,0,1.58a23.12,23.12,0,0,0,14.66-6.45C248.44,47.05,254.61,25.4,240.59,11.06Z"/><path class="cls-25" d="M205.23,5.94c-6.79,4-14.41,8.64-16,17.09-.42,2.21,3.23,1.39,3.45-.53.56-1.2,1.1-2.36,1.65-3.51a5.59,5.59,0,0,0,.49-.62.49.49,0,0,0,.09-.47,21.43,21.43,0,0,1,2.71-4.2c2.36-2.82,5.28-4.92,7.8-7.52C205.57,6,205.43,5.79,205.23,5.94Z"/><path class="cls-25" d="M197.34,25.38a17.3,17.3,0,0,0-4.17,6.73,29.55,29.55,0,0,1,1.15-9.31c.91-3,3.62-5.36,4.26-8.28,0-.07-.07,0-.08,0-.65,1.66-2.72,3.36-3.79,4.87A20.54,20.54,0,0,0,191.85,26a23,23,0,0,0,0,11.09c-.7,4.31-.19,8.55,2.51,10.74,1.12.89,2.59-.68,2.47-1.81-.61-6.47-3.59-14.36.76-20.44A.15.15,0,0,0,197.34,25.38Z"/><path class="cls-25" d="M363.12,189.92c-3.5-8.32-4.76-15.78-5.33-24.73,0-.09-.17,0-.17.08-.57,8.4-2.43,19.37,3.8,26.17C362.16,192.26,363.47,190.73,363.12,189.92Z"/><path class="cls-25" d="M377.67,190.27c-4.07-3.9-7.86-7.52-11.1-12.19-3-4.36-6.64-12-5.85-17.41,0-.25-.34-.12-.39,0-1.76,5.82.92,12.34,2.9,17.83,2.08,5.74,7,12,13,13.59C377.12,192.39,378.5,191.09,377.67,190.27Z"/><path class="cls-25" d="M387.16,192.64c-2.39-2.44-5.33-4.23-7.77-6.62-2.22-2.16-5.16-6-5.63-9.07,0-.4-.59,0-.57.25.14,3.16,2.25,5.51,3.58,8.24,1.75,3.59,5.69,6.64,9,8.75C386.56,194.72,387.89,193.39,387.16,192.64Z"/><path class="cls-25" d="M487.72,156.78A51.9,51.9,0,0,1,475.79,174c1.72-3.48,3-8.19,2.26-11.16-.12-.45-.72-.05-.67.3.48,4.57-4.23,10.13-7,13.12-3.52,3.7-8.28,6.68-12.46,9.58-1.47,1-1.33,3.94.91,3a37.43,37.43,0,0,0,9.68-5.92h0c5.31-1.18,9.28-6.23,12.47-10.3a36.81,36.81,0,0,0,7-15.83C488,156.57,487.77,156.67,487.72,156.78Z"/><path class="cls-25" d="M318.91,212.65a53.87,53.87,0,0,0-7.17-11.92,1,1,0,0,0,.46-.89c-.65-4.05-4.94-7.29-8-9.71a42,42,0,0,0-5.33-3.47c-2.51-1.44-4.3-1.15-6.93-1.95-.25-.07-.6.38-.3.48,2.22.94,4.33,1.14,6.41,2.55a36.1,36.1,0,0,1,4.77,3.88,35.07,35.07,0,0,1,3.58,3.94c-3.95-2.68-8.45-3.85-12.77-6.36-.22-.13-.6.32-.38.49,4.42,3.4,9.49,5.41,13.5,9.4,4.3,4.26,7.57,9.48,10.86,14.51C318.08,214.34,319.22,213.34,318.91,212.65Z"/><path class="cls-25" d="M626.51,156.14c-.08-.06-.22.11-.13.14a33.68,33.68,0,0,1,9.89,10.48c2.64,4.34,3.89,9.28,6.29,13.71.5.93,1.7-.26,1.65-1C643.35,169.13,635.33,160.66,626.51,156.14Z"/><path class="cls-25" d="M647.33,208.6a1.1,1.1,0,0,0,.4-.47c2.14-4.45.38-8.49-1.25-12.81a42.53,42.53,0,0,0-4.27-8.06c-1.62-2.51-4.2-4-5.87-6.48-.23-.35-.79.14-.63.47,1.91,3.7,4.57,6.82,6.37,10.68,1.87,4,4,10.17,3.71,15-1.62-1.71-3.38-3.35-5.1-5,.06-.07.06-.13,0-.18a4.84,4.84,0,0,0-.46-.24c-.39-.16-.82.42-.58.77,4.7,6.06,7.3,12.77,10.28,19.75.69,1.62,2.83-.47,2.74-1.6C652.29,215.66,650.14,212,647.33,208.6Z"/><path class="cls-25" d="M707.08,244.25a2.23,2.23,0,0,0,1.17-1.19c3.88-10.07-5.34-19.37-12.72-24.67-.35-.24-1,.31-.74.67a56.41,56.41,0,0,1,6.66,11,45.59,45.59,0,0,1,1.81,6.54,16,16,0,0,0-5.58-5.85c-.33-.18-.82.42-.54.73,3,3.06,5,9,6.23,13.05,1.88,6.07,3.77,11.66,4.29,18.06.14,1.38,1.94.11,2.09-.68A28.3,28.3,0,0,0,707.08,244.25Z"/><path class="cls-25" d="M694.29,283.41c-.12-.25-.5,0-.44.24,2.17,9.53,2,22.54-4.44,30.76a25.82,25.82,0,0,0-1.9-11.28c-.09-.26-.49.05-.43.25,1.36,5.78,0,12.38-1.79,17.95-1.88,5.73-6.18,10.17-9,15.38-.56,1,.31,2,1.35,1.26,6.08-4.59,10.28-12.28,11.49-20.24h.28c4.93-.7,7.61-7,8.58-11.14C699.84,298.1,697.46,291.28,694.29,283.41Z"/></g></g></svg>