<svg xmlns="http://www.w3.org/2000/svg" viewBox="0 0 837.34 1052.67"><defs><style>.cls-1{isolation:isolate;}.cls-2{fill:#3a3438;}.cls-11,.cls-14,.cls-3,.cls-5,.cls-9{mix-blend-mode:multiply;}.cls-4{fill:#63230d;}.cls-11,.cls-17,.cls-5,.cls-9{opacity:0.5;}.cls-15,.cls-6{fill:#5d2e17;}.cls-10,.cls-11,.cls-16,.cls-17,.cls-7{fill:#a35129;}.cls-8,.cls-9{fill:#ce6f49;}.cls-10{opacity:0.3;}.cls-10,.cls-15,.cls-16,.cls-17{mix-blend-mode:screen;}.cls-12{fill:#5b2710;}.cls-13{fill:#fff;}.cls-14{fill:#7a3d1e;}</style></defs><g class="cls-1"><g id="Layer_1" data-name="Layer 1"><path class="cls-2" d="M576.74,928.19s-16.53,22-26.8,48.16c-6.21,17.21,4.79,19.29,23.37,24.12s43.34-.69,45.4-15.84.68-55.07-14.43-60.55S576.74,928.19,576.74,928.19Z"/><path class="cls-2" d="M346.9,795.38s14.46-42.65,31-43.38,36.45,17.26,42,42c4.82,22.06,2.1,26.84-6.18,35.11s-33,24.07-52.28,17.89S342.06,814.66,346.9,795.38Z"/><path class="cls-2" d="M437,979.79s-22,30.26-28.89,49.59c-4.83,13.75,4.12,17.18,20.63,22s60.6-4.83,60.6-13.75,2.05-53-17.25-62S437,979.79,437,979.79Z"/><path class="cls-2" d="M684.14,949.76s-14.76,13.66-17.42,39.41c-2.71,20.65,6.71,25.19,33.26,24.68s36.7-5.37,38.62-19.06,1.34-35.41-4.57-43.2S702.9,925.08,684.14,949.76Z"/><g class="cls-3"><path class="cls-2" d="M472.12,975.68c-19.27-8.95-35.09,4.11-35.09,4.11s-16.7,23-25.54,41.65l.44.19s20.63-31.86,27.63-13.59c7,19.62,12.65,7.46,15.94,3.26s7.91-6.57,10.76,9.35c2.69,15.21-18.17,38.12-59.22,17.24,1.21,7,9.32,9.87,21.73,13.5,16.52,4.81,60.6-4.83,60.6-13.75S491.42,984.63,472.12,975.68Z"/></g><g class="cls-3"><path class="cls-2" d="M604.28,924.08c-15.17-5.53-27.54,4.11-27.54,4.11A243,243,0,0,0,558,958.8l.13,0S574,942,577.73,942.93s5.63,8.46,5.63,8.46,8.88-4.25,12.65-4.25,10.27,7.49,10.75,25.32-37.94,30.41-58.07,9.32c-.08,0-.11-.13-.22-.2-2.17,12.44,8.36,14.61,24.84,18.89,18.57,4.78,43.34-.69,45.4-15.84S619.39,929.56,604.28,924.08Z"/></g><g class="cls-3"><path class="cls-2" d="M734,951.59c-5.92-7.76-31.13-26.51-49.89-1.83,0,0-10.66,9.93-15.5,28.79,3.31-4.47,14.3-18.39,23.34-18.77,10.79-.45,8.91,12.68,16.87,3.29s16.41-.94,16.83,14c.49,14.41-13.31,44.69-58.71,24.36,2.61,10.23,12.85,12.77,33,12.37,26.54-.53,36.7-5.37,38.62-19.06S739.94,959.38,734,951.59Z"/></g><g class="cls-3"><path class="cls-2" d="M419.82,794c-5.51-24.73-25.42-42.68-42-42s-31,43.38-31,43.38c-4.84,19.28-4.84,45.42,14.46,51.61,7.27,2.33,15.31,1.55,23-.8-7.59-3.33-14.3-8.33-8.29-14.31,11.29-11.28,9.45-11.56-4.88-16.76s-5.78-35.64,11.58-39.62c15.43-3.5,35.89,15.11,33.46,51C422.4,819.52,424.15,813.57,419.82,794Z"/></g><path class="cls-4" d="M525.82,672.9S509.3,725.19,560.9,763c23.41,16.55,33.06,9.65,29.6,42s-6.86,91.56-11.7,106-11,28.9-11,28.9,11.67-4.12,15.84-8.26c7.53,13.09,10.32,18.59,11.7,6.19,9.62,6.9,8.25,9,6.85-8.94,17.2,2.09,12.41-1.36,2.77-8.93s-13.79-13.78,6.87-64,48.84-96.3,32.36-105.29-31-31.63-5.53-97.7c-4.13-48.19-11.69-87.4-32.32-76.4S525.82,672.9,525.82,672.9Z"/><g class="cls-5"><path class="cls-4" d="M605,920c-9.62-7.57-13.79-13.78,6.87-64s48.84-96.3,32.36-105.29-31-31.63-5.53-97.7c-4.13-48.19-11.69-87.4-32.32-76.4s-80.52,96.36-80.52,96.36-13,41.37,20.39,77.12l.17-.38S532.12,711,551,700.53s28.38-44.11,49.4-51.48,15.74,32.59,8.4,57.76-4.22,40,15.77,54.67,3.17,29.41-12.63,80.88S588.22,909.13,590,921.93s0,12.7-3.59,5.44-7.33,0-12.17,4.84c-1.23,1.24-2.44,1.22-3.46.41-1.78,4.44-3,7.27-3,7.27s11.67-4.12,15.84-8.26c7.53,13.09,10.32,18.59,11.7,6.19,9.62,6.9,8.25,9,6.85-8.94C619.39,931,614.6,927.52,605,920Z"/></g><path class="cls-6" d="M685,334.9s24.81-46,37.92-43,59.78,27,80.94,53.95,16.76,32.81,11.63,46.68-7.29,34.24,21.89,59.77c-5.83,8-20.42,1.43-20.42,1.43s23.33,47.42,8.76,74.38-24.79,40.83-18.23,56.86S822,609.7,835.16,599.49c-12.4,24.07-16.76,29.18-29.92,19.7,15.34,22.61,14.62,40.09-9.45,59-20.43,15.31-24.08,17.5-18.24,29.16s7.3,14.59,7.3,14.59-31.33-15.28-27.7-24.78,8.74-21.9,8.74-21.9a34.66,34.66,0,0,1-14.55,4.39c16.74-19,16-25.51,13.09-32.79s-18.95-33.58-18.95-33.58,54.68-116.6,21.17-169.09S685,334.9,685,334.9Z"/><g class="cls-5"><path class="cls-6" d="M833.57,602.56c-9.91,15.11-26.66,9.24-39.8,2.19,13.33,24.52,12.26,50.1-6.68,59.55,6.68-6.7,5.48-25.11-5.52-36.17s-17.83-26.27,7.62-82.25c32.2-75.51,5.93-135.72,6.82-119.62s-3.44,39.85-6.82,10.17c-1.72-35.63-69-95.53-78.84-123.6-2-5.81-1.63-10.65.31-14.69-12.35,12-25.7,36.76-25.7,36.76s48.13,56.86,81.69,109.33-21.17,169.09-21.17,169.09,16,26.28,18.95,33.58,3.65,13.84-13.09,32.79a34.66,34.66,0,0,0,14.55-4.39s-5.09,12.39-8.74,21.9S784.85,722,784.85,722s-1.44-2.91-7.3-14.59-2.19-13.85,18.24-29.16c24.07-19,24.79-36.43,9.45-59C817.8,628.22,822.37,623.94,833.57,602.56Z"/></g><path class="cls-7" d="M103.49,150.36S91.1,169.81,81.34,185.77s-48.66,12.39-13.27,50.44c0,0-43.32,72.56-47.78,176.1-14.14-1.77-13.5,6.09-10,16.83-12-2.86-12.29,3.73-6.93,9.72s27.1,23,46.3,22.05c1.27,6.31,22.84,7.42,57-1.49,21.57-7.87,27.84-14.7,29.44-32.57s4.7-36.24,28.34-55.7,68.31-46.25,68.31-46.25a324.83,324.83,0,0,1,28.72,74.79c8.39,38.52,8.08,56.27.68,69.37-24.5,43.41-39.88,73.54-37.8,81.92a189.54,189.54,0,0,0,7,20.31S183,646.94,173.83,719.8c-6.28,38.5-6.15,42.42,12.64,51.12,39.19,18.2,98.63,47.33,126.16,61.25s45.84,21.28,62,22.36c-4.42-5.1-17.66-19.07-16.54-21.63S371,823.71,371,823.71s-22.39-5.46-23.85-7.36,6.24-32.63,6.24-32.63-17.19,19.75-31.38,24-16.27,2.1-39.39-19.47-52.55-43-52.55-43,85.1-54.65,99.81-86.12a142.62,142.62,0,0,0,28.91,12.08c34.68,37.82,46.77,51.47,74.59,80.35s50.45,57.78,51.49,68.27-14.2,96.65-26.8,117.67-29.94,41-32.07,60.42c11.56-10,12.08-12.09,12.08-12.09s8.95,24.19,11.08,24.71,9.45-17.37,12.08-17.85,8.42,10,10.49,10.49.29-16-.94-22.27c13.77,3.26,14.26,2.5,15,1.47S467,968.8,473.27,952.67s32-65.64,45.19-102.95,16.27-42.53.52-65.69c-13.68-22-2.61-74.06,7.35-99.27,0,0,27.29-2.78,29.52-9s28.3-64.63,58.82-93.82c-2.65,35-3.55,44.7,17.27,70.82s58.11,73.31,74.92,103.42c15.4,25.94,11.19,37.83,7.72,67.95S699,935.27,679.29,951.78c-4.31,4.32,12.57,1.09,19-6.07,6.48,14.33,6.11,17.18,16.54-1.82,20.43,14.37,29.4,17.22,24.37,6.13s-12.91-19.39-16.5-27.31-1.79-15.4,2.88-33,24.65-80.27,35.2-104.05,14-26.6,2.1-32.93-53.24-44.16-17.52-131C779,538.38,811.25,488,760.8,412.34s-119-115.65-145-111.38c-38.49,6.26-54.64,41.31-88.21,60.23-39.24,14.71-91.07,28-104.37,18.9-5.61-25.21-17.5-35-32.23-42.69,16.11,0,19.6-7.73,19.6-7.73s-21-2.8-20.29-22.45,1.4-61.59-9.81-72.79a156.23,156.23,0,0,0-23.12-18.92s8.39-9.78,10.48-14-9.08,0-16.1-4.93-9.4-14-10.48-32.2c-1.42-23.13-31.52-54.64-48.32-73.56a517.8,517.8,0,0,0-7.4-52.22C280.2,12.05,282.34,0,278.78,0s-36.06,30.45-50.56,46.73-16.3,25.43-16.3,25.43-15.25-15.91-32.21-17.31-49.88,21.59-61.92,4.94c-12.37-9.2-51.66-27.57-57-27.57s-7.06,60.52.37,77.5,20.18,15.92,28.32,18.75S97.67,143.59,103.49,150.36Z"/><path class="cls-8" d="M100.11,121.78s1-2.06-8.66-7S68.74,102,71.84,81.11,73.3,54.53,73.3,54.53s36.6,13,33.07,39.7C103.17,103,99.64,118.51,100.11,121.78Z"/><path class="cls-8" d="M100.07,121.27a1.88,1.88,0,0,0,0,.51A1,1,0,0,0,100.07,121.27Z"/><path class="cls-9" d="M106.37,94.23C109.9,67.5,73.3,54.53,73.3,54.53s1.63,5.78-1.46,26.58a38.3,38.3,0,0,0-.42,5.7l.73-1s5.28-18.56,8.48-21S99.71,75.22,99.71,94c0,18.57-11.09,22.94-24.34,7.77,4.09,6.52,10.6,10.21,16.08,13,6.91,3.55,8.35,5.6,8.62,6.49C100,117.14,103.31,102.62,106.37,94.23Z"/><g class="cls-5"><path class="cls-7" d="M211.92,72.16c-3.39,8.77,1.63,14.85,5.18,30.19S226.52,120,225.32,133s-11.19,26.6-9.41,16.55c5.86-14.74,1.75-31.87-.62-26.6s-2.93,4.14-20,14.82-43.67,33-50.19,22.4c-7.08,11.79-10,36.56-16.48,28.9C107.3,165.48,102,146,97.87,137.78s-8.39-9.31-8.39-9.31c-4.62-1.61-10.69-2-16.43-5,23.64,5.8,29.44-12.49,30.57-25.73,1.28-14.82,10.29-22.5-2.58-37.94A189.75,189.75,0,0,0,81.66,40.24c13.26,6.08,29.06,14.32,36.13,19.55,6.82,9.46,20.3,6.17,33.84,1.81C151.63,61.6,186.12,43.81,211.92,72.16Z"/></g><path class="cls-10" d="M98.86,183.76s20.86,26.11,31.82,9.31,32.9-29.38,63.61-23.11,5.49,45.19,27.44,63.06,12,54.63-30.71,43c-19.74-5.21,1.5,21.81-40.59,46.7s-46,45.7-55,67.15-19.59,9.33-29.42,4.2-30.71,16.76-28-21,29.46-131.65,91.8-136.91c-35.28-3.17-44.06,4.14-44.06,4.14S79,229.81,94.5,215.15c5.86-5.52-24.46,7.5-20.86-5.25S92.56,171.88,98.86,183.76Z"/><g class="cls-3"><path class="cls-7" d="M281.27,47.49c6.37,36.84-6.44,72.09-28.85,86.51-12.81,7.22,32,6.39,44.05,95.33,7.19,79.27,46.46,152.94,95.32,161.76,6.38,3.21-2.4-4.79,0-4.79,0,0,28.82,20,44.83,23.19,12.86,4-8-17.58,12.86-17.58s101.19-25.15,123.59-41.26,2.81-2.77-12.61-1.39c-6.84.65-4.78-6.28,2.15-16.16-10.58,10-21.36,20.41-35,28.09-39.24,14.71-91.07,28-104.37,18.9-5.61-25.21-17.5-35-32.23-42.69,16.11,0,19.6-7.73,19.6-7.73s-21-2.8-20.29-22.45,1.4-61.59-9.81-72.79a156.23,156.23,0,0,0-23.12-18.92s8.39-9.78,10.48-14-9.08,0-16.1-4.93-9.4-14-10.48-32.2c-1.42-23.13-31.52-54.64-48.32-73.56a517.8,517.8,0,0,0-7.4-52.22C280.2,12.05,282.34,0,278.78,0l-.34.06C277.61,8.73,277.27,24.52,281.27,47.49Z"/></g><path class="cls-6" d="M125.54,83.47C108.7,85.91,105.19,94,102.41,106.25s-2.82,24.5,1.41,29.38c.68-8.75,6.31-16.08,6.31-16.08s-10.87,22.75-1.43,37.8A231.35,231.35,0,0,0,129,184.66s12.27-37.82,25.6-45.49c-5.28,7-4.23,17.84-4.23,17.84s32.6-15.41,44.85-24.86,21.27-23.25,17.8-36c-2.1-7.66-1.88-17.17-.35-26.33a19.28,19.28,0,0,0-.76,2.35s-15.25-15.91-32.21-17.31-49.88,21.59-61.92,4.94c-.27-.17-.56-.4-.86-.6C116,64.71,115.87,75.31,125.54,83.47Z"/><path class="cls-6" d="M267.42,134.35c19.68,24.86,31.3,43.55,35.89,89.7,6.37,64.22,31.82,141.21,82.18,159.1C378,374.5,378,366.37,378,366.37s26,24.31,49.74,33c-4.61-8.12-4.49-19.27-4.49-19.27-5.61-25.21-17.5-35-32.23-42.69,16.11,0,19.6-7.73,19.6-7.73s-21-2.8-20.29-22.45,1.4-61.59-9.81-72.79a156.23,156.23,0,0,0-23.12-18.92s8.39-9.78,10.48-14-9.08,0-16.1-4.93-9.4-14-10.48-32.2c-1.42-23.13-31.52-54.64-48.32-73.56C292.3,102.51,281.9,125.11,267.42,134.35Z"/><path class="cls-11" d="M77.54,207.92s8.74-16.67,27.27.4c-8.7-17.4-14.38-23.08-21.18-13.27S77.54,207.92,77.54,207.92Z"/><path class="cls-11" d="M146.48,201.49s12.13-15.5,34.86-8.33c5.32,1.51-12.88-15.51-16.67-14.44S141.18,201.49,146.48,201.49Z"/><path class="cls-12" d="M77.16,204.5s8.71-16.67,27.29.38c-8.71-17.42-14.41-23.1-21.2-13.26S77.16,204.5,77.16,204.5Z"/><path class="cls-12" d="M146.1,198.06s12.12-15.53,34.86-8.31c5.31,1.5-12.88-15.54-16.66-14.42S140.84,198.06,146.1,198.06Z"/><path class="cls-11" d="M105.82,229.86c-.07,6.06-2.51,11-5.37,11.14s-5.15-4.81-5.09-10.88,2.48-11.06,5.34-11.17S105.89,223.76,105.82,229.86Z"/><path d="M104.94,229.88c0,5-2,9.21-4.45,9.28s-4.31-4-4.26-9.11,2.07-9.17,4.47-9.24S105,224.81,104.94,229.88Z"/><path class="cls-13" d="M103.69,226.94c.18,2-.59,3.68-1.66,3.8s-2.06-1.45-2.16-3.43.62-3.68,1.69-3.73S103.6,225,103.69,226.94Z"/><path class="cls-11" d="M180.79,231.78c-.08,6.21-2.52,11.34-5.52,11.43s-5.28-5-5.2-11.23,2.54-11.3,5.49-11.42S180.88,225.48,180.79,231.78Z"/><path d="M179.79,231.78c-.08,5-2.08,9.22-4.46,9.29s-4.31-4-4.26-9.09,2.07-9.22,4.49-9.3S179.84,226.68,179.79,231.78Z"/><path class="cls-13" d="M178.56,228.83c.13,2-.64,3.68-1.68,3.8s-2-1.44-2.17-3.44.64-3.63,1.72-3.72S178.44,226.89,178.56,228.83Z"/><path class="cls-11" d="M79.08,252.84s.34-.26,1-.71a35.4,35.4,0,0,1,3.12-1.94c1.35-.84,3.06-1.72,5-2.76s4.23-2,6.77-3,5.3-2,8.25-3,6.2-1.83,9.51-2.59A96.48,96.48,0,0,1,123.23,237c1.78-.21,3.61-.38,5.4-.61,1.8-.06,3.64-.17,5.48-.23a107.06,107.06,0,0,1,10.9.25c.88,0,1.78.08,2.68.15s1.75.29,2.64.38c1.73.29,3.43.52,5.14.81.86.12,1.67.24,2.52.41a23.11,23.11,0,0,1,2.42.59l4.67,1.2c1.49.48,3,.69,4.35,1.25s2.73,1,4,1.54a68.93,68.93,0,0,1,6.88,2.79c2,1,3.62,1.93,5,2.65,2.77,1.55,4.35,2.36,4.35,2.36L185,249c-1.48-.52-3.27-1.16-5.32-1.94a26.36,26.36,0,0,0-3.28-1c-1.21-.35-2.44-.69-3.73-1a74.84,74.84,0,0,0-8.35-2c-1.5-.28-3-.57-4.62-.92-.76-.15-1.55-.3-2.37-.41s-1.61-.21-2.44-.29a97.68,97.68,0,0,0-10.18-.93,92.32,92.32,0,0,0-10.53-.13c-1.76.09-3.53.1-5.28.15s-3.52.33-5.22.55c-3.47.22-6.86.89-10.16,1.35-1.62.26-3.21.7-4.78,1s-3.13.56-4.59,1c-3,.77-5.77,1.45-8.31,2.29-5.12,1.5-9.34,3.08-12.24,4.2-1.46.63-2.6,1-3.4,1.39S79.08,252.84,79.08,252.84Z"/><path class="cls-8" d="M233.29,121.84s-18.93-25.48,5.19-58.08,32.62-43,29.34-15S262.63,110.08,233.29,121.84Z"/><g class="cls-5"><path class="cls-6" d="M213,96.14c-2.1-7.66-1.88-17.17-.35-26.33a19.28,19.28,0,0,0-.76,2.35s-15.25-15.91-32.21-17.31-49.88,21.59-61.92,4.94c-.18-.1-.31-.22-.44-.3C126.66,74,147,67.74,165.21,61.36c20.53-7.1,41.48,8.52,40.58,31.27s-25.85,40.17-46.4,50.45c-.42-8.52,4.47-19.62,4.47-19.62s-38.79,22.71-39.25,44.13c-24.12-20.54-5.36-62-5.36-62s-11.16.91-15.17,14.3c-1.83-3.94-1.4-11.5-.59-17.94-.39,1.42-.77,2.83-1.08,4.33-2.82,12.26-2.82,24.5,1.41,29.38.68-8.75,6.31-16.08,6.31-16.08s-10.87,22.75-1.43,37.8A231.35,231.35,0,0,0,129,184.66s12.27-37.82,25.6-45.49c-5.28,7-4.23,17.84-4.23,17.84s32.6-15.41,44.85-24.86S216.5,108.9,213,96.14Z"/></g><g class="cls-5"><path class="cls-8" d="M238.48,63.76a74.48,74.48,0,0,0-6.06,9.66l.35.06S250.06,50.66,258.91,47s.71,40.07-12.91,56.24S226.89,106.93,226.52,93c0-.15,0-.25,0-.38-1.86,17.59,6.78,29.23,6.78,29.23,29.34-11.76,31.3-45,34.53-73.05S262.63,31.17,238.48,63.76Z"/></g><g class="cls-5"><path class="cls-7" d="M762.9,752.73c-11.91-6.32-53.24-44.16-17.52-131C779,538.38,811.25,488,760.8,412.34a346.33,346.33,0,0,0-30.59-39.51c.48.7,1,1.33,1.52,2,45.16,58.82,43.07,110.31,22.08,173.38s-58.88,136.55-95.62,96.64S634,532.43,642.43,485.14s-22-8.4-37.84,58.86-58.8,88.24-63,50.42S504.8,502,495.34,514.56s23.12,64.08,19.95,126.09c-3.19,63-43.08,109.28-92.44,57.78s-57.79-77.73-51.48-121.86-7.36-69.37-21-14.71-47.3,73.55-78.79,31.51-24.89-69.67-13-93.54S289,479.68,278,416.91s-30.43-95.06-20.69-104.19c59.11-62.76-11.58-90.2-9.14-99.93s2.43-21.32-1.21-16.45c-11,20.11-14.63,26.18,4.24,40.82s26.8,36,1.84,57.89-34.12,16.42-28.65,11c15.25-8.54,17.68-31.68,9.16-23.18-14,16.46-29.89,8.53-36.56,3.65-3.64,6.72,3.64,19.53,14,21.94-4.87,17.68-28,26.8-51.77,37.8s-45.69,28-44.5,53-22.81,27.09-38.57,9.22S29.91,414.74,29.91,400C33.05,299.18,83.5,244.57,83.5,244.57c-21,0,8.39-29.42,1.07-24.17S74,226.68,62.48,215.15C58.57,211,57,207,56.89,203.56c-5.64,5.84-5.64,14.55,11.18,32.65,0,0-43.32,72.56-47.78,176.1-14.14-1.77-13.5,6.09-10,16.83-12-2.86-12.29,3.73-6.93,9.72s27.1,23,46.3,22.05c1.27,6.31,22.84,7.42,57-1.49,21.57-7.87,27.84-14.7,29.44-32.57s4.7-36.24,28.34-55.7,68.31-46.25,68.31-46.25a324.83,324.83,0,0,1,28.72,74.79c8.39,38.52,8.08,56.27.68,69.37-24.5,43.41-39.88,73.54-37.8,81.92a189.54,189.54,0,0,0,7,20.31S183,646.94,173.83,719.8c-6.28,38.5-6.15,42.42,12.64,51.12,39.19,18.2,98.63,47.33,126.16,61.25s45.84,21.28,62,22.36c-4.42-5.1-17.66-19.07-16.54-21.63S371,823.71,371,823.71s-22.39-5.46-23.85-7.36,6.24-32.63,6.24-32.63-17.19,19.75-31.38,24-16.27,2.1-39.39-19.47-52.55-43-52.55-43,85.1-54.65,99.81-86.12a142.62,142.62,0,0,0,28.91,12.08c34.68,37.82,46.77,51.47,74.59,80.35s50.45,57.78,51.49,68.27-14.2,96.65-26.8,117.67-29.94,41-32.07,60.42c11.56-10,12.08-12.09,12.08-12.09s8.95,24.19,11.08,24.71,9.45-17.37,12.08-17.85,8.42,10,10.49,10.49.29-16-.94-22.27c13.77,3.26,14.26,2.5,15,1.47S467,968.8,473.27,952.67s32-65.64,45.19-102.95,16.27-42.53.52-65.69c-13.68-22-2.61-74.06,7.35-99.27,0,0,27.29-2.78,29.52-9s28.3-64.63,58.82-93.82c-2.65,35-3.55,44.7,17.27,70.82s58.11,73.31,74.92,103.42c15.4,25.94,11.19,37.83,7.72,67.95S699,935.27,679.29,951.78c-4.31,4.32,12.57,1.09,19-6.07,6.48,14.33,6.11,17.18,16.54-1.82,20.43,14.37,29.4,17.22,24.37,6.13s-12.91-19.39-16.5-27.31-1.79-15.4,2.88-33,24.65-80.27,35.2-104.05S774.8,759.06,762.9,752.73Z"/></g><path class="cls-14" d="M21.27,423.5s-1-2.88,1.37-2.72,2.7,1.68,2.18,9.5-.84,14.06,5.09,12.89,9-6.4,4.42-13.06S23.5,415.87,20.58,416.72,20.41,425.7,21.27,423.5Z"/><path class="cls-14" d="M61.66,419.44s1,4.92,2,4.58-.19-7.11,2.69-6.29,7.3,3.76,7.47,11.87.69,12.89,4.59,11.36,9.34-2.48,5.42-9.15-7-11-14.26-15.76S61.31,412.65,61.66,419.44Z"/><path class="cls-14" d="M230.34,291.85c-.39.35-.85.76-1.4,1.22s-1.09,1.05-1.77,1.58-1.41,1-2.14,1.6a27,27,0,0,1-2.44,1.6,23.86,23.86,0,0,1-2.69,1.31,12.26,12.26,0,0,1-1.4.4,7.35,7.35,0,0,1-1.44.29l-1.45.09c-.47,0-1-.09-1.47-.09a16.05,16.05,0,0,1-5.47-1.66c-.86-.4-1.63-.87-2.38-1.28a55.54,55.54,0,0,1-4.78-3.31,9.5,9.5,0,0,0,.69,1.53,16.86,16.86,0,0,0,2.58,3.62,18.07,18.07,0,0,0,2.22,2.06,15,15,0,0,0,2.92,1.9c.51.23,1.14.41,1.73.67a7.35,7.35,0,0,0,1.9.47,6.94,6.94,0,0,0,2,.25v.06a25.53,25.53,0,0,1-.56,3.35c-.37,1.28-.65,2.8-1.21,4.41-.35.8-.68,1.6-1,2.49-.19.46-.38.87-.55,1.35s-.52.89-.78,1.3c-.53.88-1.07,1.81-1.62,2.76s-1.43,1.79-2.1,2.7a58.43,58.43,0,0,1-12.16,10.33,183.92,183.92,0,0,1-16.59,9.36c-6,3.17-12.5,6.38-19,10.11s-13.24,7.93-19,13.56a50.71,50.71,0,0,0-13.23,20.53c-2.61,7.92-3,16.21-3.13,24-.06,3.91.12,7.76-.17,11.47s-.81,7.29-2.38,10.19a17.57,17.57,0,0,1-7.07,6.75,80.57,80.57,0,0,1-9.29,4.37c-6.3,2.71-12.39,4.63-17.92,6.69-1.44.47-2.82,1-4.09,1.46s-2.75.76-4,1.18c-2.58.83-5.06,1.52-7.37,2.19-4.62,1.46-8.69,2.54-12,3.37s-6,1.65-7.8,2.08l-2.77.71,2.81-.46c1.84-.3,4.55-.82,8-1.49s7.55-1.46,12.22-2.66l7.57-1.8,4-1c1.35-.45,2.77-.9,4.2-1.33,5.69-1.81,12-3.52,18.36-6.05a81.52,81.52,0,0,0,9.81-4.29,20.4,20.4,0,0,0,8.65-8c2-3.66,2.65-7.75,3-11.62s.27-7.88.35-11.77c.13-7.7.6-15.54,3-22.7a46.68,46.68,0,0,1,12.07-19,92.41,92.41,0,0,1,18.07-13.27c6.34-3.77,12.65-7.2,18.63-10.56a156.55,156.55,0,0,0,16.5-10.15,53.8,53.8,0,0,0,11.94-11.32c.69-1,1.36-2,2-2.92s1-2.05,1.54-3c.23-.45.46-.91.69-1.42s.33-.89.5-1.38c.29-.9.61-1.78.88-2.63a33.81,33.81,0,0,0,1.21-8v-.07l1.85-.08a8.58,8.58,0,0,0,1.95-.49,7.62,7.62,0,0,0,1.89-.62,17.16,17.16,0,0,0,1.67-.92,9,9,0,0,0,1.56-1c.92-.83,1.78-1.57,2.52-2.38s1.24-1.63,1.8-2.36a9,9,0,0,0,1.23-2.14,17.93,17.93,0,0,0,.81-1.76,11.91,11.91,0,0,0,.61-1.52Z"/><path class="cls-13" d="M95.06,244.41s36.73-19.81,78.39-1.64C158.41,234,124.19,226.85,95.06,244.41Z"/><path class="cls-15" d="M135.13,95.94S115.54,122,121,150.28C112.26,132.39,113.91,107.34,135.13,95.94Z"/><path class="cls-15" d="M129.7,89.45s-13.28,0-21,18.2C104.5,95,120,85.21,129.7,89.45Z"/><path class="cls-15" d="M126.57,69.76s9.22,7.69,35.3-4.56C155.68,75.9,133.47,85.12,126.57,69.76Z"/><g class="cls-5"><path class="cls-6" d="M423.21,380.09c-.37-1.74-.81-3.35-1.27-4.94-34.16,2.09-57.14-43.86-57.14-43.86a53.25,53.25,0,0,0,5.75,21.7c-37.72-14.84-35.42-67.37-35.42-67.37s13.7,8,27.41,1.13c-26.27-6.84-49.13-41.12-48-82.25s-30.82-72-13.69-82.28c9.43-5.67,22,6,31.35,17.61-10.59-17.82-27.93-36.24-39.24-49-.64,11.71-11,34.31-25.52,43.55,19.68,24.86,31.3,43.55,35.89,89.7,6.37,64.22,31.82,141.21,82.18,159.1C378,374.5,378,366.37,378,366.37s26,24.31,49.74,33C423.09,391.24,423.21,380.09,423.21,380.09Z"/></g><path class="cls-15" d="M315.5,135.71s20.69,13.81,21.76,45.61C336.71,194.64,350.49,146.84,315.5,135.71Z"/><path class="cls-15" d="M354.57,226s28,2.83,30.8,70C391,242.79,375.56,226,354.57,226Z"/><path class="cls-15" d="M733.82,307.6s60.94,25.24,67.26,77.74C811.58,363.29,787.4,319.18,733.82,307.6Z"/><path class="cls-15" d="M816.55,476.3s13.89,39.37-7.53,66.56C824,530.13,833.34,500.64,816.55,476.3Z"/><path class="cls-10" d="M304.17,309.37s18.75,73.66,91,89.5c27.44,10.16,53.44,30.34,56.31,14.47S541,385.92,590.09,355.58c34.65-23.11-21.66-13,0-31.79s88.1-4.31,135.76,62.13,13,171.82-31.76,181.93-31.78-70.76-40.43-115.55-42.83,47.13-62.12,80.91c-23.11,40.42-28.89,21.67-62.08-21.67S471.67,487,486.1,536.1,502,657.4,457.23,664.64,381.74,610,387.93,531.79c4.31-54.91-21.67-34.67-41.91,7.19s-85.19,36.1-62.07-28.9,25.91-76.45,10.08-118.4C265.15,315.16,292.59,290.62,304.17,309.37Z"/><path class="cls-16" d="M395.38,542.86s-10.66,83.77,59.36,144.66C468.43,704.28,366.43,657.06,395.38,542.86Z"/><path class="cls-16" d="M664.84,468.3s-25.87,85.21,3,164.39C674,657.06,616.11,584,664.84,468.3Z"/><path class="cls-17" d="M66,394.12c-8.42-4.2-21,2.79-21,2.79s-3.46-90.67,59.19-152.5c0,0,22.1-13.93,46.15-7.44s1.89,43.13-25.08,69.15S81.88,392.48,66,394.12Z"/><path class="cls-17" d="M129.78,236.19s-62,54.61-72.54,157.57c-2.11,11.57-14.73-1.06,6.3-62S131.92,224.62,129.78,236.19Z"/><path class="cls-16" d="M495.83,833.58S485.37,871,471.91,914.43C473.39,890.49,483.87,850.8,495.83,833.58Z"/><path class="cls-16" d="M216.41,775.27s29.13,17.16,78.41,43.28C282.88,817.09,205.94,779,216.41,775.27Z"/><g class="cls-5"><path class="cls-7" d="M762.9,752.73c-11.91-6.32-53.24-44.16-17.52-131,27.85-68.94,54.7-115.35,34.57-172.2-.06.07-.1.09-.11.15,18.57,56.62-15,119.39-47.77,179.53S744.48,753,720.59,742.4,663.11,688.45,635.69,639s.88-153.86-4.4-149.45S618,534.6,613.6,554.93s-17.71,38.91-38.07,65.45-38.86,43.32-39.77,13.25-10.58-73.4-30.92-96.37c37.11,96.37,7.07,168-3.55,199.83-11.52,34.62-34.49,26.51-84-19.48S347.42,623,357.14,571.73c-16.78,33.59-17.69,76-34.47,69.85-43.35-14.13-69-66.75-69-66.75s4.24,35,29.46,53.21,19.61,36.42-4.23,57.46-84,65.81-81.24,30.81c8.39-75.66,50.42-110.66,33.61-145,0,0-48.29,75.65-57.44,148.51-6.28,38.5-6.15,42.42,12.64,51.12,6.74,3.12,14,6.61,21.68,10.19-1.19-1.43-13.69-16.82,6.45-17.84,21.12-1,60.25,40.19,89.84,56S368.87,828.8,352,833c-13.9,3.46-15.67-.89-5.85,14.48,10.79,4.12,19.95,6.46,28.52,7-4.42-5.1-17.66-19.07-16.54-21.63S371,823.71,371,823.71s-22.39-5.46-23.85-7.36,6.24-32.63,6.24-32.63-17.19,19.75-31.38,24-16.27,2.1-39.39-19.47-52.55-43-52.55-43,85.1-54.65,99.81-86.12a142.62,142.62,0,0,0,28.91,12.08c34.68,37.82,46.77,51.47,74.59,80.35s50.45,57.78,51.49,68.27c.33,3.43-1,14.65-3.43,29.06a2.89,2.89,0,0,1,.29-.67c10.49-26.27,11-52,25.2-48.83s9.47,35.66-14.18,86.15-35.71,65.65-33.1,85.06.51,15.23-4.71,7.86-3.17,9.44-5.78,12.61-4.76-10.5-4.23-17.33c.35-4.32-5.75-.79-11.94,3.57-3.63,7-6.24,13.82-7,20.61,11.56-10,12.08-12.09,12.08-12.09s8.95,24.19,11.08,24.71,9.45-17.37,12.08-17.85,8.42,10,10.49,10.49.29-16-.94-22.27c13.77,3.26,14.26,2.5,15,1.47S467,968.8,473.27,952.67s32-65.64,45.19-102.95,16.27-42.53.52-65.69c-13.68-22-2.61-74.06,7.35-99.27,0,0,27.29-2.78,29.52-9s28.3-64.63,58.82-93.82c-2.65,35-3.55,44.7,17.27,70.82s58.11,73.31,74.92,103.42c15.4,25.94,11.19,37.83,7.72,67.95-.5,4.24-1.13,9.51-2,15.45l.61-.27s7.34-52.72,20-53.67-.5,42.94-14.15,87.33-12.22,50.73-23.91,62a27.71,27.71,0,0,1-7.57,5.47c-2.61,5-5.35,8.88-8.32,11.36-4.31,4.32,12.57,1.09,19-6.07,6.48,14.33,6.11,17.18,16.54-1.82,20.43,14.37,29.4,17.22,24.37,6.13s-12.91-19.39-16.5-27.31-1.79-15.4,2.88-33,24.65-80.27,35.2-104.05S774.8,759.06,762.9,752.73Z"/></g><path class="cls-16" d="M727.14,810.44s-12.76,51-20.72,86.13C700,920.47,709.6,844.75,727.14,810.44Z"/><path class="cls-16" d="M623.51,332.84s54.94,7.36,106.11,104C739.08,454.68,713.87,344.37,623.51,332.84Z"/><path class="cls-13" d="M435,1009.82s-6.64,14-5.85,28.38c-.17,5.13-7.07,3.43-5.28-1.83S432.65,1001.2,435,1009.82Z"/><path class="cls-13" d="M577.93,953.08s-6.67,14-5.87,28.38c-.16,5.13-7,3.44-5.26-1.81S575.53,944.46,577.93,953.08Z"/><path class="cls-13" d="M386.22,825.65s15.42-1.92,27.11-10.27c4.4-2.62,6.67,4.12,1.27,5.42S380.27,832.29,386.22,825.65Z"/><path class="cls-13" d="M699.79,972s-6.69,14-5.88,28.33c-.14,5.15-7.07,3.49-5.22-1.78S697.43,963.34,699.79,972Z"/></g></g></svg>