<svg xmlns="http://www.w3.org/2000/svg" viewBox="0 0 895.46 841.35"><defs><style>.cls-1{isolation:isolate;}.cls-17,.cls-2,.cls-3,.cls-9{fill:#725e51;}.cls-17,.cls-3{opacity:0.6;}.cls-11,.cls-15,.cls-3,.cls-7,.cls-9{mix-blend-mode:multiply;}.cls-4{fill:#4c403e;}.cls-5,.cls-8{fill:#a58b76;}.cls-6,.cls-7{fill:#f0d9bb;}.cls-8{opacity:0.5;}.cls-9{opacity:0.7;}.cls-10{fill:#ffa482;}.cls-11{fill:#d17537;opacity:0.4;}.cls-12{fill:#fff;}.cls-13{fill:#fff6eb;}.cls-14,.cls-15{fill:#3f3934;}.cls-16{fill:#d3cbc5;}.cls-17{mix-blend-mode:screen;}</style></defs><g class="cls-1"><g id="Layer_1" data-name="Layer 1"><path class="cls-2" d="M513,466.63c-.55-.94-2.22-.1-1.75.87a95.93,95.93,0,0,1,5,12.74c-5.06-9.55-12.6-18-19.23-26.38-8.86-11.21-17-22.86-27.44-32.84-9.91-9.51-22.64-17.12-37-16.79-8.69.19-16.81,3.6-24.57,7.75q6.27-3.74,12.36-7.57c.76-.48.08-1.81-.76-1.4-52.41,25.57-110.37,54.33-138,107.23-6.9,13.21-11.68,28.92-8.13,43.73,3.75,15.58,14.35,33.45,24.91,45.32,12,13.46,22.56,22.17,34.76,35.46,8.15,8.87,17.28,17.9,26.12,26.57,5.66,9.32,11.11,18.62,15.31,28.74A250.19,250.19,0,0,1,391.3,752.6a397.44,397.44,0,0,1-59.75,15.71c-22.78,4.21-47.16,7.09-69.58-.37-8.56-2.85-16.25-7.38-25.21-9.09-7.87-1.51-15.67.87-22.18,5.08a27.27,27.27,0,0,0-12,17.6c-.82,4.53,1,8.57,3.73,12.06a12.34,12.34,0,0,0-1.45,6.29c.32,9.91,15,14.2,22.62,16.56,29.79,9.29,59.68,6.45,89.55-.59,16.21-3.79,32.56-7.75,48.51-12.42,15.44-4.5,30.23-10.86,45.91-14.69,8.26-2,24.12-2,27-12.18,2.17-7.61-4.77-15.21-11.49-20.75-6.16-24.67-13.72-49.46-17.2-74.65-2.73-19.9,4.73-35.65,14.69-51.34A126.41,126.41,0,0,1,438,620.41c8.81-5.35,18.37-9.37,27.24-14.61a139.5,139.5,0,0,0,42.23-38.54C529.34,536.75,531.55,499.1,513,466.63Z"/><path class="cls-3" d="M514.28,471.28c-.54-.94-3.51-4.75-3-3.78a95.93,95.93,0,0,1,5,12.74,94.32,94.32,0,0,0-8.78-13.3c4.16,16.53,4.89,33.46-1.92,49.63-7.22,17.17-21.24,31.2-36.4,42.15a143.85,143.85,0,0,1-35.37,19c-25.18,9.1-54,13.36-80.56,8-12.13-2.43-24.06-7-33.59-14.79-11.49-9.38-18.95-23-22.45-37.07-5.55-22.35,1-42.87,12.51-61.26a155.1,155.1,0,0,0-28,37.68c-6.9,13.21-11.68,28.92-8.13,43.73,3.75,15.58,14.35,33.45,24.91,45.32,12,13.46,22.56,22.17,34.76,35.46,8.15,8.87,17.28,17.9,26.12,26.57,5.66,9.32,11.11,18.62,15.31,28.74A250.19,250.19,0,0,1,391.3,752.6c-4.1,1.43-8.23,2.78-12.35,4.08,2.17-.54,4.33-1.07,6.52-1.63,2.5-.64,5.21-1.34,7.79-.67,2.22.56,3.7,3.1,5.22,4.52,5.38,5,13.59,2.5,20.17,4.53,4.09,1.27,8.34,4,8.26,8.65-.18,9.2-14.47,6.31-20.44,7.42-3.57.68-7,2.35-10.5,3.27-4.12,1.09-8.31,2-12.5,2.8-2.65.51-5.3,1-7.93,1.59-4.58,1.18-9.19,2.27-13.72,3.58-.53.15-1.06.32-1.58.48-1,.33-2,.69-2.93,1.07a.63.63,0,0,1-.54,0c-8.54,2.56-17.09,5.24-25.77,7.29a388.92,388.92,0,0,1-61.9,9.58c-15.18,1.07-31.22.79-45.83-4-4.79-1.56-19.34-6.47-15-13.36,0,0,0,0,0-.06,11.63-19.31,38.35-9.62,55.85-5.72a81.68,81.68,0,0,0,22,2.12c8.84-.51,17.42-2.85,26-4.93,7.54-1.83,15.07-3.77,22.6-5.75l-3.65.49c-13.49,1.82-27,4.93-40.64,5.85s-26.6-1.41-39.73-4.72c-6.95-1.74-13.85-3.76-21.15-3-3.44.34-7.35,1-10.32,2.89-2,1.26-3.8,2.81-6.18,3.3a.71.71,0,0,1-.87-.84,14.59,14.59,0,0,1,1-2.66.67.67,0,0,1,.86-.28c4-5.45,11.42-8,18.24-8a35.74,35.74,0,0,1,13.8,2.94c5.54,2.23,10.75,4.29,16.61,5.45,18.41,3.67,36.12,1.24,53.69-3.09C304,778,291.58,779.67,279,777.7a138.35,138.35,0,0,1-22.76-5.8c-7-2.39-14.18-5-21.61-5.74-7.1-.74-14.84,0-20.85,4-3.29,2.23-6.34,5.29-7.63,9-.62,1.79-1.13,3.55-2.58,4.91a.73.73,0,0,1-1.11-.13h0a16.34,16.34,0,0,0,3.89,9.58,12.34,12.34,0,0,0-1.45,6.29c.32,9.91,15,14.2,22.62,16.56,29.79,9.29,59.68,6.45,89.55-.59,16.21-3.79,32.56-7.75,48.51-12.42,15.44-4.5,30.23-10.86,45.91-14.69,8.26-2,24.12-2,27-12.18,2.17-7.61-4.77-15.21-11.49-20.75-6.16-24.67-13.72-49.46-17.2-74.65-2.73-19.9,4.73-35.65,14.69-51.34A126.41,126.41,0,0,1,438,620.41c8.81-5.35,18.37-9.37,27.24-14.61a139.5,139.5,0,0,0,42.23-38.54C529.34,536.75,532.87,503.75,514.28,471.28Z"/><path class="cls-4" d="M321.9,780.85c-20.62,6-42.26,6.9-54,4.6-10.43-2.05-20.31-5.88-31-6.83-9.59-.86-22.59,3-28.33,11.38,1.45-5.93,4-11.3,9-15.38,8.43-6.8,19.77-2.67,28.61.86a93.54,93.54,0,0,0,54.08,3.93c29.51-7,.23-.86-.17-.78a92.6,92.6,0,0,1-41.39-1.13c-9.27-2.43-18.35-8.83-28.2-8.78-14.1.07-22.56,12.12-23.92,24.74a.45.45,0,0,0,0,.26,16.43,16.43,0,0,0-1,4.42c0,.13.18.21.23.08,7.31-18.21,28-18.5,44.83-14.36,8.77,2.17,17.25,4.9,26.34,5.52,8.35.59,18.4-1.82,26.49-3.83C304.17,785.4,322.43,780.7,321.9,780.85Z"/><path class="cls-5" d="M355.7,772.78c-14.36,2.73-28.54,6.72-42.67,10.31-16,4.07-30.71,8.31-47.39,5.47-15.73-2.7-49.3-15.33-56.25,7.8-.07.23.29.37.43.18,8.29-10.15,18-11,30.58-9.13,12.75,2,24.79,6.62,37.84,6.28,12.11-.32,24.14-5.11,35.61-8.39,14-4,27.82-8.61,42-11.68C367.24,771.17,356.2,772.68,355.7,772.78Z"/><path class="cls-5" d="M381.1,757.3C361.35,762.53,336,768.66,320.7,771c-17.37,2.61-34.05,2.6-51.19-.94-12.62-2.59-26.8-10.86-39.91-10.68-10.68.15-21.4,9.32-23.94,15.76-.1.3.18.54.41.31,9.63-9.91,20.42-13.16,34.18-10.63,6,1.1,11.8,3.35,17.66,5a140.27,140.27,0,0,0,23.3,4.25,166.68,166.68,0,0,0,42.33-1.36c14.74-2.25,29.12-7.25,43.6-10.68C367.62,761.87,381.51,757.19,381.1,757.3Z"/><path class="cls-5" d="M306.13,778.81c-10.88,1.81-20.91,2.73-32,1.86s-21.82-3.79-32.16-7.43c-12.78-4.47-23.59-1.76-31.05,9.65a.16.16,0,0,0,.24.2c5.92-5.92,11.31-10.54,20.35-9.65,8.26.82,16.31,5.06,24.43,6.9,16.56,3.72,33.82,2.61,50.33-.92C306.63,779.34,321.9,776.17,306.13,778.81Z"/><path class="cls-3" d="M513,466.63c-.55-.94-2.22-.1-1.75.87a95.93,95.93,0,0,1,5,12.74c-5.06-9.55-12.6-18-19.23-26.38-8.86-11.21-17-22.86-27.44-32.84-9.91-9.51-22.64-17.12-37-16.79-8.69.19-16.81,3.6-24.57,7.75q6.27-3.74,12.36-7.57c.76-.48.08-1.81-.76-1.4-52.41,25.57-110.37,54.33-138,107.23-6.9,13.21-11.68,28.92-8.13,43.73,3.75,15.58,14.35,33.45,24.91,45.32,12,13.46,22.56,22.17,34.76,35.46,8.15,8.87,17.28,17.9,26.12,26.57,5.66,9.32,11.11,18.62,15.31,28.74A250.19,250.19,0,0,1,391.3,752.6a397.44,397.44,0,0,1-59.75,15.71c-22.78,4.21-47.16,7.09-69.58-.37-8.56-2.85-16.25-7.38-25.21-9.09-7.87-1.51-15.67.87-22.18,5.08a27.27,27.27,0,0,0-12,17.6c-.82,4.53,1,8.57,3.73,12.06a12.34,12.34,0,0,0-1.45,6.29c.32,9.91,15,14.2,22.62,16.56,29.79,9.29,59.68,6.45,89.55-.59,16.21-3.79,32.56-7.75,48.51-12.42,15.44-4.5,30.23-10.86,45.91-14.69,8.26-2,24.12-2,27-12.18,2.17-7.61-4.77-15.21-11.49-20.75-6.16-24.67-13.72-49.46-17.2-74.65-2.73-19.9,4.73-35.65,14.69-51.34A126.41,126.41,0,0,1,438,620.41c8.81-5.35,18.37-9.37,27.24-14.61a139.5,139.5,0,0,0,42.23-38.54C529.34,536.75,531.55,499.1,513,466.63Z"/><path class="cls-2" d="M233.9,641c-1-2.53-3.92-7.06-7.27-6.56-3.59.53-5.81,3.7-7.19,7.48l-.08-.08a31,31,0,0,0-4.48-3.06,81.18,81.18,0,0,1,1-11.88c1-6.34,1.27-12.86-1.51-18.81-2.09-4.49-5.85-7.84-8.78-11.75-5.35-7.23.45-17.5,3.26-24.68,5.14-13.17,2.53-26.1-.86-39.41a232.12,232.12,0,0,0-8.28-25.77c-.75-15.46-4.45-30.67-8.21-45.61-4.9-19.47-9-39-12.69-58.76-2.68-14.42-8.73-45.37-29.5-40.7a.53.53,0,0,0-.7.2,197.46,197.46,0,0,0-31.31,72.56c-5.52,26.6-8.79,56.95,1,82.91,9,24,30.72,36.12,47.16,54.31,3.79,4.21,8.18,7.81,11.8,12.23,4.37,5.32,4.4,12.52,4,19,0,.64-.11,1.26-.16,1.9-4,9.6-8.53,19-12.26,28.71-3.39,8.84-6.1,16.88-2.4,26,2.71,6.6,9.07,13.63,16.17,15.51,5.26,1.38,9.25.13,12.41-2.91a41.56,41.56,0,0,0,4.09,2.5c6.88,3.59,14.54,1.31,17-4.87a19.32,19.32,0,0,0,4,1.89c9.66,3.19,14.15-7.59,15.23-15.1A30.52,30.52,0,0,0,233.9,641Z"/><path class="cls-3" d="M233.9,641c-1-2.53-3.92-7.06-7.27-6.56-3.59.53-5.81,3.7-7.19,7.48l-.08-.08a31,31,0,0,0-4.48-3.06,81.18,81.18,0,0,1,1-11.88c1-6.34,1.27-12.86-1.51-18.81-2.09-4.49-5.85-7.84-8.78-11.75-5.35-7.23.45-17.5,3.26-24.68,5.14-13.17,2.53-26.1-.86-39.41a232.12,232.12,0,0,0-8.28-25.77c-.75-15.46-4.45-30.67-8.21-45.61-4.9-19.47-9-39-12.69-58.76-2.68-14.42-8.73-45.37-29.5-40.7a.53.53,0,0,0-.7.2A207.29,207.29,0,0,0,129.9,395c.56,3.64-.82,8-1.43,11.29a102.25,102.25,0,0,0,.17,34.77c1.72,10.15,4,20.72,8.3,30.13a109.77,109.77,0,0,0,12.17,20.15c17.6,23.55,45.6,46.06,47,77.73.2,4.78-.34,9.56,0,14.36a68.7,68.7,0,0,0,2,11.83c2,8,7.32,10,7.45,17.63,2.18,4.06-.59,11.11-1.15,15-1.51,10.77,7.93,19.31,10.28,29.25.15.6-.52,1.25-1.08.86-3.94-2.89-6-7.36-9.47-10.67.07,4,2.54,11.13-.54,13.28-1.41,2.43-4.09,4-7.85,3.53-7.61-.92-11.88-8.34-14.84-15.1,1.12,7.69,1.82,20.33-6,16.06-5.29-2.88-7.84-8.92-9.07-15.23a8.37,8.37,0,0,1-1.17-1.14,23.81,23.81,0,0,0,1.71,10.49c2.71,6.6,9.07,13.63,16.17,15.51,5.26,1.38,9.25.13,12.41-2.91a41.56,41.56,0,0,0,4.09,2.5c6.88,3.59,14.54,1.31,17-4.87a19.32,19.32,0,0,0,4,1.89c9.66,3.19,14.15-7.59,15.23-15.1A30.52,30.52,0,0,0,233.9,641Z"/><path class="cls-2" d="M894.1,789a37.35,37.35,0,0,0-6.9-3.28c-20.24-12.13-43.56-15.94-66.89-16.52-28.73-.71-57.48.72-86.22,1.17-22.65.34-44.45,0-65.51-9.34a71.14,71.14,0,0,1-19.07-12.19c-6.25-11.68-5.29-25.7-5.31-39.52,0-42.48,2-85,.52-127.42-1.29-38.88-5.55-77.67-18.79-114.43a277,277,0,0,0-23-48c-3.86-6.48-8-13.16-12.46-19.64-6.72-11.11-14-21.9-21.66-32.27-11.27-15.18-24.48-28.79-37.43-42.51C520,313,507.52,301.34,492,294.89c-16-6.68-34.87-4.31-51.23-.56-18.62,4.24-35.78,13.06-53.85,19-5.79,1.89-11.65,3.51-17.58,4.93-6.86-1.81-13.67-3.85-20.4-6.3-17.39-6.26-33.84-15.12-49.22-25.27-23.68-15.68-44.55-36.09-57.68-61.06-.06-.38-.15-.76-.21-1.12-1.56-7.46-3.12-20.85-11.11-24.63-15.5-7.31-34.51-3.72-49.4,3.28s-28.1,19.62-30.48,36.43c-1.38,9.88,2.55,19.85,6.08,28.88,4.34,11.07,8.18,21.57,7.25,33.37A87.33,87.33,0,0,1,150.74,327a.84.84,0,0,0,0,1,59,59,0,0,0-5.22,7.3c-.23.38.34.84.67.56,1.2-1,2.38-2,3.55-3a100.55,100.55,0,0,0-12.83,28.86,26.12,26.12,0,0,0-2.8,10.57c0,.47.64.41.76,0A34.37,34.37,0,0,1,146.14,356a59,59,0,0,0-9.52,14.71c-6.35,14.27-7,31.65-4.43,46.93a31.63,31.63,0,0,0-.33,4.85c0,.76,1.08.72,1.26.07a55.77,55.77,0,0,1,3.44-10c-4.83,25.21,2.28,50.5,20.84,70.29,10.33,11,23.87,19.14,37.13,26.13a62.08,62.08,0,0,0,16.63,6c.73,1.09,1.45,2.19,2.19,3.27,22.51,32.74,36.81,72.32,71.64,94.8,20.69,13.36,45,19.24,69.32,20.61a141.89,141.89,0,0,0,41.27-4,203.52,203.52,0,0,0,26.47-8.12c22.05-6.11,43.74-13.51,66.07-18.58a287.92,287.92,0,0,1,36.32-5.85c39.13,32.33,40.65,97.23,61,142,36.31,79.86,112.33,62.68,183,51.62a411.93,411.93,0,0,1,62.44-5.31,187.16,187.16,0,0,1,31.9,2.51c9.59,1.66,19,6,28.62,6.95C894.33,795.21,897.24,791,894.1,789Z"/><path class="cls-3" d="M849.54,777.7c-23.24-3.91-46.85-1.94-70.17.28-22,2.1-43.79,3.81-65.88,3-13.85-.53-28.29-2-41.14-7.43a55.07,55.07,0,0,1-6.15-1.61c-12.22-4-22.74-12.72-30.35-22.95-17.91-24.06-23.25-56.09-25.39-85.29-1.64-22.3-1.85-44.71-3-67-1.14-22.75-1.15-45.69-4.79-68.21-3.5-21.83-11.48-42.12-20-62.4-7.91-18.91-17.16-37.19-29.71-53.4-13.2-12-29.79-20-47.33-24.43a374.13,374.13,0,0,1-80.4,30c-8.69,2.14-17.5,4-26.31,5.46-6.34,1-13.59,2.08-19.75-.46a21.17,21.17,0,0,1-12.07-14,93.58,93.58,0,0,1-2.07-10.65c-5.87.84-11.77,1.58-17.68,2.09-23.55,2-48.33,2.83-71.47-2.81-9.81-2.38-20.19-6.09-27.49-13.41a29.45,29.45,0,0,1-8.58-19.67c-7.84,32.34-3.86,67.53-20,97.57-.43.81-1.5.21-1.37-.57.66-4,1.17-8,.42-12-5.46,8.89-11.85,18.62-22.81,20.71-13.89,2.64-26.36-3.77-36.22-13.15-10.24-9.76-17.95-21.36-20.31-35.52A76.3,76.3,0,0,1,142,386.81a102.93,102.93,0,0,0-10.61,24.91c.21,2,.49,4,.82,5.93a31.63,31.63,0,0,0-.33,4.85c0,.76,1.08.72,1.26.07a55.77,55.77,0,0,1,3.44-10c-4.83,25.21,2.28,50.5,20.84,70.29,10.33,11,23.87,19.14,37.13,26.13a62.08,62.08,0,0,0,16.63,6c.73,1.09,1.45,2.19,2.19,3.27,22.51,32.74,36.81,72.32,71.64,94.8,20.69,13.36,45,19.24,69.32,20.61a141.89,141.89,0,0,0,41.27-4,203.52,203.52,0,0,0,26.47-8.12c22.05-6.11,43.74-13.51,66.07-18.58a287.92,287.92,0,0,1,36.32-5.85c39.13,32.33,40.65,97.23,61,142,36.31,79.86,112.33,62.68,183,51.62a411.93,411.93,0,0,1,62.44-5.31,187.16,187.16,0,0,1,31.9,2.51c9.59,1.66,19,6,28.62,6.95a3.08,3.08,0,0,0,1.61-.28A110.94,110.94,0,0,0,849.54,777.7Z"/><path class="cls-3" d="M164.2,301.82a79.17,79.17,0,0,1-4.46,10.66c10.85-8.15,22.93-14.52,34.73-21.19A210.81,210.81,0,0,0,230.64,266c7-6.13,17.2-15.2,20.73-25.25a145,145,0,0,1-9.3-15.15c-.06-.38-.15-.76-.21-1.12-1.56-7.46-3.12-20.85-11.11-24.63-15.5-7.31-34.51-3.72-49.4,3.28s-28.1,19.62-30.48,36.43c-1.38,9.88,2.55,19.85,6.08,28.88C161.29,279.52,165.13,290,164.2,301.82Z"/><path class="cls-6" d="M876.8,788.9c-15.69-5.63-32.81-6.87-49.4-7-26.78-.32-53.5,2.35-80.23,3.67-25.33,1.25-51.47,1.89-76.3-4.06-22-5.28-42.3-16.61-54.92-36-7.43-11.38-12.09-24.36-14.77-37.64-4.59-22.55-6.75-45.49-8.17-68.43-1.46-24-2.15-48-4.11-71.92a557.18,557.18,0,0,0-10.3-71,221.08,221.08,0,0,0-14.08-44.37c-3.21-7.11-7-14.67-11.82-21.27a109.82,109.82,0,0,0-49.56-14.51c-30.63-1.49-60.93,7-89.24,18-16.58,6.41-32.75,13.77-48.78,21.4-15.69,7.44-31.47,16.63-48.79,19.5-16.24,2.67-31.78-1.18-44.5-11.78C258.08,452,248.6,435.85,242,419.38a187.89,187.89,0,0,1-12.7-54.06,177.92,177.92,0,0,1-.43-27.12c.69-10.58,2.39-21.08,3.11-31.66,1.5-22.57,2.35-46.8-5.09-68.46-5-14.45-12.33-27.94-17.75-42.2a74.76,74.76,0,0,0-27.76,7.26c-14.79,7-28.1,19.62-30.48,36.43-1.38,9.88,2.55,19.85,6.08,28.88,4.34,11.07,8.18,21.57,7.25,33.37A87.33,87.33,0,0,1,150.74,327a.84.84,0,0,0,0,1,59,59,0,0,0-5.22,7.3c-.23.38.34.84.67.56,1.2-1,2.38-2,3.55-3a100.55,100.55,0,0,0-12.83,28.86,26.12,26.12,0,0,0-2.8,10.57c0,.47.64.41.76,0A34.37,34.37,0,0,1,146.14,356a59,59,0,0,0-9.52,14.71c-6.35,14.27-7,31.65-4.43,46.93a31.63,31.63,0,0,0-.33,4.85c0,.76,1.08.72,1.26.07a55.77,55.77,0,0,1,3.44-10c-4.83,25.21,2.28,50.5,20.84,70.29,10.33,11,23.87,19.14,37.13,26.13a62.08,62.08,0,0,0,16.63,6c.73,1.09,1.45,2.19,2.19,3.27,22.51,32.74,36.81,72.32,71.64,94.8,20.69,13.36,45,19.24,69.32,20.61a141.89,141.89,0,0,0,41.27-4,203.52,203.52,0,0,0,26.47-8.12c22.05-6.11,43.74-13.51,66.07-18.58a287.92,287.92,0,0,1,36.32-5.85c39.13,32.33,40.65,97.23,61,142,36.31,79.86,112.33,62.68,183,51.62a411.93,411.93,0,0,1,62.44-5.31,187.16,187.16,0,0,1,31.9,2.51c9.16,1.58,18.2,5.59,27.32,6.77A108.4,108.4,0,0,0,876.8,788.9Z"/><path class="cls-7" d="M164.2,301.82a79.17,79.17,0,0,1-4.46,10.66c10.85-8.15,22.93-14.52,34.73-21.19A210.81,210.81,0,0,0,230.64,266c.52-.44,1.05-.93,1.61-1.41a112.63,112.63,0,0,0-5.39-26.52c-5-14.45-12.33-27.94-17.75-42.2a74.76,74.76,0,0,0-27.76,7.26c-14.79,7-28.1,19.62-30.48,36.43-1.38,9.88,2.55,19.85,6.08,28.88C161.29,279.52,165.13,290,164.2,301.82Z"/><path class="cls-7" d="M876.8,788.9c-15.69-5.63-32.81-6.87-49.4-7-26.78-.32-53.5,2.35-80.23,3.67-25.33,1.25-51.47,1.89-76.3-4.06-22-5.28-42.3-16.61-54.92-36-7.43-11.38-12.09-24.36-14.77-37.64-4.59-22.55-6.75-45.49-8.17-68.43-1.46-24-2.15-48-4.11-71.92a557.18,557.18,0,0,0-10.3-71,221.08,221.08,0,0,0-14.08-44.37c-3.21-7.11-7-14.67-11.82-21.27a109.82,109.82,0,0,0-49.56-14.51c-30.63-1.49-60.93,7-89.24,18-16.58,6.41-32.75,13.77-48.78,21.4-15.69,7.44-31.47,16.63-48.79,19.5-16.24,2.67-31.78-1.18-44.5-11.78C258.08,452,248.6,435.85,242,419.38a184.21,184.21,0,0,1-7.15-21.74c-2.34,22.28-4.14,44.64-14.93,64.7-.43.81-1.5.21-1.37-.57.66-4,1.17-8,.42-12-5.46,8.89-11.85,18.62-22.81,20.71-13.89,2.64-26.36-3.77-36.22-13.15-10.24-9.76-17.95-21.36-20.31-35.52A76.3,76.3,0,0,1,142,386.81a102.93,102.93,0,0,0-10.61,24.91c.21,2,.49,4,.82,5.93a31.63,31.63,0,0,0-.33,4.85c0,.76,1.08.72,1.26.07a55.77,55.77,0,0,1,3.44-10c-4.83,25.21,2.28,50.5,20.84,70.29,10.33,11,23.87,19.14,37.13,26.13a62.08,62.08,0,0,0,16.63,6c.73,1.09,1.45,2.19,2.19,3.27,22.51,32.74,36.81,72.32,71.64,94.8,20.69,13.36,45,19.24,69.32,20.61a141.89,141.89,0,0,0,41.27-4,203.52,203.52,0,0,0,26.47-8.12c22.05-6.11,43.74-13.51,66.07-18.58a287.92,287.92,0,0,1,36.32-5.85c39.13,32.33,40.65,97.23,61,142,36.31,79.86,112.33,62.68,183,51.62a411.93,411.93,0,0,1,62.44-5.31,187.16,187.16,0,0,1,31.9,2.51c9.16,1.58,18.2,5.59,27.32,6.77A108.4,108.4,0,0,0,876.8,788.9Z"/><path class="cls-7" d="M585.8,733.31c-2.22-8.95-4-18-5.64-27.08-1.82-10-4-19.78-6.39-29.66-2.61-11-5-22.08-5.49-33.37a67.68,67.68,0,0,1,5.05-27.3c4.48-11.57,10.79-22.28,16.64-33.19q-.47-7.62-1.07-15.2a557.18,557.18,0,0,0-10.3-71,221.08,221.08,0,0,0-14.08-44.37c-3.21-7.11-7-14.67-11.82-21.27a109.82,109.82,0,0,0-49.56-14.51c-30.63-1.49-60.93,7-89.24,18-16.58,6.41-32.75,13.77-48.78,21.4-15.69,7.44-31.47,16.63-48.79,19.5-16.24,2.67-31.78-1.18-44.5-11.78C258.08,452,248.6,435.85,242,419.38a184.21,184.21,0,0,1-7.15-21.74c0,.1,0,.21,0,.31a79.67,79.67,0,0,1,.87,10.32c0,11.52.79,23.37,4.46,34.34,3.18,9.51,8.33,17.76,14.11,25.88,4.7,6.6,8.12,13.39,5.11,21.49-2.58,6.87-9.43,11.95-15.9,14.79-30.37,13.36-61.2-2.78-85.95-21.82,10.34,11,23.83,19.08,37,26a62.08,62.08,0,0,0,16.63,6c.73,1.09,1.45,2.19,2.19,3.27,6,8.66,11.32,17.8,16.66,27-1.87-5.92-3-12.59-.39-18.32,5.25-11.69,20.88-13.21,32.06-12.44,14,1,27.49,6.5,39.71,13.14,14.56,7.89,28.5,18,39.14,30.8,9.13,11,17.26,25.37,15.75,40.18-1.7,16.53-20.79,22.56-34.58,25.1a89,89,0,0,1-12.21,1.37,160.39,160.39,0,0,0,44.82,8.61,141.89,141.89,0,0,0,41.27-4,203.52,203.52,0,0,0,26.47-8.12c22.05-6.11,43.74-13.51,66.07-18.58a287.92,287.92,0,0,1,36.32-5.85c39.13,32.33,40.65,97.23,61,142,1.51,3.34,3.1,6.48,4.75,9.48C588.51,743.58,587.06,738.42,585.8,733.31Z"/><path class="cls-2" d="M605.68,452.43c-.57-1-2.33-.13-1.86.94a106.65,106.65,0,0,1,5.26,13.9c-5.37-10.42-13.32-19.67-20.36-28.82-9.38-12.25-18-25-29-35.92-10.49-10.4-24-18.73-39.13-18.35-9.18.21-17.8,3.93-26,8.48q6.58-4.1,13.05-8.27c.81-.54.09-2-.8-1.54-55.44,27.95-116.8,59.41-146,117.25-7.29,14.45-12.35,31.62-8.59,47.8,4,17,15.18,36.58,26.36,49.55,12.72,14.74,23.9,24.25,36.81,38.78,8.61,9.69,18.28,19.57,27.63,29,6,10.19,11.75,20.38,16.22,31.42a282.53,282.53,0,0,1,17.66,68.39,406.12,406.12,0,0,1-63.23,17.17c-24.09,4.61-49.95,7.76-73.64-.39-9.06-3.12-17.21-8.08-26.71-9.94-8.3-1.66-16.58,1-23.46,5.55a29.76,29.76,0,0,0-12.67,19.23c-.87,5,1.07,9.38,4,13.19a13.54,13.54,0,0,0-1.55,6.89c.33,10.83,15.89,15.53,23.95,18.12,31.51,10.14,63.16,7,94.8-.65,17.13-4.16,34.43-8.48,51.32-13.58,16.35-4.93,32-11.88,48.57-16.07,8.74-2.2,25.54-2.23,28.62-13.32,2.3-8.32-5.05-16.63-12.15-22.68-6.55-27-14.52-54.08-18.21-81.65-2.9-21.74,5-39,15.53-56.12a136.25,136.25,0,0,1,14.28-10.29c9.34-5.83,19.44-10.23,28.84-16a149.44,149.44,0,0,0,44.68-42.13C623,529.09,625.35,487.91,605.68,452.43Z"/><path class="cls-3" d="M607.06,457.49c-.57-1-3.71-5.19-3.24-4.12a106.65,106.65,0,0,1,5.26,13.9,105.45,105.45,0,0,0-9.28-14.51c4.4,18.08,5.16,36.58-2,54.26-7.65,18.77-22.48,34.11-38.52,46.09a150.52,150.52,0,0,1-37.44,20.74c-26.64,10-57.15,14.63-85.26,8.74-12.82-2.66-25.44-7.65-35.53-16.17-12.16-10.25-20.05-25.2-23.75-40.55-5.9-24.42,1-46.88,13.23-67a170.13,170.13,0,0,0-29.67,41.21c-7.29,14.45-12.35,31.62-8.59,47.8,4,17,15.18,36.58,26.36,49.55,12.72,14.74,23.9,24.25,36.81,38.78,8.61,9.69,18.28,19.57,27.63,29,6,10.19,11.75,20.38,16.22,31.42a282.53,282.53,0,0,1,17.66,68.39c-4.35,1.58-8.69,3-13.06,4.46,2.28-.58,4.58-1.17,6.87-1.78,2.67-.69,5.53-1.48,8.28-.75,2.33.62,3.88,3.41,5.51,5,5.68,5.41,14.4,2.72,21.35,5,4.31,1.4,8.83,4.34,8.73,9.45-.2,10.06-15.3,6.9-21.62,8.12-3.78.72-7.38,2.56-11.11,3.58-4.38,1.18-8.81,2.15-13.25,3-2.81.57-5.6,1.15-8.38,1.76-4.85,1.3-9.71,2.46-14.52,3.91l-1.66.52c-1,.37-2.08.74-3.09,1.17a.64.64,0,0,1-.58,0c-9.05,2.83-18.09,5.75-27.26,8a397.7,397.7,0,0,1-65.53,10.46c-16.1,1.16-33.07.88-48.52-4.31-5.08-1.72-20.46-7.1-15.84-14.64v-.07c12.32-21.11,40.6-10.5,59.16-6.24a82.63,82.63,0,0,0,23.3,2.32c9.36-.56,18.44-3.11,27.5-5.38q12-3,23.89-6.31c-1.3.2-2.56.36-3.85.54-14.29,2-28.62,5.39-43,6.4s-28.15-1.53-42.07-5.16c-7.36-1.91-14.68-4.1-22.38-3.27-3.63.37-7.77,1.15-10.91,3.15-2.14,1.38-4,3.07-6.54,3.62a.76.76,0,0,1-.91-.92,13.73,13.73,0,0,1,1.07-2.91.64.64,0,0,1,.89-.3c4.27-6,12.08-8.74,19.29-8.79a36.76,36.76,0,0,1,14.62,3.21c5.84,2.43,11.36,4.7,17.59,6,19.47,4,38.23,1.33,56.83-3.39-13.11,2.43-26.31,4.26-39.64,2.11A142.89,142.89,0,0,1,334,786.19c-7.43-2.61-15-5.44-22.89-6.27-7.5-.79-15.7,0-22.06,4.4-3.48,2.45-6.72,5.8-8.08,9.91-.66,2-1.2,3.88-2.73,5.35a.75.75,0,0,1-1.17-.14s0,0,0,0a18,18,0,0,0,4.14,10.48,13.54,13.54,0,0,0-1.55,6.89c.33,10.83,15.89,15.53,23.95,18.12,31.51,10.14,63.16,7,94.8-.65,17.13-4.16,34.43-8.48,51.32-13.58,16.35-4.93,32-11.88,48.57-16.07,8.74-2.2,25.54-2.23,28.62-13.32,2.3-8.32-5.05-16.63-12.15-22.68-6.55-27-14.52-54.08-18.21-81.65-2.9-21.74,5-39,15.53-56.12a136.25,136.25,0,0,1,14.28-10.29c9.34-5.83,19.44-10.23,28.84-16a149.44,149.44,0,0,0,44.68-42.13C623,529.09,626.72,493,607.06,457.49Z"/><path class="cls-4" d="M403.45,796c-18.77,5.62-39.33,8.62-57.13,5-11.06-2.23-21.49-6.42-32.82-7.46-10.15-.93-23.91,3.31-30,12.44,1.56-6.47,4.25-12.35,9.58-16.81,8.9-7.44,20.93-2.94,30.27.92a96.19,96.19,0,0,0,57.27,4.31c31.22-7.69.23-.94-.2-.84a94.94,94.94,0,0,1-43.81-1.27c-9.81-2.64-19.43-9.64-29.84-9.57-14.92.06-23.88,13.22-25.33,27a.52.52,0,0,0,0,.28,17.3,17.3,0,0,0-1,4.83c0,.15.2.23.24.09,7.76-19.9,29.67-20.23,47.45-15.7,9.28,2.37,18.25,5.36,27.88,6.05,8.84.62,19.47-2,28-4.21C384.71,801,404,795.82,403.45,796Z"/><path class="cls-5" d="M388.72,799.83c-14.92,3.94-29,7.36-44.82,4.59-16.64-2.93-52.17-16.78-59.53,8.52-.08.27.3.4.44.2,8.78-11.09,19.1-12.08,32.37-10C346.83,807.85,360.57,812.06,388.72,799.83Z"/><path class="cls-5" d="M466.1,770.22c-20.86,5.72-47.68,12.44-63.9,14.95-18.39,2.85-36.06,2.83-54.2-1-13.35-2.84-28.37-11.89-42.25-11.68-11.31.15-22.61,10.19-25.31,17.22-.13.33.18.59.41.35C291,779.21,302.48,775.64,317,778.4c6.38,1.22,12.49,3.68,18.7,5.49a144.61,144.61,0,0,0,24.67,4.64,170.8,170.8,0,0,0,44.82-1.5c15.59-2.46,30.81-7.9,46.12-11.67C451.82,775.25,466.55,770.1,466.1,770.22Z"/><path class="cls-5" d="M386.77,793.74c-11.52,2-22.13,3-33.88,2s-23.12-4.16-34.05-8.1c-13.52-4.92-25-2-32.86,10.53a.16.16,0,0,0,.26.2c6.28-6.48,12-11.52,21.54-10.53,8.73.9,17.26,5.53,25.85,7.52,17.54,4.08,35.82,2.88,53.29-1C387.31,794.34,403.45,790.88,386.77,793.74Z"/><path class="cls-8" d="M515.61,398.59a82.82,82.82,0,0,0-14.45.64c-5.49,1.84-10.88,4-16,6.25a377.57,377.57,0,0,0-45.37,23.94c-15.81,9.62-31.14,21-42.61,35.67-10.45,13.39-18.33,30.43-16.78,47.78,2.92,33.23,38.42,50.81,68.29,52.72,33.8,2.15,69-14.83,93.22-37.55,24.9-23.39,47.87-64.66,27.5-97.75A68.25,68.25,0,0,0,515.61,398.59Z"/><path class="cls-2" d="M362.16,381.7a69.45,69.45,0,0,0-8.77-26.42,212.73,212.73,0,0,0-17.09-24.16,71.52,71.52,0,0,0-20.55-17.81c-15.8-8.94-35-17.41-53.58-15.22C249.37,299.62,239,307,234,318.88a53.36,53.36,0,0,0-3.29,11.32,1.42,1.42,0,0,0-1.15,1c-2.91,11.21-2.25,24.18-1.76,35.68A218.47,218.47,0,0,0,233,404c2.79,12.65,5.6,25.42,11.26,37.13,5.07,10.48,13.69,18.11,20.88,27,17.9,22.14,1.22,56.08-8.2,78.42-5.06,12-9.76,23.92-12.86,36.61-.4,1.64-.78,3.28-1.1,4.93-6.41,15.64-11,32.91-9.53,49.16A68.9,68.9,0,0,0,241.78,664c3.78,6.9,8.34,8.8,15.28,8.33,7.21,6.47,18.9,5.77,24-3a14.28,14.28,0,0,0,8.51,2.63c6.81,0,11.47-7.9,13.89-13.21a29.3,29.3,0,0,0,1.89-5.29c1.91-3.82,3-8.14,2.09-11.8-.63-2.61-3.31-6.16-6.46-5.57a7.73,7.73,0,0,0-3,1.3,63.44,63.44,0,0,0-2.3-8.32c-1.92-5.42-5.88-9.91-10-13.79-5-4.73-9.47-8.34-12.77-13.5,8.13-37.16,38.94-67.23,64.64-93.93,7.55-7.82,15.37-16,20.23-25.83,4.62-9.29,5.57-20.3,6.44-30.44C366.19,429,367.57,404.21,362.16,381.7Z"/><path class="cls-8" d="M339.32,356.82c-11.37-28.61-43.25-39.09-73.06-48.15a20.4,20.4,0,0,0-13.49,10.17c-5.54,9.75-6.33,21.79-6.06,32.75a166.21,166.21,0,0,0,16.86,69.48c8.46,17.21,19.29,34.8,34.85,46.48,6.23,4.65,14.33,10.22,22.61,8.58,6.29-1.25,10.73-6,13.46-11.59,6.77-13.7,12.39-30.27,10.78-45.06C343.51,403,345.45,372.27,339.32,356.82Z"/><path class="cls-3" d="M362.16,381.7a69.45,69.45,0,0,0-8.77-26.42,212.73,212.73,0,0,0-17.09-24.16l-.12-.13a160.29,160.29,0,0,1,8,20.9c7.38,24.75,6.41,51.24,4.68,76.76-1.29,18.85-.83,39.05-9.49,56.4-4.52,9.06-11.57,16.07-18.23,23.58-7.36,8.28-14.67,16.65-21.28,25.55-5.7,7.71-11.68,15.89-15.53,24.73-2.77,6.38-5.07,12.94-7.79,19.33-2.77,6.59-5.68,13.29-9.77,19.19-2.52,3.65-5.54,7.36-9.62,9.24,19,8,28.89,29.13,26.25,49.2a.74.74,0,0,1-.94.72c-4.72-1.66-7.76-6.69-10.14-10.8-2.61-4.48-4.75-9.26-7.36-13.75.67,6,2.68,12,3.35,18,.46,4.16,1.45,12.7-4.42,13.61-7,1-11.25-7.5-13.51-12.62a91.3,91.3,0,0,1-4.74-14.7c.95,10.28,3.84,20.43,2.74,30.77a.76.76,0,0,1-1.13.64,18.47,18.47,0,0,1-5.35-3.5c3.77,6.75,8.3,8.62,15.19,8.15,7.21,6.47,18.9,5.77,24-3a14.28,14.28,0,0,0,8.51,2.63c6.81,0,11.47-7.9,13.89-13.21a29.3,29.3,0,0,0,1.89-5.29c1.91-3.82,3-8.14,2.09-11.8-.63-2.61-3.31-6.16-6.46-5.57a7.73,7.73,0,0,0-3,1.3,63.44,63.44,0,0,0-2.3-8.32c-1.92-5.42-5.88-9.91-10-13.79-5-4.73-9.47-8.34-12.77-13.5,8.13-37.16,38.94-67.23,64.64-93.93,7.55-7.82,15.37-16,20.23-25.83,4.62-9.29,5.57-20.3,6.44-30.44C366.19,429,367.57,404.21,362.16,381.7Z"/><path class="cls-4" d="M509.62,383c-14.29,5.26-28.12,12.7-41.72,19.5a426.52,426.52,0,0,0-38.28,21.56c-24.56,15.6-49.61,35.49-65.06,60.55-13.9,22.56-18.36,47.44-10.11,72.89,9.37,28.92,34.6,51.88,55.14,73.18.46.47,1.14-.33.66-.81-20.16-20.74-41.95-43.5-52.23-71.09-10-26.8-1.91-55.42,14-78,16.37-23.32,40.39-41.14,64.1-56.34,11.47-7.37,23.39-14.09,35.4-20.53,12.75-6.83,18.89-9,31.41-16.23C503.6,387.24,510.36,382.73,509.62,383Z"/><path class="cls-4" d="M603.51,452.65c-.13-.22-.51,0-.39.19,16.37,32.79,14.39,70.42-2.07,102.76-7.27,14.26-18,26.43-30.25,36.59-15.81,13.08-34.69,20.2-52.72,29.46-.79.4-.41,1.65.46,1.32,35.35-12.79,67.31-32,85.47-66a124,124,0,0,0,13.91-50.33C619.07,487.33,612.32,469.41,603.51,452.65Z"/><path class="cls-9" d="M250.14,504.84c-18,16.15-45.65,8.77-64.89-1.35-.13-.07-.25.13-.15.21,16.58,12.28,51,22,65.47,1.61C250.77,505,250.42,504.59,250.14,504.84Z"/><path class="cls-2" d="M261.91,0c-14.19.86-27.18,6.43-40.08,12C210.41,16.86,199,22.06,189.16,29.71a43.78,43.78,0,0,0-16.79,27c-1.73,8.66.46,17.6-.32,26.32a55,55,0,0,1-3.63,14.46,115.77,115.77,0,0,0-15.81-2.27,99.47,99.47,0,0,0-43.28,6.1c-1.79-8.79-4-17.55-5.83-26.24-2.29-11-3.63-23.52-9.35-33.36-5.92-10.17-17-16-27.18-21.25-13.51-7-28.38-11.57-42.68-16.66a1,1,0,0,0-1.36,1.36c-5.34,15.06-5.16,32.84-5.87,48.63C16.4,69,18,83.48,29.52,94.2c8.79,8.16,21.48,12,33.11,13.52,7.16,1,16.43-1.91,20.84,5A21.14,21.14,0,0,1,85.16,116C73,126.68,63.76,140.63,55.81,155c-2.78,1.25-5.54,2.5-8.32,3.73C37.26,163.27,27.3,168,19.12,175.82c-10.27,9.81-13.63,23.4-13.56,37-4.17,27.56,0,55.93,10.22,82.31a182.73,182.73,0,0,0,11.54,23.71c4,7.05,8.47,15.15,15.34,19.79,4.75,3.2,10.65,2.81,16.19.47,5,8.1,17,9.24,26,9.07a107.37,107.37,0,0,0,20.25-2.92c4.45-1,9-1.76,13.23-3.44,9-1.26,15.34-13.16,19.39-20.06,2.44-4.19,4.86-8.36,7.42-12.44,1.53-1.51,3-3.09,4.52-4.68a95.17,95.17,0,0,1,10.19-9.35c2.47-1.89,5-3.73,7.56-5.51s5.29-3.43,8-5c9.89-5.48,20.82-9.07,30.66-14.72a116.94,116.94,0,0,0,27.73-22.63c11.2-9.82,20.73-21.44,24.07-35.82,2.6-11.17.46-23.51-6.61-32.6-5.19-6.65-13-10.58-21-13.14-.76-4.15-1.7-8.17-2.7-12a67.09,67.09,0,0,0-6.8-16.48,42.13,42.13,0,0,0-4.14-10.32c-4.67-7.91-11.69-14.13-19.84-18.93,6.05-8.3,14.5-12.41,26.31-13.87,10.55-1.32,20.66-3.39,26.71-13,6.37-10.17,8-22.28,9.18-34,1.5-14.46,3.49-28.81,5.33-43.24A2.64,2.64,0,0,0,261.91,0Z"/><path class="cls-6" d="M230.21,165.85a2.17,2.17,0,0,1-.07-.33c-8-1.32-16.12-.71-23,4.15-10.68,7.5-13.21,20.48-20.61,30.48-7.67,10.37-18,18.57-28.1,26.48-10.78,8.44-21.92,16.61-34,23.2-8.86,4.84-18.11,9.48-28.44,9.43-10.85-.07-21.28-3.83-32-4-10-.13-19.82,2.47-29.79,2.39-6.67-.05-13.59-1.15-18.51-6.08C7,242.86,6.1,228.73,6.51,217.11A197.41,197.41,0,0,1,9.7,189.66a59.45,59.45,0,0,0-4.14,23.18c-4.17,27.56,0,55.93,10.22,82.31a182.73,182.73,0,0,0,11.54,23.71c4,7.05,8.47,15.15,15.34,19.79,4.75,3.2,10.65,2.81,16.19.47,5,8.1,17,9.24,26,9.07a107.37,107.37,0,0,0,20.25-2.92c4.45-1,9-1.76,13.23-3.44,9-1.26,15.34-13.16,19.39-20.06,2.44-4.19,4.86-8.36,7.42-12.44,1.53-1.51,3-3.09,4.52-4.68a95.17,95.17,0,0,1,10.19-9.35c2.47-1.89,5-3.73,7.56-5.51s5.29-3.43,8-5c9.89-5.48,20.82-9.07,30.66-14.72a116.94,116.94,0,0,0,27.73-22.63c11.2-9.82,20.73-21.44,24.07-35.82,2.6-11.17.46-23.51-6.61-32.6C246,172.34,238.19,168.41,230.21,165.85Z"/><path class="cls-7" d="M257.06,190.23a45.72,45.72,0,0,1-3.67,15.2c-5.5,13-14.92,23.1-25.52,32.12a123,123,0,0,1-11.93,9.25c-2.44,1.6-6.72,4.77-9.94,3.8-3.51-1-2.33-5-.9-7.3,1.9-3.07,4.12-5.71,4.81-9.36a59.11,59.11,0,0,0,.78-11.51c-5.21,9-12.13,15.58-22.93,17.64-9.08,1.74-18.37.6-20.74-9.16-6.57,8.6,7.15,14.4,10.41,21.56,4.07,9-2.52,17-10.41,20.38-10.82,4.65-22.62,5.67-30.51,15.5-5.39,6.7-9.25,18.37-18.08,21.44a9.05,9.05,0,0,1-11.75-6.41c-1.84-6.88.2-14-.23-20.93-1-15.89-23.33-18.84-35.72-19.74s-25.21-.89-37.5,1.35c-8,1.44-18.73,4.21-23.92,11.12a178.7,178.7,0,0,0,6.47,20,182.73,182.73,0,0,0,11.54,23.71c4,7.05,8.47,15.15,15.34,19.79,4.75,3.2,10.65,2.81,16.19.47,5,8.1,17,9.24,26,9.07a107.37,107.37,0,0,0,20.25-2.92c4.45-1,9-1.76,13.23-3.44,9-1.26,15.34-13.16,19.39-20.06,2.44-4.19,4.86-8.36,7.42-12.44,1.53-1.51,3-3.09,4.52-4.68a95.17,95.17,0,0,1,10.19-9.35c2.47-1.89,5-3.73,7.56-5.51s5.29-3.43,8-5c9.89-5.48,20.82-9.07,30.66-14.72a116.94,116.94,0,0,0,27.73-22.63c11.2-9.82,20.73-21.44,24.07-35.82A40.74,40.74,0,0,0,257.06,190.23Z"/><path class="cls-7" d="M229.06,249.52a91.29,91.29,0,0,1-16.88,11.1c-3.61,1.81-9.43,5.53-13.75,4.64-2.27-.48-2.86-2.45-3-4.55-.18-4.23.05-8.3-3.22-11.51a.74.74,0,0,1,.15-1.16c6.49-2.88,10.78-7,13.21-13.3-6.31,6.08-14.08,9.71-23.17,9-7.22-.63-13.43-3.83-15.73-10.4a10.63,10.63,0,0,0,2.58,8.08c5.59,6.36,21.82,14.86,16.11,25.49-3.72,6.95-11.42,8.92-18.57,10.6-9.48,2.22-18.83,5.95-25.37,13.49-11.08,12.82-15,31.79-30.72,40.41-12.07,6.59-30.07,6.54-39.06-5.12a.74.74,0,0,1,.12-.9c5.68-5,13.49-6.37,19-11.57s11.5-11.61,12.88-19.34c1.22-6.83,1.3-18.09-3.94-23.78A28.53,28.53,0,0,0,94,267.41l-.56-.11a.64.64,0,0,1-.48-.32c-7.26-2.84-16-3.81-22.18-4.27-12.41-.9-25.21-.89-37.5,1.35-8,1.44-18.73,4.21-23.92,11.12a178.7,178.7,0,0,0,6.47,20,182.73,182.73,0,0,0,11.54,23.71c.47.84,1,1.69,1.47,2.56a33.29,33.29,0,0,0,18.66,6.4c2.66,0,6.17-.18,8.28,1.75,1.56,1.43.29,4.19-1.28,5A20.62,20.62,0,0,1,39.36,336a27,27,0,0,0,3.3,2.7c4.75,3.2,10.65,2.81,16.19.47,5,8.1,17,9.24,26,9.07a107.37,107.37,0,0,0,20.25-2.92c4.45-1,9-1.76,13.23-3.44,9-1.26,15.34-13.16,19.39-20.06,2.44-4.19,4.86-8.36,7.42-12.44,1.53-1.51,3-3.09,4.52-4.68a95.17,95.17,0,0,1,10.19-9.35c2.47-1.89,5-3.73,7.56-5.51s5.29-3.43,8-5c9.89-5.48,20.82-9.07,30.66-14.72a116.94,116.94,0,0,0,27.73-22.63,107,107,0,0,0,9.71-9.56C238.57,241.94,233.61,245.8,229.06,249.52Z"/><path class="cls-3" d="M256,9.31c-4.21,1.46-8.48,2.56-12.59,4.24-7.75,3.15-15.53,6.34-23.07,10-12.59,6-27.9,13.45-35,26.22-3.77,6.77-4.11,13.69-4.54,21.23-.33,5.93-1.12,11.65-4.47,16.71a.75.75,0,0,1-1.4-.36c-.54-9.1-2.18-18.22-2-27.36a45.7,45.7,0,0,1,2.39-12.86,46.25,46.25,0,0,0-3,9.63c-1.73,8.66.46,17.6-.32,26.32a55,55,0,0,1-3.63,14.46,115.77,115.77,0,0,0-15.81-2.27c-3.74-.26-7.49-.34-11.2-.23,16.45-.49,25.93,3.83,38.33,8.24a.75.75,0,0,1-.21,1.46c-9.25.29-24.27-.48-29.91,8.69a12.16,12.16,0,0,0-1.33,10.8c3.11,8.53-5.86,14.82.48,31.06.13.34-.31.74-.72.74-4.8-.08-28-3.8-47.35-2.07,5.94-7.2,5-13.76,6.71-20.94s4.94-15.86-1-21.76c-1.76-1.72-4.65-4.25-2.22-6.73a28.35,28.35,0,0,1,5-4c-1.78-8.49-3.88-17-5.65-25.35-2.29-11-3.63-23.52-9.35-33.36L94,41.48c1.11,4.14,2,8.36,2.69,12.44,1.3,7.3,2.5,14.54,4.4,21.74,1.73,6.62,3.93,14.3,1,20.89a.75.75,0,0,1-1,.26c-2.79-1.55-4-4.75-4.89-7.69-1.17-4-2.37-8.15-3.36-12.24-1.38-5.74-1.9-11.8-3.64-17.44a52.64,52.64,0,0,0-7.47-15c-7-9.76-16.82-17.1-27.47-22.58-4.55-2.33-9.29-4.19-13.85-6.49s-9.07-4.83-14-5.55c3.07,14.57,1.62,29.05.62,43.77-.82,11.84-1.1,26.59,8.28,35.35.69.66-.34,1.69-1.06,1C28,84.43,23,77.81,20.45,69.88a100.74,100.74,0,0,1-3.42-15c-.56,14.79,1.18,28.87,12.49,39.34,8.79,8.16,21.48,12,33.11,13.52,7.16,1,16.43-1.91,20.84,5A21.14,21.14,0,0,1,85.16,116,101,101,0,0,0,76,125.25a49,49,0,0,1,4.4-4.25c4.08-3.39,8-6.92,12.62-9.63a.74.74,0,0,1,1.1.44c1.35,4.39-.6,10.6,2.62,14.22a.74.74,0,0,1-.17,1.16c-8.69,3.81-9.84,12.31-12,20.27-1.67,6.09-2.28,6.31-7.1,8.58-3,1.39-16.35,3.61-18.05,0-1.4-3,.75-7.34,1.89-10,.24-.59.54-1.2.8-1.79q-3.26,5.26-6.26,10.67c-2.78,1.25-5.54,2.5-8.32,3.73a6.21,6.21,0,0,1-.59.26,10.65,10.65,0,0,1,6.61.91.78.78,0,0,1,0,1.3c-5.32,3.33-11.14,6-16.24,9.69a88.65,88.65,0,0,0-9.43,8.2c8.73-5.08,17.44-9.73,27.51-12,12.39-2.79,24.83-3,37.43-3.45,13.61-.47,27.28-1.47,40.89-1.05,11.3.36,22.53,1.79,33.77,2.93a.76.76,0,0,1,.92-.86c7.51,1.91,15.16,3.21,22.46,5.77-5.87-4.91-13.2-7.49-20.23-10.55a.74.74,0,0,1-.35-.84c2-5.75,3.19-10.22,1.45-16.27-1.25-4.29-2.86-9.94-7.26-12a.75.75,0,0,1-.15-1.17c2.73-2.33,5.54-4.19,7.53-7.29A60.49,60.49,0,0,1,176,116c2.89-3.58,6.05-6.34,10.57-7.44a.78.78,0,0,1,.83-.43c10.92,1.53,21.55,7.76,25.8,18.26a142.7,142.7,0,0,1,6.28,19.73c1.48,6.12,1.27,12.41,2.71,18.48a.8.8,0,0,1-.31,1.28l-.66.21a39.15,39.15,0,0,1,12.84,1.3c.75.21,1.48.46,2.2.71a62.46,62.46,0,0,0-6-2.25c-.76-4.15-1.7-8.17-2.7-12a67.09,67.09,0,0,0-6.8-16.48,42.13,42.13,0,0,0-4.14-10.32c-4.67-7.91-11.69-14.13-19.84-18.93,6.05-8.3,14.5-12.41,26.31-13.87,10.55-1.32,20.66-3.39,26.71-13,6.37-10.17,8-22.28,9.18-34,1.46-14.28,3.44-28.48,5.24-42.73C262.25,6.64,259.14,8.22,256,9.31Z"/><path class="cls-10" d="M83.79,64.42A50.58,50.58,0,0,0,72.47,42.24c-11.32-13.36-27.77-22.12-44-28-.31-.11-.54.35-.23.49l2.3,1.17c0,.07,0,.15,0,.23,4.19,8.66,3.56,18,2.94,27.35a132.7,132.7,0,0,0,.75,25c.92,7.51,3,14.69,8.43,20.21a28.53,28.53,0,0,0,10.82,6.41c5,1.83,10.64.53,15.54,2.9a.78.78,0,0,0,1-1.14,47.13,47.13,0,0,0-5.52-6.54c3.52,1.63,6.63,4.06,9.85,6.28a1,1,0,0,0,1.59-1.14c-.82-2.89-2-5.68-3-8.51,3.38,2.12,7.61,4.11,8.71,7.66a.78.78,0,0,0,.51.53c0,.36,0,.74.06,1.1,0,.69,1.17.75,1.23.06C84.29,85.88,86.05,74.76,83.79,64.42Z"/><path class="cls-10" d="M252.21,14.63C242.12,18.05,232.36,23,223,28c-8.12,4.34-16.4,8.37-23.61,14.2A33.17,33.17,0,0,0,186.84,63.5c-1.49,9.63,0,19.49-1.82,29.05a13.57,13.57,0,0,0-1.28,1.73c-.35.52.24,1.39.82.9,3.05-2.71,6.32-5.24,8.43-8.61a39,39,0,0,1-.71,9.07c-.23,1,1.2,1.33,1.66.53,4.44-7.76,14.89-11.82,23.1-13.87,6.78-1.69,13.94-2.66,19.77-6.8,6.87-4.87,8.32-13.43,9.12-21.24.66-6.32.79-12.71,1.19-19.06a127.8,127.8,0,0,1,2.67-17.89c1-.51,2-1,3-1.53C253.48,15.42,252.88,14.42,252.21,14.63Z"/><path class="cls-11" d="M83.79,64.42A50.58,50.58,0,0,0,72.47,42.24C61.94,29.81,47,21.37,31.85,15.53c8.6,5.31,16.8,12.31,22.23,20.76C57.22,41.17,59,47.23,60,52.92c.79,4.63,1.63,10.56-1.17,14.74-2.66,4-7.82,2.28-11.37.49-1.13,3.68-1.43,7.76-6.52,7.2-3.21-.35-5.19-3.59-6.26-6.28-.17-.46-.31-.92-.46-1.4,0,.27,0,.53.06.79.92,7.51,3,14.69,8.43,20.21a28.53,28.53,0,0,0,10.82,6.41c5,1.83,10.64.53,15.54,2.9a.78.78,0,0,0,1-1.14,47.13,47.13,0,0,0-5.52-6.54c3.52,1.63,6.63,4.06,9.85,6.28a1,1,0,0,0,1.59-1.14c-.82-2.89-2-5.68-3-8.51,3.38,2.12,7.61,4.11,8.71,7.66a.78.78,0,0,0,.51.53c0,.36,0,.74.06,1.1,0,.69,1.17.75,1.23.06C84.29,85.88,86.05,74.76,83.79,64.42Z"/><path class="cls-11" d="M83.79,64.42A50.58,50.58,0,0,0,72.47,42.24,84,84,0,0,0,49.56,23.83a101.17,101.17,0,0,1,14.75,12.9c5.63,6,10.51,12.92,12.22,21.15,1.33,6.34,2.35,13.7,0,20C71.26,91.85,51,89,41.27,81.58a23.94,23.94,0,0,1-5.75-6.3,29,29,0,0,0,7.14,13.39,28.53,28.53,0,0,0,10.82,6.41c5,1.83,10.64.53,15.54,2.9a.78.78,0,0,0,1-1.14,47.13,47.13,0,0,0-5.52-6.54c3.52,1.63,6.63,4.06,9.85,6.28a1,1,0,0,0,1.59-1.14c-.82-2.89-2-5.68-3-8.51,3.38,2.12,7.61,4.11,8.71,7.66a.78.78,0,0,0,.51.53c0,.36,0,.74.06,1.1,0,.69,1.17.75,1.23.06C84.29,85.88,86.05,74.76,83.79,64.42Z"/><path class="cls-11" d="M239.48,64.6c-2.68,1.82-10.14,5.34-12.44,1.1-1.78-3.27-.14-7.52,1.47-10.91-4.6,2.42-9.44,7.43-14.7,6.28-7-1.56-2.76-8.76-.25-12.39,5.14-7.43,10.44-14.41,17.73-19.89,5.64-4.25,12.23-6.95,18.31-10.45.06-.34.13-.69.19-1,1-.51,2-1,3-1.53.68-.36.08-1.36-.59-1.15C242.12,18.05,232.36,23,223,28c-8.12,4.34-16.4,8.37-23.61,14.2A33.17,33.17,0,0,0,186.84,63.5c-1.49,9.63,0,19.49-1.82,29.05a13.57,13.57,0,0,0-1.28,1.73c-.35.52.24,1.39.82.9,3.05-2.71,6.32-5.24,8.43-8.61a39,39,0,0,1-.71,9.07c-.23,1,1.2,1.33,1.66.53,4.44-7.76,14.89-11.82,23.1-13.87,6.78-1.69,13.94-2.66,19.77-6.8,5.51-3.92,7.53-10.19,8.53-16.57A25,25,0,0,1,239.48,64.6Z"/><path class="cls-11" d="M233.31,75.91a98.26,98.26,0,0,1-21.16,5.19c-5.24.76-12,2.35-16.12-1.94-4.92-5.09-1.37-15.18.9-20.57A59.81,59.81,0,0,1,211,38.29a110,110,0,0,1,19.31-14.15c-2.47,1.25-4.93,2.53-7.35,3.83-8.12,4.34-16.4,8.37-23.61,14.2A33.17,33.17,0,0,0,186.84,63.5c-1.49,9.63,0,19.49-1.82,29.05a13.57,13.57,0,0,0-1.28,1.73c-.35.52.24,1.39.82.9,3.05-2.71,6.32-5.24,8.43-8.61a39,39,0,0,1-.71,9.07c-.23,1,1.2,1.33,1.66.53,4.44-7.76,14.89-11.82,23.1-13.87,6.78-1.69,13.94-2.66,19.77-6.8a17.27,17.27,0,0,0,3-2.8A41.27,41.27,0,0,1,233.31,75.91Z"/><path class="cls-6" d="M177,104.35c-5.42,1.25-10.83,1.78-16.19,3.55-4.37,1.45-11.66,4.37-12.12,10.7a8,8,0,0,0,11.45,8.05c3.4-1.71,6.29-5.08,8.66-8.3,2.15-2.94,4.34-7.94,7.16-10,.46-.34,3.88-2.25.05-1.51C176.46,106.62,178,104.1,177,104.35Z"/><path class="cls-6" d="M108.87,115.94c-2.33-7.09-8.5-7.74-14.48-10.83-.13-.07-.46-.12-.36,0,5,4.81-.56.74-.28,1.07,1.86,2.2,3.8,9.3,4.11,12.27.38,3.93.56,6,3.75,7.69,6,3.22,8.66-4.35,7.67-8.69A11.2,11.2,0,0,0,108.87,115.94Z"/><path class="cls-9" d="M200.81,238.06c-11.09,6.34-24.73,7.94-32.82-4.19-.14-.23-.54,0-.42.22,2.35,5.68,7.74,9.81,13.68,11.51,2,2.49,4.18,4.85,6.05,7.46,5,7-.13,13.73-5.85,17.67-6.65,4.57-15.39,6.16-22.92,8.82-15.17,5.38-21.81,18.16-28.76,31.7-7.54,14.74-18.89,23.9-35.25,27-10.63,2-19.94.19-27.6-5.12a1.66,1.66,0,0,0-2.14-1.61,40.82,40.82,0,0,1-8.36-9.34.61.61,0,0,0-1.07.55,24.43,24.43,0,0,0,7.51,10.76c-4.65,4.7-13.79,8.2-19.29,3.88a.11.11,0,0,0-.15.16c6.28,6.26,16,3.58,21.89-2.23,7,4.71,16.2,6.62,24.45,6.32,15.26-.57,30.37-8.74,38.45-21.75,5.9-9.52,9.68-20.2,17.22-28.66s18.88-10.22,28.89-13.85c7.58-2.75,14.79-7.14,17.63-15,2.27-6.28-2.54-12.39-7.69-16.07,6.59.94,13.41-1.2,17.31-7.53C201.88,238.21,201.2,237.85,200.81,238.06Z"/><path d="M161.45,147.09c0,8.76-2.64,15.83-5.81,15.83S150,155.79,150,147s2.66-15.83,5.82-15.81S161.5,138.35,161.45,147.09Z"/><path class="cls-12" d="M155.6,136.49c0,4.13.32,10.63,3.11,10.27s1.35-6.5.25-9.68S155.64,131.83,155.6,136.49Z"/><path d="M98.88,148.33c-2.79,8.3-7.1,14.33-9.6,13.49s-2.25-8.25.54-16.54,7.1-14.32,9.6-13.49S101.67,140,98.88,148.33Z"/><path class="cls-12" d="M97.6,136.74c-1.33,3.91-3.11,10.17-.79,10.57s3.12-5.84,3.25-9.14S99.08,132.34,97.6,136.74Z"/><path class="cls-4" d="M192.77,170.74c-22-10.25-52.91-13.67-76.82-13.64-24.74.05-50.12,1.24-72.78,12-5.14,2.43-4.27,2.89-4,2.79,22.86-8.17,50.4-10.29,74.34-10.35,25.31-.07,50.65,1.49,75.08,8.49C189.39,170.25,193.53,171.1,192.77,170.74Z"/><path class="cls-13" d="M168.4,107.1c-6,2.46-19.5,3.74-17.17,13.52a.69.69,0,0,0,1.27.06c1.33-4.14,3.4-6.37,7.31-8.31,3-1.48,6.16-2.68,9-4.57A.4.4,0,0,0,168.4,107.1Z"/><path class="cls-13" d="M98.78,107.75c-.25-.08-.49.23-.26.41a17.33,17.33,0,0,1,5.57,6.86c1.23,2.64,1.25,5.4,1.79,8.16a.51.51,0,0,0,1,.17C109.77,117.35,104.52,109.64,98.78,107.75Z"/><path class="cls-14" d="M100.64,272.29C94.29,252,46.1,259.16,31.37,261.15c-33.6,4.55-42.85,30.79-14.72,53.45,16.71,13.45,37.25,14.71,56.48,5.81C90.25,312.48,106.87,292.31,100.64,272.29Z"/><path class="cls-15" d="M100.64,272.29a14.51,14.51,0,0,0-5.33-7.3,15.13,15.13,0,0,1,.07,5.49c-1.09,5.69-6,9.12-11,11.29-6.21,2.68-13.23,4-18.85,7.94-5.42,3.76-8.69,9.43-13.49,13.82-3.57,3.24-7.51,5.08-12.25,3.29-6.77-2.55-11-9.75-17-13.5-5.59-3.48-13.82-3.94-17.88-9.58a16.62,16.62,0,0,1-2.69-5.9C-3,288.3,1,302,16.65,314.6c16.71,13.45,37.25,14.71,56.48,5.81C90.25,312.48,106.87,292.31,100.64,272.29Z"/><path class="cls-16" d="M83.33,273.9c-7,2.24-13.29,4.42-20.64,5.64a193.06,193.06,0,0,1-23.41,2.71c-7.46.31-26.59,2.37-29.2-6.87-.15-.48-.82-.28-.82.18.19,9.53,16.23,9.65,22.8,10.16,16.88,1.24,38.47,1.36,51.77-10.88A.54.54,0,0,0,83.33,273.9Z"/><path class="cls-5" d="M40.49,161.77c-11.68,5.11-21.59,9.6-27.06,21.81-4.55,10.14-3.12,23-2.48,33.79a.23.23,0,0,0,.46,0c.16-10.45.79-20.51,4.63-30.33,4.65-11.88,14.83-17.65,24.83-24.5C41.27,162.25,40.94,161.57,40.49,161.77Z"/><path class="cls-5" d="M86,119.7c-11,5.87-18.34,19.13-22.68,30.34a.47.47,0,0,0,.85.39c6.3-11.09,13.15-20.89,22.83-29.32A.86.86,0,0,0,86,119.7Z"/><path class="cls-5" d="M162.29,102.31c-13.83-11.15-39.75-8-53.27,2.11-.35.26-.07.85.34.69,17.45-6.17,34.56-5.34,52.34-1.52A.73.73,0,0,0,162.29,102.31Z"/><path class="cls-5" d="M247.76,7.58A184.25,184.25,0,0,0,199.4,26.89C186.33,34.41,177.74,46.16,175.21,61c-.08.46.64.72.79.24,10.48-31.68,43.95-42,72.17-52.55A.61.61,0,0,0,247.76,7.58Z"/><path class="cls-5" d="M26.43,77c-4.67-9.36-4.7-18.42-4.24-28.62A195.16,195.16,0,0,0,21,17.08.48.48,0,0,0,20,17c-1.18,10.45-1,21.11-1.12,31.63-.11,9.63,1.28,20.62,6.9,28.68C26,77.66,26.61,77.39,26.43,77Z"/><path class="cls-5" d="M94.49,47.18c-2.79-6.54-8.33-11.81-13.72-16.27C68.13,20.5,51.85,14.24,36.21,10.11a.29.29,0,0,0-.17.54C49.88,15.91,63.6,22.19,75.59,30.9A59,59,0,0,1,91,47c5.37,8.38,6.75,19.13,8.52,28.68.12.52.89.47.82-.05C99.47,66,98.26,56.14,94.49,47.18Z"/><path class="cls-17" d="M15.14,211.15c-6.33,31.69-2.22,47.3,19,46.52s33.19-2.29,45.12.21,46.75-10.94,73.59-40.77,32.32-45.74-.51-50.21-92.81-8.76-122.29,13.92C23.6,185.79,17.14,201.2,15.14,211.15Z"/><path class="cls-13" d="M246.49,182c-5.34-8.87-16.22-17.22-27.13-14.69-11.81,2.73-19.19,14-24,24.32-.36.82.82,1.63,1.36.86,5.24-7.42,10.65-15.11,19-19.25,10.43-5.14,22.58,2.27,30,9.4C246.21,183.07,246.76,182.47,246.49,182Z"/><path class="cls-13" d="M204.82,226.69c-11.29,8.14-23.88,14.38-35.23,2.22-.38-.38-1,.23-.69.66,10.09,13.29,27.18,11.33,36.53-2.24C205.69,226.94,205.25,226.38,204.82,226.69Z"/><path class="cls-9" d="M222.65,672c-4.62-1.57-8-6-10.68-9.81a134.71,134.71,0,0,1-8.66-13.89c-.07-.11-.25,0-.2.11,1.86,5.85,5.49,11.38,8.94,16.42,2.28,3.35,6.18,7.41,10.57,7.41A.12.12,0,0,0,222.65,672Z"/><path class="cls-9" d="M202.77,675.39A43.2,43.2,0,0,1,189,664c-3.37-4.19-5.56-9-8.22-13.64,0-.08-.13,0-.11,0,2.51,9.94,11,23.38,22,25.22A.14.14,0,0,0,202.77,675.39Z"/><path class="cls-9" d="M215.89,638.64a.69.69,0,0,0-.41-.22c.48-6.69,1.7-13.32.71-19.95,0-.09-.1-.07-.1,0,.18,5.07-.69,10.1-1.48,15.08-.64,4.16-1.1,8.35.55,12.29,0,.15.24.1.24-.05a52.18,52.18,0,0,1,0-5.45c2.89,3,6.57,5.31,8.35,9.25.05.13.31.1.26-.07C223.17,644.74,218.84,642.1,215.89,638.64Z"/><path class="cls-9" d="M261.05,674.06c-4.55-4.08-6.32-11.77-8.31-17.39-2.24-6.33-4.23-12.62-5.89-19.13-.06-.23-.44-.14-.41.09a118.86,118.86,0,0,0,5,22.2c1.76,5.45,3.74,12.09,9.23,14.84C261,674.86,261.35,674.32,261.05,674.06Z"/><path class="cls-9" d="M284.55,670.51c-3.75-3.49-5.69-9.12-7.82-13.66a99.12,99.12,0,0,1-5.18-14.06.11.11,0,0,0-.21.05,73.38,73.38,0,0,0,4.91,16.9c1.58,3.64,3.85,10.19,8,11.41C284.63,671.26,284.8,670.72,284.55,670.51Z"/><path class="cls-9" d="M293.85,626.76s-.1,0-.08,0c4,8.68,3,18.85,3,28.14,0,.26.37.26.42,0C298.83,645.4,298.75,635.41,293.85,626.76Z"/><path class="cls-5" d="M532.67,399c-10.5-3-20.54-4.34-31.29-2.09-8.7,1.82-17.21,6-25.27,9.63a236.84,236.84,0,0,0-47.69,29c-26.55,20.8-49.61,51.08-49.95,86.1a.37.37,0,0,0,.74,0c4.07-35.12,27.38-61.43,55-81.44,13.41-9.69,28.07-17.6,43.12-24.45,17.3-7.87,35.92-15.48,55.2-14.61C533.94,401.25,533.81,399.3,532.67,399Z"/><path class="cls-5" d="M325.75,351.79c8.28,13.48,12.53,28.89,15.13,44.38C343,409,345,425,344,440.58c5.44-25.38,5.16-56.12-.22-73.29-4.33-13.71-11.67-27-22.88-36.22-4-3.27-12.8-6.19-20.44-9.28A133.26,133.26,0,0,1,325.75,351.79Z"/><path class="cls-5" d="M554.86,352c-8.63-10.17-14.37-19.06-24.42-27.81-9.7-8.41-19.92-17.33-30.93-24-10.23-6.14-20.92-9.51-32.85-8.33-15.38,1.55-20,.07-62.08,15.73-.16.06,17.35-4.27,17.53-4.34,15.27-4.24,21.89-5.83,34.3-7.59,13.9-2,28.46,3.45,40.39,10.43a287.38,287.38,0,0,1,31.06,21.25c10.4,8.13,28.44,29.92,38.17,38.81C566.82,366.86,560.05,358.1,554.86,352Z"/><path class="cls-5" d="M645.09,609.64c-.2-26.11-1.52-47.09-4.1-73.09-4.89-49.15-29.67-119.26-64.89-155.49-.29-.3,7.09,9.31,11.19,15.3,29.27,42.56,45.75,91.71,49.6,142,1.87,24.53,4.14,45.55,4.84,70.1.81,27.59.17,52.63.74,80.17,0,.38,1.5,16.8,1.5,16.42C644.72,674.89,645.3,637.15,645.09,609.64Z"/><path class="cls-5" d="M831.14,771.9A328.5,328.5,0,0,0,764,769.05c-17.52,1-35,2-52.57,1-16.46-.95-33.09-4-47.6-12.13-16.91-9.43-25.44-24.84-32.13-42.31-.21-.61-1.23-.43-1.12.24a66.26,66.26,0,0,0,25.79,42.35c13.26,9.63,29.8,13.71,45.86,15.55,17.81,2,35.87,1.16,53.73.19,25.08-1.33,50.06-.1,75.12-.88A.58.58,0,0,0,831.14,771.9Z"/><path class="cls-13" d="M163.16,322.79a90.22,90.22,0,0,0-27.72,43.38c-.18.62.72.82,1,.31,8.5-15.12,15.36-30.17,27-43.3C163.71,323,163.39,322.59,163.16,322.79Z"/><path class="cls-13" d="M163,314.28c-4.47,4.84-9.68,9.43-12.59,15.46-.28.56.56,1.12.93.59,3.93-5.32,8.5-10.12,12.35-15.5A.44.44,0,0,0,163,314.28Z"/><path class="cls-13" d="M152.48,351.53c-12.45,14-20.39,31.14-20.52,50.08,0,.65.93.61,1,.05,4.19-17.81,9.86-34.26,20.26-49.47A.51.51,0,0,0,152.48,351.53Z"/><path class="cls-13" d="M152.86,439c-5.64-9.41-9.3-18.53-9.65-29.61-.32-10.73,2.42-20.75,4.7-31.1.15-.61-.72-.82-1-.31-10.26,19.4-9.16,44.48,5,61.69A.59.59,0,0,0,152.86,439Z"/><path class="cls-5" d="M276.15,494.76c-1.85,17.85-8.51,34.4-15.62,50.7-6.26,14.33-14.4,29.13-17,44.73a.33.33,0,0,0,.63.19c12.9-31,31.27-61.19,32.26-95.6C276.43,494.61,276.19,494.61,276.15,494.76Z"/><path class="cls-5" d="M242.63,659.88c-8.12-16.57-9.46-39.11-3-56.47a.28.28,0,0,0-.51-.23c-9.2,17.36-7.15,40.36,3,57C242.32,660.4,242.76,660.17,242.63,659.88Z"/><path class="cls-5" d="M182.52,592.47c0-.26-.38-.21-.38,0-.51,13.49-6.92,25.41-11.25,37.88-3,8.71-6.26,17.8-1.83,26.39.15.26.54,0,.46-.23-3.73-11.88,3.93-25.11,8.25-35.95C181.44,611.4,183.44,602.36,182.52,592.47Z"/><path class="cls-5" d="M167.68,571.67c-9.68-10.23-20-19.8-29.87-29.83-9.52-9.68-14.35-21.61-16.93-34.79-5.16-26.34-2.22-54.06.82-80.47a.15.15,0,1,0-.29-.05c-5.31,27.55-9.94,55.64-3.78,83.53,2.48,11.26,6.49,21.4,14.69,29.68C143.44,551,155,562.18,167.17,572.27,167.57,572.59,168,572,167.68,571.67Z"/></g></g></svg>