<svg xmlns="http://www.w3.org/2000/svg" xmlns:xlink="http://www.w3.org/1999/xlink" viewBox="0 0 859.46 747.37"><defs><style>.cls-1{isolation:isolate;}.cls-2{fill:#212121;}.cls-3,.cls-5{fill:#009ec1;}.cls-4{fill:#087189;}.cls-16,.cls-28,.cls-29,.cls-33,.cls-38,.cls-41,.cls-5,.cls-9{mix-blend-mode:multiply;}.cls-31,.cls-6{fill:#fff;}.cls-6{opacity:0.6;}.cls-30,.cls-32,.cls-36,.cls-37,.cls-39,.cls-40,.cls-6{mix-blend-mode:screen;}.cls-7{fill:#323232;}.cls-8{fill:#1f1f1e;}.cls-14,.cls-39,.cls-40,.cls-9{fill:#383838;}.cls-29,.cls-36,.cls-38,.cls-40,.cls-9{opacity:0.5;}.cls-10{fill:#4d4c4c;}.cls-11{fill:#050500;}.cls-12{fill:#ff3a00;}.cls-13{fill:#5c0017;}.cls-15,.cls-16{fill:#ffe648;}.cls-17,.cls-23{fill:#7d0c22;}.cls-17,.cls-30{opacity:0.8;}.cls-18,.cls-33{fill:#71b700;}.cls-19{fill:#9bc110;}.cls-20{fill:#b3c000;}.cls-21{fill:#87b918;}.cls-22{fill:#00a7a6;}.cls-24{fill:#161615;}.cls-25{fill:#5f0b1a;}.cls-26{opacity:0.4;}.cls-27{fill:#28287d;}.cls-28{fill:#5b6407;}.cls-29{fill:#909090;}.cls-30{fill:url(#radial-gradient);}.cls-32{fill:#ffff65;}.cls-34{fill:#321d00;}.cls-35{fill:#140400;}.cls-36{fill:#b8d04f;}.cls-37{fill:#e65516;}.cls-41{opacity:0.3;}</style><radialGradient id="radial-gradient" cx="6486.54" cy="3509.78" r="1038.21" gradientTransform="translate(-2838.99 -1196.95) scale(0.49)" gradientUnits="userSpaceOnUse"><stop offset="0.51"/><stop offset="0.61" stop-color="#030303"/><stop offset="0.67" stop-color="#0c0c0c"/><stop offset="0.73" stop-color="#1b1b1b"/><stop offset="0.78" stop-color="#313131"/><stop offset="0.83" stop-color="#4d4d4d"/><stop offset="0.87" stop-color="#707070"/><stop offset="0.92" stop-color="#999"/><stop offset="0.96" stop-color="#c8c8c8"/><stop offset="1" stop-color="#fcfcfc"/><stop offset="1" stop-color="#fff"/></radialGradient></defs><g class="cls-1"><g id="Layer_1" data-name="Layer 1"><path class="cls-2" d="M475.37,654.82c3.71,0,7.37.36,10.31,2.23,2.44,1.56,5.36,3.35,7.3,5.56a13.58,13.58,0,0,1,2,3.09,30.29,30.29,0,0,0,.25-4.17c.22-3.48.07-6.45-1.73-9.51-3.41-5.82-12.32-6.83-18.79-6.56-.2-.28-.62-.34-1,0l-.58,0c-.09,0-.16.16-.05.18l.45,0C471.73,648.08,472.72,653.27,475.37,654.82Z"/><path class="cls-2" d="M470,631c-5.14-4.38-13.88-2.41-19.92,0-.27-.2-.7-.13-.93.37l-.55.23c-.08,0-.08.21,0,.19l.45-.11c-1.07,3.18,2.57,8.77,6.07,7.92a22.16,22.16,0,0,1,13.5,1,16.28,16.28,0,0,1,5.41,3.8c.54.55.73,1.14,1.52,1.2a.19.19,0,0,0,.2-.14c.74-1.74-.57-4.44-1-6.06C473.83,636,472.72,633.28,470,631Z"/><path class="cls-3" d="M465.12,639.26a56.94,56.94,0,0,0-10,.81.66.66,0,0,0,.1-.34c0-3.89.66-6.27-1.71-9.44-1.8-2.42-7.49-2.57-9.88-2-6.14,1.49-25.9,11.7-31.33,4.92a17.85,17.85,0,0,1-.68-2.55c3.93-9.87,13.32-19.3,19.36-26.29,5.24-6.07,8.81-13,11.84-20.33a1.16,1.16,0,0,0,.43-.35c2.05-2.83,4.87-6.15,3.08-9.7s-7.24-1.79-9.77-.7c-3,1.34-7.63,4.16-8.68,7.57-.94,3-.8,6.55-1.19,9.89-4.27,9.61-12.08,19-17.75,27.08-4.27,6.11-8.28,12.4-14.32,16.88-7.5,5.56-20.71,7.12-30,7.27-23,.39-47.13,2.68-67.93,13.17-2.7,1.36-6.65,4.41-5,8,3.49,7.82,9.78,10.23,18.23,6.56,13.44-5.86,24.48-11.71,39.54-12.37,6.31-.27,12.51.16,18.55-.09-4,1.68-8,3.2-11.68,4.74-7.57,3.13-16,4-22.41,9.31s-7.85,15.31.65,19.21c3.84,1.77,9.6-2.76,12.53-4.6a140.08,140.08,0,0,1,30.32-14.8,529.25,529.25,0,0,1,53-15.14c9.7.17,19.48.86,28.33,3.42,4.9,1.41,15.23,4,18.15-2.41C481.59,646.64,476.22,639.76,465.12,639.26Z"/><path class="cls-4" d="M392.34,639.91c-2,5.11-8.94,7.7-13.13,10.65a67.15,67.15,0,0,1-12.75,7.36c-.12.06-.19.34,0,.28a63.85,63.85,0,0,0,15.39-6.66c4.6-2.8,9.79-5.84,10.74-11.65C392.62,639.71,392.39,639.81,392.34,639.91Z"/><path class="cls-4" d="M456.34,639.86c-10.13.79-57.46,12-43-13.59.06-.08-.06-.13-.12,0-5,7.23-6.71,15.15,3.53,18.42,4.66,1.48,12,.56,16.8.24a104.9,104.9,0,0,0,22.7-4.47C456.53,640.33,456.75,639.84,456.34,639.86Z"/><path class="cls-5" d="M367.94,657.29c-2.14.9-4.27,1.75-6.36,2.59,2.2-.63,4.38-1.33,6.53-2.16,8.82-3.43,21.16-8.88,24.16-18.67a40.09,40.09,0,0,1-10.06,6.12c-7.27,3-14.8,3.7-22.57,4.16a139.32,139.32,0,0,0-27.17,4.07c-6.87,1.78-14.07,4.83-21.19,5.21a8.13,8.13,0,0,1-4.77-1.68,21.15,21.15,0,0,0-6.93-3.17c-1,.45-2,.91-2.93,1.4-2.7,1.36-6.65,4.41-5,8,3.49,7.82,9.78,10.23,18.23,6.56,13.44-5.86,24.48-11.71,39.54-12.37C355.7,657.11,361.9,657.54,367.94,657.29Z"/><path class="cls-5" d="M478,646.66a9.67,9.67,0,0,1-3.14,5.69,4.64,4.64,0,0,1-5.52.32,31.16,31.16,0,0,0-18.31-4c-12.44.94-32.45,8.16-40-6-.34-.61.41-1.45,1.15-1.68.5-.36,1.14-.51,1.47,0,5.35,7.24,19.16,3.89,26.68,2.26,4.95-1.07,9.89-2.48,14.86-3.64,0-.79,0-1.53.06-2.21-11.63-5.22-22.57,3.92-34.73,3.69-7.13-.15-10.47-3.67-9-10.79a1.49,1.49,0,0,1,.74-.89c4.23-9.36,12.95-18.23,18.72-24.9,5.24-6.07,8.81-13,11.84-20.33a1.16,1.16,0,0,0,.43-.35c2.05-2.83,4.87-6.15,3.08-9.7a3.41,3.41,0,0,0-1-1.17c-4.89,6.41-8.77,13.54-13.45,20.1C422,606.84,411.52,620.17,405,636.1c-3.69,9-9.2,17.22-18,21.95-6,3.21-12.54,4.78-18.59,7.76s-12,6.47-18.23,9.36c-3.82,1.77-16.7,7-17.5-1.29a5.78,5.78,0,0,1,.09-1.57c-5.6,5.54-6.32,14.56,1.71,18.24,3.84,1.77,9.6-2.76,12.53-4.6a140.08,140.08,0,0,1,30.32-14.8,529.25,529.25,0,0,1,53-15.14c9.7.17,19.48.86,28.33,3.42,4.9,1.41,15.23,4,18.15-2.41C478.69,653,479,649.47,478,646.66Z"/><path class="cls-2" d="M325.55,697.68c2.77-4.37,7.22-6.67,11.33-9.41a6.31,6.31,0,0,0-1.66-6.29c-2.82-4.72-8.48-1.94-11.64,2.9a24.89,24.89,0,0,0-4,14.34c.11,2.89,0,7.41,1.61,10.23A29.51,29.51,0,0,1,325.55,697.68Z"/><path class="cls-2" d="M283.67,678.9c5.22-3.92,11.9-4.62,17.33-7.84,2.45-3.68-.75-8.5-4.73-9.84-4.32-2.46-12.73,4.84-15.67,7.53-3.33,3.06-4.69,7.37-5.23,11.72-.24,2-.75,6.37.45,8.63A25.16,25.16,0,0,1,283.67,678.9Z"/><path class="cls-6" d="M293.18,662.5c-4.85,1-8.64,4.41-12.21,7.58-4,3.56-4.16,10.51-4.71,15.38,0,.17.2.07.22,0a31.27,31.27,0,0,1,16.7-22.74C293.25,662.65,293.31,662.48,293.18,662.5Z"/><path class="cls-6" d="M329.25,681c-2.22,2.3-5.48,4.16-6.65,7.3a29.78,29.78,0,0,0-1.9,12.31c0,.26.37,0,.39-.13a95.44,95.44,0,0,1,2.87-11c1-3.26,3.47-5.7,5.38-8.43C329.38,681,329.31,681,329.25,681Z"/><path class="cls-6" d="M466.57,630.68c-3.9-1.59-7.39-.06-11.24-.11-.08,0-.22.17-.1.22,2.63.62,5.46.29,8.16.94,4.36,1.06,6.92,3.54,9.66,6.91.19.23.56-.21.47-.42C472,634.54,470.3,632.2,466.57,630.68Z"/><path class="cls-6" d="M489.91,650.78c-2.47-2.32-6.38-3-9.55-3.7-.06,0-.16.08-.08.13,2.59,1.49,5.4,2.54,7.75,4.46s3.3,4.66,4.9,7.31c.21.36.74-.1.7-.4C493.16,655.35,492.3,653,489.91,650.78Z"/><path class="cls-5" d="M310.88,654a10,10,0,0,0-2.54-1.47c-.95-.35-2,.07-2.92-.25-.13,0-.37.18-.22.29a6.75,6.75,0,0,0,1.68.62,8.87,8.87,0,0,1,2.54,1.69c1.51,1.38,2.19,3.2,3.23,4.87.35.58,1.11-.13,1.07-.62A7.76,7.76,0,0,0,310.88,654Z"/><path class="cls-5" d="M325.21,650.68c-1-1.33-2.63-1.79-3.91-2.79-.08-.06-.21.09-.15.16.92,1,2,1.67,2.92,2.72,1.1,1.29,1.17,3.16,2.27,4.45.23.26.63-.22.6-.45A8.44,8.44,0,0,0,325.21,650.68Z"/><path class="cls-5" d="M335.2,645.21c-.1-.09-.25.08-.17.17a14.76,14.76,0,0,1,1.8,1.91c.45.7.85,1.36,1.29,2.08.22.38.81-.11.75-.46C338.52,647.06,336.57,646.24,335.2,645.21Z"/><path class="cls-5" d="M348.87,644.31c-.1-.07-.26.09-.18.18a14.82,14.82,0,0,1,2.78,3.24c.69,1.16.9,2.56,1.53,3.74.29.53,1.08-.15,1-.6C353.49,647.67,351.49,646,348.87,644.31Z"/><path class="cls-5" d="M357.56,645.22c-.06,0-.15.08-.1.13,1.52,1.27,1.43,2.94,2,4.67.13.41.65-.11.7-.32A4.35,4.35,0,0,0,357.56,645.22Z"/><path class="cls-5" d="M370,642.71c-.13-.1-.33.11-.22.25a10.67,10.67,0,0,1,1.93,3.76c.15.49.82-.12.86-.4C372.77,644.59,371.16,643.62,370,642.71Z"/><path class="cls-5" d="M400.2,636c-.47-.28-.94-.54-1.42-.81s-1.37,0-2,0c-.1,0-.21.15-.11.21a8.43,8.43,0,0,1,2,1.08,1.27,1.27,0,0,0,1.12.38C400.06,636.74,400.53,636.17,400.2,636Z"/><path class="cls-5" d="M402.69,632.73c-.38-.12-.73-.31-1.11-.46s-.77,0-1.16-.32c-.11-.1-.34.1-.25.22a1,1,0,0,0,.78.48c.63.14.82.56,1.49.57C402.66,633.24,403,632.81,402.69,632.73Z"/><path class="cls-5" d="M410.06,624.2c-.75-1.08-2.05-1-3.22-1.19-.07,0-.21.14-.13.2.82.53,1.87,1.52,2.86,1.64C409.83,624.87,410.25,624.47,410.06,624.2Z"/><path class="cls-5" d="M415.49,615.66a4.23,4.23,0,0,0-2.62-.44c-.05,0-.13.09-.05.11a7,7,0,0,1,2.32.89C415.41,616.37,415.78,615.85,415.49,615.66Z"/><path class="cls-5" d="M421.68,607.54c-.75-.56-1.42-.18-2.23-.5-.15-.07-.41.21-.25.32.56.43,1.24.43,1.84.86C421.41,608.48,422,607.81,421.68,607.54Z"/><path class="cls-5" d="M342.61,673.81c-1.62-2-3.53-2.28-5.88-2.83-.07,0-.17.1-.09.14,1.91,1,3.66,1.75,4.91,3.63,1,1.53,1.2,3.45,1.87,5.12.2.49.86-.08.9-.4A7.88,7.88,0,0,0,342.61,673.81Z"/><path class="cls-5" d="M352.45,668.43c-1.61-1.36-3.25-1.62-5.22-2.12,0,0-.08.05,0,.08A11.37,11.37,0,0,1,351.3,669c1.39,1.51,1.94,3.36,3.13,4.94.28.36.9-.23.9-.54C355.41,671.45,353.88,669.63,352.45,668.43Z"/><path class="cls-5" d="M362.7,664.82c-.59-1.35-2.45-1.75-3.54-2.58-.08-.06-.21.08-.14.15a10.15,10.15,0,0,0,1.56,1.3c.62.46,1.07,1.06,1.66,1.54C362.46,665.42,362.8,665.05,362.7,664.82Z"/><path class="cls-5" d="M370.09,657.32c-.07,0-.16.12-.06.15,2.85.43,3.09,3.12,4.3,5.15.26.45,1-.1.9-.51C374.56,659.6,372.94,657.19,370.09,657.32Z"/><path class="cls-5" d="M387.25,652.88a16,16,0,0,0-1.8-.78c-.72-.31-1.73-.27-2.32-.85-.07-.09-.24.07-.17.16.54.89,1.85,1.23,2.65,1.88a5.63,5.63,0,0,1,1.48,1.27,11.41,11.41,0,0,1,.8,1.65c.3.59,1.23-.14,1.12-.65A4.21,4.21,0,0,0,387.25,652.88Z"/><path class="cls-5" d="M394.16,648.49a5,5,0,0,0-1.58-1.24,10.67,10.67,0,0,0-1.11-.44,7.57,7.57,0,0,0-1.63-.07c-.09,0-.25.14-.15.2.6.41,1.31.5,1.88.95a7.06,7.06,0,0,0,2,1.42C394,649.47,394.45,648.86,394.16,648.49Z"/><path class="cls-5" d="M395.12,642.29c-.27-.09-.76.39-.45.58a12.64,12.64,0,0,0,1.43.8c.63.33,1.07.93,1.78,1,.38,0,.67-.38.67-.73C398.51,642.57,396.1,642.57,395.12,642.29Z"/><path class="cls-5" d="M429.68,645.29c-.17-.65-1,0-1,.44.11,1.44.42,3.31-.36,4.64-.12.24.13.35.29.18A5.8,5.8,0,0,0,429.68,645.29Z"/><path class="cls-5" d="M442.67,643.57s0,0,0,0h0l0,0h0c-.19-.15-.52.14-.42.37a9.35,9.35,0,0,1,.92,5.07c-.07.58.73.32.84-.06A5.37,5.37,0,0,0,442.67,643.57Z"/><path class="cls-5" d="M454.33,641.13c-.12,0-.26.22-.09.25,1.7.31,1.94,2.58,2.42,3.91.14.41.66-.12.66-.38C457.25,643.35,456.1,641.15,454.33,641.13Z"/><path class="cls-5" d="M463.56,641.16c-.08-.07-.25.08-.19.16.72,1,.54,2,.78,3.17.06.28.41,0,.43-.14A4.22,4.22,0,0,0,463.56,641.16Z"/><path class="cls-5" d="M469.94,643.13c-.09-.23-.44.06-.41.24.38,2.2-.29,4.55-.65,6.71-.1.57.68.28.8-.06A10.14,10.14,0,0,0,469.94,643.13Z"/><path class="cls-5" d="M419,636.21c-.11-.1-.33.09-.25.21a9.53,9.53,0,0,1,1.26,3.47c.12.59,1,.05.89-.41A5.72,5.72,0,0,0,419,636.21Z"/><path class="cls-5" d="M423.73,635.11c-.1-.14-.34,0-.27.2a27,27,0,0,1,1.47,3.44c.1.28.51-.09.48-.29A6.56,6.56,0,0,0,423.73,635.11Z"/><path class="cls-5" d="M435.35,632.19c-.12-.09-.29.1-.21.22a19.87,19.87,0,0,1,3.69,6c.18.55,1-.16.93-.54C439.55,635.13,437.37,633.75,435.35,632.19Z"/><path class="cls-5" d="M447.27,629c-.17-.14-.41.15-.29.3a33,33,0,0,1,2.89,5.28c.24.46.8-.13.8-.46C450.58,632,448.83,630.3,447.27,629Z"/><path class="cls-5" d="M493.23,712c-1.5-3.13-5-4-8-5-.14-.05-.33.2-.16.29a28.23,28.23,0,0,1,4.18,2.28c1.22.92,1.84,2.46,3.25,3.16C492.92,712.89,493.4,712.31,493.23,712Z"/><path class="cls-2" d="M646.71,683.69c8.23.7,15.18,5.75,21,11.83.19-1.31.12-2.76.19-3.75.22-3.48.06-6.45-1.73-9.51-3.42-5.82-12.32-6.82-18.8-6.56-.19-.28-.62-.35-1,0-.18,0-.4,0-.58,0s-.16.18-.06.19l.46,0C644.8,677.85,645.17,681.5,646.71,683.69Z"/><path class="cls-2" d="M624,655.78c-1.16,3.15,2.32,8.83,5.84,8.1a21.64,21.64,0,0,1,10.55.42,14.31,14.31,0,0,1,5.79,1c1.52.77,2.82,1.92,4.27,2.73-.22-1.33-.77-2.73-1-3.73-.83-3.38-1.86-6.16-4.49-8.54-5-4.54-13.8-2.83-19.9-.62-.27-.2-.69-.14-.95.35-.17.08-.38.13-.55.21s-.1.2,0,.19A3.27,3.27,0,0,1,624,655.78Z"/><path class="cls-3" d="M632.74,668.11c3.54-4.64,4.1-11.24-2.81-14.31-7.66-3.38-13.23-2.71-21.24-.13-6.38,2.06-23.73,13.58-31.38,8-4.46-13.69,6-37.9,8.6-50.79,1.64-8.19,6.19-21.91.41-29.37-4.13-5.31-11.44-4.72-16-.72-2.69,2.37-.21,9.45,1.53,14.34-.09,11.6-2.29,28.11-2.64,30.68-2.27,16.46-11.62,40.11-29.59,44.21a370.55,370.55,0,0,1-40.55,6.7c-11.61,1.37-24.26,2.49-35.43,6.08-15.22,4.88-2.61,14.23,7.8,14.88,12.34.8,26.87-5.95,38.76-8.75a125.08,125.08,0,0,1,18.33-3.1c4.9-.42,9.44.42,14.08,1.1-14.71,10.71-39.29,12.56-55,17.78-6.26,2.07-21.49,7.08-13.26,17,10.08,12.17,22.82,4.31,33.77-2.25s21.57-13.19,33-18.62c9-4.27,18.35-7.55,27.45-11.53a160.81,160.81,0,0,1,51.74-1.2c9.31,1.24,28.8,5.75,34.36-4.83C659.48,674.07,640.74,669.61,632.74,668.11Z"/><path class="cls-4" d="M554.74,669.18c-.06-.11-.23,0-.21.13,1.72,9.13-9,13.16-13.78,18.78-.28.33,0,.75.37.48C546.88,684.85,559.31,678,554.74,669.18Z"/><path class="cls-4" d="M633.44,668.08c-7.47-1.71-14.86-1-22.42-.36-6.58.59-13,1.83-19.69,2.18-17.3.92-16.61-13.45-14.87-24.62,0-.13-.16-.06-.19,0-3.09,12.85-5.06,24.64,10.59,27.29,6.3,1.08,14.21-.71,20.48-1.75,8.62-1.44,17.13-1.67,25.82-2.2C633.37,668.64,633.78,668.16,633.44,668.08Z"/><path class="cls-5" d="M510.19,688.9a125.08,125.08,0,0,1,18.33-3.1c4.87-.42,9.39.41,14,1.09,8.31-4.12,15.65-10.68,12.59-19.07-1.52,5-5.69,8.24-10.83,9.6-9.07,2.43-18.8,2.49-28,4.32-10.18,2-20.89,6-31.33,6.32a26.85,26.85,0,0,1-10.68-1.32c-3.59-1.41-7.2-3.45-10.81-3.9-14.88,4.9-2.35,14.16,8,14.81C483.77,698.45,498.3,691.7,510.19,688.9Z"/><path class="cls-5" d="M632.74,668.11c2.76-3.62,3.69-8.42.7-11.82a3.6,3.6,0,0,1-1.57,2.08c-2.35,1.58-4.72,1.48-7.52,1.43-5.72-.08-11,.16-16.45,2.19-4.5,1.7-24.47,9.16-27.9.84a7.77,7.77,0,0,1-2.69-1.19c-4.46-13.69,6-37.9,8.6-50.79,1.64-8.19,6.19-21.91.41-29.37-4.13-5.31-11.44-4.72-16-.72-2.69,2.37-.21,9.45,1.53,14.34-.05,6.89-.85,15.47-1.55,21.86a53,53,0,0,1,5.5-6.41c.65-.62,1.93-.56,1.71.57-1,5.16-1.25,10.41-2.68,15.45a129.44,129.44,0,0,0-4,16.75c-1,6.83-1.22,14.78,1.93,21.1,9.91,19.94,33.89,1.37,49.75,5.66,2.92.8,7.47,2.72,7.66,6.25.2,3.28-5.9,4.42-8,4.55-9.8.69-19.66-2.33-29.56-2-10.2.36-19.27,4.93-28.83,8a1,1,0,0,1-.85,0c-7.32,2.41-14.85,4.36-21.9,7.5-9.51,4.25-18.86,8.93-28.19,13.55-4.43,2.2-12.39,8.55-17.73,7.7-3.54-.54-4.12-2.77-7.31-4.35-5.5-2.74-10.55-1.79-15,2.06-1.29,2.31-1.19,5.07,1.56,8.38,10.08,12.17,22.82,4.31,33.77-2.25s21.57-13.19,33-18.62c9-4.27,18.35-7.55,27.45-11.53a160.81,160.81,0,0,1,51.74-1.2c9.31,1.24,28.8,5.75,34.36-4.83C659.48,674.07,640.74,669.61,632.74,668.11Z"/><path class="cls-2" d="M472.18,733c4.27-4.83,10.24-7.28,16.37-9.09a6.85,6.85,0,0,0-.32-2.95,9.79,9.79,0,0,0-4.12-5.61c-4.72-2.83-11.66-.53-15.59,4.2a27,27,0,0,0-5.89,15.63c-.21,2.9-.39,10.35,2.81,12.17A28.23,28.23,0,0,1,472.18,733Z"/><path class="cls-2" d="M440.92,715.44c1.45-5.65,5-9.28,9.51-12.05a16.87,16.87,0,0,1,5.08-2.69c3.69-1.72,7.61-3.21,11.3-5,.64-2.37-1.39-5.38-3.88-7-4.18-3.73-10.78,0-15.56,3.84-5.38,4.36-10.78,16.21-6.59,22.81C440.81,715.4,440.88,715.4,440.92,715.44Z"/><path class="cls-6" d="M458.31,688.88c-4.61,2-8.56,3.17-12.14,6.93-3.09,3.26-4.58,8-5.44,12.24-.12.6.74.31.87-.08A51.74,51.74,0,0,1,447,697.41c2.54-4.12,7.42-5.94,11.32-8.37C458.43,689,458.42,688.84,458.31,688.88Z"/><path class="cls-6" d="M479.2,715.73c-12.89-.57-15.73,15.89-14.85,25.4,0,.23.35,0,.36-.12.92-9.93,3.28-21.86,14.43-25C479.23,715.94,479.36,715.73,479.2,715.73Z"/><path class="cls-6" d="M648.09,662.26A16.27,16.27,0,0,0,643,655.5a7.91,7.91,0,0,0-5.24-1.74C641.46,655.73,645,659.18,648.09,662.26Z"/><path class="cls-6" d="M658.14,679.25a18.13,18.13,0,0,1,4.26,4.13,26.37,26.37,0,0,1,1.68,2.83c.83,1,1.65,2.1,2.44,3.18a17.77,17.77,0,0,0-2.9-7.91c-1.63-2.31-4.54-3-7-3.89Z"/><path class="cls-5" d="M473.22,684.09c-.85-1.4-2.85-1.93-4.25-2.51-.17-.06-.47.27-.29.4a21.55,21.55,0,0,1,3.2,2.68c1.2,1.32,1.15,3.52,1.91,5.07.23.48.86-.09.9-.41A8.08,8.08,0,0,0,473.22,684.09Z"/><path class="cls-5" d="M480.12,680.56c-.11,0-.28.15-.17.23,1.42,1.1,1.93,2.75,2.83,4.21.24.39.81,0,.83-.38C483.73,682.72,481.74,681.17,480.12,680.56Z"/><path class="cls-5" d="M497.79,677.45c-.07,0-.2.12-.11.18,2.5,1.59,2.26,4.57,3.43,7,.23.48.87-.07.9-.41A6.84,6.84,0,0,0,497.79,677.45Z"/><path class="cls-5" d="M510.2,676.72c-.13-.13-.4.12-.31.28.4.59.84,1.17,1.25,1.74s.74,1.54,1.21,2.23c.27.38.79,0,.83-.38C513.4,678.81,511.33,677.76,510.2,676.72Z"/><path class="cls-5" d="M519.19,675.58c-.16-.14-.44.15-.36.3.65,1.2,1,2.65,1.8,3.75.3.41.89-.1.83-.5C521.29,677.74,520.12,676.55,519.19,675.58Z"/><path class="cls-5" d="M533.26,675.39c-.51-.68-1.3-.72-1.82-1.31-.08-.1-.26.09-.21.19.31.64,1,1,1.36,1.62a7,7,0,0,0,1.63,2.16c.24.17.65-.15.58-.42C534.55,676.61,533.87,676.21,533.26,675.39Z"/><path class="cls-5" d="M544,672.72a13.91,13.91,0,0,1-1.87-1.26c-.22-.23-.66.21-.53.47a2.6,2.6,0,0,0,1.93,1.55C543.81,673.51,544.3,673,544,672.72Z"/><path class="cls-5" d="M558.63,662a1.77,1.77,0,0,1-1.81-.19c-.24-.15-.58.32-.4.54.73.81,2.07,1.22,2.56,0A.25.25,0,0,0,558.63,662Z"/><path class="cls-5" d="M568.63,657.7a5.46,5.46,0,0,0-3-1.41,13.69,13.69,0,0,0-4.51.23c-.17,0-.33.39-.09.39a14,14,0,0,1,3.65.31c1.14.32,2.24.83,3.35,1.24C568.41,658.59,569,658,568.63,657.7Z"/><path class="cls-5" d="M570,651a5.5,5.5,0,0,0-2.69-.93c-.55-.09-1.08-.27-1.63-.35s-1,.23-1.51.11c-.17,0-.42.25-.22.35.4.18.25.13.71.12a3.36,3.36,0,0,1,1.83.58,8.29,8.29,0,0,0,3,.89C569.8,651.79,570.3,651.25,570,651Z"/><path class="cls-5" d="M571.71,639.94c-1.35-.82-3.06-.53-4.41-1.34-.17-.1-.4.22-.28.36a6,6,0,0,0,4.25,1.84C571.66,640.8,572.14,640.21,571.71,639.94Z"/><path class="cls-5" d="M573.62,629.84c-1.3-.08-2.59.09-3.88,0-.21,0-.49.37-.24.47.88.31,1.77.35,2.67.6a1.42,1.42,0,0,0,1.55-.37C573.89,630.33,574,629.87,573.62,629.84Z"/><path class="cls-5" d="M575.47,616.82a8,8,0,0,0-1.4-.7c-.39-.17-1.2,0-1.63-.13-.17,0-.42.27-.21.36a3.1,3.1,0,0,0,.8.25,9.84,9.84,0,0,1,2.05.74C575.32,617.43,575.73,617,575.47,616.82Z"/><path class="cls-5" d="M559.71,681.63c-1.38-1.68-4.12-2.08-6.15-2-.11,0-.23.2-.08.23a9,9,0,0,1,3.15,1c.87.45,1.57,1.14,2.43,1.6C559.49,682.72,560,682,559.71,681.63Z"/><path class="cls-5" d="M561.47,675.15a8.35,8.35,0,0,0-3.38-1c-.22,0-.53.41-.24.51,1,.34,2,.94,3,1.3C561.24,676.07,561.87,675.42,561.47,675.15Z"/><path class="cls-5" d="M507.84,705.36c-.63-.4-1.11-1.05-1.75-1.46-.87-.57-1.82-1-2.65-1.6-.11-.08-.3.11-.19.22a23.94,23.94,0,0,0,2.27,2c.67.57,1,1.35,1.83,1.65C507.76,706.33,508.27,705.62,507.84,705.36Z"/><path class="cls-5" d="M517,701.65a4.76,4.76,0,0,0-2.46-1.82c-.3-.1-.77.39-.48.63.8.7,1.16,1.95,2.33,2C516.73,702.46,517.19,702,517,701.65Z"/><path class="cls-5" d="M601.4,671.75c-.36-.27-1,.23-.87.64.41,1.53,1.37,2.81,1.79,4.38.1.32.47,0,.51-.18C603.13,675,602.81,672.82,601.4,671.75Z"/><path class="cls-5" d="M623.67,672.71c-.66-1.7-2.06-2.59-3.33-3.75-.3-.28-.76.23-.63.54.55,1.24,1.64,1.87,2.42,3a8.13,8.13,0,0,1,1.45,5.37c0,.4.5.17.54-.11A9.69,9.69,0,0,0,623.67,672.71Z"/><path class="cls-5" d="M639.33,670.56c-.24-.23-.65.22-.52.48.58,1.23,1.23,2.41,1.7,3.7s1,4.22.2,5.43c-.16.23.14.4.3.19,1-1.32.71-3.35.8-4.92S640.46,671.72,639.33,670.56Z"/><path class="cls-5" d="M648.43,675.7c-.21-.39-.8,0-.8.37,0,.94.44,2.49-.39,3.21-.34.3-.2.87.27.56A3.35,3.35,0,0,0,648.43,675.7Z"/><path class="cls-5" d="M596.22,663.18a2.12,2.12,0,0,0-.9-1,6.17,6.17,0,0,1-1.68-1.84c-.18-.29-.59.11-.5.37.4,1.13,1.28,2.9,2.56,3.13A.53.53,0,0,0,596.22,663.18Z"/><path class="cls-5" d="M602.9,658.83a5.21,5.21,0,0,1-1.2-1.4c-.14-.28-.57.07-.51.3a2.52,2.52,0,0,0,1.13,1.85C602.67,659.79,603.21,659.11,602.9,658.83Z"/><path class="cls-5" d="M616.75,651.7c-.34-.23-.9.38-.57.62a6.87,6.87,0,0,1,1,1c.18.2.52-.15.48-.35A2,2,0,0,0,616.75,651.7Z"/><path class="cls-7" d="M746.24,619.73c-6.5-3.26-13.52-5-20.11-8-9.21-4.14-18-10.22-26.5-15.67-18.32-11.84-36.15-24.63-53.5-37.89-7.59-5.79-14.86-12-22.16-18.15-4.12-3.48-8.28-6.92-13.76-6.12a2.76,2.76,0,0,0-2.09,2.23c-2.26,10.44,8.81,21,17.19,27.81a333.4,333.4,0,0,0,24.45,25c12.64,12,28.7,23.87,43.43,33.15s31.43,18.47,48,24.11c6.63,2.25,18.55,3.41,22.39-4.52C769,630.42,754.13,623.69,746.24,619.73Z"/><path class="cls-8" d="M808.35,611.53c-9.24-6.49-19.19-10.68-29.5-15.18-13-5.66-25.37-15.22-36.75-23.53-21.7-15.85-46.81-29.34-70.38-42.27-14.5-7.93-36-28.54-53.51-18.61-7.6,4.3-9.22,10.3-7.82,16.34l-.32-.24c-.12-.07-.3.13-.2.2a6.24,6.24,0,0,1,.65.5c1.51,5.88,5.79,11.76,10.14,16.11,1,1,2.72-1,1.91-2.06s-1.83-2.4-2.72-3.66c4.39,4.9,10.69,8.79,15.67,13,9.78,8.33,20.55,15.7,31,23.24,21.71,15.71,44.69,30.92,68.15,43.89,12.27,6.77,25.06,12.06,37.53,18.33,8.52,4.28,15.89,6.13,24.63,2.16C807.76,634.78,822.25,621.31,808.35,611.53Z"/><path class="cls-7" d="M814.72,582c-21.08-6.6-42.14-18-62.15-27.37-21.54-10.08-44-18.6-65.88-27.84-9.48-4-18.67-8.65-28.24-12.4-5.42-2.12-12.42-5.23-18.35-5.29a2.18,2.18,0,0,0-2,1.44c-1.93,5.32,10.13,11.35,17.26,14.75,29.4,24.06,61.25,45.95,95.7,61.91,21.25,9.85,42.59,20,65.16,26.53,14.82,4.27,22.15,1.26,27.53-12.48C848.28,589.83,820.29,583.78,814.72,582Z"/><path class="cls-8" d="M854.88,544.33c-6.13-4.81-17.43-4.81-24.67-5.46-14.05-1.24-28.27-5.13-42.17-7.56C775.61,529.15,763,528,750.48,526c-16.32-2.56-32.22-7.86-48.17-12.11-12.21-3.26-23.19-11.12-35.79-13.19-5.25-.86-14.78-3.48-20-.17-12,7.61,15,20.05,24.46,23.58,13.79,7.65,28.38,14.16,41.79,21.77,25.29,14.34,53.08,25.4,80.31,35.5a216.76,216.76,0,0,0,37.39,10c5.95,1.08,12.76,3.91,17.12-1.3,5.18-6.19,6.07-16.68,9.45-23.86C860.18,559.55,861,549.16,854.88,544.33Z"/><path class="cls-7" d="M823.5,519.78c-42.24-8-86.65-6.09-125.22-27.57-.08,0-.21.11-.13.16.69.49,1.4.95,2.1,1.41-6-1.79-8.73,2.8-9.24,9.11-1,13,20.09,22.84,29.28,27.09,18,8.33,39.21,10.43,58.6,13a327.93,327.93,0,0,0,32.82,2.82c9.88.33,20.18,2.19,30,1.19,10.76-1.08,17.73.47,17.36-11.87C858.68,521.2,832.51,521.5,823.5,519.78Z"/><path class="cls-9" d="M855.47,544.87c2.47-1.43,3.8-4.16,3.63-9.71-.42-14-26.59-13.66-35.6-15.38-42.24-8-86.65-6.09-125.22-27.57-.08,0-.21.11-.13.16.69.49,1.4.95,2.1,1.41-6-1.79-8.73,2.8-9.24,9.11a13.29,13.29,0,0,0,2,7.78c-8.72-3.67-17.18-8.38-26.52-9.93-5.25-.86-14.78-3.48-20-.17-4.31,2.74-3.55,6.13-.38,9.47a25.72,25.72,0,0,0-6-.91,2.18,2.18,0,0,0-2,1.44,3.55,3.55,0,0,0-.09.47c-6.79-2.29-13.57-2.67-19.84.9-7.6,4.3-9.22,10.3-7.82,16.34l-.32-.24c-.12-.07-.3.13-.2.2a6.24,6.24,0,0,1,.65.5,24.9,24.9,0,0,0,2,5.06,11.8,11.8,0,0,0-2.29.09,2.76,2.76,0,0,0-2.09,2.23c-2.26,10.44,8.81,21,17.19,27.81a333.4,333.4,0,0,0,24.45,25c12.64,12,28.7,23.87,43.43,33.15s31.43,18.47,48,24.11c6.63,2.25,18.55,3.41,22.39-4.52a9.77,9.77,0,0,0,.55-7.95c2.69,1.3,5.38,2.57,8,3.92,8.52,4.28,15.89,6.13,24.63,2.16,11-5,25.46-18.47,11.56-28.25-.22-.15-.44-.27-.65-.43q4.24,1.41,8.56,2.66c14.82,4.27,22.15,1.26,27.53-12.48,1.22-3.13,0-5.85-2.48-8.2a8.29,8.29,0,0,0,6.28-3c5.18-6.19,6.07-16.68,9.45-23.86C860.07,559.78,860.93,549.89,855.47,544.87ZM804.88,567a158.34,158.34,0,0,1,18.49,7.09c1,.48-.23,1.89-.85,2a71.69,71.69,0,0,1-18.39,1.75,152.39,152.39,0,0,1,22.61,8.31c.9.42-.07,1.62-.56,1.9-5.16,3.07-11.29,3.88-17.34,4.37,5.18,1.16,10.61,2.37,14,6.31.61.7-.45,1.69-1,1.9-18,6.42-38.89,9-57.9,4.55l.71.56c10.09,4.25,21.89,5.45,30.36,12.81.81.7-.76,1.89-1.36,2-5.76.7-11.33.11-16.94-.68,6.14,2.66,12.89,4.17,17.62,9.13.56.57-.28,1.48-.74,1.76-8.61,5.29-19.15,3-28.36.59A270.11,270.11,0,0,1,736,622.17c5.65,4.66,11.47,9.11,17,13.85.86.72-.88,2.14-1.62,2-14.18-3.26-27.81-10.89-40.35-18.07-8.61-4.93-16.65-10.71-24.81-16.32-3.83-2.26-7.94-4.47-11.27-7.43a4.64,4.64,0,0,1-.42-.25.72.72,0,0,1-.32-.44,19.39,19.39,0,0,1-4.35-6c-.38-.82.81-1.64,1.46-1.75,6.06-1,11.8.27,17.8,1.08,6.52.89,13,1.82,19.43,3.31s12.88,3.06,18.86,5.74c3.64,1.63,7.21,3.41,10.87,5a151.85,151.85,0,0,1-16.56-16.51c-.82-1,1-2.16,1.87-1.89,8.65,2.87,16.32,7.48,24,12.08,0,0,.11,0,.16,0,1,.51,2,1,3,1.43a150.62,150.62,0,0,1-18.92-18.38c-.77-.9,1-2.3,1.86-1.87,9.8,4.59,20.15,7.59,30.6,10.24-12.7-8.69-25.15-17.65-35.48-29.2-.72-.79.8-2.17,1.62-1.95,9.92,2.74,19.73,5.83,29.56,8.84a149.44,149.44,0,0,1-18.09-13.95c-.78-.72.86-2.19,1.63-2,3.73,1.15,7.48,2.19,11.25,3.15-4.7-2.82-9.4-5.6-13.55-9.24-.85-.76.9-2.08,1.63-2,17.21,2.93,34.39,6.09,51.74,8.09-7.48-2.52-15.19-4.41-22.26-8a148,148,0,0,1-26.07-16.62c-.84-.68.88-2.16,1.63-2a322.4,322.4,0,0,0,61.68,10.52c9.82.75,20.5,1,30,4,4.47,1.39,6.34,4.54,6.31,9.22C845.75,568.16,822.78,568.59,804.88,567Z"/><path class="cls-10" d="M328.69,458.68a178.41,178.41,0,0,1-6.3-36.9c-1.78-29.8,1.06-58.54,7.71-87.58.6-2.63,10.38-36.86-1.51-34-6.13,1.48-11.5,6.14-16.14,11.7-3.16,2.78-6.08,6.83-8.38,9.11-9.26,9.09-16,21.28-21.37,32.94-10.23,22.2-15.06,55,2.08,75.22.46.55,1.1.15,1.5-.41,1.37,9.77,5.73,20.62,11.71,28,4.25,5.26,16.68,18.61,25.32,21.88,4.15,4.56,8.91,8.4,13.54,8.14a1.93,1.93,0,0,0,1.86-2C337.6,476.29,331,467.12,328.69,458.68Z"/><path class="cls-9" d="M328.69,458.68a178.41,178.41,0,0,1-6.3-36.9c-1.78-29.8,1.06-58.54,7.71-87.58.6-2.63,10.38-36.86-1.51-34-6.13,1.48-11.5,6.14-16.14,11.7-3.16,2.78-6.08,6.83-8.38,9.11-9.26,9.09-16,21.28-21.37,32.94-10.23,22.2-15.06,55,2.08,75.22.46.55,1.1.15,1.5-.41,1.37,9.77,5.73,20.62,11.71,28,4.25,5.26,16.68,18.61,25.32,21.88,4.15,4.56,8.91,8.4,13.54,8.14a1.93,1.93,0,0,0,1.86-2C337.6,476.29,331,467.12,328.69,458.68Z"/><path class="cls-9" d="M328.69,458.68a178.41,178.41,0,0,1-6.3-36.9c-1.78-29.8,1.06-58.54,7.71-87.58.44-1.93,5.83-20.95,3.94-29.76a129.49,129.49,0,0,0-19.51,19.32c-14.62,18.3-31,42.63-34.15,66.35-.17,1.25-3,2.93-3,1,0-8.82.41-17.57,1.07-26.33-7,21.09-8.22,47.26,6.3,64.37.46.55,1.1.15,1.5-.41,1.37,9.77,5.73,20.62,11.71,28,4.25,5.26,16.68,18.61,25.32,21.88,4.15,4.56,8.91,8.4,13.54,8.14a1.93,1.93,0,0,0,1.86-2C337.6,476.29,331,467.12,328.69,458.68Zm-33.17-14.13c-7.91-13.59-9.84-28.19-8.74-42.95a152.06,152.06,0,0,1,5.47-32.34c.29-1.08,3.13-2.42,2.91-.66-3.21,24.94.42,49.58,3.13,74.36C298.4,444,296.2,445.72,295.52,444.55Z"/><path class="cls-11" d="M289.38,434.05c-5.17-17.71-2.88-35.14,1.27-53.77,0-.14-.18-.08-.21,0-6.76,21.93-11.34,41.59.08,62.07A67.7,67.7,0,0,1,289.38,434.05Z"/><path class="cls-12" d="M743.91,530.56c-2.53-8.58-9.32-15.25-17.46-19.32,4.37-2.63,14.12-8.54,13.09-8.63-15.23-1.39-26.47-3.93-38.31-14.56a43.85,43.85,0,0,1-7.8-9.4c-.12-.32-.25-.64-.39-.94a1.21,1.21,0,0,0-.61-.71c-.58-1-1.16-2-1.69-3.06-1.29-2.54-1.08-6.28-3.46-8.1,0,0-.09,0-.07.06,1.73,1.57,2,6.39,2.83,8.55.33.81.68,1.65,1,2.49a3.81,3.81,0,0,0-1.73,1c3.78-4.41-24.51-7.86-28.3-7.54-16.35,1.43-33.37,10.27-46.87,19.07-10.71,7-20.48,17.87-22.53,30.7-.9,5.67,2.56,12.67,4.79,17.61,1,2.32,2.23,6.07,3.71,9.29,2,12.11.93,26.73-4.64,34.78-.64.9,11.17-2.34,15.55-6.92,1.54,7.54,3.93,17.66,8.66,22.2,1.44,1.37,4.91-13,5.41-18.22,4.1,6.68,20.24,12,19.57,10.64a42.54,42.54,0,0,1-2.58-6.45c6.43,5.58,25.17,6.28,24.45,5.52a47.79,47.79,0,0,1-7.14-10.38c6.05,3.47,24.06,4.69,22.26,2.9a81.33,81.33,0,0,1-5.59-6c6.69,2.8,25.79,2.6,25.43,0-.17-1.25-1.47-2.64-2.48-3.76,6.75,3.14,16.37,6.35,21,3s.38-16.93-.37-21.14A66,66,0,0,0,715.28,539c3.48,3.63,6.25,9.67,10.72,12,1.29.66.62-19.66-3.94-27.51a64.85,64.85,0,0,1,7.43,2.26C733.73,527.42,744.23,531.61,743.91,530.56Z"/><path class="cls-13" d="M610.72,566.57c.6-.67,1.92-1.36,2.48-.27,2.34,4.64,4,9.87,7.19,14,0-4.67-.91-9.28-1.15-14a2,2,0,0,1,2.53-1.77c8.68,4.19,20.2,4,29.89,2.1a129.73,129.73,0,0,0-11.83-7.18c-1.34-.73.48-2.6,1.45-2.64,8.72-.34,17.34.27,25.57-3.2,2.24-1,4.46-1.9,6.68-2.83a46.13,46.13,0,0,1-4.37-5.85c-.65-1.06.63-2.37,1.68-2.46,9.52-.76,18.3,1.34,27.25,3.86-4.05-4.4-8.75-8.13-12.8-12.6-1-1.13,1.1-2.47,2-2.45,8.46.17,15.88,4.38,22.58,9.28-1-4.71-2.67-9.21-4.15-13.82-.39-1.2,1.77-3,2.73-1.9,2.47,2.86,5.32,5.33,7.94,8a121.62,121.62,0,0,0-1.71-20.93,2,2,0,0,1,1.83-2.19,44.94,44.94,0,0,0,21.51-7.27c-14.46-1.42-25.37-4.13-36.82-14.41a43.85,43.85,0,0,1-7.8-9.4c-.12-.32-.25-.64-.39-.94a1.21,1.21,0,0,0-.61-.71c-.58-1-1.16-2-1.69-3.06-1.29-2.54-1.08-6.28-3.46-8.1,0,0-.09,0-.07.06,1.73,1.57,2,6.39,2.83,8.55.33.81.68,1.65,1,2.49a3.81,3.81,0,0,0-1.73,1c3.78-4.41-24.51-7.86-28.3-7.54-16.35,1.43-33.37,10.27-46.87,19.07-10.71,7-20.48,17.87-22.53,30.7-.9,5.67,2.56,12.67,4.79,17.61,1,2.32,2.23,6.07,3.71,9.29,1.84,11.35,1.05,24.87-3.62,33.16C602.16,577.21,606.87,570.85,610.72,566.57Z"/><path class="cls-14" d="M711.06,503.34q-5.49-8.65-10.64-17.54c-5.54-17.78-10.73-35.57-17.5-53.11C679,422.46,674,412.35,669.3,402.44c-5.41-11.49-9.39-24-16.32-34.72-14-21.64-25.56-44.24-40.74-65.25q-2.93-4.07-5.93-8C591.05,271.75,572,251,556.3,229c-5.53-7.77-8.83-18.88-12.64-27.64-5.71-13.15-8.45-27.3-12-41.13-5.93-23.09-13.08-45.74-23.08-67.42-16.14-35-43.88-71.28-80.61-86.1-2.2-.88-4.74-1.77-7.49-2.62-1-.35-1.93-.73-2.92-1a45.74,45.74,0,0,0-9.89-2C397.05-.72,385.83-.6,378.5,4.23,370.8,9.31,363.94,15.9,360,24.08c-.44-4.89-.84-9.79-1.15-14.75-.09-1.51-1.93-1.21-2.78-.65-6.66,4.49-7.44,13.14-8.79,20.73-2.36-4.1-4.72-9.34-7.88-10.22a2.73,2.73,0,0,0-3,1.41c-2.64,5.4.23,13.34,1.07,18.84a96.76,96.76,0,0,0,3.34,15.25c1.53,10.66,4.55,21.46,6.79,30.36,6.73,26.84,11.55,54.34,18.09,81.28,6.82,28.07,10.86,63.43-3,90.07-9.06,17.37-33.81,28.27-38.4,48.14v.06c-14.59,16-22,40.57-25.69,60.31-5.34,28.34,1.32,62.23,12.18,88.46,10.92,26.4,32.54,48.87,54.93,65.67,23.52,17.65,59.6,47.36,56.38,80.16-.1.9.73,1.34,1.53,1,3.82-1.8,6.36-5.93,8-10.64a38.85,38.85,0,0,1,.3,11.71c-.3,2,2.2,1.2,2.86.21a42.83,42.83,0,0,0,2.4-4.22c0,.68-.07,1.36-.12,2.06-.14,2,1.94,1.58,2.94.67a36.45,36.45,0,0,0,11.69-27.87c-.13-6.52-1.67-13.18-3.24-19.5-.21-.84-.37-1.68-.51-2.51,8.59,1.17,17.5,1.06,26,1.08,10.88,0,21.4,2.3,32.09,4.14,12.7,2.18,24.24,4,35.08,11.46,7.85,5.36,13.12,13,17.69,21.08,3.64,6.46,3.71,15.22,8.13,21.09.63.84,1.84-.43,2.07-1a40.84,40.84,0,0,0,2.95-11,25,25,0,0,1,1.54,7.78c0,3.07,4.19.5,4.76-1,1-2.52,1.8-5.07,2.54-7.65.62,3.65,1,7.3,1.37,10.67.44,4.31,4.82-1.24,5.39-2.35,4.21-8,5.08-17.18,8.13-25.64s9.18-15.44,11.29-24.3c5.7,3.36,22.93,5.84,22.69,3.58a8.34,8.34,0,0,0-4.37-6.27,23,23,0,0,1-5.62-4.82c2.26,1.12,4.36,2,5.91,2.69,10.93,4.59,42-2,39.77-2.71-5.33-1.53-10.4-5.07-15.1-9.43,1.5.28,3,.57,4.51.89,4.3.9,17.27,2.35,19.86-2.92a1.84,1.84,0,0,0,0-2.2,50.11,50.11,0,0,0-7.49-7.27c12.31,2,43.73-6.74,41.78-9.81a78.06,78.06,0,0,0-10.66-12.75,58.48,58.48,0,0,0,9.43,3.54C709.34,507.51,712.24,505.2,711.06,503.34Z"/><path class="cls-9" d="M711.06,503.34q-5.49-8.65-10.64-17.54c-5.54-17.78-10.73-35.57-17.5-53.11C679,422.46,674,412.35,669.3,402.44c-5.41-11.49-9.39-24-16.32-34.72-14-21.64-25.56-44.24-40.74-65.25q-2.93-4.07-5.93-8C591.05,271.75,572,251,556.3,229c-5.53-7.77-8.83-18.88-12.64-27.64-5.71-13.15-8.45-27.3-12-41.13-5.93-23.09-13.08-45.74-23.08-67.42-16.14-35-43.88-71.28-80.61-86.1-2.2-.88-4.74-1.77-7.49-2.62-1-.35-1.93-.73-2.92-1a45.74,45.74,0,0,0-9.89-2C397.05-.72,385.83-.6,378.5,4.23,370.8,9.31,363.94,15.9,360,24.08c-.44-4.89-.84-9.79-1.15-14.75-.09-1.51-1.93-1.21-2.78-.65-6.66,4.49-7.44,13.14-8.79,20.73-2.36-4.1-4.72-9.34-7.88-10.22a2.73,2.73,0,0,0-3,1.41c-2.64,5.4.23,13.34,1.07,18.84a96.76,96.76,0,0,0,3.34,15.25c1.53,10.66,4.55,21.46,6.79,30.36,6.73,26.84,11.55,54.34,18.09,81.28,6.82,28.07,10.86,63.43-3,90.07-9.06,17.37-33.81,28.27-38.4,48.14v.06c-12.92,14.22-20.17,35-24.25,53.33.72-2.29,1.49-4.56,2.35-6.83.31-.78,2.37-2.54,2.86-1,4.93,16.12,14.61,29.41,26.47,40.77a141.34,141.34,0,0,1-7.21-33.41c-.11-1.29,2.18-2.67,2.92-1.31,10.08,18.62,26.5,31.19,44,42.55-2.33-7.47-4.86-14.88-7.92-22.11-.54-1.27,1.73-2.83,2.71-1.9,12.37,11.54,29.8,15.44,43.41,25.35.38.27.75.57,1.14.87,13.52-27.23,41.13-48.39,67.38-61.2.88-.43,2.05-.27,1.78,1a211.6,211.6,0,0,0-5,35.92c.67-1.92,1.41-3.84,2.28-5.73.42-.91,2.68-2,2.76-.29.72,16.68,2.73,33.94,9.51,49.4,4,9.13,10,17,15.31,25.26a18.69,18.69,0,0,1,2.66-7.16c.46-.72,2.19-2,2.71-.62,5,12.85,13.06,23.78,21.36,34.67.87,1.14-1.21,3-2.33,2.37-5.64-3.2-11.29-6.38-16.8-9.74,18.18,24,44.44,45.3,73.7,51.44,1.65.35.15,2.37-.78,2.67-19.11,5.89-40.8,3.73-60-2.61a78.33,78.33,0,0,1,18.31,21.06c.74,1.3-1.09,2.83-2.34,2.36-6.92-2.61-13.63-5.7-20.39-8.69a31.32,31.32,0,0,1,8.76,11.3c.46,1.08-1.22,2.36-2.19,2.19-8.64-1.61-16.86-4.53-25.34-6.79-9-2.42-18.1-3.36-27.36-4.4-17.38-1.92-34.83-4.06-51.6-9.18-21.73-6.61-42.6-16.9-58.53-32.89,1.08,2,1.57,8.75.59,8.14-19.83-12.4-32.78-32.52-40.41-54.29,1.27,9.49,6,30.37,5.22,29.23-16.61-23.68-28.55-50.64-33-78.9a187.48,187.48,0,0,0,13.73,57.93c10.92,26.4,32.54,48.87,54.93,65.67,23.52,17.65,59.6,47.36,56.38,80.16-.1.9.73,1.34,1.53,1,3.82-1.8,6.36-5.93,8-10.64a38.85,38.85,0,0,1,.3,11.71c-.3,2,2.2,1.2,2.86.21a42.83,42.83,0,0,0,2.4-4.22c0,.68-.07,1.36-.12,2.06-.14,2,1.94,1.58,2.94.67a36.45,36.45,0,0,0,11.69-27.87c-.13-6.52-1.67-13.18-3.24-19.5-.21-.84-.37-1.68-.51-2.51,8.59,1.17,17.5,1.06,26,1.08,10.88,0,21.4,2.3,32.09,4.14,12.7,2.18,24.24,4,35.08,11.46,7.85,5.36,13.12,13,17.69,21.08,3.64,6.46,3.71,15.22,8.13,21.09.63.84,1.84-.43,2.07-1a40.84,40.84,0,0,0,2.95-11,25,25,0,0,1,1.54,7.78c0,3.07,4.19.5,4.76-1,1-2.52,1.8-5.07,2.54-7.65.62,3.65,1,7.3,1.37,10.67.44,4.31,4.82-1.24,5.39-2.35,4.21-8,5.08-17.18,8.13-25.64s9.18-15.44,11.29-24.3c5.7,3.36,22.93,5.84,22.69,3.58a8.34,8.34,0,0,0-4.37-6.27,23,23,0,0,1-5.62-4.82c2.26,1.12,4.36,2,5.91,2.69,10.93,4.59,42-2,39.77-2.71-5.33-1.53-10.4-5.07-15.1-9.43,1.5.28,3,.57,4.51.89,4.3.9,17.27,2.35,19.86-2.92a1.84,1.84,0,0,0,0-2.2,50.11,50.11,0,0,0-7.49-7.27c12.31,2,43.73-6.74,41.78-9.81a78.06,78.06,0,0,0-10.66-12.75,58.48,58.48,0,0,0,9.43,3.54C709.34,507.51,712.24,505.2,711.06,503.34ZM340.49,33.47c-.15-1.55-.29-3.09-.48-4.63,0-.14-.05-.26-.08-.39l.06.1c.4.59.77,1.17,1.18,1.75C340.9,31.34,340.68,32.39,340.49,33.47Z"/><path class="cls-9" d="M526.64,555.83c-21.12-8.7-44.25-9.07-66.62-11.33-20.43-2-40.53-5.47-59.49-13.63-7-3-14.43-6.25-20.78-10.75,10.81,12.41,25.12,21.25,40.88,28.11,9.58,4.18,18.58,6.62,21,17.87a30.29,30.29,0,0,1-5.34,23.51c-.62.83-2.33,1.36-2.52-.05a83.27,83.27,0,0,0-1.78-10c-.53,6.65-2.53,13.71-6.17,19.12,2.59-2.12,4.45-5.46,5.75-9.16a38.85,38.85,0,0,1,.3,11.71c-.3,2,2.2,1.2,2.86.21a42.83,42.83,0,0,0,2.4-4.22c0,.68-.07,1.36-.12,2.06-.14,2,1.94,1.58,2.94.67a36.45,36.45,0,0,0,11.69-27.87c-.13-6.52-1.67-13.18-3.24-19.5-.21-.84-.37-1.68-.51-2.51,8.59,1.17,17.5,1.06,26,1.08,10.88,0,21.4,2.3,32.09,4.14,12.7,2.18,24.24,4,35.08,11.46.83.56,1.62,1.17,2.4,1.79A43.26,43.26,0,0,0,526.64,555.83Z"/><path class="cls-9" d="M525.8,229.89c-12.65-5.11-23.38-2.57-34.72,4.36-.45.28-1.57.33-1.46-.49.79-5.84-4-12.77-8-16.65-5.22-5.06-12.95-5.85-19.82-4.33-7.53,1.64-14.47,4.85-21.5,8A194.66,194.66,0,0,1,419,228.28c-15.45,4.81-31.12,9.55-46.87,13.26-1.32.31-2.66.6-4,.87a75.67,75.67,0,0,1-5.48,14c-9.06,17.37-33.81,28.27-38.4,48.14v.06c-6.49,7.14-11.55,15.94-15.49,25.28.22,2.61.47,4.74.56,5.38a67.85,67.85,0,0,0,6.45,22,76.64,76.64,0,0,0,7,11.37c-.49-7.27-.27-14.59-.23-21.94,0-.82,1.51-2.15,2.21-1.25,11.48,14.46,23.42,29,39.17,39.1-1.4-4.77-2.9-9.5-4.16-14.3-.24-.89,1.11-2.21,2-1.67,14.91,9,31,16.15,46.26,24.61,4.36-6.16,8.6-12.45,14.14-17.57,7.82-7.2,16.53-13.42,25.09-19.71,14.91-10.94,30.06-22.68,47.64-29,.48-.16,1.21,0,1.16.65-.57,8.05-2.47,16.08-2.68,24.17,3.39-11.88,8.61-23.39,14.11-34.28a2.09,2.09,0,0,1,1.33-1c.66-1.59,1.35-3.17,2.09-4.68,3.27-6.66,6.73-13.19,10.22-19.73,6.76-12.72,13.75-25.26,21.58-37.35,1.67-2.58,3.41-5.11,5.13-7.64C540.64,241.22,534.31,233.33,525.8,229.89Z"/><path class="cls-9" d="M365.66,166.33c5.52,22.7,9.2,50.2,3.06,74,6.44-1.43,12.81-3.43,18.81-5,17-4.55,35.05-8.7,51.21-15.87,10.77-4.79,24.9-12.67,37.1-8.56,7.68,2.56,16.41,11.94,16.23,20.71,9.72-5.65,19.52-8.54,30.79-5.39,9.13,2.55,15.75,9.45,22.75,15.61a163.81,163.81,0,0,1-20.29-54.38c-3.74-20.2-6.51-41.68-19.43-58.44-.67-.87,1-2.52,1.87-1.88l.19.15h0v0a56.68,56.68,0,0,1,9.38,9.12C510.7,117.46,500,100.27,488.87,83.7c-.59-.89.72-2.16,1.62-2a65.39,65.39,0,0,1,9.12,2.73c-.09-.15-.17-.31-.27-.45-11.62-18.16-25.42-36.81-44.77-47.2-1.25-.68.63-2.14,1.43-2.12,4.62.15,8.93-.23,13.26.37-.19-.18-.36-.38-.54-.56-5.63-4.83-11.86-9.14-18.75-11.7-11.43-4.25-23.66-4.34-35.48-7-1.34-.3-.11-1.87.62-2.12,4.44-1.54,8.87-3,13.36-4.22a83.58,83.58,0,0,0-29.09,2.26c-1.32.34-1.39-1-.56-1.73a56.89,56.89,0,0,1,8.62-5.85,96.24,96.24,0,0,0-16.72,5.17c-13.13,5.58-29.54,14.78-35.54,28.4-.24.54-2,1.61-2.17.49-.32-1.92-.7-3.83-1.06-5.74-3.14,9.89-5.92,19.3-7.25,29.81-.25,2-.21,5.64-.6,9,1.16,4.85,2.4,9.51,3.47,13.73C354.3,111.89,359.12,139.39,365.66,166.33Z"/><path class="cls-9" d="M711.06,503.34q-5.49-8.65-10.64-17.54c-5.54-17.78-10.73-35.57-17.5-53.11C679,422.46,674,412.35,669.3,402.44c-5.41-11.49-9.39-24-16.32-34.72-14-21.64-25.56-44.24-40.74-65.25q-2.93-4.07-5.93-8c-14.23-21.21-31.71-40.68-46.76-61.12-5.63,7.69-11,15.52-16.13,23.58-7.73,12.2-14.68,24.78-21.46,37.53-3.48,6.53-7,13.06-10.12,19.76-2.67,5.74-4.58,12-7.93,17.4a1.8,1.8,0,0,1-.69.59C497.29,346,493,360.3,492.63,375.07c.13.7.27,1.41.44,2.11a1.28,1.28,0,0,1-.44,1.12,77.53,77.53,0,0,0,2,16.41A119.2,119.2,0,0,0,522.7,448.2c-2.11-5-4.4-9.92-6-15.12-.36-1.16,1.95-3.13,2.73-1.9,18,28.72,44.59,54.17,78,62.89-3-6.19-8.43-11.43-12.94-16.36-1.08-1.17,55.25,21,83.13,23.52,1.26.11-26.67,13.06-40.8,10.82a66.35,66.35,0,0,0,7,13.15c4,5.54,8.16,11,12,16.64.74,1.1-31.57-2.1-39.66-12.05-.85,7-9.31,20.92-9.66,19.78a23.56,23.56,0,0,1-.87-5.12c-7.22,15.33-10.33,32.08-16,48-.27.77-2.44,2.56-2.85,1-.92-3.57-2.06-7.05-3.23-10.53-1.12,8.56-3.09,17-4.82,25.48A1.44,1.44,0,0,0,569,608a40.84,40.84,0,0,0,2.95-11,25,25,0,0,1,1.54,7.78c0,3.07,4.19.5,4.76-1,1-2.52,1.8-5.07,2.54-7.65.62,3.65,1,7.3,1.37,10.67.44,4.31,4.82-1.24,5.39-2.35,4.21-8,5.08-17.18,8.13-25.64s9.18-15.44,11.29-24.3c5.7,3.36,22.93,5.84,22.69,3.58a8.34,8.34,0,0,0-4.37-6.27,23,23,0,0,1-5.62-4.82c2.26,1.12,4.36,2,5.91,2.69,10.93,4.59,42-2,39.77-2.71-5.33-1.53-10.4-5.07-15.1-9.43,1.5.28,3,.57,4.51.89,4.3.9,17.27,2.35,19.86-2.92a1.84,1.84,0,0,0,0-2.2,50.11,50.11,0,0,0-7.49-7.27c12.31,2,43.73-6.74,41.78-9.81a78.06,78.06,0,0,0-10.66-12.75,58.48,58.48,0,0,0,9.43,3.54C709.34,507.51,712.24,505.2,711.06,503.34Z"/><path class="cls-15" d="M530.69,253.14a39.31,39.31,0,0,0-1.89-12.66c2.4,1.44,4.92,2.82,7.57,4.17a180,180,0,0,1-8.84-26.54c-.53-1.45-1-2.89-1.46-4.34-5.7-18.66-10.62-37.74-15-56.75-4.82-20.89-13.61-42.31-27.87-58.64a68.77,68.77,0,0,1,8.68,4.5c1.22.77,3.23-.87,2.51-2.22a105,105,0,0,0-14-20.41c-.65-.73-1.32-1.43-2-2.1a51.78,51.78,0,0,1,5.12,2.4c.66.38,1.77-.82,1.35-1.45-3.67-5.49-5.65-11.9-9.45-17.41a70.74,70.74,0,0,0-15.22-15.53c-4.7-3.68-10.43-7.81-16.6-10.38,2-.7,4-1.43,6-2.21.29-.12.63-.64.34-.9-14.41-13.41-41.1-14.46-60.2-5.59a51.92,51.92,0,0,1,4.3-7.32c.52-.73.49-2.38-.75-2.35-19.48.65-36.15,18.22-43.61,37.72l-1.89-3.87c-1.5-3.06-4.19-7.8-7.26-9.53-.89-.49-1.87.75-2,1.48a24.38,24.38,0,0,0-.24,5.54c-.39,6.94-1.09,13.89-1.3,20.78A235.07,235.07,0,0,0,340.48,118c2.66,15,7.79,29.86,12.85,44.2,4.82,13.69,11.81,28.8,11.37,43.74-4.24,31.38-21.54,59.2-42.38,83.37-7.36,8.54-17.6,17.68-23.73,28.06-2.94,9.82-3.45,19.89.37,28.73,2.2-2.73,3-6.89,4.48-9.83a67,67,0,0,1,8.74-12.48,27.82,27.82,0,0,0,2.1-3.2l-.13.23C310,328.36,310.09,342,315.27,349c.86,1.14,2.82-.72,2.82-1.68,0-5.08,1.74-12.73,4.6-19.39a49.09,49.09,0,0,0,1.22,5c4.76,15,15,25.18,29,32.09,1.23.61,2.56-1.38,1.81-2.38a46.76,46.76,0,0,1-6.06-10.78c13,16.53,37.82,22.18,58.12,34.21,5.88-8.94,14.61-15.64,24.22-21.24l.82-.69A347.46,347.46,0,0,1,465,340.19c8.47-5.54,16.44-12.76,21.86-21.35a68.44,68.44,0,0,1-1.63,7.18,1.28,1.28,0,0,0,.06.87c6.68-4.26,13.2-8.72,19.47-13.44a89.05,89.05,0,0,0,11.65-18.28c5.72-12.37,8.15-25.62,5.23-38.14,3.19,4.94,2.27,10.05,3.95,15.21.21.64,1.16.41,1.55.11C532,268.65,530.56,258.4,530.69,253.14Z"/><path class="cls-16" d="M530.69,253.14a39.31,39.31,0,0,0-1.89-12.66c2.4,1.44,4.92,2.82,7.57,4.17a180,180,0,0,1-8.84-26.54c-.53-1.45-1-2.89-1.46-4.34-3.16-10.36-6.07-20.84-8.78-31.36-.64.7-1.7,1.31-2.24.51-2.74-4.06-5-8.31-7.8-12.16,8.66,23.82,10.77,48.34,2.89,73.19-.26.83-2.41,2.52-2.85,1q-1.73-6-3.77-11.82c2.73,28-7.57,59.2-31.18,73.49-.75.45-2.25.23-1.78-1a106.43,106.43,0,0,0,4.89-16.95c-17.38,25.89-48.53,42.61-70.07,64.82-.47.48-1.74,1.38-2.34.54-7.05-10-7.17-24.11-7.65-35.89a156.66,156.66,0,0,1,.25-17.21c-7.79,15.58-11.81,32.4-8.24,50.75.22,1.1-1.34,2.81-2.49,2.1-19.23-11.93-27-32.67-23.11-54.21-9.35,10.38-13.91,23.93-16.52,37.55-.18.93-2.44,2.43-2.87,1-20.38-71.8,82.8-99.76,85.08-166.52.05-1.21,2.18-2.78,2.92-1.32,3.81,7.55,4.14,15.36,4.11,23.49,4.71-8.92,7.7-18.44,10.05-28.34.24-1,2.32-2.4,2.86-1,3.29,8.52,3.15,17.06,2.13,25.66,6.61-12.58,11.44-26,13.32-40,.14-1.08,2.22-2.91,2.92-1.31,4.43,10.08,5.07,21.29,4.16,32.28,8.17-24.52,13.59-53.35.73-76.08-.66-1.18,1.13-3.08,2.35-2.37a113.27,113.27,0,0,1,10.81,7C479.59,95.63,472.33,83,464,70.92c-.86-1.25,1.16-2.81,2.34-2.36a92.14,92.14,0,0,1,15.55,7.59,82.59,82.59,0,0,0-15-18c-24.69-21.74-59.66-25.63-86-4.89-.72.56-2.66.81-2.15-.71A64.39,64.39,0,0,1,385,39.05a43.69,43.69,0,0,0-19.11,21.21c-.36.92-2.93,2.6-2.91.67.22-17.86,11-31.85,24.15-42.68-16.76,3.67-30.75,19.5-37.4,36.88l-1.89-3.87c-1.5-3.06-4.19-7.8-7.26-9.53-.89-.49-1.87.75-2,1.48a24.38,24.38,0,0,0-.24,5.54c-.39,6.94-1.09,13.89-1.3,20.78A235.07,235.07,0,0,0,340.48,118c2.66,15,7.79,29.86,12.85,44.2,4.82,13.69,11.81,28.8,11.37,43.74-4.24,31.38-21.54,59.2-42.38,83.37-7.36,8.54-17.6,17.68-23.73,28.06-2.94,9.82-3.45,19.89.37,28.73,2.2-2.73,3-6.89,4.48-9.83a67,67,0,0,1,8.74-12.48,27.82,27.82,0,0,0,2.1-3.2l-.13.23C310,328.36,310.09,342,315.27,349c.86,1.14,2.82-.72,2.82-1.68,0-5.08,1.74-12.73,4.6-19.39a49.09,49.09,0,0,0,1.22,5c4.76,15,15,25.18,29,32.09,1.23.61,2.56-1.38,1.81-2.38a46.76,46.76,0,0,1-6.06-10.78c13,16.53,37.82,22.18,58.12,34.21,5.88-8.94,14.61-15.64,24.22-21.24l.82-.69A347.46,347.46,0,0,1,465,340.19c8.47-5.54,16.44-12.76,21.86-21.35a68.44,68.44,0,0,1-1.63,7.18,1.28,1.28,0,0,0,.06.87c6.68-4.26,13.2-8.72,19.47-13.44a89.05,89.05,0,0,0,11.65-18.28c5.72-12.37,8.15-25.62,5.23-38.14,3.19,4.94,2.27,10.05,3.95,15.21.21.64,1.16.41,1.55.11C532,268.65,530.56,258.4,530.69,253.14Z"/><path class="cls-17" d="M492.64,316.2c-.42.38-2,1-2.16-.06a58.79,58.79,0,0,1-.52-9.82c-14.37,15.05-32.24,27.6-47.58,40.57-8.87,7.51-18.82,17.74-30.14,21.31-6.21,1.95-11.09-5.19-14.65-12.51a145,145,0,0,0,5,20c.44,1.28-1.39,2.44-2.49,2.07-21.45-7.24-42.58-20.67-56.48-39.14-.55.18-1.06.12-1.25-.52s-.32-1.29-.49-1.94c-.43-.63-.9-1.24-1.32-1.87a37.29,37.29,0,0,0,2.89,11.82c.46,1.07-1.5,2.78-2.48,2.08-7.87-5.6-14.77-14-17.73-23.35a62,62,0,0,0-5.47,9.51c-.44.95-2.65,1.95-2.77.3a71,71,0,0,1,4.14-30A161.92,161.92,0,0,0,303,325c-.49.71-2.74,2.1-2.76.3a52.61,52.61,0,0,1,1.41-12.5,52.22,52.22,0,0,0-3.08,4.62c-2.94,9.82-3.45,19.89.37,28.73,2.2-2.73,3-6.89,4.48-9.83a67,67,0,0,1,8.74-12.48,27.82,27.82,0,0,0,2.1-3.2l-.13.23C310,328.36,310.09,342,315.27,349c.86,1.14,2.82-.72,2.82-1.68,0-5.08,1.74-12.73,4.6-19.39a49.09,49.09,0,0,0,1.22,5c4.76,15,15,25.18,29,32.09,1.23.61,2.56-1.38,1.81-2.38a46.76,46.76,0,0,1-6.06-10.78c13,16.53,37.82,22.18,58.12,34.21,5.88-8.94,14.61-15.64,24.22-21.24l.82-.69A347.46,347.46,0,0,1,465,340.19c8.47-5.54,16.44-12.76,21.86-21.35a68.44,68.44,0,0,1-1.63,7.18,1.28,1.28,0,0,0,.06.87c6.68-4.26,13.2-8.72,19.47-13.44a89.05,89.05,0,0,0,11.65-18.28A74,74,0,0,0,520.75,283C514,295.56,503.32,306.55,492.64,316.2Z"/><path class="cls-18" d="M368.27,122.81S356.51,84.17,378,63.34c0,0-2.34,11.75-.67,15.12,0,0,2-17.47,24.86-24.54s58.47,1.69,66.87,44A15.29,15.29,0,0,0,460,91.57s5.73,7.05,4.38,21.5c0,0-3.36-9.75-12.43-10.42,0,0,19.15,36.29-43.35,55.1S368.27,122.81,368.27,122.81Z"/><path class="cls-19" d="M446.05,80.31c-.81-1.11,8.58,2.59,10.91,5.62-10.66-24.32-35-29.12-51.46-24.05C386.63,67.71,385,82.15,385,82.15c-1.39-2.77.56-12.49.56-12.49-.57.55-1.11,1.13-1.64,1.71-7.7,8.7-6.56,29.49-2.3,39.11,6.79,15.38,21.49,22.35,38.14,20.35,16.48-2,24.63-14.67,24.8-30.93,0-.93,7.91.5,10,2.35A47.15,47.15,0,0,0,446.05,80.31Z"/><path class="cls-20" d="M404.56,145.31c-6.05-2.67-24.87-12.08-34.27-34.26s-17.48-53.76-17.48-53.76-4-29.57-43-30.91S123,39.81,47.72,140.61s-39,186.82-39,186.82,9.4-68.54,69.89-100.8,155.23-45.7,181.44-49.73,127-6.71,145.15-15.46C412,156.07,410.6,148,404.56,145.31Z"/><path class="cls-19" d="M404.56,145.31c-6.05-2.67-24.87-12.08-34.27-34.26s-17.48-53.76-17.48-53.76-4-29.57-43-30.91S123,39.81,47.72,140.61s-39,186.82-39,186.82,9.4-68.54,69.89-100.8,155.23-45.7,181.44-49.73,127-6.71,145.15-15.46C412,156.07,410.6,148,404.56,145.31Z"/><path class="cls-21" d="M78.64,226.63C18.15,258.89,8.75,327.43,8.75,327.43s33.6-49.73,94.07-69.89,272.85-36.28,283.6-48.38,12.09-42.33,18.81-47.72c-18.14,8.75-119,11.43-145.15,15.46S139.11,194.38,78.64,226.63Z"/><path class="cls-15" d="M329.3,130.31c-3.19-9.86-11.53-17.83-22-19.39-24.23-3.59-49.53,12.18-69.46,24-21.24,12.61-42.88,24.19-64.84,35.46-20.18,10.37-40.56,20.55-59.32,33.4-7.28,5-14.63,10.44-21.71,16.31,60.24-27.56,143.79-39.45,168.15-43.2,6.63-1,18.06-2,31.72-2.91a162.87,162.87,0,0,0,19.47-9.59C323,157.49,334.09,145.09,329.3,130.31Z"/><path class="cls-12" d="M319.61,134c-3.06-9.43-11.07-17.1-21.14-18.58-23.24-3.44-47.51,11.68-66.63,23-20.36,12.09-41.13,23.2-62.19,34-19.36,9.93-38.92,19.71-56.9,32-7,4.8-14,10-20.82,15.65,57.77-26.43,137.92-37.84,161.28-41.42,6.37-1,17.33-1.88,30.43-2.81a158,158,0,0,0,18.68-9.2C313.57,160,324.2,148.15,319.61,134Z"/><path class="cls-20" d="M69.35,238.44q7.41-7.94,15.43-15c-2.09,1-4.13,2.09-6.14,3.15C18.15,258.89,8.75,327.43,8.75,327.43s10.05-14.86,29-31.61C42.32,274.15,54.29,254.68,69.35,238.44Z"/><path class="cls-22" d="M191.13,226.66c-1.74.15-1-2,0-2.49,5.89-2.77,12.05-4.78,18.12-7-14.64.17-29,3.87-43.69,4.15-1.72,0-1-2,0-2.49l2.81-1.38c22.89-10.75,47.49-17.8,71.48-25.7,16.92-5.56,35-10.66,51.87-17.73-13.66,1-25.09,1.9-31.72,2.91-24.36,3.75-107.91,15.64-168.15,43.2C68.56,239.45,48,263.59,41.15,292.9c15.44-13.07,36.16-26.84,61.67-35.36,29.56-9.86,95.42-18.74,156.27-26.67A246.26,246.26,0,0,0,191.13,226.66Z"/><path class="cls-23" d="M104.74,214.6c1.75-4.83.73-9.9-6-15.36-4.86-3.94-9.41-8.24-8.33-15.15,1.49-9.51,2.23-17.24-3.49-25.65-8-11.74-15.07-19.29-12.74-34.39a72.68,72.68,0,0,1,5.54-18,227,227,0,0,0-32,34.52c-75.26,100.81-39,186.82-39,186.82s9.4-68.54,69.89-100.8A268.35,268.35,0,0,1,104.74,214.6Z"/><path class="cls-24" d="M404.56,145.31c-6.05-2.67-24.87-12.08-34.27-34.26s-17.48-53.76-17.48-53.76-3.16-23.06-30.76-29.37a69.08,69.08,0,0,1,22.57,28.44c5,11.36,8.27,23.31,11.57,35.24s5.92,26.84,13.29,37S390.13,146.9,394,159.21a28.81,28.81,0,0,1,1.05,5.21,45.63,45.63,0,0,0,10.19-3C412,156.07,410.6,148,404.56,145.31Z"/><path class="cls-25" d="M85.48,257.33c5.93-9.43,13.74-16.85,22.6-23.32-7,1.12-13.82,3-20.73,4.67-1.4.33-1.77-.81-1-1.83,5.11-7.11,15.52-14.34,18.41-22.25a268.35,268.35,0,0,0-26.1,12C18.15,258.89,8.75,327.43,8.75,327.43s25.47-37.68,72-60.73A61.56,61.56,0,0,1,85.48,257.33Z"/><path class="cls-24" d="M395,164.42c.87,7.56-1.13,15.26-3.89,22.34a150.75,150.75,0,0,1-12.84,25.93c4.29-1.21,7.09-2.39,8.11-3.53,10.75-12.09,12.09-42.33,18.81-47.72A45.63,45.63,0,0,1,395,164.42Z"/><g class="cls-26"><path class="cls-27" d="M114.65,189.92a1.45,1.45,0,0,0-.81.72c-.81,2.42.14,5.28.33,7.75a87.67,87.67,0,0,0,1.3,8.93c.07.66.16,1.33.18,2a2.2,2.2,0,0,0,.37,1.19.79.79,0,0,0,0,.13c0,.11.09.12.17.1,1.07.9,3.4-.45,4.54-1a2.63,2.63,0,0,0,1.07-1C119.39,202.48,116.91,196.24,114.65,189.92Z"/><path class="cls-27" d="M139,178.52a1.17,1.17,0,0,0-.35.78A123.35,123.35,0,0,0,140,196.59a10.43,10.43,0,0,0,.65,4.46,3.57,3.57,0,0,0,.25.38.54.54,0,0,1,0,.1c0,.11.08.13.15.13,1.64,2.06,4.81.13,6.81-1.19a1.24,1.24,0,0,0,.57-1.13c-.14-.54-.33-1.08-.5-1.64C144.94,191.32,141.83,185,139,178.52Z"/><path class="cls-27" d="M161,169.14a1.59,1.59,0,0,0-.6,1.11c0,5.17,1,10.23,1.78,15.34a68.29,68.29,0,0,0,1.51,6.89c0,.22.1.41.14.63l0,.13a.36.36,0,0,1,0,.07c.28,1.15.57,2.29.94,3.34.1.29.47.35.72.31a5.51,5.51,0,0,0,2.49-1.43c1.44-1.13,2.73-.67,4-1.8a1.56,1.56,0,0,0,.56-.92C168.4,185.05,163.83,177.5,161,169.14Z"/><path class="cls-27" d="M184.64,164.84c1.34,6,2.11,12.19,3.84,18.13.64,2.23,1.32,4.44,2,6.65,1.78,0,4.39-1.39,5.15-1.94a2.18,2.18,0,0,0,.87-1.54C193.55,178.45,190.1,170.89,184.64,164.84Z"/><path class="cls-27" d="M213.3,176a145.88,145.88,0,0,0-9-12.52c1.61,7.62,4.46,14.95,6.27,22.51.2.8,1.11.4,1.42-.21a25.17,25.17,0,0,0,4.93-1.07c.6-.15,1.36-.85,1.18-1.55,0-.07,0-.12-.05-.17C216,179.78,213.88,176.85,213.3,176Z"/></g><g class="cls-26"><path class="cls-27" d="M146.43,200.43a77.12,77.12,0,0,0,2.65,7.9c.93,2.31,1.37,5.28,3.18,7.09a1.39,1.39,0,0,0,1,.27c-.68-5.54-1.19-11.13-1.71-16.69C149.89,199.51,148.16,200,146.43,200.43Z"/><path class="cls-27" d="M124.91,208.81a81.1,81.1,0,0,0,2.66,7.93c.93,2.3,1.37,5.28,3.19,7.08a1.41,1.41,0,0,0,1,.28c-.69-5.56-1.2-11.13-1.71-16.7C128.37,207.91,126.66,208.39,124.91,208.81Z"/><path class="cls-27" d="M99.71,217.56a80.76,80.76,0,0,0,2.66,7.91c.94,2.31,1.37,5.29,3.18,7.09a1.35,1.35,0,0,0,1,.28c-.67-5.56-1.18-11.13-1.71-16.71Q102.32,216.9,99.71,217.56Z"/><path class="cls-27" d="M179.27,192.13a1.25,1.25,0,0,0-1-.75l-.34,0q-3,.63-6,1.41a3.21,3.21,0,0,0-.25.62.12.12,0,0,0-.07.17.6.6,0,0,0,0,.12,3.25,3.25,0,0,0-.06.45,10.35,10.35,0,0,0,1.44,4.28,124.13,124.13,0,0,0,6.52,16.06,1.29,1.29,0,0,0,.67.52c-.35-7-.4-14.1-.6-21.15C179.47,193.27,179.39,192.7,179.27,192.13Z"/><path class="cls-27" d="M203.81,187.13a1.57,1.57,0,0,0-.91-.58,3,3,0,0,0-1-.07c-2.19.54-4.4,1.05-6.62,1.49.14.86.31,1.73.52,2.62,0,0,0,.06,0,.08l0,.12c0,.21.08.43.14.64.51,2.3,1,4.59,1.75,6.84,1.62,4.89,3,9.86,5.28,14.5a1.65,1.65,0,0,0,1,.73C202.83,204.74,203.54,195.94,203.81,187.13Z"/><path class="cls-27" d="M227.11,206.72c-1.52-6-3.6-11.83-4.7-17.92-.42-2.27-.81-4.56-1.22-6.82,1.57-.83,4.54-.73,5.46-.57a2.16,2.16,0,0,1,1.48,1C229,190.56,229.26,198.89,227.11,206.72Z"/><path class="cls-27" d="M241.27,178.38c1.45,6.9,2.26,13.94,4,20.76a148.4,148.4,0,0,0,2.41-15.23c.1-.83.51-3.29.87-6.16C246.15,178,243.72,178.15,241.27,178.38Z"/></g><path class="cls-28" d="M404.39,154.1c-12.61,10-27.46,10.44-43.08,11.92-22.57,2.15-45.06,4.17-67.68,5.67-45.16,3-88.69,12-132.42,23.27-44.93,11.6-94.35,28.83-122.89,67.85A156.24,156.24,0,0,0,19.88,295.2c-3.73,9.24-6.68,18.78-9.47,28.34,9.52-32.55,29-63.94,56-84.7a123.15,123.15,0,0,1,25-14.72c52.5-23.31,110.5-36.56,167.14-45,33.49-5,67.41-6,101-9.8,13.78-1.54,39.46-.51,45.69-16Z"/><path class="cls-29" d="M404.56,145.31c-6.05-2.67-24.87-12.08-34.27-34.26s-17.48-53.76-17.48-53.76-4-29.57-43-30.91c-1.94-.07-4.19-.09-6.66-.07a54.33,54.33,0,0,1,18.22,15.62c12.95,17.47,14.57,39.91,21.81,59.86,2.59,7.12,6.26,16.32,7.56,25.32,1.9,5,3,10.1,2.14,15.58-1.87,12.11-16.53,15.9-26.45,18.21-20.09,4.68-40.28,6.76-60.82,8.19-21.68,1.51-42.93,4.24-64.38,7.66-45.69,7.29-92.41,16.87-130.49,44.78-16.88,12.38-35.83,28.34-45.64,47.25C19.26,280,15.47,295,4.77,302.76c-.48.34-1.56.91-2,.22-.18-.27-.32-.55-.49-.82,2.59,16,6.49,25.27,6.49,25.27s9.4-68.54,69.89-100.8,155.23-45.7,181.44-49.73,127-6.71,145.15-15.46C412,156.07,410.6,148,404.56,145.31Z"/><path class="cls-29" d="M260.08,176.9c-26.21,4-121,17.48-181.44,49.73S8.75,327.43,8.75,327.43s33.6-49.73,94.07-69.89,272.85-36.28,283.6-48.38,12.09-42.33,18.81-47.72C387.09,170.19,286.28,172.87,260.08,176.9Zm63.23,34.48a108.79,108.79,0,0,1-18.9,5c-33,5.88-66.7-1.07-99.76,4.45a609.82,609.82,0,0,0-126.28,35.6c-8,3.22-14.07,12.21-22.9,14-10.64,2.07-5.74-7.32-1.56-12.9,21.82-29.23,65.61-42.5,98.87-52.79s67.34-16,102-19.3c15.73-1.49,31.56-2.29,47.21-4.53,13.68-2,27.74-7.2,41.64-6.33,16.37,1,6.95,18.22.15,24.69A59,59,0,0,1,323.31,211.38Z"/><path class="cls-30" d="M283.38,32.2S136.43,51,63.85,129,5.61,291.15,5.61,291.15s9.18-65.38,84.78-107.06,129.36-25.55,185.82-49.74,47.48-38.54,47.48-50.18S303.08,27.72,283.38,32.2Z"/><path class="cls-31" d="M4.72,286.67S-16.78,76.11,278,32.2C278,32.2,20.85,61.77,4.72,286.67Z"/><path class="cls-31" d="M29.58,289.8s18.81-57.11,139.11-90.05c0,0,61.82-14.78,116.92-16.13,0,0-92.73,10.08-132.38,24.87S63.18,236.71,29.58,289.8Z"/><path class="cls-2" d="M698.09,470.44c-5.78-22.86-16.42-42.22-29.27-60.37a17,17,0,0,0,3.94,1c1.06.1,2.49-1.25,2.19-2.36-9.73-35.83-33.32-68.59-53.15-99.47a372,372,0,0,0-36.49-48,141,141,0,0,0-28.26-24.13c-6.82-7.29-17-12.47-26.4-12.81-12.54-.46-22.49,20.9-26.24,30.16-6.35,15.69-7.74,34.87-7,51.64a76.65,76.65,0,0,0,1,9.48c-6.14,11.71-8.58,26-9.12,39.4.69,27.43,7.22,55.14,25.6,75a1.94,1.94,0,0,0,.53-2c-1.6-4.89-1.8-11.13-2.07-17a93.21,93.21,0,0,0,13.53,26c2,2.72,4.36,5.75,6.9,8.89,14.13,14,30.78,26,50.14,29.58a2.57,2.57,0,0,0,.13-1.43,44.23,44.23,0,0,0-5.4-12.56,118.4,118.4,0,0,0,31.83,18.92c8.52,3.2,22.34,10.27,31.74,7.46a3.78,3.78,0,0,0,2.8-3,12.18,12.18,0,0,0-1.84-6.39c10,7.38,21.09,13.57,31.91,14.46,1.94.16,4.92-2.73,3.63-4.74-1.94-3-3.87-6-5.82-9a38,38,0,0,0,8.54,5.76c1.58.71,3.67-1.22,3.73-2.76a15.29,15.29,0,0,0-.59-4.56,47.49,47.49,0,0,0,4.66,2.83C699.13,485.71,700.07,478.32,698.09,470.44Z"/><path class="cls-9" d="M698.09,470.44c-5.78-22.86-16.42-42.22-29.27-60.37a17,17,0,0,0,3.94,1c1.06.1,2.49-1.25,2.19-2.36-9.73-35.83-33.32-68.59-53.15-99.47a372,372,0,0,0-36.49-48,141,141,0,0,0-28.26-24.13c-6.82-7.29-17-12.47-26.4-12.81a12.84,12.84,0,0,0-6.92,1.93c11.27,5.16,19.88,24.22,24,33.09,5.78,12.33,11.56,24.66,15.48,37.75,5.77,19.27,9.35,39.06,13.66,58.68a2,2,0,0,1-2.49,2.1c-20.47-7.54-32-25-36.95-44.8.29,2.31.62,4.62,1,6.91,2,10.91,6.71,20.93,8.84,31.76.22,1.11-1.33,2.77-2.49,2.1-11.43-6.72-16.61-20.5-20.67-32.48a163,163,0,0,1-4.95-17.67c0,.22-.06.42-.07.63-1.33,16.81,2.08,32.4,5.33,48.77.26,1.27-1.61,2.92-2.73,1.89C509,343.24,504.19,323.6,502.11,307c-2.38-18.88-.13-36.85,3.3-55-.36.85-.71,1.67-1,2.38-6.35,15.69-7.74,34.87-7,51.64a76.65,76.65,0,0,0,1,9.48c-6.14,11.71-8.58,26-9.12,39.4.69,27.43,7.22,55.14,25.6,75a1.94,1.94,0,0,0,.53-2c-1.6-4.89-1.8-11.13-2.07-17a93.21,93.21,0,0,0,13.53,26c2,2.72,4.36,5.75,6.9,8.89,14.13,14,30.78,26,50.14,29.58a2.57,2.57,0,0,0,.13-1.43,44.23,44.23,0,0,0-5.4-12.56,118.4,118.4,0,0,0,31.83,18.92c8.52,3.2,22.34,10.27,31.74,7.46a3.78,3.78,0,0,0,2.8-3,12.18,12.18,0,0,0-1.84-6.39c10,7.38,21.09,13.57,31.91,14.46,1.94.16,4.92-2.73,3.63-4.74-1.94-3-3.87-6-5.82-9a38,38,0,0,0,8.54,5.76c1.58.71,3.67-1.22,3.73-2.76a15.29,15.29,0,0,0-.59-4.56,47.49,47.49,0,0,0,4.66,2.83C699.13,485.71,700.07,478.32,698.09,470.44ZM569.72,290.12c-6.35-10.88-10.84-23.2-10.52-35.65,0-1,1.54-2.45,2.54-1.78,14.87,9.92,24.5,25.47,33,40.84,7.44,13.51,15.75,28,16.74,43.71.06,1-1.59,2.43-2.54,1.76-12.94-8.88-23.39-21.53-31.66-34.78A98.86,98.86,0,0,1,569.72,290.12ZM566.66,392c19.46,12.81,35.63,30.84,41.6,53.76.28,1-1.44,2.89-2.48,2.09-17.07-13-32.21-29.33-40.71-49.28a1.25,1.25,0,0,1,.26-1.21,34.48,34.48,0,0,1-1.15-3.29C563.85,393,565.6,391.31,566.66,392ZM607,465.45c-28-8.07-51.34-26.17-68.11-49.42,4.23,8.41,8.43,16.82,12.51,25.28.51,1.05-1.54,2.78-2.49,2.08-21.43-15.77-36.76-38.85-40.33-65-.45,7.28-1.39,14.55-2.39,21.61-.11.86-1.93,2.86-2.76,1.58-9.36-14.35-8.47-31-6-47.2a52.68,52.68,0,0,1,2.73-14.65c.34-.92,2.22-2.44,2.87-1a67.56,67.56,0,0,1,5.06,18.71c.05.38.1.75.14,1.13a.57.57,0,0,1,.16.33c.43,2.06,2.3,6.33,2.3,7a148.15,148.15,0,0,0,4,17.36,47.22,47.22,0,0,1,.23-8.3c.14-1.13,2.17-2.87,2.92-1.32,2.85,5.92,5.77,11.84,8.71,17.72-.86-3.68.08-14.47.7-12.8,0,.11.08.23.11.33,4.5,12.15,8.19,25.58,19,33.34-1.81-7.62-4.28-14.93-3.61-22.94.08-.94,1.91-2.79,2.76-1.58,9.58,13.49,16.62,28.42,27.37,41.13s22.34,24.44,36,33.93C610.07,463.69,608.18,465.79,607,465.45Zm45.4,6.18a75,75,0,0,1-30.43-24.56,1,1,0,0,1-1.17-.28c-7.17-10.37-13.89-21.28-17.61-33.43-.33-1.06,1.44-2.8,2.48-2.07,20.64,14.37,37.61,36.09,49.22,58.24C655.48,470.71,653.34,472.05,652.37,471.63Zm10.75-13.91c-13.35-7.41-22.51-21.46-32.23-32.85-10.23-12-20.63-24.56-24.6-40.16a1.31,1.31,0,0,1,.22-1,37.8,37.8,0,0,1-2-6.61A2,2,0,0,1,607,375c14.19,5.7,26.15,21.19,34.66,33.33a178.33,178.33,0,0,1,24,47.33C666,456.79,664.2,458.34,663.12,457.72ZM668.26,436c-8.27-8-13.77-18-19.5-27.84-6-8.29-12-16.51-16.49-25.74-.59-1.2,1.5-2.5,2.49-2.08,10.79,4.59,19.35,15,25.45,24.68,5.54,8.75,11,18.78,10.82,29.4C671,435.6,669.25,437,668.26,436Z"/><path class="cls-11" d="M634.61,362.15A301.41,301.41,0,0,0,619.16,325c2.15,2.69,4.29,5.91,7.17,7.56.87.51,1.82-.85,1.77-1.59-.4-5.38-3.22-10.92-5-15.94-.19-.5-1,.12-.91.53.93,4.42,2.65,8.87,3.39,13.37-2.31-1.91-4.36-4.54-6.4-6.44-2.9-2.69-5.26-6.74-8.56-8.88-.06-.05-.17.06-.11.12,1.08,1,1.95,2.75,2.88,3.88s1.87,2.43,2.8,3.65c0,.05,0,.08,0,.11a364.31,364.31,0,0,1,14.91,39.29c-3.86-1.85-7.94-5.58-10.86-7.78-4.75-3.58-9.29-7.49-13.77-11.38-9.24-8-17.54-18.08-24.64-28-.12-.17-.41.07-.33.25q2.31,4.71,4.88,9.25a.81.81,0,0,0,0,.16c1.93,5.86,4.29,11.54,6.44,17.29,1.21,3.21,3.77,8.2,4.79,12.49a158,158,0,0,0-12.79-14c-1.93-4.09-4-8.1-6.3-12-.38-.65-1.33.23-1.11.8,3.81,10,9,19.55,13.16,29.43,1.73,4.12,3.46,8.24,5.23,12.35,1.66,3.84,5,7.86-1.38,4.86-18.23-8.53-39.81-21.29-48.56-40.42-.09-.19-.36.05-.3.21a48.77,48.77,0,0,0,9,15.91.39.39,0,0,0-.09.31c2.26,7,4.57,14.65,7.47,21.42,4.57,10.7-7.62-1.78-10.18-4.31-13.27-13-23.21-28.91-27.84-46.92,0-.12-.19,0-.18.08,1.42,9.8,3.93,19.39,8.48,28.09q3,9.81,6.4,19.49s4.57,8.6,2,7.36c-6.16-2.9-11.54-7.74-16.24-12.57-15.38-15.84-22.36-38.39-23.8-60,0-.27-.43-.06-.44.13-.78,32.85,11.57,61.5,43,74.61.28.12.72-.28.63-.57-2.25-8.07-5.94-16.17-9.1-24.3.85,1.37,1.75,2.7,2.72,4,5.89,7.91,17.54,20.34,27.88,22.26.63.11,1.17-.75,1-1.28-3.26-9-6.91-17.93-10.69-26.75a81.32,81.32,0,0,0,13.07,11.81c8.14,6,20.48,14.7,30.87,15a1.3,1.3,0,0,0,1.23-1.1c1-4.79-5.3-13.42-7.12-17.74-2.39-5.66-4.74-11.43-7.29-17.08,2.07,3,4,6.18,6.22,9.12,1.76,2.38,3.93,4.35,5.7,6.7.68.91,2-.58,2.08-1.21.56-3.6-1.61-7.68-2.71-11-1.3-3.92-2.62-7.91-4.16-11.8a82.83,82.83,0,0,0,9.74,11.09c5.19,4.88,11.87,9,17.94,12.71,3.78,2.3,7.32,5.86,11.8,6.65C634,364.62,635,363.1,634.61,362.15Z"/><path class="cls-11" d="M639.06,398.33c-.24-.33-.87.29-.67.6,7.78,12.91,17.45,25,24.57,38.3,3.69,6.87,7.66,13.6,11.39,20.46,2,3.59,11.64,24.9,1.89,16.72-27-22.75-48-53.25-67.56-82.24-.12-.19-.42.06-.34.23,10,18.89,20.13,36.72,34,53.24,3.33,4,6.92,7.78,10.6,11.48,3.35,5.83,7.13,11.29,10.81,17.05A85.85,85.85,0,0,0,670,482.9c4.67,5.61-1.13,2.9-4.66,1.7-10.21-3.42-20.12-7.16-29.21-13-5.45-3.51-10-8.17-15-12.21a1.19,1.19,0,0,0,.36-1.17c-3-9.25-8.59-18.59-13.56-26.88-.26-.44-.94.15-.76.55,3.11,6.73,6.54,13.33,9.35,20.2a44.92,44.92,0,0,0,2.3,5l.05.12c-4-1.45-8.05-4.83-11.37-7.28-13.48-10-27.73-24.4-36.82-38.51-.06-.09-.22,0-.17.12,5.7,9.9,13.76,18.47,21.62,26.67s17,18,28,21.51c0,0,.08,0,.13,0,3.88,4.6,7.75,9.25,11.51,13.95q3.12,3.4,6.16,6.86c7.72,8.67-8.64,2.39-9.18,2.24-18.27-4.86-33.68-14.8-48.74-25.91-24.94-18.4-46.25-46.49-53.85-76.76-.08-.33-.54,0-.49.24,3.8,26.35,16,47.77,33.94,65.84a171.4,171.4,0,0,0,14.7,20.11c8.39,10.13,4.76,6.61-1.2,4.19A74.53,74.53,0,0,1,550,454.77c-12.84-12.78-23.57-26.46-31.1-43-6.53-14.45-7.71-28.52-11.65-43.38-.07-.23-.38,0-.36.17.57,5.91.57,11.58.83,17.25a.48.48,0,0,0-.11.23c-.37,8.29.88,16.35,2.28,24.5.46,2.56,1,5.13,1.61,7.67q1.89,7.83-.33-.29a129.16,129.16,0,0,1-7.22-12.29c-9.91-19.72-6.92-41.4-6.82-62.37,0-.24-.26-.1-.29.06-4.68,26.12-8.1,62.76,15.92,82.06,1,.82,2.47-.64,2.33-1.72-.55-4.22-1.31-8.43-2.14-12.61a106.39,106.39,0,0,0,13.59,23.48c12.25,16.15,33.32,37.12,54.48,40.63a1.11,1.11,0,0,0,1.06-1.39c-1.35-3.63-5.93-8.47-8.15-11.23-2.51-3.12-4.84-6.33-7.13-9.56,2,1.76,3.94,3.46,6,5.14,13.09,10.69,29.56,18.51,45.34,24.09,4.72,1.66,21,9,25,2.82a1,1,0,0,0,.12-.92,103,103,0,0,0-9.84-12,58,58,0,0,0,9.38,6.56c8,4.42,23.73,12.29,33.2,10.39.53-.11,1.44-1,1-1.6-5.71-7.93-11.54-15.71-17.24-23.65,2.61,2.5,5.24,5,7.86,7.4,2.2,2.06,10.19,10.88,14.33,9C692.85,475.21,644.22,405.16,639.06,398.33Z"/><path class="cls-11" d="M673.26,410.25c-1.14,1.53-17.11-16.26-18.72-17.84-6.77-6.54-12.06-14.78-18-22.05-.08-.09-.24.07-.19.15,4.27,6.55,7.87,13.66,12.39,20,3.64,5.11,8.23,9.52,12.2,14.35,1.54,1.88,11.46,12.31,13.31,5.61C674.4,409.71,673.58,409.81,673.26,410.25Z"/><path class="cls-32" d="M492,136a115,115,0,0,0-6.27-10.78c-.31,3.84-.72,7.69-1.17,11.52.61,11.18-.41,22-1.64,33.14-1.74,15.82-6,30.19-11.58,44.32a115.47,115.47,0,0,0-.64-17.71c-1.64-3.68-3.1-7.42-5-10.93a136.42,136.42,0,0,1-9.52,34.25c1.28-9.29,1.7-18.86,3.06-27.33-2.06,2.39-4.47,4.43-6.72,6.64a115.09,115.09,0,0,1-10.8,15.72c2.3-8.75,4-17.71,6.38-25.67a1.82,1.82,0,0,0-.18-1.57,45.61,45.61,0,0,0-9,7.47c-1.94,3.07-3.61,6.44-5.28,9.72.47-6.7-.23-13-1.18-20.3A82.61,82.61,0,0,1,424,213.66c-.3,1.09-.59,2.19-1,3.25a73.78,73.78,0,0,1-13.4,19.54C399,247.7,385.27,255.57,376,268c-6.93,9.3-9.73,19.91-9.48,31.31.14,6.13,2,18.63,6.68,23.82a54.83,54.83,0,0,1,3.81-11.76c.72-1.67,1.51-3.33,2.3-5a100.58,100.58,0,0,1,6.8-15.44c6.35-12,17.13-21.08,28.35-29.15-.3.62-.63,1.2-.93,1.83-3.21,7.12-9.44,17.4-8,25.61a1.15,1.15,0,0,0,1.44.92c4.73-1.46,7.07-7.07,10-10.75a103.73,103.73,0,0,1,7.29-8.05c-.37.73-.75,1.44-1.09,2.18A123.17,123.17,0,0,0,411.57,310q.38,9.77,1.45,19.46a2.08,2.08,0,0,0,.61-.46,72.11,72.11,0,0,1,12.25-10.42c6.07-4.89,12.65-9.28,19-14a124.78,124.78,0,0,0,14.48-17c7.86-10.68,14.37-22.12,17.78-34.52A133.05,133.05,0,0,1,476,270.69a1,1,0,0,0,0,.25c2.83-3.08,5.8-6.06,8.76-9.05,9.16-16.66,15.79-37.69,15.39-57.3a39.57,39.57,0,0,1,.71,5.08c.1,1.51,2.16.18,2.29-.74C507.05,182.16,503.57,159,492,136Z"/><path class="cls-33" d="M443.79,97.25c.23,12.62-9,22.31-20.53,21.63s-21.14-11.48-21.33-24.12,9-22.32,20.5-21.63S443.58,84.6,443.79,97.25Z"/><path class="cls-34" d="M441.24,95.39c1.35,10.44-4.47,19.27-13,19.74s-16.58-7.62-17.91-18.06,4.49-19.27,13-19.73S439.89,85,441.24,95.39Z"/><path class="cls-35" d="M437.24,95.3c.85,6.65-2.84,12.25-8.29,12.56s-10.54-4.84-11.4-11.49,2.86-12.28,8.28-12.56S436.39,88.65,437.24,95.3Z"/><path class="cls-31" d="M422.53,88.43c-.1,3.19-2.26,5.78-4.85,5.81s-4.63-2.53-4.56-5.71,2.24-5.78,4.84-5.79S422.6,85.26,422.53,88.43Z"/><path class="cls-36" d="M401.2,68a28.68,28.68,0,0,0-3.1,2.66C393.88,74.81,389,80.78,388.53,87c0,0-.72,6.06-.6,6.32-.61-1.35-.78-4-1.53-5.81-.9,5.41-1.55,10.88-.88,16a41.41,41.41,0,0,0,6.08,12.91,26.13,26.13,0,0,0,2,1.85,38.64,38.64,0,0,0,21.21,8.26c.18,0,.36,0,.57-.09.67-.16,2-1.78.78-2.15C400.82,119.54,397.4,104.09,397.7,90a27.77,27.77,0,0,1,2.35-5.84c7-12.93,15.81-16.58,29.76-18.82a.65.65,0,0,0,.34-.23C420.71,64,410,64.29,401.2,68Z"/><path class="cls-37" d="M639.49,582.67a80,80,0,0,1-11.71-10.9c-1-1.18-9.5-12.9-9.17-13,.1,0,.19-.22.06-.28l-.25-.13c-.21-.13-.48.2-.46.4.89,6.46,1.68,12,5.94,17.21,3.65,4.49,8.48,8.53,14.5,8.48C639,584.42,640.31,583.26,639.49,582.67Z"/><path class="cls-37" d="M621.12,587.55c-2.19-4.29-4.41-8.34-5.4-13.12-.62-3-.13-6.94-1.7-9.54-.09-.17-.31.05-.27.19.79,2.48-.38,3.48-.25,5.61a70.41,70.41,0,0,0,.52,7.68c.69,4.06,3.07,7.41,5.52,10.59C620.14,589.72,621.5,588.29,621.12,587.55Z"/><path class="cls-37" d="M659.71,583.91c-10.31-6.62-25.43-11.48-31.93-22.36-.08-.14-.28,0-.24.16,5,12.51,15.59,27.11,30.86,24.89C659.23,586.47,660.85,584.64,659.71,583.91Z"/><path class="cls-37" d="M685.44,571.61c-7.76-2.72-15.52-5.45-23.14-8.5l-6.44-2.58c-6-1.72-11.75-2.95-17.46-5-1.59-.31-3.17-.65-4.73-1,.21.23.44.45.64.69,0,0,0,.08,0,.11,9.58,12.61,20.1,22.77,36.6,23,1,0,2.53-1.93,1.16-2.39a131.11,131.11,0,0,1-20-8.43c.33.12.67.24,1,.33A79.51,79.51,0,0,0,685.44,571.61Z"/><path class="cls-37" d="M668.36,541.82c3.63,8.64,10.67,15.8,18.44,21a68.11,68.11,0,0,0,22.36,8.65c.63,0,1.25.12,1.9.13,1.14,0,2.3,0,3.45,0,.42-.58.54-1.36-.12-1.74-8.17-4.63-16.75-8.57-25-13.08-1.17-.64-2.29-1.33-3.41-2,4.25,1.7,8.49,3.38,12.63,5.37,2.31,1.1,5.26-1.91,5.28-4.27,1.23.79,2.46,1.55,3.73,2.26s2.61-.41,3.21-1.74c-3.33-7.94-8.35-15.82-15.26-20.56-1-.56-1.93-1.11-2.88-1.71a24.07,24.07,0,0,0-4.23-1.73c3.91,5.33,8.82,10.3,12.9,15.7-.5-.31-1-.63-1.5-.91-5.12-2.91-10.62-5-15.62-8.15-.55-.33-1.36.59-1.24,1.12a21.38,21.38,0,0,0,4.16,7.79C680.81,546.11,674.37,544.5,668.36,541.82Z"/><path class="cls-37" d="M720.44,536.76a44.75,44.75,0,0,0-13.22-15.4c-.26-.2-.76.24-.56.5,4,5.4,7.12,11.42,11,16.92C718.72,540.27,721.15,538.21,720.44,536.76Z"/><path class="cls-37" d="M732.82,520.86c-6.13-5-13.3-4.87-20.69-6.31-.26,0-.7.48-.42.68a49.67,49.67,0,0,0,19.15,8.82C732.17,524.31,734.08,521.89,732.82,520.86Z"/><g class="cls-38"><path class="cls-39" d="M720.16,624.22C704.87,615.94,690.1,607,675,598.1c-2.16-.91-4.35-1.75-6.56-2.54,10.29,8.64,20,16.69,32.11,23.08a280,280,0,0,0,32.91,14.64Q726.81,628.77,720.16,624.22Z"/><path class="cls-39" d="M767.66,625.16c-20.87-8.52-41.2-18.21-61.2-28.68-3.72-1.48-7.45-3-11.18-4.41,12.16,8.48,24.21,16.16,37.23,23.82,16.69,9.82,34.71,15.33,53.39,19.29C779.81,631.87,773.74,628.49,767.66,625.16Z"/><path class="cls-39" d="M810.31,603.38c-13.63-5.25-27.3-10.58-40.43-16.84-11-5.25-22.71-9.3-33.91-14.26a53.31,53.31,0,0,1-7.76-2.66c10.78,7.87,22.39,13.44,34.52,19C781,597.15,799,605,818.81,609.46a1.16,1.16,0,0,0,.58-.06C816.4,607.31,813.38,605.33,810.31,603.38Z"/><path class="cls-39" d="M826.81,578.34c-27.84-6.79-55.07-16.84-81.63-27.57-2.54-.66-5.07-1.32-7.6-2C767.45,566.3,803.79,583.9,839,584.6,835,582.5,830.88,580.4,826.81,578.34Z"/><path class="cls-39" d="M832.4,542.59a726,726,0,0,1-77-8.34l-3.63.28c29.47,9.65,61,16.41,92.15,10.63a1.49,1.49,0,0,0,.83-.63C840.62,543.92,836.51,543.26,832.4,542.59Z"/></g><path class="cls-14" d="M647.17,465.33C634,449.24,617.28,435.77,607,417.38c-.08-.14-.3,0-.27.17,4.47,20.3,21.84,38.79,38.65,49.76C646.44,468,648,466.36,647.17,465.33Z"/><path class="cls-14" d="M515.6,326.26c-8.55-30.05-6.06-64.46,9.69-91.18.09-.18-.12-.2-.21-.1-11.24,15.05-19.28,29.58-21.63,48.48-2.5,20.07,4.85,38.46,14.57,55.41Q516.56,332.63,515.6,326.26Z"/><path class="cls-14" d="M558.77,337.7c-2.95-4.75-4.92-10.7-6.72-16.16C545,306.34,540.1,289.63,540.48,274c0-.26-.33-.11-.35.08-1.24,9.6-2,18.26-1.46,27.31-6.3-18.18-8.18-37.82-8-56.94,0-.2-.23-.08-.26,0-1.44,6.36-5.17,12.27-6,18.77a59.14,59.14,0,0,0-.51,7.17c-5.93,20.73-5.42,39.74,3.89,58.68a125.23,125.23,0,0,0,10.47,14.39,1.29,1.29,0,0,0,.35-1.28c-6.21-16.95-12-36.69-13-55.91.17.77.34,1.55.53,2.33,2.55,10.34,8.24,19.64,15,27.93,3.6,12.24,12.22,20.63,22,28.79a.8.8,0,0,0,.94,0C562.28,342.75,560.36,340.27,558.77,337.7Z"/><path class="cls-14" d="M596.5,315.48c-11.48-17.5-25-35.05-32.22-54.32-.06-.13-.27,0-.25.14,5.16,25.75,16.77,46.36,35.83,64.45a.94.94,0,0,0,1.17,0Z"/><path class="cls-14" d="M533,418.25c-7.63-12.63-13.62-25.87-15.57-41.19,0-.24-.38,0-.39.14-1.88,24.91,7,42.51,25.41,58.73C539.11,430.13,535.92,424.25,533,418.25Z"/><path class="cls-14" d="M502.87,378.24c-.3-2.3-.53-4.61-.69-6.95-.64-5.79-1.23-11.6-1.68-17.43-.35,1.17-.71,2.32-1,3.39-1.21,4.33-1.31,9.15-1.86,13.6-1.2,9.71.45,18.76,5.59,27.08a1.11,1.11,0,0,0,.83.56C503.27,391.76,503.37,385,502.87,378.24Z"/><path class="cls-14" d="M575.34,441.15c-2.73-2.59-5.42-5.24-8.15-7.91-7.49-7.36-11.51-16.19-15.62-25.26-1.43-2.41-2.83-4.85-4.16-7.3,2.29,10.8,3,22.36,10.12,31.58,9.18,11.94,21.88,19.95,35.22,26.48A181.84,181.84,0,0,1,575.34,441.15Z"/><path class="cls-14" d="M590.67,426.56c-1.82-2.72-3.71-5.4-5.61-8.05-.38-.43-.76-.89-1.16-1.32a166.87,166.87,0,0,1-15-19.52c-.83-1-1.69-1.95-2.53-2.92,7.82,17.32,17,34.08,32.28,46.21a1.16,1.16,0,0,0,1.29,0C596.89,436.16,593.86,431.3,590.67,426.56Z"/><path class="cls-14" d="M638.4,422c-6.47-9.3-13.7-18-20.3-27.12-3.37-4.69-6.35-9.63-9.72-14.29-.25-.37-.52-.72-.79-1.08,9.95,27.31,27.13,53,49.17,71.88a.9.9,0,0,0,.46.22C650.92,441.81,645.09,431.67,638.4,422Z"/><path class="cls-14" d="M664.13,421.85a233.42,233.42,0,0,0-20.26-26.08c6.57,10.68,12,22.2,20.42,31.52.72.8,2.06-.7,1.71-1.52C665.41,424.46,664.77,423.16,664.13,421.85Z"/><path class="cls-40" d="M480.79,444.07a76.55,76.55,0,0,1-6.44-12.67,139.63,139.63,0,0,0,13.87,8.83,92.05,92.05,0,0,1-6.14-16.8c-10.73-20.84-19.32-44.77-13.32-67.27.2-.78-.49-1.25-1.14-.73-3.25,2.56-4.79,4.84-7,8.48-7.93,12.87-3-4,.11-9.27.55-1-.29-1.67-1.19-1.1-10.89,7-19.48,19-24.31,32.12,0-2.12-.08-4.28-.19-6.51a.79.79,0,0,0-.73-.81c-1.43,1.82-2.85,3.62-4.19,5.54a92.27,92.27,0,0,0-6,10.56c-.62,2.28-1.11,4.47-1.58,6.31a77.92,77.92,0,0,0-2.38,13.19,172.23,172.23,0,0,0-30.84-19.15c-5.83-1.85-11.32-3.44-14-3.7a2.4,2.4,0,0,0,0,.37,56.19,56.19,0,0,0,6.81,13.81c1.35,2.16,2.69,4.3,4.05,6.43a106.57,106.57,0,0,0-19.48-11.15c-.62-.25-1.67.74-1.25,1.36,2.9,4.2,5.55,8.58,8.27,12.92-12.92-7.09-24.69-15.91-32.3-27.92-1.57-1.39-3.05-2.87-4.47-4.39-1.12,2.55-2.15,5.15-3.27,7.68a55.5,55.5,0,0,0-.33,16.45c-9.57-9.35-16.06-20.42-22.69-32.26a1.11,1.11,0,0,0-.25-.3c-7,21.1,1.18,46.83,13.66,66.3a1.73,1.73,0,0,0,.33-1.26,50,50,0,0,1-.37-16.14c1.34-11,1.05-2.4,1.31.55.68,7.4,4.38,15.09,7.16,21.88a107,107,0,0,0,13.31,23.16,177.39,177.39,0,0,0,13.34,13,1.55,1.55,0,0,0,.58-1.72,59.78,59.78,0,0,1-5.62-17.37c.57,1.4,1.12,2.81,1.71,4.2,4,9.37,13.05,19.32,21.07,25.24a145.35,145.35,0,0,0,33.65,18.38c8,2.21,16.32,3.27,24.66,4.18-1.9-2.16-4.59-3.73-6.75-5.62q-2.81-2.81-5.85-5.35l-.25-.2c10.63,6.12,22.77,9.52,34.93,11.56,2.5-.09,5-.3,7.48-.58a1,1,0,0,0-.49-1.39c-12.46-5.07-23.11-14.58-31.3-25.43a37.32,37.32,0,0,0,11.65,5.4,1.58,1.58,0,0,0,1-.11c-2-3.39-4.05-6.78-6-10.22-7.4-9.27-11.29-19.13-13.83-30.88a67.84,67.84,0,0,0,11.75,10.09c4.31,2.92,11.69,7.8,17.23,6.95.66-.1,1.62-1.27.92-1.87-9.34-7.81-12.14-20.38-19.29-28.07,5.24,5.62,11.7,14.8,19.88,16.19,1,.16,1.71-1.1,1.45-1.9-2.13-6.47-8.87-12-12.23-18.27a77.19,77.19,0,0,1-4.09-8.92c.95,2.52,3.5,5.37,5.57,7.7,11.12,12.59,28.27,24.34,44.28,29.64a1.38,1.38,0,0,0,1-.09C487.22,457.43,483,451.17,480.79,444.07Z"/><g class="cls-41"><path class="cls-14" d="M351.38,439.64a57.11,57.11,0,0,1-4.65-8.65,31.9,31.9,0,0,1-4.26-16.13c-.17-1.4-.3-2.85-.39-4.32a1.48,1.48,0,0,0-1.2.85,41.18,41.18,0,0,0-2.7,13.05c-5.7-10.84-5.25-22.79-1.44-34.51,0-.07-.07-.07-.1,0-6.6,12.36-7.63,28.6,1.86,39.93.75.89,2.07-.67,2-1.43-.29-2.31.08-17.37.1-12.76a45.11,45.11,0,0,0,2.52,14.91c2.64,7.82,8.79,13.62,15.8,17.53A39.83,39.83,0,0,1,351.38,439.64Z"/><path class="cls-14" d="M394.15,455.91a.6.6,0,0,0-.08.16c-.95,2.75-1.49,6-2.35,8.86-1.73-3.75-3.12-9.72-1.81-12.83.08-.19-.16-.17-.25-.06-2.7,3.93-1.11,12.38,1.17,16.21.54.89,1.64,0,1.92-.65a28.36,28.36,0,0,0,1.75-6.24,20,20,0,0,0,6.19,12.51c4.64,4.46,10.54,6.51,16.76,7.1C406.16,476.44,396.43,467.89,394.15,455.91Z"/><path class="cls-14" d="M439.77,412.16c-2.17,3.27-2.18,7.44-2.52,11.22.06-.59-1.95-4.55-2.55-5.9-1.86-4.32-2.19-9.18-2.48-13.83,0-.13-.21,0-.22.07-.64,7.25-.52,17.11,5.09,22.61.54.53,1.39-.21,1.58-.72a20.17,20.17,0,0,0,.9-4.25,26.09,26.09,0,0,0,.93,4.84c3.71,12.71,16.73,19.22,28.57,22.27a.71.71,0,0,0,.29,0C455.45,440,443,428.27,439.77,412.16Z"/><path class="cls-14" d="M465.29,384.18a18.19,18.19,0,0,1-3.75-10.55c-.44-1.58-.85-3.16-1.24-4.75a2.17,2.17,0,0,0-.55.38c-2.15,2.11-3.14,4.66-4.14,7.29-.95-4.19-.47-8.57-.24-12.85,0-.1-.13,0-.15,0-1.16,5.74-2.73,11.54-1.29,17.41.32,1.32,2,.75,2.47-.18.94-1.83,1.56-3.82,2.38-5.71.56,6.19,5,12.23,10.32,16A49.23,49.23,0,0,1,465.29,384.18Z"/></g></g></g></svg>